<?xml version="1.0" encoding="utf-8" standalone="no"?>
<!DOCTYPE svg PUBLIC "-//W3C//DTD SVG 1.1//EN"
  "http://www.w3.org/Graphics/SVG/1.1/DTD/svg11.dtd">
<svg xmlns:xlink="http://www.w3.org/1999/xlink" width="405.265312pt" height="296.46825pt" viewBox="0 0 405.265312 296.46825" xmlns="http://www.w3.org/2000/svg" version="1.1">
 <metadata>
  <rdf:RDF xmlns:dc="http://purl.org/dc/elements/1.1/" xmlns:cc="http://creativecommons.org/ns#" xmlns:rdf="http://www.w3.org/1999/02/22-rdf-syntax-ns#">
   <cc:Work>
    <dc:type rdf:resource="http://purl.org/dc/dcmitype/StillImage"/>
    <dc:date>2022-02-09T12:30:58.369543</dc:date>
    <dc:format>image/svg+xml</dc:format>
    <dc:creator>
     <cc:Agent>
      <dc:title>Matplotlib v3.5.1, https://matplotlib.org/</dc:title>
     </cc:Agent>
    </dc:creator>
   </cc:Work>
  </rdf:RDF>
 </metadata>
 <defs>
  <style type="text/css">*{stroke-linejoin: round; stroke-linecap: butt}</style>
 </defs>
 <g id="figure_1">
  <g id="patch_1">
   <path d="M 0 296.46825 
L 405.265312 296.46825 
L 405.265312 0 
L 0 0 
z
" style="fill: #ffffff"/>
  </g>
  <g id="axes_1">
   <g id="patch_2">
    <path d="M 48.145313 78.268235 
L 405.265313 78.268235 
L 405.265313 -0 
L 48.145313 -0 
z
" style="fill: #ffffff"/>
   </g>
   <g id="matplotlib.axis_1">
    <g id="xtick_1">
     <g id="line2d_1">
      <defs>
       <path id="m5b65bbb4fc" d="M 0 0 
L 0 3.5 
" style="stroke: #000000; stroke-width: 0.8"/>
      </defs>
      <g>
       <use xlink:href="#m5b65bbb4fc" x="64.37804" y="78.268235" style="stroke: #000000; stroke-width: 0.8"/>
      </g>
     </g>
     <g id="text_1">
      <!-- 0 -->
      <g transform="translate(61.19679 92.866673)scale(0.1 -0.1)">
       <defs>
        <path id="DejaVuSans-30" d="M 2034 4250 
Q 1547 4250 1301 3770 
Q 1056 3291 1056 2328 
Q 1056 1369 1301 889 
Q 1547 409 2034 409 
Q 2525 409 2770 889 
Q 3016 1369 3016 2328 
Q 3016 3291 2770 3770 
Q 2525 4250 2034 4250 
z
M 2034 4750 
Q 2819 4750 3233 4129 
Q 3647 3509 3647 2328 
Q 3647 1150 3233 529 
Q 2819 -91 2034 -91 
Q 1250 -91 836 529 
Q 422 1150 422 2328 
Q 422 3509 836 4129 
Q 1250 4750 2034 4750 
z
" transform="scale(0.015625)"/>
       </defs>
       <use xlink:href="#DejaVuSans-30"/>
      </g>
     </g>
    </g>
    <g id="xtick_2">
     <g id="line2d_2">
      <g>
       <use xlink:href="#m5b65bbb4fc" x="105.473552" y="78.268235" style="stroke: #000000; stroke-width: 0.8"/>
      </g>
     </g>
     <g id="text_2">
      <!-- 20 -->
      <g transform="translate(99.111052 92.866673)scale(0.1 -0.1)">
       <defs>
        <path id="DejaVuSans-32" d="M 1228 531 
L 3431 531 
L 3431 0 
L 469 0 
L 469 531 
Q 828 903 1448 1529 
Q 2069 2156 2228 2338 
Q 2531 2678 2651 2914 
Q 2772 3150 2772 3378 
Q 2772 3750 2511 3984 
Q 2250 4219 1831 4219 
Q 1534 4219 1204 4116 
Q 875 4013 500 3803 
L 500 4441 
Q 881 4594 1212 4672 
Q 1544 4750 1819 4750 
Q 2544 4750 2975 4387 
Q 3406 4025 3406 3419 
Q 3406 3131 3298 2873 
Q 3191 2616 2906 2266 
Q 2828 2175 2409 1742 
Q 1991 1309 1228 531 
z
" transform="scale(0.015625)"/>
       </defs>
       <use xlink:href="#DejaVuSans-32"/>
       <use xlink:href="#DejaVuSans-30" x="63.623047"/>
      </g>
     </g>
    </g>
    <g id="xtick_3">
     <g id="line2d_3">
      <g>
       <use xlink:href="#m5b65bbb4fc" x="146.569064" y="78.268235" style="stroke: #000000; stroke-width: 0.8"/>
      </g>
     </g>
     <g id="text_3">
      <!-- 40 -->
      <g transform="translate(140.206564 92.866673)scale(0.1 -0.1)">
       <defs>
        <path id="DejaVuSans-34" d="M 2419 4116 
L 825 1625 
L 2419 1625 
L 2419 4116 
z
M 2253 4666 
L 3047 4666 
L 3047 1625 
L 3713 1625 
L 3713 1100 
L 3047 1100 
L 3047 0 
L 2419 0 
L 2419 1100 
L 313 1100 
L 313 1709 
L 2253 4666 
z
" transform="scale(0.015625)"/>
       </defs>
       <use xlink:href="#DejaVuSans-34"/>
       <use xlink:href="#DejaVuSans-30" x="63.623047"/>
      </g>
     </g>
    </g>
    <g id="xtick_4">
     <g id="line2d_4">
      <g>
       <use xlink:href="#m5b65bbb4fc" x="187.664576" y="78.268235" style="stroke: #000000; stroke-width: 0.8"/>
      </g>
     </g>
     <g id="text_4">
      <!-- 60 -->
      <g transform="translate(181.302076 92.866673)scale(0.1 -0.1)">
       <defs>
        <path id="DejaVuSans-36" d="M 2113 2584 
Q 1688 2584 1439 2293 
Q 1191 2003 1191 1497 
Q 1191 994 1439 701 
Q 1688 409 2113 409 
Q 2538 409 2786 701 
Q 3034 994 3034 1497 
Q 3034 2003 2786 2293 
Q 2538 2584 2113 2584 
z
M 3366 4563 
L 3366 3988 
Q 3128 4100 2886 4159 
Q 2644 4219 2406 4219 
Q 1781 4219 1451 3797 
Q 1122 3375 1075 2522 
Q 1259 2794 1537 2939 
Q 1816 3084 2150 3084 
Q 2853 3084 3261 2657 
Q 3669 2231 3669 1497 
Q 3669 778 3244 343 
Q 2819 -91 2113 -91 
Q 1303 -91 875 529 
Q 447 1150 447 2328 
Q 447 3434 972 4092 
Q 1497 4750 2381 4750 
Q 2619 4750 2861 4703 
Q 3103 4656 3366 4563 
z
" transform="scale(0.015625)"/>
       </defs>
       <use xlink:href="#DejaVuSans-36"/>
       <use xlink:href="#DejaVuSans-30" x="63.623047"/>
      </g>
     </g>
    </g>
    <g id="xtick_5">
     <g id="line2d_5">
      <g>
       <use xlink:href="#m5b65bbb4fc" x="228.760088" y="78.268235" style="stroke: #000000; stroke-width: 0.8"/>
      </g>
     </g>
     <g id="text_5">
      <!-- 80 -->
      <g transform="translate(222.397588 92.866673)scale(0.1 -0.1)">
       <defs>
        <path id="DejaVuSans-38" d="M 2034 2216 
Q 1584 2216 1326 1975 
Q 1069 1734 1069 1313 
Q 1069 891 1326 650 
Q 1584 409 2034 409 
Q 2484 409 2743 651 
Q 3003 894 3003 1313 
Q 3003 1734 2745 1975 
Q 2488 2216 2034 2216 
z
M 1403 2484 
Q 997 2584 770 2862 
Q 544 3141 544 3541 
Q 544 4100 942 4425 
Q 1341 4750 2034 4750 
Q 2731 4750 3128 4425 
Q 3525 4100 3525 3541 
Q 3525 3141 3298 2862 
Q 3072 2584 2669 2484 
Q 3125 2378 3379 2068 
Q 3634 1759 3634 1313 
Q 3634 634 3220 271 
Q 2806 -91 2034 -91 
Q 1263 -91 848 271 
Q 434 634 434 1313 
Q 434 1759 690 2068 
Q 947 2378 1403 2484 
z
M 1172 3481 
Q 1172 3119 1398 2916 
Q 1625 2713 2034 2713 
Q 2441 2713 2670 2916 
Q 2900 3119 2900 3481 
Q 2900 3844 2670 4047 
Q 2441 4250 2034 4250 
Q 1625 4250 1398 4047 
Q 1172 3844 1172 3481 
z
" transform="scale(0.015625)"/>
       </defs>
       <use xlink:href="#DejaVuSans-38"/>
       <use xlink:href="#DejaVuSans-30" x="63.623047"/>
      </g>
     </g>
    </g>
    <g id="xtick_6">
     <g id="line2d_6">
      <g>
       <use xlink:href="#m5b65bbb4fc" x="269.8556" y="78.268235" style="stroke: #000000; stroke-width: 0.8"/>
      </g>
     </g>
     <g id="text_6">
      <!-- 100 -->
      <g transform="translate(260.31185 92.866673)scale(0.1 -0.1)">
       <defs>
        <path id="DejaVuSans-31" d="M 794 531 
L 1825 531 
L 1825 4091 
L 703 3866 
L 703 4441 
L 1819 4666 
L 2450 4666 
L 2450 531 
L 3481 531 
L 3481 0 
L 794 0 
L 794 531 
z
" transform="scale(0.015625)"/>
       </defs>
       <use xlink:href="#DejaVuSans-31"/>
       <use xlink:href="#DejaVuSans-30" x="63.623047"/>
       <use xlink:href="#DejaVuSans-30" x="127.246094"/>
      </g>
     </g>
    </g>
    <g id="xtick_7">
     <g id="line2d_7">
      <g>
       <use xlink:href="#m5b65bbb4fc" x="310.951112" y="78.268235" style="stroke: #000000; stroke-width: 0.8"/>
      </g>
     </g>
     <g id="text_7">
      <!-- 120 -->
      <g transform="translate(301.407362 92.866673)scale(0.1 -0.1)">
       <use xlink:href="#DejaVuSans-31"/>
       <use xlink:href="#DejaVuSans-32" x="63.623047"/>
       <use xlink:href="#DejaVuSans-30" x="127.246094"/>
      </g>
     </g>
    </g>
    <g id="xtick_8">
     <g id="line2d_8">
      <g>
       <use xlink:href="#m5b65bbb4fc" x="352.046624" y="78.268235" style="stroke: #000000; stroke-width: 0.8"/>
      </g>
     </g>
     <g id="text_8">
      <!-- 140 -->
      <g transform="translate(342.502874 92.866673)scale(0.1 -0.1)">
       <use xlink:href="#DejaVuSans-31"/>
       <use xlink:href="#DejaVuSans-34" x="63.623047"/>
       <use xlink:href="#DejaVuSans-30" x="127.246094"/>
      </g>
     </g>
    </g>
    <g id="xtick_9">
     <g id="line2d_9">
      <g>
       <use xlink:href="#m5b65bbb4fc" x="393.142136" y="78.268235" style="stroke: #000000; stroke-width: 0.8"/>
      </g>
     </g>
     <g id="text_9">
      <!-- 160 -->
      <g transform="translate(383.598386 92.866673)scale(0.1 -0.1)">
       <use xlink:href="#DejaVuSans-31"/>
       <use xlink:href="#DejaVuSans-36" x="63.623047"/>
       <use xlink:href="#DejaVuSans-30" x="127.246094"/>
      </g>
     </g>
    </g>
    <g id="text_10">
     <!-- keyframe number -->
     <g transform="translate(182.025625 106.544798)scale(0.1 -0.1)">
      <defs>
       <path id="DejaVuSans-6b" d="M 581 4863 
L 1159 4863 
L 1159 1991 
L 2875 3500 
L 3609 3500 
L 1753 1863 
L 3688 0 
L 2938 0 
L 1159 1709 
L 1159 0 
L 581 0 
L 581 4863 
z
" transform="scale(0.015625)"/>
       <path id="DejaVuSans-65" d="M 3597 1894 
L 3597 1613 
L 953 1613 
Q 991 1019 1311 708 
Q 1631 397 2203 397 
Q 2534 397 2845 478 
Q 3156 559 3463 722 
L 3463 178 
Q 3153 47 2828 -22 
Q 2503 -91 2169 -91 
Q 1331 -91 842 396 
Q 353 884 353 1716 
Q 353 2575 817 3079 
Q 1281 3584 2069 3584 
Q 2775 3584 3186 3129 
Q 3597 2675 3597 1894 
z
M 3022 2063 
Q 3016 2534 2758 2815 
Q 2500 3097 2075 3097 
Q 1594 3097 1305 2825 
Q 1016 2553 972 2059 
L 3022 2063 
z
" transform="scale(0.015625)"/>
       <path id="DejaVuSans-79" d="M 2059 -325 
Q 1816 -950 1584 -1140 
Q 1353 -1331 966 -1331 
L 506 -1331 
L 506 -850 
L 844 -850 
Q 1081 -850 1212 -737 
Q 1344 -625 1503 -206 
L 1606 56 
L 191 3500 
L 800 3500 
L 1894 763 
L 2988 3500 
L 3597 3500 
L 2059 -325 
z
" transform="scale(0.015625)"/>
       <path id="DejaVuSans-66" d="M 2375 4863 
L 2375 4384 
L 1825 4384 
Q 1516 4384 1395 4259 
Q 1275 4134 1275 3809 
L 1275 3500 
L 2222 3500 
L 2222 3053 
L 1275 3053 
L 1275 0 
L 697 0 
L 697 3053 
L 147 3053 
L 147 3500 
L 697 3500 
L 697 3744 
Q 697 4328 969 4595 
Q 1241 4863 1831 4863 
L 2375 4863 
z
" transform="scale(0.015625)"/>
       <path id="DejaVuSans-72" d="M 2631 2963 
Q 2534 3019 2420 3045 
Q 2306 3072 2169 3072 
Q 1681 3072 1420 2755 
Q 1159 2438 1159 1844 
L 1159 0 
L 581 0 
L 581 3500 
L 1159 3500 
L 1159 2956 
Q 1341 3275 1631 3429 
Q 1922 3584 2338 3584 
Q 2397 3584 2469 3576 
Q 2541 3569 2628 3553 
L 2631 2963 
z
" transform="scale(0.015625)"/>
       <path id="DejaVuSans-61" d="M 2194 1759 
Q 1497 1759 1228 1600 
Q 959 1441 959 1056 
Q 959 750 1161 570 
Q 1363 391 1709 391 
Q 2188 391 2477 730 
Q 2766 1069 2766 1631 
L 2766 1759 
L 2194 1759 
z
M 3341 1997 
L 3341 0 
L 2766 0 
L 2766 531 
Q 2569 213 2275 61 
Q 1981 -91 1556 -91 
Q 1019 -91 701 211 
Q 384 513 384 1019 
Q 384 1609 779 1909 
Q 1175 2209 1959 2209 
L 2766 2209 
L 2766 2266 
Q 2766 2663 2505 2880 
Q 2244 3097 1772 3097 
Q 1472 3097 1187 3025 
Q 903 2953 641 2809 
L 641 3341 
Q 956 3463 1253 3523 
Q 1550 3584 1831 3584 
Q 2591 3584 2966 3190 
Q 3341 2797 3341 1997 
z
" transform="scale(0.015625)"/>
       <path id="DejaVuSans-6d" d="M 3328 2828 
Q 3544 3216 3844 3400 
Q 4144 3584 4550 3584 
Q 5097 3584 5394 3201 
Q 5691 2819 5691 2113 
L 5691 0 
L 5113 0 
L 5113 2094 
Q 5113 2597 4934 2840 
Q 4756 3084 4391 3084 
Q 3944 3084 3684 2787 
Q 3425 2491 3425 1978 
L 3425 0 
L 2847 0 
L 2847 2094 
Q 2847 2600 2669 2842 
Q 2491 3084 2119 3084 
Q 1678 3084 1418 2786 
Q 1159 2488 1159 1978 
L 1159 0 
L 581 0 
L 581 3500 
L 1159 3500 
L 1159 2956 
Q 1356 3278 1631 3431 
Q 1906 3584 2284 3584 
Q 2666 3584 2933 3390 
Q 3200 3197 3328 2828 
z
" transform="scale(0.015625)"/>
       <path id="DejaVuSans-20" transform="scale(0.015625)"/>
       <path id="DejaVuSans-6e" d="M 3513 2113 
L 3513 0 
L 2938 0 
L 2938 2094 
Q 2938 2591 2744 2837 
Q 2550 3084 2163 3084 
Q 1697 3084 1428 2787 
Q 1159 2491 1159 1978 
L 1159 0 
L 581 0 
L 581 3500 
L 1159 3500 
L 1159 2956 
Q 1366 3272 1645 3428 
Q 1925 3584 2291 3584 
Q 2894 3584 3203 3211 
Q 3513 2838 3513 2113 
z
" transform="scale(0.015625)"/>
       <path id="DejaVuSans-75" d="M 544 1381 
L 544 3500 
L 1119 3500 
L 1119 1403 
Q 1119 906 1312 657 
Q 1506 409 1894 409 
Q 2359 409 2629 706 
Q 2900 1003 2900 1516 
L 2900 3500 
L 3475 3500 
L 3475 0 
L 2900 0 
L 2900 538 
Q 2691 219 2414 64 
Q 2138 -91 1772 -91 
Q 1169 -91 856 284 
Q 544 659 544 1381 
z
M 1991 3584 
L 1991 3584 
z
" transform="scale(0.015625)"/>
       <path id="DejaVuSans-62" d="M 3116 1747 
Q 3116 2381 2855 2742 
Q 2594 3103 2138 3103 
Q 1681 3103 1420 2742 
Q 1159 2381 1159 1747 
Q 1159 1113 1420 752 
Q 1681 391 2138 391 
Q 2594 391 2855 752 
Q 3116 1113 3116 1747 
z
M 1159 2969 
Q 1341 3281 1617 3432 
Q 1894 3584 2278 3584 
Q 2916 3584 3314 3078 
Q 3713 2572 3713 1747 
Q 3713 922 3314 415 
Q 2916 -91 2278 -91 
Q 1894 -91 1617 61 
Q 1341 213 1159 525 
L 1159 0 
L 581 0 
L 581 4863 
L 1159 4863 
L 1159 2969 
z
" transform="scale(0.015625)"/>
      </defs>
      <use xlink:href="#DejaVuSans-6b"/>
      <use xlink:href="#DejaVuSans-65" x="54.285156"/>
      <use xlink:href="#DejaVuSans-79" x="115.808594"/>
      <use xlink:href="#DejaVuSans-66" x="174.988281"/>
      <use xlink:href="#DejaVuSans-72" x="210.193359"/>
      <use xlink:href="#DejaVuSans-61" x="251.306641"/>
      <use xlink:href="#DejaVuSans-6d" x="312.585938"/>
      <use xlink:href="#DejaVuSans-65" x="409.998047"/>
      <use xlink:href="#DejaVuSans-20" x="471.521484"/>
      <use xlink:href="#DejaVuSans-6e" x="503.308594"/>
      <use xlink:href="#DejaVuSans-75" x="566.6875"/>
      <use xlink:href="#DejaVuSans-6d" x="630.066406"/>
      <use xlink:href="#DejaVuSans-62" x="727.478516"/>
      <use xlink:href="#DejaVuSans-65" x="790.955078"/>
      <use xlink:href="#DejaVuSans-72" x="852.478516"/>
     </g>
    </g>
   </g>
   <g id="matplotlib.axis_2">
    <g id="ytick_1">
     <g id="line2d_10">
      <defs>
       <path id="m5ecd709803" d="M 0 0 
L -3.5 0 
" style="stroke: #000000; stroke-width: 0.8"/>
      </defs>
      <g>
       <use xlink:href="#m5ecd709803" x="48.145313" y="65.876467" style="stroke: #000000; stroke-width: 0.8"/>
      </g>
     </g>
     <g id="text_11">
      <!-- −140 -->
      <g transform="translate(13.678125 69.675685)scale(0.1 -0.1)">
       <defs>
        <path id="DejaVuSans-2212" d="M 678 2272 
L 4684 2272 
L 4684 1741 
L 678 1741 
L 678 2272 
z
" transform="scale(0.015625)"/>
       </defs>
       <use xlink:href="#DejaVuSans-2212"/>
       <use xlink:href="#DejaVuSans-31" x="83.789062"/>
       <use xlink:href="#DejaVuSans-34" x="147.412109"/>
       <use xlink:href="#DejaVuSans-30" x="211.035156"/>
      </g>
     </g>
    </g>
    <g id="ytick_2">
     <g id="line2d_11">
      <g>
       <use xlink:href="#m5ecd709803" x="48.145313" y="37.905662" style="stroke: #000000; stroke-width: 0.8"/>
      </g>
     </g>
     <g id="text_12">
      <!-- −130 -->
      <g transform="translate(13.678125 41.704881)scale(0.1 -0.1)">
       <defs>
        <path id="DejaVuSans-33" d="M 2597 2516 
Q 3050 2419 3304 2112 
Q 3559 1806 3559 1356 
Q 3559 666 3084 287 
Q 2609 -91 1734 -91 
Q 1441 -91 1130 -33 
Q 819 25 488 141 
L 488 750 
Q 750 597 1062 519 
Q 1375 441 1716 441 
Q 2309 441 2620 675 
Q 2931 909 2931 1356 
Q 2931 1769 2642 2001 
Q 2353 2234 1838 2234 
L 1294 2234 
L 1294 2753 
L 1863 2753 
Q 2328 2753 2575 2939 
Q 2822 3125 2822 3475 
Q 2822 3834 2567 4026 
Q 2313 4219 1838 4219 
Q 1578 4219 1281 4162 
Q 984 4106 628 3988 
L 628 4550 
Q 988 4650 1302 4700 
Q 1616 4750 1894 4750 
Q 2613 4750 3031 4423 
Q 3450 4097 3450 3541 
Q 3450 3153 3228 2886 
Q 3006 2619 2597 2516 
z
" transform="scale(0.015625)"/>
       </defs>
       <use xlink:href="#DejaVuSans-2212"/>
       <use xlink:href="#DejaVuSans-31" x="83.789062"/>
       <use xlink:href="#DejaVuSans-33" x="147.412109"/>
       <use xlink:href="#DejaVuSans-30" x="211.035156"/>
      </g>
     </g>
    </g>
    <g id="ytick_3">
     <g id="line2d_12">
      <g>
       <use xlink:href="#m5ecd709803" x="48.145313" y="9.934857" style="stroke: #000000; stroke-width: 0.8"/>
      </g>
     </g>
     <g id="text_13">
      <!-- −120 -->
      <g transform="translate(13.678125 13.734076)scale(0.1 -0.1)">
       <use xlink:href="#DejaVuSans-2212"/>
       <use xlink:href="#DejaVuSans-31" x="83.789062"/>
       <use xlink:href="#DejaVuSans-32" x="147.412109"/>
       <use xlink:href="#DejaVuSans-30" x="211.035156"/>
      </g>
     </g>
    </g>
    <g id="text_14">
     <!-- yaw [degrees] -->
     <g transform="translate(7.598437 74.863024)rotate(-90)scale(0.1 -0.1)">
      <defs>
       <path id="DejaVuSans-77" d="M 269 3500 
L 844 3500 
L 1563 769 
L 2278 3500 
L 2956 3500 
L 3675 769 
L 4391 3500 
L 4966 3500 
L 4050 0 
L 3372 0 
L 2619 2869 
L 1863 0 
L 1184 0 
L 269 3500 
z
" transform="scale(0.015625)"/>
       <path id="DejaVuSans-5b" d="M 550 4863 
L 1875 4863 
L 1875 4416 
L 1125 4416 
L 1125 -397 
L 1875 -397 
L 1875 -844 
L 550 -844 
L 550 4863 
z
" transform="scale(0.015625)"/>
       <path id="DejaVuSans-64" d="M 2906 2969 
L 2906 4863 
L 3481 4863 
L 3481 0 
L 2906 0 
L 2906 525 
Q 2725 213 2448 61 
Q 2172 -91 1784 -91 
Q 1150 -91 751 415 
Q 353 922 353 1747 
Q 353 2572 751 3078 
Q 1150 3584 1784 3584 
Q 2172 3584 2448 3432 
Q 2725 3281 2906 2969 
z
M 947 1747 
Q 947 1113 1208 752 
Q 1469 391 1925 391 
Q 2381 391 2643 752 
Q 2906 1113 2906 1747 
Q 2906 2381 2643 2742 
Q 2381 3103 1925 3103 
Q 1469 3103 1208 2742 
Q 947 2381 947 1747 
z
" transform="scale(0.015625)"/>
       <path id="DejaVuSans-67" d="M 2906 1791 
Q 2906 2416 2648 2759 
Q 2391 3103 1925 3103 
Q 1463 3103 1205 2759 
Q 947 2416 947 1791 
Q 947 1169 1205 825 
Q 1463 481 1925 481 
Q 2391 481 2648 825 
Q 2906 1169 2906 1791 
z
M 3481 434 
Q 3481 -459 3084 -895 
Q 2688 -1331 1869 -1331 
Q 1566 -1331 1297 -1286 
Q 1028 -1241 775 -1147 
L 775 -588 
Q 1028 -725 1275 -790 
Q 1522 -856 1778 -856 
Q 2344 -856 2625 -561 
Q 2906 -266 2906 331 
L 2906 616 
Q 2728 306 2450 153 
Q 2172 0 1784 0 
Q 1141 0 747 490 
Q 353 981 353 1791 
Q 353 2603 747 3093 
Q 1141 3584 1784 3584 
Q 2172 3584 2450 3431 
Q 2728 3278 2906 2969 
L 2906 3500 
L 3481 3500 
L 3481 434 
z
" transform="scale(0.015625)"/>
       <path id="DejaVuSans-73" d="M 2834 3397 
L 2834 2853 
Q 2591 2978 2328 3040 
Q 2066 3103 1784 3103 
Q 1356 3103 1142 2972 
Q 928 2841 928 2578 
Q 928 2378 1081 2264 
Q 1234 2150 1697 2047 
L 1894 2003 
Q 2506 1872 2764 1633 
Q 3022 1394 3022 966 
Q 3022 478 2636 193 
Q 2250 -91 1575 -91 
Q 1294 -91 989 -36 
Q 684 19 347 128 
L 347 722 
Q 666 556 975 473 
Q 1284 391 1588 391 
Q 1994 391 2212 530 
Q 2431 669 2431 922 
Q 2431 1156 2273 1281 
Q 2116 1406 1581 1522 
L 1381 1569 
Q 847 1681 609 1914 
Q 372 2147 372 2553 
Q 372 3047 722 3315 
Q 1072 3584 1716 3584 
Q 2034 3584 2315 3537 
Q 2597 3491 2834 3397 
z
" transform="scale(0.015625)"/>
       <path id="DejaVuSans-5d" d="M 1947 4863 
L 1947 -844 
L 622 -844 
L 622 -397 
L 1369 -397 
L 1369 4416 
L 622 4416 
L 622 4863 
L 1947 4863 
z
" transform="scale(0.015625)"/>
      </defs>
      <use xlink:href="#DejaVuSans-79"/>
      <use xlink:href="#DejaVuSans-61" x="59.179688"/>
      <use xlink:href="#DejaVuSans-77" x="120.458984"/>
      <use xlink:href="#DejaVuSans-20" x="202.246094"/>
      <use xlink:href="#DejaVuSans-5b" x="234.033203"/>
      <use xlink:href="#DejaVuSans-64" x="273.046875"/>
      <use xlink:href="#DejaVuSans-65" x="336.523438"/>
      <use xlink:href="#DejaVuSans-67" x="398.046875"/>
      <use xlink:href="#DejaVuSans-72" x="461.523438"/>
      <use xlink:href="#DejaVuSans-65" x="500.386719"/>
      <use xlink:href="#DejaVuSans-65" x="561.910156"/>
      <use xlink:href="#DejaVuSans-73" x="623.433594"/>
      <use xlink:href="#DejaVuSans-5d" x="675.533203"/>
     </g>
    </g>
   </g>
   <g id="line2d_13">
    <path d="M 64.37804 32.192685 
L 66.445903 39.160714 
L 68.513766 47.120559 
L 70.58163 46.667115 
L 72.649493 46.797374 
L 74.717357 47.586833 
L 76.78522 56.557965 
L 78.853083 56.298913 
L 80.920947 51.107426 
L 82.98881 51.724 
L 85.056673 48.990353 
L 89.1924 38.273393 
L 91.260263 35.811184 
L 93.328127 23.55509 
L 95.39599 5.82693 
L 97.463853 6.47923 
L 99.531717 18.775078 
L 101.59958 33.165044 
L 103.667443 40.975893 
L 105.735307 43.059213 
L 107.80317 41.464716 
L 109.871033 47.637007 
L 114.00676 60.983468 
L 116.074623 59.222235 
L 118.142487 58.437731 
L 120.21035 55.18545 
L 122.278213 51.416856 
L 124.346077 45.121257 
L 126.41394 33.254944 
L 128.481804 30.129938 
L 130.549667 31.382729 
L 132.61753 34.496837 
L 134.685394 30.459367 
L 136.753257 30.845889 
L 138.82112 35.650631 
L 140.888984 36.627274 
L 142.956847 38.054764 
L 145.02471 34.15724 
L 147.092574 39.437782 
L 149.160437 42.529006 
L 151.2283 43.229405 
L 153.296164 45.892661 
L 155.364027 49.869033 
L 157.43189 54.322532 
L 159.499754 57.371287 
L 161.567617 54.868389 
L 163.63548 57.508601 
L 165.703344 60.759488 
L 167.771207 60.914723 
L 169.83907 61.532214 
L 171.906934 60.629075 
L 173.974797 57.97194 
L 176.042661 54.430659 
L 178.110524 52.22991 
L 180.178387 48.811236 
L 182.246251 44.400554 
L 184.314114 43.009231 
L 186.381977 35.110057 
L 188.449841 31.420544 
L 190.517704 34.48253 
L 192.585567 39.669502 
L 194.653431 43.001875 
L 196.721294 43.436841 
L 198.789157 43.700684 
L 200.857021 45.137888 
L 202.924884 47.98168 
L 204.992747 46.004503 
L 207.060611 40.993014 
L 209.128474 37.987562 
L 211.196337 38.955118 
L 213.264201 40.376373 
L 215.332064 44.149802 
L 217.399927 43.411354 
L 219.467791 46.989669 
L 221.535654 48.75233 
L 223.603517 48.091147 
L 225.671381 52.139776 
L 227.739244 51.891136 
L 229.807108 51.444824 
L 231.874971 53.230528 
L 233.942834 59.829934 
L 236.010698 58.599052 
L 238.078561 57.729728 
L 240.146424 56.541909 
L 242.214288 56.792012 
L 244.282151 56.676857 
L 246.350014 59.037341 
L 248.417878 62.537334 
L 250.485741 57.935167 
L 252.553604 57.41785 
L 254.621468 56.628358 
L 256.689331 57.557096 
L 258.757194 55.86273 
L 260.825058 50.028129 
L 262.892921 49.395176 
L 264.960784 51.059609 
L 267.028648 50.591092 
L 269.096511 52.09771 
L 271.164374 50.121627 
L 275.300101 50.105262 
L 277.367964 56.054631 
L 279.435828 57.645569 
L 281.503691 62.94608 
L 283.571555 61.225613 
L 285.639418 58.128259 
L 287.707281 49.527228 
L 289.775145 45.353213 
L 291.843008 43.318306 
L 293.910871 42.972456 
L 295.978735 39.600121 
L 298.046598 37.137121 
L 300.114461 36.274834 
L 302.182325 37.910473 
L 304.250188 41.259241 
L 306.318051 41.258205 
L 308.385915 40.950335 
L 310.453778 47.471748 
L 312.521641 49.712776 
L 314.589505 48.886709 
L 316.657368 53.585308 
L 318.725231 54.441099 
L 320.793095 58.925289 
L 322.860958 66.640802 
L 324.928821 69.837345 
L 326.996685 73.833201 
L 329.064548 74.710588 
L 331.132412 72.140829 
L 333.200275 65.192307 
L 335.268138 59.889769 
L 337.336002 51.838145 
L 339.403865 45.616064 
L 341.471728 43.895391 
L 343.539592 41.929552 
L 345.607455 42.526263 
L 347.675318 40.935332 
L 349.743182 42.857948 
L 351.811045 37.778197 
L 353.878908 37.807221 
L 355.946772 41.551232 
L 358.014635 47.541208 
L 360.082498 52.978641 
L 362.150362 58.856845 
L 364.218225 64.312217 
L 366.286088 64.41639 
L 368.353952 64.707649 
L 370.421815 62.749821 
L 372.489678 60.469317 
L 374.557542 59.64046 
L 376.625405 59.69187 
L 378.693268 58.754057 
L 380.761132 60.977967 
L 382.828995 60.281428 
L 384.896859 59.747317 
L 386.964722 59.761174 
L 389.032585 58.365725 
L 389.032585 58.365725 
" clip-path="url(#pba296ced65)" style="fill: none; stroke: #008000; stroke-width: 1.5; stroke-linecap: square"/>
   </g>
   <g id="line2d_14">
    <path d="M 64.37804 32.192555 
L 66.445903 39.499958 
L 68.513766 47.900059 
L 70.58163 47.203804 
L 72.649493 48.180047 
L 74.717357 48.524017 
L 76.78522 57.829086 
L 78.853083 59.536883 
L 80.920947 54.327894 
L 82.98881 52.1013 
L 85.056673 52.511736 
L 87.124537 45.33144 
L 89.1924 38.898078 
L 91.260263 37.891491 
L 93.328127 25.563241 
L 95.39599 5.772648 
L 97.463853 3.557647 
L 99.531717 14.980927 
L 101.59958 32.210796 
L 103.667443 39.413724 
L 105.735307 44.120824 
L 107.80317 41.72137 
L 109.871033 47.673552 
L 111.938897 55.919105 
L 114.00676 62.982832 
L 116.074623 62.880904 
L 118.142487 61.535454 
L 120.21035 59.003044 
L 124.346077 47.586435 
L 126.41394 34.561563 
L 128.481804 29.634599 
L 130.549667 31.006623 
L 132.61753 34.972776 
L 134.685394 31.074982 
L 136.753257 30.514952 
L 138.82112 34.527347 
L 140.888984 37.985684 
L 142.956847 36.58437 
L 145.02471 33.978848 
L 147.092574 35.960212 
L 149.160437 41.956372 
L 153.296164 43.609039 
L 155.364027 48.889761 
L 157.43189 52.561745 
L 159.499754 57.546209 
L 161.567617 55.455261 
L 163.63548 57.573382 
L 165.703344 60.76069 
L 167.771207 61.492694 
L 169.83907 61.692105 
L 171.906934 61.083046 
L 173.974797 60.024719 
L 176.042661 55.063706 
L 180.178387 46.466096 
L 182.246251 44.149213 
L 184.314114 43.289336 
L 186.381977 32.22522 
L 188.449841 28.807516 
L 190.517704 29.378028 
L 192.585567 35.478813 
L 194.653431 39.784739 
L 196.721294 41.877837 
L 198.789157 41.302645 
L 200.857021 43.023131 
L 202.924884 44.355784 
L 204.992747 43.66542 
L 207.060611 38.810832 
L 209.128474 35.615136 
L 211.196337 37.457116 
L 213.264201 38.229703 
L 215.332064 41.978813 
L 217.399927 40.687068 
L 219.467791 44.780427 
L 221.535654 47.829884 
L 223.603517 45.142451 
L 225.671381 50.453458 
L 227.739244 48.983991 
L 229.807108 49.898737 
L 231.874971 51.435567 
L 233.942834 58.327305 
L 236.010698 65.955537 
L 238.078561 57.191998 
L 240.146424 53.383082 
L 242.214288 52.972502 
L 244.282151 53.312641 
L 246.350014 56.105227 
L 248.417878 60.73419 
L 250.485741 56.553984 
L 252.553604 54.999546 
L 254.621468 54.273809 
L 256.689331 54.978208 
L 258.757194 53.897491 
L 260.825058 46.949309 
L 262.892921 44.146933 
L 264.960784 46.50804 
L 267.028648 44.824433 
L 269.096511 47.669835 
L 271.164374 46.89062 
L 273.232238 45.468869 
L 275.300101 46.027609 
L 277.367964 51.827665 
L 279.435828 55.873322 
L 281.503691 61.485215 
L 283.571555 62.306026 
L 285.639418 58.262706 
L 287.707281 49.212743 
L 289.775145 43.593436 
L 291.843008 41.236556 
L 293.910871 39.791247 
L 295.978735 36.875333 
L 298.046598 34.747279 
L 300.114461 31.38386 
L 302.182325 32.885545 
L 304.250188 35.8898 
L 306.318051 35.670419 
L 308.385915 34.210146 
L 310.453778 42.163795 
L 312.521641 46.230045 
L 314.589505 46.320055 
L 316.657368 49.830087 
L 320.793095 56.042559 
L 322.860958 65.016967 
L 326.996685 73.95776 
L 329.064548 73.015427 
L 331.132412 70.063438 
L 333.200275 63.544538 
L 335.268138 57.455884 
L 337.336002 47.304217 
L 339.403865 40.270072 
L 341.471728 37.100519 
L 343.539592 34.798016 
L 345.607455 34.879108 
L 347.675318 31.922551 
L 349.743182 33.112094 
L 351.811045 30.448281 
L 353.878908 28.650137 
L 355.946772 31.895855 
L 358.014635 39.121913 
L 364.218225 58.774985 
L 366.286088 59.496925 
L 368.353952 59.355862 
L 370.421815 58.438057 
L 372.489678 55.929521 
L 374.557542 55.571445 
L 376.625405 54.267774 
L 378.693268 54.274052 
L 380.761132 56.067603 
L 382.828995 55.564503 
L 384.896859 55.545007 
L 386.964722 55.260148 
L 389.032585 54.254624 
L 389.032585 54.254624 
" clip-path="url(#pba296ced65)" style="fill: none; stroke: #ff0000; stroke-width: 1.5; stroke-linecap: square"/>
   </g>
   <g id="patch_3">
    <path d="M 48.145313 78.268235 
L 48.145313 0 
" style="fill: none; stroke: #000000; stroke-width: 0.8; stroke-linejoin: miter; stroke-linecap: square"/>
   </g>
   <g id="patch_4">
    <path d="M 405.265313 78.268235 
L 405.265313 0 
" style="fill: none; stroke: #000000; stroke-width: 0.8; stroke-linejoin: miter; stroke-linecap: square"/>
   </g>
   <g id="patch_5">
    <path d="M 48.145313 78.268235 
L 405.265313 78.268235 
" style="fill: none; stroke: #000000; stroke-width: 0.8; stroke-linejoin: miter; stroke-linecap: square"/>
   </g>
   <g id="patch_6">
    <path d="M 48.145313 -0 
L 405.265313 -0 
" style="fill: none; stroke: #000000; stroke-width: 0.8; stroke-linejoin: miter; stroke-linecap: square"/>
   </g>
   <g id="legend_1">
    <g id="patch_7">
     <path d="M 178.20375 37.634375 
L 275.206875 37.634375 
Q 277.206875 37.634375 277.206875 35.634375 
L 277.206875 7 
Q 277.206875 5 275.206875 5 
L 178.20375 5 
Q 176.20375 5 176.20375 7 
L 176.20375 35.634375 
Q 176.20375 37.634375 178.20375 37.634375 
z
" style="fill: #ffffff; opacity: 0.8; stroke: #cccccc; stroke-linejoin: miter"/>
    </g>
    <g id="line2d_15">
     <path d="M 180.20375 13.098437 
L 190.20375 13.098437 
L 200.20375 13.098437 
" style="fill: none; stroke: #008000; stroke-width: 1.5; stroke-linecap: square"/>
    </g>
    <g id="text_15">
     <!-- ground_truth -->
     <g transform="translate(208.20375 16.598437)scale(0.1 -0.1)">
      <defs>
       <path id="DejaVuSans-6f" d="M 1959 3097 
Q 1497 3097 1228 2736 
Q 959 2375 959 1747 
Q 959 1119 1226 758 
Q 1494 397 1959 397 
Q 2419 397 2687 759 
Q 2956 1122 2956 1747 
Q 2956 2369 2687 2733 
Q 2419 3097 1959 3097 
z
M 1959 3584 
Q 2709 3584 3137 3096 
Q 3566 2609 3566 1747 
Q 3566 888 3137 398 
Q 2709 -91 1959 -91 
Q 1206 -91 779 398 
Q 353 888 353 1747 
Q 353 2609 779 3096 
Q 1206 3584 1959 3584 
z
" transform="scale(0.015625)"/>
       <path id="DejaVuSans-5f" d="M 3263 -1063 
L 3263 -1509 
L -63 -1509 
L -63 -1063 
L 3263 -1063 
z
" transform="scale(0.015625)"/>
       <path id="DejaVuSans-74" d="M 1172 4494 
L 1172 3500 
L 2356 3500 
L 2356 3053 
L 1172 3053 
L 1172 1153 
Q 1172 725 1289 603 
Q 1406 481 1766 481 
L 2356 481 
L 2356 0 
L 1766 0 
Q 1100 0 847 248 
Q 594 497 594 1153 
L 594 3053 
L 172 3053 
L 172 3500 
L 594 3500 
L 594 4494 
L 1172 4494 
z
" transform="scale(0.015625)"/>
       <path id="DejaVuSans-68" d="M 3513 2113 
L 3513 0 
L 2938 0 
L 2938 2094 
Q 2938 2591 2744 2837 
Q 2550 3084 2163 3084 
Q 1697 3084 1428 2787 
Q 1159 2491 1159 1978 
L 1159 0 
L 581 0 
L 581 4863 
L 1159 4863 
L 1159 2956 
Q 1366 3272 1645 3428 
Q 1925 3584 2291 3584 
Q 2894 3584 3203 3211 
Q 3513 2838 3513 2113 
z
" transform="scale(0.015625)"/>
      </defs>
      <use xlink:href="#DejaVuSans-67"/>
      <use xlink:href="#DejaVuSans-72" x="63.476562"/>
      <use xlink:href="#DejaVuSans-6f" x="102.339844"/>
      <use xlink:href="#DejaVuSans-75" x="163.521484"/>
      <use xlink:href="#DejaVuSans-6e" x="226.900391"/>
      <use xlink:href="#DejaVuSans-64" x="290.279297"/>
      <use xlink:href="#DejaVuSans-5f" x="353.755859"/>
      <use xlink:href="#DejaVuSans-74" x="403.755859"/>
      <use xlink:href="#DejaVuSans-72" x="442.964844"/>
      <use xlink:href="#DejaVuSans-75" x="484.078125"/>
      <use xlink:href="#DejaVuSans-74" x="547.457031"/>
      <use xlink:href="#DejaVuSans-68" x="586.666016"/>
     </g>
    </g>
    <g id="line2d_16">
     <path d="M 180.20375 28.054687 
L 190.20375 28.054687 
L 200.20375 28.054687 
" style="fill: none; stroke: #ff0000; stroke-width: 1.5; stroke-linecap: square"/>
    </g>
    <g id="text_16">
     <!-- estimated -->
     <g transform="translate(208.20375 31.554687)scale(0.1 -0.1)">
      <defs>
       <path id="DejaVuSans-69" d="M 603 3500 
L 1178 3500 
L 1178 0 
L 603 0 
L 603 3500 
z
M 603 4863 
L 1178 4863 
L 1178 4134 
L 603 4134 
L 603 4863 
z
" transform="scale(0.015625)"/>
      </defs>
      <use xlink:href="#DejaVuSans-65"/>
      <use xlink:href="#DejaVuSans-73" x="61.523438"/>
      <use xlink:href="#DejaVuSans-74" x="113.623047"/>
      <use xlink:href="#DejaVuSans-69" x="152.832031"/>
      <use xlink:href="#DejaVuSans-6d" x="180.615234"/>
      <use xlink:href="#DejaVuSans-61" x="278.027344"/>
      <use xlink:href="#DejaVuSans-74" x="339.306641"/>
      <use xlink:href="#DejaVuSans-65" x="378.515625"/>
      <use xlink:href="#DejaVuSans-64" x="440.039062"/>
     </g>
    </g>
   </g>
  </g>
  <g id="axes_2">
   <g id="patch_8">
    <path d="M 48.145313 172.190118 
L 405.265313 172.190118 
L 405.265313 93.921882 
L 48.145313 93.921882 
z
" style="fill: #ffffff"/>
   </g>
   <g id="matplotlib.axis_3">
    <g id="xtick_10">
     <g id="line2d_17">
      <g>
       <use xlink:href="#m5b65bbb4fc" x="64.37804" y="172.190118" style="stroke: #000000; stroke-width: 0.8"/>
      </g>
     </g>
     <g id="text_17">
      <!-- 0 -->
      <g transform="translate(61.19679 186.788555)scale(0.1 -0.1)">
       <use xlink:href="#DejaVuSans-30"/>
      </g>
     </g>
    </g>
    <g id="xtick_11">
     <g id="line2d_18">
      <g>
       <use xlink:href="#m5b65bbb4fc" x="105.473552" y="172.190118" style="stroke: #000000; stroke-width: 0.8"/>
      </g>
     </g>
     <g id="text_18">
      <!-- 20 -->
      <g transform="translate(99.111052 186.788555)scale(0.1 -0.1)">
       <use xlink:href="#DejaVuSans-32"/>
       <use xlink:href="#DejaVuSans-30" x="63.623047"/>
      </g>
     </g>
    </g>
    <g id="xtick_12">
     <g id="line2d_19">
      <g>
       <use xlink:href="#m5b65bbb4fc" x="146.569064" y="172.190118" style="stroke: #000000; stroke-width: 0.8"/>
      </g>
     </g>
     <g id="text_19">
      <!-- 40 -->
      <g transform="translate(140.206564 186.788555)scale(0.1 -0.1)">
       <use xlink:href="#DejaVuSans-34"/>
       <use xlink:href="#DejaVuSans-30" x="63.623047"/>
      </g>
     </g>
    </g>
    <g id="xtick_13">
     <g id="line2d_20">
      <g>
       <use xlink:href="#m5b65bbb4fc" x="187.664576" y="172.190118" style="stroke: #000000; stroke-width: 0.8"/>
      </g>
     </g>
     <g id="text_20">
      <!-- 60 -->
      <g transform="translate(181.302076 186.788555)scale(0.1 -0.1)">
       <use xlink:href="#DejaVuSans-36"/>
       <use xlink:href="#DejaVuSans-30" x="63.623047"/>
      </g>
     </g>
    </g>
    <g id="xtick_14">
     <g id="line2d_21">
      <g>
       <use xlink:href="#m5b65bbb4fc" x="228.760088" y="172.190118" style="stroke: #000000; stroke-width: 0.8"/>
      </g>
     </g>
     <g id="text_21">
      <!-- 80 -->
      <g transform="translate(222.397588 186.788555)scale(0.1 -0.1)">
       <use xlink:href="#DejaVuSans-38"/>
       <use xlink:href="#DejaVuSans-30" x="63.623047"/>
      </g>
     </g>
    </g>
    <g id="xtick_15">
     <g id="line2d_22">
      <g>
       <use xlink:href="#m5b65bbb4fc" x="269.8556" y="172.190118" style="stroke: #000000; stroke-width: 0.8"/>
      </g>
     </g>
     <g id="text_22">
      <!-- 100 -->
      <g transform="translate(260.31185 186.788555)scale(0.1 -0.1)">
       <use xlink:href="#DejaVuSans-31"/>
       <use xlink:href="#DejaVuSans-30" x="63.623047"/>
       <use xlink:href="#DejaVuSans-30" x="127.246094"/>
      </g>
     </g>
    </g>
    <g id="xtick_16">
     <g id="line2d_23">
      <g>
       <use xlink:href="#m5b65bbb4fc" x="310.951112" y="172.190118" style="stroke: #000000; stroke-width: 0.8"/>
      </g>
     </g>
     <g id="text_23">
      <!-- 120 -->
      <g transform="translate(301.407362 186.788555)scale(0.1 -0.1)">
       <use xlink:href="#DejaVuSans-31"/>
       <use xlink:href="#DejaVuSans-32" x="63.623047"/>
       <use xlink:href="#DejaVuSans-30" x="127.246094"/>
      </g>
     </g>
    </g>
    <g id="xtick_17">
     <g id="line2d_24">
      <g>
       <use xlink:href="#m5b65bbb4fc" x="352.046624" y="172.190118" style="stroke: #000000; stroke-width: 0.8"/>
      </g>
     </g>
     <g id="text_24">
      <!-- 140 -->
      <g transform="translate(342.502874 186.788555)scale(0.1 -0.1)">
       <use xlink:href="#DejaVuSans-31"/>
       <use xlink:href="#DejaVuSans-34" x="63.623047"/>
       <use xlink:href="#DejaVuSans-30" x="127.246094"/>
      </g>
     </g>
    </g>
    <g id="xtick_18">
     <g id="line2d_25">
      <g>
       <use xlink:href="#m5b65bbb4fc" x="393.142136" y="172.190118" style="stroke: #000000; stroke-width: 0.8"/>
      </g>
     </g>
     <g id="text_25">
      <!-- 160 -->
      <g transform="translate(383.598386 186.788555)scale(0.1 -0.1)">
       <use xlink:href="#DejaVuSans-31"/>
       <use xlink:href="#DejaVuSans-36" x="63.623047"/>
       <use xlink:href="#DejaVuSans-30" x="127.246094"/>
      </g>
     </g>
    </g>
    <g id="text_26">
     <!-- keyframe number -->
     <g transform="translate(182.025625 200.46668)scale(0.1 -0.1)">
      <use xlink:href="#DejaVuSans-6b"/>
      <use xlink:href="#DejaVuSans-65" x="54.285156"/>
      <use xlink:href="#DejaVuSans-79" x="115.808594"/>
      <use xlink:href="#DejaVuSans-66" x="174.988281"/>
      <use xlink:href="#DejaVuSans-72" x="210.193359"/>
      <use xlink:href="#DejaVuSans-61" x="251.306641"/>
      <use xlink:href="#DejaVuSans-6d" x="312.585938"/>
      <use xlink:href="#DejaVuSans-65" x="409.998047"/>
      <use xlink:href="#DejaVuSans-20" x="471.521484"/>
      <use xlink:href="#DejaVuSans-6e" x="503.308594"/>
      <use xlink:href="#DejaVuSans-75" x="566.6875"/>
      <use xlink:href="#DejaVuSans-6d" x="630.066406"/>
      <use xlink:href="#DejaVuSans-62" x="727.478516"/>
      <use xlink:href="#DejaVuSans-65" x="790.955078"/>
      <use xlink:href="#DejaVuSans-72" x="852.478516"/>
     </g>
    </g>
   </g>
   <g id="matplotlib.axis_4">
    <g id="ytick_4">
     <g id="line2d_26">
      <g>
       <use xlink:href="#m5ecd709803" x="48.145313" y="152.416779" style="stroke: #000000; stroke-width: 0.8"/>
      </g>
     </g>
     <g id="text_27">
      <!-- −5 -->
      <g transform="translate(26.403125 156.215998)scale(0.1 -0.1)">
       <defs>
        <path id="DejaVuSans-35" d="M 691 4666 
L 3169 4666 
L 3169 4134 
L 1269 4134 
L 1269 2991 
Q 1406 3038 1543 3061 
Q 1681 3084 1819 3084 
Q 2600 3084 3056 2656 
Q 3513 2228 3513 1497 
Q 3513 744 3044 326 
Q 2575 -91 1722 -91 
Q 1428 -91 1123 -41 
Q 819 9 494 109 
L 494 744 
Q 775 591 1075 516 
Q 1375 441 1709 441 
Q 2250 441 2565 725 
Q 2881 1009 2881 1497 
Q 2881 1984 2565 2268 
Q 2250 2553 1709 2553 
Q 1456 2553 1204 2497 
Q 953 2441 691 2322 
L 691 4666 
z
" transform="scale(0.015625)"/>
       </defs>
       <use xlink:href="#DejaVuSans-2212"/>
       <use xlink:href="#DejaVuSans-35" x="83.789062"/>
      </g>
     </g>
    </g>
    <g id="ytick_5">
     <g id="line2d_27">
      <g>
       <use xlink:href="#m5ecd709803" x="48.145313" y="124.527922" style="stroke: #000000; stroke-width: 0.8"/>
      </g>
     </g>
     <g id="text_28">
      <!-- 0 -->
      <g transform="translate(34.782813 128.327141)scale(0.1 -0.1)">
       <use xlink:href="#DejaVuSans-30"/>
      </g>
     </g>
    </g>
    <g id="ytick_6">
     <g id="line2d_28">
      <g>
       <use xlink:href="#m5ecd709803" x="48.145313" y="96.639065" style="stroke: #000000; stroke-width: 0.8"/>
      </g>
     </g>
     <g id="text_29">
      <!-- 5 -->
      <g transform="translate(34.782813 100.438284)scale(0.1 -0.1)">
       <use xlink:href="#DejaVuSans-35"/>
      </g>
     </g>
    </g>
    <g id="text_30">
     <!-- pitch [degrees] -->
     <g transform="translate(20.323438 171.113812)rotate(-90)scale(0.1 -0.1)">
      <defs>
       <path id="DejaVuSans-70" d="M 1159 525 
L 1159 -1331 
L 581 -1331 
L 581 3500 
L 1159 3500 
L 1159 2969 
Q 1341 3281 1617 3432 
Q 1894 3584 2278 3584 
Q 2916 3584 3314 3078 
Q 3713 2572 3713 1747 
Q 3713 922 3314 415 
Q 2916 -91 2278 -91 
Q 1894 -91 1617 61 
Q 1341 213 1159 525 
z
M 3116 1747 
Q 3116 2381 2855 2742 
Q 2594 3103 2138 3103 
Q 1681 3103 1420 2742 
Q 1159 2381 1159 1747 
Q 1159 1113 1420 752 
Q 1681 391 2138 391 
Q 2594 391 2855 752 
Q 3116 1113 3116 1747 
z
" transform="scale(0.015625)"/>
       <path id="DejaVuSans-63" d="M 3122 3366 
L 3122 2828 
Q 2878 2963 2633 3030 
Q 2388 3097 2138 3097 
Q 1578 3097 1268 2742 
Q 959 2388 959 1747 
Q 959 1106 1268 751 
Q 1578 397 2138 397 
Q 2388 397 2633 464 
Q 2878 531 3122 666 
L 3122 134 
Q 2881 22 2623 -34 
Q 2366 -91 2075 -91 
Q 1284 -91 818 406 
Q 353 903 353 1747 
Q 353 2603 823 3093 
Q 1294 3584 2113 3584 
Q 2378 3584 2631 3529 
Q 2884 3475 3122 3366 
z
" transform="scale(0.015625)"/>
      </defs>
      <use xlink:href="#DejaVuSans-70"/>
      <use xlink:href="#DejaVuSans-69" x="63.476562"/>
      <use xlink:href="#DejaVuSans-74" x="91.259766"/>
      <use xlink:href="#DejaVuSans-63" x="130.46875"/>
      <use xlink:href="#DejaVuSans-68" x="185.449219"/>
      <use xlink:href="#DejaVuSans-20" x="248.828125"/>
      <use xlink:href="#DejaVuSans-5b" x="280.615234"/>
      <use xlink:href="#DejaVuSans-64" x="319.628906"/>
      <use xlink:href="#DejaVuSans-65" x="383.105469"/>
      <use xlink:href="#DejaVuSans-67" x="444.628906"/>
      <use xlink:href="#DejaVuSans-72" x="508.105469"/>
      <use xlink:href="#DejaVuSans-65" x="546.96875"/>
      <use xlink:href="#DejaVuSans-65" x="608.492188"/>
      <use xlink:href="#DejaVuSans-73" x="670.015625"/>
      <use xlink:href="#DejaVuSans-5d" x="722.115234"/>
     </g>
    </g>
   </g>
   <g id="line2d_29">
    <path d="M 64.37804 127.791339 
L 66.445903 120.97193 
L 68.513766 122.433552 
L 70.58163 122.088085 
L 72.649493 126.499295 
L 74.717357 116.232779 
L 76.78522 105.299908 
L 78.853083 104.930395 
L 80.920947 99.179105 
L 82.98881 104.277852 
L 85.056673 103.831608 
L 87.124537 116.443011 
L 89.1924 124.650875 
L 91.260263 124.444133 
L 93.328127 132.143025 
L 95.39599 137.589669 
L 97.463853 134.516214 
L 99.531717 137.504907 
L 101.59958 128.172076 
L 103.667443 121.264796 
L 105.735307 118.797533 
L 107.80317 124.636193 
L 109.871033 124.764637 
L 111.938897 119.71131 
L 114.00676 118.142309 
L 116.074623 123.581476 
L 118.142487 118.711858 
L 120.21035 112.787318 
L 122.278213 125.616637 
L 124.346077 130.549504 
L 126.41394 139.154779 
L 128.481804 143.565631 
L 130.549667 141.51474 
L 132.61753 142.595802 
L 134.685394 152.238501 
L 136.753257 156.709683 
L 138.82112 153.182349 
L 140.888984 144.856197 
L 142.956847 151.275404 
L 145.02471 135.80942 
L 147.092574 133.908375 
L 149.160437 117.774938 
L 151.2283 121.028565 
L 153.296164 118.657497 
L 155.364027 116.572602 
L 157.43189 125.025314 
L 159.499754 126.657248 
L 163.63548 116.200729 
L 165.703344 116.751289 
L 167.771207 115.326241 
L 169.83907 117.91454 
L 171.906934 122.597737 
L 173.974797 117.79105 
L 176.042661 126.919031 
L 178.110524 124.348992 
L 180.178387 140.441105 
L 182.246251 136.949649 
L 184.314114 165.89044 
L 186.381977 168.632471 
L 188.449841 147.333015 
L 190.517704 141.990712 
L 192.585567 139.469619 
L 194.653431 133.900063 
L 196.721294 130.763825 
L 198.789157 115.334232 
L 200.857021 111.073843 
L 202.924884 120.722749 
L 204.992747 133.365403 
L 207.060611 141.377487 
L 209.128474 141.029538 
L 211.196337 137.423631 
L 213.264201 130.301109 
L 215.332064 121.184405 
L 217.399927 123.307712 
L 219.467791 126.21133 
L 221.535654 129.71688 
L 223.603517 127.329893 
L 225.671381 117.287767 
L 227.739244 107.974336 
L 229.807108 108.679051 
L 231.874971 115.082377 
L 233.942834 123.711967 
L 236.010698 130.434142 
L 238.078561 127.822521 
L 240.146424 134.166556 
L 242.214288 139.026199 
L 244.282151 131.536477 
L 246.350014 119.201626 
L 248.417878 124.318038 
L 250.485741 119.558203 
L 252.553604 112.041664 
L 254.621468 107.758349 
L 256.689331 111.389671 
L 258.757194 120.382662 
L 260.825058 122.931962 
L 262.892921 118.254398 
L 264.960784 124.958228 
L 267.028648 122.931587 
L 269.096511 129.172231 
L 271.164374 121.086689 
L 273.232238 116.157494 
L 275.300101 118.052199 
L 277.367964 121.322968 
L 279.435828 115.894453 
L 281.503691 119.530093 
L 283.571555 114.821022 
L 285.639418 118.571169 
L 287.707281 112.462734 
L 289.775145 103.316159 
L 291.843008 103.44053 
L 293.910871 107.452983 
L 295.978735 107.245395 
L 298.046598 105.082775 
L 300.114461 105.735936 
L 302.182325 113.361465 
L 304.250188 106.494175 
L 306.318051 107.596165 
L 308.385915 119.108498 
L 310.453778 121.532174 
L 312.521641 115.6205 
L 314.589505 111.125889 
L 316.657368 116.702305 
L 318.725231 112.469671 
L 320.793095 114.85264 
L 322.860958 119.070546 
L 324.928821 116.124392 
L 326.996685 118.401409 
L 329.064548 114.878828 
L 331.132412 108.074438 
L 333.200275 107.572719 
L 335.268138 101.734708 
L 337.336002 103.907159 
L 339.403865 104.455081 
L 341.471728 104.822845 
L 343.539592 102.21011 
L 345.607455 103.548321 
L 347.675318 111.163637 
L 349.743182 124.089485 
L 351.811045 119.16816 
L 353.878908 121.745637 
L 355.946772 106.95041 
L 358.014635 105.801761 
L 360.082498 113.558419 
L 364.218225 109.277313 
L 366.286088 110.245028 
L 368.353952 108.863625 
L 370.421815 104.133952 
L 372.489678 104.010707 
L 374.557542 103.096009 
L 376.625405 101.464761 
L 378.693268 101.93575 
L 380.761132 100.783433 
L 382.828995 98.153201 
L 384.896859 99.311432 
L 386.964722 101.672572 
L 389.032585 101.526555 
L 389.032585 101.526555 
" clip-path="url(#p35ec7b52a3)" style="fill: none; stroke: #008000; stroke-width: 1.5; stroke-linecap: square"/>
   </g>
   <g id="line2d_30">
    <path d="M 64.37804 127.791199 
L 66.445903 120.409623 
L 68.513766 120.618363 
L 70.58163 119.831385 
L 72.649493 128.317005 
L 74.717357 114.933955 
L 76.78522 103.097338 
L 78.853083 102.370036 
L 80.920947 97.479529 
L 82.98881 103.845321 
L 85.056673 101.384566 
L 87.124537 115.313745 
L 89.1924 121.321759 
L 91.260263 123.435314 
L 93.328127 126.437931 
L 95.39599 133.333827 
L 97.463853 130.600394 
L 99.531717 134.876765 
L 103.667443 120.78004 
L 105.735307 115.347004 
L 107.80317 122.276477 
L 109.871033 123.608631 
L 111.938897 119.145921 
L 114.00676 118.47384 
L 116.074623 123.117305 
L 118.142487 120.742979 
L 120.21035 111.965457 
L 122.278213 124.755567 
L 124.346077 128.220088 
L 126.41394 136.531233 
L 128.481804 142.139675 
L 130.549667 140.543745 
L 132.61753 140.409235 
L 134.685394 149.054543 
L 136.753257 154.124209 
L 138.82112 152.919978 
L 140.888984 140.114822 
L 142.956847 145.677072 
L 145.02471 131.332804 
L 147.092574 129.283155 
L 149.160437 114.49326 
L 151.2283 116.043265 
L 153.296164 115.282199 
L 155.364027 113.346212 
L 157.43189 119.973739 
L 159.499754 122.980251 
L 161.567617 116.477712 
L 163.63548 110.721028 
L 165.703344 109.256649 
L 167.771207 107.42885 
L 169.83907 107.989727 
L 171.906934 112.323958 
L 173.974797 110.533507 
L 176.042661 118.168281 
L 178.110524 116.819621 
L 180.178387 135.662852 
L 182.246251 128.915445 
L 184.314114 157.686947 
L 186.381977 162.055542 
L 188.449841 139.338868 
L 190.517704 129.474541 
L 192.585567 129.013084 
L 194.653431 126.072338 
L 196.721294 128.435179 
L 198.789157 113.089804 
L 200.857021 109.171512 
L 202.924884 116.899208 
L 204.992747 131.038599 
L 207.060611 140.060847 
L 209.128474 138.521653 
L 211.196337 133.888964 
L 213.264201 126.75479 
L 215.332064 116.221863 
L 219.467791 119.009706 
L 221.535654 123.198441 
L 223.603517 125.326484 
L 225.671381 110.416016 
L 227.739244 106.040024 
L 229.807108 106.261484 
L 231.874971 108.590506 
L 233.942834 118.464992 
L 236.010698 112.042023 
L 238.078561 132.425114 
L 240.146424 137.811295 
L 242.214288 149.143493 
L 244.282151 139.818512 
L 246.350014 126.289877 
L 248.417878 129.101087 
L 250.485741 123.701314 
L 254.621468 110.8208 
L 256.689331 114.68818 
L 258.757194 123.842183 
L 260.825058 125.395944 
L 262.892921 121.327162 
L 264.960784 128.909405 
L 267.028648 127.299414 
L 269.096511 134.354641 
L 271.164374 126.551822 
L 273.232238 121.17947 
L 275.300101 122.822346 
L 277.367964 127.171357 
L 279.435828 119.5011 
L 281.503691 123.5516 
L 283.571555 117.025235 
L 285.639418 121.313995 
L 287.707281 115.455093 
L 289.775145 105.467289 
L 291.843008 104.322414 
L 293.910871 109.765093 
L 295.978735 108.486144 
L 298.046598 105.274869 
L 300.114461 105.65688 
L 302.182325 112.53182 
L 304.250188 106.012486 
L 306.318051 106.576983 
L 308.385915 120.085415 
L 310.453778 125.316294 
L 312.521641 117.26313 
L 314.589505 114.445632 
L 316.657368 118.602865 
L 318.725231 114.56198 
L 320.793095 116.120838 
L 322.860958 121.497384 
L 324.928821 119.441121 
L 326.996685 121.295233 
L 329.064548 116.723955 
L 331.132412 110.611877 
L 333.200275 109.957525 
L 335.268138 104.416304 
L 337.336002 107.533088 
L 339.403865 108.963336 
L 341.471728 108.952236 
L 343.539592 107.321441 
L 345.607455 106.942773 
L 347.675318 113.837265 
L 349.743182 126.243249 
L 351.811045 124.558637 
L 353.878908 127.19191 
L 355.946772 112.661926 
L 358.014635 111.502398 
L 360.082498 119.271399 
L 364.218225 113.825184 
L 366.286088 114.415184 
L 368.353952 112.879952 
L 370.421815 107.681203 
L 372.489678 107.93815 
L 374.557542 106.918819 
L 376.625405 105.705031 
L 378.693268 106.252647 
L 380.761132 104.665594 
L 382.828995 102.250049 
L 384.896859 103.108015 
L 386.964722 105.670887 
L 389.032585 105.399312 
L 389.032585 105.399312 
" clip-path="url(#p35ec7b52a3)" style="fill: none; stroke: #ff0000; stroke-width: 1.5; stroke-linecap: square"/>
   </g>
   <g id="patch_9">
    <path d="M 48.145313 172.190118 
L 48.145313 93.921882 
" style="fill: none; stroke: #000000; stroke-width: 0.8; stroke-linejoin: miter; stroke-linecap: square"/>
   </g>
   <g id="patch_10">
    <path d="M 405.265313 172.190118 
L 405.265313 93.921882 
" style="fill: none; stroke: #000000; stroke-width: 0.8; stroke-linejoin: miter; stroke-linecap: square"/>
   </g>
   <g id="patch_11">
    <path d="M 48.145313 172.190118 
L 405.265313 172.190118 
" style="fill: none; stroke: #000000; stroke-width: 0.8; stroke-linejoin: miter; stroke-linecap: square"/>
   </g>
   <g id="patch_12">
    <path d="M 48.145313 93.921882 
L 405.265313 93.921882 
" style="fill: none; stroke: #000000; stroke-width: 0.8; stroke-linejoin: miter; stroke-linecap: square"/>
   </g>
  </g>
  <g id="axes_3">
   <g id="patch_13">
    <path d="M 48.145313 266.112 
L 405.265313 266.112 
L 405.265313 187.843765 
L 48.145313 187.843765 
z
" style="fill: #ffffff"/>
   </g>
   <g id="matplotlib.axis_5">
    <g id="xtick_19">
     <g id="line2d_31">
      <g>
       <use xlink:href="#m5b65bbb4fc" x="64.37804" y="266.112" style="stroke: #000000; stroke-width: 0.8"/>
      </g>
     </g>
     <g id="text_31">
      <!-- 0 -->
      <g transform="translate(61.19679 280.710437)scale(0.1 -0.1)">
       <use xlink:href="#DejaVuSans-30"/>
      </g>
     </g>
    </g>
    <g id="xtick_20">
     <g id="line2d_32">
      <g>
       <use xlink:href="#m5b65bbb4fc" x="105.473552" y="266.112" style="stroke: #000000; stroke-width: 0.8"/>
      </g>
     </g>
     <g id="text_32">
      <!-- 20 -->
      <g transform="translate(99.111052 280.710437)scale(0.1 -0.1)">
       <use xlink:href="#DejaVuSans-32"/>
       <use xlink:href="#DejaVuSans-30" x="63.623047"/>
      </g>
     </g>
    </g>
    <g id="xtick_21">
     <g id="line2d_33">
      <g>
       <use xlink:href="#m5b65bbb4fc" x="146.569064" y="266.112" style="stroke: #000000; stroke-width: 0.8"/>
      </g>
     </g>
     <g id="text_33">
      <!-- 40 -->
      <g transform="translate(140.206564 280.710437)scale(0.1 -0.1)">
       <use xlink:href="#DejaVuSans-34"/>
       <use xlink:href="#DejaVuSans-30" x="63.623047"/>
      </g>
     </g>
    </g>
    <g id="xtick_22">
     <g id="line2d_34">
      <g>
       <use xlink:href="#m5b65bbb4fc" x="187.664576" y="266.112" style="stroke: #000000; stroke-width: 0.8"/>
      </g>
     </g>
     <g id="text_34">
      <!-- 60 -->
      <g transform="translate(181.302076 280.710437)scale(0.1 -0.1)">
       <use xlink:href="#DejaVuSans-36"/>
       <use xlink:href="#DejaVuSans-30" x="63.623047"/>
      </g>
     </g>
    </g>
    <g id="xtick_23">
     <g id="line2d_35">
      <g>
       <use xlink:href="#m5b65bbb4fc" x="228.760088" y="266.112" style="stroke: #000000; stroke-width: 0.8"/>
      </g>
     </g>
     <g id="text_35">
      <!-- 80 -->
      <g transform="translate(222.397588 280.710437)scale(0.1 -0.1)">
       <use xlink:href="#DejaVuSans-38"/>
       <use xlink:href="#DejaVuSans-30" x="63.623047"/>
      </g>
     </g>
    </g>
    <g id="xtick_24">
     <g id="line2d_36">
      <g>
       <use xlink:href="#m5b65bbb4fc" x="269.8556" y="266.112" style="stroke: #000000; stroke-width: 0.8"/>
      </g>
     </g>
     <g id="text_36">
      <!-- 100 -->
      <g transform="translate(260.31185 280.710437)scale(0.1 -0.1)">
       <use xlink:href="#DejaVuSans-31"/>
       <use xlink:href="#DejaVuSans-30" x="63.623047"/>
       <use xlink:href="#DejaVuSans-30" x="127.246094"/>
      </g>
     </g>
    </g>
    <g id="xtick_25">
     <g id="line2d_37">
      <g>
       <use xlink:href="#m5b65bbb4fc" x="310.951112" y="266.112" style="stroke: #000000; stroke-width: 0.8"/>
      </g>
     </g>
     <g id="text_37">
      <!-- 120 -->
      <g transform="translate(301.407362 280.710437)scale(0.1 -0.1)">
       <use xlink:href="#DejaVuSans-31"/>
       <use xlink:href="#DejaVuSans-32" x="63.623047"/>
       <use xlink:href="#DejaVuSans-30" x="127.246094"/>
      </g>
     </g>
    </g>
    <g id="xtick_26">
     <g id="line2d_38">
      <g>
       <use xlink:href="#m5b65bbb4fc" x="352.046624" y="266.112" style="stroke: #000000; stroke-width: 0.8"/>
      </g>
     </g>
     <g id="text_38">
      <!-- 140 -->
      <g transform="translate(342.502874 280.710437)scale(0.1 -0.1)">
       <use xlink:href="#DejaVuSans-31"/>
       <use xlink:href="#DejaVuSans-34" x="63.623047"/>
       <use xlink:href="#DejaVuSans-30" x="127.246094"/>
      </g>
     </g>
    </g>
    <g id="xtick_27">
     <g id="line2d_39">
      <g>
       <use xlink:href="#m5b65bbb4fc" x="393.142136" y="266.112" style="stroke: #000000; stroke-width: 0.8"/>
      </g>
     </g>
     <g id="text_39">
      <!-- 160 -->
      <g transform="translate(383.598386 280.710437)scale(0.1 -0.1)">
       <use xlink:href="#DejaVuSans-31"/>
       <use xlink:href="#DejaVuSans-36" x="63.623047"/>
       <use xlink:href="#DejaVuSans-30" x="127.246094"/>
      </g>
     </g>
    </g>
    <g id="text_40">
     <!-- keyframe number -->
     <g transform="translate(182.025625 294.388562)scale(0.1 -0.1)">
      <use xlink:href="#DejaVuSans-6b"/>
      <use xlink:href="#DejaVuSans-65" x="54.285156"/>
      <use xlink:href="#DejaVuSans-79" x="115.808594"/>
      <use xlink:href="#DejaVuSans-66" x="174.988281"/>
      <use xlink:href="#DejaVuSans-72" x="210.193359"/>
      <use xlink:href="#DejaVuSans-61" x="251.306641"/>
      <use xlink:href="#DejaVuSans-6d" x="312.585938"/>
      <use xlink:href="#DejaVuSans-65" x="409.998047"/>
      <use xlink:href="#DejaVuSans-20" x="471.521484"/>
      <use xlink:href="#DejaVuSans-6e" x="503.308594"/>
      <use xlink:href="#DejaVuSans-75" x="566.6875"/>
      <use xlink:href="#DejaVuSans-6d" x="630.066406"/>
      <use xlink:href="#DejaVuSans-62" x="727.478516"/>
      <use xlink:href="#DejaVuSans-65" x="790.955078"/>
      <use xlink:href="#DejaVuSans-72" x="852.478516"/>
     </g>
    </g>
   </g>
   <g id="matplotlib.axis_6">
    <g id="ytick_7">
     <g id="line2d_40">
      <g>
       <use xlink:href="#m5ecd709803" x="48.145313" y="234.625012" style="stroke: #000000; stroke-width: 0.8"/>
      </g>
     </g>
     <g id="text_41">
      <!-- 80 -->
      <g transform="translate(28.420313 238.424231)scale(0.1 -0.1)">
       <use xlink:href="#DejaVuSans-38"/>
       <use xlink:href="#DejaVuSans-30" x="63.623047"/>
      </g>
     </g>
    </g>
    <g id="ytick_8">
     <g id="line2d_41">
      <g>
       <use xlink:href="#m5ecd709803" x="48.145313" y="193.84677" style="stroke: #000000; stroke-width: 0.8"/>
      </g>
     </g>
     <g id="text_42">
      <!-- 100 -->
      <g transform="translate(22.057813 197.645988)scale(0.1 -0.1)">
       <use xlink:href="#DejaVuSans-31"/>
       <use xlink:href="#DejaVuSans-30" x="63.623047"/>
       <use xlink:href="#DejaVuSans-30" x="127.246094"/>
      </g>
     </g>
    </g>
    <g id="text_43">
     <!-- roll [degrees] -->
     <g transform="translate(15.978125 260.374757)rotate(-90)scale(0.1 -0.1)">
      <defs>
       <path id="DejaVuSans-6c" d="M 603 4863 
L 1178 4863 
L 1178 0 
L 603 0 
L 603 4863 
z
" transform="scale(0.015625)"/>
      </defs>
      <use xlink:href="#DejaVuSans-72"/>
      <use xlink:href="#DejaVuSans-6f" x="38.863281"/>
      <use xlink:href="#DejaVuSans-6c" x="100.044922"/>
      <use xlink:href="#DejaVuSans-6c" x="127.828125"/>
      <use xlink:href="#DejaVuSans-20" x="155.611328"/>
      <use xlink:href="#DejaVuSans-5b" x="187.398438"/>
      <use xlink:href="#DejaVuSans-64" x="226.412109"/>
      <use xlink:href="#DejaVuSans-65" x="289.888672"/>
      <use xlink:href="#DejaVuSans-67" x="351.412109"/>
      <use xlink:href="#DejaVuSans-72" x="414.888672"/>
      <use xlink:href="#DejaVuSans-65" x="453.751953"/>
      <use xlink:href="#DejaVuSans-65" x="515.275391"/>
      <use xlink:href="#DejaVuSans-73" x="576.798828"/>
      <use xlink:href="#DejaVuSans-5d" x="628.898438"/>
     </g>
    </g>
   </g>
   <g id="line2d_42">
    <path d="M 64.37804 223.056714 
L 66.445903 220.915551 
L 68.513766 219.718643 
L 70.58163 221.071207 
L 72.649493 220.057465 
L 74.717357 220.072955 
L 76.78522 218.948568 
L 78.853083 217.307356 
L 80.920947 215.331493 
L 82.98881 213.580008 
L 85.056673 211.038726 
L 87.124537 213.318678 
L 89.1924 216.333712 
L 91.260263 217.384674 
L 93.328127 222.08273 
L 95.39599 229.999117 
L 97.463853 230.805619 
L 99.531717 227.572035 
L 101.59958 220.84814 
L 103.667443 217.577516 
L 105.735307 218.801353 
L 107.80317 222.960998 
L 109.871033 226.632422 
L 111.938897 227.008278 
L 114.00676 226.242847 
L 116.074623 223.815004 
L 118.142487 219.543426 
L 120.21035 215.608412 
L 122.278213 214.526684 
L 124.346077 215.058257 
L 128.481804 222.043887 
L 130.549667 223.419311 
L 132.61753 221.837727 
L 134.685394 226.37284 
L 136.753257 230.594761 
L 138.82112 231.75621 
L 140.888984 236.375825 
L 142.956847 242.925934 
L 145.02471 242.671472 
L 147.092574 238.314471 
L 151.2283 227.930484 
L 153.296164 226.17639 
L 155.364027 223.681979 
L 157.43189 217.393738 
L 161.567617 208.096232 
L 163.63548 199.711718 
L 165.703344 195.480939 
L 167.771207 193.653271 
L 169.83907 195.790824 
L 171.906934 200.674357 
L 173.974797 202.174658 
L 176.042661 205.122333 
L 178.110524 214.048006 
L 180.178387 225.315773 
L 182.246251 230.613146 
L 184.314114 235.133165 
L 186.381977 236.578224 
L 188.449841 239.02026 
L 190.517704 245.089516 
L 192.585567 244.838052 
L 194.653431 241.010268 
L 196.721294 236.623262 
L 198.789157 230.823431 
L 200.857021 223.088723 
L 202.924884 219.536196 
L 204.992747 218.113284 
L 207.060611 216.019977 
L 209.128474 211.267145 
L 211.196337 205.343112 
L 213.264201 200.077258 
L 215.332064 198.451669 
L 217.399927 196.421839 
L 219.467791 196.810444 
L 221.535654 201.640367 
L 225.671381 213.588945 
L 227.739244 223.181649 
L 229.807108 234.771188 
L 231.874971 244.844498 
L 233.942834 253.489606 
L 236.010698 260.223823 
L 238.078561 262.110277 
L 240.146424 251.368748 
L 242.214288 239.376237 
L 244.282151 223.644135 
L 246.350014 214.36602 
L 248.417878 213.359893 
L 250.485741 213.25702 
L 252.553604 212.116964 
L 256.689331 214.032101 
L 258.757194 215.711871 
L 260.825058 215.280889 
L 262.892921 215.669143 
L 264.960784 214.802747 
L 267.028648 213.704818 
L 269.096511 212.291855 
L 271.164374 210.408597 
L 273.232238 210.259872 
L 275.300101 211.895568 
L 277.367964 214.675523 
L 279.435828 217.113627 
L 281.503691 219.162523 
L 283.571555 219.657332 
L 289.775145 216.449228 
L 291.843008 215.050521 
L 293.910871 213.906067 
L 295.978735 212.985198 
L 298.046598 212.889815 
L 300.114461 214.115085 
L 302.182325 215.522821 
L 304.250188 218.087516 
L 306.318051 216.400372 
L 308.385915 213.244165 
L 310.453778 209.717053 
L 312.521641 206.906548 
L 314.589505 206.62131 
L 316.657368 208.518075 
L 318.725231 210.240397 
L 320.793095 212.754609 
L 322.860958 217.520677 
L 324.928821 220.759145 
L 326.996685 223.333803 
L 329.064548 223.931636 
L 331.132412 222.52175 
L 333.200275 220.150263 
L 335.268138 216.924312 
L 339.403865 211.134297 
L 341.471728 209.971871 
L 343.539592 210.536348 
L 345.607455 211.426583 
L 347.675318 211.087816 
L 349.743182 213.946944 
L 351.811045 213.394259 
L 353.878908 212.430337 
L 355.946772 209.51368 
L 358.014635 210.282831 
L 360.082498 211.733486 
L 362.150362 212.796419 
L 364.218225 216.404001 
L 366.286088 219.073581 
L 368.353952 219.648371 
L 370.421815 218.11275 
L 374.557542 215.533203 
L 378.693268 214.81552 
L 380.761132 214.781508 
L 382.828995 215.279791 
L 384.896859 214.576713 
L 386.964722 214.130446 
L 389.032585 213.505043 
L 389.032585 213.505043 
" clip-path="url(#p7820ce9a0c)" style="fill: none; stroke: #008000; stroke-width: 1.5; stroke-linecap: square"/>
   </g>
   <g id="line2d_43">
    <path d="M 64.37804 223.056708 
L 66.445903 220.58525 
L 68.513766 218.627853 
L 70.58163 219.8968 
L 72.649493 220.488461 
L 74.717357 218.986097 
L 76.78522 217.789456 
L 78.853083 216.861376 
L 80.920947 214.85669 
L 82.98881 213.690238 
L 85.056673 210.026813 
L 87.124537 212.625887 
L 91.260263 217.072129 
L 93.328127 220.25702 
L 95.39599 228.731469 
L 97.463853 230.34918 
L 99.531717 227.62841 
L 101.59958 221.266542 
L 103.667443 217.457021 
L 105.735307 217.373561 
L 107.80317 221.871593 
L 109.871033 226.032807 
L 111.938897 226.510945 
L 114.00676 226.129528 
L 116.074623 223.799886 
L 118.142487 220.262743 
L 120.21035 215.21003 
L 122.278213 213.953283 
L 124.346077 213.993878 
L 126.41394 217.034517 
L 128.481804 221.109875 
L 130.549667 223.116255 
L 132.61753 221.104971 
L 134.685394 224.447226 
L 136.753257 230.046554 
L 138.82112 231.639441 
L 140.888984 235.02233 
L 142.956847 241.369263 
L 145.02471 243.175878 
L 147.092574 238.129883 
L 149.160437 233.684796 
L 151.2283 227.63797 
L 153.296164 226.332769 
L 155.364027 223.901928 
L 157.43189 217.090189 
L 161.567617 207.790102 
L 163.63548 199.278899 
L 165.703344 193.884981 
L 167.771207 191.401412 
L 169.83907 192.277765 
L 171.906934 197.180521 
L 173.974797 199.588496 
L 176.042661 201.521691 
L 178.110524 210.930614 
L 180.178387 223.955702 
L 182.246251 228.269282 
L 184.314114 233.499693 
L 186.381977 235.984972 
L 188.449841 237.97447 
L 190.517704 243.058924 
L 192.585567 244.059804 
L 194.653431 240.308038 
L 196.721294 236.951566 
L 198.789157 230.741711 
L 200.857021 222.705248 
L 202.924884 218.243298 
L 204.992747 217.039622 
L 207.060611 215.341987 
L 209.128474 210.048798 
L 211.196337 203.433768 
L 213.264201 197.578425 
L 215.332064 195.903701 
L 217.399927 193.032757 
L 219.467791 192.789356 
L 221.535654 197.461273 
L 223.603517 205.750285 
L 225.671381 208.700098 
L 227.739244 219.858083 
L 229.807108 232.283579 
L 233.942834 250.314917 
L 236.010698 254.652644 
L 238.078561 262.554353 
L 240.146424 252.707865 
L 242.214288 241.894588 
L 244.282151 225.365063 
L 246.350014 214.715676 
L 248.417878 212.893376 
L 250.485741 212.699552 
L 252.553604 211.342493 
L 254.621468 211.558035 
L 256.689331 212.737373 
L 258.757194 214.673087 
L 260.825058 214.231795 
L 262.892921 214.679217 
L 264.960784 214.385335 
L 267.028648 212.780735 
L 269.096511 211.897138 
L 271.164374 209.733375 
L 273.232238 209.550944 
L 275.300101 210.927237 
L 277.367964 213.168277 
L 281.503691 218.507321 
L 283.571555 218.693051 
L 285.639418 217.325742 
L 287.707281 216.560349 
L 289.775145 215.029402 
L 291.843008 213.164892 
L 293.910871 212.409371 
L 295.978735 211.042896 
L 298.046598 211.011215 
L 300.114461 212.267829 
L 302.182325 213.923252 
L 304.250188 216.592984 
L 306.318051 214.937194 
L 310.453778 209.017204 
L 312.521641 205.202376 
L 314.589505 205.444812 
L 316.657368 206.108867 
L 320.793095 210.603379 
L 322.860958 214.853388 
L 324.928821 218.506837 
L 326.996685 221.389968 
L 329.064548 222.303875 
L 331.132412 220.857335 
L 333.200275 218.045879 
L 335.268138 214.78736 
L 337.336002 211.860771 
L 339.403865 208.371875 
L 341.471728 206.772026 
L 343.539592 207.263314 
L 345.607455 208.421114 
L 347.675318 207.796059 
L 349.743182 211.16435 
L 351.811045 211.406436 
L 353.878908 210.38939 
L 355.946772 206.564811 
L 358.014635 207.426118 
L 360.082498 209.170564 
L 362.150362 209.956128 
L 364.218225 213.597592 
L 366.286088 216.471051 
L 368.353952 217.134409 
L 370.421815 215.52319 
L 372.489678 214.322202 
L 374.557542 212.875072 
L 376.625405 212.675899 
L 378.693268 212.148223 
L 380.761132 211.807381 
L 382.828995 212.51086 
L 389.032585 210.708171 
L 389.032585 210.708171 
" clip-path="url(#p7820ce9a0c)" style="fill: none; stroke: #ff0000; stroke-width: 1.5; stroke-linecap: square"/>
   </g>
   <g id="patch_14">
    <path d="M 48.145313 266.112 
L 48.145313 187.843765 
" style="fill: none; stroke: #000000; stroke-width: 0.8; stroke-linejoin: miter; stroke-linecap: square"/>
   </g>
   <g id="patch_15">
    <path d="M 405.265313 266.112 
L 405.265313 187.843765 
" style="fill: none; stroke: #000000; stroke-width: 0.8; stroke-linejoin: miter; stroke-linecap: square"/>
   </g>
   <g id="patch_16">
    <path d="M 48.145313 266.112 
L 405.265313 266.112 
" style="fill: none; stroke: #000000; stroke-width: 0.8; stroke-linejoin: miter; stroke-linecap: square"/>
   </g>
   <g id="patch_17">
    <path d="M 48.145313 187.843765 
L 405.265313 187.843765 
" style="fill: none; stroke: #000000; stroke-width: 0.8; stroke-linejoin: miter; stroke-linecap: square"/>
   </g>
  </g>
 </g>
 <defs>
  <clipPath id="pba296ced65">
   <rect x="48.145313" y="-0" width="357.12" height="78.268235"/>
  </clipPath>
  <clipPath id="p35ec7b52a3">
   <rect x="48.145313" y="93.921882" width="357.12" height="78.268235"/>
  </clipPath>
  <clipPath id="p7820ce9a0c">
   <rect x="48.145313" y="187.843765" width="357.12" height="78.268235"/>
  </clipPath>
 </defs>
</svg>
