<?xml version="1.0" encoding="utf-8" standalone="no"?>
<!DOCTYPE svg PUBLIC "-//W3C//DTD SVG 1.1//EN"
  "http://www.w3.org/Graphics/SVG/1.1/DTD/svg11.dtd">
<svg xmlns:xlink="http://www.w3.org/1999/xlink" width="412.04pt" height="269.612pt" viewBox="0 0 412.04 269.612" xmlns="http://www.w3.org/2000/svg" version="1.1">
 <metadata>
  <rdf:RDF xmlns:dc="http://purl.org/dc/elements/1.1/" xmlns:cc="http://creativecommons.org/ns#" xmlns:rdf="http://www.w3.org/1999/02/22-rdf-syntax-ns#">
   <cc:Work>
    <dc:type rdf:resource="http://purl.org/dc/dcmitype/StillImage"/>
    <dc:date>2022-02-10T00:11:44.570135</dc:date>
    <dc:format>image/svg+xml</dc:format>
    <dc:creator>
     <cc:Agent>
      <dc:title>Matplotlib v3.5.1, https://matplotlib.org/</dc:title>
     </cc:Agent>
    </dc:creator>
   </cc:Work>
  </rdf:RDF>
 </metadata>
 <defs>
  <style type="text/css">*{stroke-linejoin: round; stroke-linecap: butt}</style>
 </defs>
 <g id="figure_1">
  <g id="patch_1">
   <path d="M 0 269.612 
L 412.04 269.612 
L 412.04 0 
L 0 0 
z
" style="fill: #ffffff"/>
  </g>
  <g id="axes_1">
   <g id="patch_2">
    <path d="M 54.92 78.268235 
L 412.04 78.268235 
L 412.04 0 
L 54.92 0 
z
" style="fill: #ffffff"/>
   </g>
   <g id="matplotlib.axis_1"/>
   <g id="matplotlib.axis_2">
    <g id="ytick_1">
     <g id="line2d_1">
      <defs>
       <path id="m39153dc779" d="M 0 0 
L -3.5 0 
" style="stroke: #000000; stroke-width: 0.8"/>
      </defs>
      <g>
       <use xlink:href="#m39153dc779" x="54.92" y="58.635795" style="stroke: #000000; stroke-width: 0.8"/>
      </g>
     </g>
     <g id="text_1">
      <!-- −140 -->
      <g transform="translate(20.452813 62.435014)scale(0.1 -0.1)">
       <defs>
        <path id="DejaVuSans-2212" d="M 678 2272 
L 4684 2272 
L 4684 1741 
L 678 1741 
L 678 2272 
z
" transform="scale(0.015625)"/>
        <path id="DejaVuSans-31" d="M 794 531 
L 1825 531 
L 1825 4091 
L 703 3866 
L 703 4441 
L 1819 4666 
L 2450 4666 
L 2450 531 
L 3481 531 
L 3481 0 
L 794 0 
L 794 531 
z
" transform="scale(0.015625)"/>
        <path id="DejaVuSans-34" d="M 2419 4116 
L 825 1625 
L 2419 1625 
L 2419 4116 
z
M 2253 4666 
L 3047 4666 
L 3047 1625 
L 3713 1625 
L 3713 1100 
L 3047 1100 
L 3047 0 
L 2419 0 
L 2419 1100 
L 313 1100 
L 313 1709 
L 2253 4666 
z
" transform="scale(0.015625)"/>
        <path id="DejaVuSans-30" d="M 2034 4250 
Q 1547 4250 1301 3770 
Q 1056 3291 1056 2328 
Q 1056 1369 1301 889 
Q 1547 409 2034 409 
Q 2525 409 2770 889 
Q 3016 1369 3016 2328 
Q 3016 3291 2770 3770 
Q 2525 4250 2034 4250 
z
M 2034 4750 
Q 2819 4750 3233 4129 
Q 3647 3509 3647 2328 
Q 3647 1150 3233 529 
Q 2819 -91 2034 -91 
Q 1250 -91 836 529 
Q 422 1150 422 2328 
Q 422 3509 836 4129 
Q 1250 4750 2034 4750 
z
" transform="scale(0.015625)"/>
       </defs>
       <use xlink:href="#DejaVuSans-2212"/>
       <use xlink:href="#DejaVuSans-31" x="83.789062"/>
       <use xlink:href="#DejaVuSans-34" x="147.412109"/>
       <use xlink:href="#DejaVuSans-30" x="211.035156"/>
      </g>
     </g>
    </g>
    <g id="ytick_2">
     <g id="line2d_2">
      <g>
       <use xlink:href="#m39153dc779" x="54.92" y="27.704924" style="stroke: #000000; stroke-width: 0.8"/>
      </g>
     </g>
     <g id="text_2">
      <!-- −120 -->
      <g transform="translate(20.452813 31.504142)scale(0.1 -0.1)">
       <defs>
        <path id="DejaVuSans-32" d="M 1228 531 
L 3431 531 
L 3431 0 
L 469 0 
L 469 531 
Q 828 903 1448 1529 
Q 2069 2156 2228 2338 
Q 2531 2678 2651 2914 
Q 2772 3150 2772 3378 
Q 2772 3750 2511 3984 
Q 2250 4219 1831 4219 
Q 1534 4219 1204 4116 
Q 875 4013 500 3803 
L 500 4441 
Q 881 4594 1212 4672 
Q 1544 4750 1819 4750 
Q 2544 4750 2975 4387 
Q 3406 4025 3406 3419 
Q 3406 3131 3298 2873 
Q 3191 2616 2906 2266 
Q 2828 2175 2409 1742 
Q 1991 1309 1228 531 
z
" transform="scale(0.015625)"/>
       </defs>
       <use xlink:href="#DejaVuSans-2212"/>
       <use xlink:href="#DejaVuSans-31" x="83.789062"/>
       <use xlink:href="#DejaVuSans-32" x="147.412109"/>
       <use xlink:href="#DejaVuSans-30" x="211.035156"/>
      </g>
     </g>
    </g>
    <g id="text_3">
     <!-- yaw [°] -->
     <g transform="translate(12.917344 69.90943)rotate(-90)scale(0.17 -0.17)">
      <defs>
       <path id="DejaVuSans-79" d="M 2059 -325 
Q 1816 -950 1584 -1140 
Q 1353 -1331 966 -1331 
L 506 -1331 
L 506 -850 
L 844 -850 
Q 1081 -850 1212 -737 
Q 1344 -625 1503 -206 
L 1606 56 
L 191 3500 
L 800 3500 
L 1894 763 
L 2988 3500 
L 3597 3500 
L 2059 -325 
z
" transform="scale(0.015625)"/>
       <path id="DejaVuSans-61" d="M 2194 1759 
Q 1497 1759 1228 1600 
Q 959 1441 959 1056 
Q 959 750 1161 570 
Q 1363 391 1709 391 
Q 2188 391 2477 730 
Q 2766 1069 2766 1631 
L 2766 1759 
L 2194 1759 
z
M 3341 1997 
L 3341 0 
L 2766 0 
L 2766 531 
Q 2569 213 2275 61 
Q 1981 -91 1556 -91 
Q 1019 -91 701 211 
Q 384 513 384 1019 
Q 384 1609 779 1909 
Q 1175 2209 1959 2209 
L 2766 2209 
L 2766 2266 
Q 2766 2663 2505 2880 
Q 2244 3097 1772 3097 
Q 1472 3097 1187 3025 
Q 903 2953 641 2809 
L 641 3341 
Q 956 3463 1253 3523 
Q 1550 3584 1831 3584 
Q 2591 3584 2966 3190 
Q 3341 2797 3341 1997 
z
" transform="scale(0.015625)"/>
       <path id="DejaVuSans-77" d="M 269 3500 
L 844 3500 
L 1563 769 
L 2278 3500 
L 2956 3500 
L 3675 769 
L 4391 3500 
L 4966 3500 
L 4050 0 
L 3372 0 
L 2619 2869 
L 1863 0 
L 1184 0 
L 269 3500 
z
" transform="scale(0.015625)"/>
       <path id="DejaVuSans-20" transform="scale(0.015625)"/>
       <path id="DejaVuSans-5b" d="M 550 4863 
L 1875 4863 
L 1875 4416 
L 1125 4416 
L 1125 -397 
L 1875 -397 
L 1875 -844 
L 550 -844 
L 550 4863 
z
" transform="scale(0.015625)"/>
       <path id="DejaVuSans-b0" d="M 1600 4347 
Q 1350 4347 1178 4173 
Q 1006 4000 1006 3750 
Q 1006 3503 1178 3333 
Q 1350 3163 1600 3163 
Q 1850 3163 2022 3333 
Q 2194 3503 2194 3750 
Q 2194 3997 2020 4172 
Q 1847 4347 1600 4347 
z
M 1600 4750 
Q 1800 4750 1984 4673 
Q 2169 4597 2303 4453 
Q 2447 4313 2519 4134 
Q 2591 3956 2591 3750 
Q 2591 3338 2302 3052 
Q 2013 2766 1594 2766 
Q 1172 2766 890 3047 
Q 609 3328 609 3750 
Q 609 4169 896 4459 
Q 1184 4750 1600 4750 
z
" transform="scale(0.015625)"/>
       <path id="DejaVuSans-5d" d="M 1947 4863 
L 1947 -844 
L 622 -844 
L 622 -397 
L 1369 -397 
L 1369 4416 
L 622 4416 
L 622 4863 
L 1947 4863 
z
" transform="scale(0.015625)"/>
      </defs>
      <use xlink:href="#DejaVuSans-79"/>
      <use xlink:href="#DejaVuSans-61" x="59.179688"/>
      <use xlink:href="#DejaVuSans-77" x="120.458984"/>
      <use xlink:href="#DejaVuSans-20" x="202.246094"/>
      <use xlink:href="#DejaVuSans-5b" x="234.033203"/>
      <use xlink:href="#DejaVuSans-b0" x="273.046875"/>
      <use xlink:href="#DejaVuSans-5d" x="323.046875"/>
     </g>
    </g>
   </g>
   <g id="line2d_3">
    <path d="M 71.152727 47.388206 
L 72.861435 45.733268 
L 76.278852 38.492995 
L 77.98756 35.763539 
L 79.696268 34.075853 
L 81.404976 35.249541 
L 83.113684 34.359671 
L 84.822392 33.712328 
L 88.239809 32.140045 
L 89.948517 31.717328 
L 93.365933 35.83354 
L 95.074641 36.732238 
L 98.492057 39.193745 
L 100.200766 39.602046 
L 101.909474 38.999678 
L 103.618182 40.522072 
L 105.32689 43.968373 
L 107.035598 47.073723 
L 108.744306 47.781793 
L 110.453014 48.312876 
L 112.161722 48.379104 
L 113.870431 47.573796 
L 115.579139 48.616621 
L 117.287847 52.832071 
L 118.996555 53.941902 
L 120.705263 52.793552 
L 122.413971 49.841063 
L 124.122679 52.558618 
L 125.831388 57.664955 
L 127.540096 58.311804 
L 129.248804 59.775608 
L 130.957512 61.74024 
L 132.66622 59.26047 
L 136.083636 55.453513 
L 137.792344 54.973602 
L 139.501053 55.029159 
L 141.209761 50.871707 
L 142.918469 45.353827 
L 144.627177 42.813831 
L 146.335885 42.747256 
L 148.044593 43.058892 
L 149.753301 39.641676 
L 151.46201 31.177741 
L 153.170718 24.02179 
L 154.879426 26.618346 
L 156.588134 26.743766 
L 158.296842 26.750565 
L 160.00555 25.529305 
L 161.714258 20.883205 
L 163.422967 21.007254 
L 165.131675 22.499606 
L 166.840383 30.762895 
L 168.549091 33.135567 
L 170.257799 34.557668 
L 171.966507 34.483965 
L 173.675215 37.541367 
L 175.383923 38.100305 
L 177.092632 39.798674 
L 178.80134 39.017623 
L 180.510048 40.187087 
L 182.218756 43.295472 
L 183.927464 43.281656 
L 185.636172 44.033714 
L 187.34488 45.39322 
L 189.053589 46.897138 
L 190.762297 47.126559 
L 192.471005 45.713857 
L 194.179713 43.807643 
L 195.888421 45.375795 
L 197.597129 45.341672 
L 199.305837 44.981671 
L 201.014545 46.099398 
L 202.723254 46.717894 
L 204.431962 49.92366 
L 207.849378 57.552784 
L 211.266794 61.719658 
L 214.684211 68.843646 
L 216.392919 68.593723 
L 218.101627 67.019178 
L 219.810335 67.475087 
L 221.519043 67.105444 
L 223.227751 64.147225 
L 224.936459 62.001338 
L 226.645167 60.722454 
L 228.353876 59.228096 
L 230.062584 58.098474 
L 231.771292 57.452757 
L 233.48 56.314811 
L 235.188708 54.800703 
L 236.897416 52.539386 
L 238.606124 51.005464 
L 240.314833 49.946344 
L 242.023541 48.037083 
L 243.732249 44.515331 
L 245.440957 44.156628 
L 247.149665 42.350642 
L 248.858373 41.032313 
L 250.567081 38.139082 
L 252.275789 30.287429 
L 253.984498 26.79375 
L 255.693206 29.166009 
L 257.401914 28.12246 
L 259.110622 35.249782 
L 260.81933 43.54874 
L 262.528038 46.745156 
L 264.236746 44.807041 
L 265.945455 43.844736 
L 267.654163 40.374346 
L 269.362871 36.169123 
L 271.071579 31.506581 
L 272.780287 27.962692 
L 274.488995 23.878574 
L 276.197703 26.149944 
L 277.906411 29.602682 
L 279.61512 29.587188 
L 281.323828 29.110722 
L 283.032536 30.351844 
L 284.741244 33.006743 
L 286.449952 33.362134 
L 288.15866 32.527013 
L 289.867368 31.33664 
L 291.576077 30.789784 
L 293.284785 30.952235 
L 294.993493 30.351342 
L 296.702201 29.395516 
L 300.119617 31.523541 
L 301.828325 30.97932 
L 303.537033 27.832029 
L 305.245742 25.34053 
L 306.95445 21.938837 
L 308.663158 21.628602 
L 310.371866 20.879544 
L 312.080574 21.614922 
L 313.789282 22.045808 
L 317.206699 25.28955 
L 318.915407 26.416679 
L 320.624115 24.647176 
L 322.332823 22.703728 
L 324.041531 24.848182 
L 325.750239 33.415081 
L 327.458947 41.073102 
L 329.167656 45.418288 
L 330.876364 49.276817 
L 332.585072 52.296772 
L 334.29378 54.16116 
L 336.002488 57.952608 
L 337.711196 60.531833 
L 339.419904 63.415757 
L 341.128612 65.372564 
L 342.837321 65.897384 
L 344.546029 67.034257 
L 346.254737 67.997949 
L 347.963445 70.880481 
L 349.672153 71.986313 
L 351.380861 71.790303 
L 353.089569 72.551389 
L 354.798278 73.001663 
L 356.506986 72.789036 
L 358.215694 70.381924 
L 359.924402 65.69297 
L 361.63311 61.976632 
L 363.341818 61.299083 
L 365.050526 60.288749 
L 366.759234 59.457007 
L 370.176651 59.79519 
L 371.885359 59.645226 
L 373.594067 60.435084 
L 375.302775 62.547592 
L 377.011483 64.061561 
L 378.720191 64.91852 
L 380.4289 63.913903 
L 382.137608 61.139697 
L 383.846316 60.963562 
L 385.555024 60.967974 
L 387.263732 59.783109 
L 390.681148 57.975652 
L 392.389856 58.050107 
L 394.098565 58.454829 
L 395.807273 58.43793 
L 395.807273 58.43793 
" clip-path="url(#p30510bdb47)" style="fill: none; stroke: #008000; stroke-width: 1.5; stroke-linecap: square"/>
   </g>
   <g id="line2d_4">
    <path d="M 71.152727 47.388288 
L 72.861435 46.62218 
L 74.570144 43.31398 
L 76.278852 38.750834 
L 77.98756 35.348606 
L 79.696268 33.406762 
L 81.404976 34.385077 
L 83.113684 34.032282 
L 84.822392 33.332837 
L 86.5311 32.813685 
L 88.239809 32.796906 
L 89.948517 32.436704 
L 91.657225 34.187319 
L 93.365933 36.530203 
L 95.074641 38.329644 
L 96.783349 39.153762 
L 98.492057 40.560214 
L 100.200766 40.932779 
L 101.909474 40.617156 
L 103.618182 41.11675 
L 105.32689 44.285696 
L 107.035598 48.50996 
L 108.744306 49.842386 
L 110.453014 50.072141 
L 112.161722 49.14155 
L 113.870431 48.850231 
L 115.579139 49.104606 
L 117.287847 52.746629 
L 118.996555 55.430326 
L 120.705263 54.241218 
L 122.413971 51.193766 
L 124.122679 52.022484 
L 125.831388 56.239743 
L 127.540096 59.158717 
L 129.248804 59.130254 
L 130.957512 62.437014 
L 132.66622 60.455431 
L 134.374928 57.145392 
L 136.083636 55.52222 
L 137.792344 53.705282 
L 139.501053 55.563951 
L 141.209761 51.574794 
L 142.918469 46.022822 
L 144.627177 41.789142 
L 146.335885 41.467454 
L 148.044593 42.683581 
L 149.753301 39.600856 
L 151.46201 32.424005 
L 153.170718 22.660277 
L 154.879426 21.824319 
L 156.588134 22.38852 
L 158.296842 23.309555 
L 160.00555 22.964774 
L 161.714258 17.679909 
L 163.422967 16.723374 
L 165.131675 16.137262 
L 166.840383 25.394823 
L 168.549091 31.539522 
L 170.257799 33.263676 
L 171.966507 32.063722 
L 173.675215 35.047577 
L 175.383923 35.995369 
L 177.092632 36.560071 
L 178.80134 35.90974 
L 180.510048 36.629576 
L 182.218756 40.381297 
L 183.927464 40.492866 
L 185.636172 41.647746 
L 187.34488 42.525608 
L 189.053589 45.114835 
L 190.762297 44.988969 
L 192.471005 43.370967 
L 194.179713 41.400623 
L 195.888421 42.628629 
L 197.597129 43.174416 
L 199.305837 42.263951 
L 201.014545 43.370757 
L 202.723254 44.329675 
L 204.431962 47.400059 
L 206.14067 50.716387 
L 207.849378 55.90841 
L 212.975502 64.512527 
L 214.684211 66.210637 
L 216.392919 69.167625 
L 218.101627 60.937475 
L 219.810335 74.710588 
L 221.519043 74.452503 
L 223.227751 73.435773 
L 224.936459 69.042229 
L 226.645167 65.56554 
L 228.353876 62.497772 
L 230.062584 59.980333 
L 231.771292 60.05388 
L 233.48 59.394111 
L 235.188708 57.33023 
L 236.897416 54.092278 
L 238.606124 51.342536 
L 242.023541 46.838402 
L 243.732249 42.407365 
L 245.440957 40.343048 
L 247.149665 37.879811 
L 248.858373 36.015412 
L 250.567081 34.681329 
L 252.275789 25.635384 
L 253.984498 19.512537 
L 255.693206 20.287467 
L 257.401914 18.501465 
L 259.110622 21.041568 
L 260.81933 30.080636 
L 262.528038 34.285543 
L 264.236746 34.423982 
L 265.945455 33.903312 
L 269.362871 25.827802 
L 271.071579 21.09904 
L 272.780287 16.740812 
L 274.488995 11.903036 
L 276.197703 13.256932 
L 277.906411 16.768045 
L 279.61512 17.23206 
L 281.323828 17.896269 
L 283.032536 18.421867 
L 284.741244 21.831965 
L 286.449952 21.365778 
L 288.15866 19.953576 
L 289.867368 19.397464 
L 291.576077 18.509409 
L 293.284785 18.823114 
L 294.993493 17.977693 
L 296.702201 16.610442 
L 298.410909 18.055462 
L 300.119617 19.07032 
L 301.828325 19.132533 
L 303.537033 16.367277 
L 305.245742 13.879177 
L 306.95445 10.197094 
L 308.663158 8.5877 
L 310.371866 7.710186 
L 312.080574 8.131702 
L 313.789282 8.92149 
L 315.49799 9.427838 
L 317.206699 10.878047 
L 318.915407 11.287647 
L 320.624115 10.611787 
L 322.332823 8.72014 
L 324.041531 10.050751 
L 327.458947 25.360538 
L 329.167656 31.528186 
L 330.876364 34.699878 
L 332.585072 37.55915 
L 334.29378 39.402258 
L 336.002488 43.622544 
L 337.711196 46.63861 
L 339.419904 50.680857 
L 341.128612 54.344585 
L 342.837321 8.924699 
L 344.546029 16.860393 
L 346.254737 18.118553 
L 347.963445 21.23051 
L 349.672153 21.503965 
L 351.380861 20.499571 
L 353.089569 21.707599 
L 354.798278 19.39029 
L 356.506986 16.606829 
L 359.924402 9.619301 
L 361.63311 5.492682 
L 363.341818 3.562551 
L 365.050526 3.557647 
L 366.759234 4.426931 
L 368.467943 4.827992 
L 370.176651 5.571037 
L 371.885359 6.100198 
L 373.594067 8.077253 
L 377.011483 15.498882 
L 378.720191 18.837695 
L 380.4289 19.549637 
L 382.137608 17.719555 
L 383.846316 17.313002 
L 385.555024 17.478351 
L 387.263732 15.525902 
L 388.97244 14.737713 
L 390.681148 13.822038 
L 392.389856 13.493142 
L 395.807273 13.744645 
L 395.807273 13.744645 
" clip-path="url(#p30510bdb47)" style="fill: none; stroke: #ff0000; stroke-width: 1.5; stroke-linecap: square"/>
   </g>
   <g id="patch_3">
    <path d="M 54.92 78.268235 
L 54.92 0 
" style="fill: none; stroke: #000000; stroke-width: 0.8; stroke-linejoin: miter; stroke-linecap: square"/>
   </g>
   <g id="patch_4">
    <path d="M 412.04 78.268235 
L 412.04 0 
" style="fill: none; stroke: #000000; stroke-width: 0.8; stroke-linejoin: miter; stroke-linecap: square"/>
   </g>
   <g id="patch_5">
    <path d="M 54.92 78.268235 
L 412.04 78.268235 
" style="fill: none; stroke: #000000; stroke-width: 0.8; stroke-linejoin: miter; stroke-linecap: square"/>
   </g>
   <g id="patch_6">
    <path d="M 54.92 0 
L 412.04 0 
" style="fill: none; stroke: #000000; stroke-width: 0.8; stroke-linejoin: miter; stroke-linecap: square"/>
   </g>
   <g id="legend_1">
    <g id="patch_7">
     <path d="M 235.234688 69.768235 
L 400.14 69.768235 
Q 403.54 69.768235 403.54 66.368235 
L 403.54 17.689798 
Q 403.54 14.289798 400.14 14.289798 
L 235.234688 14.289798 
Q 231.834688 14.289798 231.834688 17.689798 
L 231.834688 66.368235 
Q 231.834688 69.768235 235.234688 69.768235 
z
" style="fill: #ffffff; opacity: 0.8; stroke: #cccccc; stroke-linejoin: miter"/>
    </g>
    <g id="line2d_5">
     <path d="M 238.634688 28.057142 
L 255.634688 28.057142 
L 272.634688 28.057142 
" style="fill: none; stroke: #008000; stroke-width: 1.5; stroke-linecap: square"/>
    </g>
    <g id="text_4">
     <!-- ground_truth -->
     <g transform="translate(286.234688 34.007142)scale(0.17 -0.17)">
      <defs>
       <path id="DejaVuSans-67" d="M 2906 1791 
Q 2906 2416 2648 2759 
Q 2391 3103 1925 3103 
Q 1463 3103 1205 2759 
Q 947 2416 947 1791 
Q 947 1169 1205 825 
Q 1463 481 1925 481 
Q 2391 481 2648 825 
Q 2906 1169 2906 1791 
z
M 3481 434 
Q 3481 -459 3084 -895 
Q 2688 -1331 1869 -1331 
Q 1566 -1331 1297 -1286 
Q 1028 -1241 775 -1147 
L 775 -588 
Q 1028 -725 1275 -790 
Q 1522 -856 1778 -856 
Q 2344 -856 2625 -561 
Q 2906 -266 2906 331 
L 2906 616 
Q 2728 306 2450 153 
Q 2172 0 1784 0 
Q 1141 0 747 490 
Q 353 981 353 1791 
Q 353 2603 747 3093 
Q 1141 3584 1784 3584 
Q 2172 3584 2450 3431 
Q 2728 3278 2906 2969 
L 2906 3500 
L 3481 3500 
L 3481 434 
z
" transform="scale(0.015625)"/>
       <path id="DejaVuSans-72" d="M 2631 2963 
Q 2534 3019 2420 3045 
Q 2306 3072 2169 3072 
Q 1681 3072 1420 2755 
Q 1159 2438 1159 1844 
L 1159 0 
L 581 0 
L 581 3500 
L 1159 3500 
L 1159 2956 
Q 1341 3275 1631 3429 
Q 1922 3584 2338 3584 
Q 2397 3584 2469 3576 
Q 2541 3569 2628 3553 
L 2631 2963 
z
" transform="scale(0.015625)"/>
       <path id="DejaVuSans-6f" d="M 1959 3097 
Q 1497 3097 1228 2736 
Q 959 2375 959 1747 
Q 959 1119 1226 758 
Q 1494 397 1959 397 
Q 2419 397 2687 759 
Q 2956 1122 2956 1747 
Q 2956 2369 2687 2733 
Q 2419 3097 1959 3097 
z
M 1959 3584 
Q 2709 3584 3137 3096 
Q 3566 2609 3566 1747 
Q 3566 888 3137 398 
Q 2709 -91 1959 -91 
Q 1206 -91 779 398 
Q 353 888 353 1747 
Q 353 2609 779 3096 
Q 1206 3584 1959 3584 
z
" transform="scale(0.015625)"/>
       <path id="DejaVuSans-75" d="M 544 1381 
L 544 3500 
L 1119 3500 
L 1119 1403 
Q 1119 906 1312 657 
Q 1506 409 1894 409 
Q 2359 409 2629 706 
Q 2900 1003 2900 1516 
L 2900 3500 
L 3475 3500 
L 3475 0 
L 2900 0 
L 2900 538 
Q 2691 219 2414 64 
Q 2138 -91 1772 -91 
Q 1169 -91 856 284 
Q 544 659 544 1381 
z
M 1991 3584 
L 1991 3584 
z
" transform="scale(0.015625)"/>
       <path id="DejaVuSans-6e" d="M 3513 2113 
L 3513 0 
L 2938 0 
L 2938 2094 
Q 2938 2591 2744 2837 
Q 2550 3084 2163 3084 
Q 1697 3084 1428 2787 
Q 1159 2491 1159 1978 
L 1159 0 
L 581 0 
L 581 3500 
L 1159 3500 
L 1159 2956 
Q 1366 3272 1645 3428 
Q 1925 3584 2291 3584 
Q 2894 3584 3203 3211 
Q 3513 2838 3513 2113 
z
" transform="scale(0.015625)"/>
       <path id="DejaVuSans-64" d="M 2906 2969 
L 2906 4863 
L 3481 4863 
L 3481 0 
L 2906 0 
L 2906 525 
Q 2725 213 2448 61 
Q 2172 -91 1784 -91 
Q 1150 -91 751 415 
Q 353 922 353 1747 
Q 353 2572 751 3078 
Q 1150 3584 1784 3584 
Q 2172 3584 2448 3432 
Q 2725 3281 2906 2969 
z
M 947 1747 
Q 947 1113 1208 752 
Q 1469 391 1925 391 
Q 2381 391 2643 752 
Q 2906 1113 2906 1747 
Q 2906 2381 2643 2742 
Q 2381 3103 1925 3103 
Q 1469 3103 1208 2742 
Q 947 2381 947 1747 
z
" transform="scale(0.015625)"/>
       <path id="DejaVuSans-5f" d="M 3263 -1063 
L 3263 -1509 
L -63 -1509 
L -63 -1063 
L 3263 -1063 
z
" transform="scale(0.015625)"/>
       <path id="DejaVuSans-74" d="M 1172 4494 
L 1172 3500 
L 2356 3500 
L 2356 3053 
L 1172 3053 
L 1172 1153 
Q 1172 725 1289 603 
Q 1406 481 1766 481 
L 2356 481 
L 2356 0 
L 1766 0 
Q 1100 0 847 248 
Q 594 497 594 1153 
L 594 3053 
L 172 3053 
L 172 3500 
L 594 3500 
L 594 4494 
L 1172 4494 
z
" transform="scale(0.015625)"/>
       <path id="DejaVuSans-68" d="M 3513 2113 
L 3513 0 
L 2938 0 
L 2938 2094 
Q 2938 2591 2744 2837 
Q 2550 3084 2163 3084 
Q 1697 3084 1428 2787 
Q 1159 2491 1159 1978 
L 1159 0 
L 581 0 
L 581 4863 
L 1159 4863 
L 1159 2956 
Q 1366 3272 1645 3428 
Q 1925 3584 2291 3584 
Q 2894 3584 3203 3211 
Q 3513 2838 3513 2113 
z
" transform="scale(0.015625)"/>
      </defs>
      <use xlink:href="#DejaVuSans-67"/>
      <use xlink:href="#DejaVuSans-72" x="63.476562"/>
      <use xlink:href="#DejaVuSans-6f" x="102.339844"/>
      <use xlink:href="#DejaVuSans-75" x="163.521484"/>
      <use xlink:href="#DejaVuSans-6e" x="226.900391"/>
      <use xlink:href="#DejaVuSans-64" x="290.279297"/>
      <use xlink:href="#DejaVuSans-5f" x="353.755859"/>
      <use xlink:href="#DejaVuSans-74" x="403.755859"/>
      <use xlink:href="#DejaVuSans-72" x="442.964844"/>
      <use xlink:href="#DejaVuSans-75" x="484.078125"/>
      <use xlink:href="#DejaVuSans-74" x="547.457031"/>
      <use xlink:href="#DejaVuSans-68" x="586.666016"/>
     </g>
    </g>
    <g id="line2d_6">
     <path d="M 238.634688 53.482767 
L 255.634688 53.482767 
L 272.634688 53.482767 
" style="fill: none; stroke: #ff0000; stroke-width: 1.5; stroke-linecap: square"/>
    </g>
    <g id="text_5">
     <!-- estimated -->
     <g transform="translate(286.234688 59.432767)scale(0.17 -0.17)">
      <defs>
       <path id="DejaVuSans-65" d="M 3597 1894 
L 3597 1613 
L 953 1613 
Q 991 1019 1311 708 
Q 1631 397 2203 397 
Q 2534 397 2845 478 
Q 3156 559 3463 722 
L 3463 178 
Q 3153 47 2828 -22 
Q 2503 -91 2169 -91 
Q 1331 -91 842 396 
Q 353 884 353 1716 
Q 353 2575 817 3079 
Q 1281 3584 2069 3584 
Q 2775 3584 3186 3129 
Q 3597 2675 3597 1894 
z
M 3022 2063 
Q 3016 2534 2758 2815 
Q 2500 3097 2075 3097 
Q 1594 3097 1305 2825 
Q 1016 2553 972 2059 
L 3022 2063 
z
" transform="scale(0.015625)"/>
       <path id="DejaVuSans-73" d="M 2834 3397 
L 2834 2853 
Q 2591 2978 2328 3040 
Q 2066 3103 1784 3103 
Q 1356 3103 1142 2972 
Q 928 2841 928 2578 
Q 928 2378 1081 2264 
Q 1234 2150 1697 2047 
L 1894 2003 
Q 2506 1872 2764 1633 
Q 3022 1394 3022 966 
Q 3022 478 2636 193 
Q 2250 -91 1575 -91 
Q 1294 -91 989 -36 
Q 684 19 347 128 
L 347 722 
Q 666 556 975 473 
Q 1284 391 1588 391 
Q 1994 391 2212 530 
Q 2431 669 2431 922 
Q 2431 1156 2273 1281 
Q 2116 1406 1581 1522 
L 1381 1569 
Q 847 1681 609 1914 
Q 372 2147 372 2553 
Q 372 3047 722 3315 
Q 1072 3584 1716 3584 
Q 2034 3584 2315 3537 
Q 2597 3491 2834 3397 
z
" transform="scale(0.015625)"/>
       <path id="DejaVuSans-69" d="M 603 3500 
L 1178 3500 
L 1178 0 
L 603 0 
L 603 3500 
z
M 603 4863 
L 1178 4863 
L 1178 4134 
L 603 4134 
L 603 4863 
z
" transform="scale(0.015625)"/>
       <path id="DejaVuSans-6d" d="M 3328 2828 
Q 3544 3216 3844 3400 
Q 4144 3584 4550 3584 
Q 5097 3584 5394 3201 
Q 5691 2819 5691 2113 
L 5691 0 
L 5113 0 
L 5113 2094 
Q 5113 2597 4934 2840 
Q 4756 3084 4391 3084 
Q 3944 3084 3684 2787 
Q 3425 2491 3425 1978 
L 3425 0 
L 2847 0 
L 2847 2094 
Q 2847 2600 2669 2842 
Q 2491 3084 2119 3084 
Q 1678 3084 1418 2786 
Q 1159 2488 1159 1978 
L 1159 0 
L 581 0 
L 581 3500 
L 1159 3500 
L 1159 2956 
Q 1356 3278 1631 3431 
Q 1906 3584 2284 3584 
Q 2666 3584 2933 3390 
Q 3200 3197 3328 2828 
z
" transform="scale(0.015625)"/>
      </defs>
      <use xlink:href="#DejaVuSans-65"/>
      <use xlink:href="#DejaVuSans-73" x="61.523438"/>
      <use xlink:href="#DejaVuSans-74" x="113.623047"/>
      <use xlink:href="#DejaVuSans-69" x="152.832031"/>
      <use xlink:href="#DejaVuSans-6d" x="180.615234"/>
      <use xlink:href="#DejaVuSans-61" x="278.027344"/>
      <use xlink:href="#DejaVuSans-74" x="339.306641"/>
      <use xlink:href="#DejaVuSans-65" x="378.515625"/>
      <use xlink:href="#DejaVuSans-64" x="440.039062"/>
     </g>
    </g>
   </g>
  </g>
  <g id="axes_2">
   <g id="patch_8">
    <path d="M 54.92 172.190118 
L 412.04 172.190118 
L 412.04 93.921882 
L 54.92 93.921882 
z
" style="fill: #ffffff"/>
   </g>
   <g id="matplotlib.axis_3"/>
   <g id="matplotlib.axis_4">
    <g id="ytick_3">
     <g id="line2d_7">
      <g>
       <use xlink:href="#m39153dc779" x="54.92" y="165.096585" style="stroke: #000000; stroke-width: 0.8"/>
      </g>
     </g>
     <g id="text_6">
      <!-- −20 -->
      <g transform="translate(26.815313 168.895803)scale(0.1 -0.1)">
       <use xlink:href="#DejaVuSans-2212"/>
       <use xlink:href="#DejaVuSans-32" x="83.789062"/>
       <use xlink:href="#DejaVuSans-30" x="147.412109"/>
      </g>
     </g>
    </g>
    <g id="ytick_4">
     <g id="line2d_8">
      <g>
       <use xlink:href="#m39153dc779" x="54.92" y="136.88829" style="stroke: #000000; stroke-width: 0.8"/>
      </g>
     </g>
     <g id="text_7">
      <!-- 0 -->
      <g transform="translate(41.5575 140.687509)scale(0.1 -0.1)">
       <use xlink:href="#DejaVuSans-30"/>
      </g>
     </g>
    </g>
    <g id="ytick_5">
     <g id="line2d_9">
      <g>
       <use xlink:href="#m39153dc779" x="54.92" y="108.679996" style="stroke: #000000; stroke-width: 0.8"/>
      </g>
     </g>
     <g id="text_8">
      <!-- 20 -->
      <g transform="translate(35.195 112.479215)scale(0.1 -0.1)">
       <use xlink:href="#DejaVuSans-32"/>
       <use xlink:href="#DejaVuSans-30" x="63.623047"/>
      </g>
     </g>
    </g>
    <g id="text_9">
     <!-- pitch [°] -->
     <g transform="translate(19.279844 167.790453)rotate(-90)scale(0.17 -0.17)">
      <defs>
       <path id="DejaVuSans-70" d="M 1159 525 
L 1159 -1331 
L 581 -1331 
L 581 3500 
L 1159 3500 
L 1159 2969 
Q 1341 3281 1617 3432 
Q 1894 3584 2278 3584 
Q 2916 3584 3314 3078 
Q 3713 2572 3713 1747 
Q 3713 922 3314 415 
Q 2916 -91 2278 -91 
Q 1894 -91 1617 61 
Q 1341 213 1159 525 
z
M 3116 1747 
Q 3116 2381 2855 2742 
Q 2594 3103 2138 3103 
Q 1681 3103 1420 2742 
Q 1159 2381 1159 1747 
Q 1159 1113 1420 752 
Q 1681 391 2138 391 
Q 2594 391 2855 752 
Q 3116 1113 3116 1747 
z
" transform="scale(0.015625)"/>
       <path id="DejaVuSans-63" d="M 3122 3366 
L 3122 2828 
Q 2878 2963 2633 3030 
Q 2388 3097 2138 3097 
Q 1578 3097 1268 2742 
Q 959 2388 959 1747 
Q 959 1106 1268 751 
Q 1578 397 2138 397 
Q 2388 397 2633 464 
Q 2878 531 3122 666 
L 3122 134 
Q 2881 22 2623 -34 
Q 2366 -91 2075 -91 
Q 1284 -91 818 406 
Q 353 903 353 1747 
Q 353 2603 823 3093 
Q 1294 3584 2113 3584 
Q 2378 3584 2631 3529 
Q 2884 3475 3122 3366 
z
" transform="scale(0.015625)"/>
      </defs>
      <use xlink:href="#DejaVuSans-70"/>
      <use xlink:href="#DejaVuSans-69" x="63.476562"/>
      <use xlink:href="#DejaVuSans-74" x="91.259766"/>
      <use xlink:href="#DejaVuSans-63" x="130.46875"/>
      <use xlink:href="#DejaVuSans-68" x="185.449219"/>
      <use xlink:href="#DejaVuSans-20" x="248.828125"/>
      <use xlink:href="#DejaVuSans-5b" x="280.615234"/>
      <use xlink:href="#DejaVuSans-b0" x="319.628906"/>
      <use xlink:href="#DejaVuSans-5d" x="369.628906"/>
     </g>
    </g>
   </g>
   <g id="line2d_10">
    <path d="M 71.152727 138.965007 
L 74.570144 135.688868 
L 76.278852 134.822609 
L 77.98756 134.892974 
L 79.696268 134.620447 
L 81.404976 132.108683 
L 83.113684 132.824615 
L 84.822392 134.092586 
L 86.5311 135.812122 
L 89.948517 141.291703 
L 91.657225 145.188468 
L 93.365933 145.401843 
L 96.783349 138.481037 
L 98.492057 137.270737 
L 100.200766 136.849184 
L 101.909474 137.668001 
L 103.618182 136.818655 
L 105.32689 133.771111 
L 107.035598 131.899444 
L 108.744306 128.028264 
L 110.453014 125.713844 
L 112.161722 128.699072 
L 113.870431 130.334548 
L 115.579139 132.286544 
L 117.287847 135.80046 
L 118.996555 138.241403 
L 120.705263 141.919053 
L 122.413971 145.20331 
L 125.831388 141.416137 
L 127.540096 137.261004 
L 129.248804 137.986722 
L 130.957512 139.226158 
L 132.66622 140.640493 
L 134.374928 142.821778 
L 136.083636 142.987972 
L 137.792344 142.775299 
L 139.501053 143.708699 
L 141.209761 145.990194 
L 142.918469 145.786422 
L 144.627177 146.513869 
L 146.335885 146.795441 
L 148.044593 146.494603 
L 149.753301 144.249696 
L 151.46201 143.193443 
L 153.170718 145.556476 
L 154.879426 145.32035 
L 156.588134 144.802022 
L 158.296842 144.977337 
L 160.00555 143.974056 
L 161.714258 133.971373 
L 163.422967 127.675193 
L 165.131675 124.763651 
L 166.840383 117.866688 
L 168.549091 115.299358 
L 170.257799 118.199231 
L 171.966507 120.237721 
L 173.675215 119.066575 
L 175.383923 117.520768 
L 177.092632 112.089274 
L 178.80134 113.937666 
L 183.927464 122.714679 
L 185.636172 125.124008 
L 187.34488 128.290224 
L 189.053589 130.863297 
L 190.762297 131.272473 
L 192.471005 132.083631 
L 194.179713 133.784271 
L 195.888421 135.645057 
L 197.597129 135.848573 
L 199.305837 138.405721 
L 201.014545 137.841805 
L 202.723254 137.675214 
L 204.431962 135.729325 
L 206.14067 135.741077 
L 207.849378 131.841103 
L 209.558086 132.603534 
L 211.266794 134.993753 
L 212.975502 137.035709 
L 214.684211 137.529031 
L 216.392919 139.066259 
L 218.101627 139.975444 
L 219.810335 139.723123 
L 221.519043 139.685838 
L 223.227751 138.439331 
L 224.936459 138.710853 
L 226.645167 139.294158 
L 228.353876 138.940794 
L 230.062584 137.64355 
L 231.771292 138.400705 
L 233.48 137.521824 
L 235.188708 137.641236 
L 236.897416 140.261607 
L 238.606124 142.064163 
L 240.314833 142.916362 
L 242.023541 144.685997 
L 243.732249 141.748334 
L 245.440957 138.030737 
L 247.149665 138.847465 
L 248.858373 140.625278 
L 250.567081 145.590553 
L 252.275789 152.726596 
L 253.984498 156.177013 
L 255.693206 159.110523 
L 257.401914 165.451949 
L 259.110622 168.632471 
L 260.81933 166.934918 
L 262.528038 159.164361 
L 264.236746 149.302462 
L 265.945455 142.330879 
L 269.362871 131.623226 
L 271.071579 127.665874 
L 272.780287 127.126601 
L 274.488995 128.688701 
L 276.197703 127.531405 
L 277.906411 125.350586 
L 279.61512 130.452274 
L 281.323828 132.641046 
L 283.032536 132.427412 
L 284.741244 133.646657 
L 286.449952 136.253009 
L 288.15866 137.565443 
L 289.867368 134.621046 
L 291.576077 133.963965 
L 293.284785 135.934754 
L 296.702201 137.463996 
L 298.410909 136.63883 
L 300.119617 136.369359 
L 301.828325 135.52924 
L 303.537033 135.200507 
L 305.245742 135.526734 
L 306.95445 134.269691 
L 308.663158 134.644813 
L 310.371866 134.637402 
L 312.080574 134.934081 
L 313.789282 134.66709 
L 315.49799 133.927625 
L 317.206699 134.704605 
L 318.915407 136.306379 
L 320.624115 136.115131 
L 322.332823 137.660128 
L 324.041531 138.689866 
L 325.750239 138.907043 
L 329.167656 144.413283 
L 330.876364 145.837427 
L 332.585072 150.876118 
L 334.29378 152.88168 
L 336.002488 151.675384 
L 337.711196 152.11151 
L 339.419904 150.788147 
L 341.128612 148.894345 
L 342.837321 147.560798 
L 344.546029 146.952629 
L 346.254737 145.521799 
L 347.963445 144.323045 
L 349.672153 142.971927 
L 351.380861 142.535272 
L 353.089569 141.789085 
L 354.798278 140.765175 
L 356.506986 140.752448 
L 358.215694 139.3579 
L 359.924402 139.508774 
L 361.63311 138.735063 
L 363.341818 138.24208 
L 366.759234 138.904645 
L 368.467943 137.800584 
L 370.176651 138.813945 
L 371.885359 138.958446 
L 373.594067 138.625819 
L 375.302775 138.566852 
L 377.011483 140.286978 
L 378.720191 140.621341 
L 380.4289 140.195676 
L 382.137608 140.33546 
L 383.846316 139.414465 
L 385.555024 139.795851 
L 387.263732 138.680296 
L 388.97244 138.051449 
L 390.681148 138.56094 
L 392.389856 137.630771 
L 394.098565 137.207391 
L 395.807273 137.956856 
L 395.807273 137.956856 
" clip-path="url(#p792d952e85)" style="fill: none; stroke: #008000; stroke-width: 1.5; stroke-linecap: square"/>
   </g>
   <g id="line2d_11">
    <path d="M 71.152727 138.964994 
L 74.570144 135.787472 
L 76.278852 135.464245 
L 77.98756 136.33195 
L 79.696268 136.401805 
L 81.404976 133.879039 
L 83.113684 134.780231 
L 84.822392 135.552571 
L 86.5311 137.218783 
L 89.948517 142.389417 
L 91.657225 146.565002 
L 93.365933 147.264365 
L 96.783349 139.737128 
L 98.492057 138.786645 
L 100.200766 138.217767 
L 101.909474 139.359979 
L 103.618182 138.340933 
L 105.32689 135.461183 
L 107.035598 133.604179 
L 108.744306 129.951947 
L 110.453014 126.609582 
L 112.161722 129.433548 
L 115.579139 132.816206 
L 117.287847 136.224195 
L 118.996555 138.252439 
L 122.413971 145.146103 
L 124.122679 143.862491 
L 125.831388 143.072186 
L 127.540096 137.617297 
L 129.248804 138.68843 
L 130.957512 139.51942 
L 132.66622 140.932913 
L 134.374928 143.553102 
L 136.083636 143.273772 
L 137.792344 143.191395 
L 139.501053 143.644452 
L 141.209761 145.52058 
L 146.335885 147.080246 
L 148.044593 147.053383 
L 149.753301 144.755414 
L 151.46201 143.284921 
L 153.170718 146.443327 
L 154.879426 147.606765 
L 156.588134 147.115106 
L 158.296842 147.208162 
L 160.00555 146.691449 
L 161.714258 136.691164 
L 163.422967 129.568768 
L 165.131675 125.184393 
L 166.840383 116.775253 
L 168.549091 114.431612 
L 170.257799 116.97843 
L 171.966507 119.975001 
L 173.675215 118.36628 
L 175.383923 116.960464 
L 177.092632 111.036326 
L 178.80134 112.303846 
L 180.510048 114.717477 
L 182.218756 117.644462 
L 183.927464 120.857156 
L 185.636172 123.264517 
L 187.34488 126.227756 
L 189.053589 129.448073 
L 190.762297 129.757021 
L 192.471005 130.797647 
L 194.179713 132.216295 
L 195.888421 134.515645 
L 197.597129 134.862499 
L 199.305837 137.135385 
L 201.014545 136.942255 
L 202.723254 136.528203 
L 204.431962 134.503448 
L 206.14067 134.283738 
L 207.849378 129.337828 
L 209.558086 130.07047 
L 211.266794 132.767257 
L 212.975502 134.623177 
L 214.684211 135.546983 
L 216.392919 137.190165 
L 218.101627 139.643459 
L 219.810335 129.284346 
L 221.519043 129.027174 
L 223.227751 127.760196 
L 224.936459 127.594232 
L 226.645167 128.351622 
L 228.353876 128.372931 
L 230.062584 126.620473 
L 231.771292 126.721233 
L 233.48 126.279466 
L 235.188708 126.164325 
L 238.606124 131.651539 
L 240.314833 132.326482 
L 242.023541 134.914367 
L 243.732249 132.868071 
L 245.440957 128.445087 
L 247.149665 128.382172 
L 248.858373 130.487733 
L 250.567081 134.218313 
L 252.275789 142.819096 
L 253.984498 147.123705 
L 255.693206 150.494442 
L 257.401914 157.494109 
L 259.110622 160.716094 
L 260.81933 160.134168 
L 262.528038 153.67891 
L 264.236746 144.034498 
L 265.945455 136.624461 
L 267.654163 131.231103 
L 269.362871 125.41287 
L 271.071579 121.146833 
L 272.780287 119.535057 
L 274.488995 121.618413 
L 276.197703 121.113589 
L 277.906411 119.140968 
L 279.61512 123.233591 
L 281.323828 126.496354 
L 283.032536 125.954628 
L 284.741244 127.417694 
L 286.449952 130.459134 
L 288.15866 132.565384 
L 289.867368 130.567431 
L 291.576077 129.889201 
L 293.284785 131.850355 
L 294.993493 133.388257 
L 296.702201 134.597019 
L 298.410909 134.38763 
L 300.119617 134.6527 
L 301.828325 134.156936 
L 303.537033 134.04874 
L 305.245742 134.857723 
L 306.95445 134.06432 
L 308.663158 134.695637 
L 310.371866 135.151973 
L 312.080574 135.825971 
L 313.789282 135.129422 
L 315.49799 134.293432 
L 317.206699 134.599758 
L 318.915407 136.903551 
L 320.624115 136.708077 
L 322.332823 138.329281 
L 324.041531 139.397716 
L 325.750239 139.950896 
L 327.458947 142.1863 
L 329.167656 145.480676 
L 330.876364 146.760101 
L 332.585072 151.047814 
L 334.29378 154.032442 
L 336.002488 152.747316 
L 337.711196 153.117966 
L 339.419904 152.565165 
L 341.128612 150.725071 
L 342.837321 135.849886 
L 344.546029 137.417438 
L 346.254737 135.453347 
L 347.963445 132.752557 
L 349.672153 130.378486 
L 351.380861 129.026678 
L 353.089569 127.15228 
L 356.506986 122.842506 
L 358.215694 120.354489 
L 359.924402 119.473631 
L 363.341818 115.056144 
L 366.759234 112.11315 
L 368.467943 109.783702 
L 370.176651 109.188316 
L 371.885359 107.756927 
L 373.594067 105.142946 
L 375.302775 102.845248 
L 377.011483 102.760089 
L 378.720191 101.899047 
L 380.4289 100.685333 
L 382.137608 100.329933 
L 383.846316 99.493083 
L 385.555024 99.785343 
L 387.263732 98.71641 
L 388.97244 98.208155 
L 390.681148 98.807674 
L 392.389856 97.893998 
L 394.098565 97.479529 
L 395.807273 98.271187 
L 395.807273 98.271187 
" clip-path="url(#p792d952e85)" style="fill: none; stroke: #ff0000; stroke-width: 1.5; stroke-linecap: square"/>
   </g>
   <g id="patch_9">
    <path d="M 54.92 172.190118 
L 54.92 93.921882 
" style="fill: none; stroke: #000000; stroke-width: 0.8; stroke-linejoin: miter; stroke-linecap: square"/>
   </g>
   <g id="patch_10">
    <path d="M 412.04 172.190118 
L 412.04 93.921882 
" style="fill: none; stroke: #000000; stroke-width: 0.8; stroke-linejoin: miter; stroke-linecap: square"/>
   </g>
   <g id="patch_11">
    <path d="M 54.92 172.190118 
L 412.04 172.190118 
" style="fill: none; stroke: #000000; stroke-width: 0.8; stroke-linejoin: miter; stroke-linecap: square"/>
   </g>
   <g id="patch_12">
    <path d="M 54.92 93.921882 
L 412.04 93.921882 
" style="fill: none; stroke: #000000; stroke-width: 0.8; stroke-linejoin: miter; stroke-linecap: square"/>
   </g>
  </g>
  <g id="axes_3">
   <g id="patch_13">
    <path d="M 54.92 266.112 
L 412.04 266.112 
L 412.04 187.843765 
L 54.92 187.843765 
z
" style="fill: #ffffff"/>
   </g>
   <g id="matplotlib.axis_5"/>
   <g id="matplotlib.axis_6">
    <g id="ytick_6">
     <g id="line2d_12">
      <g>
       <use xlink:href="#m39153dc779" x="54.92" y="253.557443" style="stroke: #000000; stroke-width: 0.8"/>
      </g>
     </g>
     <g id="text_10">
      <!-- −50 -->
      <g transform="translate(26.815313 257.356662)scale(0.1 -0.1)">
       <defs>
        <path id="DejaVuSans-35" d="M 691 4666 
L 3169 4666 
L 3169 4134 
L 1269 4134 
L 1269 2991 
Q 1406 3038 1543 3061 
Q 1681 3084 1819 3084 
Q 2600 3084 3056 2656 
Q 3513 2228 3513 1497 
Q 3513 744 3044 326 
Q 2575 -91 1722 -91 
Q 1428 -91 1123 -41 
Q 819 9 494 109 
L 494 744 
Q 775 591 1075 516 
Q 1375 441 1709 441 
Q 2250 441 2565 725 
Q 2881 1009 2881 1497 
Q 2881 1984 2565 2268 
Q 2250 2553 1709 2553 
Q 1456 2553 1204 2497 
Q 953 2441 691 2322 
L 691 4666 
z
" transform="scale(0.015625)"/>
       </defs>
       <use xlink:href="#DejaVuSans-2212"/>
       <use xlink:href="#DejaVuSans-35" x="83.789062"/>
       <use xlink:href="#DejaVuSans-30" x="147.412109"/>
      </g>
     </g>
    </g>
    <g id="ytick_7">
     <g id="line2d_13">
      <g>
       <use xlink:href="#m39153dc779" x="54.92" y="229.928257" style="stroke: #000000; stroke-width: 0.8"/>
      </g>
     </g>
     <g id="text_11">
      <!-- 0 -->
      <g transform="translate(41.5575 233.727476)scale(0.1 -0.1)">
       <use xlink:href="#DejaVuSans-30"/>
      </g>
     </g>
    </g>
    <g id="ytick_8">
     <g id="line2d_14">
      <g>
       <use xlink:href="#m39153dc779" x="54.92" y="206.299071" style="stroke: #000000; stroke-width: 0.8"/>
      </g>
     </g>
     <g id="text_12">
      <!-- 50 -->
      <g transform="translate(35.195 210.09829)scale(0.1 -0.1)">
       <use xlink:href="#DejaVuSans-35"/>
       <use xlink:href="#DejaVuSans-30" x="63.623047"/>
      </g>
     </g>
    </g>
    <g id="text_13">
     <!-- roll [°] -->
     <g transform="translate(19.279844 253.788742)rotate(-90)scale(0.17 -0.17)">
      <defs>
       <path id="DejaVuSans-6c" d="M 603 4863 
L 1178 4863 
L 1178 0 
L 603 0 
L 603 4863 
z
" transform="scale(0.015625)"/>
      </defs>
      <use xlink:href="#DejaVuSans-72"/>
      <use xlink:href="#DejaVuSans-6f" x="38.863281"/>
      <use xlink:href="#DejaVuSans-6c" x="100.044922"/>
      <use xlink:href="#DejaVuSans-6c" x="127.828125"/>
      <use xlink:href="#DejaVuSans-20" x="155.611328"/>
      <use xlink:href="#DejaVuSans-5b" x="187.398438"/>
      <use xlink:href="#DejaVuSans-b0" x="226.412109"/>
      <use xlink:href="#DejaVuSans-5d" x="276.412109"/>
     </g>
    </g>
   </g>
   <g id="line2d_15">
    <path d="M 71.152727 216.110212 
L 72.861435 217.800764 
L 74.570144 219.10699 
L 76.278852 219.096147 
L 77.98756 217.589099 
L 79.696268 215.610364 
L 81.404976 212.833399 
L 83.113684 210.308315 
L 84.822392 207.26143 
L 86.5311 203.860452 
L 91.657225 196.088118 
L 93.365933 193.012584 
L 95.074641 191.401412 
L 96.783349 192.298009 
L 98.492057 193.837364 
L 101.909474 195.506768 
L 103.618182 196.797291 
L 105.32689 198.338555 
L 108.744306 202.088703 
L 110.453014 203.60668 
L 112.161722 203.918838 
L 115.579139 204.800927 
L 117.287847 204.986659 
L 118.996555 205.545322 
L 120.705263 207.701615 
L 122.413971 210.521898 
L 124.122679 212.030299 
L 125.831388 213.962807 
L 129.248804 216.32576 
L 130.957512 218.180309 
L 134.374928 223.484074 
L 136.083636 224.716627 
L 137.792344 225.478261 
L 139.501053 225.732415 
L 141.209761 226.780014 
L 144.627177 228.601469 
L 146.335885 229.168162 
L 148.044593 228.88839 
L 149.753301 228.898893 
L 151.46201 230.326517 
L 153.170718 231.117379 
L 154.879426 229.724114 
L 156.588134 226.727063 
L 158.296842 226.755066 
L 160.00555 227.45963 
L 161.714258 225.115821 
L 163.422967 225.096277 
L 165.131675 231.54659 
L 166.840383 242.062851 
L 168.549091 244.692307 
L 170.257799 246.458833 
L 171.966507 246.585484 
L 175.383923 247.340851 
L 177.092632 247.469076 
L 178.80134 249.109476 
L 180.510048 251.894309 
L 182.218756 254.421087 
L 183.927464 255.735374 
L 185.636172 256.381943 
L 187.34488 256.71938 
L 189.053589 257.288997 
L 190.762297 257.3237 
L 192.471005 257.095323 
L 194.179713 256.744663 
L 197.597129 256.838255 
L 199.305837 257.251991 
L 201.014545 257.936122 
L 202.723254 258.852794 
L 206.14067 261.484978 
L 207.849378 262.421007 
L 209.558086 262.554353 
L 211.266794 261.598459 
L 212.975502 260.105975 
L 216.392919 256.367409 
L 218.101627 254.158619 
L 219.810335 252.329418 
L 221.519043 251.517527 
L 223.227751 250.126147 
L 224.936459 248.370894 
L 226.645167 247.201316 
L 230.062584 245.268234 
L 231.771292 245.192378 
L 233.48 244.814863 
L 235.188708 244.268129 
L 238.606124 242.074757 
L 240.314833 240.780705 
L 242.023541 239.812243 
L 243.732249 238.286345 
L 245.440957 235.908476 
L 247.149665 234.422236 
L 248.858373 233.254782 
L 250.567081 232.852786 
L 252.275789 232.199601 
L 253.984498 229.420227 
L 255.693206 225.425281 
L 257.401914 223.152505 
L 259.110622 219.357937 
L 260.81933 216.807666 
L 264.236746 215.45634 
L 265.945455 215.041165 
L 267.654163 215.05937 
L 271.071579 214.890091 
L 272.780287 215.52907 
L 274.488995 215.732367 
L 276.197703 215.399347 
L 277.906411 214.178511 
L 279.61512 214.017929 
L 283.032536 213.208315 
L 284.741244 213.001053 
L 288.15866 211.053276 
L 289.867368 209.365653 
L 293.284785 207.304043 
L 300.119617 202.059908 
L 301.828325 201.746761 
L 303.537033 201.027835 
L 305.245742 200.43182 
L 306.95445 199.411554 
L 310.371866 198.087948 
L 312.080574 197.710467 
L 313.789282 197.96295 
L 315.49799 198.074826 
L 317.206699 197.969595 
L 318.915407 197.361431 
L 320.624115 196.468538 
L 322.332823 195.779808 
L 324.041531 196.391142 
L 325.750239 196.433448 
L 327.458947 195.790586 
L 329.167656 196.045287 
L 330.876364 196.080942 
L 332.585072 196.584946 
L 336.002488 196.550327 
L 337.711196 197.129801 
L 339.419904 197.477384 
L 341.128612 197.680375 
L 342.837321 197.748083 
L 344.546029 198.037701 
L 347.963445 198.900791 
L 349.672153 199.07493 
L 351.380861 199.115787 
L 354.798278 200.109625 
L 356.506986 201.009009 
L 359.924402 201.986308 
L 363.341818 203.874844 
L 365.050526 204.804498 
L 366.759234 205.942228 
L 368.467943 206.577849 
L 370.176651 207.390676 
L 371.885359 208.418881 
L 373.594067 209.833542 
L 377.011483 212.118509 
L 378.720191 212.989108 
L 380.4289 213.572314 
L 382.137608 213.949074 
L 383.846316 213.904522 
L 387.263732 214.114861 
L 395.807273 214.035234 
L 395.807273 214.035234 
" clip-path="url(#p2cba260dbb)" style="fill: none; stroke: #008000; stroke-width: 1.5; stroke-linecap: square"/>
   </g>
   <g id="line2d_16">
    <path d="M 71.152727 216.110213 
L 72.861435 217.877011 
L 74.570144 219.375162 
L 76.278852 219.821441 
L 77.98756 218.634009 
L 79.696268 216.90868 
L 83.113684 211.607846 
L 84.822392 208.468652 
L 86.5311 204.798155 
L 91.657225 196.864105 
L 93.365933 193.76536 
L 95.074641 191.686918 
L 96.783349 192.372343 
L 98.492057 193.946727 
L 101.909474 195.686872 
L 103.618182 196.923779 
L 105.32689 198.476691 
L 108.744306 202.251707 
L 110.453014 203.697589 
L 112.161722 203.860493 
L 113.870431 204.38233 
L 117.287847 204.975422 
L 118.996555 205.244996 
L 120.705263 207.35379 
L 122.413971 210.254669 
L 124.122679 211.988046 
L 125.831388 214.159099 
L 127.540096 215.038494 
L 129.248804 216.365935 
L 130.957512 217.92983 
L 134.374928 223.395057 
L 136.083636 224.551598 
L 137.792344 225.409482 
L 139.501053 225.487199 
L 141.209761 226.340111 
L 142.918469 227.468141 
L 146.335885 229.055045 
L 149.753301 228.693397 
L 151.46201 229.86279 
L 153.170718 230.766579 
L 154.879426 229.66893 
L 156.588134 226.398844 
L 158.296842 225.904018 
L 160.00555 227.145611 
L 161.714258 225.0345 
L 163.422967 223.984504 
L 165.131675 230.311673 
L 166.840383 239.999931 
L 168.549091 243.832952 
L 170.257799 245.70065 
L 173.675215 246.200269 
L 175.383923 246.638442 
L 177.092632 246.531046 
L 178.80134 247.751064 
L 180.510048 250.197495 
L 182.218756 253.068564 
L 183.927464 254.561577 
L 185.636172 255.288031 
L 187.34488 255.608323 
L 189.053589 256.345737 
L 190.762297 256.405136 
L 192.471005 256.2183 
L 194.179713 255.710182 
L 197.597129 255.902639 
L 199.305837 256.179745 
L 202.723254 257.719445 
L 206.14067 260.414873 
L 207.849378 261.102271 
L 209.558086 261.396391 
L 211.266794 260.732315 
L 212.975502 259.450258 
L 214.684211 257.439498 
L 216.392919 255.938284 
L 218.101627 253.07965 
L 219.810335 251.199393 
L 221.519043 250.020346 
L 223.227751 249.070906 
L 224.936459 247.070502 
L 226.645167 245.517519 
L 228.353876 244.545201 
L 230.062584 243.409377 
L 233.48 243.018649 
L 235.188708 242.552801 
L 238.606124 240.636383 
L 240.314833 239.270994 
L 242.023541 238.389451 
L 243.732249 237.141355 
L 245.440957 234.481841 
L 247.149665 232.682529 
L 248.858373 231.572383 
L 250.567081 230.812459 
L 252.275789 230.830534 
L 253.984498 228.72132 
L 255.693206 224.545454 
L 257.401914 222.424324 
L 259.110622 219.360227 
L 260.81933 216.730965 
L 262.528038 215.808074 
L 264.236746 214.545104 
L 265.945455 213.79623 
L 267.654163 213.521994 
L 269.362871 213.00505 
L 271.071579 212.773375 
L 272.780287 212.937454 
L 274.488995 213.459026 
L 276.197703 213.317523 
L 277.906411 212.110794 
L 279.61512 211.653597 
L 281.323828 211.980338 
L 283.032536 211.151876 
L 284.741244 211.131102 
L 286.449952 210.521811 
L 288.15866 209.747396 
L 289.867368 208.158673 
L 291.576077 206.749616 
L 293.284785 205.859354 
L 296.702201 203.422303 
L 300.119617 200.78428 
L 301.828325 200.452547 
L 303.537033 199.682627 
L 305.245742 199.083784 
L 306.95445 198.065588 
L 310.371866 196.743007 
L 312.080574 196.346971 
L 317.206699 196.898393 
L 318.915407 196.498751 
L 320.624115 195.576013 
L 322.332823 194.884034 
L 324.041531 195.39189 
L 325.750239 195.635394 
L 327.458947 194.945628 
L 329.167656 195.663563 
L 330.876364 195.809885 
L 332.585072 196.398057 
L 334.29378 196.846522 
L 336.002488 196.676215 
L 339.419904 197.781238 
L 341.128612 198.171937 
L 342.837321 198.775056 
L 344.546029 200.086751 
L 347.963445 200.528513 
L 349.672153 200.65127 
L 351.380861 200.218161 
L 353.089569 200.25975 
L 354.798278 201.183308 
L 356.506986 202.368492 
L 359.924402 203.052794 
L 365.050526 205.076426 
L 366.759234 206.5645 
L 368.467943 206.771308 
L 370.176651 207.428605 
L 371.885359 208.491795 
L 373.594067 209.841499 
L 375.302775 210.746924 
L 377.011483 212.298322 
L 378.720191 213.408932 
L 382.137608 214.211978 
L 383.846316 213.974577 
L 387.263732 214.035978 
L 388.97244 213.903534 
L 390.681148 213.99583 
L 395.807273 213.898137 
L 395.807273 213.898137 
" clip-path="url(#p2cba260dbb)" style="fill: none; stroke: #ff0000; stroke-width: 1.5; stroke-linecap: square"/>
   </g>
   <g id="patch_14">
    <path d="M 54.92 266.112 
L 54.92 187.843765 
" style="fill: none; stroke: #000000; stroke-width: 0.8; stroke-linejoin: miter; stroke-linecap: square"/>
   </g>
   <g id="patch_15">
    <path d="M 412.04 266.112 
L 412.04 187.843765 
" style="fill: none; stroke: #000000; stroke-width: 0.8; stroke-linejoin: miter; stroke-linecap: square"/>
   </g>
   <g id="patch_16">
    <path d="M 54.92 266.112 
L 412.04 266.112 
" style="fill: none; stroke: #000000; stroke-width: 0.8; stroke-linejoin: miter; stroke-linecap: square"/>
   </g>
   <g id="patch_17">
    <path d="M 54.92 187.843765 
L 412.04 187.843765 
" style="fill: none; stroke: #000000; stroke-width: 0.8; stroke-linejoin: miter; stroke-linecap: square"/>
   </g>
  </g>
 </g>
 <defs>
  <clipPath id="p30510bdb47">
   <rect x="54.92" y="0" width="357.12" height="78.268235"/>
  </clipPath>
  <clipPath id="p792d952e85">
   <rect x="54.92" y="93.921882" width="357.12" height="78.268235"/>
  </clipPath>
  <clipPath id="p2cba260dbb">
   <rect x="54.92" y="187.843765" width="357.12" height="78.268235"/>
  </clipPath>
 </defs>
</svg>
