<?xml version="1.0" encoding="utf-8" standalone="no"?>
<!DOCTYPE svg PUBLIC "-//W3C//DTD SVG 1.1//EN"
  "http://www.w3.org/Graphics/SVG/1.1/DTD/svg11.dtd">
<svg xmlns:xlink="http://www.w3.org/1999/xlink" width="412.04pt" height="269.612pt" viewBox="0 0 412.04 269.612" xmlns="http://www.w3.org/2000/svg" version="1.1">
 <metadata>
  <rdf:RDF xmlns:dc="http://purl.org/dc/elements/1.1/" xmlns:cc="http://creativecommons.org/ns#" xmlns:rdf="http://www.w3.org/1999/02/22-rdf-syntax-ns#">
   <cc:Work>
    <dc:type rdf:resource="http://purl.org/dc/dcmitype/StillImage"/>
    <dc:date>2022-02-10T00:11:27.907340</dc:date>
    <dc:format>image/svg+xml</dc:format>
    <dc:creator>
     <cc:Agent>
      <dc:title>Matplotlib v3.5.1, https://matplotlib.org/</dc:title>
     </cc:Agent>
    </dc:creator>
   </cc:Work>
  </rdf:RDF>
 </metadata>
 <defs>
  <style type="text/css">*{stroke-linejoin: round; stroke-linecap: butt}</style>
 </defs>
 <g id="figure_1">
  <g id="patch_1">
   <path d="M 0 269.612 
L 412.04 269.612 
L 412.04 0 
L 0 0 
z
" style="fill: #ffffff"/>
  </g>
  <g id="axes_1">
   <g id="patch_2">
    <path d="M 54.92 78.268235 
L 412.04 78.268235 
L 412.04 0 
L 54.92 0 
z
" style="fill: #ffffff"/>
   </g>
   <g id="matplotlib.axis_1"/>
   <g id="matplotlib.axis_2">
    <g id="ytick_1">
     <g id="line2d_1">
      <defs>
       <path id="me515212c41" d="M 0 0 
L -3.5 0 
" style="stroke: #000000; stroke-width: 0.8"/>
      </defs>
      <g>
       <use xlink:href="#me515212c41" x="54.92" y="59.141761" style="stroke: #000000; stroke-width: 0.8"/>
      </g>
     </g>
     <g id="text_1">
      <!-- −100 -->
      <g transform="translate(20.452813 62.940979)scale(0.1 -0.1)">
       <defs>
        <path id="DejaVuSans-2212" d="M 678 2272 
L 4684 2272 
L 4684 1741 
L 678 1741 
L 678 2272 
z
" transform="scale(0.015625)"/>
        <path id="DejaVuSans-31" d="M 794 531 
L 1825 531 
L 1825 4091 
L 703 3866 
L 703 4441 
L 1819 4666 
L 2450 4666 
L 2450 531 
L 3481 531 
L 3481 0 
L 794 0 
L 794 531 
z
" transform="scale(0.015625)"/>
        <path id="DejaVuSans-30" d="M 2034 4250 
Q 1547 4250 1301 3770 
Q 1056 3291 1056 2328 
Q 1056 1369 1301 889 
Q 1547 409 2034 409 
Q 2525 409 2770 889 
Q 3016 1369 3016 2328 
Q 3016 3291 2770 3770 
Q 2525 4250 2034 4250 
z
M 2034 4750 
Q 2819 4750 3233 4129 
Q 3647 3509 3647 2328 
Q 3647 1150 3233 529 
Q 2819 -91 2034 -91 
Q 1250 -91 836 529 
Q 422 1150 422 2328 
Q 422 3509 836 4129 
Q 1250 4750 2034 4750 
z
" transform="scale(0.015625)"/>
       </defs>
       <use xlink:href="#DejaVuSans-2212"/>
       <use xlink:href="#DejaVuSans-31" x="83.789062"/>
       <use xlink:href="#DejaVuSans-30" x="147.412109"/>
       <use xlink:href="#DejaVuSans-30" x="211.035156"/>
      </g>
     </g>
    </g>
    <g id="ytick_2">
     <g id="line2d_2">
      <g>
       <use xlink:href="#me515212c41" x="54.92" y="39.270984" style="stroke: #000000; stroke-width: 0.8"/>
      </g>
     </g>
     <g id="text_2">
      <!-- 0 -->
      <g transform="translate(41.5575 43.070203)scale(0.1 -0.1)">
       <use xlink:href="#DejaVuSans-30"/>
      </g>
     </g>
    </g>
    <g id="ytick_3">
     <g id="line2d_3">
      <g>
       <use xlink:href="#me515212c41" x="54.92" y="19.400208" style="stroke: #000000; stroke-width: 0.8"/>
      </g>
     </g>
     <g id="text_3">
      <!-- 100 -->
      <g transform="translate(28.8325 23.199427)scale(0.1 -0.1)">
       <use xlink:href="#DejaVuSans-31"/>
       <use xlink:href="#DejaVuSans-30" x="63.623047"/>
       <use xlink:href="#DejaVuSans-30" x="127.246094"/>
      </g>
     </g>
    </g>
    <g id="text_4">
     <!-- yaw [°] -->
     <g transform="translate(12.917344 69.90943)rotate(-90)scale(0.17 -0.17)">
      <defs>
       <path id="DejaVuSans-79" d="M 2059 -325 
Q 1816 -950 1584 -1140 
Q 1353 -1331 966 -1331 
L 506 -1331 
L 506 -850 
L 844 -850 
Q 1081 -850 1212 -737 
Q 1344 -625 1503 -206 
L 1606 56 
L 191 3500 
L 800 3500 
L 1894 763 
L 2988 3500 
L 3597 3500 
L 2059 -325 
z
" transform="scale(0.015625)"/>
       <path id="DejaVuSans-61" d="M 2194 1759 
Q 1497 1759 1228 1600 
Q 959 1441 959 1056 
Q 959 750 1161 570 
Q 1363 391 1709 391 
Q 2188 391 2477 730 
Q 2766 1069 2766 1631 
L 2766 1759 
L 2194 1759 
z
M 3341 1997 
L 3341 0 
L 2766 0 
L 2766 531 
Q 2569 213 2275 61 
Q 1981 -91 1556 -91 
Q 1019 -91 701 211 
Q 384 513 384 1019 
Q 384 1609 779 1909 
Q 1175 2209 1959 2209 
L 2766 2209 
L 2766 2266 
Q 2766 2663 2505 2880 
Q 2244 3097 1772 3097 
Q 1472 3097 1187 3025 
Q 903 2953 641 2809 
L 641 3341 
Q 956 3463 1253 3523 
Q 1550 3584 1831 3584 
Q 2591 3584 2966 3190 
Q 3341 2797 3341 1997 
z
" transform="scale(0.015625)"/>
       <path id="DejaVuSans-77" d="M 269 3500 
L 844 3500 
L 1563 769 
L 2278 3500 
L 2956 3500 
L 3675 769 
L 4391 3500 
L 4966 3500 
L 4050 0 
L 3372 0 
L 2619 2869 
L 1863 0 
L 1184 0 
L 269 3500 
z
" transform="scale(0.015625)"/>
       <path id="DejaVuSans-20" transform="scale(0.015625)"/>
       <path id="DejaVuSans-5b" d="M 550 4863 
L 1875 4863 
L 1875 4416 
L 1125 4416 
L 1125 -397 
L 1875 -397 
L 1875 -844 
L 550 -844 
L 550 4863 
z
" transform="scale(0.015625)"/>
       <path id="DejaVuSans-b0" d="M 1600 4347 
Q 1350 4347 1178 4173 
Q 1006 4000 1006 3750 
Q 1006 3503 1178 3333 
Q 1350 3163 1600 3163 
Q 1850 3163 2022 3333 
Q 2194 3503 2194 3750 
Q 2194 3997 2020 4172 
Q 1847 4347 1600 4347 
z
M 1600 4750 
Q 1800 4750 1984 4673 
Q 2169 4597 2303 4453 
Q 2447 4313 2519 4134 
Q 2591 3956 2591 3750 
Q 2591 3338 2302 3052 
Q 2013 2766 1594 2766 
Q 1172 2766 890 3047 
Q 609 3328 609 3750 
Q 609 4169 896 4459 
Q 1184 4750 1600 4750 
z
" transform="scale(0.015625)"/>
       <path id="DejaVuSans-5d" d="M 1947 4863 
L 1947 -844 
L 622 -844 
L 622 -397 
L 1369 -397 
L 1369 4416 
L 622 4416 
L 622 4863 
L 1947 4863 
z
" transform="scale(0.015625)"/>
      </defs>
      <use xlink:href="#DejaVuSans-79"/>
      <use xlink:href="#DejaVuSans-61" x="59.179688"/>
      <use xlink:href="#DejaVuSans-77" x="120.458984"/>
      <use xlink:href="#DejaVuSans-20" x="202.246094"/>
      <use xlink:href="#DejaVuSans-5b" x="234.033203"/>
      <use xlink:href="#DejaVuSans-b0" x="273.046875"/>
      <use xlink:href="#DejaVuSans-5d" x="323.046875"/>
     </g>
    </g>
   </g>
   <g id="line2d_4">
    <path d="M 71.152727 64.877158 
L 73.034783 65.680271 
L 73.97581 65.89005 
L 79.621976 66.29535 
L 83.386087 66.178308 
L 85.268142 65.887477 
L 87.150198 65.373318 
L 88.091225 65.125099 
L 89.032253 64.619309 
L 90.914308 63.364937 
L 91.855336 63.006903 
L 92.796364 62.97035 
L 93.737391 63.051237 
L 94.678419 63.334006 
L 97.501502 65.384323 
L 98.44253 65.901998 
L 101.265613 66.54309 
L 104.088696 66.974253 
L 105.970751 66.916142 
L 108.793834 66.484228 
L 110.675889 66.197733 
L 114.44 65.507876 
L 116.322055 64.98794 
L 118.204111 64.171112 
L 119.145138 63.94723 
L 120.086166 63.885534 
L 123.850277 65.570466 
L 124.791304 66.284644 
L 125.732332 66.766522 
L 127.614387 66.962118 
L 130.43747 66.974368 
L 131.378498 67.07672 
L 132.319526 67.059546 
L 133.260553 66.929049 
L 135.142609 66.235112 
L 136.083636 65.706082 
L 137.965692 64.816246 
L 139.847747 63.957982 
L 146.434941 59.053388 
L 147.375968 59.013319 
L 148.316996 59.324607 
L 152.081107 61.731028 
L 153.022134 62.528036 
L 153.963162 63.146876 
L 155.845217 65.004241 
L 156.786245 65.799467 
L 159.609328 68.5255 
L 161.491383 70.075297 
L 163.373439 71.201675 
L 165.255494 71.737394 
L 166.196522 71.668987 
L 168.078577 70.780276 
L 171.842688 68.124176 
L 176.547826 64.531979 
L 178.429881 62.817437 
L 180.311937 61.588193 
L 183.13502 59.822875 
L 185.017075 59.063924 
L 187.840158 58.773834 
L 188.781186 58.940022 
L 189.722213 58.917436 
L 190.663241 59.235483 
L 191.604269 60.034957 
L 196.309407 65.166299 
L 197.250435 66.065425 
L 202.896601 69.333645 
L 205.719684 70.102254 
L 206.660711 70.099524 
L 208.542767 69.600657 
L 210.424822 68.76012 
L 212.306877 67.605034 
L 213.247905 67.105875 
L 215.12996 65.768394 
L 217.953043 63.391891 
L 218.894071 62.822607 
L 219.835099 62.053481 
L 220.776126 61.1108 
L 221.717154 60.453954 
L 223.599209 58.704257 
L 225.481265 57.703017 
L 226.422292 57.443234 
L 227.36332 57.577988 
L 230.186403 58.788617 
L 232.068458 60.886536 
L 233.009486 61.977951 
L 233.950514 62.763411 
L 234.891542 64.294243 
L 235.832569 65.106114 
L 237.714625 67.285571 
L 238.655652 67.523625 
L 239.59668 67.32781 
L 240.537708 66.979553 
L 242.419763 66.714349 
L 244.301818 66.634692 
L 250.889012 68.555733 
L 252.771067 70.03295 
L 255.59415 73.993258 
L 256.535178 3.557647 
L 257.476206 4.052345 
L 258.417233 3.710437 
L 259.358261 73.52864 
L 261.240316 71.234299 
L 263.122372 69.57979 
L 265.004427 67.552475 
L 266.886482 65.173341 
L 267.82751 64.407258 
L 269.709565 63.400783 
L 270.650593 63.244961 
L 273.473676 63.357431 
L 275.355731 63.8249 
L 276.296759 64.097572 
L 277.237787 65.001877 
L 279.119842 65.784697 
L 281.001897 65.174047 
L 281.942925 64.783326 
L 282.883953 63.912086 
L 284.766008 62.978728 
L 285.707036 62.792432 
L 287.589091 63.009581 
L 288.530119 63.335314 
L 293.235257 66.163668 
L 294.176285 66.966399 
L 296.05834 69.135863 
L 296.999368 70.918006 
L 298.881423 73.164976 
L 299.822451 74.501809 
L 300.763478 3.894888 
L 301.704506 5.013896 
L 302.645534 5.868446 
L 303.586561 7.041211 
L 305.468617 7.768595 
L 306.409644 7.738921 
L 307.350672 7.375213 
L 309.232727 4.885654 
L 310.173755 3.659453 
L 311.114783 73.661732 
L 312.996838 70.965978 
L 314.878893 68.011432 
L 315.819921 66.842625 
L 317.701976 64.856755 
L 318.643004 63.834744 
L 320.525059 62.523955 
L 324.28917 61.61046 
L 325.230198 61.540937 
L 326.171225 61.244199 
L 328.994308 60.850512 
L 329.935336 60.803102 
L 332.758419 61.161645 
L 333.699447 61.508103 
L 334.640474 61.645757 
L 335.581502 61.612017 
L 336.52253 61.752713 
L 337.463557 61.364463 
L 339.345613 60.917948 
L 340.28664 61.03985 
L 341.227668 61.470205 
L 342.168696 62.030424 
L 344.050751 62.747849 
L 344.991779 62.885982 
L 346.873834 63.52413 
L 350.637945 67.606013 
L 351.578972 68.797379 
L 352.52 70.279266 
L 356.284111 74.597122 
L 357.225138 74.710588 
L 358.166166 74.561026 
L 359.107194 74.27505 
L 360.048221 73.489487 
L 360.989249 72.28865 
L 363.812332 67.034578 
L 364.75336 65.722697 
L 365.694387 64.680796 
L 367.576443 63.481108 
L 368.51747 63.074347 
L 371.340553 62.34956 
L 372.281581 61.894681 
L 374.163636 61.644041 
L 375.104664 61.868161 
L 376.045692 61.939173 
L 376.986719 62.827558 
L 377.927747 63.215282 
L 379.809802 64.532704 
L 380.75083 64.834258 
L 381.691858 65.007254 
L 382.632885 64.775917 
L 383.573913 63.797802 
L 384.514941 63.072939 
L 385.455968 62.835882 
L 387.338024 62.593959 
L 388.279051 62.715488 
L 389.220079 62.685572 
L 390.161107 62.531733 
L 392.043162 62.923312 
L 394.866245 62.381992 
L 395.807273 62.271139 
L 395.807273 62.271139 
" clip-path="url(#pa1c0bae17e)" style="fill: none; stroke: #008000; stroke-width: 1.5; stroke-linecap: square"/>
   </g>
   <g id="line2d_5">
    <path d="M 71.152727 64.877153 
L 72.093755 65.530886 
L 73.034783 65.901382 
L 78.680949 66.513463 
L 84.327115 66.31563 
L 85.268142 66.142244 
L 88.091225 65.069171 
L 89.032253 64.589104 
L 89.973281 63.894245 
L 90.914308 63.018968 
L 91.855336 62.4203 
L 92.796364 62.21791 
L 94.678419 62.4197 
L 95.619447 63.024981 
L 97.501502 64.697903 
L 98.44253 65.314458 
L 100.324585 66.044182 
L 103.147668 66.613974 
L 105.970751 66.687918 
L 109.734862 66.062329 
L 116.322055 64.533586 
L 119.145138 63.141337 
L 120.086166 63.015366 
L 121.027194 63.209856 
L 121.968221 63.959682 
L 122.909249 64.426932 
L 123.850277 64.710356 
L 124.791304 65.180298 
L 125.732332 66.080651 
L 126.67336 66.634783 
L 129.496443 66.705266 
L 130.43747 66.493298 
L 132.319526 66.656446 
L 133.260553 66.618087 
L 134.201581 66.395623 
L 137.024664 65.092187 
L 137.965692 64.509834 
L 139.847747 63.60759 
L 141.729802 62.343447 
L 145.493913 59.053295 
L 146.434941 58.527726 
L 147.375968 58.262153 
L 148.316996 58.578417 
L 149.258024 59.056465 
L 153.022134 61.638624 
L 153.963162 62.387624 
L 155.845217 64.167732 
L 157.727273 65.958101 
L 159.609328 67.835439 
L 161.491383 69.272175 
L 163.373439 70.409324 
L 165.255494 70.947315 
L 166.196522 70.868955 
L 167.137549 70.490709 
L 168.078577 69.971391 
L 171.842688 67.131832 
L 180.311937 60.04552 
L 182.193992 58.775241 
L 185.017075 57.445344 
L 186.89913 57.140847 
L 187.840158 57.119736 
L 188.781186 57.293572 
L 189.722213 57.064167 
L 190.663241 57.456074 
L 191.604269 58.105964 
L 197.250435 64.194291 
L 198.191462 64.916725 
L 200.073518 66.089729 
L 201.014545 66.767913 
L 202.896601 67.690988 
L 204.778656 68.253373 
L 205.719684 68.401503 
L 206.660711 68.339595 
L 208.542767 67.802255 
L 210.424822 66.876946 
L 215.12996 63.818004 
L 217.012016 62.079584 
L 218.894071 60.573977 
L 220.776126 59.025817 
L 221.717154 58.222069 
L 222.658182 57.187597 
L 223.599209 56.373084 
L 224.540237 55.722764 
L 226.422292 54.961031 
L 227.36332 55.026518 
L 229.245375 55.79006 
L 230.186403 56.225852 
L 233.950514 60.066361 
L 234.891542 61.539497 
L 236.773597 63.370362 
L 237.714625 64.708021 
L 238.655652 65.242773 
L 239.59668 65.216898 
L 240.537708 64.80037 
L 243.360791 64.320273 
L 244.301818 64.346559 
L 245.242846 64.501676 
L 250.889012 66.299706 
L 252.771067 67.581622 
L 254.653123 70.387417 
L 255.59415 72.276404 
L 256.535178 73.722706 
L 257.476206 74.630814 
L 258.417233 74.264528 
L 259.358261 72.167333 
L 262.181344 68.294822 
L 264.063399 66.51075 
L 265.004427 65.096953 
L 266.886482 63.032107 
L 267.82751 62.191567 
L 268.768538 61.559024 
L 269.709565 61.186248 
L 270.650593 60.958713 
L 272.532648 61.090558 
L 273.473676 61.225705 
L 276.296759 62.05174 
L 277.237787 63.099157 
L 278.178814 63.646109 
L 279.119842 63.800998 
L 280.06087 63.647964 
L 281.001897 63.351591 
L 281.942925 62.79526 
L 282.883953 61.569756 
L 284.766008 60.700289 
L 286.648063 60.746898 
L 288.530119 61.235586 
L 294.176285 64.258414 
L 296.05834 65.873031 
L 297.940395 68.881195 
L 298.881423 70.225825 
L 300.763478 73.62846 
L 301.704506 3.85065 
L 302.645534 5.004118 
L 303.586561 6.682287 
L 304.527589 7.979107 
L 306.409644 8.665468 
L 307.350672 7.961383 
L 308.2917 6.793974 
L 309.232727 4.964184 
L 310.173755 74.570618 
L 312.996838 69.102911 
L 313.937866 67.373742 
L 315.819921 64.370121 
L 316.760949 63.525941 
L 317.701976 62.363661 
L 319.584032 60.720331 
L 320.525059 60.152637 
L 321.466087 59.791296 
L 328.053281 58.670475 
L 328.994308 58.572211 
L 329.935336 58.614375 
L 334.640474 59.689172 
L 335.581502 59.587452 
L 336.52253 59.647888 
L 337.463557 59.173826 
L 338.404585 59.070151 
L 339.345613 58.838941 
L 340.28664 58.975886 
L 341.227668 59.355035 
L 342.168696 59.897296 
L 344.050751 60.599193 
L 344.991779 60.644991 
L 345.932806 60.805565 
L 346.873834 60.823271 
L 347.814862 61.245001 
L 349.696917 62.72444 
L 352.52 65.669897 
L 354.402055 67.910979 
L 356.284111 70.526317 
L 357.225138 70.86219 
L 359.107194 70.687658 
L 360.048221 69.901082 
L 360.989249 68.677787 
L 363.812332 63.748818 
L 364.75336 62.729429 
L 365.694387 62.023203 
L 367.576443 61.140807 
L 369.458498 60.707491 
L 371.340553 60.378899 
L 372.281581 59.851785 
L 374.163636 59.406747 
L 376.045692 59.610709 
L 376.986719 60.502153 
L 377.927747 61.216404 
L 379.809802 62.898415 
L 381.691858 63.539807 
L 382.632885 63.150237 
L 383.573913 62.025752 
L 384.514941 61.20613 
L 386.396996 61.127735 
L 387.338024 60.957419 
L 389.220079 60.994996 
L 390.161107 60.668519 
L 392.043162 60.909186 
L 394.866245 60.327458 
L 395.807273 60.178174 
L 395.807273 60.178174 
" clip-path="url(#pa1c0bae17e)" style="fill: none; stroke: #ff0000; stroke-width: 1.5; stroke-linecap: square"/>
   </g>
   <g id="patch_3">
    <path d="M 54.92 78.268235 
L 54.92 -0 
" style="fill: none; stroke: #000000; stroke-width: 0.8; stroke-linejoin: miter; stroke-linecap: square"/>
   </g>
   <g id="patch_4">
    <path d="M 412.04 78.268235 
L 412.04 -0 
" style="fill: none; stroke: #000000; stroke-width: 0.8; stroke-linejoin: miter; stroke-linecap: square"/>
   </g>
   <g id="patch_5">
    <path d="M 54.92 78.268235 
L 412.04 78.268235 
" style="fill: none; stroke: #000000; stroke-width: 0.8; stroke-linejoin: miter; stroke-linecap: square"/>
   </g>
   <g id="patch_6">
    <path d="M 54.92 0 
L 412.04 0 
" style="fill: none; stroke: #000000; stroke-width: 0.8; stroke-linejoin: miter; stroke-linecap: square"/>
   </g>
   <g id="legend_1">
    <g id="patch_7">
     <path d="M 66.82 63.978437 
L 231.725313 63.978437 
Q 235.125313 63.978437 235.125313 60.578437 
L 235.125313 11.9 
Q 235.125313 8.5 231.725313 8.5 
L 66.82 8.5 
Q 63.42 8.5 63.42 11.9 
L 63.42 60.578437 
Q 63.42 63.978437 66.82 63.978437 
z
" style="fill: #ffffff; opacity: 0.8; stroke: #cccccc; stroke-linejoin: miter"/>
    </g>
    <g id="line2d_6">
     <path d="M 70.22 22.267344 
L 87.22 22.267344 
L 104.22 22.267344 
" style="fill: none; stroke: #008000; stroke-width: 1.5; stroke-linecap: square"/>
    </g>
    <g id="text_5">
     <!-- ground_truth -->
     <g transform="translate(117.82 28.217344)scale(0.17 -0.17)">
      <defs>
       <path id="DejaVuSans-67" d="M 2906 1791 
Q 2906 2416 2648 2759 
Q 2391 3103 1925 3103 
Q 1463 3103 1205 2759 
Q 947 2416 947 1791 
Q 947 1169 1205 825 
Q 1463 481 1925 481 
Q 2391 481 2648 825 
Q 2906 1169 2906 1791 
z
M 3481 434 
Q 3481 -459 3084 -895 
Q 2688 -1331 1869 -1331 
Q 1566 -1331 1297 -1286 
Q 1028 -1241 775 -1147 
L 775 -588 
Q 1028 -725 1275 -790 
Q 1522 -856 1778 -856 
Q 2344 -856 2625 -561 
Q 2906 -266 2906 331 
L 2906 616 
Q 2728 306 2450 153 
Q 2172 0 1784 0 
Q 1141 0 747 490 
Q 353 981 353 1791 
Q 353 2603 747 3093 
Q 1141 3584 1784 3584 
Q 2172 3584 2450 3431 
Q 2728 3278 2906 2969 
L 2906 3500 
L 3481 3500 
L 3481 434 
z
" transform="scale(0.015625)"/>
       <path id="DejaVuSans-72" d="M 2631 2963 
Q 2534 3019 2420 3045 
Q 2306 3072 2169 3072 
Q 1681 3072 1420 2755 
Q 1159 2438 1159 1844 
L 1159 0 
L 581 0 
L 581 3500 
L 1159 3500 
L 1159 2956 
Q 1341 3275 1631 3429 
Q 1922 3584 2338 3584 
Q 2397 3584 2469 3576 
Q 2541 3569 2628 3553 
L 2631 2963 
z
" transform="scale(0.015625)"/>
       <path id="DejaVuSans-6f" d="M 1959 3097 
Q 1497 3097 1228 2736 
Q 959 2375 959 1747 
Q 959 1119 1226 758 
Q 1494 397 1959 397 
Q 2419 397 2687 759 
Q 2956 1122 2956 1747 
Q 2956 2369 2687 2733 
Q 2419 3097 1959 3097 
z
M 1959 3584 
Q 2709 3584 3137 3096 
Q 3566 2609 3566 1747 
Q 3566 888 3137 398 
Q 2709 -91 1959 -91 
Q 1206 -91 779 398 
Q 353 888 353 1747 
Q 353 2609 779 3096 
Q 1206 3584 1959 3584 
z
" transform="scale(0.015625)"/>
       <path id="DejaVuSans-75" d="M 544 1381 
L 544 3500 
L 1119 3500 
L 1119 1403 
Q 1119 906 1312 657 
Q 1506 409 1894 409 
Q 2359 409 2629 706 
Q 2900 1003 2900 1516 
L 2900 3500 
L 3475 3500 
L 3475 0 
L 2900 0 
L 2900 538 
Q 2691 219 2414 64 
Q 2138 -91 1772 -91 
Q 1169 -91 856 284 
Q 544 659 544 1381 
z
M 1991 3584 
L 1991 3584 
z
" transform="scale(0.015625)"/>
       <path id="DejaVuSans-6e" d="M 3513 2113 
L 3513 0 
L 2938 0 
L 2938 2094 
Q 2938 2591 2744 2837 
Q 2550 3084 2163 3084 
Q 1697 3084 1428 2787 
Q 1159 2491 1159 1978 
L 1159 0 
L 581 0 
L 581 3500 
L 1159 3500 
L 1159 2956 
Q 1366 3272 1645 3428 
Q 1925 3584 2291 3584 
Q 2894 3584 3203 3211 
Q 3513 2838 3513 2113 
z
" transform="scale(0.015625)"/>
       <path id="DejaVuSans-64" d="M 2906 2969 
L 2906 4863 
L 3481 4863 
L 3481 0 
L 2906 0 
L 2906 525 
Q 2725 213 2448 61 
Q 2172 -91 1784 -91 
Q 1150 -91 751 415 
Q 353 922 353 1747 
Q 353 2572 751 3078 
Q 1150 3584 1784 3584 
Q 2172 3584 2448 3432 
Q 2725 3281 2906 2969 
z
M 947 1747 
Q 947 1113 1208 752 
Q 1469 391 1925 391 
Q 2381 391 2643 752 
Q 2906 1113 2906 1747 
Q 2906 2381 2643 2742 
Q 2381 3103 1925 3103 
Q 1469 3103 1208 2742 
Q 947 2381 947 1747 
z
" transform="scale(0.015625)"/>
       <path id="DejaVuSans-5f" d="M 3263 -1063 
L 3263 -1509 
L -63 -1509 
L -63 -1063 
L 3263 -1063 
z
" transform="scale(0.015625)"/>
       <path id="DejaVuSans-74" d="M 1172 4494 
L 1172 3500 
L 2356 3500 
L 2356 3053 
L 1172 3053 
L 1172 1153 
Q 1172 725 1289 603 
Q 1406 481 1766 481 
L 2356 481 
L 2356 0 
L 1766 0 
Q 1100 0 847 248 
Q 594 497 594 1153 
L 594 3053 
L 172 3053 
L 172 3500 
L 594 3500 
L 594 4494 
L 1172 4494 
z
" transform="scale(0.015625)"/>
       <path id="DejaVuSans-68" d="M 3513 2113 
L 3513 0 
L 2938 0 
L 2938 2094 
Q 2938 2591 2744 2837 
Q 2550 3084 2163 3084 
Q 1697 3084 1428 2787 
Q 1159 2491 1159 1978 
L 1159 0 
L 581 0 
L 581 4863 
L 1159 4863 
L 1159 2956 
Q 1366 3272 1645 3428 
Q 1925 3584 2291 3584 
Q 2894 3584 3203 3211 
Q 3513 2838 3513 2113 
z
" transform="scale(0.015625)"/>
      </defs>
      <use xlink:href="#DejaVuSans-67"/>
      <use xlink:href="#DejaVuSans-72" x="63.476562"/>
      <use xlink:href="#DejaVuSans-6f" x="102.339844"/>
      <use xlink:href="#DejaVuSans-75" x="163.521484"/>
      <use xlink:href="#DejaVuSans-6e" x="226.900391"/>
      <use xlink:href="#DejaVuSans-64" x="290.279297"/>
      <use xlink:href="#DejaVuSans-5f" x="353.755859"/>
      <use xlink:href="#DejaVuSans-74" x="403.755859"/>
      <use xlink:href="#DejaVuSans-72" x="442.964844"/>
      <use xlink:href="#DejaVuSans-75" x="484.078125"/>
      <use xlink:href="#DejaVuSans-74" x="547.457031"/>
      <use xlink:href="#DejaVuSans-68" x="586.666016"/>
     </g>
    </g>
    <g id="line2d_7">
     <path d="M 70.22 47.692969 
L 87.22 47.692969 
L 104.22 47.692969 
" style="fill: none; stroke: #ff0000; stroke-width: 1.5; stroke-linecap: square"/>
    </g>
    <g id="text_6">
     <!-- estimated -->
     <g transform="translate(117.82 53.642969)scale(0.17 -0.17)">
      <defs>
       <path id="DejaVuSans-65" d="M 3597 1894 
L 3597 1613 
L 953 1613 
Q 991 1019 1311 708 
Q 1631 397 2203 397 
Q 2534 397 2845 478 
Q 3156 559 3463 722 
L 3463 178 
Q 3153 47 2828 -22 
Q 2503 -91 2169 -91 
Q 1331 -91 842 396 
Q 353 884 353 1716 
Q 353 2575 817 3079 
Q 1281 3584 2069 3584 
Q 2775 3584 3186 3129 
Q 3597 2675 3597 1894 
z
M 3022 2063 
Q 3016 2534 2758 2815 
Q 2500 3097 2075 3097 
Q 1594 3097 1305 2825 
Q 1016 2553 972 2059 
L 3022 2063 
z
" transform="scale(0.015625)"/>
       <path id="DejaVuSans-73" d="M 2834 3397 
L 2834 2853 
Q 2591 2978 2328 3040 
Q 2066 3103 1784 3103 
Q 1356 3103 1142 2972 
Q 928 2841 928 2578 
Q 928 2378 1081 2264 
Q 1234 2150 1697 2047 
L 1894 2003 
Q 2506 1872 2764 1633 
Q 3022 1394 3022 966 
Q 3022 478 2636 193 
Q 2250 -91 1575 -91 
Q 1294 -91 989 -36 
Q 684 19 347 128 
L 347 722 
Q 666 556 975 473 
Q 1284 391 1588 391 
Q 1994 391 2212 530 
Q 2431 669 2431 922 
Q 2431 1156 2273 1281 
Q 2116 1406 1581 1522 
L 1381 1569 
Q 847 1681 609 1914 
Q 372 2147 372 2553 
Q 372 3047 722 3315 
Q 1072 3584 1716 3584 
Q 2034 3584 2315 3537 
Q 2597 3491 2834 3397 
z
" transform="scale(0.015625)"/>
       <path id="DejaVuSans-69" d="M 603 3500 
L 1178 3500 
L 1178 0 
L 603 0 
L 603 3500 
z
M 603 4863 
L 1178 4863 
L 1178 4134 
L 603 4134 
L 603 4863 
z
" transform="scale(0.015625)"/>
       <path id="DejaVuSans-6d" d="M 3328 2828 
Q 3544 3216 3844 3400 
Q 4144 3584 4550 3584 
Q 5097 3584 5394 3201 
Q 5691 2819 5691 2113 
L 5691 0 
L 5113 0 
L 5113 2094 
Q 5113 2597 4934 2840 
Q 4756 3084 4391 3084 
Q 3944 3084 3684 2787 
Q 3425 2491 3425 1978 
L 3425 0 
L 2847 0 
L 2847 2094 
Q 2847 2600 2669 2842 
Q 2491 3084 2119 3084 
Q 1678 3084 1418 2786 
Q 1159 2488 1159 1978 
L 1159 0 
L 581 0 
L 581 3500 
L 1159 3500 
L 1159 2956 
Q 1356 3278 1631 3431 
Q 1906 3584 2284 3584 
Q 2666 3584 2933 3390 
Q 3200 3197 3328 2828 
z
" transform="scale(0.015625)"/>
      </defs>
      <use xlink:href="#DejaVuSans-65"/>
      <use xlink:href="#DejaVuSans-73" x="61.523438"/>
      <use xlink:href="#DejaVuSans-74" x="113.623047"/>
      <use xlink:href="#DejaVuSans-69" x="152.832031"/>
      <use xlink:href="#DejaVuSans-6d" x="180.615234"/>
      <use xlink:href="#DejaVuSans-61" x="278.027344"/>
      <use xlink:href="#DejaVuSans-74" x="339.306641"/>
      <use xlink:href="#DejaVuSans-65" x="378.515625"/>
      <use xlink:href="#DejaVuSans-64" x="440.039062"/>
     </g>
    </g>
   </g>
  </g>
  <g id="axes_2">
   <g id="patch_8">
    <path d="M 54.92 172.190118 
L 412.04 172.190118 
L 412.04 93.921882 
L 54.92 93.921882 
z
" style="fill: #ffffff"/>
   </g>
   <g id="matplotlib.axis_3"/>
   <g id="matplotlib.axis_4">
    <g id="ytick_4">
     <g id="line2d_8">
      <g>
       <use xlink:href="#me515212c41" x="54.92" y="161.298761" style="stroke: #000000; stroke-width: 0.8"/>
      </g>
     </g>
     <g id="text_7">
      <!-- −50 -->
      <g transform="translate(26.815313 165.09798)scale(0.1 -0.1)">
       <defs>
        <path id="DejaVuSans-35" d="M 691 4666 
L 3169 4666 
L 3169 4134 
L 1269 4134 
L 1269 2991 
Q 1406 3038 1543 3061 
Q 1681 3084 1819 3084 
Q 2600 3084 3056 2656 
Q 3513 2228 3513 1497 
Q 3513 744 3044 326 
Q 2575 -91 1722 -91 
Q 1428 -91 1123 -41 
Q 819 9 494 109 
L 494 744 
Q 775 591 1075 516 
Q 1375 441 1709 441 
Q 2250 441 2565 725 
Q 2881 1009 2881 1497 
Q 2881 1984 2565 2268 
Q 2250 2553 1709 2553 
Q 1456 2553 1204 2497 
Q 953 2441 691 2322 
L 691 4666 
z
" transform="scale(0.015625)"/>
       </defs>
       <use xlink:href="#DejaVuSans-2212"/>
       <use xlink:href="#DejaVuSans-35" x="83.789062"/>
       <use xlink:href="#DejaVuSans-30" x="147.412109"/>
      </g>
     </g>
    </g>
    <g id="ytick_5">
     <g id="line2d_9">
      <g>
       <use xlink:href="#me515212c41" x="54.92" y="133.25671" style="stroke: #000000; stroke-width: 0.8"/>
      </g>
     </g>
     <g id="text_8">
      <!-- 0 -->
      <g transform="translate(41.5575 137.055928)scale(0.1 -0.1)">
       <use xlink:href="#DejaVuSans-30"/>
      </g>
     </g>
    </g>
    <g id="ytick_6">
     <g id="line2d_10">
      <g>
       <use xlink:href="#me515212c41" x="54.92" y="105.214658" style="stroke: #000000; stroke-width: 0.8"/>
      </g>
     </g>
     <g id="text_9">
      <!-- 50 -->
      <g transform="translate(35.195 109.013877)scale(0.1 -0.1)">
       <use xlink:href="#DejaVuSans-35"/>
       <use xlink:href="#DejaVuSans-30" x="63.623047"/>
      </g>
     </g>
    </g>
    <g id="text_10">
     <!-- pitch [°] -->
     <g transform="translate(19.279844 167.790453)rotate(-90)scale(0.17 -0.17)">
      <defs>
       <path id="DejaVuSans-70" d="M 1159 525 
L 1159 -1331 
L 581 -1331 
L 581 3500 
L 1159 3500 
L 1159 2969 
Q 1341 3281 1617 3432 
Q 1894 3584 2278 3584 
Q 2916 3584 3314 3078 
Q 3713 2572 3713 1747 
Q 3713 922 3314 415 
Q 2916 -91 2278 -91 
Q 1894 -91 1617 61 
Q 1341 213 1159 525 
z
M 3116 1747 
Q 3116 2381 2855 2742 
Q 2594 3103 2138 3103 
Q 1681 3103 1420 2742 
Q 1159 2381 1159 1747 
Q 1159 1113 1420 752 
Q 1681 391 2138 391 
Q 2594 391 2855 752 
Q 3116 1113 3116 1747 
z
" transform="scale(0.015625)"/>
       <path id="DejaVuSans-63" d="M 3122 3366 
L 3122 2828 
Q 2878 2963 2633 3030 
Q 2388 3097 2138 3097 
Q 1578 3097 1268 2742 
Q 959 2388 959 1747 
Q 959 1106 1268 751 
Q 1578 397 2138 397 
Q 2388 397 2633 464 
Q 2878 531 3122 666 
L 3122 134 
Q 2881 22 2623 -34 
Q 2366 -91 2075 -91 
Q 1284 -91 818 406 
Q 353 903 353 1747 
Q 353 2603 823 3093 
Q 1294 3584 2113 3584 
Q 2378 3584 2631 3529 
Q 2884 3475 3122 3366 
z
" transform="scale(0.015625)"/>
      </defs>
      <use xlink:href="#DejaVuSans-70"/>
      <use xlink:href="#DejaVuSans-69" x="63.476562"/>
      <use xlink:href="#DejaVuSans-74" x="91.259766"/>
      <use xlink:href="#DejaVuSans-63" x="130.46875"/>
      <use xlink:href="#DejaVuSans-68" x="185.449219"/>
      <use xlink:href="#DejaVuSans-20" x="248.828125"/>
      <use xlink:href="#DejaVuSans-5b" x="280.615234"/>
      <use xlink:href="#DejaVuSans-b0" x="319.628906"/>
      <use xlink:href="#DejaVuSans-5d" x="369.628906"/>
     </g>
    </g>
   </g>
   <g id="line2d_11">
    <path d="M 71.152727 150.261554 
L 72.093755 147.692664 
L 74.916838 142.427494 
L 76.798893 137.598923 
L 77.739921 135.259028 
L 79.621976 132.033429 
L 80.563004 130.754583 
L 82.445059 127.738301 
L 83.386087 125.862605 
L 85.268142 120.713946 
L 86.20917 117.446761 
L 87.150198 115.45584 
L 88.091225 113.865226 
L 89.973281 109.920013 
L 90.914308 108.510136 
L 91.855336 107.794887 
L 93.737391 107.895287 
L 94.678419 108.186669 
L 95.619447 109.809871 
L 96.560474 112.137678 
L 97.501502 115.052786 
L 98.44253 117.211857 
L 99.383557 118.806959 
L 102.20664 124.638533 
L 103.147668 127.62657 
L 104.088696 131.127999 
L 105.970751 136.35481 
L 106.911779 138.744024 
L 108.793834 142.481945 
L 109.734862 144.598337 
L 110.675889 146.439969 
L 111.616917 148.028349 
L 113.498972 150.177652 
L 114.44 151.654347 
L 115.381028 153.407855 
L 116.322055 154.858206 
L 117.263083 156.867365 
L 118.204111 158.267335 
L 119.145138 158.392438 
L 120.086166 158.034179 
L 121.027194 155.620715 
L 121.968221 152.703648 
L 122.909249 151.711658 
L 123.850277 149.814122 
L 125.732332 140.696907 
L 126.67336 137.377836 
L 127.614387 136.351898 
L 129.496443 130.945499 
L 130.43747 130.169015 
L 131.378498 131.103664 
L 132.319526 131.282888 
L 133.260553 130.965543 
L 134.201581 131.239784 
L 136.083636 132.333621 
L 138.906719 132.856855 
L 139.847747 132.870537 
L 140.788775 133.127735 
L 142.67083 133.15443 
L 147.375968 134.164292 
L 149.258024 133.669102 
L 151.140079 133.102186 
L 153.963162 133.021081 
L 159.609328 130.757532 
L 163.373439 130.413317 
L 165.255494 130.590557 
L 166.196522 130.923606 
L 167.137549 131.00825 
L 168.078577 130.863285 
L 169.960632 131.11738 
L 170.90166 131.394326 
L 173.724743 131.719226 
L 174.665771 132.094887 
L 175.606798 132.327122 
L 176.547826 132.424612 
L 179.370909 133.190882 
L 180.311937 133.359486 
L 181.252964 133.763013 
L 182.193992 133.925678 
L 185.017075 133.820126 
L 187.840158 133.76167 
L 188.781186 133.478472 
L 189.722213 133.371613 
L 190.663241 133.003695 
L 191.604269 132.832014 
L 192.545296 133.21246 
L 193.486324 133.238037 
L 195.368379 133.000236 
L 198.191462 132.724918 
L 199.13249 132.534834 
L 201.014545 132.398563 
L 202.896601 131.994098 
L 203.837628 131.81218 
L 204.778656 131.985141 
L 206.660711 132.174714 
L 207.601739 132.309733 
L 208.542767 132.118391 
L 210.424822 132.090922 
L 211.36585 131.912606 
L 212.306877 132.018255 
L 214.188933 132.678597 
L 215.12996 132.743094 
L 217.012016 132.201317 
L 217.953043 132.372491 
L 218.894071 132.714771 
L 221.717154 132.689567 
L 223.599209 132.452291 
L 226.422292 132.595105 
L 227.36332 132.471162 
L 229.245375 132.610538 
L 230.186403 132.819285 
L 231.127431 133.286792 
L 232.068458 133.558741 
L 233.009486 133.616576 
L 233.950514 133.233089 
L 234.891542 132.642648 
L 235.832569 132.620091 
L 236.773597 132.320147 
L 237.714625 130.769269 
L 238.655652 130.821191 
L 239.59668 131.505979 
L 242.419763 132.390472 
L 243.360791 132.537598 
L 244.301818 133.383142 
L 245.242846 134.992338 
L 248.065929 140.864942 
L 249.006957 143.435803 
L 249.947984 145.060305 
L 250.889012 147.03328 
L 251.83004 149.773924 
L 252.771067 151.572068 
L 253.712095 153.042289 
L 254.653123 153.144957 
L 255.59415 153.435935 
L 256.535178 152.903406 
L 259.358261 153.414337 
L 260.299289 153.273935 
L 261.240316 152.625022 
L 262.181344 152.439066 
L 263.122372 152.131105 
L 264.063399 151.253189 
L 265.004427 150.151761 
L 265.945455 148.020059 
L 266.886482 144.093875 
L 268.768538 137.623948 
L 269.709565 135.523395 
L 270.650593 131.168111 
L 271.591621 127.46859 
L 272.532648 124.921391 
L 273.473676 122.85138 
L 274.414704 119.869836 
L 276.296759 116.540331 
L 277.237787 114.088803 
L 278.178814 112.198194 
L 279.119842 108.651612 
L 280.06087 108.226672 
L 281.001897 108.465049 
L 281.942925 109.126043 
L 283.82498 113.300236 
L 285.707036 121.963692 
L 286.648063 124.871928 
L 287.589091 127.413565 
L 288.530119 130.76228 
L 289.471146 135.034893 
L 294.176285 151.205559 
L 295.117312 155.454673 
L 296.05834 157.586083 
L 296.999368 160.164853 
L 297.940395 160.627399 
L 298.881423 160.916911 
L 299.822451 160.551583 
L 300.763478 159.816201 
L 301.704506 158.669307 
L 302.645534 157.049501 
L 303.586561 154.103945 
L 304.527589 152.789114 
L 305.468617 151.987878 
L 306.409644 151.859214 
L 307.350672 152.409142 
L 308.2917 153.549288 
L 309.232727 153.809106 
L 310.173755 154.450868 
L 311.114783 154.621519 
L 312.05581 154.620939 
L 312.996838 154.287384 
L 313.937866 152.618112 
L 314.878893 151.558906 
L 315.819921 151.334461 
L 316.760949 150.053277 
L 317.701976 148.389304 
L 320.525059 141.698783 
L 323.348142 134.544 
L 325.230198 131.598665 
L 326.171225 129.757702 
L 327.112253 127.094174 
L 328.053281 125.061437 
L 328.994308 123.367486 
L 330.876364 121.870345 
L 331.817391 120.635069 
L 332.758419 119.704978 
L 333.699447 119.244848 
L 334.640474 118.193438 
L 335.581502 116.975227 
L 336.52253 116.757646 
L 337.463557 118.693586 
L 338.404585 121.499229 
L 342.168696 136.865503 
L 343.109723 141.424877 
L 344.050751 145.186504 
L 346.873834 154.585431 
L 347.814862 156.878922 
L 350.637945 160.785899 
L 351.578972 162.956338 
L 352.52 164.000911 
L 353.461028 164.579026 
L 354.402055 164.900969 
L 355.343083 164.610248 
L 356.284111 164.535647 
L 357.225138 163.950718 
L 358.166166 163.625341 
L 359.107194 163.670437 
L 360.048221 163.076867 
L 360.989249 162.652047 
L 361.930277 161.849439 
L 362.871304 160.090667 
L 363.812332 157.669511 
L 364.75336 154.751578 
L 368.51747 141.221964 
L 369.458498 136.697549 
L 370.399526 132.795003 
L 371.340553 128.129147 
L 372.281581 124.386325 
L 373.222609 121.90492 
L 374.163636 118.904536 
L 375.104664 115.305164 
L 376.986719 110.076655 
L 379.809802 106.420768 
L 380.75083 105.890714 
L 381.691858 105.061637 
L 382.632885 104.746406 
L 383.573913 107.292557 
L 385.455968 116.879721 
L 386.396996 119.373714 
L 389.220079 130.385924 
L 390.161107 132.71411 
L 391.102134 133.103808 
L 392.98419 131.58813 
L 393.925217 131.252908 
L 394.866245 131.540149 
L 395.807273 131.524974 
L 395.807273 131.524974 
" clip-path="url(#p932742d8d0)" style="fill: none; stroke: #008000; stroke-width: 1.5; stroke-linecap: square"/>
   </g>
   <g id="line2d_12">
    <path d="M 71.152727 150.261558 
L 72.093755 147.051936 
L 73.034783 145.313906 
L 73.97581 143.90295 
L 76.798893 137.220185 
L 77.739921 134.588535 
L 79.621976 131.37035 
L 81.504032 128.470479 
L 83.386087 124.942129 
L 84.327115 122.830729 
L 86.20917 117.201119 
L 87.150198 115.054332 
L 89.032253 111.42716 
L 89.973281 109.460666 
L 90.914308 108.076565 
L 91.855336 107.489458 
L 93.737391 107.651525 
L 94.678419 108.085231 
L 95.619447 109.722194 
L 97.501502 114.755874 
L 99.383557 118.431526 
L 101.265613 122.049515 
L 102.20664 124.174895 
L 104.088696 130.16413 
L 105.029723 133.567249 
L 106.911779 138.235912 
L 110.675889 146.082513 
L 111.616917 147.726038 
L 113.498972 149.947931 
L 114.44 151.33014 
L 115.381028 153.117456 
L 116.322055 154.559977 
L 117.263083 156.611944 
L 118.204111 157.7568 
L 119.145138 157.819375 
L 120.086166 157.347208 
L 121.027194 155.390739 
L 121.968221 152.464277 
L 123.850277 150.332863 
L 125.732332 141.349883 
L 126.67336 136.346313 
L 127.614387 135.203157 
L 128.555415 133.749588 
L 129.496443 130.106628 
L 130.43747 128.553536 
L 131.378498 129.249034 
L 132.319526 129.717384 
L 133.260553 129.25455 
L 134.201581 129.246674 
L 136.083636 130.342776 
L 137.965692 130.771446 
L 141.729802 131.213341 
L 142.67083 131.174957 
L 143.611858 131.340852 
L 144.552885 131.68495 
L 147.375968 132.168231 
L 151.140079 131.101243 
L 152.081107 131.037158 
L 153.022134 131.09288 
L 153.963162 131.008618 
L 157.727273 129.582029 
L 159.609328 128.671918 
L 163.373439 128.158344 
L 165.255494 128.335237 
L 166.196522 128.719956 
L 167.137549 128.893997 
L 168.078577 128.761618 
L 169.960632 129.013266 
L 171.842688 129.787299 
L 173.724743 130.101535 
L 175.606798 130.886991 
L 177.488854 131.223695 
L 178.429881 131.573688 
L 180.311937 131.840225 
L 181.252964 132.192396 
L 182.193992 132.422222 
L 185.017075 132.276863 
L 186.89913 132.111851 
L 187.840158 132.193327 
L 189.722213 131.79071 
L 190.663241 131.382339 
L 191.604269 131.303308 
L 192.545296 131.680753 
L 193.486324 131.701078 
L 195.368379 131.55181 
L 197.250435 131.507543 
L 199.13249 131.188465 
L 200.073518 131.032758 
L 201.014545 131.005319 
L 202.896601 130.53657 
L 203.837628 130.327392 
L 205.719684 130.532821 
L 207.601739 130.790074 
L 208.542767 130.611803 
L 210.424822 130.595648 
L 211.36585 130.436541 
L 212.306877 130.519852 
L 214.188933 131.294633 
L 215.12996 131.350284 
L 216.070988 130.963168 
L 217.012016 130.774106 
L 217.953043 130.878399 
L 218.894071 131.211506 
L 221.717154 131.273826 
L 225.481265 130.98014 
L 230.186403 131.124283 
L 231.127431 131.548564 
L 233.009486 131.875984 
L 233.950514 131.474738 
L 234.891542 130.882241 
L 235.832569 131.057488 
L 236.773597 130.739426 
L 237.714625 129.167307 
L 238.655652 128.518193 
L 239.59668 129.291571 
L 242.419763 130.628126 
L 243.360791 131.121 
L 244.301818 132.095915 
L 245.242846 133.717627 
L 248.065929 140.895481 
L 249.006957 143.949764 
L 249.947984 145.925182 
L 250.889012 148.459377 
L 251.83004 152.060815 
L 253.712095 156.928184 
L 255.59415 158.814282 
L 256.535178 158.777043 
L 258.417233 159.453668 
L 260.299289 158.538386 
L 261.240316 157.206304 
L 262.181344 156.259136 
L 263.122372 155.599658 
L 264.063399 154.035448 
L 265.004427 151.96307 
L 265.945455 149.38299 
L 267.82751 140.062512 
L 268.768538 136.417964 
L 269.709565 133.836625 
L 270.650593 128.792125 
L 271.591621 124.405855 
L 272.532648 121.22822 
L 273.473676 118.463979 
L 274.414704 114.834074 
L 276.296759 111.082209 
L 277.237787 108.052099 
L 278.178814 105.538723 
L 279.119842 101.845665 
L 280.06087 101.517169 
L 281.001897 101.580968 
L 281.942925 102.516593 
L 283.82498 107.934386 
L 285.707036 117.08395 
L 287.589091 123.201628 
L 288.530119 126.919931 
L 289.471146 131.190464 
L 290.412174 134.380196 
L 293.235257 145.781467 
L 294.176285 150.212947 
L 295.117312 155.516913 
L 296.05834 158.449766 
L 296.999368 162.496713 
L 297.940395 164.389362 
L 298.881423 165.558514 
L 299.822451 166.10856 
L 300.763478 165.797184 
L 301.704506 165.170476 
L 302.645534 163.927946 
L 303.586561 160.933912 
L 304.527589 159.1819 
L 305.468617 158.458807 
L 306.409644 158.059762 
L 308.2917 159.584887 
L 309.232727 159.956739 
L 310.173755 160.495556 
L 311.114783 160.370041 
L 312.05581 159.629657 
L 312.996838 158.61969 
L 314.878893 153.7728 
L 315.819921 152.855125 
L 317.701976 148.688566 
L 320.525059 140.080072 
L 321.466087 136.774426 
L 323.348142 131.56971 
L 326.171225 125.715936 
L 328.053281 120.331717 
L 328.994308 118.471533 
L 330.876364 116.131516 
L 331.817391 114.801354 
L 332.758419 113.663756 
L 333.699447 113.290624 
L 334.640474 112.376767 
L 335.581502 111.163853 
L 336.52253 110.768116 
L 337.463557 112.861023 
L 338.404585 116.133982 
L 344.050751 140.338329 
L 345.932806 146.380813 
L 346.873834 150.062741 
L 347.814862 153.08578 
L 348.755889 155.037614 
L 349.696917 157.358437 
L 351.578972 162.6891 
L 352.52 164.792448 
L 354.402055 167.390306 
L 355.343083 168.083221 
L 356.284111 168.632471 
L 358.166166 168.006203 
L 359.107194 168.009567 
L 360.048221 167.097646 
L 360.989249 166.01633 
L 361.930277 164.288201 
L 362.871304 161.513458 
L 368.51747 137.913604 
L 371.340553 124.101525 
L 372.281581 120.333212 
L 374.163636 114.33463 
L 376.045692 106.820473 
L 376.986719 104.281907 
L 377.927747 102.416761 
L 378.868775 101.036454 
L 379.809802 99.390926 
L 380.75083 98.721986 
L 381.691858 97.909042 
L 382.632885 97.479529 
L 383.573913 99.974063 
L 384.514941 105.56708 
L 385.455968 110.001353 
L 386.396996 112.886142 
L 389.220079 123.910174 
L 390.161107 126.990004 
L 391.102134 127.754948 
L 392.98419 126.214081 
L 393.925217 125.804288 
L 394.866245 126.09693 
L 395.807273 126.13633 
L 395.807273 126.13633 
" clip-path="url(#p932742d8d0)" style="fill: none; stroke: #ff0000; stroke-width: 1.5; stroke-linecap: square"/>
   </g>
   <g id="patch_9">
    <path d="M 54.92 172.190118 
L 54.92 93.921882 
" style="fill: none; stroke: #000000; stroke-width: 0.8; stroke-linejoin: miter; stroke-linecap: square"/>
   </g>
   <g id="patch_10">
    <path d="M 412.04 172.190118 
L 412.04 93.921882 
" style="fill: none; stroke: #000000; stroke-width: 0.8; stroke-linejoin: miter; stroke-linecap: square"/>
   </g>
   <g id="patch_11">
    <path d="M 54.92 172.190118 
L 412.04 172.190118 
" style="fill: none; stroke: #000000; stroke-width: 0.8; stroke-linejoin: miter; stroke-linecap: square"/>
   </g>
   <g id="patch_12">
    <path d="M 54.92 93.921882 
L 412.04 93.921882 
" style="fill: none; stroke: #000000; stroke-width: 0.8; stroke-linejoin: miter; stroke-linecap: square"/>
   </g>
  </g>
  <g id="axes_3">
   <g id="patch_13">
    <path d="M 54.92 266.112 
L 412.04 266.112 
L 412.04 187.843765 
L 54.92 187.843765 
z
" style="fill: #ffffff"/>
   </g>
   <g id="matplotlib.axis_5"/>
   <g id="matplotlib.axis_6">
    <g id="ytick_7">
     <g id="line2d_13">
      <g>
       <use xlink:href="#me515212c41" x="54.92" y="246.900289" style="stroke: #000000; stroke-width: 0.8"/>
      </g>
     </g>
     <g id="text_11">
      <!-- −100 -->
      <g transform="translate(20.452813 250.699508)scale(0.1 -0.1)">
       <use xlink:href="#DejaVuSans-2212"/>
       <use xlink:href="#DejaVuSans-31" x="83.789062"/>
       <use xlink:href="#DejaVuSans-30" x="147.412109"/>
       <use xlink:href="#DejaVuSans-30" x="211.035156"/>
      </g>
     </g>
    </g>
    <g id="ytick_8">
     <g id="line2d_14">
      <g>
       <use xlink:href="#me515212c41" x="54.92" y="226.996419" style="stroke: #000000; stroke-width: 0.8"/>
      </g>
     </g>
     <g id="text_12">
      <!-- 0 -->
      <g transform="translate(41.5575 230.795637)scale(0.1 -0.1)">
       <use xlink:href="#DejaVuSans-30"/>
      </g>
     </g>
    </g>
    <g id="ytick_9">
     <g id="line2d_15">
      <g>
       <use xlink:href="#me515212c41" x="54.92" y="207.092548" style="stroke: #000000; stroke-width: 0.8"/>
      </g>
     </g>
     <g id="text_13">
      <!-- 100 -->
      <g transform="translate(28.8325 210.891767)scale(0.1 -0.1)">
       <use xlink:href="#DejaVuSans-31"/>
       <use xlink:href="#DejaVuSans-30" x="63.623047"/>
       <use xlink:href="#DejaVuSans-30" x="127.246094"/>
      </g>
     </g>
    </g>
    <g id="text_14">
     <!-- roll [°] -->
     <g transform="translate(12.917344 253.788742)rotate(-90)scale(0.17 -0.17)">
      <defs>
       <path id="DejaVuSans-6c" d="M 603 4863 
L 1178 4863 
L 1178 0 
L 603 0 
L 603 4863 
z
" transform="scale(0.015625)"/>
      </defs>
      <use xlink:href="#DejaVuSans-72"/>
      <use xlink:href="#DejaVuSans-6f" x="38.863281"/>
      <use xlink:href="#DejaVuSans-6c" x="100.044922"/>
      <use xlink:href="#DejaVuSans-6c" x="127.828125"/>
      <use xlink:href="#DejaVuSans-20" x="155.611328"/>
      <use xlink:href="#DejaVuSans-5b" x="187.398438"/>
      <use xlink:href="#DejaVuSans-b0" x="226.412109"/>
      <use xlink:href="#DejaVuSans-5d" x="276.412109"/>
     </g>
    </g>
   </g>
   <g id="line2d_16">
    <path d="M 71.152727 214.386015 
L 73.034783 213.048756 
L 73.97581 212.489304 
L 74.916838 212.140293 
L 78.680949 210.027088 
L 81.504032 208.830226 
L 82.445059 208.49025 
L 84.327115 207.291526 
L 85.268142 206.567669 
L 86.20917 205.486317 
L 89.032253 203.254271 
L 90.914308 201.317616 
L 91.855336 200.840711 
L 93.737391 200.894877 
L 94.678419 201.254397 
L 98.44253 205.596688 
L 101.265613 207.272528 
L 102.20664 207.724545 
L 106.911779 210.587174 
L 111.616917 212.862145 
L 113.498972 213.408937 
L 116.322055 214.783456 
L 118.204111 216.0024 
L 119.145138 216.268855 
L 120.086166 216.355323 
L 121.968221 214.80345 
L 122.909249 214.620161 
L 123.850277 213.962911 
L 125.732332 211.751073 
L 126.67336 211.037581 
L 127.614387 210.637043 
L 129.496443 209.410194 
L 130.43747 209.157737 
L 132.319526 209.23743 
L 134.201581 209.30012 
L 136.083636 209.533323 
L 140.788775 209.723383 
L 142.67083 209.745999 
L 148.316996 209.686936 
L 151.140079 209.521845 
L 154.90419 209.619106 
L 158.6683 209.830446 
L 163.373439 210.256281 
L 167.137549 210.358535 
L 169.960632 210.276205 
L 175.606798 209.712445 
L 177.488854 209.561591 
L 180.311937 209.662823 
L 181.252964 209.798733 
L 185.958103 209.940503 
L 188.781186 209.99673 
L 190.663241 209.75318 
L 191.604269 209.525195 
L 193.486324 209.359187 
L 194.427352 209.215936 
L 198.191462 209.079042 
L 200.073518 209.005757 
L 207.601739 209.083484 
L 215.12996 209.244967 
L 216.070988 209.365638 
L 217.953043 209.302609 
L 219.835099 209.288866 
L 223.599209 209.33903 
L 224.540237 209.446568 
L 230.186403 209.373093 
L 234.891542 209.357409 
L 235.832569 209.369104 
L 237.714625 209.747997 
L 238.655652 209.78843 
L 240.537708 209.546341 
L 241.478735 209.396652 
L 243.360791 208.740707 
L 247.124901 206.648024 
L 249.947984 204.001837 
L 250.889012 203.140223 
L 251.83004 201.386439 
L 252.771067 200.18325 
L 253.712095 198.117719 
L 255.59415 194.571888 
L 256.535178 193.397062 
L 257.476206 192.79673 
L 258.417233 193.175227 
L 259.358261 195.121617 
L 261.240316 197.991327 
L 263.122372 200.31394 
L 264.063399 201.726906 
L 265.004427 202.915279 
L 265.945455 204.748174 
L 266.886482 206.177107 
L 268.768538 207.94324 
L 269.709565 208.618199 
L 273.473676 212.385785 
L 274.414704 213.631115 
L 276.296759 215.049105 
L 277.237787 216.39382 
L 278.178814 216.941919 
L 279.119842 217.892088 
L 280.06087 217.705059 
L 281.001897 217.267976 
L 281.942925 216.60998 
L 282.883953 215.275355 
L 285.707036 212.313723 
L 286.648063 211.642924 
L 287.589091 211.162559 
L 288.530119 210.272602 
L 289.471146 209.751711 
L 290.412174 209.378308 
L 291.353202 208.554738 
L 292.294229 207.401261 
L 294.176285 204.136111 
L 295.117312 202.07653 
L 296.05834 200.382536 
L 296.999368 197.810275 
L 298.881423 194.402149 
L 299.822451 192.406844 
L 300.763478 262.554353 
L 302.645534 259.878158 
L 303.586561 258.546816 
L 304.527589 257.920896 
L 305.468617 257.649829 
L 306.409644 257.772198 
L 307.350672 258.273496 
L 309.232727 261.061772 
L 310.173755 262.543342 
L 311.114783 192.605792 
L 312.996838 196.17859 
L 313.937866 198.631803 
L 314.878893 200.327154 
L 318.643004 205.124527 
L 319.584032 205.879353 
L 320.525059 206.895436 
L 322.407115 208.348399 
L 323.348142 208.894055 
L 324.28917 209.297051 
L 325.230198 210.042868 
L 328.053281 211.500328 
L 330.876364 213.553297 
L 331.817391 214.051811 
L 333.699447 214.482406 
L 334.640474 214.407003 
L 335.581502 214.13354 
L 336.52253 214.07526 
L 339.345613 212.572313 
L 340.28664 211.844976 
L 341.227668 211.421031 
L 342.168696 211.15661 
L 343.109723 210.764732 
L 344.050751 210.731258 
L 344.991779 210.535271 
L 345.932806 210.20433 
L 346.873834 209.437087 
L 347.814862 207.682041 
L 348.755889 206.216023 
L 349.696917 204.445455 
L 352.52 199.776663 
L 353.461028 198.737559 
L 356.284111 194.8438 
L 358.166166 194.502834 
L 359.107194 194.747453 
L 360.048221 195.455614 
L 360.989249 196.637297 
L 363.812332 202.654091 
L 364.75336 204.346338 
L 365.694387 205.747529 
L 366.635415 206.708397 
L 367.576443 207.864677 
L 368.51747 208.644761 
L 370.399526 209.474048 
L 371.340553 209.689497 
L 372.281581 209.739009 
L 374.163636 210.457645 
L 376.045692 212.157959 
L 376.986719 213.392612 
L 378.868775 215.103635 
L 379.809802 215.702256 
L 380.75083 215.999812 
L 381.691858 216.101304 
L 382.632885 215.785386 
L 383.573913 214.819375 
L 384.514941 214.174345 
L 386.396996 213.380673 
L 391.102134 210.020874 
L 392.043162 209.736488 
L 395.807273 209.794574 
L 395.807273 209.794574 
" clip-path="url(#p10124872e8)" style="fill: none; stroke: #008000; stroke-width: 1.5; stroke-linecap: square"/>
   </g>
   <g id="line2d_17">
    <path d="M 71.152727 214.386017 
L 72.093755 213.22709 
L 73.034783 212.576693 
L 74.916838 211.663812 
L 76.798893 210.584177 
L 77.739921 209.884712 
L 80.563004 208.540314 
L 82.445059 207.654601 
L 84.327115 206.660877 
L 85.268142 205.831432 
L 87.150198 203.826742 
L 89.032253 202.124324 
L 90.914308 199.853084 
L 91.855336 199.130556 
L 92.796364 198.989841 
L 93.737391 199.084453 
L 94.678419 199.330789 
L 95.619447 200.417068 
L 97.501502 203.25983 
L 98.44253 204.30408 
L 99.383557 205.112574 
L 101.265613 206.347975 
L 103.147668 207.514009 
L 108.793834 211.159761 
L 111.616917 212.75302 
L 113.498972 213.374766 
L 114.44 213.7867 
L 117.263083 215.559329 
L 118.204111 216.266379 
L 119.145138 216.706263 
L 120.086166 216.838498 
L 121.027194 216.392366 
L 121.968221 215.263367 
L 123.850277 214.642554 
L 124.791304 213.488467 
L 126.67336 210.567915 
L 127.614387 210.114662 
L 128.555415 209.784973 
L 129.496443 208.886293 
L 130.43747 208.325894 
L 131.378498 208.316349 
L 132.319526 208.449105 
L 134.201581 208.394976 
L 137.965692 208.769988 
L 141.729802 208.903326 
L 143.611858 208.825036 
L 149.258024 208.751743 
L 153.022134 208.699407 
L 154.90419 208.797278 
L 156.786245 208.851739 
L 165.255494 209.398932 
L 167.137549 209.306009 
L 172.783715 209.003738 
L 178.429881 208.528442 
L 182.193992 208.819107 
L 184.076047 208.91609 
L 189.722213 208.940878 
L 190.663241 208.82349 
L 191.604269 208.548415 
L 199.13249 208.074663 
L 204.778656 208.093903 
L 220.776126 208.280566 
L 223.599209 208.283569 
L 224.540237 208.405257 
L 231.127431 208.450203 
L 233.950514 208.54401 
L 235.832569 208.486375 
L 237.714625 208.825698 
L 242.419763 208.318106 
L 243.360791 207.962644 
L 245.242846 207.036343 
L 247.124901 206.395351 
L 250.889012 203.644482 
L 251.83004 202.156146 
L 252.771067 201.33836 
L 253.712095 199.227829 
L 254.653123 197.426541 
L 255.59415 195.347548 
L 256.535178 193.917143 
L 257.476206 193.03895 
L 258.417233 193.417232 
L 259.358261 195.62986 
L 261.240316 198.564074 
L 263.122372 201.208623 
L 264.063399 202.277051 
L 265.004427 203.689214 
L 265.945455 205.319535 
L 267.82751 207.050919 
L 270.650593 208.646389 
L 272.532648 209.997177 
L 273.473676 210.843795 
L 274.414704 211.936417 
L 276.296759 213.126798 
L 277.237787 214.408744 
L 279.119842 215.589685 
L 280.06087 215.481589 
L 281.001897 215.087502 
L 281.942925 214.271266 
L 282.883953 212.89547 
L 283.82498 211.944749 
L 285.707036 210.766313 
L 287.589091 210.039449 
L 288.530119 209.444848 
L 289.471146 209.184518 
L 290.412174 209.131589 
L 291.353202 208.706698 
L 292.294229 208.027674 
L 296.05834 202.85605 
L 297.940395 198.822074 
L 298.881423 197.078109 
L 300.763478 192.496271 
L 301.704506 262.305197 
L 303.586561 258.898714 
L 304.527589 257.751586 
L 305.468617 257.474228 
L 306.409644 257.386073 
L 307.350672 258.078125 
L 308.2917 259.309212 
L 309.232727 261.076494 
L 310.173755 191.401412 
L 312.996838 197.410887 
L 313.937866 199.802446 
L 314.878893 201.215621 
L 315.819921 202.863975 
L 316.760949 203.737003 
L 317.701976 204.889697 
L 320.525059 207.24642 
L 323.348142 208.63787 
L 324.28917 208.919576 
L 326.171225 209.925529 
L 328.053281 210.509814 
L 328.994308 211.010186 
L 331.817391 212.934734 
L 333.699447 213.366473 
L 334.640474 213.295001 
L 335.581502 212.875422 
L 336.52253 212.691805 
L 337.463557 212.295779 
L 339.345613 211.804778 
L 340.28664 211.375081 
L 341.227668 211.207366 
L 342.168696 211.215834 
L 343.109723 211.093414 
L 344.050751 211.402101 
L 345.932806 211.552493 
L 346.873834 211.198473 
L 348.755889 209.019268 
L 350.637945 206.195449 
L 351.578972 205.265736 
L 352.52 204.007674 
L 353.461028 203.059096 
L 355.343083 200.292045 
L 356.284111 198.787811 
L 357.225138 198.388 
L 358.166166 198.18108 
L 359.107194 198.217358 
L 360.048221 198.840866 
L 360.989249 199.987253 
L 363.812332 205.158656 
L 364.75336 206.353387 
L 365.694387 207.24016 
L 368.51747 209.224571 
L 370.399526 209.485652 
L 371.340553 209.371368 
L 372.281581 209.114667 
L 374.163636 209.268515 
L 376.045692 210.393692 
L 377.927747 212.469197 
L 378.868775 213.466825 
L 379.809802 214.133116 
L 380.75083 214.484389 
L 381.691858 214.630166 
L 382.632885 214.160817 
L 383.573913 213.182925 
L 384.514941 212.680396 
L 385.455968 212.756034 
L 386.396996 212.57111 
L 389.220079 211.232027 
L 390.161107 210.539006 
L 392.043162 209.71822 
L 393.925217 209.570841 
L 395.807273 209.683309 
L 395.807273 209.683309 
" clip-path="url(#p10124872e8)" style="fill: none; stroke: #ff0000; stroke-width: 1.5; stroke-linecap: square"/>
   </g>
   <g id="patch_14">
    <path d="M 54.92 266.112 
L 54.92 187.843765 
" style="fill: none; stroke: #000000; stroke-width: 0.8; stroke-linejoin: miter; stroke-linecap: square"/>
   </g>
   <g id="patch_15">
    <path d="M 412.04 266.112 
L 412.04 187.843765 
" style="fill: none; stroke: #000000; stroke-width: 0.8; stroke-linejoin: miter; stroke-linecap: square"/>
   </g>
   <g id="patch_16">
    <path d="M 54.92 266.112 
L 412.04 266.112 
" style="fill: none; stroke: #000000; stroke-width: 0.8; stroke-linejoin: miter; stroke-linecap: square"/>
   </g>
   <g id="patch_17">
    <path d="M 54.92 187.843765 
L 412.04 187.843765 
" style="fill: none; stroke: #000000; stroke-width: 0.8; stroke-linejoin: miter; stroke-linecap: square"/>
   </g>
  </g>
 </g>
 <defs>
  <clipPath id="pa1c0bae17e">
   <rect x="54.92" y="0" width="357.12" height="78.268235"/>
  </clipPath>
  <clipPath id="p932742d8d0">
   <rect x="54.92" y="93.921882" width="357.12" height="78.268235"/>
  </clipPath>
  <clipPath id="p10124872e8">
   <rect x="54.92" y="187.843765" width="357.12" height="78.268235"/>
  </clipPath>
 </defs>
</svg>
