<?xml version="1.0" encoding="utf-8" standalone="no"?>
<!DOCTYPE svg PUBLIC "-//W3C//DTD SVG 1.1//EN"
  "http://www.w3.org/Graphics/SVG/1.1/DTD/svg11.dtd">
<svg xmlns:xlink="http://www.w3.org/1999/xlink" width="413.874193pt" height="296.46825pt" viewBox="0 0 413.874193 296.46825" xmlns="http://www.w3.org/2000/svg" version="1.1">
 <metadata>
  <rdf:RDF xmlns:dc="http://purl.org/dc/elements/1.1/" xmlns:cc="http://creativecommons.org/ns#" xmlns:rdf="http://www.w3.org/1999/02/22-rdf-syntax-ns#">
   <cc:Work>
    <dc:type rdf:resource="http://purl.org/dc/dcmitype/StillImage"/>
    <dc:date>2022-02-09T21:02:14.282297</dc:date>
    <dc:format>image/svg+xml</dc:format>
    <dc:creator>
     <cc:Agent>
      <dc:title>Matplotlib v3.5.1, https://matplotlib.org/</dc:title>
     </cc:Agent>
    </dc:creator>
   </cc:Work>
  </rdf:RDF>
 </metadata>
 <defs>
  <style type="text/css">*{stroke-linejoin: round; stroke-linecap: butt}</style>
 </defs>
 <g id="figure_1">
  <g id="patch_1">
   <path d="M 0 296.46825 
L 413.874193 296.46825 
L 413.874193 0 
L 0 0 
z
" style="fill: #ffffff"/>
  </g>
  <g id="axes_1">
   <g id="patch_2">
    <path d="M 48.145313 78.268235 
L 405.265313 78.268235 
L 405.265313 -0 
L 48.145313 -0 
z
" style="fill: #ffffff"/>
   </g>
   <g id="matplotlib.axis_1">
    <g id="xtick_1">
     <g id="line2d_1">
      <defs>
       <path id="md3779c7431" d="M 0 0 
L 0 3.5 
" style="stroke: #000000; stroke-width: 0.8"/>
      </defs>
      <g>
       <use xlink:href="#md3779c7431" x="64.37804" y="78.268235" style="stroke: #000000; stroke-width: 0.8"/>
      </g>
     </g>
     <g id="text_1">
      <!-- 0 -->
      <g transform="translate(61.19679 92.866673)scale(0.1 -0.1)">
       <defs>
        <path id="DejaVuSans-30" d="M 2034 4250 
Q 1547 4250 1301 3770 
Q 1056 3291 1056 2328 
Q 1056 1369 1301 889 
Q 1547 409 2034 409 
Q 2525 409 2770 889 
Q 3016 1369 3016 2328 
Q 3016 3291 2770 3770 
Q 2525 4250 2034 4250 
z
M 2034 4750 
Q 2819 4750 3233 4129 
Q 3647 3509 3647 2328 
Q 3647 1150 3233 529 
Q 2819 -91 2034 -91 
Q 1250 -91 836 529 
Q 422 1150 422 2328 
Q 422 3509 836 4129 
Q 1250 4750 2034 4750 
z
" transform="scale(0.015625)"/>
       </defs>
       <use xlink:href="#DejaVuSans-30"/>
      </g>
     </g>
    </g>
    <g id="xtick_2">
     <g id="line2d_2">
      <g>
       <use xlink:href="#md3779c7431" x="106.87209" y="78.268235" style="stroke: #000000; stroke-width: 0.8"/>
      </g>
     </g>
     <g id="text_2">
      <!-- 25 -->
      <g transform="translate(100.50959 92.866673)scale(0.1 -0.1)">
       <defs>
        <path id="DejaVuSans-32" d="M 1228 531 
L 3431 531 
L 3431 0 
L 469 0 
L 469 531 
Q 828 903 1448 1529 
Q 2069 2156 2228 2338 
Q 2531 2678 2651 2914 
Q 2772 3150 2772 3378 
Q 2772 3750 2511 3984 
Q 2250 4219 1831 4219 
Q 1534 4219 1204 4116 
Q 875 4013 500 3803 
L 500 4441 
Q 881 4594 1212 4672 
Q 1544 4750 1819 4750 
Q 2544 4750 2975 4387 
Q 3406 4025 3406 3419 
Q 3406 3131 3298 2873 
Q 3191 2616 2906 2266 
Q 2828 2175 2409 1742 
Q 1991 1309 1228 531 
z
" transform="scale(0.015625)"/>
        <path id="DejaVuSans-35" d="M 691 4666 
L 3169 4666 
L 3169 4134 
L 1269 4134 
L 1269 2991 
Q 1406 3038 1543 3061 
Q 1681 3084 1819 3084 
Q 2600 3084 3056 2656 
Q 3513 2228 3513 1497 
Q 3513 744 3044 326 
Q 2575 -91 1722 -91 
Q 1428 -91 1123 -41 
Q 819 9 494 109 
L 494 744 
Q 775 591 1075 516 
Q 1375 441 1709 441 
Q 2250 441 2565 725 
Q 2881 1009 2881 1497 
Q 2881 1984 2565 2268 
Q 2250 2553 1709 2553 
Q 1456 2553 1204 2497 
Q 953 2441 691 2322 
L 691 4666 
z
" transform="scale(0.015625)"/>
       </defs>
       <use xlink:href="#DejaVuSans-32"/>
       <use xlink:href="#DejaVuSans-35" x="63.623047"/>
      </g>
     </g>
    </g>
    <g id="xtick_3">
     <g id="line2d_3">
      <g>
       <use xlink:href="#md3779c7431" x="149.366141" y="78.268235" style="stroke: #000000; stroke-width: 0.8"/>
      </g>
     </g>
     <g id="text_3">
      <!-- 50 -->
      <g transform="translate(143.003641 92.866673)scale(0.1 -0.1)">
       <use xlink:href="#DejaVuSans-35"/>
       <use xlink:href="#DejaVuSans-30" x="63.623047"/>
      </g>
     </g>
    </g>
    <g id="xtick_4">
     <g id="line2d_4">
      <g>
       <use xlink:href="#md3779c7431" x="191.860191" y="78.268235" style="stroke: #000000; stroke-width: 0.8"/>
      </g>
     </g>
     <g id="text_4">
      <!-- 75 -->
      <g transform="translate(185.497691 92.866673)scale(0.1 -0.1)">
       <defs>
        <path id="DejaVuSans-37" d="M 525 4666 
L 3525 4666 
L 3525 4397 
L 1831 0 
L 1172 0 
L 2766 4134 
L 525 4134 
L 525 4666 
z
" transform="scale(0.015625)"/>
       </defs>
       <use xlink:href="#DejaVuSans-37"/>
       <use xlink:href="#DejaVuSans-35" x="63.623047"/>
      </g>
     </g>
    </g>
    <g id="xtick_5">
     <g id="line2d_5">
      <g>
       <use xlink:href="#md3779c7431" x="234.354242" y="78.268235" style="stroke: #000000; stroke-width: 0.8"/>
      </g>
     </g>
     <g id="text_5">
      <!-- 100 -->
      <g transform="translate(224.810492 92.866673)scale(0.1 -0.1)">
       <defs>
        <path id="DejaVuSans-31" d="M 794 531 
L 1825 531 
L 1825 4091 
L 703 3866 
L 703 4441 
L 1819 4666 
L 2450 4666 
L 2450 531 
L 3481 531 
L 3481 0 
L 794 0 
L 794 531 
z
" transform="scale(0.015625)"/>
       </defs>
       <use xlink:href="#DejaVuSans-31"/>
       <use xlink:href="#DejaVuSans-30" x="63.623047"/>
       <use xlink:href="#DejaVuSans-30" x="127.246094"/>
      </g>
     </g>
    </g>
    <g id="xtick_6">
     <g id="line2d_6">
      <g>
       <use xlink:href="#md3779c7431" x="276.848292" y="78.268235" style="stroke: #000000; stroke-width: 0.8"/>
      </g>
     </g>
     <g id="text_6">
      <!-- 125 -->
      <g transform="translate(267.304542 92.866673)scale(0.1 -0.1)">
       <use xlink:href="#DejaVuSans-31"/>
       <use xlink:href="#DejaVuSans-32" x="63.623047"/>
       <use xlink:href="#DejaVuSans-35" x="127.246094"/>
      </g>
     </g>
    </g>
    <g id="xtick_7">
     <g id="line2d_7">
      <g>
       <use xlink:href="#md3779c7431" x="319.342342" y="78.268235" style="stroke: #000000; stroke-width: 0.8"/>
      </g>
     </g>
     <g id="text_7">
      <!-- 150 -->
      <g transform="translate(309.798592 92.866673)scale(0.1 -0.1)">
       <use xlink:href="#DejaVuSans-31"/>
       <use xlink:href="#DejaVuSans-35" x="63.623047"/>
       <use xlink:href="#DejaVuSans-30" x="127.246094"/>
      </g>
     </g>
    </g>
    <g id="xtick_8">
     <g id="line2d_8">
      <g>
       <use xlink:href="#md3779c7431" x="361.836393" y="78.268235" style="stroke: #000000; stroke-width: 0.8"/>
      </g>
     </g>
     <g id="text_8">
      <!-- 175 -->
      <g transform="translate(352.292643 92.866673)scale(0.1 -0.1)">
       <use xlink:href="#DejaVuSans-31"/>
       <use xlink:href="#DejaVuSans-37" x="63.623047"/>
       <use xlink:href="#DejaVuSans-35" x="127.246094"/>
      </g>
     </g>
    </g>
    <g id="xtick_9">
     <g id="line2d_9">
      <g>
       <use xlink:href="#md3779c7431" x="404.330443" y="78.268235" style="stroke: #000000; stroke-width: 0.8"/>
      </g>
     </g>
     <g id="text_9">
      <!-- 200 -->
      <g transform="translate(394.786693 92.866673)scale(0.1 -0.1)">
       <use xlink:href="#DejaVuSans-32"/>
       <use xlink:href="#DejaVuSans-30" x="63.623047"/>
       <use xlink:href="#DejaVuSans-30" x="127.246094"/>
      </g>
     </g>
    </g>
    <g id="text_10">
     <!-- keyframe number -->
     <g transform="translate(182.025625 106.544798)scale(0.1 -0.1)">
      <defs>
       <path id="DejaVuSans-6b" d="M 581 4863 
L 1159 4863 
L 1159 1991 
L 2875 3500 
L 3609 3500 
L 1753 1863 
L 3688 0 
L 2938 0 
L 1159 1709 
L 1159 0 
L 581 0 
L 581 4863 
z
" transform="scale(0.015625)"/>
       <path id="DejaVuSans-65" d="M 3597 1894 
L 3597 1613 
L 953 1613 
Q 991 1019 1311 708 
Q 1631 397 2203 397 
Q 2534 397 2845 478 
Q 3156 559 3463 722 
L 3463 178 
Q 3153 47 2828 -22 
Q 2503 -91 2169 -91 
Q 1331 -91 842 396 
Q 353 884 353 1716 
Q 353 2575 817 3079 
Q 1281 3584 2069 3584 
Q 2775 3584 3186 3129 
Q 3597 2675 3597 1894 
z
M 3022 2063 
Q 3016 2534 2758 2815 
Q 2500 3097 2075 3097 
Q 1594 3097 1305 2825 
Q 1016 2553 972 2059 
L 3022 2063 
z
" transform="scale(0.015625)"/>
       <path id="DejaVuSans-79" d="M 2059 -325 
Q 1816 -950 1584 -1140 
Q 1353 -1331 966 -1331 
L 506 -1331 
L 506 -850 
L 844 -850 
Q 1081 -850 1212 -737 
Q 1344 -625 1503 -206 
L 1606 56 
L 191 3500 
L 800 3500 
L 1894 763 
L 2988 3500 
L 3597 3500 
L 2059 -325 
z
" transform="scale(0.015625)"/>
       <path id="DejaVuSans-66" d="M 2375 4863 
L 2375 4384 
L 1825 4384 
Q 1516 4384 1395 4259 
Q 1275 4134 1275 3809 
L 1275 3500 
L 2222 3500 
L 2222 3053 
L 1275 3053 
L 1275 0 
L 697 0 
L 697 3053 
L 147 3053 
L 147 3500 
L 697 3500 
L 697 3744 
Q 697 4328 969 4595 
Q 1241 4863 1831 4863 
L 2375 4863 
z
" transform="scale(0.015625)"/>
       <path id="DejaVuSans-72" d="M 2631 2963 
Q 2534 3019 2420 3045 
Q 2306 3072 2169 3072 
Q 1681 3072 1420 2755 
Q 1159 2438 1159 1844 
L 1159 0 
L 581 0 
L 581 3500 
L 1159 3500 
L 1159 2956 
Q 1341 3275 1631 3429 
Q 1922 3584 2338 3584 
Q 2397 3584 2469 3576 
Q 2541 3569 2628 3553 
L 2631 2963 
z
" transform="scale(0.015625)"/>
       <path id="DejaVuSans-61" d="M 2194 1759 
Q 1497 1759 1228 1600 
Q 959 1441 959 1056 
Q 959 750 1161 570 
Q 1363 391 1709 391 
Q 2188 391 2477 730 
Q 2766 1069 2766 1631 
L 2766 1759 
L 2194 1759 
z
M 3341 1997 
L 3341 0 
L 2766 0 
L 2766 531 
Q 2569 213 2275 61 
Q 1981 -91 1556 -91 
Q 1019 -91 701 211 
Q 384 513 384 1019 
Q 384 1609 779 1909 
Q 1175 2209 1959 2209 
L 2766 2209 
L 2766 2266 
Q 2766 2663 2505 2880 
Q 2244 3097 1772 3097 
Q 1472 3097 1187 3025 
Q 903 2953 641 2809 
L 641 3341 
Q 956 3463 1253 3523 
Q 1550 3584 1831 3584 
Q 2591 3584 2966 3190 
Q 3341 2797 3341 1997 
z
" transform="scale(0.015625)"/>
       <path id="DejaVuSans-6d" d="M 3328 2828 
Q 3544 3216 3844 3400 
Q 4144 3584 4550 3584 
Q 5097 3584 5394 3201 
Q 5691 2819 5691 2113 
L 5691 0 
L 5113 0 
L 5113 2094 
Q 5113 2597 4934 2840 
Q 4756 3084 4391 3084 
Q 3944 3084 3684 2787 
Q 3425 2491 3425 1978 
L 3425 0 
L 2847 0 
L 2847 2094 
Q 2847 2600 2669 2842 
Q 2491 3084 2119 3084 
Q 1678 3084 1418 2786 
Q 1159 2488 1159 1978 
L 1159 0 
L 581 0 
L 581 3500 
L 1159 3500 
L 1159 2956 
Q 1356 3278 1631 3431 
Q 1906 3584 2284 3584 
Q 2666 3584 2933 3390 
Q 3200 3197 3328 2828 
z
" transform="scale(0.015625)"/>
       <path id="DejaVuSans-20" transform="scale(0.015625)"/>
       <path id="DejaVuSans-6e" d="M 3513 2113 
L 3513 0 
L 2938 0 
L 2938 2094 
Q 2938 2591 2744 2837 
Q 2550 3084 2163 3084 
Q 1697 3084 1428 2787 
Q 1159 2491 1159 1978 
L 1159 0 
L 581 0 
L 581 3500 
L 1159 3500 
L 1159 2956 
Q 1366 3272 1645 3428 
Q 1925 3584 2291 3584 
Q 2894 3584 3203 3211 
Q 3513 2838 3513 2113 
z
" transform="scale(0.015625)"/>
       <path id="DejaVuSans-75" d="M 544 1381 
L 544 3500 
L 1119 3500 
L 1119 1403 
Q 1119 906 1312 657 
Q 1506 409 1894 409 
Q 2359 409 2629 706 
Q 2900 1003 2900 1516 
L 2900 3500 
L 3475 3500 
L 3475 0 
L 2900 0 
L 2900 538 
Q 2691 219 2414 64 
Q 2138 -91 1772 -91 
Q 1169 -91 856 284 
Q 544 659 544 1381 
z
M 1991 3584 
L 1991 3584 
z
" transform="scale(0.015625)"/>
       <path id="DejaVuSans-62" d="M 3116 1747 
Q 3116 2381 2855 2742 
Q 2594 3103 2138 3103 
Q 1681 3103 1420 2742 
Q 1159 2381 1159 1747 
Q 1159 1113 1420 752 
Q 1681 391 2138 391 
Q 2594 391 2855 752 
Q 3116 1113 3116 1747 
z
M 1159 2969 
Q 1341 3281 1617 3432 
Q 1894 3584 2278 3584 
Q 2916 3584 3314 3078 
Q 3713 2572 3713 1747 
Q 3713 922 3314 415 
Q 2916 -91 2278 -91 
Q 1894 -91 1617 61 
Q 1341 213 1159 525 
L 1159 0 
L 581 0 
L 581 4863 
L 1159 4863 
L 1159 2969 
z
" transform="scale(0.015625)"/>
      </defs>
      <use xlink:href="#DejaVuSans-6b"/>
      <use xlink:href="#DejaVuSans-65" x="54.285156"/>
      <use xlink:href="#DejaVuSans-79" x="115.808594"/>
      <use xlink:href="#DejaVuSans-66" x="174.988281"/>
      <use xlink:href="#DejaVuSans-72" x="210.193359"/>
      <use xlink:href="#DejaVuSans-61" x="251.306641"/>
      <use xlink:href="#DejaVuSans-6d" x="312.585938"/>
      <use xlink:href="#DejaVuSans-65" x="409.998047"/>
      <use xlink:href="#DejaVuSans-20" x="471.521484"/>
      <use xlink:href="#DejaVuSans-6e" x="503.308594"/>
      <use xlink:href="#DejaVuSans-75" x="566.6875"/>
      <use xlink:href="#DejaVuSans-6d" x="630.066406"/>
      <use xlink:href="#DejaVuSans-62" x="727.478516"/>
      <use xlink:href="#DejaVuSans-65" x="790.955078"/>
      <use xlink:href="#DejaVuSans-72" x="852.478516"/>
     </g>
    </g>
   </g>
   <g id="matplotlib.axis_2">
    <g id="ytick_1">
     <g id="line2d_10">
      <defs>
       <path id="m65ddea9228" d="M 0 0 
L -3.5 0 
" style="stroke: #000000; stroke-width: 0.8"/>
      </defs>
      <g>
       <use xlink:href="#m65ddea9228" x="48.145313" y="58.635795" style="stroke: #000000; stroke-width: 0.8"/>
      </g>
     </g>
     <g id="text_11">
      <!-- −140 -->
      <g transform="translate(13.678125 62.435014)scale(0.1 -0.1)">
       <defs>
        <path id="DejaVuSans-2212" d="M 678 2272 
L 4684 2272 
L 4684 1741 
L 678 1741 
L 678 2272 
z
" transform="scale(0.015625)"/>
        <path id="DejaVuSans-34" d="M 2419 4116 
L 825 1625 
L 2419 1625 
L 2419 4116 
z
M 2253 4666 
L 3047 4666 
L 3047 1625 
L 3713 1625 
L 3713 1100 
L 3047 1100 
L 3047 0 
L 2419 0 
L 2419 1100 
L 313 1100 
L 313 1709 
L 2253 4666 
z
" transform="scale(0.015625)"/>
       </defs>
       <use xlink:href="#DejaVuSans-2212"/>
       <use xlink:href="#DejaVuSans-31" x="83.789062"/>
       <use xlink:href="#DejaVuSans-34" x="147.412109"/>
       <use xlink:href="#DejaVuSans-30" x="211.035156"/>
      </g>
     </g>
    </g>
    <g id="ytick_2">
     <g id="line2d_11">
      <g>
       <use xlink:href="#m65ddea9228" x="48.145313" y="27.704924" style="stroke: #000000; stroke-width: 0.8"/>
      </g>
     </g>
     <g id="text_12">
      <!-- −120 -->
      <g transform="translate(13.678125 31.504142)scale(0.1 -0.1)">
       <use xlink:href="#DejaVuSans-2212"/>
       <use xlink:href="#DejaVuSans-31" x="83.789062"/>
       <use xlink:href="#DejaVuSans-32" x="147.412109"/>
       <use xlink:href="#DejaVuSans-30" x="211.035156"/>
      </g>
     </g>
    </g>
    <g id="text_13">
     <!-- yaw [degrees] -->
     <g transform="translate(7.598437 74.863024)rotate(-90)scale(0.1 -0.1)">
      <defs>
       <path id="DejaVuSans-77" d="M 269 3500 
L 844 3500 
L 1563 769 
L 2278 3500 
L 2956 3500 
L 3675 769 
L 4391 3500 
L 4966 3500 
L 4050 0 
L 3372 0 
L 2619 2869 
L 1863 0 
L 1184 0 
L 269 3500 
z
" transform="scale(0.015625)"/>
       <path id="DejaVuSans-5b" d="M 550 4863 
L 1875 4863 
L 1875 4416 
L 1125 4416 
L 1125 -397 
L 1875 -397 
L 1875 -844 
L 550 -844 
L 550 4863 
z
" transform="scale(0.015625)"/>
       <path id="DejaVuSans-64" d="M 2906 2969 
L 2906 4863 
L 3481 4863 
L 3481 0 
L 2906 0 
L 2906 525 
Q 2725 213 2448 61 
Q 2172 -91 1784 -91 
Q 1150 -91 751 415 
Q 353 922 353 1747 
Q 353 2572 751 3078 
Q 1150 3584 1784 3584 
Q 2172 3584 2448 3432 
Q 2725 3281 2906 2969 
z
M 947 1747 
Q 947 1113 1208 752 
Q 1469 391 1925 391 
Q 2381 391 2643 752 
Q 2906 1113 2906 1747 
Q 2906 2381 2643 2742 
Q 2381 3103 1925 3103 
Q 1469 3103 1208 2742 
Q 947 2381 947 1747 
z
" transform="scale(0.015625)"/>
       <path id="DejaVuSans-67" d="M 2906 1791 
Q 2906 2416 2648 2759 
Q 2391 3103 1925 3103 
Q 1463 3103 1205 2759 
Q 947 2416 947 1791 
Q 947 1169 1205 825 
Q 1463 481 1925 481 
Q 2391 481 2648 825 
Q 2906 1169 2906 1791 
z
M 3481 434 
Q 3481 -459 3084 -895 
Q 2688 -1331 1869 -1331 
Q 1566 -1331 1297 -1286 
Q 1028 -1241 775 -1147 
L 775 -588 
Q 1028 -725 1275 -790 
Q 1522 -856 1778 -856 
Q 2344 -856 2625 -561 
Q 2906 -266 2906 331 
L 2906 616 
Q 2728 306 2450 153 
Q 2172 0 1784 0 
Q 1141 0 747 490 
Q 353 981 353 1791 
Q 353 2603 747 3093 
Q 1141 3584 1784 3584 
Q 2172 3584 2450 3431 
Q 2728 3278 2906 2969 
L 2906 3500 
L 3481 3500 
L 3481 434 
z
" transform="scale(0.015625)"/>
       <path id="DejaVuSans-73" d="M 2834 3397 
L 2834 2853 
Q 2591 2978 2328 3040 
Q 2066 3103 1784 3103 
Q 1356 3103 1142 2972 
Q 928 2841 928 2578 
Q 928 2378 1081 2264 
Q 1234 2150 1697 2047 
L 1894 2003 
Q 2506 1872 2764 1633 
Q 3022 1394 3022 966 
Q 3022 478 2636 193 
Q 2250 -91 1575 -91 
Q 1294 -91 989 -36 
Q 684 19 347 128 
L 347 722 
Q 666 556 975 473 
Q 1284 391 1588 391 
Q 1994 391 2212 530 
Q 2431 669 2431 922 
Q 2431 1156 2273 1281 
Q 2116 1406 1581 1522 
L 1381 1569 
Q 847 1681 609 1914 
Q 372 2147 372 2553 
Q 372 3047 722 3315 
Q 1072 3584 1716 3584 
Q 2034 3584 2315 3537 
Q 2597 3491 2834 3397 
z
" transform="scale(0.015625)"/>
       <path id="DejaVuSans-5d" d="M 1947 4863 
L 1947 -844 
L 622 -844 
L 622 -397 
L 1369 -397 
L 1369 4416 
L 622 4416 
L 622 4863 
L 1947 4863 
z
" transform="scale(0.015625)"/>
      </defs>
      <use xlink:href="#DejaVuSans-79"/>
      <use xlink:href="#DejaVuSans-61" x="59.179688"/>
      <use xlink:href="#DejaVuSans-77" x="120.458984"/>
      <use xlink:href="#DejaVuSans-20" x="202.246094"/>
      <use xlink:href="#DejaVuSans-5b" x="234.033203"/>
      <use xlink:href="#DejaVuSans-64" x="273.046875"/>
      <use xlink:href="#DejaVuSans-65" x="336.523438"/>
      <use xlink:href="#DejaVuSans-67" x="398.046875"/>
      <use xlink:href="#DejaVuSans-72" x="461.523438"/>
      <use xlink:href="#DejaVuSans-65" x="500.386719"/>
      <use xlink:href="#DejaVuSans-65" x="561.910156"/>
      <use xlink:href="#DejaVuSans-73" x="623.433594"/>
      <use xlink:href="#DejaVuSans-5d" x="675.533203"/>
     </g>
    </g>
   </g>
   <g id="line2d_12">
    <path d="M 64.37804 47.388206 
L 66.086748 45.733268 
L 69.504164 38.492995 
L 71.212872 35.763539 
L 72.92158 34.075853 
L 74.630289 35.249541 
L 76.338997 34.359671 
L 78.047705 33.712328 
L 81.465121 32.140045 
L 83.173829 31.717328 
L 86.591246 35.83354 
L 88.299954 36.732238 
L 91.71737 39.193745 
L 93.426078 39.602046 
L 95.134786 38.999678 
L 96.843494 40.522072 
L 98.552202 43.968373 
L 100.260911 47.073723 
L 101.969619 47.781793 
L 103.678327 48.312876 
L 105.387035 48.379104 
L 107.095743 47.573796 
L 108.804451 48.616621 
L 110.513159 52.832071 
L 112.221868 53.941902 
L 113.930576 52.793552 
L 115.639284 49.841063 
L 117.347992 52.558618 
L 119.0567 57.664955 
L 120.765408 58.311804 
L 122.474116 59.775608 
L 124.182824 61.74024 
L 125.891533 59.26047 
L 129.308949 55.453513 
L 131.017657 54.973602 
L 132.726365 55.029159 
L 134.435073 50.871707 
L 136.143781 45.353827 
L 137.85249 42.813831 
L 139.561198 42.747256 
L 141.269906 43.058892 
L 142.978614 39.641676 
L 144.687322 31.177741 
L 146.39603 24.02179 
L 148.104738 26.618346 
L 149.813446 26.743766 
L 151.522155 26.750565 
L 153.230863 25.529305 
L 154.939571 20.883205 
L 156.648279 21.007254 
L 158.356987 22.499606 
L 160.065695 30.762895 
L 161.774403 33.135567 
L 163.483112 34.557668 
L 165.19182 34.483965 
L 166.900528 37.541367 
L 168.609236 38.100305 
L 170.317944 39.798674 
L 172.026652 39.017623 
L 173.73536 40.187087 
L 175.444068 43.295472 
L 177.152777 43.281656 
L 178.861485 44.033714 
L 180.570193 45.39322 
L 182.278901 46.897138 
L 183.987609 47.126559 
L 185.696317 45.713857 
L 187.405025 43.807643 
L 189.113734 45.375795 
L 190.822442 45.341672 
L 192.53115 44.981671 
L 194.239858 46.099398 
L 195.948566 46.717894 
L 197.657274 49.92366 
L 201.07469 57.552784 
L 204.492107 61.719658 
L 207.909523 68.843646 
L 209.618231 68.593723 
L 211.326939 67.019178 
L 213.035647 67.475087 
L 214.744356 67.105444 
L 216.453064 64.147225 
L 218.161772 62.001338 
L 219.87048 60.722454 
L 221.579188 59.228096 
L 223.287896 58.098474 
L 224.996604 57.452757 
L 226.705313 56.314811 
L 228.414021 54.800703 
L 230.122729 52.539386 
L 231.831437 51.005464 
L 233.540145 49.946344 
L 235.248853 48.037083 
L 236.957561 44.515331 
L 238.666269 44.156628 
L 240.374978 42.350642 
L 242.083686 41.032313 
L 243.792394 38.139082 
L 245.501102 30.287429 
L 247.20981 26.79375 
L 248.918518 29.166009 
L 250.627226 28.12246 
L 252.335935 35.249782 
L 254.044643 43.54874 
L 255.753351 46.745156 
L 257.462059 44.807041 
L 259.170767 43.844736 
L 260.879475 40.374346 
L 262.588183 36.169123 
L 264.296891 31.506581 
L 266.0056 27.962692 
L 267.714308 23.878574 
L 269.423016 26.149944 
L 271.131724 29.602682 
L 272.840432 29.587188 
L 274.54914 29.110722 
L 276.257848 30.351844 
L 277.966557 33.006743 
L 279.675265 33.362134 
L 281.383973 32.527013 
L 283.092681 31.33664 
L 284.801389 30.789784 
L 286.510097 30.952235 
L 288.218805 30.351342 
L 289.927513 29.395516 
L 293.34493 31.523541 
L 295.053638 30.97932 
L 296.762346 27.832029 
L 298.471054 25.34053 
L 300.179762 21.938837 
L 301.88847 21.628602 
L 303.597179 20.879544 
L 305.305887 21.614922 
L 307.014595 22.045808 
L 310.432011 25.28955 
L 312.140719 26.416679 
L 313.849427 24.647176 
L 315.558135 22.703728 
L 317.266844 24.848182 
L 318.975552 33.415081 
L 320.68426 41.073102 
L 322.392968 45.418288 
L 324.101676 49.276817 
L 325.810384 52.296772 
L 327.519092 54.16116 
L 329.227801 57.952608 
L 330.936509 60.531833 
L 332.645217 63.415757 
L 334.353925 65.372564 
L 336.062633 65.897384 
L 337.771341 67.034257 
L 339.480049 67.997949 
L 341.188757 70.880481 
L 342.897466 71.986313 
L 344.606174 71.790303 
L 346.314882 72.551389 
L 348.02359 73.001663 
L 349.732298 72.789036 
L 351.441006 70.381924 
L 353.149714 65.69297 
L 354.858423 61.976632 
L 356.567131 61.299083 
L 358.275839 60.288749 
L 359.984547 59.457007 
L 363.401963 59.79519 
L 365.110671 59.645226 
L 366.819379 60.435084 
L 368.528088 62.547592 
L 370.236796 64.061561 
L 371.945504 64.91852 
L 373.654212 63.913903 
L 375.36292 61.139697 
L 377.071628 60.963562 
L 378.780336 60.967974 
L 380.489045 59.783109 
L 383.906461 57.975652 
L 385.615169 58.050107 
L 387.323877 58.454829 
L 389.032585 58.43793 
L 389.032585 58.43793 
" clip-path="url(#p409e43a20a)" style="fill: none; stroke: #008000; stroke-width: 1.5; stroke-linecap: square"/>
   </g>
   <g id="line2d_13">
    <path d="M 64.37804 47.388288 
L 66.086748 46.62218 
L 67.795456 43.31398 
L 69.504164 38.750834 
L 71.212872 35.348606 
L 72.92158 33.406762 
L 74.630289 34.385077 
L 76.338997 34.032282 
L 78.047705 33.332837 
L 79.756413 32.813685 
L 81.465121 32.796906 
L 83.173829 32.436704 
L 84.882537 34.187319 
L 86.591246 36.530203 
L 88.299954 38.329644 
L 90.008662 39.153762 
L 91.71737 40.560214 
L 93.426078 40.932779 
L 95.134786 40.617156 
L 96.843494 41.11675 
L 98.552202 44.285696 
L 100.260911 48.50996 
L 101.969619 49.842386 
L 103.678327 50.072141 
L 105.387035 49.14155 
L 107.095743 48.850231 
L 108.804451 49.104606 
L 110.513159 52.746629 
L 112.221868 55.430326 
L 113.930576 54.241218 
L 115.639284 51.193766 
L 117.347992 52.022484 
L 119.0567 56.239743 
L 120.765408 59.158717 
L 122.474116 59.130254 
L 124.182824 62.437014 
L 125.891533 60.455431 
L 127.600241 57.145392 
L 129.308949 55.52222 
L 131.017657 53.705282 
L 132.726365 55.563951 
L 134.435073 51.574794 
L 136.143781 46.022822 
L 137.85249 41.789142 
L 139.561198 41.467454 
L 141.269906 42.683581 
L 142.978614 39.600856 
L 144.687322 32.424005 
L 146.39603 22.660277 
L 148.104738 21.824319 
L 149.813446 22.38852 
L 151.522155 23.309555 
L 153.230863 22.964774 
L 154.939571 17.679909 
L 156.648279 16.723374 
L 158.356987 16.137262 
L 160.065695 25.394823 
L 161.774403 31.539522 
L 163.483112 33.263676 
L 165.19182 32.063722 
L 166.900528 35.047577 
L 168.609236 35.995369 
L 170.317944 36.560071 
L 172.026652 35.90974 
L 173.73536 36.629576 
L 175.444068 40.381297 
L 177.152777 40.492866 
L 178.861485 41.647746 
L 180.570193 42.525608 
L 182.278901 45.114835 
L 183.987609 44.988969 
L 185.696317 43.370967 
L 187.405025 41.400623 
L 189.113734 42.628629 
L 190.822442 43.174416 
L 192.53115 42.263951 
L 194.239858 43.370757 
L 195.948566 44.329675 
L 197.657274 47.400059 
L 199.365982 50.716387 
L 201.07469 55.90841 
L 206.200815 64.512527 
L 207.909523 66.210637 
L 209.618231 69.167625 
L 211.326939 60.937475 
L 213.035647 74.710588 
L 214.744356 74.452503 
L 216.453064 73.435773 
L 218.161772 69.042229 
L 219.87048 65.56554 
L 221.579188 62.497772 
L 223.287896 59.980333 
L 224.996604 60.05388 
L 226.705313 59.394111 
L 228.414021 57.33023 
L 230.122729 54.092278 
L 231.831437 51.342536 
L 235.248853 46.838402 
L 236.957561 42.407365 
L 238.666269 40.343048 
L 240.374978 37.879811 
L 242.083686 36.015412 
L 243.792394 34.681329 
L 245.501102 25.635384 
L 247.20981 19.512537 
L 248.918518 20.287467 
L 250.627226 18.501465 
L 252.335935 21.041568 
L 254.044643 30.080636 
L 255.753351 34.285543 
L 257.462059 34.423982 
L 259.170767 33.903312 
L 262.588183 25.827802 
L 264.296891 21.09904 
L 266.0056 16.740812 
L 267.714308 11.903036 
L 269.423016 13.256932 
L 271.131724 16.768045 
L 272.840432 17.23206 
L 274.54914 17.896269 
L 276.257848 18.421867 
L 277.966557 21.831965 
L 279.675265 21.365778 
L 281.383973 19.953576 
L 283.092681 19.397464 
L 284.801389 18.509409 
L 286.510097 18.823114 
L 288.218805 17.977693 
L 289.927513 16.610442 
L 291.636222 18.055462 
L 293.34493 19.07032 
L 295.053638 19.132533 
L 296.762346 16.367277 
L 298.471054 13.879177 
L 300.179762 10.197094 
L 301.88847 8.5877 
L 303.597179 7.710186 
L 305.305887 8.131702 
L 307.014595 8.92149 
L 308.723303 9.427838 
L 310.432011 10.878047 
L 312.140719 11.287647 
L 313.849427 10.611787 
L 315.558135 8.72014 
L 317.266844 10.050751 
L 320.68426 25.360538 
L 322.392968 31.528186 
L 324.101676 34.699878 
L 325.810384 37.55915 
L 327.519092 39.402258 
L 329.227801 43.622544 
L 330.936509 46.63861 
L 332.645217 50.680857 
L 334.353925 54.344585 
L 336.062633 8.924699 
L 337.771341 16.860393 
L 339.480049 18.118553 
L 341.188757 21.23051 
L 342.897466 21.503965 
L 344.606174 20.499571 
L 346.314882 21.707599 
L 348.02359 19.39029 
L 349.732298 16.606829 
L 353.149714 9.619301 
L 354.858423 5.492682 
L 356.567131 3.562551 
L 358.275839 3.557647 
L 359.984547 4.426931 
L 361.693255 4.827992 
L 363.401963 5.571037 
L 365.110671 6.100198 
L 366.819379 8.077253 
L 370.236796 15.498882 
L 371.945504 18.837695 
L 373.654212 19.549637 
L 375.36292 17.719555 
L 377.071628 17.313002 
L 378.780336 17.478351 
L 380.489045 15.525902 
L 382.197753 14.737713 
L 383.906461 13.822038 
L 385.615169 13.493142 
L 389.032585 13.744645 
L 389.032585 13.744645 
" clip-path="url(#p409e43a20a)" style="fill: none; stroke: #ff0000; stroke-width: 1.5; stroke-linecap: square"/>
   </g>
   <g id="patch_3">
    <path d="M 48.145313 78.268235 
L 48.145313 -0 
" style="fill: none; stroke: #000000; stroke-width: 0.8; stroke-linejoin: miter; stroke-linecap: square"/>
   </g>
   <g id="patch_4">
    <path d="M 405.265313 78.268235 
L 405.265313 -0 
" style="fill: none; stroke: #000000; stroke-width: 0.8; stroke-linejoin: miter; stroke-linecap: square"/>
   </g>
   <g id="patch_5">
    <path d="M 48.145313 78.268235 
L 405.265313 78.268235 
" style="fill: none; stroke: #000000; stroke-width: 0.8; stroke-linejoin: miter; stroke-linecap: square"/>
   </g>
   <g id="patch_6">
    <path d="M 48.145313 -0 
L 405.265313 -0 
" style="fill: none; stroke: #000000; stroke-width: 0.8; stroke-linejoin: miter; stroke-linecap: square"/>
   </g>
   <g id="legend_1">
    <g id="patch_7">
     <path d="M 301.262188 55.451305 
L 398.265313 55.451305 
Q 400.265313 55.451305 400.265313 53.451305 
L 400.265313 24.81693 
Q 400.265313 22.81693 398.265313 22.81693 
L 301.262188 22.81693 
Q 299.262188 22.81693 299.262188 24.81693 
L 299.262188 53.451305 
Q 299.262188 55.451305 301.262188 55.451305 
z
" style="fill: #ffffff; opacity: 0.8; stroke: #cccccc; stroke-linejoin: miter"/>
    </g>
    <g id="line2d_14">
     <path d="M 303.262188 30.915368 
L 313.262188 30.915368 
L 323.262188 30.915368 
" style="fill: none; stroke: #008000; stroke-width: 1.5; stroke-linecap: square"/>
    </g>
    <g id="text_14">
     <!-- ground_truth -->
     <g transform="translate(331.262188 34.415368)scale(0.1 -0.1)">
      <defs>
       <path id="DejaVuSans-6f" d="M 1959 3097 
Q 1497 3097 1228 2736 
Q 959 2375 959 1747 
Q 959 1119 1226 758 
Q 1494 397 1959 397 
Q 2419 397 2687 759 
Q 2956 1122 2956 1747 
Q 2956 2369 2687 2733 
Q 2419 3097 1959 3097 
z
M 1959 3584 
Q 2709 3584 3137 3096 
Q 3566 2609 3566 1747 
Q 3566 888 3137 398 
Q 2709 -91 1959 -91 
Q 1206 -91 779 398 
Q 353 888 353 1747 
Q 353 2609 779 3096 
Q 1206 3584 1959 3584 
z
" transform="scale(0.015625)"/>
       <path id="DejaVuSans-5f" d="M 3263 -1063 
L 3263 -1509 
L -63 -1509 
L -63 -1063 
L 3263 -1063 
z
" transform="scale(0.015625)"/>
       <path id="DejaVuSans-74" d="M 1172 4494 
L 1172 3500 
L 2356 3500 
L 2356 3053 
L 1172 3053 
L 1172 1153 
Q 1172 725 1289 603 
Q 1406 481 1766 481 
L 2356 481 
L 2356 0 
L 1766 0 
Q 1100 0 847 248 
Q 594 497 594 1153 
L 594 3053 
L 172 3053 
L 172 3500 
L 594 3500 
L 594 4494 
L 1172 4494 
z
" transform="scale(0.015625)"/>
       <path id="DejaVuSans-68" d="M 3513 2113 
L 3513 0 
L 2938 0 
L 2938 2094 
Q 2938 2591 2744 2837 
Q 2550 3084 2163 3084 
Q 1697 3084 1428 2787 
Q 1159 2491 1159 1978 
L 1159 0 
L 581 0 
L 581 4863 
L 1159 4863 
L 1159 2956 
Q 1366 3272 1645 3428 
Q 1925 3584 2291 3584 
Q 2894 3584 3203 3211 
Q 3513 2838 3513 2113 
z
" transform="scale(0.015625)"/>
      </defs>
      <use xlink:href="#DejaVuSans-67"/>
      <use xlink:href="#DejaVuSans-72" x="63.476562"/>
      <use xlink:href="#DejaVuSans-6f" x="102.339844"/>
      <use xlink:href="#DejaVuSans-75" x="163.521484"/>
      <use xlink:href="#DejaVuSans-6e" x="226.900391"/>
      <use xlink:href="#DejaVuSans-64" x="290.279297"/>
      <use xlink:href="#DejaVuSans-5f" x="353.755859"/>
      <use xlink:href="#DejaVuSans-74" x="403.755859"/>
      <use xlink:href="#DejaVuSans-72" x="442.964844"/>
      <use xlink:href="#DejaVuSans-75" x="484.078125"/>
      <use xlink:href="#DejaVuSans-74" x="547.457031"/>
      <use xlink:href="#DejaVuSans-68" x="586.666016"/>
     </g>
    </g>
    <g id="line2d_15">
     <path d="M 303.262188 45.871618 
L 313.262188 45.871618 
L 323.262188 45.871618 
" style="fill: none; stroke: #ff0000; stroke-width: 1.5; stroke-linecap: square"/>
    </g>
    <g id="text_15">
     <!-- estimated -->
     <g transform="translate(331.262188 49.371618)scale(0.1 -0.1)">
      <defs>
       <path id="DejaVuSans-69" d="M 603 3500 
L 1178 3500 
L 1178 0 
L 603 0 
L 603 3500 
z
M 603 4863 
L 1178 4863 
L 1178 4134 
L 603 4134 
L 603 4863 
z
" transform="scale(0.015625)"/>
      </defs>
      <use xlink:href="#DejaVuSans-65"/>
      <use xlink:href="#DejaVuSans-73" x="61.523438"/>
      <use xlink:href="#DejaVuSans-74" x="113.623047"/>
      <use xlink:href="#DejaVuSans-69" x="152.832031"/>
      <use xlink:href="#DejaVuSans-6d" x="180.615234"/>
      <use xlink:href="#DejaVuSans-61" x="278.027344"/>
      <use xlink:href="#DejaVuSans-74" x="339.306641"/>
      <use xlink:href="#DejaVuSans-65" x="378.515625"/>
      <use xlink:href="#DejaVuSans-64" x="440.039062"/>
     </g>
    </g>
   </g>
  </g>
  <g id="axes_2">
   <g id="patch_8">
    <path d="M 48.145313 172.190118 
L 405.265313 172.190118 
L 405.265313 93.921882 
L 48.145313 93.921882 
z
" style="fill: #ffffff"/>
   </g>
   <g id="matplotlib.axis_3">
    <g id="xtick_10">
     <g id="line2d_16">
      <g>
       <use xlink:href="#md3779c7431" x="64.37804" y="172.190118" style="stroke: #000000; stroke-width: 0.8"/>
      </g>
     </g>
     <g id="text_16">
      <!-- 0 -->
      <g transform="translate(61.19679 186.788555)scale(0.1 -0.1)">
       <use xlink:href="#DejaVuSans-30"/>
      </g>
     </g>
    </g>
    <g id="xtick_11">
     <g id="line2d_17">
      <g>
       <use xlink:href="#md3779c7431" x="106.87209" y="172.190118" style="stroke: #000000; stroke-width: 0.8"/>
      </g>
     </g>
     <g id="text_17">
      <!-- 25 -->
      <g transform="translate(100.50959 186.788555)scale(0.1 -0.1)">
       <use xlink:href="#DejaVuSans-32"/>
       <use xlink:href="#DejaVuSans-35" x="63.623047"/>
      </g>
     </g>
    </g>
    <g id="xtick_12">
     <g id="line2d_18">
      <g>
       <use xlink:href="#md3779c7431" x="149.366141" y="172.190118" style="stroke: #000000; stroke-width: 0.8"/>
      </g>
     </g>
     <g id="text_18">
      <!-- 50 -->
      <g transform="translate(143.003641 186.788555)scale(0.1 -0.1)">
       <use xlink:href="#DejaVuSans-35"/>
       <use xlink:href="#DejaVuSans-30" x="63.623047"/>
      </g>
     </g>
    </g>
    <g id="xtick_13">
     <g id="line2d_19">
      <g>
       <use xlink:href="#md3779c7431" x="191.860191" y="172.190118" style="stroke: #000000; stroke-width: 0.8"/>
      </g>
     </g>
     <g id="text_19">
      <!-- 75 -->
      <g transform="translate(185.497691 186.788555)scale(0.1 -0.1)">
       <use xlink:href="#DejaVuSans-37"/>
       <use xlink:href="#DejaVuSans-35" x="63.623047"/>
      </g>
     </g>
    </g>
    <g id="xtick_14">
     <g id="line2d_20">
      <g>
       <use xlink:href="#md3779c7431" x="234.354242" y="172.190118" style="stroke: #000000; stroke-width: 0.8"/>
      </g>
     </g>
     <g id="text_20">
      <!-- 100 -->
      <g transform="translate(224.810492 186.788555)scale(0.1 -0.1)">
       <use xlink:href="#DejaVuSans-31"/>
       <use xlink:href="#DejaVuSans-30" x="63.623047"/>
       <use xlink:href="#DejaVuSans-30" x="127.246094"/>
      </g>
     </g>
    </g>
    <g id="xtick_15">
     <g id="line2d_21">
      <g>
       <use xlink:href="#md3779c7431" x="276.848292" y="172.190118" style="stroke: #000000; stroke-width: 0.8"/>
      </g>
     </g>
     <g id="text_21">
      <!-- 125 -->
      <g transform="translate(267.304542 186.788555)scale(0.1 -0.1)">
       <use xlink:href="#DejaVuSans-31"/>
       <use xlink:href="#DejaVuSans-32" x="63.623047"/>
       <use xlink:href="#DejaVuSans-35" x="127.246094"/>
      </g>
     </g>
    </g>
    <g id="xtick_16">
     <g id="line2d_22">
      <g>
       <use xlink:href="#md3779c7431" x="319.342342" y="172.190118" style="stroke: #000000; stroke-width: 0.8"/>
      </g>
     </g>
     <g id="text_22">
      <!-- 150 -->
      <g transform="translate(309.798592 186.788555)scale(0.1 -0.1)">
       <use xlink:href="#DejaVuSans-31"/>
       <use xlink:href="#DejaVuSans-35" x="63.623047"/>
       <use xlink:href="#DejaVuSans-30" x="127.246094"/>
      </g>
     </g>
    </g>
    <g id="xtick_17">
     <g id="line2d_23">
      <g>
       <use xlink:href="#md3779c7431" x="361.836393" y="172.190118" style="stroke: #000000; stroke-width: 0.8"/>
      </g>
     </g>
     <g id="text_23">
      <!-- 175 -->
      <g transform="translate(352.292643 186.788555)scale(0.1 -0.1)">
       <use xlink:href="#DejaVuSans-31"/>
       <use xlink:href="#DejaVuSans-37" x="63.623047"/>
       <use xlink:href="#DejaVuSans-35" x="127.246094"/>
      </g>
     </g>
    </g>
    <g id="xtick_18">
     <g id="line2d_24">
      <g>
       <use xlink:href="#md3779c7431" x="404.330443" y="172.190118" style="stroke: #000000; stroke-width: 0.8"/>
      </g>
     </g>
     <g id="text_24">
      <!-- 200 -->
      <g transform="translate(394.786693 186.788555)scale(0.1 -0.1)">
       <use xlink:href="#DejaVuSans-32"/>
       <use xlink:href="#DejaVuSans-30" x="63.623047"/>
       <use xlink:href="#DejaVuSans-30" x="127.246094"/>
      </g>
     </g>
    </g>
    <g id="text_25">
     <!-- keyframe number -->
     <g transform="translate(182.025625 200.46668)scale(0.1 -0.1)">
      <use xlink:href="#DejaVuSans-6b"/>
      <use xlink:href="#DejaVuSans-65" x="54.285156"/>
      <use xlink:href="#DejaVuSans-79" x="115.808594"/>
      <use xlink:href="#DejaVuSans-66" x="174.988281"/>
      <use xlink:href="#DejaVuSans-72" x="210.193359"/>
      <use xlink:href="#DejaVuSans-61" x="251.306641"/>
      <use xlink:href="#DejaVuSans-6d" x="312.585938"/>
      <use xlink:href="#DejaVuSans-65" x="409.998047"/>
      <use xlink:href="#DejaVuSans-20" x="471.521484"/>
      <use xlink:href="#DejaVuSans-6e" x="503.308594"/>
      <use xlink:href="#DejaVuSans-75" x="566.6875"/>
      <use xlink:href="#DejaVuSans-6d" x="630.066406"/>
      <use xlink:href="#DejaVuSans-62" x="727.478516"/>
      <use xlink:href="#DejaVuSans-65" x="790.955078"/>
      <use xlink:href="#DejaVuSans-72" x="852.478516"/>
     </g>
    </g>
   </g>
   <g id="matplotlib.axis_4">
    <g id="ytick_3">
     <g id="line2d_25">
      <g>
       <use xlink:href="#m65ddea9228" x="48.145313" y="165.096585" style="stroke: #000000; stroke-width: 0.8"/>
      </g>
     </g>
     <g id="text_26">
      <!-- −20 -->
      <g transform="translate(20.040625 168.895803)scale(0.1 -0.1)">
       <use xlink:href="#DejaVuSans-2212"/>
       <use xlink:href="#DejaVuSans-32" x="83.789062"/>
       <use xlink:href="#DejaVuSans-30" x="147.412109"/>
      </g>
     </g>
    </g>
    <g id="ytick_4">
     <g id="line2d_26">
      <g>
       <use xlink:href="#m65ddea9228" x="48.145313" y="136.88829" style="stroke: #000000; stroke-width: 0.8"/>
      </g>
     </g>
     <g id="text_27">
      <!-- 0 -->
      <g transform="translate(34.782813 140.687509)scale(0.1 -0.1)">
       <use xlink:href="#DejaVuSans-30"/>
      </g>
     </g>
    </g>
    <g id="ytick_5">
     <g id="line2d_27">
      <g>
       <use xlink:href="#m65ddea9228" x="48.145313" y="108.679996" style="stroke: #000000; stroke-width: 0.8"/>
      </g>
     </g>
     <g id="text_28">
      <!-- 20 -->
      <g transform="translate(28.420313 112.479215)scale(0.1 -0.1)">
       <use xlink:href="#DejaVuSans-32"/>
       <use xlink:href="#DejaVuSans-30" x="63.623047"/>
      </g>
     </g>
    </g>
    <g id="text_29">
     <!-- pitch [degrees] -->
     <g transform="translate(13.960938 171.113812)rotate(-90)scale(0.1 -0.1)">
      <defs>
       <path id="DejaVuSans-70" d="M 1159 525 
L 1159 -1331 
L 581 -1331 
L 581 3500 
L 1159 3500 
L 1159 2969 
Q 1341 3281 1617 3432 
Q 1894 3584 2278 3584 
Q 2916 3584 3314 3078 
Q 3713 2572 3713 1747 
Q 3713 922 3314 415 
Q 2916 -91 2278 -91 
Q 1894 -91 1617 61 
Q 1341 213 1159 525 
z
M 3116 1747 
Q 3116 2381 2855 2742 
Q 2594 3103 2138 3103 
Q 1681 3103 1420 2742 
Q 1159 2381 1159 1747 
Q 1159 1113 1420 752 
Q 1681 391 2138 391 
Q 2594 391 2855 752 
Q 3116 1113 3116 1747 
z
" transform="scale(0.015625)"/>
       <path id="DejaVuSans-63" d="M 3122 3366 
L 3122 2828 
Q 2878 2963 2633 3030 
Q 2388 3097 2138 3097 
Q 1578 3097 1268 2742 
Q 959 2388 959 1747 
Q 959 1106 1268 751 
Q 1578 397 2138 397 
Q 2388 397 2633 464 
Q 2878 531 3122 666 
L 3122 134 
Q 2881 22 2623 -34 
Q 2366 -91 2075 -91 
Q 1284 -91 818 406 
Q 353 903 353 1747 
Q 353 2603 823 3093 
Q 1294 3584 2113 3584 
Q 2378 3584 2631 3529 
Q 2884 3475 3122 3366 
z
" transform="scale(0.015625)"/>
      </defs>
      <use xlink:href="#DejaVuSans-70"/>
      <use xlink:href="#DejaVuSans-69" x="63.476562"/>
      <use xlink:href="#DejaVuSans-74" x="91.259766"/>
      <use xlink:href="#DejaVuSans-63" x="130.46875"/>
      <use xlink:href="#DejaVuSans-68" x="185.449219"/>
      <use xlink:href="#DejaVuSans-20" x="248.828125"/>
      <use xlink:href="#DejaVuSans-5b" x="280.615234"/>
      <use xlink:href="#DejaVuSans-64" x="319.628906"/>
      <use xlink:href="#DejaVuSans-65" x="383.105469"/>
      <use xlink:href="#DejaVuSans-67" x="444.628906"/>
      <use xlink:href="#DejaVuSans-72" x="508.105469"/>
      <use xlink:href="#DejaVuSans-65" x="546.96875"/>
      <use xlink:href="#DejaVuSans-65" x="608.492188"/>
      <use xlink:href="#DejaVuSans-73" x="670.015625"/>
      <use xlink:href="#DejaVuSans-5d" x="722.115234"/>
     </g>
    </g>
   </g>
   <g id="line2d_28">
    <path d="M 64.37804 138.965007 
L 67.795456 135.688868 
L 69.504164 134.822609 
L 71.212872 134.892974 
L 72.92158 134.620447 
L 74.630289 132.108683 
L 76.338997 132.824615 
L 78.047705 134.092586 
L 79.756413 135.812122 
L 83.173829 141.291703 
L 84.882537 145.188468 
L 86.591246 145.401843 
L 90.008662 138.481037 
L 91.71737 137.270737 
L 93.426078 136.849184 
L 95.134786 137.668001 
L 96.843494 136.818655 
L 98.552202 133.771111 
L 100.260911 131.899444 
L 101.969619 128.028264 
L 103.678327 125.713844 
L 105.387035 128.699072 
L 107.095743 130.334548 
L 108.804451 132.286544 
L 110.513159 135.80046 
L 112.221868 138.241403 
L 113.930576 141.919053 
L 115.639284 145.20331 
L 119.0567 141.416137 
L 120.765408 137.261004 
L 122.474116 137.986722 
L 124.182824 139.226158 
L 125.891533 140.640493 
L 127.600241 142.821778 
L 129.308949 142.987972 
L 131.017657 142.775299 
L 132.726365 143.708699 
L 134.435073 145.990194 
L 136.143781 145.786422 
L 137.85249 146.513869 
L 139.561198 146.795441 
L 141.269906 146.494603 
L 142.978614 144.249696 
L 144.687322 143.193443 
L 146.39603 145.556476 
L 148.104738 145.32035 
L 149.813446 144.802022 
L 151.522155 144.977337 
L 153.230863 143.974056 
L 154.939571 133.971373 
L 156.648279 127.675193 
L 158.356987 124.763651 
L 160.065695 117.866688 
L 161.774403 115.299358 
L 163.483112 118.199231 
L 165.19182 120.237721 
L 166.900528 119.066575 
L 168.609236 117.520768 
L 170.317944 112.089274 
L 172.026652 113.937666 
L 177.152777 122.714679 
L 178.861485 125.124008 
L 180.570193 128.290224 
L 182.278901 130.863297 
L 183.987609 131.272473 
L 185.696317 132.083631 
L 187.405025 133.784271 
L 189.113734 135.645057 
L 190.822442 135.848573 
L 192.53115 138.405721 
L 194.239858 137.841805 
L 195.948566 137.675214 
L 197.657274 135.729325 
L 199.365982 135.741077 
L 201.07469 131.841103 
L 202.783399 132.603534 
L 204.492107 134.993753 
L 206.200815 137.035709 
L 207.909523 137.529031 
L 209.618231 139.066259 
L 211.326939 139.975444 
L 213.035647 139.723123 
L 214.744356 139.685838 
L 216.453064 138.439331 
L 218.161772 138.710853 
L 219.87048 139.294158 
L 221.579188 138.940794 
L 223.287896 137.64355 
L 224.996604 138.400705 
L 226.705313 137.521824 
L 228.414021 137.641236 
L 230.122729 140.261607 
L 231.831437 142.064163 
L 233.540145 142.916362 
L 235.248853 144.685997 
L 236.957561 141.748334 
L 238.666269 138.030737 
L 240.374978 138.847465 
L 242.083686 140.625278 
L 243.792394 145.590553 
L 245.501102 152.726596 
L 247.20981 156.177013 
L 248.918518 159.110523 
L 250.627226 165.451949 
L 252.335935 168.632471 
L 254.044643 166.934918 
L 255.753351 159.164361 
L 257.462059 149.302462 
L 259.170767 142.330879 
L 262.588183 131.623226 
L 264.296891 127.665874 
L 266.0056 127.126601 
L 267.714308 128.688701 
L 269.423016 127.531405 
L 271.131724 125.350586 
L 272.840432 130.452274 
L 274.54914 132.641046 
L 276.257848 132.427412 
L 277.966557 133.646657 
L 279.675265 136.253009 
L 281.383973 137.565443 
L 283.092681 134.621046 
L 284.801389 133.963965 
L 286.510097 135.934754 
L 289.927513 137.463996 
L 291.636222 136.63883 
L 293.34493 136.369359 
L 295.053638 135.52924 
L 296.762346 135.200507 
L 298.471054 135.526734 
L 300.179762 134.269691 
L 301.88847 134.644813 
L 303.597179 134.637402 
L 305.305887 134.934081 
L 307.014595 134.66709 
L 308.723303 133.927625 
L 310.432011 134.704605 
L 312.140719 136.306379 
L 313.849427 136.115131 
L 315.558135 137.660128 
L 317.266844 138.689866 
L 318.975552 138.907043 
L 322.392968 144.413283 
L 324.101676 145.837427 
L 325.810384 150.876118 
L 327.519092 152.88168 
L 329.227801 151.675384 
L 330.936509 152.11151 
L 332.645217 150.788147 
L 334.353925 148.894345 
L 336.062633 147.560798 
L 337.771341 146.952629 
L 339.480049 145.521799 
L 341.188757 144.323045 
L 342.897466 142.971927 
L 344.606174 142.535272 
L 346.314882 141.789085 
L 348.02359 140.765175 
L 349.732298 140.752448 
L 351.441006 139.3579 
L 353.149714 139.508774 
L 354.858423 138.735063 
L 356.567131 138.24208 
L 359.984547 138.904645 
L 361.693255 137.800584 
L 363.401963 138.813945 
L 365.110671 138.958446 
L 366.819379 138.625819 
L 368.528088 138.566852 
L 370.236796 140.286978 
L 371.945504 140.621341 
L 373.654212 140.195676 
L 375.36292 140.33546 
L 377.071628 139.414465 
L 378.780336 139.795851 
L 380.489045 138.680296 
L 382.197753 138.051449 
L 383.906461 138.56094 
L 385.615169 137.630771 
L 387.323877 137.207391 
L 389.032585 137.956856 
L 389.032585 137.956856 
" clip-path="url(#p4aff47637b)" style="fill: none; stroke: #008000; stroke-width: 1.5; stroke-linecap: square"/>
   </g>
   <g id="line2d_29">
    <path d="M 64.37804 138.964994 
L 67.795456 135.787472 
L 69.504164 135.464245 
L 71.212872 136.33195 
L 72.92158 136.401805 
L 74.630289 133.879039 
L 76.338997 134.780231 
L 78.047705 135.552571 
L 79.756413 137.218783 
L 83.173829 142.389417 
L 84.882537 146.565002 
L 86.591246 147.264365 
L 90.008662 139.737128 
L 91.71737 138.786645 
L 93.426078 138.217767 
L 95.134786 139.359979 
L 96.843494 138.340933 
L 98.552202 135.461183 
L 100.260911 133.604179 
L 101.969619 129.951947 
L 103.678327 126.609582 
L 105.387035 129.433548 
L 108.804451 132.816206 
L 110.513159 136.224195 
L 112.221868 138.252439 
L 115.639284 145.146103 
L 117.347992 143.862491 
L 119.0567 143.072186 
L 120.765408 137.617297 
L 122.474116 138.68843 
L 124.182824 139.51942 
L 125.891533 140.932913 
L 127.600241 143.553102 
L 129.308949 143.273772 
L 131.017657 143.191395 
L 132.726365 143.644452 
L 134.435073 145.52058 
L 139.561198 147.080246 
L 141.269906 147.053383 
L 142.978614 144.755414 
L 144.687322 143.284921 
L 146.39603 146.443327 
L 148.104738 147.606765 
L 149.813446 147.115106 
L 151.522155 147.208162 
L 153.230863 146.691449 
L 154.939571 136.691164 
L 156.648279 129.568768 
L 158.356987 125.184393 
L 160.065695 116.775253 
L 161.774403 114.431612 
L 163.483112 116.97843 
L 165.19182 119.975001 
L 166.900528 118.36628 
L 168.609236 116.960464 
L 170.317944 111.036326 
L 172.026652 112.303846 
L 173.73536 114.717477 
L 175.444068 117.644462 
L 177.152777 120.857156 
L 178.861485 123.264517 
L 180.570193 126.227756 
L 182.278901 129.448073 
L 183.987609 129.757021 
L 185.696317 130.797647 
L 187.405025 132.216295 
L 189.113734 134.515645 
L 190.822442 134.862499 
L 192.53115 137.135385 
L 194.239858 136.942255 
L 195.948566 136.528203 
L 197.657274 134.503448 
L 199.365982 134.283738 
L 201.07469 129.337828 
L 202.783399 130.07047 
L 204.492107 132.767257 
L 206.200815 134.623177 
L 207.909523 135.546983 
L 209.618231 137.190165 
L 211.326939 139.643459 
L 213.035647 129.284346 
L 214.744356 129.027174 
L 216.453064 127.760196 
L 218.161772 127.594232 
L 219.87048 128.351622 
L 221.579188 128.372931 
L 223.287896 126.620473 
L 224.996604 126.721233 
L 226.705313 126.279466 
L 228.414021 126.164325 
L 231.831437 131.651539 
L 233.540145 132.326482 
L 235.248853 134.914367 
L 236.957561 132.868071 
L 238.666269 128.445087 
L 240.374978 128.382172 
L 242.083686 130.487733 
L 243.792394 134.218313 
L 245.501102 142.819096 
L 247.20981 147.123705 
L 248.918518 150.494442 
L 250.627226 157.494109 
L 252.335935 160.716094 
L 254.044643 160.134168 
L 255.753351 153.67891 
L 257.462059 144.034498 
L 259.170767 136.624461 
L 260.879475 131.231103 
L 262.588183 125.41287 
L 264.296891 121.146833 
L 266.0056 119.535057 
L 267.714308 121.618413 
L 269.423016 121.113589 
L 271.131724 119.140968 
L 272.840432 123.233591 
L 274.54914 126.496354 
L 276.257848 125.954628 
L 277.966557 127.417694 
L 279.675265 130.459134 
L 281.383973 132.565384 
L 283.092681 130.567431 
L 284.801389 129.889201 
L 286.510097 131.850355 
L 288.218805 133.388257 
L 289.927513 134.597019 
L 291.636222 134.38763 
L 293.34493 134.6527 
L 295.053638 134.156936 
L 296.762346 134.04874 
L 298.471054 134.857723 
L 300.179762 134.06432 
L 301.88847 134.695637 
L 303.597179 135.151973 
L 305.305887 135.825971 
L 307.014595 135.129422 
L 308.723303 134.293432 
L 310.432011 134.599758 
L 312.140719 136.903551 
L 313.849427 136.708077 
L 315.558135 138.329281 
L 317.266844 139.397716 
L 318.975552 139.950896 
L 320.68426 142.1863 
L 322.392968 145.480676 
L 324.101676 146.760101 
L 325.810384 151.047814 
L 327.519092 154.032442 
L 329.227801 152.747316 
L 330.936509 153.117966 
L 332.645217 152.565165 
L 334.353925 150.725071 
L 336.062633 135.849886 
L 337.771341 137.417438 
L 339.480049 135.453347 
L 341.188757 132.752557 
L 342.897466 130.378486 
L 344.606174 129.026678 
L 346.314882 127.15228 
L 349.732298 122.842506 
L 351.441006 120.354489 
L 353.149714 119.473631 
L 356.567131 115.056144 
L 359.984547 112.11315 
L 361.693255 109.783702 
L 363.401963 109.188316 
L 365.110671 107.756927 
L 366.819379 105.142946 
L 368.528088 102.845248 
L 370.236796 102.760089 
L 371.945504 101.899047 
L 373.654212 100.685333 
L 375.36292 100.329933 
L 377.071628 99.493083 
L 378.780336 99.785343 
L 380.489045 98.71641 
L 382.197753 98.208155 
L 383.906461 98.807674 
L 385.615169 97.893998 
L 387.323877 97.479529 
L 389.032585 98.271187 
L 389.032585 98.271187 
" clip-path="url(#p4aff47637b)" style="fill: none; stroke: #ff0000; stroke-width: 1.5; stroke-linecap: square"/>
   </g>
   <g id="patch_9">
    <path d="M 48.145313 172.190118 
L 48.145313 93.921882 
" style="fill: none; stroke: #000000; stroke-width: 0.8; stroke-linejoin: miter; stroke-linecap: square"/>
   </g>
   <g id="patch_10">
    <path d="M 405.265313 172.190118 
L 405.265313 93.921882 
" style="fill: none; stroke: #000000; stroke-width: 0.8; stroke-linejoin: miter; stroke-linecap: square"/>
   </g>
   <g id="patch_11">
    <path d="M 48.145313 172.190118 
L 405.265313 172.190118 
" style="fill: none; stroke: #000000; stroke-width: 0.8; stroke-linejoin: miter; stroke-linecap: square"/>
   </g>
   <g id="patch_12">
    <path d="M 48.145313 93.921882 
L 405.265313 93.921882 
" style="fill: none; stroke: #000000; stroke-width: 0.8; stroke-linejoin: miter; stroke-linecap: square"/>
   </g>
  </g>
  <g id="axes_3">
   <g id="patch_13">
    <path d="M 48.145313 266.112 
L 405.265313 266.112 
L 405.265313 187.843765 
L 48.145313 187.843765 
z
" style="fill: #ffffff"/>
   </g>
   <g id="matplotlib.axis_5">
    <g id="xtick_19">
     <g id="line2d_30">
      <g>
       <use xlink:href="#md3779c7431" x="64.37804" y="266.112" style="stroke: #000000; stroke-width: 0.8"/>
      </g>
     </g>
     <g id="text_30">
      <!-- 0 -->
      <g transform="translate(61.19679 280.710437)scale(0.1 -0.1)">
       <use xlink:href="#DejaVuSans-30"/>
      </g>
     </g>
    </g>
    <g id="xtick_20">
     <g id="line2d_31">
      <g>
       <use xlink:href="#md3779c7431" x="106.87209" y="266.112" style="stroke: #000000; stroke-width: 0.8"/>
      </g>
     </g>
     <g id="text_31">
      <!-- 25 -->
      <g transform="translate(100.50959 280.710437)scale(0.1 -0.1)">
       <use xlink:href="#DejaVuSans-32"/>
       <use xlink:href="#DejaVuSans-35" x="63.623047"/>
      </g>
     </g>
    </g>
    <g id="xtick_21">
     <g id="line2d_32">
      <g>
       <use xlink:href="#md3779c7431" x="149.366141" y="266.112" style="stroke: #000000; stroke-width: 0.8"/>
      </g>
     </g>
     <g id="text_32">
      <!-- 50 -->
      <g transform="translate(143.003641 280.710437)scale(0.1 -0.1)">
       <use xlink:href="#DejaVuSans-35"/>
       <use xlink:href="#DejaVuSans-30" x="63.623047"/>
      </g>
     </g>
    </g>
    <g id="xtick_22">
     <g id="line2d_33">
      <g>
       <use xlink:href="#md3779c7431" x="191.860191" y="266.112" style="stroke: #000000; stroke-width: 0.8"/>
      </g>
     </g>
     <g id="text_33">
      <!-- 75 -->
      <g transform="translate(185.497691 280.710437)scale(0.1 -0.1)">
       <use xlink:href="#DejaVuSans-37"/>
       <use xlink:href="#DejaVuSans-35" x="63.623047"/>
      </g>
     </g>
    </g>
    <g id="xtick_23">
     <g id="line2d_34">
      <g>
       <use xlink:href="#md3779c7431" x="234.354242" y="266.112" style="stroke: #000000; stroke-width: 0.8"/>
      </g>
     </g>
     <g id="text_34">
      <!-- 100 -->
      <g transform="translate(224.810492 280.710437)scale(0.1 -0.1)">
       <use xlink:href="#DejaVuSans-31"/>
       <use xlink:href="#DejaVuSans-30" x="63.623047"/>
       <use xlink:href="#DejaVuSans-30" x="127.246094"/>
      </g>
     </g>
    </g>
    <g id="xtick_24">
     <g id="line2d_35">
      <g>
       <use xlink:href="#md3779c7431" x="276.848292" y="266.112" style="stroke: #000000; stroke-width: 0.8"/>
      </g>
     </g>
     <g id="text_35">
      <!-- 125 -->
      <g transform="translate(267.304542 280.710437)scale(0.1 -0.1)">
       <use xlink:href="#DejaVuSans-31"/>
       <use xlink:href="#DejaVuSans-32" x="63.623047"/>
       <use xlink:href="#DejaVuSans-35" x="127.246094"/>
      </g>
     </g>
    </g>
    <g id="xtick_25">
     <g id="line2d_36">
      <g>
       <use xlink:href="#md3779c7431" x="319.342342" y="266.112" style="stroke: #000000; stroke-width: 0.8"/>
      </g>
     </g>
     <g id="text_36">
      <!-- 150 -->
      <g transform="translate(309.798592 280.710437)scale(0.1 -0.1)">
       <use xlink:href="#DejaVuSans-31"/>
       <use xlink:href="#DejaVuSans-35" x="63.623047"/>
       <use xlink:href="#DejaVuSans-30" x="127.246094"/>
      </g>
     </g>
    </g>
    <g id="xtick_26">
     <g id="line2d_37">
      <g>
       <use xlink:href="#md3779c7431" x="361.836393" y="266.112" style="stroke: #000000; stroke-width: 0.8"/>
      </g>
     </g>
     <g id="text_37">
      <!-- 175 -->
      <g transform="translate(352.292643 280.710437)scale(0.1 -0.1)">
       <use xlink:href="#DejaVuSans-31"/>
       <use xlink:href="#DejaVuSans-37" x="63.623047"/>
       <use xlink:href="#DejaVuSans-35" x="127.246094"/>
      </g>
     </g>
    </g>
    <g id="xtick_27">
     <g id="line2d_38">
      <g>
       <use xlink:href="#md3779c7431" x="404.330443" y="266.112" style="stroke: #000000; stroke-width: 0.8"/>
      </g>
     </g>
     <g id="text_38">
      <!-- 200 -->
      <g transform="translate(394.786693 280.710437)scale(0.1 -0.1)">
       <use xlink:href="#DejaVuSans-32"/>
       <use xlink:href="#DejaVuSans-30" x="63.623047"/>
       <use xlink:href="#DejaVuSans-30" x="127.246094"/>
      </g>
     </g>
    </g>
    <g id="text_39">
     <!-- keyframe number -->
     <g transform="translate(182.025625 294.388562)scale(0.1 -0.1)">
      <use xlink:href="#DejaVuSans-6b"/>
      <use xlink:href="#DejaVuSans-65" x="54.285156"/>
      <use xlink:href="#DejaVuSans-79" x="115.808594"/>
      <use xlink:href="#DejaVuSans-66" x="174.988281"/>
      <use xlink:href="#DejaVuSans-72" x="210.193359"/>
      <use xlink:href="#DejaVuSans-61" x="251.306641"/>
      <use xlink:href="#DejaVuSans-6d" x="312.585938"/>
      <use xlink:href="#DejaVuSans-65" x="409.998047"/>
      <use xlink:href="#DejaVuSans-20" x="471.521484"/>
      <use xlink:href="#DejaVuSans-6e" x="503.308594"/>
      <use xlink:href="#DejaVuSans-75" x="566.6875"/>
      <use xlink:href="#DejaVuSans-6d" x="630.066406"/>
      <use xlink:href="#DejaVuSans-62" x="727.478516"/>
      <use xlink:href="#DejaVuSans-65" x="790.955078"/>
      <use xlink:href="#DejaVuSans-72" x="852.478516"/>
     </g>
    </g>
   </g>
   <g id="matplotlib.axis_6">
    <g id="ytick_6">
     <g id="line2d_39">
      <g>
       <use xlink:href="#m65ddea9228" x="48.145313" y="253.557443" style="stroke: #000000; stroke-width: 0.8"/>
      </g>
     </g>
     <g id="text_40">
      <!-- −50 -->
      <g transform="translate(20.040625 257.356662)scale(0.1 -0.1)">
       <use xlink:href="#DejaVuSans-2212"/>
       <use xlink:href="#DejaVuSans-35" x="83.789062"/>
       <use xlink:href="#DejaVuSans-30" x="147.412109"/>
      </g>
     </g>
    </g>
    <g id="ytick_7">
     <g id="line2d_40">
      <g>
       <use xlink:href="#m65ddea9228" x="48.145313" y="229.928257" style="stroke: #000000; stroke-width: 0.8"/>
      </g>
     </g>
     <g id="text_41">
      <!-- 0 -->
      <g transform="translate(34.782813 233.727476)scale(0.1 -0.1)">
       <use xlink:href="#DejaVuSans-30"/>
      </g>
     </g>
    </g>
    <g id="ytick_8">
     <g id="line2d_41">
      <g>
       <use xlink:href="#m65ddea9228" x="48.145313" y="206.299071" style="stroke: #000000; stroke-width: 0.8"/>
      </g>
     </g>
     <g id="text_42">
      <!-- 50 -->
      <g transform="translate(28.420313 210.09829)scale(0.1 -0.1)">
       <use xlink:href="#DejaVuSans-35"/>
       <use xlink:href="#DejaVuSans-30" x="63.623047"/>
      </g>
     </g>
    </g>
    <g id="text_43">
     <!-- roll [degrees] -->
     <g transform="translate(13.960938 260.374757)rotate(-90)scale(0.1 -0.1)">
      <defs>
       <path id="DejaVuSans-6c" d="M 603 4863 
L 1178 4863 
L 1178 0 
L 603 0 
L 603 4863 
z
" transform="scale(0.015625)"/>
      </defs>
      <use xlink:href="#DejaVuSans-72"/>
      <use xlink:href="#DejaVuSans-6f" x="38.863281"/>
      <use xlink:href="#DejaVuSans-6c" x="100.044922"/>
      <use xlink:href="#DejaVuSans-6c" x="127.828125"/>
      <use xlink:href="#DejaVuSans-20" x="155.611328"/>
      <use xlink:href="#DejaVuSans-5b" x="187.398438"/>
      <use xlink:href="#DejaVuSans-64" x="226.412109"/>
      <use xlink:href="#DejaVuSans-65" x="289.888672"/>
      <use xlink:href="#DejaVuSans-67" x="351.412109"/>
      <use xlink:href="#DejaVuSans-72" x="414.888672"/>
      <use xlink:href="#DejaVuSans-65" x="453.751953"/>
      <use xlink:href="#DejaVuSans-65" x="515.275391"/>
      <use xlink:href="#DejaVuSans-73" x="576.798828"/>
      <use xlink:href="#DejaVuSans-5d" x="628.898438"/>
     </g>
    </g>
   </g>
   <g id="line2d_42">
    <path d="M 64.37804 216.110212 
L 66.086748 217.800764 
L 67.795456 219.10699 
L 69.504164 219.096147 
L 71.212872 217.589099 
L 72.92158 215.610364 
L 74.630289 212.833399 
L 76.338997 210.308315 
L 78.047705 207.26143 
L 79.756413 203.860452 
L 84.882537 196.088118 
L 86.591246 193.012584 
L 88.299954 191.401412 
L 90.008662 192.298009 
L 91.71737 193.837364 
L 95.134786 195.506768 
L 96.843494 196.797291 
L 98.552202 198.338555 
L 101.969619 202.088703 
L 103.678327 203.60668 
L 105.387035 203.918838 
L 108.804451 204.800927 
L 110.513159 204.986659 
L 112.221868 205.545322 
L 113.930576 207.701615 
L 115.639284 210.521898 
L 117.347992 212.030299 
L 119.0567 213.962807 
L 122.474116 216.32576 
L 124.182824 218.180309 
L 127.600241 223.484074 
L 129.308949 224.716627 
L 131.017657 225.478261 
L 132.726365 225.732415 
L 134.435073 226.780014 
L 137.85249 228.601469 
L 139.561198 229.168162 
L 141.269906 228.88839 
L 142.978614 228.898893 
L 144.687322 230.326517 
L 146.39603 231.117379 
L 148.104738 229.724114 
L 149.813446 226.727063 
L 151.522155 226.755066 
L 153.230863 227.45963 
L 154.939571 225.115821 
L 156.648279 225.096277 
L 158.356987 231.54659 
L 160.065695 242.062851 
L 161.774403 244.692307 
L 163.483112 246.458833 
L 165.19182 246.585484 
L 168.609236 247.340851 
L 170.317944 247.469076 
L 172.026652 249.109476 
L 173.73536 251.894309 
L 175.444068 254.421087 
L 177.152777 255.735374 
L 178.861485 256.381943 
L 180.570193 256.71938 
L 182.278901 257.288997 
L 183.987609 257.3237 
L 185.696317 257.095323 
L 187.405025 256.744663 
L 190.822442 256.838255 
L 192.53115 257.251991 
L 194.239858 257.936122 
L 195.948566 258.852794 
L 199.365982 261.484978 
L 201.07469 262.421007 
L 202.783399 262.554353 
L 204.492107 261.598459 
L 206.200815 260.105975 
L 209.618231 256.367409 
L 211.326939 254.158619 
L 213.035647 252.329418 
L 214.744356 251.517527 
L 216.453064 250.126147 
L 218.161772 248.370894 
L 219.87048 247.201316 
L 223.287896 245.268234 
L 224.996604 245.192378 
L 226.705313 244.814863 
L 228.414021 244.268129 
L 231.831437 242.074757 
L 233.540145 240.780705 
L 235.248853 239.812243 
L 236.957561 238.286345 
L 238.666269 235.908476 
L 240.374978 234.422236 
L 242.083686 233.254782 
L 243.792394 232.852786 
L 245.501102 232.199601 
L 247.20981 229.420227 
L 248.918518 225.425281 
L 250.627226 223.152505 
L 252.335935 219.357937 
L 254.044643 216.807666 
L 257.462059 215.45634 
L 259.170767 215.041165 
L 260.879475 215.05937 
L 264.296891 214.890091 
L 266.0056 215.52907 
L 267.714308 215.732367 
L 269.423016 215.399347 
L 271.131724 214.178511 
L 272.840432 214.017929 
L 276.257848 213.208315 
L 277.966557 213.001053 
L 281.383973 211.053276 
L 283.092681 209.365653 
L 286.510097 207.304043 
L 293.34493 202.059908 
L 295.053638 201.746761 
L 296.762346 201.027835 
L 298.471054 200.43182 
L 300.179762 199.411554 
L 303.597179 198.087948 
L 305.305887 197.710467 
L 307.014595 197.96295 
L 308.723303 198.074826 
L 310.432011 197.969595 
L 312.140719 197.361431 
L 313.849427 196.468538 
L 315.558135 195.779808 
L 317.266844 196.391142 
L 318.975552 196.433448 
L 320.68426 195.790586 
L 322.392968 196.045287 
L 324.101676 196.080942 
L 325.810384 196.584946 
L 329.227801 196.550327 
L 330.936509 197.129801 
L 332.645217 197.477384 
L 334.353925 197.680375 
L 336.062633 197.748083 
L 337.771341 198.037701 
L 341.188757 198.900791 
L 342.897466 199.07493 
L 344.606174 199.115787 
L 348.02359 200.109625 
L 349.732298 201.009009 
L 353.149714 201.986308 
L 356.567131 203.874844 
L 358.275839 204.804498 
L 359.984547 205.942228 
L 361.693255 206.577849 
L 363.401963 207.390676 
L 365.110671 208.418881 
L 366.819379 209.833542 
L 370.236796 212.118509 
L 371.945504 212.989108 
L 373.654212 213.572314 
L 375.36292 213.949074 
L 377.071628 213.904522 
L 380.489045 214.114861 
L 389.032585 214.035234 
L 389.032585 214.035234 
" clip-path="url(#pfb00ad856d)" style="fill: none; stroke: #008000; stroke-width: 1.5; stroke-linecap: square"/>
   </g>
   <g id="line2d_43">
    <path d="M 64.37804 216.110213 
L 66.086748 217.877011 
L 67.795456 219.375162 
L 69.504164 219.821441 
L 71.212872 218.634009 
L 72.92158 216.90868 
L 76.338997 211.607846 
L 78.047705 208.468652 
L 79.756413 204.798155 
L 84.882537 196.864105 
L 86.591246 193.76536 
L 88.299954 191.686918 
L 90.008662 192.372343 
L 91.71737 193.946727 
L 95.134786 195.686872 
L 96.843494 196.923779 
L 98.552202 198.476691 
L 101.969619 202.251707 
L 103.678327 203.697589 
L 105.387035 203.860493 
L 107.095743 204.38233 
L 110.513159 204.975422 
L 112.221868 205.244996 
L 113.930576 207.35379 
L 115.639284 210.254669 
L 117.347992 211.988046 
L 119.0567 214.159099 
L 120.765408 215.038494 
L 122.474116 216.365935 
L 124.182824 217.92983 
L 127.600241 223.395057 
L 129.308949 224.551598 
L 131.017657 225.409482 
L 132.726365 225.487199 
L 134.435073 226.340111 
L 136.143781 227.468141 
L 139.561198 229.055045 
L 142.978614 228.693397 
L 144.687322 229.86279 
L 146.39603 230.766579 
L 148.104738 229.66893 
L 149.813446 226.398844 
L 151.522155 225.904018 
L 153.230863 227.145611 
L 154.939571 225.0345 
L 156.648279 223.984504 
L 158.356987 230.311673 
L 160.065695 239.999931 
L 161.774403 243.832952 
L 163.483112 245.70065 
L 166.900528 246.200269 
L 168.609236 246.638442 
L 170.317944 246.531046 
L 172.026652 247.751064 
L 173.73536 250.197495 
L 175.444068 253.068564 
L 177.152777 254.561577 
L 178.861485 255.288031 
L 180.570193 255.608323 
L 182.278901 256.345737 
L 183.987609 256.405136 
L 185.696317 256.2183 
L 187.405025 255.710182 
L 190.822442 255.902639 
L 192.53115 256.179745 
L 195.948566 257.719445 
L 199.365982 260.414873 
L 201.07469 261.102271 
L 202.783399 261.396391 
L 204.492107 260.732315 
L 206.200815 259.450258 
L 207.909523 257.439498 
L 209.618231 255.938284 
L 211.326939 253.07965 
L 213.035647 251.199393 
L 214.744356 250.020346 
L 216.453064 249.070906 
L 218.161772 247.070502 
L 219.87048 245.517519 
L 221.579188 244.545201 
L 223.287896 243.409377 
L 226.705313 243.018649 
L 228.414021 242.552801 
L 231.831437 240.636383 
L 233.540145 239.270994 
L 235.248853 238.389451 
L 236.957561 237.141355 
L 238.666269 234.481841 
L 240.374978 232.682529 
L 242.083686 231.572383 
L 243.792394 230.812459 
L 245.501102 230.830534 
L 247.20981 228.72132 
L 248.918518 224.545454 
L 250.627226 222.424324 
L 252.335935 219.360227 
L 254.044643 216.730965 
L 255.753351 215.808074 
L 257.462059 214.545104 
L 259.170767 213.79623 
L 260.879475 213.521994 
L 262.588183 213.00505 
L 264.296891 212.773375 
L 266.0056 212.937454 
L 267.714308 213.459026 
L 269.423016 213.317523 
L 271.131724 212.110794 
L 272.840432 211.653597 
L 274.54914 211.980338 
L 276.257848 211.151876 
L 277.966557 211.131102 
L 279.675265 210.521811 
L 281.383973 209.747396 
L 283.092681 208.158673 
L 284.801389 206.749616 
L 286.510097 205.859354 
L 289.927513 203.422303 
L 293.34493 200.78428 
L 295.053638 200.452547 
L 296.762346 199.682627 
L 298.471054 199.083784 
L 300.179762 198.065588 
L 303.597179 196.743007 
L 305.305887 196.346971 
L 310.432011 196.898393 
L 312.140719 196.498751 
L 313.849427 195.576013 
L 315.558135 194.884034 
L 317.266844 195.39189 
L 318.975552 195.635394 
L 320.68426 194.945628 
L 322.392968 195.663563 
L 324.101676 195.809885 
L 325.810384 196.398057 
L 327.519092 196.846522 
L 329.227801 196.676215 
L 332.645217 197.781238 
L 334.353925 198.171937 
L 336.062633 198.775056 
L 337.771341 200.086751 
L 341.188757 200.528513 
L 342.897466 200.65127 
L 344.606174 200.218161 
L 346.314882 200.25975 
L 348.02359 201.183308 
L 349.732298 202.368492 
L 353.149714 203.052794 
L 358.275839 205.076426 
L 359.984547 206.5645 
L 361.693255 206.771308 
L 363.401963 207.428605 
L 365.110671 208.491795 
L 366.819379 209.841499 
L 368.528088 210.746924 
L 370.236796 212.298322 
L 371.945504 213.408932 
L 375.36292 214.211978 
L 377.071628 213.974577 
L 380.489045 214.035978 
L 382.197753 213.903534 
L 383.906461 213.99583 
L 389.032585 213.898137 
L 389.032585 213.898137 
" clip-path="url(#pfb00ad856d)" style="fill: none; stroke: #ff0000; stroke-width: 1.5; stroke-linecap: square"/>
   </g>
   <g id="patch_14">
    <path d="M 48.145313 266.112 
L 48.145313 187.843765 
" style="fill: none; stroke: #000000; stroke-width: 0.8; stroke-linejoin: miter; stroke-linecap: square"/>
   </g>
   <g id="patch_15">
    <path d="M 405.265313 266.112 
L 405.265313 187.843765 
" style="fill: none; stroke: #000000; stroke-width: 0.8; stroke-linejoin: miter; stroke-linecap: square"/>
   </g>
   <g id="patch_16">
    <path d="M 48.145313 266.112 
L 405.265313 266.112 
" style="fill: none; stroke: #000000; stroke-width: 0.8; stroke-linejoin: miter; stroke-linecap: square"/>
   </g>
   <g id="patch_17">
    <path d="M 48.145313 187.843765 
L 405.265313 187.843765 
" style="fill: none; stroke: #000000; stroke-width: 0.8; stroke-linejoin: miter; stroke-linecap: square"/>
   </g>
  </g>
 </g>
 <defs>
  <clipPath id="p409e43a20a">
   <rect x="48.145313" y="-0" width="357.12" height="78.268235"/>
  </clipPath>
  <clipPath id="p4aff47637b">
   <rect x="48.145313" y="93.921882" width="357.12" height="78.268235"/>
  </clipPath>
  <clipPath id="pfb00ad856d">
   <rect x="48.145313" y="187.843765" width="357.12" height="78.268235"/>
  </clipPath>
 </defs>
</svg>
