<?xml version="1.0" encoding="utf-8" standalone="no"?>
<!DOCTYPE svg PUBLIC "-//W3C//DTD SVG 1.1//EN"
  "http://www.w3.org/Graphics/SVG/1.1/DTD/svg11.dtd">
<svg xmlns:xlink="http://www.w3.org/1999/xlink" width="405.265312pt" height="296.46825pt" viewBox="0 0 405.265312 296.46825" xmlns="http://www.w3.org/2000/svg" version="1.1">
 <metadata>
  <rdf:RDF xmlns:dc="http://purl.org/dc/elements/1.1/" xmlns:cc="http://creativecommons.org/ns#" xmlns:rdf="http://www.w3.org/1999/02/22-rdf-syntax-ns#">
   <cc:Work>
    <dc:type rdf:resource="http://purl.org/dc/dcmitype/StillImage"/>
    <dc:date>2022-02-09T20:50:01.818697</dc:date>
    <dc:format>image/svg+xml</dc:format>
    <dc:creator>
     <cc:Agent>
      <dc:title>Matplotlib v3.5.1, https://matplotlib.org/</dc:title>
     </cc:Agent>
    </dc:creator>
   </cc:Work>
  </rdf:RDF>
 </metadata>
 <defs>
  <style type="text/css">*{stroke-linejoin: round; stroke-linecap: butt}</style>
 </defs>
 <g id="figure_1">
  <g id="patch_1">
   <path d="M 0 296.46825 
L 405.265312 296.46825 
L 405.265312 0 
L 0 0 
z
" style="fill: #ffffff"/>
  </g>
  <g id="axes_1">
   <g id="patch_2">
    <path d="M 48.145313 78.268235 
L 405.265313 78.268235 
L 405.265313 -0 
L 48.145313 -0 
z
" style="fill: #ffffff"/>
   </g>
   <g id="matplotlib.axis_1">
    <g id="xtick_1">
     <g id="line2d_1">
      <defs>
       <path id="m3afc26ad51" d="M 0 0 
L 0 3.5 
" style="stroke: #000000; stroke-width: 0.8"/>
      </defs>
      <g>
       <use xlink:href="#m3afc26ad51" x="64.37804" y="78.268235" style="stroke: #000000; stroke-width: 0.8"/>
      </g>
     </g>
     <g id="text_1">
      <!-- 0 -->
      <g transform="translate(61.19679 92.866673)scale(0.1 -0.1)">
       <defs>
        <path id="DejaVuSans-30" d="M 2034 4250 
Q 1547 4250 1301 3770 
Q 1056 3291 1056 2328 
Q 1056 1369 1301 889 
Q 1547 409 2034 409 
Q 2525 409 2770 889 
Q 3016 1369 3016 2328 
Q 3016 3291 2770 3770 
Q 2525 4250 2034 4250 
z
M 2034 4750 
Q 2819 4750 3233 4129 
Q 3647 3509 3647 2328 
Q 3647 1150 3233 529 
Q 2819 -91 2034 -91 
Q 1250 -91 836 529 
Q 422 1150 422 2328 
Q 422 3509 836 4129 
Q 1250 4750 2034 4750 
z
" transform="scale(0.015625)"/>
       </defs>
       <use xlink:href="#DejaVuSans-30"/>
      </g>
     </g>
    </g>
    <g id="xtick_2">
     <g id="line2d_2">
      <g>
       <use xlink:href="#m3afc26ad51" x="109.219828" y="78.268235" style="stroke: #000000; stroke-width: 0.8"/>
      </g>
     </g>
     <g id="text_2">
      <!-- 50 -->
      <g transform="translate(102.857328 92.866673)scale(0.1 -0.1)">
       <defs>
        <path id="DejaVuSans-35" d="M 691 4666 
L 3169 4666 
L 3169 4134 
L 1269 4134 
L 1269 2991 
Q 1406 3038 1543 3061 
Q 1681 3084 1819 3084 
Q 2600 3084 3056 2656 
Q 3513 2228 3513 1497 
Q 3513 744 3044 326 
Q 2575 -91 1722 -91 
Q 1428 -91 1123 -41 
Q 819 9 494 109 
L 494 744 
Q 775 591 1075 516 
Q 1375 441 1709 441 
Q 2250 441 2565 725 
Q 2881 1009 2881 1497 
Q 2881 1984 2565 2268 
Q 2250 2553 1709 2553 
Q 1456 2553 1204 2497 
Q 953 2441 691 2322 
L 691 4666 
z
" transform="scale(0.015625)"/>
       </defs>
       <use xlink:href="#DejaVuSans-35"/>
       <use xlink:href="#DejaVuSans-30" x="63.623047"/>
      </g>
     </g>
    </g>
    <g id="xtick_3">
     <g id="line2d_3">
      <g>
       <use xlink:href="#m3afc26ad51" x="154.061616" y="78.268235" style="stroke: #000000; stroke-width: 0.8"/>
      </g>
     </g>
     <g id="text_3">
      <!-- 100 -->
      <g transform="translate(144.517866 92.866673)scale(0.1 -0.1)">
       <defs>
        <path id="DejaVuSans-31" d="M 794 531 
L 1825 531 
L 1825 4091 
L 703 3866 
L 703 4441 
L 1819 4666 
L 2450 4666 
L 2450 531 
L 3481 531 
L 3481 0 
L 794 0 
L 794 531 
z
" transform="scale(0.015625)"/>
       </defs>
       <use xlink:href="#DejaVuSans-31"/>
       <use xlink:href="#DejaVuSans-30" x="63.623047"/>
       <use xlink:href="#DejaVuSans-30" x="127.246094"/>
      </g>
     </g>
    </g>
    <g id="xtick_4">
     <g id="line2d_4">
      <g>
       <use xlink:href="#m3afc26ad51" x="198.903404" y="78.268235" style="stroke: #000000; stroke-width: 0.8"/>
      </g>
     </g>
     <g id="text_4">
      <!-- 150 -->
      <g transform="translate(189.359654 92.866673)scale(0.1 -0.1)">
       <use xlink:href="#DejaVuSans-31"/>
       <use xlink:href="#DejaVuSans-35" x="63.623047"/>
       <use xlink:href="#DejaVuSans-30" x="127.246094"/>
      </g>
     </g>
    </g>
    <g id="xtick_5">
     <g id="line2d_5">
      <g>
       <use xlink:href="#m3afc26ad51" x="243.745192" y="78.268235" style="stroke: #000000; stroke-width: 0.8"/>
      </g>
     </g>
     <g id="text_5">
      <!-- 200 -->
      <g transform="translate(234.201442 92.866673)scale(0.1 -0.1)">
       <defs>
        <path id="DejaVuSans-32" d="M 1228 531 
L 3431 531 
L 3431 0 
L 469 0 
L 469 531 
Q 828 903 1448 1529 
Q 2069 2156 2228 2338 
Q 2531 2678 2651 2914 
Q 2772 3150 2772 3378 
Q 2772 3750 2511 3984 
Q 2250 4219 1831 4219 
Q 1534 4219 1204 4116 
Q 875 4013 500 3803 
L 500 4441 
Q 881 4594 1212 4672 
Q 1544 4750 1819 4750 
Q 2544 4750 2975 4387 
Q 3406 4025 3406 3419 
Q 3406 3131 3298 2873 
Q 3191 2616 2906 2266 
Q 2828 2175 2409 1742 
Q 1991 1309 1228 531 
z
" transform="scale(0.015625)"/>
       </defs>
       <use xlink:href="#DejaVuSans-32"/>
       <use xlink:href="#DejaVuSans-30" x="63.623047"/>
       <use xlink:href="#DejaVuSans-30" x="127.246094"/>
      </g>
     </g>
    </g>
    <g id="xtick_6">
     <g id="line2d_6">
      <g>
       <use xlink:href="#m3afc26ad51" x="288.58698" y="78.268235" style="stroke: #000000; stroke-width: 0.8"/>
      </g>
     </g>
     <g id="text_6">
      <!-- 250 -->
      <g transform="translate(279.04323 92.866673)scale(0.1 -0.1)">
       <use xlink:href="#DejaVuSans-32"/>
       <use xlink:href="#DejaVuSans-35" x="63.623047"/>
       <use xlink:href="#DejaVuSans-30" x="127.246094"/>
      </g>
     </g>
    </g>
    <g id="xtick_7">
     <g id="line2d_7">
      <g>
       <use xlink:href="#m3afc26ad51" x="333.428768" y="78.268235" style="stroke: #000000; stroke-width: 0.8"/>
      </g>
     </g>
     <g id="text_7">
      <!-- 300 -->
      <g transform="translate(323.885018 92.866673)scale(0.1 -0.1)">
       <defs>
        <path id="DejaVuSans-33" d="M 2597 2516 
Q 3050 2419 3304 2112 
Q 3559 1806 3559 1356 
Q 3559 666 3084 287 
Q 2609 -91 1734 -91 
Q 1441 -91 1130 -33 
Q 819 25 488 141 
L 488 750 
Q 750 597 1062 519 
Q 1375 441 1716 441 
Q 2309 441 2620 675 
Q 2931 909 2931 1356 
Q 2931 1769 2642 2001 
Q 2353 2234 1838 2234 
L 1294 2234 
L 1294 2753 
L 1863 2753 
Q 2328 2753 2575 2939 
Q 2822 3125 2822 3475 
Q 2822 3834 2567 4026 
Q 2313 4219 1838 4219 
Q 1578 4219 1281 4162 
Q 984 4106 628 3988 
L 628 4550 
Q 988 4650 1302 4700 
Q 1616 4750 1894 4750 
Q 2613 4750 3031 4423 
Q 3450 4097 3450 3541 
Q 3450 3153 3228 2886 
Q 3006 2619 2597 2516 
z
" transform="scale(0.015625)"/>
       </defs>
       <use xlink:href="#DejaVuSans-33"/>
       <use xlink:href="#DejaVuSans-30" x="63.623047"/>
       <use xlink:href="#DejaVuSans-30" x="127.246094"/>
      </g>
     </g>
    </g>
    <g id="xtick_8">
     <g id="line2d_8">
      <g>
       <use xlink:href="#m3afc26ad51" x="378.270556" y="78.268235" style="stroke: #000000; stroke-width: 0.8"/>
      </g>
     </g>
     <g id="text_8">
      <!-- 350 -->
      <g transform="translate(368.726806 92.866673)scale(0.1 -0.1)">
       <use xlink:href="#DejaVuSans-33"/>
       <use xlink:href="#DejaVuSans-35" x="63.623047"/>
       <use xlink:href="#DejaVuSans-30" x="127.246094"/>
      </g>
     </g>
    </g>
    <g id="text_9">
     <!-- keyframe number -->
     <g transform="translate(182.025625 106.544798)scale(0.1 -0.1)">
      <defs>
       <path id="DejaVuSans-6b" d="M 581 4863 
L 1159 4863 
L 1159 1991 
L 2875 3500 
L 3609 3500 
L 1753 1863 
L 3688 0 
L 2938 0 
L 1159 1709 
L 1159 0 
L 581 0 
L 581 4863 
z
" transform="scale(0.015625)"/>
       <path id="DejaVuSans-65" d="M 3597 1894 
L 3597 1613 
L 953 1613 
Q 991 1019 1311 708 
Q 1631 397 2203 397 
Q 2534 397 2845 478 
Q 3156 559 3463 722 
L 3463 178 
Q 3153 47 2828 -22 
Q 2503 -91 2169 -91 
Q 1331 -91 842 396 
Q 353 884 353 1716 
Q 353 2575 817 3079 
Q 1281 3584 2069 3584 
Q 2775 3584 3186 3129 
Q 3597 2675 3597 1894 
z
M 3022 2063 
Q 3016 2534 2758 2815 
Q 2500 3097 2075 3097 
Q 1594 3097 1305 2825 
Q 1016 2553 972 2059 
L 3022 2063 
z
" transform="scale(0.015625)"/>
       <path id="DejaVuSans-79" d="M 2059 -325 
Q 1816 -950 1584 -1140 
Q 1353 -1331 966 -1331 
L 506 -1331 
L 506 -850 
L 844 -850 
Q 1081 -850 1212 -737 
Q 1344 -625 1503 -206 
L 1606 56 
L 191 3500 
L 800 3500 
L 1894 763 
L 2988 3500 
L 3597 3500 
L 2059 -325 
z
" transform="scale(0.015625)"/>
       <path id="DejaVuSans-66" d="M 2375 4863 
L 2375 4384 
L 1825 4384 
Q 1516 4384 1395 4259 
Q 1275 4134 1275 3809 
L 1275 3500 
L 2222 3500 
L 2222 3053 
L 1275 3053 
L 1275 0 
L 697 0 
L 697 3053 
L 147 3053 
L 147 3500 
L 697 3500 
L 697 3744 
Q 697 4328 969 4595 
Q 1241 4863 1831 4863 
L 2375 4863 
z
" transform="scale(0.015625)"/>
       <path id="DejaVuSans-72" d="M 2631 2963 
Q 2534 3019 2420 3045 
Q 2306 3072 2169 3072 
Q 1681 3072 1420 2755 
Q 1159 2438 1159 1844 
L 1159 0 
L 581 0 
L 581 3500 
L 1159 3500 
L 1159 2956 
Q 1341 3275 1631 3429 
Q 1922 3584 2338 3584 
Q 2397 3584 2469 3576 
Q 2541 3569 2628 3553 
L 2631 2963 
z
" transform="scale(0.015625)"/>
       <path id="DejaVuSans-61" d="M 2194 1759 
Q 1497 1759 1228 1600 
Q 959 1441 959 1056 
Q 959 750 1161 570 
Q 1363 391 1709 391 
Q 2188 391 2477 730 
Q 2766 1069 2766 1631 
L 2766 1759 
L 2194 1759 
z
M 3341 1997 
L 3341 0 
L 2766 0 
L 2766 531 
Q 2569 213 2275 61 
Q 1981 -91 1556 -91 
Q 1019 -91 701 211 
Q 384 513 384 1019 
Q 384 1609 779 1909 
Q 1175 2209 1959 2209 
L 2766 2209 
L 2766 2266 
Q 2766 2663 2505 2880 
Q 2244 3097 1772 3097 
Q 1472 3097 1187 3025 
Q 903 2953 641 2809 
L 641 3341 
Q 956 3463 1253 3523 
Q 1550 3584 1831 3584 
Q 2591 3584 2966 3190 
Q 3341 2797 3341 1997 
z
" transform="scale(0.015625)"/>
       <path id="DejaVuSans-6d" d="M 3328 2828 
Q 3544 3216 3844 3400 
Q 4144 3584 4550 3584 
Q 5097 3584 5394 3201 
Q 5691 2819 5691 2113 
L 5691 0 
L 5113 0 
L 5113 2094 
Q 5113 2597 4934 2840 
Q 4756 3084 4391 3084 
Q 3944 3084 3684 2787 
Q 3425 2491 3425 1978 
L 3425 0 
L 2847 0 
L 2847 2094 
Q 2847 2600 2669 2842 
Q 2491 3084 2119 3084 
Q 1678 3084 1418 2786 
Q 1159 2488 1159 1978 
L 1159 0 
L 581 0 
L 581 3500 
L 1159 3500 
L 1159 2956 
Q 1356 3278 1631 3431 
Q 1906 3584 2284 3584 
Q 2666 3584 2933 3390 
Q 3200 3197 3328 2828 
z
" transform="scale(0.015625)"/>
       <path id="DejaVuSans-20" transform="scale(0.015625)"/>
       <path id="DejaVuSans-6e" d="M 3513 2113 
L 3513 0 
L 2938 0 
L 2938 2094 
Q 2938 2591 2744 2837 
Q 2550 3084 2163 3084 
Q 1697 3084 1428 2787 
Q 1159 2491 1159 1978 
L 1159 0 
L 581 0 
L 581 3500 
L 1159 3500 
L 1159 2956 
Q 1366 3272 1645 3428 
Q 1925 3584 2291 3584 
Q 2894 3584 3203 3211 
Q 3513 2838 3513 2113 
z
" transform="scale(0.015625)"/>
       <path id="DejaVuSans-75" d="M 544 1381 
L 544 3500 
L 1119 3500 
L 1119 1403 
Q 1119 906 1312 657 
Q 1506 409 1894 409 
Q 2359 409 2629 706 
Q 2900 1003 2900 1516 
L 2900 3500 
L 3475 3500 
L 3475 0 
L 2900 0 
L 2900 538 
Q 2691 219 2414 64 
Q 2138 -91 1772 -91 
Q 1169 -91 856 284 
Q 544 659 544 1381 
z
M 1991 3584 
L 1991 3584 
z
" transform="scale(0.015625)"/>
       <path id="DejaVuSans-62" d="M 3116 1747 
Q 3116 2381 2855 2742 
Q 2594 3103 2138 3103 
Q 1681 3103 1420 2742 
Q 1159 2381 1159 1747 
Q 1159 1113 1420 752 
Q 1681 391 2138 391 
Q 2594 391 2855 752 
Q 3116 1113 3116 1747 
z
M 1159 2969 
Q 1341 3281 1617 3432 
Q 1894 3584 2278 3584 
Q 2916 3584 3314 3078 
Q 3713 2572 3713 1747 
Q 3713 922 3314 415 
Q 2916 -91 2278 -91 
Q 1894 -91 1617 61 
Q 1341 213 1159 525 
L 1159 0 
L 581 0 
L 581 4863 
L 1159 4863 
L 1159 2969 
z
" transform="scale(0.015625)"/>
      </defs>
      <use xlink:href="#DejaVuSans-6b"/>
      <use xlink:href="#DejaVuSans-65" x="54.285156"/>
      <use xlink:href="#DejaVuSans-79" x="115.808594"/>
      <use xlink:href="#DejaVuSans-66" x="174.988281"/>
      <use xlink:href="#DejaVuSans-72" x="210.193359"/>
      <use xlink:href="#DejaVuSans-61" x="251.306641"/>
      <use xlink:href="#DejaVuSans-6d" x="312.585938"/>
      <use xlink:href="#DejaVuSans-65" x="409.998047"/>
      <use xlink:href="#DejaVuSans-20" x="471.521484"/>
      <use xlink:href="#DejaVuSans-6e" x="503.308594"/>
      <use xlink:href="#DejaVuSans-75" x="566.6875"/>
      <use xlink:href="#DejaVuSans-6d" x="630.066406"/>
      <use xlink:href="#DejaVuSans-62" x="727.478516"/>
      <use xlink:href="#DejaVuSans-65" x="790.955078"/>
      <use xlink:href="#DejaVuSans-72" x="852.478516"/>
     </g>
    </g>
   </g>
   <g id="matplotlib.axis_2">
    <g id="ytick_1">
     <g id="line2d_9">
      <defs>
       <path id="m3a4f8c9976" d="M 0 0 
L -3.5 0 
" style="stroke: #000000; stroke-width: 0.8"/>
      </defs>
      <g>
       <use xlink:href="#m3a4f8c9976" x="48.145313" y="72.069169" style="stroke: #000000; stroke-width: 0.8"/>
      </g>
     </g>
     <g id="text_10">
      <!-- −130 -->
      <g transform="translate(13.678125 75.868388)scale(0.1 -0.1)">
       <defs>
        <path id="DejaVuSans-2212" d="M 678 2272 
L 4684 2272 
L 4684 1741 
L 678 1741 
L 678 2272 
z
" transform="scale(0.015625)"/>
       </defs>
       <use xlink:href="#DejaVuSans-2212"/>
       <use xlink:href="#DejaVuSans-31" x="83.789062"/>
       <use xlink:href="#DejaVuSans-33" x="147.412109"/>
       <use xlink:href="#DejaVuSans-30" x="211.035156"/>
      </g>
     </g>
    </g>
    <g id="ytick_2">
     <g id="line2d_10">
      <g>
       <use xlink:href="#m3a4f8c9976" x="48.145313" y="42.878738" style="stroke: #000000; stroke-width: 0.8"/>
      </g>
     </g>
     <g id="text_11">
      <!-- −120 -->
      <g transform="translate(13.678125 46.677957)scale(0.1 -0.1)">
       <use xlink:href="#DejaVuSans-2212"/>
       <use xlink:href="#DejaVuSans-31" x="83.789062"/>
       <use xlink:href="#DejaVuSans-32" x="147.412109"/>
       <use xlink:href="#DejaVuSans-30" x="211.035156"/>
      </g>
     </g>
    </g>
    <g id="ytick_3">
     <g id="line2d_11">
      <g>
       <use xlink:href="#m3a4f8c9976" x="48.145313" y="13.688307" style="stroke: #000000; stroke-width: 0.8"/>
      </g>
     </g>
     <g id="text_12">
      <!-- −110 -->
      <g transform="translate(13.678125 17.487525)scale(0.1 -0.1)">
       <use xlink:href="#DejaVuSans-2212"/>
       <use xlink:href="#DejaVuSans-31" x="83.789062"/>
       <use xlink:href="#DejaVuSans-31" x="147.412109"/>
       <use xlink:href="#DejaVuSans-30" x="211.035156"/>
      </g>
     </g>
    </g>
    <g id="text_13">
     <!-- yaw [degrees] -->
     <g transform="translate(7.598437 74.863024)rotate(-90)scale(0.1 -0.1)">
      <defs>
       <path id="DejaVuSans-77" d="M 269 3500 
L 844 3500 
L 1563 769 
L 2278 3500 
L 2956 3500 
L 3675 769 
L 4391 3500 
L 4966 3500 
L 4050 0 
L 3372 0 
L 2619 2869 
L 1863 0 
L 1184 0 
L 269 3500 
z
" transform="scale(0.015625)"/>
       <path id="DejaVuSans-5b" d="M 550 4863 
L 1875 4863 
L 1875 4416 
L 1125 4416 
L 1125 -397 
L 1875 -397 
L 1875 -844 
L 550 -844 
L 550 4863 
z
" transform="scale(0.015625)"/>
       <path id="DejaVuSans-64" d="M 2906 2969 
L 2906 4863 
L 3481 4863 
L 3481 0 
L 2906 0 
L 2906 525 
Q 2725 213 2448 61 
Q 2172 -91 1784 -91 
Q 1150 -91 751 415 
Q 353 922 353 1747 
Q 353 2572 751 3078 
Q 1150 3584 1784 3584 
Q 2172 3584 2448 3432 
Q 2725 3281 2906 2969 
z
M 947 1747 
Q 947 1113 1208 752 
Q 1469 391 1925 391 
Q 2381 391 2643 752 
Q 2906 1113 2906 1747 
Q 2906 2381 2643 2742 
Q 2381 3103 1925 3103 
Q 1469 3103 1208 2742 
Q 947 2381 947 1747 
z
" transform="scale(0.015625)"/>
       <path id="DejaVuSans-67" d="M 2906 1791 
Q 2906 2416 2648 2759 
Q 2391 3103 1925 3103 
Q 1463 3103 1205 2759 
Q 947 2416 947 1791 
Q 947 1169 1205 825 
Q 1463 481 1925 481 
Q 2391 481 2648 825 
Q 2906 1169 2906 1791 
z
M 3481 434 
Q 3481 -459 3084 -895 
Q 2688 -1331 1869 -1331 
Q 1566 -1331 1297 -1286 
Q 1028 -1241 775 -1147 
L 775 -588 
Q 1028 -725 1275 -790 
Q 1522 -856 1778 -856 
Q 2344 -856 2625 -561 
Q 2906 -266 2906 331 
L 2906 616 
Q 2728 306 2450 153 
Q 2172 0 1784 0 
Q 1141 0 747 490 
Q 353 981 353 1791 
Q 353 2603 747 3093 
Q 1141 3584 1784 3584 
Q 2172 3584 2450 3431 
Q 2728 3278 2906 2969 
L 2906 3500 
L 3481 3500 
L 3481 434 
z
" transform="scale(0.015625)"/>
       <path id="DejaVuSans-73" d="M 2834 3397 
L 2834 2853 
Q 2591 2978 2328 3040 
Q 2066 3103 1784 3103 
Q 1356 3103 1142 2972 
Q 928 2841 928 2578 
Q 928 2378 1081 2264 
Q 1234 2150 1697 2047 
L 1894 2003 
Q 2506 1872 2764 1633 
Q 3022 1394 3022 966 
Q 3022 478 2636 193 
Q 2250 -91 1575 -91 
Q 1294 -91 989 -36 
Q 684 19 347 128 
L 347 722 
Q 666 556 975 473 
Q 1284 391 1588 391 
Q 1994 391 2212 530 
Q 2431 669 2431 922 
Q 2431 1156 2273 1281 
Q 2116 1406 1581 1522 
L 1381 1569 
Q 847 1681 609 1914 
Q 372 2147 372 2553 
Q 372 3047 722 3315 
Q 1072 3584 1716 3584 
Q 2034 3584 2315 3537 
Q 2597 3491 2834 3397 
z
" transform="scale(0.015625)"/>
       <path id="DejaVuSans-5d" d="M 1947 4863 
L 1947 -844 
L 622 -844 
L 622 -397 
L 1369 -397 
L 1369 4416 
L 622 4416 
L 622 4863 
L 1947 4863 
z
" transform="scale(0.015625)"/>
      </defs>
      <use xlink:href="#DejaVuSans-79"/>
      <use xlink:href="#DejaVuSans-61" x="59.179688"/>
      <use xlink:href="#DejaVuSans-77" x="120.458984"/>
      <use xlink:href="#DejaVuSans-20" x="202.246094"/>
      <use xlink:href="#DejaVuSans-5b" x="234.033203"/>
      <use xlink:href="#DejaVuSans-64" x="273.046875"/>
      <use xlink:href="#DejaVuSans-65" x="336.523438"/>
      <use xlink:href="#DejaVuSans-67" x="398.046875"/>
      <use xlink:href="#DejaVuSans-72" x="461.523438"/>
      <use xlink:href="#DejaVuSans-65" x="500.386719"/>
      <use xlink:href="#DejaVuSans-65" x="561.910156"/>
      <use xlink:href="#DejaVuSans-73" x="623.433594"/>
      <use xlink:href="#DejaVuSans-5d" x="675.533203"/>
     </g>
    </g>
   </g>
   <g id="line2d_12">
    <path d="M 64.37804 43.966164 
L 65.27736 45.422983 
L 66.17668 39.388593 
L 67.076 40.925206 
L 67.97532 39.868594 
L 69.77396 46.306352 
L 70.67328 47.621741 
L 71.5726 48.692818 
L 72.47192 49.050929 
L 73.37124 49.534387 
L 74.270561 50.604037 
L 75.169881 52.968646 
L 76.069201 53.52633 
L 76.968521 53.519692 
L 77.867841 57.304097 
L 78.767161 58.821779 
L 80.565801 53.966998 
L 81.465121 52.737575 
L 82.364441 52.142405 
L 83.263761 52.100725 
L 84.163081 51.03326 
L 85.062401 50.797453 
L 85.961721 51.203741 
L 86.861042 49.86566 
L 87.760362 47.965368 
L 88.659682 48.141055 
L 89.559002 48.042977 
L 90.458322 49.85732 
L 91.357642 49.211431 
L 92.256962 50.38113 
L 93.156282 50.259676 
L 94.055602 51.298698 
L 94.954922 51.487861 
L 96.753562 48.253831 
L 97.652882 45.552991 
L 98.552202 46.378822 
L 99.451523 48.314308 
L 100.350843 48.310479 
L 101.250163 48.483897 
L 102.149483 49.474137 
L 103.048803 48.404066 
L 103.948123 48.59791 
L 105.746763 50.849283 
L 108.444723 56.606414 
L 109.344043 59.834945 
L 110.243363 62.572368 
L 111.142683 62.332162 
L 112.941324 54.025939 
L 113.840644 52.069495 
L 114.739964 49.249083 
L 115.639284 47.423994 
L 116.538604 50.416022 
L 117.437924 50.488117 
L 118.337244 48.958186 
L 119.236564 51.173203 
L 120.135884 52.446108 
L 121.035204 53.049501 
L 122.833844 55.739881 
L 123.733164 55.909412 
L 124.632484 55.200942 
L 125.531805 56.722701 
L 126.431125 57.363624 
L 127.330445 57.281975 
L 128.229765 58.358972 
L 129.129085 57.897622 
L 130.028405 58.887118 
L 130.927725 59.220123 
L 131.827045 58.453129 
L 132.726365 58.068708 
L 133.625685 59.444777 
L 134.525005 59.553954 
L 135.424325 59.901588 
L 136.323645 60.396304 
L 137.222965 60.161558 
L 138.122286 60.21439 
L 139.021606 60.634835 
L 139.920926 58.091171 
L 140.820246 58.415245 
L 141.719566 56.318623 
L 142.618886 54.955666 
L 143.518206 54.309408 
L 144.417526 54.902177 
L 145.316846 56.571402 
L 146.216166 54.190493 
L 147.115486 53.433884 
L 148.014806 53.49465 
L 148.914126 54.095753 
L 149.813446 52.681945 
L 150.712767 49.094329 
L 151.612087 51.666922 
L 152.511407 52.954465 
L 153.410727 52.105987 
L 154.310047 47.059805 
L 155.209367 42.670277 
L 156.108687 42.540163 
L 157.008007 41.328126 
L 158.806647 37.906795 
L 159.705967 40.071792 
L 160.605287 40.838228 
L 161.504607 38.541495 
L 162.403927 37.195623 
L 163.303248 36.806735 
L 164.202568 35.327275 
L 165.101888 33.182821 
L 166.001208 33.424778 
L 166.900528 32.60335 
L 167.799848 31.180897 
L 168.699168 29.418662 
L 169.598488 28.089788 
L 170.497808 27.452943 
L 171.397128 28.934419 
L 172.296448 30.713949 
L 173.195768 29.237519 
L 174.095088 29.940086 
L 174.994408 26.679058 
L 176.793049 25.313921 
L 177.692369 23.793214 
L 178.591689 21.176555 
L 179.491009 22.341034 
L 180.390329 24.631749 
L 182.188969 24.677922 
L 183.088289 24.095162 
L 183.987609 27.632666 
L 184.886929 28.186344 
L 185.786249 28.122785 
L 186.685569 31.009489 
L 187.584889 32.70759 
L 188.48421 32.59471 
L 189.38353 32.965198 
L 190.28285 35.599905 
L 191.18217 36.773107 
L 192.08149 37.735404 
L 192.98081 37.665932 
L 193.88013 41.091453 
L 194.77945 43.511472 
L 195.67877 46.463561 
L 196.57809 46.060712 
L 197.47741 49.925546 
L 198.37673 50.086696 
L 199.27605 48.19046 
L 200.17537 48.61224 
L 201.07469 47.794504 
L 201.974011 48.654208 
L 202.873331 51.622355 
L 203.772651 55.422402 
L 204.671971 55.795351 
L 205.571291 57.007653 
L 206.470611 57.290345 
L 207.369931 59.295902 
L 208.269251 59.075769 
L 209.168571 53.97815 
L 210.067891 53.390534 
L 210.967211 53.926652 
L 211.866531 48.324026 
L 212.765851 45.635455 
L 213.665171 44.099934 
L 215.463812 47.173811 
L 216.363132 48.272334 
L 217.262452 47.217294 
L 219.061092 49.262486 
L 219.960412 48.768739 
L 220.859732 45.656578 
L 221.759052 44.486179 
L 223.557692 38.978759 
L 224.457012 37.387797 
L 225.356332 35.318233 
L 226.255652 36.912679 
L 227.154973 34.470177 
L 228.054293 35.43707 
L 228.953613 34.6181 
L 229.852933 33.31582 
L 230.752253 34.458145 
L 231.651573 33.242338 
L 232.550893 31.057347 
L 233.450213 31.027046 
L 234.349533 29.757725 
L 235.248853 29.081731 
L 236.148173 29.149961 
L 237.047493 28.262323 
L 237.946813 28.589873 
L 238.846133 28.301855 
L 239.745454 28.778839 
L 240.644774 29.814 
L 241.544094 32.144522 
L 243.342734 35.811582 
L 244.242054 36.640091 
L 245.141374 37.766897 
L 246.040694 40.551921 
L 246.940014 40.357697 
L 247.839334 39.750962 
L 248.738654 42.506846 
L 249.637974 44.093762 
L 250.537294 44.252758 
L 251.436614 45.448668 
L 252.335935 47.129353 
L 253.235255 46.267331 
L 254.134575 47.162222 
L 255.933215 50.505637 
L 256.832535 49.933342 
L 257.731855 52.48552 
L 258.631175 53.794734 
L 259.530495 55.706739 
L 260.429815 57.021174 
L 261.329135 57.562148 
L 262.228455 58.896805 
L 264.027095 62.04167 
L 264.926415 62.889362 
L 265.825736 65.555978 
L 266.725056 68.796287 
L 267.624376 68.214475 
L 268.523696 68.098754 
L 271.221656 61.239221 
L 272.120976 61.167606 
L 273.020296 60.787 
L 274.818936 58.045075 
L 275.718256 58.502654 
L 276.617576 57.085038 
L 277.516896 57.264636 
L 278.416217 55.856004 
L 279.315537 56.384008 
L 280.214857 55.2086 
L 281.114177 54.735084 
L 282.013497 55.848797 
L 282.912817 52.223873 
L 283.812137 52.521126 
L 284.711457 52.991537 
L 285.610777 55.038039 
L 286.510097 53.934872 
L 287.409417 48.672552 
L 288.308737 49.449075 
L 289.208057 45.327748 
L 290.107377 44.362776 
L 291.006698 41.656758 
L 291.906018 43.549776 
L 292.805338 43.066246 
L 293.704658 40.841324 
L 294.603978 40.507493 
L 295.503298 39.68799 
L 297.301938 41.193863 
L 298.201258 38.335255 
L 299.100578 39.084755 
L 300.899218 37.341437 
L 301.798538 30.486051 
L 302.697858 32.731146 
L 303.597179 32.793555 
L 304.496499 34.239595 
L 305.395819 32.974994 
L 306.295139 25.140063 
L 307.194459 25.854369 
L 308.093779 26.118203 
L 308.993099 28.168349 
L 309.892419 24.782335 
L 310.791739 23.961254 
L 311.691059 17.308849 
L 312.590379 17.282506 
L 313.489699 17.018291 
L 314.389019 18.673192 
L 315.288339 15.315955 
L 316.18766 14.226301 
L 317.08698 13.410705 
L 317.9863 10.537213 
L 318.88562 10.921618 
L 319.78494 8.893933 
L 320.68426 4.357653 
L 321.58358 3.557647 
L 322.4829 8.211662 
L 323.38222 12.213744 
L 324.28154 12.648148 
L 326.08018 16.4034 
L 326.9795 17.811665 
L 327.87882 19.599746 
L 329.677461 28.084269 
L 330.576781 31.387576 
L 331.476101 32.322352 
L 332.375421 34.908764 
L 333.274741 33.568257 
L 335.972701 38.731785 
L 336.872021 37.219787 
L 337.771341 39.407415 
L 338.670661 43.091301 
L 339.569981 43.363758 
L 340.469301 40.492551 
L 341.368621 38.571402 
L 342.267942 37.851978 
L 343.167262 42.232904 
L 344.066582 43.567076 
L 344.965902 45.56544 
L 345.865222 46.814252 
L 346.764542 46.840767 
L 347.663862 49.623028 
L 348.563182 49.93732 
L 349.462502 51.015483 
L 350.361822 45.872843 
L 351.261142 38.725226 
L 352.160462 39.636464 
L 353.059782 41.075248 
L 353.959102 44.438838 
L 354.858423 46.908626 
L 355.757743 53.650805 
L 356.657063 58.993432 
L 357.556383 62.170856 
L 358.455703 66.996579 
L 359.355023 69.06132 
L 360.254343 69.269733 
L 361.153663 70.250289 
L 362.052983 70.245494 
L 362.952303 71.07302 
L 363.851623 71.199579 
L 364.750943 69.505021 
L 365.650263 69.829682 
L 366.549583 70.441127 
L 367.448904 71.213118 
L 368.348224 72.378804 
L 369.247544 70.766719 
L 370.146864 70.57551 
L 371.046184 69.567624 
L 371.945504 70.746943 
L 372.844824 68.640808 
L 373.744144 68.791184 
L 374.643464 69.335259 
L 375.542784 68.555577 
L 376.442104 68.700962 
L 377.341424 67.588339 
L 378.240744 67.645732 
L 379.140064 68.704339 
L 380.039385 67.856899 
L 380.938705 68.48646 
L 381.838025 70.878103 
L 382.737345 70.664086 
L 383.636665 69.178564 
L 384.535985 69.527704 
L 385.435305 68.700875 
L 386.334625 67.648666 
L 387.233945 67.67112 
L 388.133265 68.009666 
L 389.032585 67.732556 
L 389.032585 67.732556 
" clip-path="url(#pd962917b71)" style="fill: none; stroke: #008000; stroke-width: 1.5; stroke-linecap: square"/>
   </g>
   <g id="line2d_13">
    <path d="M 64.37804 43.966303 
L 65.27736 46.583948 
L 66.17668 40.049022 
L 67.076 41.379666 
L 67.97532 40.258297 
L 68.87464 42.802917 
L 69.77396 45.930364 
L 70.67328 48.247424 
L 71.5726 48.397671 
L 72.47192 50.352909 
L 73.37124 49.951761 
L 74.270561 50.965377 
L 75.169881 53.742742 
L 76.069201 54.303672 
L 76.968521 54.491204 
L 77.867841 58.332995 
L 78.767161 60.24827 
L 80.565801 55.178737 
L 81.465121 53.549582 
L 82.364441 52.915338 
L 83.263761 52.871677 
L 84.163081 53.275087 
L 85.961721 52.381176 
L 86.861042 52.216015 
L 87.760362 50.006813 
L 88.659682 49.124897 
L 90.458322 51.210196 
L 91.357642 51.011316 
L 92.256962 51.484197 
L 93.156282 52.240631 
L 94.055602 52.48444 
L 94.954922 52.124945 
L 96.753562 49.986433 
L 97.652882 47.642552 
L 98.552202 48.78382 
L 99.451523 48.73978 
L 100.350843 49.502961 
L 101.250163 49.309263 
L 102.149483 50.801591 
L 103.048803 49.533555 
L 103.948123 50.154552 
L 104.847443 51.340487 
L 105.746763 51.826783 
L 107.545403 57.10184 
L 108.444723 59.032754 
L 110.243363 64.707725 
L 111.142683 64.921418 
L 112.042004 63.124663 
L 112.941324 56.946985 
L 113.840644 54.796671 
L 114.739964 50.963466 
L 115.639284 49.548526 
L 116.538604 52.222501 
L 117.437924 52.704108 
L 118.337244 51.00859 
L 119.236564 53.162889 
L 120.135884 53.906749 
L 121.934524 56.900398 
L 122.833844 58.736311 
L 123.733164 57.738591 
L 124.632484 57.474416 
L 125.531805 59.13827 
L 126.431125 59.792322 
L 127.330445 59.769067 
L 129.129085 60.46606 
L 130.028405 61.364989 
L 131.827045 60.704878 
L 132.726365 60.086459 
L 133.625685 61.151361 
L 134.525005 61.304884 
L 135.424325 62.408603 
L 136.323645 62.299645 
L 137.222965 62.415865 
L 138.122286 62.310097 
L 139.021606 63.210749 
L 139.920926 60.258443 
L 140.820246 60.554046 
L 142.618886 57.353761 
L 143.518206 56.637225 
L 144.417526 56.992965 
L 145.316846 58.287244 
L 146.216166 55.855611 
L 147.115486 55.885267 
L 148.014806 56.159872 
L 148.914126 56.783571 
L 149.813446 54.480607 
L 150.712767 50.895508 
L 151.612087 53.708195 
L 152.511407 55.57905 
L 153.410727 55.08552 
L 154.310047 49.847553 
L 155.209367 45.278391 
L 156.108687 44.705511 
L 157.008007 42.873592 
L 157.907327 42.149449 
L 158.806647 40.708789 
L 159.705967 42.396112 
L 160.605287 43.026996 
L 161.504607 41.154006 
L 162.403927 40.513643 
L 163.303248 40.370793 
L 165.101888 36.92739 
L 166.001208 36.944863 
L 166.900528 36.210244 
L 167.799848 34.446186 
L 168.699168 33.471466 
L 169.598488 31.378163 
L 170.497808 30.785219 
L 171.397128 32.3776 
L 172.296448 33.573911 
L 173.195768 33.387481 
L 174.095088 33.472155 
L 174.994408 30.774606 
L 175.893729 30.3513 
L 176.793049 28.776757 
L 177.692369 26.68433 
L 178.591689 24.305907 
L 179.491009 24.944902 
L 180.390329 27.313586 
L 181.289649 27.439275 
L 182.188969 27.289622 
L 183.088289 26.401757 
L 183.987609 29.405784 
L 184.886929 29.883484 
L 185.786249 29.985617 
L 187.584889 34.677653 
L 188.48421 34.565402 
L 189.38353 34.849871 
L 190.28285 37.384234 
L 192.08149 40.364928 
L 192.98081 40.426759 
L 193.88013 42.861503 
L 194.77945 45.976658 
L 195.67877 48.028465 
L 196.57809 49.273929 
L 197.47741 51.521506 
L 198.37673 53.097548 
L 199.27605 51.546397 
L 200.17537 51.163428 
L 201.07469 50.565052 
L 201.974011 50.944947 
L 202.873331 53.920988 
L 203.772651 58.772459 
L 204.671971 58.802104 
L 205.571291 59.321066 
L 206.470611 60.70512 
L 207.369931 62.668406 
L 208.269251 61.908494 
L 209.168571 56.369925 
L 210.067891 55.976964 
L 210.967211 56.108253 
L 211.866531 50.647386 
L 212.765851 47.846112 
L 213.665171 46.315415 
L 214.564492 47.959163 
L 215.463812 48.448724 
L 216.363132 49.460393 
L 217.262452 48.843308 
L 219.061092 51.078046 
L 219.960412 50.119184 
L 220.859732 47.763298 
L 222.658372 43.548021 
L 223.557692 41.087488 
L 225.356332 37.557212 
L 226.255652 38.705519 
L 227.154973 36.147919 
L 228.054293 37.612896 
L 228.953613 36.741331 
L 229.852933 35.638551 
L 230.752253 36.275719 
L 231.651573 34.972048 
L 232.550893 33.103923 
L 235.248853 30.211232 
L 236.148173 30.886476 
L 237.047493 29.841647 
L 237.946813 30.071156 
L 238.846133 29.346263 
L 239.745454 29.969865 
L 240.644774 31.511318 
L 243.342734 37.957493 
L 244.242054 39.148416 
L 245.141374 39.800364 
L 246.040694 41.922281 
L 246.940014 42.022711 
L 247.839334 41.290335 
L 249.637974 45.603433 
L 250.537294 45.748978 
L 251.436614 47.011551 
L 252.335935 48.536102 
L 253.235255 47.630417 
L 254.134575 49.102879 
L 255.033895 50.97791 
L 255.933215 51.556644 
L 256.832535 51.849293 
L 257.731855 54.301697 
L 258.631175 55.601856 
L 259.530495 57.475 
L 262.228455 61.061537 
L 263.127775 62.953393 
L 264.027095 63.755091 
L 264.926415 65.189031 
L 265.825736 67.573667 
L 266.725056 70.665485 
L 267.624376 70.105697 
L 268.523696 70.341141 
L 270.322336 65.896582 
L 271.221656 63.345853 
L 272.120976 63.436386 
L 273.020296 62.840727 
L 274.818936 60.074853 
L 275.718256 60.611487 
L 276.617576 59.211686 
L 277.516896 58.945353 
L 278.416217 57.847671 
L 280.214857 56.630645 
L 281.114177 56.641805 
L 282.013497 57.18324 
L 282.912817 54.625123 
L 283.812137 53.448379 
L 284.711457 54.34111 
L 285.610777 55.968132 
L 286.510097 56.296856 
L 287.409417 52.117893 
L 289.208057 48.501281 
L 290.107377 45.841831 
L 291.006698 43.58083 
L 291.906018 44.620798 
L 292.805338 44.940454 
L 294.603978 42.167213 
L 295.503298 41.558976 
L 296.402618 41.467901 
L 297.301938 42.397398 
L 298.201258 40.708691 
L 299.100578 40.713597 
L 299.999898 38.937593 
L 300.899218 38.362476 
L 301.798538 32.56574 
L 302.697858 33.914163 
L 303.597179 34.049708 
L 304.496499 35.149675 
L 305.395819 34.132436 
L 306.295139 27.565364 
L 307.194459 27.316394 
L 308.093779 26.631844 
L 308.993099 28.810593 
L 309.892419 25.753965 
L 310.791739 24.482424 
L 311.691059 19.116187 
L 312.590379 17.754573 
L 313.489699 17.625368 
L 314.389019 18.861759 
L 315.288339 16.318848 
L 317.08698 14.311172 
L 317.9863 11.17132 
L 318.88562 11.139669 
L 319.78494 9.89308 
L 320.68426 5.87345 
L 321.58358 4.290332 
L 322.4829 9.126494 
L 323.38222 11.865038 
L 326.08018 16.471852 
L 326.9795 17.60647 
L 327.87882 19.693716 
L 328.778141 25.431299 
L 330.576781 32.874923 
L 331.476101 34.532924 
L 332.375421 36.792973 
L 333.274741 35.721981 
L 334.174061 36.912164 
L 335.073381 38.784802 
L 335.972701 39.94946 
L 336.872021 38.432722 
L 338.670661 44.83157 
L 339.569981 46.379875 
L 341.368621 40.029934 
L 342.267942 39.113256 
L 343.167262 43.374791 
L 344.066582 44.048434 
L 344.965902 46.390752 
L 345.865222 48.206855 
L 346.764542 49.023909 
L 347.663862 52.14557 
L 348.563182 51.782749 
L 349.462502 52.030568 
L 350.361822 46.74904 
L 351.261142 40.357627 
L 352.160462 40.21487 
L 353.059782 41.904989 
L 353.959102 45.468145 
L 354.858423 48.455771 
L 355.757743 54.194737 
L 356.657063 60.665422 
L 357.556383 63.918338 
L 358.455703 69.014707 
L 359.355023 71.57052 
L 360.254343 71.775946 
L 361.153663 72.903776 
L 362.052983 72.888665 
L 363.851623 73.520346 
L 364.750943 71.837031 
L 365.650263 72.407919 
L 367.448904 74.124188 
L 368.348224 74.710588 
L 369.247544 73.105755 
L 370.146864 73.413827 
L 371.046184 72.10163 
L 371.945504 72.904385 
L 372.844824 70.764927 
L 373.744144 70.503952 
L 374.643464 71.361224 
L 375.542784 70.719589 
L 376.442104 71.721324 
L 377.341424 69.7702 
L 378.240744 69.673965 
L 379.140064 70.116606 
L 380.039385 70.047788 
L 380.938705 70.312801 
L 381.838025 72.739126 
L 382.737345 72.725252 
L 383.636665 71.691415 
L 385.435305 70.884472 
L 386.334625 70.222421 
L 387.233945 69.339759 
L 388.133265 69.74265 
L 389.032585 69.467531 
L 389.032585 69.467531 
" clip-path="url(#pd962917b71)" style="fill: none; stroke: #ff0000; stroke-width: 1.5; stroke-linecap: square"/>
   </g>
   <g id="patch_3">
    <path d="M 48.145313 78.268235 
L 48.145313 0 
" style="fill: none; stroke: #000000; stroke-width: 0.8; stroke-linejoin: miter; stroke-linecap: square"/>
   </g>
   <g id="patch_4">
    <path d="M 405.265313 78.268235 
L 405.265313 0 
" style="fill: none; stroke: #000000; stroke-width: 0.8; stroke-linejoin: miter; stroke-linecap: square"/>
   </g>
   <g id="patch_5">
    <path d="M 48.145313 78.268235 
L 405.265313 78.268235 
" style="fill: none; stroke: #000000; stroke-width: 0.8; stroke-linejoin: miter; stroke-linecap: square"/>
   </g>
   <g id="patch_6">
    <path d="M 48.145313 -0 
L 405.265313 -0 
" style="fill: none; stroke: #000000; stroke-width: 0.8; stroke-linejoin: miter; stroke-linecap: square"/>
   </g>
   <g id="legend_1">
    <g id="patch_7">
     <path d="M 55.145313 37.634375 
L 152.148438 37.634375 
Q 154.148438 37.634375 154.148438 35.634375 
L 154.148438 7 
Q 154.148438 5 152.148438 5 
L 55.145313 5 
Q 53.145313 5 53.145313 7 
L 53.145313 35.634375 
Q 53.145313 37.634375 55.145313 37.634375 
z
" style="fill: #ffffff; opacity: 0.8; stroke: #cccccc; stroke-linejoin: miter"/>
    </g>
    <g id="line2d_14">
     <path d="M 57.145313 13.098437 
L 67.145313 13.098437 
L 77.145313 13.098437 
" style="fill: none; stroke: #008000; stroke-width: 1.5; stroke-linecap: square"/>
    </g>
    <g id="text_14">
     <!-- ground_truth -->
     <g transform="translate(85.145313 16.598437)scale(0.1 -0.1)">
      <defs>
       <path id="DejaVuSans-6f" d="M 1959 3097 
Q 1497 3097 1228 2736 
Q 959 2375 959 1747 
Q 959 1119 1226 758 
Q 1494 397 1959 397 
Q 2419 397 2687 759 
Q 2956 1122 2956 1747 
Q 2956 2369 2687 2733 
Q 2419 3097 1959 3097 
z
M 1959 3584 
Q 2709 3584 3137 3096 
Q 3566 2609 3566 1747 
Q 3566 888 3137 398 
Q 2709 -91 1959 -91 
Q 1206 -91 779 398 
Q 353 888 353 1747 
Q 353 2609 779 3096 
Q 1206 3584 1959 3584 
z
" transform="scale(0.015625)"/>
       <path id="DejaVuSans-5f" d="M 3263 -1063 
L 3263 -1509 
L -63 -1509 
L -63 -1063 
L 3263 -1063 
z
" transform="scale(0.015625)"/>
       <path id="DejaVuSans-74" d="M 1172 4494 
L 1172 3500 
L 2356 3500 
L 2356 3053 
L 1172 3053 
L 1172 1153 
Q 1172 725 1289 603 
Q 1406 481 1766 481 
L 2356 481 
L 2356 0 
L 1766 0 
Q 1100 0 847 248 
Q 594 497 594 1153 
L 594 3053 
L 172 3053 
L 172 3500 
L 594 3500 
L 594 4494 
L 1172 4494 
z
" transform="scale(0.015625)"/>
       <path id="DejaVuSans-68" d="M 3513 2113 
L 3513 0 
L 2938 0 
L 2938 2094 
Q 2938 2591 2744 2837 
Q 2550 3084 2163 3084 
Q 1697 3084 1428 2787 
Q 1159 2491 1159 1978 
L 1159 0 
L 581 0 
L 581 4863 
L 1159 4863 
L 1159 2956 
Q 1366 3272 1645 3428 
Q 1925 3584 2291 3584 
Q 2894 3584 3203 3211 
Q 3513 2838 3513 2113 
z
" transform="scale(0.015625)"/>
      </defs>
      <use xlink:href="#DejaVuSans-67"/>
      <use xlink:href="#DejaVuSans-72" x="63.476562"/>
      <use xlink:href="#DejaVuSans-6f" x="102.339844"/>
      <use xlink:href="#DejaVuSans-75" x="163.521484"/>
      <use xlink:href="#DejaVuSans-6e" x="226.900391"/>
      <use xlink:href="#DejaVuSans-64" x="290.279297"/>
      <use xlink:href="#DejaVuSans-5f" x="353.755859"/>
      <use xlink:href="#DejaVuSans-74" x="403.755859"/>
      <use xlink:href="#DejaVuSans-72" x="442.964844"/>
      <use xlink:href="#DejaVuSans-75" x="484.078125"/>
      <use xlink:href="#DejaVuSans-74" x="547.457031"/>
      <use xlink:href="#DejaVuSans-68" x="586.666016"/>
     </g>
    </g>
    <g id="line2d_15">
     <path d="M 57.145313 28.054687 
L 67.145313 28.054687 
L 77.145313 28.054687 
" style="fill: none; stroke: #ff0000; stroke-width: 1.5; stroke-linecap: square"/>
    </g>
    <g id="text_15">
     <!-- estimated -->
     <g transform="translate(85.145313 31.554687)scale(0.1 -0.1)">
      <defs>
       <path id="DejaVuSans-69" d="M 603 3500 
L 1178 3500 
L 1178 0 
L 603 0 
L 603 3500 
z
M 603 4863 
L 1178 4863 
L 1178 4134 
L 603 4134 
L 603 4863 
z
" transform="scale(0.015625)"/>
      </defs>
      <use xlink:href="#DejaVuSans-65"/>
      <use xlink:href="#DejaVuSans-73" x="61.523438"/>
      <use xlink:href="#DejaVuSans-74" x="113.623047"/>
      <use xlink:href="#DejaVuSans-69" x="152.832031"/>
      <use xlink:href="#DejaVuSans-6d" x="180.615234"/>
      <use xlink:href="#DejaVuSans-61" x="278.027344"/>
      <use xlink:href="#DejaVuSans-74" x="339.306641"/>
      <use xlink:href="#DejaVuSans-65" x="378.515625"/>
      <use xlink:href="#DejaVuSans-64" x="440.039062"/>
     </g>
    </g>
   </g>
  </g>
  <g id="axes_2">
   <g id="patch_8">
    <path d="M 48.145313 172.190118 
L 405.265313 172.190118 
L 405.265313 93.921882 
L 48.145313 93.921882 
z
" style="fill: #ffffff"/>
   </g>
   <g id="matplotlib.axis_3">
    <g id="xtick_9">
     <g id="line2d_16">
      <g>
       <use xlink:href="#m3afc26ad51" x="64.37804" y="172.190118" style="stroke: #000000; stroke-width: 0.8"/>
      </g>
     </g>
     <g id="text_16">
      <!-- 0 -->
      <g transform="translate(61.19679 186.788555)scale(0.1 -0.1)">
       <use xlink:href="#DejaVuSans-30"/>
      </g>
     </g>
    </g>
    <g id="xtick_10">
     <g id="line2d_17">
      <g>
       <use xlink:href="#m3afc26ad51" x="109.219828" y="172.190118" style="stroke: #000000; stroke-width: 0.8"/>
      </g>
     </g>
     <g id="text_17">
      <!-- 50 -->
      <g transform="translate(102.857328 186.788555)scale(0.1 -0.1)">
       <use xlink:href="#DejaVuSans-35"/>
       <use xlink:href="#DejaVuSans-30" x="63.623047"/>
      </g>
     </g>
    </g>
    <g id="xtick_11">
     <g id="line2d_18">
      <g>
       <use xlink:href="#m3afc26ad51" x="154.061616" y="172.190118" style="stroke: #000000; stroke-width: 0.8"/>
      </g>
     </g>
     <g id="text_18">
      <!-- 100 -->
      <g transform="translate(144.517866 186.788555)scale(0.1 -0.1)">
       <use xlink:href="#DejaVuSans-31"/>
       <use xlink:href="#DejaVuSans-30" x="63.623047"/>
       <use xlink:href="#DejaVuSans-30" x="127.246094"/>
      </g>
     </g>
    </g>
    <g id="xtick_12">
     <g id="line2d_19">
      <g>
       <use xlink:href="#m3afc26ad51" x="198.903404" y="172.190118" style="stroke: #000000; stroke-width: 0.8"/>
      </g>
     </g>
     <g id="text_19">
      <!-- 150 -->
      <g transform="translate(189.359654 186.788555)scale(0.1 -0.1)">
       <use xlink:href="#DejaVuSans-31"/>
       <use xlink:href="#DejaVuSans-35" x="63.623047"/>
       <use xlink:href="#DejaVuSans-30" x="127.246094"/>
      </g>
     </g>
    </g>
    <g id="xtick_13">
     <g id="line2d_20">
      <g>
       <use xlink:href="#m3afc26ad51" x="243.745192" y="172.190118" style="stroke: #000000; stroke-width: 0.8"/>
      </g>
     </g>
     <g id="text_20">
      <!-- 200 -->
      <g transform="translate(234.201442 186.788555)scale(0.1 -0.1)">
       <use xlink:href="#DejaVuSans-32"/>
       <use xlink:href="#DejaVuSans-30" x="63.623047"/>
       <use xlink:href="#DejaVuSans-30" x="127.246094"/>
      </g>
     </g>
    </g>
    <g id="xtick_14">
     <g id="line2d_21">
      <g>
       <use xlink:href="#m3afc26ad51" x="288.58698" y="172.190118" style="stroke: #000000; stroke-width: 0.8"/>
      </g>
     </g>
     <g id="text_21">
      <!-- 250 -->
      <g transform="translate(279.04323 186.788555)scale(0.1 -0.1)">
       <use xlink:href="#DejaVuSans-32"/>
       <use xlink:href="#DejaVuSans-35" x="63.623047"/>
       <use xlink:href="#DejaVuSans-30" x="127.246094"/>
      </g>
     </g>
    </g>
    <g id="xtick_15">
     <g id="line2d_22">
      <g>
       <use xlink:href="#m3afc26ad51" x="333.428768" y="172.190118" style="stroke: #000000; stroke-width: 0.8"/>
      </g>
     </g>
     <g id="text_22">
      <!-- 300 -->
      <g transform="translate(323.885018 186.788555)scale(0.1 -0.1)">
       <use xlink:href="#DejaVuSans-33"/>
       <use xlink:href="#DejaVuSans-30" x="63.623047"/>
       <use xlink:href="#DejaVuSans-30" x="127.246094"/>
      </g>
     </g>
    </g>
    <g id="xtick_16">
     <g id="line2d_23">
      <g>
       <use xlink:href="#m3afc26ad51" x="378.270556" y="172.190118" style="stroke: #000000; stroke-width: 0.8"/>
      </g>
     </g>
     <g id="text_23">
      <!-- 350 -->
      <g transform="translate(368.726806 186.788555)scale(0.1 -0.1)">
       <use xlink:href="#DejaVuSans-33"/>
       <use xlink:href="#DejaVuSans-35" x="63.623047"/>
       <use xlink:href="#DejaVuSans-30" x="127.246094"/>
      </g>
     </g>
    </g>
    <g id="text_24">
     <!-- keyframe number -->
     <g transform="translate(182.025625 200.46668)scale(0.1 -0.1)">
      <use xlink:href="#DejaVuSans-6b"/>
      <use xlink:href="#DejaVuSans-65" x="54.285156"/>
      <use xlink:href="#DejaVuSans-79" x="115.808594"/>
      <use xlink:href="#DejaVuSans-66" x="174.988281"/>
      <use xlink:href="#DejaVuSans-72" x="210.193359"/>
      <use xlink:href="#DejaVuSans-61" x="251.306641"/>
      <use xlink:href="#DejaVuSans-6d" x="312.585938"/>
      <use xlink:href="#DejaVuSans-65" x="409.998047"/>
      <use xlink:href="#DejaVuSans-20" x="471.521484"/>
      <use xlink:href="#DejaVuSans-6e" x="503.308594"/>
      <use xlink:href="#DejaVuSans-75" x="566.6875"/>
      <use xlink:href="#DejaVuSans-6d" x="630.066406"/>
      <use xlink:href="#DejaVuSans-62" x="727.478516"/>
      <use xlink:href="#DejaVuSans-65" x="790.955078"/>
      <use xlink:href="#DejaVuSans-72" x="852.478516"/>
     </g>
    </g>
   </g>
   <g id="matplotlib.axis_4">
    <g id="ytick_4">
     <g id="line2d_24">
      <g>
       <use xlink:href="#m3a4f8c9976" x="48.145313" y="167.750068" style="stroke: #000000; stroke-width: 0.8"/>
      </g>
     </g>
     <g id="text_25">
      <!-- −2.5 -->
      <g transform="translate(16.8625 171.549287)scale(0.1 -0.1)">
       <defs>
        <path id="DejaVuSans-2e" d="M 684 794 
L 1344 794 
L 1344 0 
L 684 0 
L 684 794 
z
" transform="scale(0.015625)"/>
       </defs>
       <use xlink:href="#DejaVuSans-2212"/>
       <use xlink:href="#DejaVuSans-32" x="83.789062"/>
       <use xlink:href="#DejaVuSans-2e" x="147.412109"/>
       <use xlink:href="#DejaVuSans-35" x="179.199219"/>
      </g>
     </g>
    </g>
    <g id="ytick_5">
     <g id="line2d_25">
      <g>
       <use xlink:href="#m3a4f8c9976" x="48.145313" y="137.407637" style="stroke: #000000; stroke-width: 0.8"/>
      </g>
     </g>
     <g id="text_26">
      <!-- 0.0 -->
      <g transform="translate(25.242188 141.206856)scale(0.1 -0.1)">
       <use xlink:href="#DejaVuSans-30"/>
       <use xlink:href="#DejaVuSans-2e" x="63.623047"/>
       <use xlink:href="#DejaVuSans-30" x="95.410156"/>
      </g>
     </g>
    </g>
    <g id="ytick_6">
     <g id="line2d_26">
      <g>
       <use xlink:href="#m3a4f8c9976" x="48.145313" y="107.065206" style="stroke: #000000; stroke-width: 0.8"/>
      </g>
     </g>
     <g id="text_27">
      <!-- 2.5 -->
      <g transform="translate(25.242188 110.864425)scale(0.1 -0.1)">
       <use xlink:href="#DejaVuSans-32"/>
       <use xlink:href="#DejaVuSans-2e" x="63.623047"/>
       <use xlink:href="#DejaVuSans-35" x="95.410156"/>
      </g>
     </g>
    </g>
    <g id="text_28">
     <!-- pitch [degrees] -->
     <g transform="translate(10.782812 171.113812)rotate(-90)scale(0.1 -0.1)">
      <defs>
       <path id="DejaVuSans-70" d="M 1159 525 
L 1159 -1331 
L 581 -1331 
L 581 3500 
L 1159 3500 
L 1159 2969 
Q 1341 3281 1617 3432 
Q 1894 3584 2278 3584 
Q 2916 3584 3314 3078 
Q 3713 2572 3713 1747 
Q 3713 922 3314 415 
Q 2916 -91 2278 -91 
Q 1894 -91 1617 61 
Q 1341 213 1159 525 
z
M 3116 1747 
Q 3116 2381 2855 2742 
Q 2594 3103 2138 3103 
Q 1681 3103 1420 2742 
Q 1159 2381 1159 1747 
Q 1159 1113 1420 752 
Q 1681 391 2138 391 
Q 2594 391 2855 752 
Q 3116 1113 3116 1747 
z
" transform="scale(0.015625)"/>
       <path id="DejaVuSans-63" d="M 3122 3366 
L 3122 2828 
Q 2878 2963 2633 3030 
Q 2388 3097 2138 3097 
Q 1578 3097 1268 2742 
Q 959 2388 959 1747 
Q 959 1106 1268 751 
Q 1578 397 2138 397 
Q 2388 397 2633 464 
Q 2878 531 3122 666 
L 3122 134 
Q 2881 22 2623 -34 
Q 2366 -91 2075 -91 
Q 1284 -91 818 406 
Q 353 903 353 1747 
Q 353 2603 823 3093 
Q 1294 3584 2113 3584 
Q 2378 3584 2631 3529 
Q 2884 3475 3122 3366 
z
" transform="scale(0.015625)"/>
      </defs>
      <use xlink:href="#DejaVuSans-70"/>
      <use xlink:href="#DejaVuSans-69" x="63.476562"/>
      <use xlink:href="#DejaVuSans-74" x="91.259766"/>
      <use xlink:href="#DejaVuSans-63" x="130.46875"/>
      <use xlink:href="#DejaVuSans-68" x="185.449219"/>
      <use xlink:href="#DejaVuSans-20" x="248.828125"/>
      <use xlink:href="#DejaVuSans-5b" x="280.615234"/>
      <use xlink:href="#DejaVuSans-64" x="319.628906"/>
      <use xlink:href="#DejaVuSans-65" x="383.105469"/>
      <use xlink:href="#DejaVuSans-67" x="444.628906"/>
      <use xlink:href="#DejaVuSans-72" x="508.105469"/>
      <use xlink:href="#DejaVuSans-65" x="546.96875"/>
      <use xlink:href="#DejaVuSans-65" x="608.492188"/>
      <use xlink:href="#DejaVuSans-73" x="670.015625"/>
      <use xlink:href="#DejaVuSans-5d" x="722.115234"/>
     </g>
    </g>
   </g>
   <g id="line2d_27">
    <path d="M 64.37804 106.437442 
L 65.27736 97.856763 
L 66.17668 103.315652 
L 67.076 125.642926 
L 67.97532 124.677393 
L 68.87464 121.7716 
L 69.77396 110.247852 
L 70.67328 123.705688 
L 71.5726 117.026724 
L 72.47192 113.785597 
L 73.37124 121.077244 
L 74.270561 109.928103 
L 75.169881 111.635077 
L 76.069201 109.043 
L 76.968521 109.023647 
L 77.867841 109.535753 
L 78.767161 112.842752 
L 79.666481 103.345902 
L 80.565801 113.940751 
L 81.465121 111.806294 
L 82.364441 114.566765 
L 83.263761 116.720535 
L 84.163081 113.447595 
L 85.062401 111.847226 
L 85.961721 108.899605 
L 86.861042 107.518989 
L 87.760362 122.910705 
L 88.659682 109.285992 
L 89.559002 105.573599 
L 90.458322 102.714602 
L 91.357642 121.013013 
L 92.256962 125.383506 
L 93.156282 121.006819 
L 94.954922 111.400781 
L 95.854242 98.706512 
L 96.753562 106.879123 
L 97.652882 119.815605 
L 98.552202 116.522946 
L 99.451523 123.978908 
L 101.250163 127.275905 
L 102.149483 123.700624 
L 103.048803 127.081648 
L 103.948123 123.576066 
L 104.847443 114.985428 
L 105.746763 119.458664 
L 106.646083 118.220763 
L 107.545403 121.219357 
L 108.444723 117.429699 
L 109.344043 111.189233 
L 110.243363 114.225779 
L 111.142683 118.81131 
L 112.042004 117.096327 
L 112.941324 112.896012 
L 113.840644 115.532106 
L 114.739964 116.785141 
L 115.639284 113.41279 
L 116.538604 120.531971 
L 117.437924 122.659579 
L 118.337244 117.797073 
L 119.236564 116.108538 
L 120.135884 121.385757 
L 121.035204 125.83328 
L 121.934524 120.845563 
L 122.833844 120.062648 
L 123.733164 122.811539 
L 124.632484 126.285338 
L 125.531805 127.093848 
L 126.431125 124.376651 
L 127.330445 127.2281 
L 128.229765 131.854873 
L 130.028405 134.536455 
L 130.927725 132.050526 
L 131.827045 133.053133 
L 132.726365 132.670081 
L 133.625685 130.342622 
L 134.525005 130.947351 
L 135.424325 130.147771 
L 136.323645 134.221186 
L 137.222965 135.785298 
L 138.122286 142.969494 
L 139.021606 144.202042 
L 139.920926 139.925396 
L 140.820246 140.02987 
L 141.719566 133.277906 
L 142.618886 137.546225 
L 143.518206 137.260045 
L 144.417526 141.984587 
L 145.316846 141.879544 
L 146.216166 142.806619 
L 147.115486 142.414595 
L 148.014806 140.329035 
L 148.914126 141.049975 
L 149.813446 146.365316 
L 150.712767 144.637313 
L 151.612087 145.620674 
L 152.511407 144.072576 
L 153.410727 152.22037 
L 155.209367 163.50875 
L 156.108687 155.986956 
L 157.008007 143.998421 
L 157.907327 141.662982 
L 158.806647 146.92612 
L 159.705967 142.894731 
L 160.605287 138.346153 
L 161.504607 138.243418 
L 162.403927 131.458401 
L 163.303248 141.379476 
L 164.202568 139.296744 
L 165.101888 139.544517 
L 166.001208 139.666813 
L 166.900528 142.141153 
L 167.799848 141.455501 
L 168.699168 135.483393 
L 170.497808 150.121203 
L 171.397128 149.511032 
L 172.296448 147.890319 
L 173.195768 149.568931 
L 174.095088 153.408085 
L 174.994408 155.863789 
L 175.893729 154.907712 
L 176.793049 145.999988 
L 177.692369 139.381813 
L 178.591689 136.589037 
L 179.491009 137.482109 
L 180.390329 140.455768 
L 181.289649 146.542316 
L 182.188969 148.982318 
L 183.088289 149.755807 
L 183.987609 154.334727 
L 184.886929 157.201998 
L 185.786249 157.768154 
L 186.685569 156.532453 
L 187.584889 153.380962 
L 188.48421 155.564457 
L 189.38353 157.19572 
L 190.28285 151.623754 
L 191.18217 144.918938 
L 192.08149 151.980077 
L 192.98081 157.371053 
L 193.88013 159.392333 
L 194.77945 154.360103 
L 195.67877 157.512905 
L 196.57809 159.800481 
L 198.37673 157.052353 
L 199.27605 155.113311 
L 200.17537 155.011394 
L 201.07469 158.130767 
L 201.974011 157.251032 
L 202.873331 161.167136 
L 203.772651 154.272617 
L 204.671971 139.703877 
L 206.470611 126.783603 
L 207.369931 132.06638 
L 208.269251 135.794131 
L 209.168571 142.756241 
L 210.067891 145.525714 
L 210.967211 142.486504 
L 211.866531 145.634658 
L 212.765851 145.256224 
L 213.665171 139.425717 
L 214.564492 135.3948 
L 215.463812 134.764196 
L 217.262452 137.462043 
L 218.161772 137.928542 
L 219.061092 137.633032 
L 219.960412 139.232375 
L 220.859732 139.625293 
L 221.759052 129.241788 
L 222.658372 126.479975 
L 223.557692 129.219661 
L 224.457012 127.613171 
L 225.356332 123.167082 
L 226.255652 120.428356 
L 227.154973 121.632696 
L 228.054293 115.353882 
L 228.953613 114.565276 
L 230.752253 110.771415 
L 231.651573 109.1793 
L 232.550893 109.919029 
L 233.450213 111.714744 
L 234.349533 118.08454 
L 235.248853 122.157303 
L 236.148173 106.081994 
L 237.047493 105.960399 
L 237.946813 111.799317 
L 238.846133 114.998022 
L 239.745454 118.830059 
L 240.644774 122.01158 
L 241.544094 123.607953 
L 242.443414 125.595844 
L 243.342734 129.888019 
L 244.242054 129.956067 
L 245.141374 131.837937 
L 246.040694 129.235014 
L 246.940014 125.945422 
L 247.839334 125.530649 
L 248.738654 123.816771 
L 249.637974 120.686612 
L 250.537294 124.937408 
L 251.436614 121.079503 
L 252.335935 126.074122 
L 253.235255 127.44425 
L 254.134575 124.560714 
L 255.033895 125.748007 
L 255.933215 128.973463 
L 256.832535 137.076401 
L 257.731855 132.617465 
L 258.631175 129.003516 
L 259.530495 128.325381 
L 260.429815 129.057708 
L 261.329135 126.422376 
L 263.127775 127.093918 
L 264.926415 136.264492 
L 265.825736 146.547239 
L 266.725056 149.781743 
L 267.624376 150.182206 
L 268.523696 149.463304 
L 269.423016 148.927891 
L 270.322336 154.022823 
L 271.221656 154.683134 
L 272.120976 151.773322 
L 273.020296 146.694081 
L 273.919616 148.129849 
L 274.818936 151.501884 
L 275.718256 147.187229 
L 276.617576 145.837116 
L 277.516896 145.616401 
L 278.416217 145.155863 
L 279.315537 144.528637 
L 280.214857 142.794907 
L 281.114177 142.08397 
L 282.013497 142.566873 
L 282.912817 137.408305 
L 283.812137 126.448384 
L 284.711457 122.968542 
L 285.610777 123.274124 
L 286.510097 121.153355 
L 287.409417 121.74402 
L 288.308737 130.270315 
L 289.208057 127.461757 
L 290.107377 131.342661 
L 291.006698 134.095783 
L 291.906018 136.05577 
L 292.805338 135.277384 
L 293.704658 128.034774 
L 294.603978 114.539641 
L 296.402618 139.750559 
L 298.201258 134.157154 
L 299.100578 130.204451 
L 299.999898 135.824181 
L 300.899218 140.432674 
L 301.798538 128.346879 
L 302.697858 132.68425 
L 303.597179 132.291971 
L 304.496499 134.639042 
L 305.395819 135.419033 
L 306.295139 130.763447 
L 307.194459 138.432483 
L 308.093779 137.279993 
L 308.993099 135.896788 
L 309.892419 139.942228 
L 310.791739 132.948218 
L 311.691059 139.671598 
L 312.590379 151.301504 
L 313.489699 149.864312 
L 314.389019 154.996635 
L 315.288339 151.163404 
L 316.18766 154.448445 
L 317.08698 148.829789 
L 317.9863 147.368959 
L 318.88562 139.016439 
L 319.78494 136.182196 
L 320.68426 136.67664 
L 321.58358 142.397463 
L 322.4829 145.402854 
L 323.38222 150.630496 
L 324.28154 148.472592 
L 325.18086 149.75624 
L 326.08018 153.17746 
L 326.9795 154.544479 
L 327.87882 153.813804 
L 328.778141 151.102756 
L 329.677461 156.691273 
L 330.576781 161.470435 
L 331.476101 163.360156 
L 332.375421 161.799102 
L 333.274741 153.494786 
L 334.174061 151.102988 
L 335.073381 150.384964 
L 335.972701 152.176689 
L 336.872021 145.865378 
L 337.771341 144.049185 
L 338.670661 148.050013 
L 339.569981 151.370026 
L 340.469301 150.618159 
L 341.368621 151.295151 
L 343.167262 157.788371 
L 344.066582 157.110967 
L 344.965902 155.791152 
L 345.865222 154.170578 
L 346.764542 155.144899 
L 347.663862 154.10429 
L 348.563182 148.638768 
L 349.462502 148.780204 
L 351.261142 135.798257 
L 352.160462 139.605447 
L 353.059782 138.668632 
L 353.959102 143.245387 
L 354.858423 139.736884 
L 355.757743 140.44218 
L 356.657063 142.126503 
L 357.556383 151.5013 
L 358.455703 153.934415 
L 359.355023 149.554078 
L 360.254343 132.772592 
L 361.153663 126.654521 
L 362.052983 127.111204 
L 362.952303 130.678685 
L 363.851623 131.300434 
L 364.750943 132.9275 
L 365.650263 131.26913 
L 366.549583 133.729598 
L 367.448904 129.862296 
L 368.348224 128.60506 
L 369.247544 129.135539 
L 370.146864 131.233851 
L 371.046184 135.324403 
L 371.945504 136.509532 
L 372.844824 129.668956 
L 373.744144 131.029176 
L 374.643464 133.219253 
L 375.542784 128.289822 
L 376.442104 129.697442 
L 377.341424 130.654877 
L 379.140064 138.400587 
L 380.039385 136.19881 
L 380.938705 137.257143 
L 381.838025 141.635503 
L 382.737345 136.719967 
L 383.636665 136.231251 
L 384.535985 136.132821 
L 385.435305 132.865734 
L 386.334625 132.775203 
L 387.233945 131.42528 
L 388.133265 132.449865 
L 389.032585 132.444428 
L 389.032585 132.444428 
" clip-path="url(#pca94dbcd5e)" style="fill: none; stroke: #008000; stroke-width: 1.5; stroke-linecap: square"/>
   </g>
   <g id="line2d_28">
    <path d="M 64.37804 106.437043 
L 65.27736 101.13909 
L 66.17668 104.798941 
L 67.076 126.933542 
L 67.97532 126.055718 
L 68.87464 121.412539 
L 69.77396 108.918913 
L 70.67328 123.35364 
L 71.5726 115.236821 
L 72.47192 112.664754 
L 73.37124 119.591659 
L 74.270561 108.925727 
L 75.169881 111.403504 
L 76.069201 107.092045 
L 76.968521 108.42484 
L 77.867841 107.987457 
L 78.767161 112.40385 
L 79.666481 103.051966 
L 80.565801 112.877151 
L 81.465121 111.109054 
L 82.364441 114.587579 
L 83.263761 117.009631 
L 84.163081 114.598664 
L 85.961721 106.905426 
L 86.861042 106.129094 
L 87.760362 120.041776 
L 88.659682 106.754375 
L 89.559002 103.837641 
L 90.458322 99.555467 
L 91.357642 119.22942 
L 92.256962 122.937566 
L 93.156282 120.040046 
L 94.954922 109.724022 
L 95.854242 97.479529 
L 96.753562 105.883943 
L 97.652882 120.230725 
L 98.552202 117.283068 
L 99.451523 123.77958 
L 100.350843 127.145619 
L 101.250163 128.131206 
L 102.149483 125.106516 
L 103.048803 128.6791 
L 103.948123 125.810593 
L 104.847443 116.884 
L 105.746763 120.674665 
L 106.646083 120.857058 
L 107.545403 123.861632 
L 108.444723 120.786322 
L 109.344043 113.450377 
L 110.243363 116.940676 
L 111.142683 121.840873 
L 112.042004 120.34704 
L 112.941324 115.010626 
L 113.840644 116.179143 
L 114.739964 118.984758 
L 115.639284 116.937677 
L 116.538604 124.008469 
L 117.437924 126.747517 
L 118.337244 122.373368 
L 119.236564 121.057848 
L 121.035204 130.568424 
L 121.934524 127.169647 
L 122.833844 126.713362 
L 123.733164 128.012261 
L 124.632484 132.659737 
L 125.531805 133.962145 
L 126.431125 131.501593 
L 127.330445 134.887928 
L 128.229765 139.048722 
L 129.129085 141.134747 
L 130.028405 141.896834 
L 130.927725 139.347721 
L 131.827045 140.145378 
L 132.726365 139.729331 
L 133.625685 137.988126 
L 134.525005 137.861008 
L 135.424325 136.509121 
L 136.323645 141.028204 
L 137.222965 142.446731 
L 138.122286 150.247836 
L 139.021606 151.826914 
L 139.920926 146.149716 
L 140.820246 146.590391 
L 141.719566 140.424055 
L 142.618886 144.315617 
L 143.518206 145.031788 
L 144.417526 147.691431 
L 145.316846 146.927851 
L 146.216166 148.168302 
L 147.115486 147.57484 
L 148.014806 145.436332 
L 148.914126 144.8181 
L 149.813446 149.825434 
L 150.712767 148.40817 
L 151.612087 150.12795 
L 152.511407 148.813009 
L 153.410727 157.293451 
L 155.209367 168.632471 
L 156.108687 160.910593 
L 157.008007 148.232166 
L 157.907327 147.406651 
L 158.806647 152.666121 
L 160.605287 143.937976 
L 161.504607 144.753602 
L 162.403927 137.464334 
L 163.303248 148.546564 
L 164.202568 147.344609 
L 165.101888 147.679147 
L 166.900528 150.15448 
L 167.799848 149.316954 
L 168.699168 144.323643 
L 169.598488 150.977153 
L 170.497808 158.524079 
L 171.397128 157.837215 
L 172.296448 156.285356 
L 173.195768 158.2849 
L 174.095088 161.580804 
L 174.994408 163.290116 
L 175.893729 162.985257 
L 176.793049 153.51253 
L 177.692369 146.575793 
L 178.591689 143.568698 
L 179.491009 144.597503 
L 180.390329 147.461509 
L 181.289649 153.573431 
L 182.188969 155.001867 
L 183.088289 155.575809 
L 183.987609 158.584372 
L 184.886929 162.471218 
L 185.786249 162.153253 
L 186.685569 160.375347 
L 187.584889 157.780306 
L 188.48421 159.803169 
L 189.38353 161.222441 
L 190.28285 156.713896 
L 191.18217 148.943223 
L 192.98081 161.944112 
L 193.88013 162.38531 
L 194.77945 157.820234 
L 195.67877 160.591567 
L 196.57809 162.25404 
L 197.47741 163.339247 
L 198.37673 160.537555 
L 200.17537 158.200082 
L 201.07469 160.552822 
L 201.974011 160.388794 
L 202.873331 165.278666 
L 203.772651 158.27134 
L 204.671971 143.061997 
L 205.571291 135.348597 
L 206.470611 131.162333 
L 208.269251 138.571736 
L 209.168571 145.659242 
L 210.067891 148.229873 
L 210.967211 145.268852 
L 211.866531 147.534897 
L 212.765851 147.07872 
L 213.665171 141.102899 
L 214.564492 136.220508 
L 215.463812 135.774686 
L 216.363132 137.752718 
L 217.262452 138.109974 
L 218.161772 138.894851 
L 219.061092 137.617536 
L 219.960412 139.030937 
L 220.859732 140.97789 
L 221.759052 130.276835 
L 222.658372 126.433436 
L 223.557692 130.894746 
L 224.457012 129.528859 
L 225.356332 125.531693 
L 226.255652 122.491527 
L 227.154973 123.904645 
L 228.054293 116.970178 
L 228.953613 117.764103 
L 229.852933 114.854268 
L 230.752253 112.719329 
L 231.651573 111.184106 
L 233.450213 113.28738 
L 234.349533 119.508455 
L 235.248853 124.634328 
L 236.148173 108.459371 
L 237.047493 108.673606 
L 237.946813 114.422244 
L 238.846133 117.014735 
L 239.745454 121.00684 
L 240.644774 124.313324 
L 241.544094 126.297071 
L 242.443414 127.604123 
L 243.342734 132.481031 
L 244.242054 132.454902 
L 245.141374 134.33637 
L 246.940014 128.040028 
L 247.839334 128.294102 
L 248.738654 125.358167 
L 249.637974 121.952421 
L 250.537294 126.739015 
L 251.436614 122.152323 
L 252.335935 127.784401 
L 253.235255 131.000262 
L 254.134575 128.223806 
L 255.033895 128.905923 
L 255.933215 131.699148 
L 256.832535 139.224509 
L 257.731855 137.564927 
L 258.631175 134.24974 
L 259.530495 133.605003 
L 260.429815 135.15188 
L 261.329135 131.504661 
L 262.228455 132.632266 
L 263.127775 134.613196 
L 264.027095 137.902366 
L 264.926415 143.531333 
L 265.825736 154.063951 
L 266.725056 158.867381 
L 267.624376 158.657119 
L 268.523696 159.26863 
L 269.423016 157.702414 
L 270.322336 162.368363 
L 271.221656 162.826724 
L 272.120976 159.968287 
L 273.020296 153.507935 
L 274.818936 157.260055 
L 275.718256 155.162543 
L 276.617576 152.288441 
L 278.416217 149.70619 
L 279.315537 149.329297 
L 280.214857 147.061902 
L 281.114177 147.407398 
L 282.013497 147.224446 
L 282.912817 140.901616 
L 283.812137 129.65487 
L 284.711457 125.669832 
L 285.610777 125.561978 
L 286.510097 124.933247 
L 287.409417 123.926552 
L 288.308737 132.404591 
L 289.208057 129.371889 
L 290.107377 134.145953 
L 291.006698 136.693083 
L 291.906018 138.286883 
L 292.805338 138.690917 
L 293.704658 130.639782 
L 294.603978 116.877783 
L 295.503298 128.105268 
L 296.402618 141.735809 
L 297.301938 140.204979 
L 298.201258 137.617308 
L 299.100578 134.155682 
L 299.999898 138.306264 
L 300.899218 143.914459 
L 301.798538 132.026358 
L 302.697858 135.611653 
L 303.597179 135.977505 
L 305.395819 139.769399 
L 306.295139 135.456947 
L 307.194459 142.029506 
L 308.993099 139.548031 
L 309.892419 143.313307 
L 310.791739 136.615344 
L 311.691059 143.379172 
L 312.590379 154.342911 
L 313.489699 152.82639 
L 314.389019 157.786559 
L 315.288339 155.701589 
L 316.18766 157.564131 
L 317.08698 153.261036 
L 317.9863 150.769955 
L 318.88562 142.131684 
L 319.78494 139.253242 
L 320.68426 140.261383 
L 321.58358 144.455691 
L 322.4829 147.571621 
L 323.38222 151.417961 
L 324.28154 151.246478 
L 325.18086 152.191448 
L 326.08018 155.460741 
L 326.9795 156.965261 
L 327.87882 156.395746 
L 328.778141 155.061007 
L 329.677461 160.440551 
L 330.576781 164.448669 
L 331.476101 165.351647 
L 332.375421 164.941627 
L 333.274741 158.043152 
L 334.174061 155.31485 
L 335.073381 154.065969 
L 335.972701 156.54641 
L 336.872021 150.044643 
L 337.771341 148.609884 
L 338.670661 152.29624 
L 339.569981 157.445915 
L 340.469301 155.177165 
L 341.368621 155.581948 
L 342.267942 157.908313 
L 343.167262 161.483175 
L 344.066582 160.279229 
L 344.965902 158.509055 
L 345.865222 157.565643 
L 346.764542 158.770004 
L 347.663862 157.801663 
L 348.563182 152.342322 
L 349.462502 151.196477 
L 350.361822 145.358872 
L 351.261142 137.804866 
L 352.160462 140.445447 
L 353.059782 139.755917 
L 353.959102 145.054547 
L 354.858423 141.084594 
L 355.757743 141.955224 
L 356.657063 144.969904 
L 357.556383 155.110116 
L 358.455703 158.469959 
L 359.355023 153.625441 
L 360.254343 138.873141 
L 361.153663 129.852145 
L 362.052983 130.563789 
L 362.952303 133.097239 
L 363.851623 133.472911 
L 364.750943 135.635232 
L 365.650263 134.175574 
L 366.549583 136.570878 
L 367.448904 133.267606 
L 368.348224 131.011042 
L 369.247544 131.784391 
L 370.146864 134.352431 
L 371.046184 137.60833 
L 371.945504 138.526337 
L 372.844824 132.519228 
L 373.744144 131.86947 
L 374.643464 134.962898 
L 375.542784 129.583671 
L 376.442104 131.714123 
L 377.341424 132.531042 
L 378.240744 135.916078 
L 379.140064 140.802327 
L 380.039385 137.937979 
L 380.938705 138.925473 
L 381.838025 143.942099 
L 382.737345 138.690981 
L 384.535985 137.708417 
L 385.435305 134.684306 
L 386.334625 134.569457 
L 387.233945 133.927645 
L 388.133265 134.050744 
L 389.032585 133.405503 
L 389.032585 133.405503 
" clip-path="url(#pca94dbcd5e)" style="fill: none; stroke: #ff0000; stroke-width: 1.5; stroke-linecap: square"/>
   </g>
   <g id="patch_9">
    <path d="M 48.145313 172.190118 
L 48.145313 93.921882 
" style="fill: none; stroke: #000000; stroke-width: 0.8; stroke-linejoin: miter; stroke-linecap: square"/>
   </g>
   <g id="patch_10">
    <path d="M 405.265313 172.190118 
L 405.265313 93.921882 
" style="fill: none; stroke: #000000; stroke-width: 0.8; stroke-linejoin: miter; stroke-linecap: square"/>
   </g>
   <g id="patch_11">
    <path d="M 48.145313 172.190118 
L 405.265313 172.190118 
" style="fill: none; stroke: #000000; stroke-width: 0.8; stroke-linejoin: miter; stroke-linecap: square"/>
   </g>
   <g id="patch_12">
    <path d="M 48.145313 93.921882 
L 405.265313 93.921882 
" style="fill: none; stroke: #000000; stroke-width: 0.8; stroke-linejoin: miter; stroke-linecap: square"/>
   </g>
  </g>
  <g id="axes_3">
   <g id="patch_13">
    <path d="M 48.145313 266.112 
L 405.265313 266.112 
L 405.265313 187.843765 
L 48.145313 187.843765 
z
" style="fill: #ffffff"/>
   </g>
   <g id="matplotlib.axis_5">
    <g id="xtick_17">
     <g id="line2d_29">
      <g>
       <use xlink:href="#m3afc26ad51" x="64.37804" y="266.112" style="stroke: #000000; stroke-width: 0.8"/>
      </g>
     </g>
     <g id="text_29">
      <!-- 0 -->
      <g transform="translate(61.19679 280.710437)scale(0.1 -0.1)">
       <use xlink:href="#DejaVuSans-30"/>
      </g>
     </g>
    </g>
    <g id="xtick_18">
     <g id="line2d_30">
      <g>
       <use xlink:href="#m3afc26ad51" x="109.219828" y="266.112" style="stroke: #000000; stroke-width: 0.8"/>
      </g>
     </g>
     <g id="text_30">
      <!-- 50 -->
      <g transform="translate(102.857328 280.710437)scale(0.1 -0.1)">
       <use xlink:href="#DejaVuSans-35"/>
       <use xlink:href="#DejaVuSans-30" x="63.623047"/>
      </g>
     </g>
    </g>
    <g id="xtick_19">
     <g id="line2d_31">
      <g>
       <use xlink:href="#m3afc26ad51" x="154.061616" y="266.112" style="stroke: #000000; stroke-width: 0.8"/>
      </g>
     </g>
     <g id="text_31">
      <!-- 100 -->
      <g transform="translate(144.517866 280.710437)scale(0.1 -0.1)">
       <use xlink:href="#DejaVuSans-31"/>
       <use xlink:href="#DejaVuSans-30" x="63.623047"/>
       <use xlink:href="#DejaVuSans-30" x="127.246094"/>
      </g>
     </g>
    </g>
    <g id="xtick_20">
     <g id="line2d_32">
      <g>
       <use xlink:href="#m3afc26ad51" x="198.903404" y="266.112" style="stroke: #000000; stroke-width: 0.8"/>
      </g>
     </g>
     <g id="text_32">
      <!-- 150 -->
      <g transform="translate(189.359654 280.710437)scale(0.1 -0.1)">
       <use xlink:href="#DejaVuSans-31"/>
       <use xlink:href="#DejaVuSans-35" x="63.623047"/>
       <use xlink:href="#DejaVuSans-30" x="127.246094"/>
      </g>
     </g>
    </g>
    <g id="xtick_21">
     <g id="line2d_33">
      <g>
       <use xlink:href="#m3afc26ad51" x="243.745192" y="266.112" style="stroke: #000000; stroke-width: 0.8"/>
      </g>
     </g>
     <g id="text_33">
      <!-- 200 -->
      <g transform="translate(234.201442 280.710437)scale(0.1 -0.1)">
       <use xlink:href="#DejaVuSans-32"/>
       <use xlink:href="#DejaVuSans-30" x="63.623047"/>
       <use xlink:href="#DejaVuSans-30" x="127.246094"/>
      </g>
     </g>
    </g>
    <g id="xtick_22">
     <g id="line2d_34">
      <g>
       <use xlink:href="#m3afc26ad51" x="288.58698" y="266.112" style="stroke: #000000; stroke-width: 0.8"/>
      </g>
     </g>
     <g id="text_34">
      <!-- 250 -->
      <g transform="translate(279.04323 280.710437)scale(0.1 -0.1)">
       <use xlink:href="#DejaVuSans-32"/>
       <use xlink:href="#DejaVuSans-35" x="63.623047"/>
       <use xlink:href="#DejaVuSans-30" x="127.246094"/>
      </g>
     </g>
    </g>
    <g id="xtick_23">
     <g id="line2d_35">
      <g>
       <use xlink:href="#m3afc26ad51" x="333.428768" y="266.112" style="stroke: #000000; stroke-width: 0.8"/>
      </g>
     </g>
     <g id="text_35">
      <!-- 300 -->
      <g transform="translate(323.885018 280.710437)scale(0.1 -0.1)">
       <use xlink:href="#DejaVuSans-33"/>
       <use xlink:href="#DejaVuSans-30" x="63.623047"/>
       <use xlink:href="#DejaVuSans-30" x="127.246094"/>
      </g>
     </g>
    </g>
    <g id="xtick_24">
     <g id="line2d_36">
      <g>
       <use xlink:href="#m3afc26ad51" x="378.270556" y="266.112" style="stroke: #000000; stroke-width: 0.8"/>
      </g>
     </g>
     <g id="text_36">
      <!-- 350 -->
      <g transform="translate(368.726806 280.710437)scale(0.1 -0.1)">
       <use xlink:href="#DejaVuSans-33"/>
       <use xlink:href="#DejaVuSans-35" x="63.623047"/>
       <use xlink:href="#DejaVuSans-30" x="127.246094"/>
      </g>
     </g>
    </g>
    <g id="text_37">
     <!-- keyframe number -->
     <g transform="translate(182.025625 294.388562)scale(0.1 -0.1)">
      <use xlink:href="#DejaVuSans-6b"/>
      <use xlink:href="#DejaVuSans-65" x="54.285156"/>
      <use xlink:href="#DejaVuSans-79" x="115.808594"/>
      <use xlink:href="#DejaVuSans-66" x="174.988281"/>
      <use xlink:href="#DejaVuSans-72" x="210.193359"/>
      <use xlink:href="#DejaVuSans-61" x="251.306641"/>
      <use xlink:href="#DejaVuSans-6d" x="312.585938"/>
      <use xlink:href="#DejaVuSans-65" x="409.998047"/>
      <use xlink:href="#DejaVuSans-20" x="471.521484"/>
      <use xlink:href="#DejaVuSans-6e" x="503.308594"/>
      <use xlink:href="#DejaVuSans-75" x="566.6875"/>
      <use xlink:href="#DejaVuSans-6d" x="630.066406"/>
      <use xlink:href="#DejaVuSans-62" x="727.478516"/>
      <use xlink:href="#DejaVuSans-65" x="790.955078"/>
      <use xlink:href="#DejaVuSans-72" x="852.478516"/>
     </g>
    </g>
   </g>
   <g id="matplotlib.axis_6">
    <g id="ytick_7">
     <g id="line2d_37">
      <g>
       <use xlink:href="#m3a4f8c9976" x="48.145313" y="256.984482" style="stroke: #000000; stroke-width: 0.8"/>
      </g>
     </g>
     <g id="text_38">
      <!-- −95 -->
      <g transform="translate(20.040625 260.783701)scale(0.1 -0.1)">
       <defs>
        <path id="DejaVuSans-39" d="M 703 97 
L 703 672 
Q 941 559 1184 500 
Q 1428 441 1663 441 
Q 2288 441 2617 861 
Q 2947 1281 2994 2138 
Q 2813 1869 2534 1725 
Q 2256 1581 1919 1581 
Q 1219 1581 811 2004 
Q 403 2428 403 3163 
Q 403 3881 828 4315 
Q 1253 4750 1959 4750 
Q 2769 4750 3195 4129 
Q 3622 3509 3622 2328 
Q 3622 1225 3098 567 
Q 2575 -91 1691 -91 
Q 1453 -91 1209 -44 
Q 966 3 703 97 
z
M 1959 2075 
Q 2384 2075 2632 2365 
Q 2881 2656 2881 3163 
Q 2881 3666 2632 3958 
Q 2384 4250 1959 4250 
Q 1534 4250 1286 3958 
Q 1038 3666 1038 3163 
Q 1038 2656 1286 2365 
Q 1534 2075 1959 2075 
z
" transform="scale(0.015625)"/>
       </defs>
       <use xlink:href="#DejaVuSans-2212"/>
       <use xlink:href="#DejaVuSans-39" x="83.789062"/>
       <use xlink:href="#DejaVuSans-35" x="147.412109"/>
      </g>
     </g>
    </g>
    <g id="ytick_8">
     <g id="line2d_38">
      <g>
       <use xlink:href="#m3a4f8c9976" x="48.145313" y="229.559197" style="stroke: #000000; stroke-width: 0.8"/>
      </g>
     </g>
     <g id="text_39">
      <!-- −90 -->
      <g transform="translate(20.040625 233.358416)scale(0.1 -0.1)">
       <use xlink:href="#DejaVuSans-2212"/>
       <use xlink:href="#DejaVuSans-39" x="83.789062"/>
       <use xlink:href="#DejaVuSans-30" x="147.412109"/>
      </g>
     </g>
    </g>
    <g id="ytick_9">
     <g id="line2d_39">
      <g>
       <use xlink:href="#m3a4f8c9976" x="48.145313" y="202.133912" style="stroke: #000000; stroke-width: 0.8"/>
      </g>
     </g>
     <g id="text_40">
      <!-- −85 -->
      <g transform="translate(20.040625 205.933131)scale(0.1 -0.1)">
       <defs>
        <path id="DejaVuSans-38" d="M 2034 2216 
Q 1584 2216 1326 1975 
Q 1069 1734 1069 1313 
Q 1069 891 1326 650 
Q 1584 409 2034 409 
Q 2484 409 2743 651 
Q 3003 894 3003 1313 
Q 3003 1734 2745 1975 
Q 2488 2216 2034 2216 
z
M 1403 2484 
Q 997 2584 770 2862 
Q 544 3141 544 3541 
Q 544 4100 942 4425 
Q 1341 4750 2034 4750 
Q 2731 4750 3128 4425 
Q 3525 4100 3525 3541 
Q 3525 3141 3298 2862 
Q 3072 2584 2669 2484 
Q 3125 2378 3379 2068 
Q 3634 1759 3634 1313 
Q 3634 634 3220 271 
Q 2806 -91 2034 -91 
Q 1263 -91 848 271 
Q 434 634 434 1313 
Q 434 1759 690 2068 
Q 947 2378 1403 2484 
z
M 1172 3481 
Q 1172 3119 1398 2916 
Q 1625 2713 2034 2713 
Q 2441 2713 2670 2916 
Q 2900 3119 2900 3481 
Q 2900 3844 2670 4047 
Q 2441 4250 2034 4250 
Q 1625 4250 1398 4047 
Q 1172 3844 1172 3481 
z
" transform="scale(0.015625)"/>
       </defs>
       <use xlink:href="#DejaVuSans-2212"/>
       <use xlink:href="#DejaVuSans-38" x="83.789062"/>
       <use xlink:href="#DejaVuSans-35" x="147.412109"/>
      </g>
     </g>
    </g>
    <g id="text_41">
     <!-- roll [degrees] -->
     <g transform="translate(13.960938 260.374757)rotate(-90)scale(0.1 -0.1)">
      <defs>
       <path id="DejaVuSans-6c" d="M 603 4863 
L 1178 4863 
L 1178 0 
L 603 0 
L 603 4863 
z
" transform="scale(0.015625)"/>
      </defs>
      <use xlink:href="#DejaVuSans-72"/>
      <use xlink:href="#DejaVuSans-6f" x="38.863281"/>
      <use xlink:href="#DejaVuSans-6c" x="100.044922"/>
      <use xlink:href="#DejaVuSans-6c" x="127.828125"/>
      <use xlink:href="#DejaVuSans-20" x="155.611328"/>
      <use xlink:href="#DejaVuSans-5b" x="187.398438"/>
      <use xlink:href="#DejaVuSans-64" x="226.412109"/>
      <use xlink:href="#DejaVuSans-65" x="289.888672"/>
      <use xlink:href="#DejaVuSans-67" x="351.412109"/>
      <use xlink:href="#DejaVuSans-72" x="414.888672"/>
      <use xlink:href="#DejaVuSans-65" x="453.751953"/>
      <use xlink:href="#DejaVuSans-65" x="515.275391"/>
      <use xlink:href="#DejaVuSans-73" x="576.798828"/>
      <use xlink:href="#DejaVuSans-5d" x="628.898438"/>
     </g>
    </g>
   </g>
   <g id="line2d_40">
    <path d="M 64.37804 262.554161 
L 65.27736 252.860979 
L 66.17668 249.844006 
L 67.076 254.572789 
L 68.87464 240.313738 
L 70.67328 233.991468 
L 71.5726 231.415097 
L 72.47192 229.852037 
L 73.37124 227.572462 
L 74.270561 226.51514 
L 76.069201 222.8937 
L 76.968521 220.36727 
L 77.867841 220.737594 
L 78.767161 218.885754 
L 79.666481 219.474134 
L 80.565801 218.655658 
L 81.465121 214.287538 
L 82.364441 212.198551 
L 83.263761 207.972153 
L 84.163081 207.806066 
L 85.062401 207.850338 
L 85.961721 203.001037 
L 86.861042 202.242521 
L 87.760362 209.166704 
L 89.559002 197.421958 
L 90.458322 197.037253 
L 91.357642 199.00269 
L 92.256962 196.062032 
L 93.156282 194.410591 
L 94.055602 194.973296 
L 94.954922 196.501423 
L 95.854242 197.753873 
L 96.753562 198.534205 
L 97.652882 203.183777 
L 98.552202 203.370017 
L 99.451523 200.752435 
L 100.350843 202.261388 
L 101.250163 201.896784 
L 102.149483 201.928286 
L 103.048803 203.167395 
L 103.948123 202.604403 
L 105.746763 206.187307 
L 106.646083 198.577145 
L 107.545403 195.424154 
L 108.444723 197.522836 
L 109.344043 212.011588 
L 110.243363 205.708334 
L 112.042004 194.360055 
L 112.941324 196.177988 
L 114.739964 221.518047 
L 116.538604 218.591116 
L 117.437924 216.738785 
L 118.337244 217.847306 
L 119.236564 216.469731 
L 120.135884 214.335599 
L 121.035204 213.374272 
L 121.934524 211.926227 
L 122.833844 211.155525 
L 123.733164 213.176292 
L 124.632484 215.583725 
L 125.531805 213.92536 
L 126.431125 214.211468 
L 127.330445 215.883632 
L 128.229765 218.253505 
L 129.129085 217.363962 
L 130.028405 216.840403 
L 130.927725 214.822529 
L 131.827045 214.68348 
L 132.726365 214.081599 
L 133.625685 215.431672 
L 134.525005 215.475219 
L 135.424325 216.449175 
L 136.323645 214.957706 
L 137.222965 214.862731 
L 138.122286 213.874331 
L 139.021606 213.816877 
L 139.920926 212.775879 
L 140.820246 218.363091 
L 141.719566 228.428831 
L 143.518206 222.121114 
L 144.417526 217.122405 
L 145.316846 211.145678 
L 146.216166 214.589545 
L 147.115486 209.437036 
L 148.014806 205.351935 
L 148.914126 203.428614 
L 149.813446 205.27673 
L 150.712767 200.679738 
L 151.612087 206.231565 
L 152.511407 201.343361 
L 153.410727 199.913411 
L 154.310047 201.287038 
L 155.209367 204.63539 
L 157.008007 214.313877 
L 157.907327 213.451962 
L 158.806647 214.731311 
L 159.705967 212.552768 
L 161.504607 208.835062 
L 162.403927 206.480223 
L 163.303248 204.851912 
L 164.202568 201.877293 
L 165.101888 200.380899 
L 166.001208 198.388092 
L 166.900528 197.04714 
L 167.799848 197.354351 
L 168.699168 195.654684 
L 169.598488 196.054099 
L 170.497808 198.175101 
L 171.397128 197.532751 
L 172.296448 197.73043 
L 173.195768 196.194658 
L 174.095088 197.74068 
L 174.994408 197.638978 
L 175.893729 198.501198 
L 176.793049 200.162127 
L 177.692369 201.536234 
L 178.591689 203.282821 
L 179.491009 203.826842 
L 181.289649 209.482321 
L 182.188969 209.989614 
L 183.088289 210.896441 
L 183.987609 210.017261 
L 184.886929 211.642261 
L 185.786249 211.909251 
L 186.685569 211.892519 
L 187.584889 212.907372 
L 188.48421 214.195659 
L 189.38353 214.234314 
L 190.28285 211.774216 
L 191.18217 212.715694 
L 192.08149 212.053845 
L 192.98081 211.539301 
L 193.88013 210.80237 
L 194.77945 211.863444 
L 195.67877 212.430924 
L 196.57809 215.6184 
L 197.47741 213.435335 
L 198.37673 214.959194 
L 199.27605 215.08747 
L 200.17537 208.348577 
L 201.974011 218.521271 
L 202.873331 212.675649 
L 203.772651 209.049033 
L 204.671971 208.901331 
L 205.571291 212.185865 
L 206.470611 213.572186 
L 207.369931 215.67719 
L 208.269251 220.386828 
L 209.168571 220.974541 
L 210.067891 222.246695 
L 210.967211 225.544922 
L 211.866531 224.608463 
L 212.765851 219.870381 
L 213.665171 219.736326 
L 214.564492 219.082405 
L 215.463812 218.598428 
L 216.363132 221.654653 
L 217.262452 220.148361 
L 218.161772 221.909355 
L 219.061092 222.203265 
L 219.960412 221.835253 
L 220.859732 222.107639 
L 221.759052 223.204241 
L 222.658372 220.722393 
L 223.557692 218.632077 
L 224.457012 218.095982 
L 225.356332 217.896507 
L 226.255652 218.51293 
L 227.154973 217.698411 
L 228.054293 217.368552 
L 228.953613 217.888977 
L 229.852933 215.031788 
L 230.752253 214.643728 
L 231.651573 212.295473 
L 232.550893 211.354726 
L 233.450213 209.552481 
L 234.349533 209.070907 
L 235.248853 206.877334 
L 236.148173 207.698609 
L 237.047493 209.907958 
L 237.946813 210.138131 
L 238.846133 212.935944 
L 239.745454 212.012366 
L 241.544094 212.971938 
L 242.443414 211.476933 
L 243.342734 211.232796 
L 244.242054 211.286985 
L 245.141374 214.019876 
L 246.040694 211.519848 
L 246.940014 211.256763 
L 247.839334 213.285135 
L 248.738654 211.417911 
L 249.637974 210.99435 
L 250.537294 206.004952 
L 251.436614 200.3805 
L 252.335935 202.684013 
L 253.235255 203.237647 
L 254.134575 203.628928 
L 255.033895 204.93958 
L 255.933215 207.354707 
L 256.832535 212.942856 
L 258.631175 220.825648 
L 259.530495 223.525869 
L 260.429815 223.727327 
L 261.329135 223.018354 
L 263.127775 228.134496 
L 264.027095 228.63789 
L 264.926415 228.207517 
L 265.825736 226.485397 
L 266.725056 228.785255 
L 267.624376 228.831885 
L 268.523696 230.946096 
L 269.423016 227.010778 
L 270.322336 227.138829 
L 271.221656 226.438246 
L 272.120976 227.267664 
L 273.020296 226.008345 
L 273.919616 228.099727 
L 274.818936 227.604782 
L 275.718256 226.039735 
L 276.617576 225.431212 
L 277.516896 225.327945 
L 278.416217 225.676998 
L 279.315537 225.626157 
L 280.214857 224.86363 
L 281.114177 222.831374 
L 282.013497 221.795213 
L 282.912817 217.12963 
L 283.812137 214.867134 
L 284.711457 210.152061 
L 285.610777 210.278414 
L 286.510097 207.544174 
L 287.409417 205.555567 
L 288.308737 207.881766 
L 289.208057 208.657308 
L 290.107377 208.28221 
L 291.006698 211.456966 
L 291.906018 213.315925 
L 292.805338 206.221493 
L 293.704658 201.061515 
L 294.603978 199.626375 
L 295.503298 199.831316 
L 296.402618 208.789009 
L 297.301938 215.504258 
L 298.201258 216.215454 
L 299.100578 214.30072 
L 299.999898 210.709148 
L 300.899218 208.610134 
L 301.798538 210.665474 
L 302.697858 211.461521 
L 304.496499 219.516758 
L 305.395819 217.564164 
L 306.295139 215.994526 
L 307.194459 218.210887 
L 308.093779 221.213826 
L 308.993099 222.693203 
L 309.892419 227.069584 
L 310.791739 230.363959 
L 311.691059 228.536028 
L 312.590379 223.138175 
L 313.489699 221.346817 
L 314.389019 220.610645 
L 315.288339 212.395832 
L 316.18766 206.252529 
L 318.88562 218.888655 
L 319.78494 218.250858 
L 320.68426 216.138135 
L 321.58358 216.877751 
L 322.4829 216.093677 
L 323.38222 220.719702 
L 324.28154 220.304909 
L 325.18086 221.854062 
L 326.08018 222.809551 
L 326.9795 224.672148 
L 327.87882 226.035077 
L 328.778141 227.986648 
L 329.677461 228.21191 
L 330.576781 231.107042 
L 331.476101 228.779051 
L 332.375421 229.407736 
L 334.174061 222.970503 
L 335.073381 221.260258 
L 335.972701 214.755568 
L 336.872021 210.752337 
L 337.771341 214.964243 
L 338.670661 220.327026 
L 339.569981 214.317044 
L 341.368621 216.483961 
L 342.267942 218.643629 
L 343.167262 220.410594 
L 344.066582 220.218767 
L 344.965902 223.282791 
L 345.865222 229.685729 
L 346.764542 228.810767 
L 347.663862 225.900812 
L 348.563182 227.429082 
L 349.462502 230.438484 
L 350.361822 229.736289 
L 351.261142 223.647323 
L 353.059782 218.720125 
L 353.959102 214.992484 
L 354.858423 217.151926 
L 355.757743 223.134901 
L 356.657063 225.708034 
L 357.556383 225.598408 
L 358.455703 225.870451 
L 359.355023 224.249706 
L 361.153663 223.720884 
L 362.052983 222.245173 
L 362.952303 218.995826 
L 363.851623 217.657797 
L 364.750943 218.604465 
L 365.650263 220.371776 
L 366.549583 220.172684 
L 367.448904 221.133692 
L 368.348224 219.669691 
L 369.247544 217.677143 
L 371.046184 218.185807 
L 371.945504 216.446151 
L 373.744144 210.342402 
L 374.643464 209.652544 
L 375.542784 209.248458 
L 376.442104 212.023547 
L 377.341424 213.179985 
L 378.240744 213.333819 
L 379.140064 215.237266 
L 380.039385 216.764363 
L 380.938705 214.689681 
L 381.838025 211.200372 
L 382.737345 213.539092 
L 383.636665 212.809083 
L 385.435305 212.019277 
L 386.334625 209.448404 
L 387.233945 209.994265 
L 388.133265 211.660211 
L 389.032585 210.465011 
L 389.032585 210.465011 
" clip-path="url(#p40e8d0a3f8)" style="fill: none; stroke: #008000; stroke-width: 1.5; stroke-linecap: square"/>
   </g>
   <g id="line2d_41">
    <path d="M 64.37804 262.554353 
L 65.27736 253.467516 
L 66.17668 249.789884 
L 67.076 254.864997 
L 67.97532 248.118139 
L 68.87464 239.370236 
L 69.77396 234.447456 
L 70.67328 232.884027 
L 71.5726 230.577226 
L 72.47192 226.566605 
L 73.37124 225.768693 
L 74.270561 224.640158 
L 75.169881 223.236558 
L 76.069201 220.624102 
L 76.968521 217.574972 
L 77.867841 218.936329 
L 78.767161 216.487696 
L 80.565801 215.401253 
L 81.465121 211.813068 
L 82.364441 209.291847 
L 83.263761 205.328477 
L 84.163081 205.050223 
L 85.062401 205.108937 
L 85.961721 199.857481 
L 86.861042 199.410058 
L 87.760362 205.137013 
L 88.659682 200.658543 
L 89.559002 194.327744 
L 90.458322 192.736498 
L 91.357642 196.1053 
L 92.256962 193.523584 
L 93.156282 191.720913 
L 94.055602 191.401412 
L 94.954922 193.66215 
L 95.854242 194.479082 
L 96.753562 195.491508 
L 97.652882 201.075724 
L 98.552202 201.592184 
L 99.451523 198.995121 
L 100.350843 200.619194 
L 101.250163 199.959415 
L 102.149483 201.179529 
L 103.048803 200.6527 
L 104.847443 201.973162 
L 105.746763 204.035307 
L 106.646083 197.34162 
L 107.545403 194.410229 
L 108.444723 195.658448 
L 109.344043 209.347159 
L 111.142683 199.140094 
L 112.042004 194.767795 
L 112.941324 194.722115 
L 113.840644 205.758431 
L 114.739964 220.245179 
L 115.639284 219.415963 
L 117.437924 216.525138 
L 118.337244 217.489193 
L 119.236564 216.702487 
L 120.135884 214.707972 
L 121.035204 214.318773 
L 121.934524 212.300681 
L 122.833844 211.211264 
L 123.733164 213.409947 
L 124.632484 215.943405 
L 125.531805 214.580675 
L 126.431125 214.699745 
L 127.330445 216.370906 
L 128.229765 219.039645 
L 129.129085 217.893304 
L 130.028405 217.670893 
L 130.927725 215.752197 
L 131.827045 215.286782 
L 132.726365 214.64747 
L 133.625685 215.874342 
L 135.424325 217.060941 
L 136.323645 215.366411 
L 137.222965 215.940772 
L 138.122286 215.913352 
L 139.021606 214.319719 
L 139.920926 213.060542 
L 140.820246 218.51258 
L 141.719566 228.457868 
L 142.618886 227.467686 
L 143.518206 223.125347 
L 145.316846 210.615691 
L 146.216166 213.704271 
L 148.014806 204.461636 
L 148.914126 203.534481 
L 149.813446 205.03157 
L 150.712767 199.404147 
L 151.612087 205.04198 
L 152.511407 200.082029 
L 153.410727 198.688102 
L 154.310047 199.946599 
L 155.209367 203.499031 
L 156.108687 207.655015 
L 157.008007 212.868569 
L 157.907327 212.531275 
L 158.806647 213.676296 
L 159.705967 212.293973 
L 160.605287 210.319441 
L 161.504607 208.046191 
L 162.403927 206.507011 
L 163.303248 204.426181 
L 164.202568 201.411893 
L 165.101888 199.837797 
L 166.001208 197.99232 
L 166.900528 196.640012 
L 167.799848 196.945924 
L 168.699168 194.385617 
L 169.598488 195.038451 
L 170.497808 197.509386 
L 171.397128 196.264908 
L 172.296448 196.813869 
L 173.195768 195.691433 
L 174.095088 196.718015 
L 174.994408 196.801648 
L 176.793049 199.295556 
L 178.591689 202.921461 
L 179.491009 203.218632 
L 180.390329 206.564406 
L 181.289649 209.272775 
L 182.188969 209.577308 
L 183.088289 210.73562 
L 183.987609 209.154509 
L 184.886929 211.386621 
L 185.786249 211.228886 
L 186.685569 211.371029 
L 187.584889 212.125797 
L 188.48421 213.636916 
L 189.38353 213.882725 
L 190.28285 211.841105 
L 191.18217 212.237421 
L 192.08149 211.80232 
L 193.88013 209.699537 
L 194.77945 210.512899 
L 196.57809 214.536186 
L 197.47741 214.936277 
L 198.37673 215.508564 
L 199.27605 215.026391 
L 200.17537 208.372932 
L 201.07469 214.104812 
L 201.974011 218.001812 
L 202.873331 211.861857 
L 203.772651 208.792477 
L 204.671971 209.866255 
L 206.470611 213.073322 
L 207.369931 215.231922 
L 208.269251 219.914251 
L 209.168571 221.235632 
L 210.067891 222.012456 
L 210.967211 225.408402 
L 211.866531 224.335079 
L 212.765851 220.012934 
L 213.665171 219.877685 
L 214.564492 220.369677 
L 215.463812 218.780876 
L 216.363132 220.387423 
L 217.262452 220.347854 
L 218.161772 221.012511 
L 219.061092 222.2163 
L 219.960412 222.360417 
L 220.859732 221.913286 
L 221.759052 222.79294 
L 222.658372 220.782463 
L 223.557692 218.415936 
L 224.457012 218.425378 
L 225.356332 218.210577 
L 226.255652 218.379338 
L 227.154973 218.107739 
L 228.054293 218.165195 
L 228.953613 217.885894 
L 229.852933 215.922304 
L 230.752253 214.673377 
L 231.651573 212.22217 
L 233.450213 209.717895 
L 234.349533 208.119692 
L 235.248853 206.105098 
L 236.148173 206.707973 
L 237.047493 209.120002 
L 237.946813 208.735398 
L 238.846133 212.125123 
L 239.745454 211.730912 
L 240.644774 211.864682 
L 241.544094 213.068587 
L 242.443414 210.61479 
L 243.342734 210.470657 
L 244.242054 210.695423 
L 245.141374 212.34094 
L 246.040694 211.080413 
L 246.940014 210.052568 
L 247.839334 211.18867 
L 248.738654 210.384628 
L 249.637974 209.750543 
L 251.436614 199.076372 
L 252.335935 200.41904 
L 253.235255 200.954693 
L 254.134575 200.842626 
L 255.033895 201.932604 
L 255.933215 205.49494 
L 256.832535 211.742061 
L 257.731855 215.371038 
L 258.631175 218.086538 
L 259.530495 221.472218 
L 260.429815 221.908646 
L 261.329135 220.706308 
L 263.127775 227.2578 
L 264.027095 227.447385 
L 264.926415 227.323654 
L 265.825736 225.122549 
L 266.725056 227.307759 
L 267.624376 227.855607 
L 268.523696 230.461352 
L 269.423016 225.656818 
L 270.322336 226.525683 
L 271.221656 225.260715 
L 272.120976 226.065012 
L 273.020296 224.722347 
L 273.919616 226.526097 
L 274.818936 225.769561 
L 275.718256 224.507085 
L 276.617576 223.864364 
L 277.516896 224.057307 
L 278.416217 224.056345 
L 279.315537 223.862353 
L 280.214857 222.650978 
L 281.114177 221.224862 
L 282.013497 220.125067 
L 282.912817 216.286346 
L 283.812137 213.090228 
L 284.711457 208.435184 
L 285.610777 207.498735 
L 286.510097 206.212998 
L 287.409417 204.534055 
L 288.308737 207.342742 
L 289.208057 206.555682 
L 290.107377 207.56124 
L 291.006698 210.543711 
L 291.906018 212.73286 
L 292.805338 205.834708 
L 293.704658 197.258195 
L 294.603978 197.698074 
L 295.503298 196.336288 
L 296.402618 207.157975 
L 297.301938 214.403761 
L 298.201258 216.419425 
L 299.100578 214.598978 
L 299.999898 209.242066 
L 300.899218 207.260026 
L 301.798538 208.589514 
L 302.697858 209.641586 
L 304.496499 218.032794 
L 306.295139 215.348626 
L 307.194459 217.271969 
L 308.093779 220.29862 
L 308.993099 221.452953 
L 309.892419 226.446888 
L 310.791739 229.721341 
L 311.691059 228.636672 
L 312.590379 222.442105 
L 313.489699 220.921272 
L 314.389019 220.087258 
L 315.288339 211.335434 
L 316.18766 204.994293 
L 317.08698 208.855198 
L 317.9863 213.637717 
L 318.88562 217.173201 
L 319.78494 217.163206 
L 320.68426 214.817976 
L 321.58358 216.046015 
L 322.4829 215.605219 
L 323.38222 219.168648 
L 324.28154 219.824842 
L 325.18086 221.59557 
L 326.08018 222.451143 
L 328.778141 227.616155 
L 329.677461 227.444284 
L 330.576781 230.117898 
L 331.476101 229.641904 
L 332.375421 228.954573 
L 333.274741 227.305553 
L 334.174061 222.600789 
L 335.073381 220.385013 
L 335.972701 213.960727 
L 336.872021 209.674734 
L 337.771341 213.862887 
L 338.670661 220.614063 
L 339.569981 213.553523 
L 340.469301 214.695637 
L 342.267942 218.202856 
L 343.167262 219.249495 
L 344.066582 218.796318 
L 344.965902 221.542989 
L 345.865222 228.770454 
L 346.764542 227.74688 
L 347.663862 225.04402 
L 348.563182 225.836188 
L 349.462502 228.176122 
L 350.361822 227.723896 
L 351.261142 222.087218 
L 353.059782 216.229761 
L 353.959102 212.715126 
L 354.858423 214.956535 
L 355.757743 220.257345 
L 356.657063 223.336514 
L 357.556383 223.656635 
L 358.455703 224.249961 
L 359.355023 222.223531 
L 361.153663 221.137696 
L 362.052983 220.066611 
L 362.952303 216.621589 
L 363.851623 215.077945 
L 364.750943 216.082922 
L 365.650263 217.863427 
L 366.549583 217.773584 
L 367.448904 218.687955 
L 368.348224 217.00118 
L 369.247544 214.927992 
L 370.146864 215.470677 
L 371.046184 215.315791 
L 371.945504 213.645122 
L 372.844824 209.866857 
L 373.744144 206.951838 
L 374.643464 206.596879 
L 375.542784 205.740888 
L 377.341424 209.321237 
L 378.240744 209.564688 
L 379.140064 212.397558 
L 380.039385 213.505436 
L 380.938705 211.203759 
L 381.838025 207.824692 
L 382.737345 210.417484 
L 383.636665 209.000707 
L 384.535985 208.895457 
L 385.435305 208.43553 
L 386.334625 206.248289 
L 387.233945 206.581922 
L 388.133265 208.381843 
L 389.032585 206.966895 
L 389.032585 206.966895 
" clip-path="url(#p40e8d0a3f8)" style="fill: none; stroke: #ff0000; stroke-width: 1.5; stroke-linecap: square"/>
   </g>
   <g id="patch_14">
    <path d="M 48.145313 266.112 
L 48.145313 187.843765 
" style="fill: none; stroke: #000000; stroke-width: 0.8; stroke-linejoin: miter; stroke-linecap: square"/>
   </g>
   <g id="patch_15">
    <path d="M 405.265313 266.112 
L 405.265313 187.843765 
" style="fill: none; stroke: #000000; stroke-width: 0.8; stroke-linejoin: miter; stroke-linecap: square"/>
   </g>
   <g id="patch_16">
    <path d="M 48.145313 266.112 
L 405.265313 266.112 
" style="fill: none; stroke: #000000; stroke-width: 0.8; stroke-linejoin: miter; stroke-linecap: square"/>
   </g>
   <g id="patch_17">
    <path d="M 48.145313 187.843765 
L 405.265313 187.843765 
" style="fill: none; stroke: #000000; stroke-width: 0.8; stroke-linejoin: miter; stroke-linecap: square"/>
   </g>
  </g>
 </g>
 <defs>
  <clipPath id="pd962917b71">
   <rect x="48.145313" y="-0" width="357.12" height="78.268235"/>
  </clipPath>
  <clipPath id="pca94dbcd5e">
   <rect x="48.145313" y="93.921882" width="357.12" height="78.268235"/>
  </clipPath>
  <clipPath id="p40e8d0a3f8">
   <rect x="48.145313" y="187.843765" width="357.12" height="78.268235"/>
  </clipPath>
 </defs>
</svg>
