<?xml version="1.0" encoding="utf-8" standalone="no"?>
<!DOCTYPE svg PUBLIC "-//W3C//DTD SVG 1.1//EN"
  "http://www.w3.org/Graphics/SVG/1.1/DTD/svg11.dtd">
<svg xmlns:xlink="http://www.w3.org/1999/xlink" width="357.656018pt" height="351.438563pt" viewBox="0 0 357.656018 351.438563" xmlns="http://www.w3.org/2000/svg" version="1.1">
 <metadata>
  <rdf:RDF xmlns:dc="http://purl.org/dc/elements/1.1/" xmlns:cc="http://creativecommons.org/ns#" xmlns:rdf="http://www.w3.org/1999/02/22-rdf-syntax-ns#">
   <cc:Work>
    <dc:type rdf:resource="http://purl.org/dc/dcmitype/StillImage"/>
    <dc:date>2022-02-10T00:11:01.550206</dc:date>
    <dc:format>image/svg+xml</dc:format>
    <dc:creator>
     <cc:Agent>
      <dc:title>Matplotlib v3.5.1, https://matplotlib.org/</dc:title>
     </cc:Agent>
    </dc:creator>
   </cc:Work>
  </rdf:RDF>
 </metadata>
 <defs>
  <style type="text/css">*{stroke-linejoin: round; stroke-linecap: butt}</style>
 </defs>
 <g id="figure_1">
  <g id="patch_1">
   <path d="M 0 351.438563 
L 357.656018 351.438563 
L 357.656018 0 
L 0 0 
z
" style="fill: #ffffff"/>
  </g>
  <g id="patch_2">
   <path d="M 0 345.6 
L 345.6 345.6 
L 345.6 -0 
L 0 -0 
z
" style="fill: #ffffff"/>
  </g>
  <g id="pane3d_1">
   <g id="patch_3">
    <path d="M 43.64011 276.021761 
L 104.335521 97.213163 
L 98.66794 8.134987 
L 32.634775 196.200845 
" style="fill: #f2f2f2; opacity: 0.5; stroke: #f2f2f2; stroke-linejoin: miter"/>
   </g>
  </g>
  <g id="pane3d_2">
   <g id="patch_4">
    <path d="M 104.335521 97.213163 
L 305.984932 143.221817 
L 316.100364 56.368059 
L 98.66794 8.134987 
" style="fill: #e6e6e6; opacity: 0.5; stroke: #e6e6e6; stroke-linejoin: miter"/>
   </g>
  </g>
  <g id="pane3d_3">
   <g id="patch_5">
    <path d="M 43.64011 276.021761 
L 255.924889 327.418502 
L 305.984932 143.221817 
L 104.335521 97.213163 
" style="fill: #ececec; opacity: 0.5; stroke: #ececec; stroke-linejoin: miter"/>
   </g>
  </g>
  <g id="axis3d_1">
   <g id="line2d_1">
    <path d="M 43.64011 276.021761 
L 255.924889 327.418502 
" style="fill: none; stroke: #000000; stroke-width: 0.8; stroke-linecap: square"/>
   </g>
   <g id="text_1">
    <!-- x [m] -->
    <g transform="translate(118.043506 337.34524)rotate(-346.389891)scale(0.17 -0.17)">
     <defs>
      <path id="DejaVuSans-78" d="M 3513 3500 
L 2247 1797 
L 3578 0 
L 2900 0 
L 1881 1375 
L 863 0 
L 184 0 
L 1544 1831 
L 300 3500 
L 978 3500 
L 1906 2253 
L 2834 3500 
L 3513 3500 
z
" transform="scale(0.015625)"/>
      <path id="DejaVuSans-20" transform="scale(0.015625)"/>
      <path id="DejaVuSans-5b" d="M 550 4863 
L 1875 4863 
L 1875 4416 
L 1125 4416 
L 1125 -397 
L 1875 -397 
L 1875 -844 
L 550 -844 
L 550 4863 
z
" transform="scale(0.015625)"/>
      <path id="DejaVuSans-6d" d="M 3328 2828 
Q 3544 3216 3844 3400 
Q 4144 3584 4550 3584 
Q 5097 3584 5394 3201 
Q 5691 2819 5691 2113 
L 5691 0 
L 5113 0 
L 5113 2094 
Q 5113 2597 4934 2840 
Q 4756 3084 4391 3084 
Q 3944 3084 3684 2787 
Q 3425 2491 3425 1978 
L 3425 0 
L 2847 0 
L 2847 2094 
Q 2847 2600 2669 2842 
Q 2491 3084 2119 3084 
Q 1678 3084 1418 2786 
Q 1159 2488 1159 1978 
L 1159 0 
L 581 0 
L 581 3500 
L 1159 3500 
L 1159 2956 
Q 1356 3278 1631 3431 
Q 1906 3584 2284 3584 
Q 2666 3584 2933 3390 
Q 3200 3197 3328 2828 
z
" transform="scale(0.015625)"/>
      <path id="DejaVuSans-5d" d="M 1947 4863 
L 1947 -844 
L 622 -844 
L 622 -397 
L 1369 -397 
L 1369 4416 
L 622 4416 
L 622 4863 
L 1947 4863 
z
" transform="scale(0.015625)"/>
     </defs>
     <use xlink:href="#DejaVuSans-78"/>
     <use xlink:href="#DejaVuSans-20" x="59.179688"/>
     <use xlink:href="#DejaVuSans-5b" x="90.966797"/>
     <use xlink:href="#DejaVuSans-6d" x="129.980469"/>
     <use xlink:href="#DejaVuSans-5d" x="227.392578"/>
    </g>
   </g>
   <g id="Line3DCollection_1">
    <path d="M 51.775765 277.991502 
L 112.069693 98.977804 
L 106.998427 9.98294 
" style="fill: none; stroke: #b0b0b0; stroke-width: 0.8"/>
    <path d="M 94.453733 288.32436 
L 152.633581 108.232926 
L 150.701637 19.677631 
" style="fill: none; stroke: #b0b0b0; stroke-width: 0.8"/>
    <path d="M 137.396144 298.721243 
L 193.435285 117.542309 
L 194.681062 29.433594 
" style="fill: none; stroke: #b0b0b0; stroke-width: 0.8"/>
    <path d="M 180.605466 309.182749 
L 234.476904 126.906431 
L 238.93933 39.251413 
" style="fill: none; stroke: #b0b0b0; stroke-width: 0.8"/>
    <path d="M 224.084193 319.70948 
L 275.76056 136.325776 
L 283.4791 49.131678 
" style="fill: none; stroke: #b0b0b0; stroke-width: 0.8"/>
   </g>
   <g id="xtick_1">
    <g id="line2d_2">
     <path d="M 52.285155 276.479115 
L 50.755602 281.020386 
" style="fill: none; stroke: #000000; stroke-width: 0.8; stroke-linecap: square"/>
    </g>
    <g id="text_2">
     <!-- 1.0 -->
     <g transform="translate(40.369177 302.357992)scale(0.1 -0.1)">
      <defs>
       <path id="DejaVuSans-31" d="M 794 531 
L 1825 531 
L 1825 4091 
L 703 3866 
L 703 4441 
L 1819 4666 
L 2450 4666 
L 2450 531 
L 3481 531 
L 3481 0 
L 794 0 
L 794 531 
z
" transform="scale(0.015625)"/>
       <path id="DejaVuSans-2e" d="M 684 794 
L 1344 794 
L 1344 0 
L 684 0 
L 684 794 
z
" transform="scale(0.015625)"/>
       <path id="DejaVuSans-30" d="M 2034 4250 
Q 1547 4250 1301 3770 
Q 1056 3291 1056 2328 
Q 1056 1369 1301 889 
Q 1547 409 2034 409 
Q 2525 409 2770 889 
Q 3016 1369 3016 2328 
Q 3016 3291 2770 3770 
Q 2525 4250 2034 4250 
z
M 2034 4750 
Q 2819 4750 3233 4129 
Q 3647 3509 3647 2328 
Q 3647 1150 3233 529 
Q 2819 -91 2034 -91 
Q 1250 -91 836 529 
Q 422 1150 422 2328 
Q 422 3509 836 4129 
Q 1250 4750 2034 4750 
z
" transform="scale(0.015625)"/>
      </defs>
      <use xlink:href="#DejaVuSans-31"/>
      <use xlink:href="#DejaVuSans-2e" x="63.623047"/>
      <use xlink:href="#DejaVuSans-30" x="95.410156"/>
     </g>
    </g>
   </g>
   <g id="xtick_2">
    <g id="line2d_3">
     <path d="M 94.945343 286.802618 
L 93.469174 291.371991 
" style="fill: none; stroke: #000000; stroke-width: 0.8; stroke-linecap: square"/>
    </g>
    <g id="text_3">
     <!-- 1.1 -->
     <g transform="translate(82.98323 312.72968)scale(0.1 -0.1)">
      <use xlink:href="#DejaVuSans-31"/>
      <use xlink:href="#DejaVuSans-2e" x="63.623047"/>
      <use xlink:href="#DejaVuSans-31" x="95.410156"/>
     </g>
    </g>
   </g>
   <g id="xtick_3">
    <g id="line2d_4">
     <path d="M 137.869744 297.19006 
L 136.447651 301.787796 
" style="fill: none; stroke: #000000; stroke-width: 0.8; stroke-linecap: square"/>
    </g>
    <g id="text_4">
     <!-- 1.2 -->
     <g transform="translate(125.861 323.165554)scale(0.1 -0.1)">
      <defs>
       <path id="DejaVuSans-32" d="M 1228 531 
L 3431 531 
L 3431 0 
L 469 0 
L 469 531 
Q 828 903 1448 1529 
Q 2069 2156 2228 2338 
Q 2531 2678 2651 2914 
Q 2772 3150 2772 3378 
Q 2772 3750 2511 3984 
Q 2250 4219 1831 4219 
Q 1534 4219 1204 4116 
Q 875 4013 500 3803 
L 500 4441 
Q 881 4594 1212 4672 
Q 1544 4750 1819 4750 
Q 2544 4750 2975 4387 
Q 3406 4025 3406 3419 
Q 3406 3131 3298 2873 
Q 3191 2616 2906 2266 
Q 2828 2175 2409 1742 
Q 1991 1309 1228 531 
z
" transform="scale(0.015625)"/>
      </defs>
      <use xlink:href="#DejaVuSans-31"/>
      <use xlink:href="#DejaVuSans-2e" x="63.623047"/>
      <use xlink:href="#DejaVuSans-32" x="95.410156"/>
     </g>
    </g>
   </g>
   <g id="xtick_4">
    <g id="line2d_5">
     <path d="M 181.060821 307.642035 
L 179.693507 312.268399 
" style="fill: none; stroke: #000000; stroke-width: 0.8; stroke-linecap: square"/>
    </g>
    <g id="text_5">
     <!-- 1.3 -->
     <g transform="translate(169.004943 333.66621)scale(0.1 -0.1)">
      <defs>
       <path id="DejaVuSans-33" d="M 2597 2516 
Q 3050 2419 3304 2112 
Q 3559 1806 3559 1356 
Q 3559 666 3084 287 
Q 2609 -91 1734 -91 
Q 1441 -91 1130 -33 
Q 819 25 488 141 
L 488 750 
Q 750 597 1062 519 
Q 1375 441 1716 441 
Q 2309 441 2620 675 
Q 2931 909 2931 1356 
Q 2931 1769 2642 2001 
Q 2353 2234 1838 2234 
L 1294 2234 
L 1294 2753 
L 1863 2753 
Q 2328 2753 2575 2939 
Q 2822 3125 2822 3475 
Q 2822 3834 2567 4026 
Q 2313 4219 1838 4219 
Q 1578 4219 1281 4162 
Q 984 4106 628 3988 
L 628 4550 
Q 988 4650 1302 4700 
Q 1616 4750 1894 4750 
Q 2613 4750 3031 4423 
Q 3450 4097 3450 3541 
Q 3450 3153 3228 2886 
Q 3006 2619 2597 2516 
z
" transform="scale(0.015625)"/>
      </defs>
      <use xlink:href="#DejaVuSans-31"/>
      <use xlink:href="#DejaVuSans-2e" x="63.623047"/>
      <use xlink:href="#DejaVuSans-33" x="95.410156"/>
     </g>
    </g>
   </g>
   <g id="xtick_5">
    <g id="line2d_6">
     <path d="M 224.521067 318.159148 
L 223.209244 322.814409 
" style="fill: none; stroke: #000000; stroke-width: 0.8; stroke-linecap: square"/>
    </g>
    <g id="text_6">
     <!-- 1.4 -->
     <g transform="translate(212.417546 344.232255)scale(0.1 -0.1)">
      <defs>
       <path id="DejaVuSans-34" d="M 2419 4116 
L 825 1625 
L 2419 1625 
L 2419 4116 
z
M 2253 4666 
L 3047 4666 
L 3047 1625 
L 3713 1625 
L 3713 1100 
L 3047 1100 
L 3047 0 
L 2419 0 
L 2419 1100 
L 313 1100 
L 313 1709 
L 2253 4666 
z
" transform="scale(0.015625)"/>
      </defs>
      <use xlink:href="#DejaVuSans-31"/>
      <use xlink:href="#DejaVuSans-2e" x="63.623047"/>
      <use xlink:href="#DejaVuSans-34" x="95.410156"/>
     </g>
    </g>
   </g>
  </g>
  <g id="axis3d_2">
   <g id="line2d_7">
    <path d="M 305.984932 143.221817 
L 255.924889 327.418502 
" style="fill: none; stroke: #000000; stroke-width: 0.8; stroke-linecap: square"/>
   </g>
   <g id="text_7">
    <!-- y [m] -->
    <g transform="translate(308.079163 273.101756)rotate(-74.795681)scale(0.17 -0.17)">
     <defs>
      <path id="DejaVuSans-79" d="M 2059 -325 
Q 1816 -950 1584 -1140 
Q 1353 -1331 966 -1331 
L 506 -1331 
L 506 -850 
L 844 -850 
Q 1081 -850 1212 -737 
Q 1344 -625 1503 -206 
L 1606 56 
L 191 3500 
L 800 3500 
L 1894 763 
L 2988 3500 
L 3597 3500 
L 2059 -325 
z
" transform="scale(0.015625)"/>
     </defs>
     <use xlink:href="#DejaVuSans-79"/>
     <use xlink:href="#DejaVuSans-20" x="59.179688"/>
     <use xlink:href="#DejaVuSans-5b" x="90.966797"/>
     <use xlink:href="#DejaVuSans-6d" x="129.980469"/>
     <use xlink:href="#DejaVuSans-5d" x="227.392578"/>
    </g>
   </g>
   <g id="Line3DCollection_2">
    <path d="M 37.049297 183.628057 
L 47.681203 264.116705 
L 259.260438 315.145298 
" style="fill: none; stroke: #b0b0b0; stroke-width: 0.8"/>
    <path d="M 46.198915 157.569475 
L 56.064385 239.419864 
L 266.178816 289.689023 
" style="fill: none; stroke: #b0b0b0; stroke-width: 0.8"/>
    <path d="M 55.203027 131.9253 
L 64.324195 215.086474 
L 272.993843 264.613028 
" style="fill: none; stroke: #b0b0b0; stroke-width: 0.8"/>
    <path d="M 64.065077 106.685724 
L 72.463337 191.108571 
L 279.707818 239.908855 
" style="fill: none; stroke: #b0b0b0; stroke-width: 0.8"/>
    <path d="M 72.788401 81.841246 
L 80.484437 167.478422 
L 286.322972 215.568295 
" style="fill: none; stroke: #b0b0b0; stroke-width: 0.8"/>
    <path d="M 81.376232 57.382663 
L 88.390044 144.188516 
L 292.841471 191.583379 
" style="fill: none; stroke: #b0b0b0; stroke-width: 0.8"/>
    <path d="M 89.831701 33.301051 
L 96.182634 121.231557 
L 299.265418 167.946368 
" style="fill: none; stroke: #b0b0b0; stroke-width: 0.8"/>
   </g>
   <g id="xtick_6">
    <g id="line2d_8">
     <path d="M 257.54209 314.730868 
L 262.698398 315.974464 
" style="fill: none; stroke: #000000; stroke-width: 0.8; stroke-linecap: square"/>
    </g>
    <g id="text_8">
     <!-- 0.3 -->
     <g transform="translate(264.579581 330.598097)scale(0.1 -0.1)">
      <use xlink:href="#DejaVuSans-30"/>
      <use xlink:href="#DejaVuSans-2e" x="63.623047"/>
      <use xlink:href="#DejaVuSans-33" x="95.410156"/>
     </g>
    </g>
   </g>
   <g id="xtick_7">
    <g id="line2d_9">
     <path d="M 264.472556 289.280806 
L 269.59258 290.505755 
" style="fill: none; stroke: #000000; stroke-width: 0.8; stroke-linecap: square"/>
    </g>
    <g id="text_9">
     <!-- 0.4 -->
     <g transform="translate(271.371579 305.18192)scale(0.1 -0.1)">
      <use xlink:href="#DejaVuSans-30"/>
      <use xlink:href="#DejaVuSans-2e" x="63.623047"/>
      <use xlink:href="#DejaVuSans-34" x="95.410156"/>
     </g>
    </g>
   </g>
   <g id="xtick_8">
    <g id="line2d_10">
     <path d="M 271.299503 264.210887 
L 276.383748 265.417603 
" style="fill: none; stroke: #000000; stroke-width: 0.8; stroke-linecap: square"/>
    </g>
    <g id="text_10">
     <!-- 0.5 -->
     <g transform="translate(278.062506 280.143959)scale(0.1 -0.1)">
      <defs>
       <path id="DejaVuSans-35" d="M 691 4666 
L 3169 4666 
L 3169 4134 
L 1269 4134 
L 1269 2991 
Q 1406 3038 1543 3061 
Q 1681 3084 1819 3084 
Q 2600 3084 3056 2656 
Q 3513 2228 3513 1497 
Q 3513 744 3044 326 
Q 2575 -91 1722 -91 
Q 1428 -91 1123 -41 
Q 819 9 494 109 
L 494 744 
Q 775 591 1075 516 
Q 1375 441 1709 441 
Q 2250 441 2565 725 
Q 2881 1009 2881 1497 
Q 2881 1984 2565 2268 
Q 2250 2553 1709 2553 
Q 1456 2553 1204 2497 
Q 953 2441 691 2322 
L 691 4666 
z
" transform="scale(0.015625)"/>
      </defs>
      <use xlink:href="#DejaVuSans-30"/>
      <use xlink:href="#DejaVuSans-2e" x="63.623047"/>
      <use xlink:href="#DejaVuSans-35" x="95.410156"/>
     </g>
    </g>
   </g>
   <g id="xtick_9">
    <g id="line2d_11">
     <path d="M 278.025234 239.512654 
L 283.074194 240.701543 
" style="fill: none; stroke: #000000; stroke-width: 0.8; stroke-linecap: square"/>
    </g>
    <g id="text_11">
     <!-- 0.6 -->
     <g transform="translate(284.654601 255.475834)scale(0.1 -0.1)">
      <defs>
       <path id="DejaVuSans-36" d="M 2113 2584 
Q 1688 2584 1439 2293 
Q 1191 2003 1191 1497 
Q 1191 994 1439 701 
Q 1688 409 2113 409 
Q 2538 409 2786 701 
Q 3034 994 3034 1497 
Q 3034 2003 2786 2293 
Q 2538 2584 2113 2584 
z
M 3366 4563 
L 3366 3988 
Q 3128 4100 2886 4159 
Q 2644 4219 2406 4219 
Q 1781 4219 1451 3797 
Q 1122 3375 1075 2522 
Q 1259 2794 1537 2939 
Q 1816 3084 2150 3084 
Q 2853 3084 3261 2657 
Q 3669 2231 3669 1497 
Q 3669 778 3244 343 
Q 2819 -91 2113 -91 
Q 1303 -91 875 529 
Q 447 1150 447 2328 
Q 447 3434 972 4092 
Q 1497 4750 2381 4750 
Q 2619 4750 2861 4703 
Q 3103 4656 3366 4563 
z
" transform="scale(0.015625)"/>
      </defs>
      <use xlink:href="#DejaVuSans-30"/>
      <use xlink:href="#DejaVuSans-2e" x="63.623047"/>
      <use xlink:href="#DejaVuSans-36" x="95.410156"/>
     </g>
    </g>
   </g>
   <g id="xtick_10">
    <g id="line2d_12">
     <path d="M 284.651983 215.177904 
L 289.666142 216.349357 
" style="fill: none; stroke: #000000; stroke-width: 0.8; stroke-linecap: square"/>
    </g>
    <g id="text_12">
     <!-- 0.7 -->
     <g transform="translate(291.150038 231.16941)scale(0.1 -0.1)">
      <defs>
       <path id="DejaVuSans-37" d="M 525 4666 
L 3525 4666 
L 3525 4397 
L 1831 0 
L 1172 0 
L 2766 4134 
L 525 4134 
L 525 4666 
z
" transform="scale(0.015625)"/>
      </defs>
      <use xlink:href="#DejaVuSans-30"/>
      <use xlink:href="#DejaVuSans-2e" x="63.623047"/>
      <use xlink:href="#DejaVuSans-37" x="95.410156"/>
     </g>
    </g>
   </g>
   <g id="xtick_11">
    <g id="line2d_13">
     <path d="M 291.181919 191.19867 
L 296.161751 192.353069 
" style="fill: none; stroke: #000000; stroke-width: 0.8; stroke-linecap: square"/>
    </g>
    <g id="text_13">
     <!-- 0.8 -->
     <g transform="translate(297.550928 207.216791)scale(0.1 -0.1)">
      <defs>
       <path id="DejaVuSans-38" d="M 2034 2216 
Q 1584 2216 1326 1975 
Q 1069 1734 1069 1313 
Q 1069 891 1326 650 
Q 1584 409 2034 409 
Q 2484 409 2743 651 
Q 3003 894 3003 1313 
Q 3003 1734 2745 1975 
Q 2488 2216 2034 2216 
z
M 1403 2484 
Q 997 2584 770 2862 
Q 544 3141 544 3541 
Q 544 4100 942 4425 
Q 1341 4750 2034 4750 
Q 2731 4750 3128 4425 
Q 3525 4100 3525 3541 
Q 3525 3141 3298 2862 
Q 3072 2584 2669 2484 
Q 3125 2378 3379 2068 
Q 3634 1759 3634 1313 
Q 3634 634 3220 271 
Q 2806 -91 2034 -91 
Q 1263 -91 848 271 
Q 434 634 434 1313 
Q 434 1759 690 2068 
Q 947 2378 1403 2484 
z
M 1172 3481 
Q 1172 3119 1398 2916 
Q 1625 2713 2034 2713 
Q 2441 2713 2670 2916 
Q 2900 3119 2900 3481 
Q 2900 3844 2670 4047 
Q 2441 4250 2034 4250 
Q 1625 4250 1398 4047 
Q 1172 3844 1172 3481 
z
" transform="scale(0.015625)"/>
      </defs>
      <use xlink:href="#DejaVuSans-30"/>
      <use xlink:href="#DejaVuSans-2e" x="63.623047"/>
      <use xlink:href="#DejaVuSans-38" x="95.410156"/>
     </g>
    </g>
   </g>
   <g id="xtick_12">
    <g id="line2d_14">
     <path d="M 297.617148 167.567219 
L 302.563118 168.704933 
" style="fill: none; stroke: #000000; stroke-width: 0.8; stroke-linecap: square"/>
    </g>
    <g id="text_14">
     <!-- 0.9 -->
     <g transform="translate(303.859319 183.610307)scale(0.1 -0.1)">
      <defs>
       <path id="DejaVuSans-39" d="M 703 97 
L 703 672 
Q 941 559 1184 500 
Q 1428 441 1663 441 
Q 2288 441 2617 861 
Q 2947 1281 2994 2138 
Q 2813 1869 2534 1725 
Q 2256 1581 1919 1581 
Q 1219 1581 811 2004 
Q 403 2428 403 3163 
Q 403 3881 828 4315 
Q 1253 4750 1959 4750 
Q 2769 4750 3195 4129 
Q 3622 3509 3622 2328 
Q 3622 1225 3098 567 
Q 2575 -91 1691 -91 
Q 1453 -91 1209 -44 
Q 966 3 703 97 
z
M 1959 2075 
Q 2384 2075 2632 2365 
Q 2881 2656 2881 3163 
Q 2881 3666 2632 3958 
Q 2384 4250 1959 4250 
Q 1534 4250 1286 3958 
Q 1038 3666 1038 3163 
Q 1038 2656 1286 2365 
Q 1534 2075 1959 2075 
z
" transform="scale(0.015625)"/>
      </defs>
      <use xlink:href="#DejaVuSans-30"/>
      <use xlink:href="#DejaVuSans-2e" x="63.623047"/>
      <use xlink:href="#DejaVuSans-39" x="95.410156"/>
     </g>
    </g>
   </g>
  </g>
  <g id="axis3d_3">
   <g id="line2d_15">
    <path d="M 305.984932 143.221817 
L 316.100364 56.368059 
" style="fill: none; stroke: #000000; stroke-width: 0.8; stroke-linecap: square"/>
   </g>
   <g id="text_15">
    <!-- z [m] -->
    <g transform="translate(349.036928 105.868505)rotate(-83.356969)scale(0.17 -0.17)">
     <defs>
      <path id="DejaVuSans-7a" d="M 353 3500 
L 3084 3500 
L 3084 2975 
L 922 459 
L 3084 459 
L 3084 0 
L 275 0 
L 275 525 
L 2438 3041 
L 353 3041 
L 353 3500 
z
" transform="scale(0.015625)"/>
     </defs>
     <use xlink:href="#DejaVuSans-7a"/>
     <use xlink:href="#DejaVuSans-20" x="52.490234"/>
     <use xlink:href="#DejaVuSans-5b" x="84.277344"/>
     <use xlink:href="#DejaVuSans-6d" x="123.291016"/>
     <use xlink:href="#DejaVuSans-5d" x="220.703125"/>
    </g>
   </g>
   <g id="Line3DCollection_3">
    <path d="M 307.617139 129.207255 
L 103.420145 82.82608 
L 41.86916 263.177188 
" style="fill: none; stroke: #b0b0b0; stroke-width: 0.8"/>
    <path d="M 311.44292 96.358093 
L 101.275874 49.124264 
L 37.710873 233.017423 
" style="fill: none; stroke: #b0b0b0; stroke-width: 0.8"/>
    <path d="M 315.500438 61.519181 
L 99.003716 13.412436 
L 33.289484 200.949406 
" style="fill: none; stroke: #b0b0b0; stroke-width: 0.8"/>
   </g>
   <g id="xtick_13">
    <g id="line2d_16">
     <path d="M 305.959708 128.830787 
L 310.933173 129.960457 
" style="fill: none; stroke: #000000; stroke-width: 0.8; stroke-linecap: square"/>
    </g>
    <g id="text_16">
     <!-- 1.4 -->
     <g transform="translate(315.919237 128.611833)scale(0.1 -0.1)">
      <use xlink:href="#DejaVuSans-31"/>
      <use xlink:href="#DejaVuSans-2e" x="63.623047"/>
      <use xlink:href="#DejaVuSans-34" x="95.410156"/>
     </g>
    </g>
   </g>
   <g id="xtick_14">
    <g id="line2d_17">
     <path d="M 309.73631 95.974542 
L 314.857384 97.125474 
" style="fill: none; stroke: #000000; stroke-width: 0.8; stroke-linecap: square"/>
    </g>
    <g id="text_17">
     <!-- 1.6 -->
     <g transform="translate(320.211454 95.609108)scale(0.1 -0.1)">
      <use xlink:href="#DejaVuSans-31"/>
      <use xlink:href="#DejaVuSans-2e" x="63.623047"/>
      <use xlink:href="#DejaVuSans-36" x="95.410156"/>
     </g>
    </g>
   </g>
   <g id="xtick_15">
    <g id="line2d_18">
     <path d="M 313.74164 61.128367 
L 319.019352 62.301103 
" style="fill: none; stroke: #000000; stroke-width: 0.8; stroke-linecap: square"/>
    </g>
    <g id="text_18">
     <!-- 1.8 -->
     <g transform="translate(324.762955 60.612765)scale(0.1 -0.1)">
      <use xlink:href="#DejaVuSans-31"/>
      <use xlink:href="#DejaVuSans-2e" x="63.623047"/>
      <use xlink:href="#DejaVuSans-38" x="95.410156"/>
     </g>
    </g>
   </g>
  </g>
  <g id="axes_1">
   <g id="line2d_19">
    <path d="M 234.90006 169.975267 
L 231.253819 170.40457 
L 229.309843 170.695648 
L 225.225672 171.318989 
L 221.064969 172.265249 
L 216.148819 173.245742 
L 214.677354 173.552308 
L 213.75046 173.931332 
L 205.33342 175.89024 
L 199.781983 177.299622 
L 171.477767 183.649112 
L 157.303076 186.198769 
L 147.956599 187.280994 
L 144.103043 187.545444 
L 137.851272 188.009571 
L 134.585827 188.207104 
L 133.082431 188.304607 
L 129.207383 188.583539 
L 123.376773 188.755093 
L 118.864517 188.872374 
L 118.911447 188.812866 
L 123.636158 187.75905 
L 125.78419 187.389448 
L 127.337081 187.029791 
L 128.945915 186.769601 
L 135.416506 185.493902 
L 140.574523 184.746646 
L 146.338946 183.72566 
L 149.976409 183.056207 
L 152.33296 182.602822 
L 156.188005 181.880318 
L 159.921266 181.102341 
L 163.871896 180.247965 
L 169.240803 179.203385 
L 181.15049 176.776792 
L 188.803164 175.164827 
L 193.563001 174.175003 
L 197.145157 173.414432 
L 198.258525 173.240077 
L 202.345011 172.177088 
L 205.479029 171.4659 
L 209.438482 170.489717 
L 211.3064 170.108838 
L 212.116651 169.85429 
L 215.923313 169.115009 
L 219.233329 168.489795 
L 223.633092 167.863919 
L 226.172414 167.601708 
L 231.1477 167.149941 
L 233.731402 166.941285 
L 237.683466 166.482939 
L 242.349163 166.020196 
L 247.09299 165.391768 
L 247.627352 165.164851 
L 250.949422 164.572449 
L 257.616465 162.637405 
L 259.543277 161.886837 
L 260.119075 161.72715 
L 261.369945 161.206626 
L 261.691568 160.899737 
L 262.418905 160.720137 
L 262.616629 160.364352 
L 262.917734 160.191749 
L 263.959735 159.746599 
L 265.516512 158.795989 
L 266.500325 158.524228 
L 268.294002 157.045349 
L 268.754118 156.33196 
L 268.927874 156.160253 
L 268.866887 155.961713 
L 268.950059 155.572071 
L 268.816878 155.368947 
L 268.149723 155.200269 
L 266.614176 155.274397 
L 264.879992 155.739096 
L 263.863106 155.804225 
L 263.100159 155.974345 
L 262.602555 156.232272 
L 261.878538 156.437963 
L 261.376369 156.762827 
L 254.706039 159.040613 
L 252.874525 159.683254 
L 248.98491 160.988678 
L 247.814804 161.245699 
L 246.896998 161.590511 
L 243.229214 162.387916 
L 238.881402 163.52024 
L 235.935241 164.276465 
L 219.715955 167.814295 
L 217.648476 168.198871 
L 210.228629 169.41043 
L 206.969286 169.946246 
L 186.418873 173.733095 
L 183.314299 174.197624 
L 182.34626 174.399046 
L 181.140554 174.481609 
L 173.704133 175.90054 
L 170.462289 176.557174 
L 160.70205 178.623331 
L 149.412897 181.612628 
L 140.878862 184.698513 
L 137.294895 186.025602 
L 134.506823 186.912027 
L 132.648794 187.589633 
L 127.876913 189.211282 
L 126.4451 189.699056 
L 124.120589 190.371998 
L 123.774924 190.148882 
L 123.684623 189.938302 
L 123.851963 189.785909 
L 124.401958 189.3373 
L 125.254456 188.986724 
L 129.916422 186.75242 
L 130.447447 186.465681 
L 131.182012 186.236938 
L 132.455028 185.634686 
L 135.039937 184.383476 
L 147.553019 178.86796 
L 151.306634 177.645794 
L 155.499019 176.47963 
L 170.370987 172.167874 
L 175.857824 170.152563 
L 179.296274 168.964309 
L 185.806183 166.638058 
L 194.648767 164.154999 
L 201.80485 162.522638 
L 209.380388 161.16978 
L 213.081197 160.873764 
L 213.521613 160.729533 
L 215.760732 160.728138 
L 219.336214 160.718286 
L 223.162709 160.693146 
L 229.008126 160.317536 
L 231.273222 160.079215 
L 234.630803 159.652559 
L 239.137062 158.979973 
L 240.179494 158.756197 
L 242.424291 158.442543 
L 244.324327 158.011185 
L 251.611992 156.393946 
L 254.840242 155.133661 
L 255.582204 154.856638 
L 255.771164 154.57253 
L 255.713163 154.475305 
L 254.296146 154.323629 
L 251.79672 154.508018 
L 249.277291 154.921943 
L 248.275497 154.978666 
L 246.340708 155.401094 
L 244.106694 155.716445 
L 239.187801 156.799642 
L 236.412856 157.400836 
L 234.969657 157.850916 
L 220.502034 161.234082 
L 218.841495 161.735793 
L 218.0817 162.100576 
L 216.127858 162.462565 
L 209.362697 164.232281 
L 207.934963 164.498507 
L 206.81927 164.836339 
L 204.066128 165.379348 
L 201.530783 166.062881 
L 196.144938 167.269143 
L 191.100828 168.211348 
L 188.468686 168.673715 
L 180.8564 169.893534 
L 171.945564 171.053153 
L 163.257081 172.045312 
L 157.051287 172.629334 
L 153.398019 172.794529 
L 146.543387 173.140005 
L 141.435557 173.612271 
L 136.708836 174.407928 
L 131.723739 175.84049 
L 127.71129 177.192654 
L 122.555234 179.454439 
L 121.930055 179.818913 
L 120.341493 180.42155 
L 119.392905 181.168895 
L 118.697667 181.386961 
L 116.644832 182.552638 
L 115.927931 183.150895 
L 115.251637 183.403279 
L 114.917873 183.679538 
L 113.366761 184.512345 
L 112.744764 184.942009 
L 112.60573 185.152644 
L 111.871888 185.849778 
L 112.299839 185.876782 
L 113.039661 185.746444 
L 114.283771 185.425914 
L 115.156269 185.092963 
L 120.022928 183.61048 
L 123.921484 182.626185 
L 125.727504 182.195625 
L 132.948845 180.791251 
L 138.76067 179.670198 
L 143.655543 178.765512 
L 146.169496 178.361693 
L 150.181261 177.511567 
L 155.551179 176.624461 
L 159.746236 175.888591 
L 166.740954 174.478091 
L 173.666973 173.241978 
L 177.522715 172.452613 
L 178.783221 172.096933 
L 182.68316 171.389694 
L 197.489556 168.248685 
L 198.346011 167.945901 
L 205.443959 166.333544 
L 208.296009 165.377126 
L 213.041449 163.751278 
L 213.587559 163.384557 
L 214.446683 163.073258 
L 214.864939 162.716093 
L 216.126655 162.00224 
L 216.388852 161.544584 
L 217.720705 160.409736 
L 217.636667 159.934827 
L 218.406434 159.201358 
L 218.311816 158.834355 
L 218.589689 158.17796 
L 218.770723 157.526236 
L 219.07731 157.268693 
L 219.188047 156.765121 
L 218.880011 156.59035 
L 218.997443 156.252789 
L 219.00236 156.307659 
L 219.07234 156.333912 
L 219.045674 156.364636 
L 218.937815 156.507126 
L 219.215712 156.63476 
L 218.851613 156.75143 
L 218.705045 157.733007 
L 218.314756 158.04007 
L 218.199698 158.193722 
L 218.239249 158.336191 
L 218.517389 158.446909 
L 218.054529 158.650054 
L 217.830992 158.80489 
L 217.431501 158.73837 
L 217.428669 158.660765 
L 217.660827 158.330408 
L 217.354042 158.012716 
L 217.270038 157.729878 
L 217.290339 157.401243 
L 217.15922 156.568219 
L 216.821847 150.779594 
L 217.137329 149.95491 
L 216.861661 149.081245 
L 216.694671 146.542104 
L 216.840376 145.655164 
L 216.72054 144.72465 
L 216.644977 141.109854 
L 216.689418 139.327134 
L 217.035084 134.929975 
L 217.288582 134.032168 
L 217.395468 133.153918 
L 217.362079 132.304102 
L 217.59309 131.481869 
L 217.751899 129.984776 
L 218.593903 126.962108 
L 218.844966 125.50178 
L 219.270304 124.083892 
L 220.17347 121.140745 
L 221.358001 118.16079 
L 221.979154 116.621712 
L 222.425809 115.811999 
L 222.6534 114.986932 
L 223.091602 114.219214 
L 223.276002 113.368671 
L 225.161764 109.217061 
L 225.474431 108.416469 
L 225.67118 107.539035 
L 226.063628 106.766448 
L 226.26718 105.866386 
L 228.215954 101.079244 
L 228.605633 100.328015 
L 228.735792 99.518657 
L 229.401339 98.04384 
L 229.959099 97.442311 
L 230.02638 96.645823 
L 231.052146 94.66397 
L 231.262272 94.019935 
L 232.618068 91.812489 
L 233.098327 91.423317 
L 233.62937 90.514078 
L 233.62937 90.514078 
" clip-path="url(#peb90667f3f)" style="fill: none; stroke: #008000; stroke-width: 1.5; stroke-linecap: square"/>
   </g>
   <g id="line2d_20">
    <path d="M 236.650216 89.311087 
L 236.997037 90.126502 
L 236.943862 90.417088 
L 237.158994 91.086317 
L 236.983194 91.493382 
L 236.974227 92.493931 
L 236.467905 94.136887 
L 236.494535 94.793848 
L 235.793659 96.794217 
L 235.785515 97.554656 
L 235.474278 98.247026 
L 235.399696 99.103991 
L 234.138723 102.489931 
L 233.482003 105.329648 
L 233.476718 106.30847 
L 233.013601 107.311866 
L 232.82029 108.300272 
L 232.366388 109.230101 
L 232.175229 110.169081 
L 231.744483 111.14822 
L 231.180864 113.167914 
L 230.374352 115.280249 
L 228.697171 120.626016 
L 228.293106 121.669866 
L 227.75522 123.74498 
L 226.641305 127.028514 
L 226.461239 128.102169 
L 225.826329 130.190486 
L 225.647954 131.216469 
L 225.242904 132.23421 
L 224.492764 136.264832 
L 224.226576 137.258864 
L 224.149989 138.244928 
L 223.436024 141.130135 
L 223.105016 143.101729 
L 222.611783 145.003251 
L 222.518313 145.919783 
L 222.240338 146.854086 
L 222.182657 147.822976 
L 221.756629 149.757638 
L 219.577123 156.910449 
L 217.308903 163.121433 
L 216.738305 164.159726 
L 216.5794 165.240601 
L 215.816455 166.304999 
L 213.902218 170.71443 
L 212.488288 173.009809 
L 212.165268 174.179835 
L 211.303258 175.284681 
L 210.206144 177.565862 
L 209.431194 178.708669 
L 208.84081 179.851836 
L 208.471815 181.030757 
L 207.149741 183.313559 
L 206.284584 184.453911 
L 204.508855 187.907292 
L 202.31128 191.169783 
L 201.830276 192.230909 
L 195.078201 204.07487 
L 193.066448 208.595762 
L 192.391268 210.282877 
L 190.148995 215.956243 
L 189.634038 217.727024 
L 189.119139 219.452538 
L 188.857562 220.336535 
L 188.446708 221.25622 
L 188.004071 223.088607 
L 187.7634 224.061695 
L 187.395985 225.040435 
L 186.942668 227.097607 
L 186.302293 229.187018 
L 185.713802 231.247766 
L 184.104413 237.184848 
L 183.596887 239.196617 
L 182.765852 242.040832 
L 179.829972 252.411936 
L 179.527019 253.25924 
L 179.162695 254.820095 
L 178.972512 255.672708 
L 179.017379 255.6834 
L 179.200955 255.468391 
L 179.347475 255.201523 
L 185.471474 237.537098 
L 187.612232 230.143371 
L 188.03289 228.28257 
L 188.362063 227.345907 
L 188.55741 226.393791 
L 189.530678 223.382746 
L 189.689047 222.365781 
L 190.272812 220.334058 
L 191.33393 216.29995 
L 191.968907 214.128185 
L 192.164771 212.958253 
L 192.58978 211.815719 
L 193.530942 208.363821 
L 194.298799 205.99134 
L 194.560643 204.760686 
L 195.043816 203.566871 
L 198.103442 192.833067 
L 198.635811 191.631473 
L 199.330768 189.245984 
L 199.802819 188.10226 
L 200.31126 185.769021 
L 202.767084 177.439379 
L 203.250354 176.301376 
L 203.651126 174.045667 
L 204.200209 172.956544 
L 204.447951 171.820326 
L 204.907471 170.760529 
L 205.146939 169.66674 
L 205.685762 168.66957 
L 205.902063 167.667597 
L 206.788477 165.66923 
L 207.073995 163.672809 
L 208.307049 160.631591 
L 208.347869 159.562126 
L 209.326227 157.537098 
L 209.757038 155.467248 
L 210.27869 154.479338 
L 210.924197 153.530358 
L 210.993499 152.508183 
L 211.419762 151.526228 
L 211.686988 150.423027 
L 212.155949 149.46852 
L 215.253283 140.289575 
L 215.831347 138.180742 
L 216.939784 135.064997 
L 217.007752 133.8817 
L 218.548962 128.078544 
L 219.350736 124.531271 
L 219.886946 122.264253 
L 220.48103 120.098667 
L 220.882914 118.967866 
L 221.637531 115.74849 
L 222.023734 114.684305 
L 222.213053 113.703298 
L 222.619285 112.755227 
L 222.894887 111.794818 
L 224.001279 109.073588 
L 224.270487 108.105299 
L 224.993831 106.364822 
L 225.246221 105.495841 
L 225.744739 104.70008 
L 225.988977 103.872508 
L 226.428951 103.132065 
L 226.695359 102.369603 
L 227.377576 100.989798 
L 227.952302 99.646024 
L 228.217403 98.901871 
L 228.627127 98.275216 
L 228.769354 97.647782 
L 229.264313 97.057944 
L 230.03863 95.147608 
L 230.952818 93.953887 
L 231.077032 93.443302 
L 231.686695 92.554199 
L 232.429793 91.193686 
L 232.954801 90.566324 
L 233.034256 90.681654 
L 233.007917 90.982761 
L 232.96236 92.088535 
L 232.77162 93.134468 
L 232.318241 94.263489 
L 232.024647 95.956986 
L 231.513561 97.525875 
L 231.53834 98.028343 
L 231.384809 98.498962 
L 230.639981 99.663649 
L 230.571897 100.32317 
L 230.303575 100.870043 
L 230.14851 101.527492 
L 229.860179 102.112542 
L 229.757814 102.858542 
L 229.368043 103.489137 
L 229.311602 104.178642 
L 228.936817 104.898208 
L 228.829165 105.619544 
L 227.897216 107.903109 
L 227.766854 108.714919 
L 226.96146 111.051027 
L 226.68652 111.883535 
L 226.643432 112.684495 
L 226.065251 113.449428 
L 225.877653 114.270072 
L 225.325556 115.14413 
L 225.063845 115.931785 
L 224.49739 116.838357 
L 224.285176 117.783817 
L 223.718004 118.691757 
L 222.451374 121.435214 
L 222.064922 122.482718 
L 221.030861 124.349542 
L 219.42142 127.665963 
L 218.013014 130.003446 
L 217.467735 131.184146 
L 215.9035 133.570039 
L 214.514025 135.916992 
L 209.916868 143.279025 
L 208.638974 145.779312 
L 207.897242 146.981308 
L 207.279288 148.222591 
L 206.543396 149.418389 
L 205.990461 150.598068 
L 205.693015 151.847505 
L 204.728578 153.036579 
L 204.306206 154.233132 
L 202.974516 156.648634 
L 202.513347 157.862271 
L 202.199267 159.025212 
L 201.076257 161.413512 
L 200.856329 162.590939 
L 200.298439 163.68714 
L 199.63008 165.909827 
L 198.628839 168.203494 
L 198.164989 169.298661 
L 197.877645 170.402939 
L 197.28865 171.443917 
L 197.273086 172.56989 
L 196.683249 173.628318 
L 195.746369 175.690955 
L 195.214886 176.711405 
L 195.036375 177.798308 
L 193.920714 179.84057 
L 193.631482 180.855563 
L 192.200744 184.056872 
L 191.214524 186.136399 
L 186.841851 196.877486 
L 185.075837 201.34324 
L 182.11641 207.977494 
L 181.184631 210.179239 
L 170.716082 232.785011 
L 170.069333 233.776304 
L 169.213076 235.829482 
L 168.706994 236.765971 
L 167.001596 240.610301 
L 165.21319 244.109601 
L 161.980822 249.498264 
L 161.02716 250.902165 
L 154.489613 258.05303 
L 153.402375 259.592744 
L 153.365092 260.315271 
L 154.240892 260.147034 
L 155.271235 259.325731 
L 156.640314 258.113058 
L 157.596015 257.064253 
L 159.313323 254.154725 
L 159.90581 252.950261 
L 160.10971 252.241975 
L 160.171826 251.543404 
L 160.971499 249.258576 
L 161.383913 247.531613 
L 161.907284 245.674903 
L 162.126248 243.721179 
L 162.176781 242.703865 
L 162.447848 240.754972 
L 162.669099 238.659758 
L 162.891776 236.326987 
L 163.48176 226.238614 
L 163.956732 222.326792 
L 164.467935 218.570945 
L 165.791776 211.453174 
L 166.362258 208.901256 
L 166.651018 207.622525 
L 167.070716 206.344811 
L 167.646743 203.809641 
L 170.003801 196.830395 
L 171.560868 192.532361 
L 172.180775 191.115454 
L 172.60258 189.717649 
L 176.562244 180.099537 
L 177.372685 178.769581 
L 177.768262 177.439278 
L 180.893929 171.006233 
L 181.287405 169.697376 
L 182.071469 168.432076 
L 182.601995 167.130696 
L 183.262459 165.828349 
L 184.240546 163.34244 
L 185.029627 162.104895 
L 185.36219 160.857286 
L 187.259566 157.402782 
L 187.661966 156.275788 
L 188.848231 154.073974 
L 189.148358 152.96196 
L 190.672372 149.901466 
L 190.991459 148.940032 
L 191.584751 147.941956 
L 192.848675 145.109726 
L 193.467991 144.221458 
L 193.734268 143.31121 
L 194.121881 142.47181 
L 194.39505 141.538963 
L 194.86125 140.712351 
L 195.898963 138.132677 
L 196.076693 137.256775 
L 196.81709 135.733532 
L 197.470145 134.209513 
L 197.674655 133.411383 
L 198.334027 131.834877 
L 198.474006 131.051792 
L 198.998522 130.390215 
L 199.131129 129.615871 
L 199.562757 128.926988 
L 199.795173 128.125689 
L 200.141061 127.401983 
L 200.230303 126.620166 
L 200.603921 125.954893 
L 201.201102 124.531781 
L 202.991977 120.862697 
L 203.571815 120.175035 
L 203.810855 119.393519 
L 204.63459 118.086577 
L 205.149626 117.445025 
L 205.430693 116.793257 
L 207.261369 114.091532 
L 207.836819 113.249111 
L 208.466734 112.586471 
L 209.817186 111.963752 
L 210.189732 112.100919 
L 210.263705 112.456436 
L 210.345677 113.295273 
L 210.070348 114.035584 
L 209.549276 115.732854 
L 208.941611 117.819724 
L 208.463617 118.549784 
L 207.185577 122.041472 
L 206.24126 124.946853 
L 205.744392 125.931315 
L 205.158061 128.006599 
L 204.174921 130.119108 
L 204.105465 131.32642 
L 203.035685 134.702316 
L 201.168105 141.71024 
L 200.605727 142.981372 
L 199.645755 146.814874 
L 199.325203 149.506205 
L 198.94753 150.913933 
L 198.721668 152.263764 
L 198.602531 153.749809 
L 197.647566 154.956377 
L 197.283113 156.336067 
L 197.170935 157.785054 
L 196.747872 159.205706 
L 196.591489 160.679265 
L 194.788473 170.224563 
L 194.653512 171.539555 
L 194.153288 173.965062 
L 194.127602 175.212626 
L 193.848077 176.40745 
L 193.931903 177.58674 
L 193.67438 178.724617 
L 192.892907 184.638683 
L 192.551299 185.394728 
L 192.204689 186.673682 
L 191.887033 187.18172 
L 191.505385 188.283655 
L 190.201126 189.997425 
L 189.418327 190.457575 
L 188.837835 190.314866 
L 188.32337 190.074939 
L 187.310691 189.340186 
L 185.23081 187.94366 
L 184.890971 187.58443 
L 183.103096 186.629521 
L 181.182176 185.611212 
L 166.127633 178.354854 
L 163.783592 177.2818 
L 160.312662 175.63698 
L 157.878399 174.542293 
L 147.742704 169.950262 
L 135.479846 165.0347 
L 118.928776 158.591195 
L 113.52812 156.35673 
L 109.685651 154.741515 
L 104.71061 152.539557 
L 101.084243 150.8816 
L 94.263849 147.712688 
L 91.051597 146.117505 
L 78.493414 140.267889 
L 77.51971 139.693067 
L 80.434584 141.283104 
L 83.36648 142.740924 
L 84.99768 143.655008 
L 94.748704 148.152261 
L 95.943099 148.764228 
L 101.615711 151.075061 
L 107.744733 153.371788 
L 117.560855 157.596556 
L 120.952162 158.985172 
L 134.283603 165.155189 
L 139.267171 167.393411 
L 144.065134 169.582588 
L 147.415598 171.01853 
L 152.107944 173.235821 
L 167.082503 180.020151 
L 182.934641 187.25249 
L 187.851756 189.772021 
L 189.066167 190.351441 
L 190.286213 191.065246 
L 192.785398 192.309105 
L 201.59951 196.853511 
L 202.859279 197.607067 
L 205.378095 198.969614 
L 213.883776 203.981155 
L 218.358741 206.937869 
L 221.740875 209.2062 
L 223.839725 210.6166 
L 236.873969 219.168037 
L 243.345699 223.214634 
L 246.001846 224.899646 
L 246.696596 225.41491 
L 247.660082 225.951327 
L 248.268476 226.430746 
L 249.973126 227.431436 
L 250.538577 227.885172 
L 251.33739 228.309971 
L 256.402784 231.952042 
L 255.670572 231.383288 
L 255.565689 231.152662 
L 254.950678 230.64902 
L 253.034132 229.341922 
L 252.277595 228.942371 
L 251.706279 228.498456 
L 250.243485 227.603532 
L 241.285022 222.374375 
L 238.863167 221.015886 
L 237.557608 220.34084 
L 235.10639 218.890856 
L 232.47096 217.45468 
L 225.933848 213.996478 
L 215.440427 208.675371 
L 201.890699 201.97094 
L 199.370354 200.635816 
L 197.690677 200.033304 
L 196.74665 199.360663 
L 194.246073 198.0937 
L 184.959605 193.11779 
L 183.575015 192.563301 
L 181.54032 191.351441 
L 170.579513 185.673804 
L 168.352733 184.648028 
L 161.066675 180.881642 
L 160.240846 180.360854 
L 158.0856 179.3289 
L 157.127404 178.760969 
L 155.021157 177.713183 
L 153.051428 176.638329 
L 151.989648 176.162554 
L 149.965187 175.068966 
L 145.790556 172.920138 
L 143.681404 171.778642 
L 120.811461 160.090543 
L 118.418661 159.017432 
L 115.117519 157.286407 
L 106.337525 152.811181 
L 103.050388 151.374717 
L 100.934544 150.400127 
L 97.955963 148.991012 
L 95.927797 148.084813 
L 84.092424 142.52068 
L 78.854179 139.596564 
L 78.203881 139.176813 
L 77.394147 138.775462 
L 77.302425 138.830155 
L 77.590263 138.925394 
L 82.296059 141.59778 
L 86.050778 143.402961 
L 89.13925 144.987561 
L 95.442068 148.075649 
L 96.530252 148.776828 
L 97.989917 149.435124 
L 99.299805 150.236207 
L 102.172483 151.681738 
L 108.223851 154.683824 
L 120.349968 161.450763 
L 126.558293 164.577249 
L 128.011612 165.364957 
L 135.781952 168.927807 
L 138.769739 170.456896 
L 141.734979 171.852343 
L 143.132524 172.620905 
L 146.053114 174.02161 
L 150.332776 176.138661 
L 163.331816 182.198346 
L 175.852154 188.346807 
L 178.453938 189.796722 
L 180.989239 191.21378 
L 184.47386 193.338888 
L 195.518503 199.555113 
L 201.640497 202.840363 
L 203.580752 203.802057 
L 205.497288 204.85351 
L 208.433361 206.410904 
L 212.32139 208.393564 
L 220.936245 213.416068 
L 222.849495 214.596578 
L 227.675414 217.512543 
L 229.683207 218.78749 
L 232.552203 220.611353 
L 233.67088 221.217293 
L 234.518254 221.83204 
L 237.362148 223.459175 
L 241.933058 226.017006 
L 247.457294 228.946667 
L 257.798361 233.932753 
L 259.410282 234.613209 
L 266.021219 237.726628 
L 268.744707 238.924777 
L 270.425501 239.661059 
L 273.039631 240.733925 
L 273.587713 240.727374 
L 273.637949 240.663735 
L 273.604916 240.501149 
L 273.19971 240.118682 
L 269.366705 238.176216 
L 268.007765 237.583683 
L 266.624073 236.871831 
L 261.706275 234.486842 
L 260.126314 233.569034 
L 258.221768 232.718564 
L 254.366707 230.767765 
L 251.45356 229.129027 
L 248.712162 227.514629 
L 243.581283 224.852774 
L 241.798574 223.693865 
L 237.753362 221.42032 
L 229.654944 216.362996 
L 228.464336 215.717945 
L 226.366302 214.35255 
L 224.11284 213.060186 
L 221.945286 211.756228 
L 215.996595 208.561262 
L 197.222071 198.431133 
L 194.41292 196.883104 
L 190.080792 194.679935 
L 187.142751 193.073486 
L 184.041019 191.597299 
L 181.003432 190.055871 
L 174.455917 187.046316 
L 169.610722 184.722138 
L 166.347069 183.204842 
L 144.930975 173.51184 
L 129.163872 166.621361 
L 120.99029 163.441755 
L 116.596775 161.738528 
L 97.216669 154.126093 
L 96.429127 153.787288 
L 96.089977 153.434757 
L 95.117069 153.186894 
L 94.658722 152.828421 
L 93.129097 152.193527 
L 92.883142 151.943298 
L 92.019237 151.46865 
L 91.921526 151.075779 
L 91.935639 150.993398 
L 92.394355 150.847674 
L 93.459228 150.901676 
L 94.190584 151.189585 
L 96.077559 151.724934 
L 96.670735 152.023606 
L 97.416352 152.229145 
L 99.819832 153.191022 
L 106.757535 156.110493 
L 107.75426 156.664297 
L 108.960453 157.03659 
L 110.046158 157.643228 
L 112.309697 158.562071 
L 114.788203 159.654029 
L 115.851148 160.142792 
L 117.070517 160.860464 
L 123.486728 163.692851 
L 148.379303 176.642944 
L 153.767147 179.700753 
L 169.051393 188.057691 
L 175.642881 191.823503 
L 177.947066 193.182783 
L 186.614706 197.864704 
L 190.48939 199.695853 
L 203.373096 206.318501 
L 206.910032 207.863138 
L 211.07673 209.433465 
L 216.347557 211.141008 
L 217.672981 211.504745 
L 219.492537 211.96682 
L 223.828819 212.854511 
L 225.661196 212.965787 
L 226.092343 212.796498 
L 225.853099 212.564463 
L 224.570043 212.129055 
L 224.099413 211.910838 
L 222.764394 211.346747 
L 221.67914 210.913753 
L 214.789775 208.588582 
L 212.541267 208.045538 
L 208.778829 207.178632 
L 207.896514 206.784654 
L 206.176613 206.34283 
L 203.912823 206.324555 
L 202.838248 205.996176 
L 201.190815 205.350911 
L 198.521532 203.93834 
L 197.969696 203.786337 
L 197.998704 203.814947 
L 197.094716 203.849636 
L 196.588373 203.457255 
L 196.504228 203.313811 
L 196.342075 203.160211 
L 196.280262 203.023705 
L 196.273133 203.032949 
" clip-path="url(#peb90667f3f)" style="fill: none; stroke: #008000; stroke-width: 1.5; stroke-linecap: square"/>
   </g>
   <g id="line2d_21">
    <path d="M 245.742985 162.02711 
L 222.605473 166.13879 
L 198.837547 168.55778 
L 179.32367 174.927339 
L 161.014655 183.156495 
L 148.812386 186.732555 
L 140.838154 189.602416 
L 140.193348 186.001036 
L 149.966721 180.553289 
L 168.561673 176.474796 
L 179.7352 164.790577 
L 199.757668 157.798693 
L 217.920625 152.120471 
L 232.477399 151.690659 
L 243.476017 141.265563 
L 264.306491 141.867174 
L 269.922793 148.43742 
L 255.274812 157.380956 
L 226.08404 161.476776 
L 203.981412 166.690491 
L 174.108852 166.9482 
L 158.881824 171.884747 
L 144.86596 177.889718 
L 130.990781 182.953025 
L 126.339975 187.462644 
L 128.615345 184.660289 
L 141.078279 182.003805 
L 159.265151 174.318402 
L 181.656708 168.103429 
L 199.726727 160.104002 
L 218.849078 153.774699 
L 229.48736 150.631409 
L 230.016238 151.618593 
L 227.355164 150.964128 
L 226.228877 141.711833 
L 226.949746 131.235641 
L 229.361645 121.549539 
L 229.928887 101.473008 
L 240.464316 92.60612 
L 241.566266 86.643693 
L 244.596733 88.772097 
L 247.973311 103.127914 
L 236.215624 118.451316 
L 232.270396 133.512001 
L 231.510362 152.171056 
L 222.789867 169.763114 
L 212.190941 186.88423 
L 201.593309 202.232113 
L 196.367555 215.225783 
L 194.218585 231.287746 
L 187.297849 244.375468 
L 190.151313 236.873726 
L 193.197544 225.422047 
L 194.071514 211.276034 
L 198.785104 192.458586 
L 206.104595 176.041992 
L 211.562494 161.45892 
L 216.667508 140.57606 
L 218.962577 123.593797 
L 227.778534 109.482496 
L 234.481902 95.420598 
L 242.656297 87.269803 
L 240.445453 92.245526 
L 236.2062 100.308361 
L 225.897472 114.519949 
L 218.920097 132.327673 
L 207.677815 152.167746 
L 199.241106 170.666094 
L 189.812089 187.286902 
L 184.479124 206.888558 
L 180.324907 223.405054 
L 171.095899 236.586593 
L 164.972369 247.65623 
L 158.412145 252.03534 
L 162.373233 250.275206 
L 166.562962 241.826978 
L 166.145574 226.932007 
L 172.468466 214.43662 
L 171.728168 186.811642 
L 180.07481 169.40294 
L 186.118303 149.393171 
L 196.245362 132.852431 
L 198.678001 120.858885 
L 198.643083 91.15935 
L 196.768344 117.095005 
L 196.089048 134.580986 
L 189.010367 159.496961 
L 185.732824 178.406064 
L 183.551945 193.803638 
L 176.6908 194.395618 
L 169.33412 189.820597 
L 155.064558 183.586382 
L 135.805115 173.237073 
L 112.893742 165.100443 
L 89.872155 155.901759 
L 73.450189 147.852958 
L 73.525517 148.039571 
L 82.45682 153.371611 
L 108.948658 164.173302 
L 132.457678 175.60854 
L 156.586354 185.990894 
L 179.461863 196.398211 
L 200.106902 206.634295 
L 231.250399 226.31613 
L 242.972208 234.55918 
L 239.273311 231.305968 
L 225.178009 222.931092 
L 203.520332 211.998662 
L 184.60211 202.617767 
L 165.389315 192.069309 
L 149.347776 184.968418 
L 131.169483 174.787617 
L 97.359695 157.539275 
L 80.306996 149.936231 
L 70.546188 145.066805 
L 75.601226 147.889218 
L 99.1953 159.824276 
L 119.724443 172.459656 
L 141.226699 180.488756 
L 162.600936 191.648142 
L 183.501871 201.736429 
L 213.262031 218.924879 
L 227.777269 228.016926 
L 252.726456 240.278403 
L 261.52878 243.835954 
L 253.977414 239.69102 
L 238.370695 232.338233 
L 223.032599 223.474384 
L 186.565191 203.166806 
L 161.927868 190.72928 
L 102.528285 165.627313 
L 92.179283 162.342646 
L 93.734049 162.7471 
L 113.906119 171.854745 
L 135.367924 180.75677 
L 174.136708 203.165694 
L 191.535186 212.136878 
L 203.419951 217.19255 
L 212.247786 219.131082 
L 214.577111 218.741457 
L 210.990704 217.025167 
L 204.867358 214.976348 
L 198.441956 213.176123 
L 197.177608 213.53099 
L 194.639153 212.687849 
L 191.599718 212.025573 
L 188.128864 210.488096 
L 186.08574 209.956638 
L 185.396544 209.200789 
L 185.396544 209.200789 
" clip-path="url(#peb90667f3f)" style="fill: none; stroke: #ff0000; stroke-width: 1.5; stroke-linecap: square"/>
   </g>
   <g id="legend_1">
    <g id="patch_6">
     <path d="M 171.891875 63.505625 
L 333.7 63.505625 
Q 337.1 63.505625 337.1 60.105625 
L 337.1 11.9 
Q 337.1 8.5 333.7 8.5 
L 171.891875 8.5 
Q 168.491875 8.5 168.491875 11.9 
L 168.491875 60.105625 
Q 168.491875 63.505625 171.891875 63.505625 
z
" style="fill: #ffffff; opacity: 0.8; stroke: #cccccc; stroke-linejoin: miter"/>
    </g>
    <g id="line2d_22">
     <path d="M 175.291875 22.267344 
L 192.291875 22.267344 
L 209.291875 22.267344 
" style="fill: none; stroke: #008000; stroke-width: 1.5; stroke-linecap: square"/>
    </g>
    <g id="text_19">
     <!-- ground truth -->
     <g transform="translate(222.891875 28.217344)scale(0.17 -0.17)">
      <defs>
       <path id="DejaVuSans-67" d="M 2906 1791 
Q 2906 2416 2648 2759 
Q 2391 3103 1925 3103 
Q 1463 3103 1205 2759 
Q 947 2416 947 1791 
Q 947 1169 1205 825 
Q 1463 481 1925 481 
Q 2391 481 2648 825 
Q 2906 1169 2906 1791 
z
M 3481 434 
Q 3481 -459 3084 -895 
Q 2688 -1331 1869 -1331 
Q 1566 -1331 1297 -1286 
Q 1028 -1241 775 -1147 
L 775 -588 
Q 1028 -725 1275 -790 
Q 1522 -856 1778 -856 
Q 2344 -856 2625 -561 
Q 2906 -266 2906 331 
L 2906 616 
Q 2728 306 2450 153 
Q 2172 0 1784 0 
Q 1141 0 747 490 
Q 353 981 353 1791 
Q 353 2603 747 3093 
Q 1141 3584 1784 3584 
Q 2172 3584 2450 3431 
Q 2728 3278 2906 2969 
L 2906 3500 
L 3481 3500 
L 3481 434 
z
" transform="scale(0.015625)"/>
       <path id="DejaVuSans-72" d="M 2631 2963 
Q 2534 3019 2420 3045 
Q 2306 3072 2169 3072 
Q 1681 3072 1420 2755 
Q 1159 2438 1159 1844 
L 1159 0 
L 581 0 
L 581 3500 
L 1159 3500 
L 1159 2956 
Q 1341 3275 1631 3429 
Q 1922 3584 2338 3584 
Q 2397 3584 2469 3576 
Q 2541 3569 2628 3553 
L 2631 2963 
z
" transform="scale(0.015625)"/>
       <path id="DejaVuSans-6f" d="M 1959 3097 
Q 1497 3097 1228 2736 
Q 959 2375 959 1747 
Q 959 1119 1226 758 
Q 1494 397 1959 397 
Q 2419 397 2687 759 
Q 2956 1122 2956 1747 
Q 2956 2369 2687 2733 
Q 2419 3097 1959 3097 
z
M 1959 3584 
Q 2709 3584 3137 3096 
Q 3566 2609 3566 1747 
Q 3566 888 3137 398 
Q 2709 -91 1959 -91 
Q 1206 -91 779 398 
Q 353 888 353 1747 
Q 353 2609 779 3096 
Q 1206 3584 1959 3584 
z
" transform="scale(0.015625)"/>
       <path id="DejaVuSans-75" d="M 544 1381 
L 544 3500 
L 1119 3500 
L 1119 1403 
Q 1119 906 1312 657 
Q 1506 409 1894 409 
Q 2359 409 2629 706 
Q 2900 1003 2900 1516 
L 2900 3500 
L 3475 3500 
L 3475 0 
L 2900 0 
L 2900 538 
Q 2691 219 2414 64 
Q 2138 -91 1772 -91 
Q 1169 -91 856 284 
Q 544 659 544 1381 
z
M 1991 3584 
L 1991 3584 
z
" transform="scale(0.015625)"/>
       <path id="DejaVuSans-6e" d="M 3513 2113 
L 3513 0 
L 2938 0 
L 2938 2094 
Q 2938 2591 2744 2837 
Q 2550 3084 2163 3084 
Q 1697 3084 1428 2787 
Q 1159 2491 1159 1978 
L 1159 0 
L 581 0 
L 581 3500 
L 1159 3500 
L 1159 2956 
Q 1366 3272 1645 3428 
Q 1925 3584 2291 3584 
Q 2894 3584 3203 3211 
Q 3513 2838 3513 2113 
z
" transform="scale(0.015625)"/>
       <path id="DejaVuSans-64" d="M 2906 2969 
L 2906 4863 
L 3481 4863 
L 3481 0 
L 2906 0 
L 2906 525 
Q 2725 213 2448 61 
Q 2172 -91 1784 -91 
Q 1150 -91 751 415 
Q 353 922 353 1747 
Q 353 2572 751 3078 
Q 1150 3584 1784 3584 
Q 2172 3584 2448 3432 
Q 2725 3281 2906 2969 
z
M 947 1747 
Q 947 1113 1208 752 
Q 1469 391 1925 391 
Q 2381 391 2643 752 
Q 2906 1113 2906 1747 
Q 2906 2381 2643 2742 
Q 2381 3103 1925 3103 
Q 1469 3103 1208 2742 
Q 947 2381 947 1747 
z
" transform="scale(0.015625)"/>
       <path id="DejaVuSans-74" d="M 1172 4494 
L 1172 3500 
L 2356 3500 
L 2356 3053 
L 1172 3053 
L 1172 1153 
Q 1172 725 1289 603 
Q 1406 481 1766 481 
L 2356 481 
L 2356 0 
L 1766 0 
Q 1100 0 847 248 
Q 594 497 594 1153 
L 594 3053 
L 172 3053 
L 172 3500 
L 594 3500 
L 594 4494 
L 1172 4494 
z
" transform="scale(0.015625)"/>
       <path id="DejaVuSans-68" d="M 3513 2113 
L 3513 0 
L 2938 0 
L 2938 2094 
Q 2938 2591 2744 2837 
Q 2550 3084 2163 3084 
Q 1697 3084 1428 2787 
Q 1159 2491 1159 1978 
L 1159 0 
L 581 0 
L 581 4863 
L 1159 4863 
L 1159 2956 
Q 1366 3272 1645 3428 
Q 1925 3584 2291 3584 
Q 2894 3584 3203 3211 
Q 3513 2838 3513 2113 
z
" transform="scale(0.015625)"/>
      </defs>
      <use xlink:href="#DejaVuSans-67"/>
      <use xlink:href="#DejaVuSans-72" x="63.476562"/>
      <use xlink:href="#DejaVuSans-6f" x="102.339844"/>
      <use xlink:href="#DejaVuSans-75" x="163.521484"/>
      <use xlink:href="#DejaVuSans-6e" x="226.900391"/>
      <use xlink:href="#DejaVuSans-64" x="290.279297"/>
      <use xlink:href="#DejaVuSans-20" x="353.755859"/>
      <use xlink:href="#DejaVuSans-74" x="385.542969"/>
      <use xlink:href="#DejaVuSans-72" x="424.751953"/>
      <use xlink:href="#DejaVuSans-75" x="465.865234"/>
      <use xlink:href="#DejaVuSans-74" x="529.244141"/>
      <use xlink:href="#DejaVuSans-68" x="568.453125"/>
     </g>
    </g>
    <g id="line2d_23">
     <path d="M 175.291875 47.220156 
L 192.291875 47.220156 
L 209.291875 47.220156 
" style="fill: none; stroke: #ff0000; stroke-width: 1.5; stroke-linecap: square"/>
    </g>
    <g id="text_20">
     <!-- estimated -->
     <g transform="translate(222.891875 53.170156)scale(0.17 -0.17)">
      <defs>
       <path id="DejaVuSans-65" d="M 3597 1894 
L 3597 1613 
L 953 1613 
Q 991 1019 1311 708 
Q 1631 397 2203 397 
Q 2534 397 2845 478 
Q 3156 559 3463 722 
L 3463 178 
Q 3153 47 2828 -22 
Q 2503 -91 2169 -91 
Q 1331 -91 842 396 
Q 353 884 353 1716 
Q 353 2575 817 3079 
Q 1281 3584 2069 3584 
Q 2775 3584 3186 3129 
Q 3597 2675 3597 1894 
z
M 3022 2063 
Q 3016 2534 2758 2815 
Q 2500 3097 2075 3097 
Q 1594 3097 1305 2825 
Q 1016 2553 972 2059 
L 3022 2063 
z
" transform="scale(0.015625)"/>
       <path id="DejaVuSans-73" d="M 2834 3397 
L 2834 2853 
Q 2591 2978 2328 3040 
Q 2066 3103 1784 3103 
Q 1356 3103 1142 2972 
Q 928 2841 928 2578 
Q 928 2378 1081 2264 
Q 1234 2150 1697 2047 
L 1894 2003 
Q 2506 1872 2764 1633 
Q 3022 1394 3022 966 
Q 3022 478 2636 193 
Q 2250 -91 1575 -91 
Q 1294 -91 989 -36 
Q 684 19 347 128 
L 347 722 
Q 666 556 975 473 
Q 1284 391 1588 391 
Q 1994 391 2212 530 
Q 2431 669 2431 922 
Q 2431 1156 2273 1281 
Q 2116 1406 1581 1522 
L 1381 1569 
Q 847 1681 609 1914 
Q 372 2147 372 2553 
Q 372 3047 722 3315 
Q 1072 3584 1716 3584 
Q 2034 3584 2315 3537 
Q 2597 3491 2834 3397 
z
" transform="scale(0.015625)"/>
       <path id="DejaVuSans-69" d="M 603 3500 
L 1178 3500 
L 1178 0 
L 603 0 
L 603 3500 
z
M 603 4863 
L 1178 4863 
L 1178 4134 
L 603 4134 
L 603 4863 
z
" transform="scale(0.015625)"/>
       <path id="DejaVuSans-61" d="M 2194 1759 
Q 1497 1759 1228 1600 
Q 959 1441 959 1056 
Q 959 750 1161 570 
Q 1363 391 1709 391 
Q 2188 391 2477 730 
Q 2766 1069 2766 1631 
L 2766 1759 
L 2194 1759 
z
M 3341 1997 
L 3341 0 
L 2766 0 
L 2766 531 
Q 2569 213 2275 61 
Q 1981 -91 1556 -91 
Q 1019 -91 701 211 
Q 384 513 384 1019 
Q 384 1609 779 1909 
Q 1175 2209 1959 2209 
L 2766 2209 
L 2766 2266 
Q 2766 2663 2505 2880 
Q 2244 3097 1772 3097 
Q 1472 3097 1187 3025 
Q 903 2953 641 2809 
L 641 3341 
Q 956 3463 1253 3523 
Q 1550 3584 1831 3584 
Q 2591 3584 2966 3190 
Q 3341 2797 3341 1997 
z
" transform="scale(0.015625)"/>
      </defs>
      <use xlink:href="#DejaVuSans-65"/>
      <use xlink:href="#DejaVuSans-73" x="61.523438"/>
      <use xlink:href="#DejaVuSans-74" x="113.623047"/>
      <use xlink:href="#DejaVuSans-69" x="152.832031"/>
      <use xlink:href="#DejaVuSans-6d" x="180.615234"/>
      <use xlink:href="#DejaVuSans-61" x="278.027344"/>
      <use xlink:href="#DejaVuSans-74" x="339.306641"/>
      <use xlink:href="#DejaVuSans-65" x="378.515625"/>
      <use xlink:href="#DejaVuSans-64" x="440.039062"/>
     </g>
    </g>
   </g>
  </g>
 </g>
 <defs>
  <clipPath id="peb90667f3f">
   <rect x="0" y="-0" width="345.6" height="345.6"/>
  </clipPath>
 </defs>
</svg>
