<?xml version="1.0" encoding="utf-8" standalone="no"?>
<!DOCTYPE svg PUBLIC "-//W3C//DTD SVG 1.1//EN"
  "http://www.w3.org/Graphics/SVG/1.1/DTD/svg11.dtd">
<svg xmlns:xlink="http://www.w3.org/1999/xlink" width="405.265312pt" height="296.46825pt" viewBox="0 0 405.265312 296.46825" xmlns="http://www.w3.org/2000/svg" version="1.1">
 <metadata>
  <rdf:RDF xmlns:dc="http://purl.org/dc/elements/1.1/" xmlns:cc="http://creativecommons.org/ns#" xmlns:rdf="http://www.w3.org/1999/02/22-rdf-syntax-ns#">
   <cc:Work>
    <dc:type rdf:resource="http://purl.org/dc/dcmitype/StillImage"/>
    <dc:date>2022-02-09T22:18:18.896265</dc:date>
    <dc:format>image/svg+xml</dc:format>
    <dc:creator>
     <cc:Agent>
      <dc:title>Matplotlib v3.5.1, https://matplotlib.org/</dc:title>
     </cc:Agent>
    </dc:creator>
   </cc:Work>
  </rdf:RDF>
 </metadata>
 <defs>
  <style type="text/css">*{stroke-linejoin: round; stroke-linecap: butt}</style>
 </defs>
 <g id="figure_1">
  <g id="patch_1">
   <path d="M 0 296.46825 
L 405.265312 296.46825 
L 405.265312 0 
L 0 0 
z
" style="fill: #ffffff"/>
  </g>
  <g id="axes_1">
   <g id="patch_2">
    <path d="M 48.145313 78.268235 
L 405.265313 78.268235 
L 405.265313 -0 
L 48.145313 -0 
z
" style="fill: #ffffff"/>
   </g>
   <g id="matplotlib.axis_1">
    <g id="xtick_1">
     <g id="line2d_1">
      <defs>
       <path id="ma0538cde66" d="M 0 0 
L 0 3.5 
" style="stroke: #000000; stroke-width: 0.8"/>
      </defs>
      <g>
       <use xlink:href="#ma0538cde66" x="64.37804" y="78.268235" style="stroke: #000000; stroke-width: 0.8"/>
      </g>
     </g>
     <g id="text_1">
      <!-- 0 -->
      <g transform="translate(61.19679 92.866673)scale(0.1 -0.1)">
       <defs>
        <path id="DejaVuSans-30" d="M 2034 4250 
Q 1547 4250 1301 3770 
Q 1056 3291 1056 2328 
Q 1056 1369 1301 889 
Q 1547 409 2034 409 
Q 2525 409 2770 889 
Q 3016 1369 3016 2328 
Q 3016 3291 2770 3770 
Q 2525 4250 2034 4250 
z
M 2034 4750 
Q 2819 4750 3233 4129 
Q 3647 3509 3647 2328 
Q 3647 1150 3233 529 
Q 2819 -91 2034 -91 
Q 1250 -91 836 529 
Q 422 1150 422 2328 
Q 422 3509 836 4129 
Q 1250 4750 2034 4750 
z
" transform="scale(0.015625)"/>
       </defs>
       <use xlink:href="#DejaVuSans-30"/>
      </g>
     </g>
    </g>
    <g id="xtick_2">
     <g id="line2d_2">
      <g>
       <use xlink:href="#ma0538cde66" x="142.608051" y="78.268235" style="stroke: #000000; stroke-width: 0.8"/>
      </g>
     </g>
     <g id="text_2">
      <!-- 20 -->
      <g transform="translate(136.245551 92.866673)scale(0.1 -0.1)">
       <defs>
        <path id="DejaVuSans-32" d="M 1228 531 
L 3431 531 
L 3431 0 
L 469 0 
L 469 531 
Q 828 903 1448 1529 
Q 2069 2156 2228 2338 
Q 2531 2678 2651 2914 
Q 2772 3150 2772 3378 
Q 2772 3750 2511 3984 
Q 2250 4219 1831 4219 
Q 1534 4219 1204 4116 
Q 875 4013 500 3803 
L 500 4441 
Q 881 4594 1212 4672 
Q 1544 4750 1819 4750 
Q 2544 4750 2975 4387 
Q 3406 4025 3406 3419 
Q 3406 3131 3298 2873 
Q 3191 2616 2906 2266 
Q 2828 2175 2409 1742 
Q 1991 1309 1228 531 
z
" transform="scale(0.015625)"/>
       </defs>
       <use xlink:href="#DejaVuSans-32"/>
       <use xlink:href="#DejaVuSans-30" x="63.623047"/>
      </g>
     </g>
    </g>
    <g id="xtick_3">
     <g id="line2d_3">
      <g>
       <use xlink:href="#ma0538cde66" x="220.838062" y="78.268235" style="stroke: #000000; stroke-width: 0.8"/>
      </g>
     </g>
     <g id="text_3">
      <!-- 40 -->
      <g transform="translate(214.475562 92.866673)scale(0.1 -0.1)">
       <defs>
        <path id="DejaVuSans-34" d="M 2419 4116 
L 825 1625 
L 2419 1625 
L 2419 4116 
z
M 2253 4666 
L 3047 4666 
L 3047 1625 
L 3713 1625 
L 3713 1100 
L 3047 1100 
L 3047 0 
L 2419 0 
L 2419 1100 
L 313 1100 
L 313 1709 
L 2253 4666 
z
" transform="scale(0.015625)"/>
       </defs>
       <use xlink:href="#DejaVuSans-34"/>
       <use xlink:href="#DejaVuSans-30" x="63.623047"/>
      </g>
     </g>
    </g>
    <g id="xtick_4">
     <g id="line2d_4">
      <g>
       <use xlink:href="#ma0538cde66" x="299.068073" y="78.268235" style="stroke: #000000; stroke-width: 0.8"/>
      </g>
     </g>
     <g id="text_4">
      <!-- 60 -->
      <g transform="translate(292.705573 92.866673)scale(0.1 -0.1)">
       <defs>
        <path id="DejaVuSans-36" d="M 2113 2584 
Q 1688 2584 1439 2293 
Q 1191 2003 1191 1497 
Q 1191 994 1439 701 
Q 1688 409 2113 409 
Q 2538 409 2786 701 
Q 3034 994 3034 1497 
Q 3034 2003 2786 2293 
Q 2538 2584 2113 2584 
z
M 3366 4563 
L 3366 3988 
Q 3128 4100 2886 4159 
Q 2644 4219 2406 4219 
Q 1781 4219 1451 3797 
Q 1122 3375 1075 2522 
Q 1259 2794 1537 2939 
Q 1816 3084 2150 3084 
Q 2853 3084 3261 2657 
Q 3669 2231 3669 1497 
Q 3669 778 3244 343 
Q 2819 -91 2113 -91 
Q 1303 -91 875 529 
Q 447 1150 447 2328 
Q 447 3434 972 4092 
Q 1497 4750 2381 4750 
Q 2619 4750 2861 4703 
Q 3103 4656 3366 4563 
z
" transform="scale(0.015625)"/>
       </defs>
       <use xlink:href="#DejaVuSans-36"/>
       <use xlink:href="#DejaVuSans-30" x="63.623047"/>
      </g>
     </g>
    </g>
    <g id="xtick_5">
     <g id="line2d_5">
      <g>
       <use xlink:href="#ma0538cde66" x="377.298084" y="78.268235" style="stroke: #000000; stroke-width: 0.8"/>
      </g>
     </g>
     <g id="text_5">
      <!-- 80 -->
      <g transform="translate(370.935584 92.866673)scale(0.1 -0.1)">
       <defs>
        <path id="DejaVuSans-38" d="M 2034 2216 
Q 1584 2216 1326 1975 
Q 1069 1734 1069 1313 
Q 1069 891 1326 650 
Q 1584 409 2034 409 
Q 2484 409 2743 651 
Q 3003 894 3003 1313 
Q 3003 1734 2745 1975 
Q 2488 2216 2034 2216 
z
M 1403 2484 
Q 997 2584 770 2862 
Q 544 3141 544 3541 
Q 544 4100 942 4425 
Q 1341 4750 2034 4750 
Q 2731 4750 3128 4425 
Q 3525 4100 3525 3541 
Q 3525 3141 3298 2862 
Q 3072 2584 2669 2484 
Q 3125 2378 3379 2068 
Q 3634 1759 3634 1313 
Q 3634 634 3220 271 
Q 2806 -91 2034 -91 
Q 1263 -91 848 271 
Q 434 634 434 1313 
Q 434 1759 690 2068 
Q 947 2378 1403 2484 
z
M 1172 3481 
Q 1172 3119 1398 2916 
Q 1625 2713 2034 2713 
Q 2441 2713 2670 2916 
Q 2900 3119 2900 3481 
Q 2900 3844 2670 4047 
Q 2441 4250 2034 4250 
Q 1625 4250 1398 4047 
Q 1172 3844 1172 3481 
z
" transform="scale(0.015625)"/>
       </defs>
       <use xlink:href="#DejaVuSans-38"/>
       <use xlink:href="#DejaVuSans-30" x="63.623047"/>
      </g>
     </g>
    </g>
    <g id="text_6">
     <!-- keyframe number -->
     <g transform="translate(182.025625 106.544798)scale(0.1 -0.1)">
      <defs>
       <path id="DejaVuSans-6b" d="M 581 4863 
L 1159 4863 
L 1159 1991 
L 2875 3500 
L 3609 3500 
L 1753 1863 
L 3688 0 
L 2938 0 
L 1159 1709 
L 1159 0 
L 581 0 
L 581 4863 
z
" transform="scale(0.015625)"/>
       <path id="DejaVuSans-65" d="M 3597 1894 
L 3597 1613 
L 953 1613 
Q 991 1019 1311 708 
Q 1631 397 2203 397 
Q 2534 397 2845 478 
Q 3156 559 3463 722 
L 3463 178 
Q 3153 47 2828 -22 
Q 2503 -91 2169 -91 
Q 1331 -91 842 396 
Q 353 884 353 1716 
Q 353 2575 817 3079 
Q 1281 3584 2069 3584 
Q 2775 3584 3186 3129 
Q 3597 2675 3597 1894 
z
M 3022 2063 
Q 3016 2534 2758 2815 
Q 2500 3097 2075 3097 
Q 1594 3097 1305 2825 
Q 1016 2553 972 2059 
L 3022 2063 
z
" transform="scale(0.015625)"/>
       <path id="DejaVuSans-79" d="M 2059 -325 
Q 1816 -950 1584 -1140 
Q 1353 -1331 966 -1331 
L 506 -1331 
L 506 -850 
L 844 -850 
Q 1081 -850 1212 -737 
Q 1344 -625 1503 -206 
L 1606 56 
L 191 3500 
L 800 3500 
L 1894 763 
L 2988 3500 
L 3597 3500 
L 2059 -325 
z
" transform="scale(0.015625)"/>
       <path id="DejaVuSans-66" d="M 2375 4863 
L 2375 4384 
L 1825 4384 
Q 1516 4384 1395 4259 
Q 1275 4134 1275 3809 
L 1275 3500 
L 2222 3500 
L 2222 3053 
L 1275 3053 
L 1275 0 
L 697 0 
L 697 3053 
L 147 3053 
L 147 3500 
L 697 3500 
L 697 3744 
Q 697 4328 969 4595 
Q 1241 4863 1831 4863 
L 2375 4863 
z
" transform="scale(0.015625)"/>
       <path id="DejaVuSans-72" d="M 2631 2963 
Q 2534 3019 2420 3045 
Q 2306 3072 2169 3072 
Q 1681 3072 1420 2755 
Q 1159 2438 1159 1844 
L 1159 0 
L 581 0 
L 581 3500 
L 1159 3500 
L 1159 2956 
Q 1341 3275 1631 3429 
Q 1922 3584 2338 3584 
Q 2397 3584 2469 3576 
Q 2541 3569 2628 3553 
L 2631 2963 
z
" transform="scale(0.015625)"/>
       <path id="DejaVuSans-61" d="M 2194 1759 
Q 1497 1759 1228 1600 
Q 959 1441 959 1056 
Q 959 750 1161 570 
Q 1363 391 1709 391 
Q 2188 391 2477 730 
Q 2766 1069 2766 1631 
L 2766 1759 
L 2194 1759 
z
M 3341 1997 
L 3341 0 
L 2766 0 
L 2766 531 
Q 2569 213 2275 61 
Q 1981 -91 1556 -91 
Q 1019 -91 701 211 
Q 384 513 384 1019 
Q 384 1609 779 1909 
Q 1175 2209 1959 2209 
L 2766 2209 
L 2766 2266 
Q 2766 2663 2505 2880 
Q 2244 3097 1772 3097 
Q 1472 3097 1187 3025 
Q 903 2953 641 2809 
L 641 3341 
Q 956 3463 1253 3523 
Q 1550 3584 1831 3584 
Q 2591 3584 2966 3190 
Q 3341 2797 3341 1997 
z
" transform="scale(0.015625)"/>
       <path id="DejaVuSans-6d" d="M 3328 2828 
Q 3544 3216 3844 3400 
Q 4144 3584 4550 3584 
Q 5097 3584 5394 3201 
Q 5691 2819 5691 2113 
L 5691 0 
L 5113 0 
L 5113 2094 
Q 5113 2597 4934 2840 
Q 4756 3084 4391 3084 
Q 3944 3084 3684 2787 
Q 3425 2491 3425 1978 
L 3425 0 
L 2847 0 
L 2847 2094 
Q 2847 2600 2669 2842 
Q 2491 3084 2119 3084 
Q 1678 3084 1418 2786 
Q 1159 2488 1159 1978 
L 1159 0 
L 581 0 
L 581 3500 
L 1159 3500 
L 1159 2956 
Q 1356 3278 1631 3431 
Q 1906 3584 2284 3584 
Q 2666 3584 2933 3390 
Q 3200 3197 3328 2828 
z
" transform="scale(0.015625)"/>
       <path id="DejaVuSans-20" transform="scale(0.015625)"/>
       <path id="DejaVuSans-6e" d="M 3513 2113 
L 3513 0 
L 2938 0 
L 2938 2094 
Q 2938 2591 2744 2837 
Q 2550 3084 2163 3084 
Q 1697 3084 1428 2787 
Q 1159 2491 1159 1978 
L 1159 0 
L 581 0 
L 581 3500 
L 1159 3500 
L 1159 2956 
Q 1366 3272 1645 3428 
Q 1925 3584 2291 3584 
Q 2894 3584 3203 3211 
Q 3513 2838 3513 2113 
z
" transform="scale(0.015625)"/>
       <path id="DejaVuSans-75" d="M 544 1381 
L 544 3500 
L 1119 3500 
L 1119 1403 
Q 1119 906 1312 657 
Q 1506 409 1894 409 
Q 2359 409 2629 706 
Q 2900 1003 2900 1516 
L 2900 3500 
L 3475 3500 
L 3475 0 
L 2900 0 
L 2900 538 
Q 2691 219 2414 64 
Q 2138 -91 1772 -91 
Q 1169 -91 856 284 
Q 544 659 544 1381 
z
M 1991 3584 
L 1991 3584 
z
" transform="scale(0.015625)"/>
       <path id="DejaVuSans-62" d="M 3116 1747 
Q 3116 2381 2855 2742 
Q 2594 3103 2138 3103 
Q 1681 3103 1420 2742 
Q 1159 2381 1159 1747 
Q 1159 1113 1420 752 
Q 1681 391 2138 391 
Q 2594 391 2855 752 
Q 3116 1113 3116 1747 
z
M 1159 2969 
Q 1341 3281 1617 3432 
Q 1894 3584 2278 3584 
Q 2916 3584 3314 3078 
Q 3713 2572 3713 1747 
Q 3713 922 3314 415 
Q 2916 -91 2278 -91 
Q 1894 -91 1617 61 
Q 1341 213 1159 525 
L 1159 0 
L 581 0 
L 581 4863 
L 1159 4863 
L 1159 2969 
z
" transform="scale(0.015625)"/>
      </defs>
      <use xlink:href="#DejaVuSans-6b"/>
      <use xlink:href="#DejaVuSans-65" x="54.285156"/>
      <use xlink:href="#DejaVuSans-79" x="115.808594"/>
      <use xlink:href="#DejaVuSans-66" x="174.988281"/>
      <use xlink:href="#DejaVuSans-72" x="210.193359"/>
      <use xlink:href="#DejaVuSans-61" x="251.306641"/>
      <use xlink:href="#DejaVuSans-6d" x="312.585938"/>
      <use xlink:href="#DejaVuSans-65" x="409.998047"/>
      <use xlink:href="#DejaVuSans-20" x="471.521484"/>
      <use xlink:href="#DejaVuSans-6e" x="503.308594"/>
      <use xlink:href="#DejaVuSans-75" x="566.6875"/>
      <use xlink:href="#DejaVuSans-6d" x="630.066406"/>
      <use xlink:href="#DejaVuSans-62" x="727.478516"/>
      <use xlink:href="#DejaVuSans-65" x="790.955078"/>
      <use xlink:href="#DejaVuSans-72" x="852.478516"/>
     </g>
    </g>
   </g>
   <g id="matplotlib.axis_2">
    <g id="ytick_1">
     <g id="line2d_6">
      <defs>
       <path id="mb4ccbc67e8" d="M 0 0 
L -3.5 0 
" style="stroke: #000000; stroke-width: 0.8"/>
      </defs>
      <g>
       <use xlink:href="#mb4ccbc67e8" x="48.145313" y="60.829143" style="stroke: #000000; stroke-width: 0.8"/>
      </g>
     </g>
     <g id="text_7">
      <!-- −150 -->
      <g transform="translate(13.678125 64.628362)scale(0.1 -0.1)">
       <defs>
        <path id="DejaVuSans-2212" d="M 678 2272 
L 4684 2272 
L 4684 1741 
L 678 1741 
L 678 2272 
z
" transform="scale(0.015625)"/>
        <path id="DejaVuSans-31" d="M 794 531 
L 1825 531 
L 1825 4091 
L 703 3866 
L 703 4441 
L 1819 4666 
L 2450 4666 
L 2450 531 
L 3481 531 
L 3481 0 
L 794 0 
L 794 531 
z
" transform="scale(0.015625)"/>
        <path id="DejaVuSans-35" d="M 691 4666 
L 3169 4666 
L 3169 4134 
L 1269 4134 
L 1269 2991 
Q 1406 3038 1543 3061 
Q 1681 3084 1819 3084 
Q 2600 3084 3056 2656 
Q 3513 2228 3513 1497 
Q 3513 744 3044 326 
Q 2575 -91 1722 -91 
Q 1428 -91 1123 -41 
Q 819 9 494 109 
L 494 744 
Q 775 591 1075 516 
Q 1375 441 1709 441 
Q 2250 441 2565 725 
Q 2881 1009 2881 1497 
Q 2881 1984 2565 2268 
Q 2250 2553 1709 2553 
Q 1456 2553 1204 2497 
Q 953 2441 691 2322 
L 691 4666 
z
" transform="scale(0.015625)"/>
       </defs>
       <use xlink:href="#DejaVuSans-2212"/>
       <use xlink:href="#DejaVuSans-31" x="83.789062"/>
       <use xlink:href="#DejaVuSans-35" x="147.412109"/>
       <use xlink:href="#DejaVuSans-30" x="211.035156"/>
      </g>
     </g>
    </g>
    <g id="ytick_2">
     <g id="line2d_7">
      <g>
       <use xlink:href="#mb4ccbc67e8" x="48.145313" y="32.73602" style="stroke: #000000; stroke-width: 0.8"/>
      </g>
     </g>
     <g id="text_8">
      <!-- −100 -->
      <g transform="translate(13.678125 36.535239)scale(0.1 -0.1)">
       <use xlink:href="#DejaVuSans-2212"/>
       <use xlink:href="#DejaVuSans-31" x="83.789062"/>
       <use xlink:href="#DejaVuSans-30" x="147.412109"/>
       <use xlink:href="#DejaVuSans-30" x="211.035156"/>
      </g>
     </g>
    </g>
    <g id="ytick_3">
     <g id="line2d_8">
      <g>
       <use xlink:href="#mb4ccbc67e8" x="48.145313" y="4.642896" style="stroke: #000000; stroke-width: 0.8"/>
      </g>
     </g>
     <g id="text_9">
      <!-- −50 -->
      <g transform="translate(20.040625 8.442115)scale(0.1 -0.1)">
       <use xlink:href="#DejaVuSans-2212"/>
       <use xlink:href="#DejaVuSans-35" x="83.789062"/>
       <use xlink:href="#DejaVuSans-30" x="147.412109"/>
      </g>
     </g>
    </g>
    <g id="text_10">
     <!-- yaw [degrees] -->
     <g transform="translate(7.598437 74.863024)rotate(-90)scale(0.1 -0.1)">
      <defs>
       <path id="DejaVuSans-77" d="M 269 3500 
L 844 3500 
L 1563 769 
L 2278 3500 
L 2956 3500 
L 3675 769 
L 4391 3500 
L 4966 3500 
L 4050 0 
L 3372 0 
L 2619 2869 
L 1863 0 
L 1184 0 
L 269 3500 
z
" transform="scale(0.015625)"/>
       <path id="DejaVuSans-5b" d="M 550 4863 
L 1875 4863 
L 1875 4416 
L 1125 4416 
L 1125 -397 
L 1875 -397 
L 1875 -844 
L 550 -844 
L 550 4863 
z
" transform="scale(0.015625)"/>
       <path id="DejaVuSans-64" d="M 2906 2969 
L 2906 4863 
L 3481 4863 
L 3481 0 
L 2906 0 
L 2906 525 
Q 2725 213 2448 61 
Q 2172 -91 1784 -91 
Q 1150 -91 751 415 
Q 353 922 353 1747 
Q 353 2572 751 3078 
Q 1150 3584 1784 3584 
Q 2172 3584 2448 3432 
Q 2725 3281 2906 2969 
z
M 947 1747 
Q 947 1113 1208 752 
Q 1469 391 1925 391 
Q 2381 391 2643 752 
Q 2906 1113 2906 1747 
Q 2906 2381 2643 2742 
Q 2381 3103 1925 3103 
Q 1469 3103 1208 2742 
Q 947 2381 947 1747 
z
" transform="scale(0.015625)"/>
       <path id="DejaVuSans-67" d="M 2906 1791 
Q 2906 2416 2648 2759 
Q 2391 3103 1925 3103 
Q 1463 3103 1205 2759 
Q 947 2416 947 1791 
Q 947 1169 1205 825 
Q 1463 481 1925 481 
Q 2391 481 2648 825 
Q 2906 1169 2906 1791 
z
M 3481 434 
Q 3481 -459 3084 -895 
Q 2688 -1331 1869 -1331 
Q 1566 -1331 1297 -1286 
Q 1028 -1241 775 -1147 
L 775 -588 
Q 1028 -725 1275 -790 
Q 1522 -856 1778 -856 
Q 2344 -856 2625 -561 
Q 2906 -266 2906 331 
L 2906 616 
Q 2728 306 2450 153 
Q 2172 0 1784 0 
Q 1141 0 747 490 
Q 353 981 353 1791 
Q 353 2603 747 3093 
Q 1141 3584 1784 3584 
Q 2172 3584 2450 3431 
Q 2728 3278 2906 2969 
L 2906 3500 
L 3481 3500 
L 3481 434 
z
" transform="scale(0.015625)"/>
       <path id="DejaVuSans-73" d="M 2834 3397 
L 2834 2853 
Q 2591 2978 2328 3040 
Q 2066 3103 1784 3103 
Q 1356 3103 1142 2972 
Q 928 2841 928 2578 
Q 928 2378 1081 2264 
Q 1234 2150 1697 2047 
L 1894 2003 
Q 2506 1872 2764 1633 
Q 3022 1394 3022 966 
Q 3022 478 2636 193 
Q 2250 -91 1575 -91 
Q 1294 -91 989 -36 
Q 684 19 347 128 
L 347 722 
Q 666 556 975 473 
Q 1284 391 1588 391 
Q 1994 391 2212 530 
Q 2431 669 2431 922 
Q 2431 1156 2273 1281 
Q 2116 1406 1581 1522 
L 1381 1569 
Q 847 1681 609 1914 
Q 372 2147 372 2553 
Q 372 3047 722 3315 
Q 1072 3584 1716 3584 
Q 2034 3584 2315 3537 
Q 2597 3491 2834 3397 
z
" transform="scale(0.015625)"/>
       <path id="DejaVuSans-5d" d="M 1947 4863 
L 1947 -844 
L 622 -844 
L 622 -397 
L 1369 -397 
L 1369 4416 
L 622 4416 
L 622 4863 
L 1947 4863 
z
" transform="scale(0.015625)"/>
      </defs>
      <use xlink:href="#DejaVuSans-79"/>
      <use xlink:href="#DejaVuSans-61" x="59.179688"/>
      <use xlink:href="#DejaVuSans-77" x="120.458984"/>
      <use xlink:href="#DejaVuSans-20" x="202.246094"/>
      <use xlink:href="#DejaVuSans-5b" x="234.033203"/>
      <use xlink:href="#DejaVuSans-64" x="273.046875"/>
      <use xlink:href="#DejaVuSans-65" x="336.523438"/>
      <use xlink:href="#DejaVuSans-67" x="398.046875"/>
      <use xlink:href="#DejaVuSans-72" x="461.523438"/>
      <use xlink:href="#DejaVuSans-65" x="500.386719"/>
      <use xlink:href="#DejaVuSans-65" x="561.910156"/>
      <use xlink:href="#DejaVuSans-73" x="623.433594"/>
      <use xlink:href="#DejaVuSans-5d" x="675.533203"/>
     </g>
    </g>
   </g>
   <g id="line2d_9">
    <path d="M 64.37804 30.040837 
L 68.337242 30.069984 
L 72.296443 29.976092 
L 76.255645 30.022557 
L 80.214847 30.096327 
L 84.174049 29.973682 
L 88.13325 30.033566 
L 92.092452 29.729128 
L 96.051654 30.274408 
L 100.010856 30.461166 
L 103.970058 30.53342 
L 107.929259 30.796202 
L 111.888461 30.490296 
L 115.847663 30.405213 
L 119.806865 29.881607 
L 123.766066 30.189941 
L 127.725268 30.309977 
L 131.68447 30.292953 
L 135.643672 29.952279 
L 139.602873 30.29308 
L 143.562075 30.531525 
L 147.521277 30.437989 
L 151.480479 30.844718 
L 155.439681 30.630027 
L 159.398882 30.356952 
L 163.358084 29.636059 
L 167.317286 30.01426 
L 171.276488 30.041625 
L 175.235689 30.147134 
L 179.194891 30.317415 
L 183.154093 30.130861 
L 187.113295 30.264612 
L 191.072497 30.788184 
L 195.031698 30.587898 
L 198.9909 30.301771 
L 202.950102 30.49227 
L 206.909304 30.189682 
L 210.868505 31.163074 
L 214.827707 30.631545 
L 218.786909 30.569207 
L 222.746111 30.215963 
L 226.705312 30.641001 
L 230.664514 30.815888 
L 234.623716 30.51576 
L 238.582918 30.596172 
L 242.54212 30.606437 
L 246.501321 30.600799 
L 250.460523 30.187051 
L 254.419725 30.303945 
L 258.378927 30.241668 
L 262.338128 29.403073 
L 266.29733 29.318097 
L 270.256532 29.723588 
L 274.215734 30.139923 
L 278.174936 29.539667 
L 282.134137 30.239379 
L 286.093339 29.671384 
L 290.052541 29.254697 
L 294.011743 29.648421 
L 297.970944 29.983415 
L 301.930146 30.377662 
L 305.889348 30.388331 
L 309.84855 30.388345 
L 313.807752 29.817234 
L 317.766953 30.19264 
L 321.726155 30.248875 
L 325.685357 30.181853 
L 329.644559 29.880139 
L 333.60376 29.55489 
L 337.562962 29.873503 
L 341.522164 30.031008 
L 345.481366 29.718825 
L 349.440567 29.980594 
L 353.399769 30.229725 
L 357.358971 30.360923 
L 361.318173 30.319172 
L 365.277375 30.027895 
L 369.236576 29.640303 
L 373.195778 29.869833 
L 377.15498 30.317955 
L 381.114182 30.375618 
L 385.073383 30.677017 
L 389.032585 30.780443 
" clip-path="url(#p8779aadebf)" style="fill: none; stroke: #008000; stroke-width: 1.5; stroke-linecap: square"/>
   </g>
   <g id="line2d_10">
    <path d="M 64.37804 30.040825 
L 68.337242 30.040456 
L 72.296443 30.044977 
L 76.255645 30.032742 
L 80.214847 30.004526 
L 84.174049 29.765753 
L 88.13325 29.987164 
L 92.092452 29.619882 
L 96.051654 29.522211 
L 100.010856 30.439082 
L 103.970058 31.391869 
L 107.929259 31.707145 
L 111.888461 32.993213 
L 115.847663 3.557647 
L 119.806865 4.365234 
L 123.766066 5.908014 
L 127.725268 13.001751 
L 131.68447 25.694745 
L 135.643672 37.101706 
L 139.602873 18.701781 
L 143.562075 27.395641 
L 147.521277 18.164377 
L 151.480479 13.29277 
L 155.439681 11.01225 
L 159.398882 11.307659 
L 163.358084 13.903109 
L 167.317286 14.818018 
L 171.276488 14.851493 
L 175.235689 15.092899 
L 179.194891 15.080648 
L 183.154093 13.577596 
L 187.113295 9.70316 
L 191.072497 9.232185 
L 195.031698 9.658135 
L 198.9909 12.877704 
L 202.950102 12.441227 
L 206.909304 10.258216 
L 210.868505 10.413021 
L 214.827707 8.597047 
L 218.786909 8.795201 
L 222.746111 6.610426 
L 226.705312 7.270216 
L 230.664514 9.882301 
L 234.623716 13.327192 
L 238.582918 19.309245 
L 242.54212 18.728299 
L 246.501321 26.072259 
L 250.460523 35.190626 
L 254.419725 38.45153 
L 258.378927 43.209039 
L 262.338128 47.416626 
L 266.29733 47.319468 
L 270.256532 50.581254 
L 274.215734 52.830872 
L 278.174936 52.981716 
L 282.134137 46.633665 
L 286.093339 40.989262 
L 290.052541 40.646714 
L 294.011743 42.197654 
L 297.970944 46.081704 
L 301.930146 46.726501 
L 305.889348 46.726162 
L 309.84855 46.734941 
L 313.807752 46.098745 
L 317.766953 46.498758 
L 321.726155 45.029 
L 325.685357 45.776672 
L 329.644559 46.632902 
L 333.60376 46.249053 
L 337.562962 44.581486 
L 341.522164 42.572701 
L 345.481366 39.506327 
L 349.440567 51.942457 
L 353.399769 65.59015 
L 357.358971 74.652645 
L 361.318173 74.710588 
L 365.277375 74.549547 
L 369.236576 72.961181 
L 373.195778 58.819069 
L 377.15498 59.161502 
L 381.114182 59.167609 
L 385.073383 59.229976 
L 389.032585 59.506649 
" clip-path="url(#p8779aadebf)" style="fill: none; stroke: #ff0000; stroke-width: 1.5; stroke-linecap: square"/>
   </g>
   <g id="patch_3">
    <path d="M 48.145313 78.268235 
L 48.145313 -0 
" style="fill: none; stroke: #000000; stroke-width: 0.8; stroke-linejoin: miter; stroke-linecap: square"/>
   </g>
   <g id="patch_4">
    <path d="M 405.265313 78.268235 
L 405.265313 -0 
" style="fill: none; stroke: #000000; stroke-width: 0.8; stroke-linejoin: miter; stroke-linecap: square"/>
   </g>
   <g id="patch_5">
    <path d="M 48.145313 78.268235 
L 405.265312 78.268235 
" style="fill: none; stroke: #000000; stroke-width: 0.8; stroke-linejoin: miter; stroke-linecap: square"/>
   </g>
   <g id="patch_6">
    <path d="M 48.145313 -0 
L 405.265312 -0 
" style="fill: none; stroke: #000000; stroke-width: 0.8; stroke-linejoin: miter; stroke-linecap: square"/>
   </g>
   <g id="legend_1">
    <g id="patch_7">
     <path d="M 55.145313 73.268235 
L 152.148438 73.268235 
Q 154.148438 73.268235 154.148438 71.268235 
L 154.148438 42.63386 
Q 154.148438 40.63386 152.148438 40.63386 
L 55.145313 40.63386 
Q 53.145313 40.63386 53.145313 42.63386 
L 53.145313 71.268235 
Q 53.145313 73.268235 55.145313 73.268235 
z
" style="fill: #ffffff; opacity: 0.8; stroke: #cccccc; stroke-linejoin: miter"/>
    </g>
    <g id="line2d_11">
     <path d="M 57.145313 48.732298 
L 67.145313 48.732298 
L 77.145313 48.732298 
" style="fill: none; stroke: #008000; stroke-width: 1.5; stroke-linecap: square"/>
    </g>
    <g id="text_11">
     <!-- ground_truth -->
     <g transform="translate(85.145313 52.232298)scale(0.1 -0.1)">
      <defs>
       <path id="DejaVuSans-6f" d="M 1959 3097 
Q 1497 3097 1228 2736 
Q 959 2375 959 1747 
Q 959 1119 1226 758 
Q 1494 397 1959 397 
Q 2419 397 2687 759 
Q 2956 1122 2956 1747 
Q 2956 2369 2687 2733 
Q 2419 3097 1959 3097 
z
M 1959 3584 
Q 2709 3584 3137 3096 
Q 3566 2609 3566 1747 
Q 3566 888 3137 398 
Q 2709 -91 1959 -91 
Q 1206 -91 779 398 
Q 353 888 353 1747 
Q 353 2609 779 3096 
Q 1206 3584 1959 3584 
z
" transform="scale(0.015625)"/>
       <path id="DejaVuSans-5f" d="M 3263 -1063 
L 3263 -1509 
L -63 -1509 
L -63 -1063 
L 3263 -1063 
z
" transform="scale(0.015625)"/>
       <path id="DejaVuSans-74" d="M 1172 4494 
L 1172 3500 
L 2356 3500 
L 2356 3053 
L 1172 3053 
L 1172 1153 
Q 1172 725 1289 603 
Q 1406 481 1766 481 
L 2356 481 
L 2356 0 
L 1766 0 
Q 1100 0 847 248 
Q 594 497 594 1153 
L 594 3053 
L 172 3053 
L 172 3500 
L 594 3500 
L 594 4494 
L 1172 4494 
z
" transform="scale(0.015625)"/>
       <path id="DejaVuSans-68" d="M 3513 2113 
L 3513 0 
L 2938 0 
L 2938 2094 
Q 2938 2591 2744 2837 
Q 2550 3084 2163 3084 
Q 1697 3084 1428 2787 
Q 1159 2491 1159 1978 
L 1159 0 
L 581 0 
L 581 4863 
L 1159 4863 
L 1159 2956 
Q 1366 3272 1645 3428 
Q 1925 3584 2291 3584 
Q 2894 3584 3203 3211 
Q 3513 2838 3513 2113 
z
" transform="scale(0.015625)"/>
      </defs>
      <use xlink:href="#DejaVuSans-67"/>
      <use xlink:href="#DejaVuSans-72" x="63.476562"/>
      <use xlink:href="#DejaVuSans-6f" x="102.339844"/>
      <use xlink:href="#DejaVuSans-75" x="163.521484"/>
      <use xlink:href="#DejaVuSans-6e" x="226.900391"/>
      <use xlink:href="#DejaVuSans-64" x="290.279297"/>
      <use xlink:href="#DejaVuSans-5f" x="353.755859"/>
      <use xlink:href="#DejaVuSans-74" x="403.755859"/>
      <use xlink:href="#DejaVuSans-72" x="442.964844"/>
      <use xlink:href="#DejaVuSans-75" x="484.078125"/>
      <use xlink:href="#DejaVuSans-74" x="547.457031"/>
      <use xlink:href="#DejaVuSans-68" x="586.666016"/>
     </g>
    </g>
    <g id="line2d_12">
     <path d="M 57.145313 63.688548 
L 67.145313 63.688548 
L 77.145313 63.688548 
" style="fill: none; stroke: #ff0000; stroke-width: 1.5; stroke-linecap: square"/>
    </g>
    <g id="text_12">
     <!-- estimated -->
     <g transform="translate(85.145313 67.188548)scale(0.1 -0.1)">
      <defs>
       <path id="DejaVuSans-69" d="M 603 3500 
L 1178 3500 
L 1178 0 
L 603 0 
L 603 3500 
z
M 603 4863 
L 1178 4863 
L 1178 4134 
L 603 4134 
L 603 4863 
z
" transform="scale(0.015625)"/>
      </defs>
      <use xlink:href="#DejaVuSans-65"/>
      <use xlink:href="#DejaVuSans-73" x="61.523438"/>
      <use xlink:href="#DejaVuSans-74" x="113.623047"/>
      <use xlink:href="#DejaVuSans-69" x="152.832031"/>
      <use xlink:href="#DejaVuSans-6d" x="180.615234"/>
      <use xlink:href="#DejaVuSans-61" x="278.027344"/>
      <use xlink:href="#DejaVuSans-74" x="339.306641"/>
      <use xlink:href="#DejaVuSans-65" x="378.515625"/>
      <use xlink:href="#DejaVuSans-64" x="440.039062"/>
     </g>
    </g>
   </g>
  </g>
  <g id="axes_2">
   <g id="patch_8">
    <path d="M 48.145313 172.190118 
L 405.265313 172.190118 
L 405.265313 93.921882 
L 48.145313 93.921882 
z
" style="fill: #ffffff"/>
   </g>
   <g id="matplotlib.axis_3">
    <g id="xtick_6">
     <g id="line2d_13">
      <g>
       <use xlink:href="#ma0538cde66" x="64.37804" y="172.190118" style="stroke: #000000; stroke-width: 0.8"/>
      </g>
     </g>
     <g id="text_13">
      <!-- 0 -->
      <g transform="translate(61.19679 186.788555)scale(0.1 -0.1)">
       <use xlink:href="#DejaVuSans-30"/>
      </g>
     </g>
    </g>
    <g id="xtick_7">
     <g id="line2d_14">
      <g>
       <use xlink:href="#ma0538cde66" x="142.608051" y="172.190118" style="stroke: #000000; stroke-width: 0.8"/>
      </g>
     </g>
     <g id="text_14">
      <!-- 20 -->
      <g transform="translate(136.245551 186.788555)scale(0.1 -0.1)">
       <use xlink:href="#DejaVuSans-32"/>
       <use xlink:href="#DejaVuSans-30" x="63.623047"/>
      </g>
     </g>
    </g>
    <g id="xtick_8">
     <g id="line2d_15">
      <g>
       <use xlink:href="#ma0538cde66" x="220.838062" y="172.190118" style="stroke: #000000; stroke-width: 0.8"/>
      </g>
     </g>
     <g id="text_15">
      <!-- 40 -->
      <g transform="translate(214.475562 186.788555)scale(0.1 -0.1)">
       <use xlink:href="#DejaVuSans-34"/>
       <use xlink:href="#DejaVuSans-30" x="63.623047"/>
      </g>
     </g>
    </g>
    <g id="xtick_9">
     <g id="line2d_16">
      <g>
       <use xlink:href="#ma0538cde66" x="299.068073" y="172.190118" style="stroke: #000000; stroke-width: 0.8"/>
      </g>
     </g>
     <g id="text_16">
      <!-- 60 -->
      <g transform="translate(292.705573 186.788555)scale(0.1 -0.1)">
       <use xlink:href="#DejaVuSans-36"/>
       <use xlink:href="#DejaVuSans-30" x="63.623047"/>
      </g>
     </g>
    </g>
    <g id="xtick_10">
     <g id="line2d_17">
      <g>
       <use xlink:href="#ma0538cde66" x="377.298084" y="172.190118" style="stroke: #000000; stroke-width: 0.8"/>
      </g>
     </g>
     <g id="text_17">
      <!-- 80 -->
      <g transform="translate(370.935584 186.788555)scale(0.1 -0.1)">
       <use xlink:href="#DejaVuSans-38"/>
       <use xlink:href="#DejaVuSans-30" x="63.623047"/>
      </g>
     </g>
    </g>
    <g id="text_18">
     <!-- keyframe number -->
     <g transform="translate(182.025625 200.46668)scale(0.1 -0.1)">
      <use xlink:href="#DejaVuSans-6b"/>
      <use xlink:href="#DejaVuSans-65" x="54.285156"/>
      <use xlink:href="#DejaVuSans-79" x="115.808594"/>
      <use xlink:href="#DejaVuSans-66" x="174.988281"/>
      <use xlink:href="#DejaVuSans-72" x="210.193359"/>
      <use xlink:href="#DejaVuSans-61" x="251.306641"/>
      <use xlink:href="#DejaVuSans-6d" x="312.585938"/>
      <use xlink:href="#DejaVuSans-65" x="409.998047"/>
      <use xlink:href="#DejaVuSans-20" x="471.521484"/>
      <use xlink:href="#DejaVuSans-6e" x="503.308594"/>
      <use xlink:href="#DejaVuSans-75" x="566.6875"/>
      <use xlink:href="#DejaVuSans-6d" x="630.066406"/>
      <use xlink:href="#DejaVuSans-62" x="727.478516"/>
      <use xlink:href="#DejaVuSans-65" x="790.955078"/>
      <use xlink:href="#DejaVuSans-72" x="852.478516"/>
     </g>
    </g>
   </g>
   <g id="matplotlib.axis_4">
    <g id="ytick_4">
     <g id="line2d_18">
      <g>
       <use xlink:href="#mb4ccbc67e8" x="48.145313" y="136.478687" style="stroke: #000000; stroke-width: 0.8"/>
      </g>
     </g>
     <g id="text_19">
      <!-- 0 -->
      <g transform="translate(34.782813 140.277906)scale(0.1 -0.1)">
       <use xlink:href="#DejaVuSans-30"/>
      </g>
     </g>
    </g>
    <g id="ytick_5">
     <g id="line2d_19">
      <g>
       <use xlink:href="#mb4ccbc67e8" x="48.145313" y="98.265657" style="stroke: #000000; stroke-width: 0.8"/>
      </g>
     </g>
     <g id="text_20">
      <!-- 50 -->
      <g transform="translate(28.420313 102.064876)scale(0.1 -0.1)">
       <use xlink:href="#DejaVuSans-35"/>
       <use xlink:href="#DejaVuSans-30" x="63.623047"/>
      </g>
     </g>
    </g>
    <g id="text_21">
     <!-- pitch [degrees] -->
     <g transform="translate(22.340625 171.113812)rotate(-90)scale(0.1 -0.1)">
      <defs>
       <path id="DejaVuSans-70" d="M 1159 525 
L 1159 -1331 
L 581 -1331 
L 581 3500 
L 1159 3500 
L 1159 2969 
Q 1341 3281 1617 3432 
Q 1894 3584 2278 3584 
Q 2916 3584 3314 3078 
Q 3713 2572 3713 1747 
Q 3713 922 3314 415 
Q 2916 -91 2278 -91 
Q 1894 -91 1617 61 
Q 1341 213 1159 525 
z
M 3116 1747 
Q 3116 2381 2855 2742 
Q 2594 3103 2138 3103 
Q 1681 3103 1420 2742 
Q 1159 2381 1159 1747 
Q 1159 1113 1420 752 
Q 1681 391 2138 391 
Q 2594 391 2855 752 
Q 3116 1113 3116 1747 
z
" transform="scale(0.015625)"/>
       <path id="DejaVuSans-63" d="M 3122 3366 
L 3122 2828 
Q 2878 2963 2633 3030 
Q 2388 3097 2138 3097 
Q 1578 3097 1268 2742 
Q 959 2388 959 1747 
Q 959 1106 1268 751 
Q 1578 397 2138 397 
Q 2388 397 2633 464 
Q 2878 531 3122 666 
L 3122 134 
Q 2881 22 2623 -34 
Q 2366 -91 2075 -91 
Q 1284 -91 818 406 
Q 353 903 353 1747 
Q 353 2603 823 3093 
Q 1294 3584 2113 3584 
Q 2378 3584 2631 3529 
Q 2884 3475 3122 3366 
z
" transform="scale(0.015625)"/>
      </defs>
      <use xlink:href="#DejaVuSans-70"/>
      <use xlink:href="#DejaVuSans-69" x="63.476562"/>
      <use xlink:href="#DejaVuSans-74" x="91.259766"/>
      <use xlink:href="#DejaVuSans-63" x="130.46875"/>
      <use xlink:href="#DejaVuSans-68" x="185.449219"/>
      <use xlink:href="#DejaVuSans-20" x="248.828125"/>
      <use xlink:href="#DejaVuSans-5b" x="280.615234"/>
      <use xlink:href="#DejaVuSans-64" x="319.628906"/>
      <use xlink:href="#DejaVuSans-65" x="383.105469"/>
      <use xlink:href="#DejaVuSans-67" x="444.628906"/>
      <use xlink:href="#DejaVuSans-72" x="508.105469"/>
      <use xlink:href="#DejaVuSans-65" x="546.96875"/>
      <use xlink:href="#DejaVuSans-65" x="608.492188"/>
      <use xlink:href="#DejaVuSans-73" x="670.015625"/>
      <use xlink:href="#DejaVuSans-5d" x="722.115234"/>
     </g>
    </g>
   </g>
   <g id="line2d_20">
    <path d="M 64.37804 136.059014 
L 68.337242 136.078919 
L 72.296443 135.929934 
L 76.255645 135.928907 
L 80.214847 136.106348 
L 84.174049 136.153676 
L 88.13325 136.353121 
L 92.092452 136.409502 
L 96.051654 136.797611 
L 100.010856 136.469091 
L 103.970058 136.368273 
L 107.929259 136.082282 
L 111.888461 136.074409 
L 115.847663 136.271849 
L 119.806865 136.32719 
L 123.766066 136.397947 
L 127.725268 136.430015 
L 131.68447 136.374835 
L 135.643672 136.669067 
L 139.602873 136.729568 
L 143.562075 136.488797 
L 147.521277 136.473538 
L 151.480479 136.22362 
L 155.439681 136.15433 
L 159.398882 136.305823 
L 163.358084 136.486018 
L 167.317286 135.749526 
L 171.276488 136.009518 
L 175.235689 136.25321 
L 179.194891 136.587849 
L 183.154093 136.584678 
L 187.113295 136.471542 
L 191.072497 136.343422 
L 195.031698 136.143122 
L 198.9909 135.85246 
L 202.950102 136.307656 
L 206.909304 135.871117 
L 210.868505 135.907952 
L 214.827707 136.126487 
L 218.786909 136.572839 
L 222.746111 136.305315 
L 226.705312 136.190268 
L 230.664514 135.691688 
L 234.623716 135.509682 
L 238.582918 135.509845 
L 242.54212 135.778135 
L 246.501321 135.278859 
L 250.460523 135.496119 
L 254.419725 135.667763 
L 258.378927 135.756066 
L 262.338128 135.914262 
L 266.29733 135.55265 
L 270.256532 135.465616 
L 274.215734 135.376432 
L 278.174936 136.77333 
L 282.134137 135.66981 
L 286.093339 135.778951 
L 290.052541 135.858256 
L 294.011743 135.910731 
L 297.970944 136.01318 
L 301.930146 135.9782 
L 305.889348 135.955275 
L 309.84855 135.955908 
L 313.807752 135.976093 
L 317.766953 135.812684 
L 321.726155 135.844473 
L 325.685357 135.765889 
L 329.644559 135.87269 
L 333.60376 136.027402 
L 337.562962 136.139886 
L 341.522164 136.162978 
L 345.481366 136.172311 
L 349.440567 136.480421 
L 353.399769 136.871783 
L 357.358971 136.554684 
L 361.318173 136.379669 
L 365.277375 136.970711 
L 369.236576 137.57421 
L 373.195778 137.614011 
L 377.15498 137.206827 
L 381.114182 137.326367 
L 385.073383 136.773797 
L 389.032585 136.624691 
" clip-path="url(#p018a10443f)" style="fill: none; stroke: #008000; stroke-width: 1.5; stroke-linecap: square"/>
   </g>
   <g id="line2d_21">
    <path d="M 64.37804 136.058995 
L 68.337242 136.060869 
L 72.296443 136.059735 
L 76.255645 136.046034 
L 80.214847 136.285114 
L 84.174049 136.461603 
L 88.13325 136.787102 
L 92.092452 137.156053 
L 96.051654 139.184578 
L 100.010856 139.4129 
L 103.970058 139.198381 
L 107.929259 138.879053 
L 111.888461 138.013812 
L 115.847663 124.129749 
L 119.806865 118.80631 
L 123.766066 114.232309 
L 127.725268 104.041404 
L 131.68447 97.907008 
L 135.643672 97.479529 
L 139.602873 99.412956 
L 143.562075 103.490112 
L 147.521277 109.85085 
L 151.480479 115.862379 
L 155.439681 121.372926 
L 159.398882 119.853125 
L 163.358084 114.392497 
L 167.317286 112.513543 
L 171.276488 112.525203 
L 175.235689 112.783214 
L 179.194891 113.592553 
L 183.154093 116.021831 
L 187.113295 127.717092 
L 191.072497 137.331 
L 195.031698 144.038285 
L 198.9909 155.052583 
L 202.950102 155.923741 
L 206.909304 151.039946 
L 210.868505 148.353172 
L 214.827707 140.589575 
L 218.786909 129.606139 
L 222.746111 132.597639 
L 226.705312 143.980093 
L 230.664514 153.010186 
L 234.623716 159.37124 
L 238.582918 165.810729 
L 242.54212 165.763112 
L 246.501321 168.534783 
L 250.460523 168.632471 
L 254.419725 167.953538 
L 258.378927 165.500222 
L 262.338128 161.85098 
L 266.29733 160.470586 
L 270.256532 156.314144 
L 274.215734 149.954851 
L 278.174936 148.036569 
L 282.134137 153.526142 
L 286.093339 151.452472 
L 290.052541 151.208867 
L 294.011743 149.439699 
L 297.970944 144.195704 
L 301.930146 143.596401 
L 305.889348 143.605499 
L 309.84855 143.609654 
L 313.807752 144.431501 
L 317.766953 146.178704 
L 321.726155 147.374889 
L 325.685357 144.87763 
L 329.644559 138.554462 
L 333.60376 133.139189 
L 337.562962 126.809288 
L 341.522164 122.628544 
L 345.481366 118.58523 
L 349.440567 113.05208 
L 353.399769 132.880685 
L 357.358971 148.388839 
L 361.318173 150.796869 
L 365.277375 151.017678 
L 369.236576 146.069697 
L 373.195778 140.889178 
L 377.15498 135.061099 
L 381.114182 136.68164 
L 385.073383 143.030957 
L 389.032585 137.553946 
" clip-path="url(#p018a10443f)" style="fill: none; stroke: #ff0000; stroke-width: 1.5; stroke-linecap: square"/>
   </g>
   <g id="patch_9">
    <path d="M 48.145313 172.190118 
L 48.145313 93.921882 
" style="fill: none; stroke: #000000; stroke-width: 0.8; stroke-linejoin: miter; stroke-linecap: square"/>
   </g>
   <g id="patch_10">
    <path d="M 405.265313 172.190118 
L 405.265313 93.921882 
" style="fill: none; stroke: #000000; stroke-width: 0.8; stroke-linejoin: miter; stroke-linecap: square"/>
   </g>
   <g id="patch_11">
    <path d="M 48.145313 172.190118 
L 405.265312 172.190118 
" style="fill: none; stroke: #000000; stroke-width: 0.8; stroke-linejoin: miter; stroke-linecap: square"/>
   </g>
   <g id="patch_12">
    <path d="M 48.145313 93.921882 
L 405.265312 93.921882 
" style="fill: none; stroke: #000000; stroke-width: 0.8; stroke-linejoin: miter; stroke-linecap: square"/>
   </g>
  </g>
  <g id="axes_3">
   <g id="patch_13">
    <path d="M 48.145313 266.112 
L 405.265313 266.112 
L 405.265313 187.843765 
L 48.145313 187.843765 
z
" style="fill: #ffffff"/>
   </g>
   <g id="matplotlib.axis_5">
    <g id="xtick_11">
     <g id="line2d_22">
      <g>
       <use xlink:href="#ma0538cde66" x="64.37804" y="266.112" style="stroke: #000000; stroke-width: 0.8"/>
      </g>
     </g>
     <g id="text_22">
      <!-- 0 -->
      <g transform="translate(61.19679 280.710437)scale(0.1 -0.1)">
       <use xlink:href="#DejaVuSans-30"/>
      </g>
     </g>
    </g>
    <g id="xtick_12">
     <g id="line2d_23">
      <g>
       <use xlink:href="#ma0538cde66" x="142.608051" y="266.112" style="stroke: #000000; stroke-width: 0.8"/>
      </g>
     </g>
     <g id="text_23">
      <!-- 20 -->
      <g transform="translate(136.245551 280.710437)scale(0.1 -0.1)">
       <use xlink:href="#DejaVuSans-32"/>
       <use xlink:href="#DejaVuSans-30" x="63.623047"/>
      </g>
     </g>
    </g>
    <g id="xtick_13">
     <g id="line2d_24">
      <g>
       <use xlink:href="#ma0538cde66" x="220.838062" y="266.112" style="stroke: #000000; stroke-width: 0.8"/>
      </g>
     </g>
     <g id="text_24">
      <!-- 40 -->
      <g transform="translate(214.475562 280.710437)scale(0.1 -0.1)">
       <use xlink:href="#DejaVuSans-34"/>
       <use xlink:href="#DejaVuSans-30" x="63.623047"/>
      </g>
     </g>
    </g>
    <g id="xtick_14">
     <g id="line2d_25">
      <g>
       <use xlink:href="#ma0538cde66" x="299.068073" y="266.112" style="stroke: #000000; stroke-width: 0.8"/>
      </g>
     </g>
     <g id="text_25">
      <!-- 60 -->
      <g transform="translate(292.705573 280.710437)scale(0.1 -0.1)">
       <use xlink:href="#DejaVuSans-36"/>
       <use xlink:href="#DejaVuSans-30" x="63.623047"/>
      </g>
     </g>
    </g>
    <g id="xtick_15">
     <g id="line2d_26">
      <g>
       <use xlink:href="#ma0538cde66" x="377.298084" y="266.112" style="stroke: #000000; stroke-width: 0.8"/>
      </g>
     </g>
     <g id="text_26">
      <!-- 80 -->
      <g transform="translate(370.935584 280.710437)scale(0.1 -0.1)">
       <use xlink:href="#DejaVuSans-38"/>
       <use xlink:href="#DejaVuSans-30" x="63.623047"/>
      </g>
     </g>
    </g>
    <g id="text_27">
     <!-- keyframe number -->
     <g transform="translate(182.025625 294.388562)scale(0.1 -0.1)">
      <use xlink:href="#DejaVuSans-6b"/>
      <use xlink:href="#DejaVuSans-65" x="54.285156"/>
      <use xlink:href="#DejaVuSans-79" x="115.808594"/>
      <use xlink:href="#DejaVuSans-66" x="174.988281"/>
      <use xlink:href="#DejaVuSans-72" x="210.193359"/>
      <use xlink:href="#DejaVuSans-61" x="251.306641"/>
      <use xlink:href="#DejaVuSans-6d" x="312.585938"/>
      <use xlink:href="#DejaVuSans-65" x="409.998047"/>
      <use xlink:href="#DejaVuSans-20" x="471.521484"/>
      <use xlink:href="#DejaVuSans-6e" x="503.308594"/>
      <use xlink:href="#DejaVuSans-75" x="566.6875"/>
      <use xlink:href="#DejaVuSans-6d" x="630.066406"/>
      <use xlink:href="#DejaVuSans-62" x="727.478516"/>
      <use xlink:href="#DejaVuSans-65" x="790.955078"/>
      <use xlink:href="#DejaVuSans-72" x="852.478516"/>
     </g>
    </g>
   </g>
   <g id="matplotlib.axis_6">
    <g id="ytick_6">
     <g id="line2d_27">
      <g>
       <use xlink:href="#mb4ccbc67e8" x="48.145313" y="246.875406" style="stroke: #000000; stroke-width: 0.8"/>
      </g>
     </g>
     <g id="text_28">
      <!-- −100 -->
      <g transform="translate(13.678125 250.674625)scale(0.1 -0.1)">
       <use xlink:href="#DejaVuSans-2212"/>
       <use xlink:href="#DejaVuSans-31" x="83.789062"/>
       <use xlink:href="#DejaVuSans-30" x="147.412109"/>
       <use xlink:href="#DejaVuSans-30" x="211.035156"/>
      </g>
     </g>
    </g>
    <g id="ytick_7">
     <g id="line2d_28">
      <g>
       <use xlink:href="#mb4ccbc67e8" x="48.145313" y="226.993015" style="stroke: #000000; stroke-width: 0.8"/>
      </g>
     </g>
     <g id="text_29">
      <!-- 0 -->
      <g transform="translate(34.782813 230.792233)scale(0.1 -0.1)">
       <use xlink:href="#DejaVuSans-30"/>
      </g>
     </g>
    </g>
    <g id="ytick_8">
     <g id="line2d_29">
      <g>
       <use xlink:href="#mb4ccbc67e8" x="48.145313" y="207.110623" style="stroke: #000000; stroke-width: 0.8"/>
      </g>
     </g>
     <g id="text_30">
      <!-- 100 -->
      <g transform="translate(22.057813 210.909842)scale(0.1 -0.1)">
       <use xlink:href="#DejaVuSans-31"/>
       <use xlink:href="#DejaVuSans-30" x="63.623047"/>
       <use xlink:href="#DejaVuSans-30" x="127.246094"/>
      </g>
     </g>
    </g>
    <g id="text_31">
     <!-- roll [degrees] -->
     <g transform="translate(7.598437 260.374757)rotate(-90)scale(0.1 -0.1)">
      <defs>
       <path id="DejaVuSans-6c" d="M 603 4863 
L 1178 4863 
L 1178 0 
L 603 0 
L 603 4863 
z
" transform="scale(0.015625)"/>
      </defs>
      <use xlink:href="#DejaVuSans-72"/>
      <use xlink:href="#DejaVuSans-6f" x="38.863281"/>
      <use xlink:href="#DejaVuSans-6c" x="100.044922"/>
      <use xlink:href="#DejaVuSans-6c" x="127.828125"/>
      <use xlink:href="#DejaVuSans-20" x="155.611328"/>
      <use xlink:href="#DejaVuSans-5b" x="187.398438"/>
      <use xlink:href="#DejaVuSans-64" x="226.412109"/>
      <use xlink:href="#DejaVuSans-65" x="289.888672"/>
      <use xlink:href="#DejaVuSans-67" x="351.412109"/>
      <use xlink:href="#DejaVuSans-72" x="414.888672"/>
      <use xlink:href="#DejaVuSans-65" x="453.751953"/>
      <use xlink:href="#DejaVuSans-65" x="515.275391"/>
      <use xlink:href="#DejaVuSans-73" x="576.798828"/>
      <use xlink:href="#DejaVuSans-5d" x="628.898438"/>
     </g>
    </g>
   </g>
   <g id="line2d_30">
    <path d="M 64.37804 195.95154 
L 68.337242 195.944707 
L 72.296443 195.934233 
L 76.255645 195.924879 
L 80.214847 194.439148 
L 84.174049 192.793347 
L 88.13325 191.480367 
L 92.092452 258.869085 
L 96.051654 253.010973 
L 100.010856 249.973526 
L 103.970058 246.303057 
L 107.929259 243.903497 
L 111.888461 240.824877 
L 115.847663 241.826055 
L 119.806865 243.678486 
L 123.766066 245.020459 
L 127.725268 247.767445 
L 131.68447 252.211183 
L 135.643672 254.977288 
L 139.602873 249.564743 
L 143.562075 243.517279 
L 147.521277 238.733035 
L 151.480479 235.355082 
L 155.439681 233.517346 
L 159.398882 234.413119 
L 163.358084 236.812966 
L 167.317286 237.220327 
L 171.276488 237.39406 
L 175.235689 237.398461 
L 179.194891 237.112191 
L 183.154093 235.630757 
L 187.113295 230.430408 
L 191.072497 226.772327 
L 195.031698 224.303558 
L 198.9909 219.80257 
L 202.950102 219.922871 
L 206.909304 221.698003 
L 210.868505 222.853254 
L 214.827707 226.173323 
L 218.786909 230.312461 
L 222.746111 228.504335 
L 226.705312 224.507322 
L 230.664514 221.016613 
L 234.623716 218.202227 
L 238.582918 214.926693 
L 242.54212 215.321207 
L 246.501321 212.050486 
L 250.460523 208.690182 
L 254.419725 207.474436 
L 258.378927 205.356945 
L 262.338128 203.555218 
L 266.29733 202.998345 
L 270.256532 200.944411 
L 274.215734 198.435059 
L 278.174936 197.657858 
L 282.134137 197.921154 
L 286.093339 198.239687 
L 290.052541 198.020178 
L 294.011743 196.578889 
L 297.970944 193.42619 
L 301.930146 193.199604 
L 305.889348 193.203143 
L 309.84855 193.206348 
L 313.807752 193.605995 
L 317.766953 194.8985 
L 321.726155 195.419077 
L 325.685357 193.845322 
L 329.644559 261.891282 
L 333.60376 259.110031 
L 337.562962 255.547795 
L 341.522164 253.113133 
L 345.481366 250.002293 
L 349.440567 247.078863 
L 353.399769 246.196776 
L 357.358971 249.85647 
L 361.318173 250.467994 
L 365.277375 250.461199 
L 369.236576 249.091171 
L 373.195778 247.124461 
L 377.15498 245.369414 
L 381.114182 246.194299 
L 385.073383 248.002887 
L 389.032585 246.375097 
" clip-path="url(#p6f5b90c8e5)" style="fill: none; stroke: #008000; stroke-width: 1.5; stroke-linecap: square"/>
   </g>
   <g id="line2d_31">
    <path d="M 64.37804 195.95154 
L 68.337242 195.953112 
L 72.296443 195.952229 
L 76.255645 195.943761 
L 80.214847 194.456151 
L 84.174049 192.811233 
L 88.13325 191.401412 
L 92.092452 258.974763 
L 96.051654 253.430214 
L 100.010856 250.085575 
L 103.970058 246.452665 
L 107.929259 243.812028 
L 111.888461 240.579746 
L 115.847663 200.85449 
L 119.806865 201.890295 
L 123.766066 203.039902 
L 127.725268 206.834956 
L 131.68447 212.796481 
L 135.643672 218.03194 
L 139.602873 209.479301 
L 143.562075 209.679761 
L 147.521277 203.508897 
L 151.480479 200.019458 
L 155.439681 197.924582 
L 159.398882 198.558283 
L 163.358084 200.951613 
L 167.317286 201.456535 
L 171.276488 201.530396 
L 175.235689 201.586129 
L 179.194891 201.400844 
L 183.154093 200.054705 
L 187.113295 195.826635 
L 191.072497 192.772249 
L 195.031698 262.198392 
L 198.9909 258.191961 
L 202.950102 258.199922 
L 206.909304 259.975203 
L 210.868505 260.850591 
L 214.827707 191.910363 
L 218.786909 195.288279 
L 222.746111 194.148491 
L 226.705312 262.554353 
L 230.664514 259.58721 
L 234.623716 256.875519 
L 238.582918 253.091188 
L 242.54212 253.493962 
L 246.501321 249.53752 
L 250.460523 245.006352 
L 254.419725 242.871558 
L 258.378927 240.240034 
L 262.338128 237.787698 
L 266.29733 237.447308 
L 270.256532 235.590874 
L 274.215734 233.339039 
L 278.174936 232.427851 
L 282.134137 233.095561 
L 286.093339 233.317691 
L 290.052541 233.098217 
L 294.011743 231.868981 
L 297.970944 228.378775 
L 301.930146 228.061356 
L 305.889348 228.061919 
L 309.84855 228.06594 
L 313.807752 228.454611 
L 317.766953 229.318249 
L 321.726155 230.207555 
L 325.685357 228.918646 
L 329.644559 225.732253 
L 333.60376 223.086884 
L 337.562962 219.624148 
L 341.522164 217.07011 
L 345.481366 213.997094 
L 349.440567 207.866168 
L 353.399769 200.254112 
L 357.358971 201.189558 
L 361.318173 201.488697 
L 365.277375 201.382513 
L 369.236576 200.760462 
L 373.195778 200.842465 
L 377.15498 199.816185 
L 381.114182 200.180959 
L 385.073383 201.704349 
L 389.032585 200.583068 
" clip-path="url(#p6f5b90c8e5)" style="fill: none; stroke: #ff0000; stroke-width: 1.5; stroke-linecap: square"/>
   </g>
   <g id="patch_14">
    <path d="M 48.145313 266.112 
L 48.145313 187.843765 
" style="fill: none; stroke: #000000; stroke-width: 0.8; stroke-linejoin: miter; stroke-linecap: square"/>
   </g>
   <g id="patch_15">
    <path d="M 405.265313 266.112 
L 405.265313 187.843765 
" style="fill: none; stroke: #000000; stroke-width: 0.8; stroke-linejoin: miter; stroke-linecap: square"/>
   </g>
   <g id="patch_16">
    <path d="M 48.145313 266.112 
L 405.265312 266.112 
" style="fill: none; stroke: #000000; stroke-width: 0.8; stroke-linejoin: miter; stroke-linecap: square"/>
   </g>
   <g id="patch_17">
    <path d="M 48.145313 187.843765 
L 405.265312 187.843765 
" style="fill: none; stroke: #000000; stroke-width: 0.8; stroke-linejoin: miter; stroke-linecap: square"/>
   </g>
  </g>
 </g>
 <defs>
  <clipPath id="p8779aadebf">
   <rect x="48.145313" y="-0" width="357.12" height="78.268235"/>
  </clipPath>
  <clipPath id="p018a10443f">
   <rect x="48.145313" y="93.921882" width="357.12" height="78.268235"/>
  </clipPath>
  <clipPath id="p6f5b90c8e5">
   <rect x="48.145313" y="187.843765" width="357.12" height="78.268235"/>
  </clipPath>
 </defs>
</svg>
