<?xml version="1.0" encoding="utf-8" standalone="no"?>
<!DOCTYPE svg PUBLIC "-//W3C//DTD SVG 1.1//EN"
  "http://www.w3.org/Graphics/SVG/1.1/DTD/svg11.dtd">
<svg xmlns:xlink="http://www.w3.org/1999/xlink" width="412.04pt" height="269.612pt" viewBox="0 0 412.04 269.612" xmlns="http://www.w3.org/2000/svg" version="1.1">
 <metadata>
  <rdf:RDF xmlns:dc="http://purl.org/dc/elements/1.1/" xmlns:cc="http://creativecommons.org/ns#" xmlns:rdf="http://www.w3.org/1999/02/22-rdf-syntax-ns#">
   <cc:Work>
    <dc:type rdf:resource="http://purl.org/dc/dcmitype/StillImage"/>
    <dc:date>2022-02-10T00:11:37.505975</dc:date>
    <dc:format>image/svg+xml</dc:format>
    <dc:creator>
     <cc:Agent>
      <dc:title>Matplotlib v3.5.1, https://matplotlib.org/</dc:title>
     </cc:Agent>
    </dc:creator>
   </cc:Work>
  </rdf:RDF>
 </metadata>
 <defs>
  <style type="text/css">*{stroke-linejoin: round; stroke-linecap: butt}</style>
 </defs>
 <g id="figure_1">
  <g id="patch_1">
   <path d="M 0 269.612 
L 412.04 269.612 
L 412.04 0 
L 0 0 
z
" style="fill: #ffffff"/>
  </g>
  <g id="axes_1">
   <g id="patch_2">
    <path d="M 54.92 78.268235 
L 412.04 78.268235 
L 412.04 0 
L 54.92 0 
z
" style="fill: #ffffff"/>
   </g>
   <g id="matplotlib.axis_1"/>
   <g id="matplotlib.axis_2">
    <g id="ytick_1">
     <g id="line2d_1">
      <defs>
       <path id="m64790520ff" d="M 0 0 
L -3.5 0 
" style="stroke: #000000; stroke-width: 0.8"/>
      </defs>
      <g>
       <use xlink:href="#m64790520ff" x="54.92" y="61.522786" style="stroke: #000000; stroke-width: 0.8"/>
      </g>
     </g>
     <g id="text_1">
      <!-- −150 -->
      <g transform="translate(20.452813 65.322005)scale(0.1 -0.1)">
       <defs>
        <path id="DejaVuSans-2212" d="M 678 2272 
L 4684 2272 
L 4684 1741 
L 678 1741 
L 678 2272 
z
" transform="scale(0.015625)"/>
        <path id="DejaVuSans-31" d="M 794 531 
L 1825 531 
L 1825 4091 
L 703 3866 
L 703 4441 
L 1819 4666 
L 2450 4666 
L 2450 531 
L 3481 531 
L 3481 0 
L 794 0 
L 794 531 
z
" transform="scale(0.015625)"/>
        <path id="DejaVuSans-35" d="M 691 4666 
L 3169 4666 
L 3169 4134 
L 1269 4134 
L 1269 2991 
Q 1406 3038 1543 3061 
Q 1681 3084 1819 3084 
Q 2600 3084 3056 2656 
Q 3513 2228 3513 1497 
Q 3513 744 3044 326 
Q 2575 -91 1722 -91 
Q 1428 -91 1123 -41 
Q 819 9 494 109 
L 494 744 
Q 775 591 1075 516 
Q 1375 441 1709 441 
Q 2250 441 2565 725 
Q 2881 1009 2881 1497 
Q 2881 1984 2565 2268 
Q 2250 2553 1709 2553 
Q 1456 2553 1204 2497 
Q 953 2441 691 2322 
L 691 4666 
z
" transform="scale(0.015625)"/>
        <path id="DejaVuSans-30" d="M 2034 4250 
Q 1547 4250 1301 3770 
Q 1056 3291 1056 2328 
Q 1056 1369 1301 889 
Q 1547 409 2034 409 
Q 2525 409 2770 889 
Q 3016 1369 3016 2328 
Q 3016 3291 2770 3770 
Q 2525 4250 2034 4250 
z
M 2034 4750 
Q 2819 4750 3233 4129 
Q 3647 3509 3647 2328 
Q 3647 1150 3233 529 
Q 2819 -91 2034 -91 
Q 1250 -91 836 529 
Q 422 1150 422 2328 
Q 422 3509 836 4129 
Q 1250 4750 2034 4750 
z
" transform="scale(0.015625)"/>
       </defs>
       <use xlink:href="#DejaVuSans-2212"/>
       <use xlink:href="#DejaVuSans-31" x="83.789062"/>
       <use xlink:href="#DejaVuSans-35" x="147.412109"/>
       <use xlink:href="#DejaVuSans-30" x="211.035156"/>
      </g>
     </g>
    </g>
    <g id="ytick_2">
     <g id="line2d_2">
      <g>
       <use xlink:href="#m64790520ff" x="54.92" y="25.020165" style="stroke: #000000; stroke-width: 0.8"/>
      </g>
     </g>
     <g id="text_2">
      <!-- −100 -->
      <g transform="translate(20.452813 28.819384)scale(0.1 -0.1)">
       <use xlink:href="#DejaVuSans-2212"/>
       <use xlink:href="#DejaVuSans-31" x="83.789062"/>
       <use xlink:href="#DejaVuSans-30" x="147.412109"/>
       <use xlink:href="#DejaVuSans-30" x="211.035156"/>
      </g>
     </g>
    </g>
    <g id="text_3">
     <!-- yaw [°] -->
     <g transform="translate(12.917344 69.90943)rotate(-90)scale(0.17 -0.17)">
      <defs>
       <path id="DejaVuSans-79" d="M 2059 -325 
Q 1816 -950 1584 -1140 
Q 1353 -1331 966 -1331 
L 506 -1331 
L 506 -850 
L 844 -850 
Q 1081 -850 1212 -737 
Q 1344 -625 1503 -206 
L 1606 56 
L 191 3500 
L 800 3500 
L 1894 763 
L 2988 3500 
L 3597 3500 
L 2059 -325 
z
" transform="scale(0.015625)"/>
       <path id="DejaVuSans-61" d="M 2194 1759 
Q 1497 1759 1228 1600 
Q 959 1441 959 1056 
Q 959 750 1161 570 
Q 1363 391 1709 391 
Q 2188 391 2477 730 
Q 2766 1069 2766 1631 
L 2766 1759 
L 2194 1759 
z
M 3341 1997 
L 3341 0 
L 2766 0 
L 2766 531 
Q 2569 213 2275 61 
Q 1981 -91 1556 -91 
Q 1019 -91 701 211 
Q 384 513 384 1019 
Q 384 1609 779 1909 
Q 1175 2209 1959 2209 
L 2766 2209 
L 2766 2266 
Q 2766 2663 2505 2880 
Q 2244 3097 1772 3097 
Q 1472 3097 1187 3025 
Q 903 2953 641 2809 
L 641 3341 
Q 956 3463 1253 3523 
Q 1550 3584 1831 3584 
Q 2591 3584 2966 3190 
Q 3341 2797 3341 1997 
z
" transform="scale(0.015625)"/>
       <path id="DejaVuSans-77" d="M 269 3500 
L 844 3500 
L 1563 769 
L 2278 3500 
L 2956 3500 
L 3675 769 
L 4391 3500 
L 4966 3500 
L 4050 0 
L 3372 0 
L 2619 2869 
L 1863 0 
L 1184 0 
L 269 3500 
z
" transform="scale(0.015625)"/>
       <path id="DejaVuSans-20" transform="scale(0.015625)"/>
       <path id="DejaVuSans-5b" d="M 550 4863 
L 1875 4863 
L 1875 4416 
L 1125 4416 
L 1125 -397 
L 1875 -397 
L 1875 -844 
L 550 -844 
L 550 4863 
z
" transform="scale(0.015625)"/>
       <path id="DejaVuSans-b0" d="M 1600 4347 
Q 1350 4347 1178 4173 
Q 1006 4000 1006 3750 
Q 1006 3503 1178 3333 
Q 1350 3163 1600 3163 
Q 1850 3163 2022 3333 
Q 2194 3503 2194 3750 
Q 2194 3997 2020 4172 
Q 1847 4347 1600 4347 
z
M 1600 4750 
Q 1800 4750 1984 4673 
Q 2169 4597 2303 4453 
Q 2447 4313 2519 4134 
Q 2591 3956 2591 3750 
Q 2591 3338 2302 3052 
Q 2013 2766 1594 2766 
Q 1172 2766 890 3047 
Q 609 3328 609 3750 
Q 609 4169 896 4459 
Q 1184 4750 1600 4750 
z
" transform="scale(0.015625)"/>
       <path id="DejaVuSans-5d" d="M 1947 4863 
L 1947 -844 
L 622 -844 
L 622 -397 
L 1369 -397 
L 1369 4416 
L 622 4416 
L 622 4863 
L 1947 4863 
z
" transform="scale(0.015625)"/>
      </defs>
      <use xlink:href="#DejaVuSans-79"/>
      <use xlink:href="#DejaVuSans-61" x="59.179688"/>
      <use xlink:href="#DejaVuSans-77" x="120.458984"/>
      <use xlink:href="#DejaVuSans-20" x="202.246094"/>
      <use xlink:href="#DejaVuSans-5b" x="234.033203"/>
      <use xlink:href="#DejaVuSans-b0" x="273.046875"/>
      <use xlink:href="#DejaVuSans-5d" x="323.046875"/>
     </g>
    </g>
   </g>
   <g id="line2d_3">
    <path d="M 71.152727 47.741189 
L 71.633697 47.42492 
L 72.114667 47.421786 
L 72.595636 46.500405 
L 73.076606 46.737152 
L 73.557576 46.632435 
L 74.038545 45.699124 
L 74.519515 45.191059 
L 75.000485 45.124453 
L 75.962424 43.99982 
L 77.405333 41.494777 
L 77.886303 41.140065 
L 78.367273 41.167871 
L 78.848242 41.58319 
L 80.291152 43.4814 
L 80.772121 43.786118 
L 81.734061 43.498548 
L 82.696 40.835008 
L 83.17697 40.343498 
L 84.138909 40.677534 
L 84.619879 40.96421 
L 85.581818 41.318925 
L 86.062788 41.731513 
L 86.543758 41.865449 
L 87.505697 41.04146 
L 87.986667 40.507726 
L 88.467636 40.275054 
L 90.391515 40.121579 
L 90.872485 40.569952 
L 91.353455 41.343914 
L 91.834424 41.173166 
L 92.796364 44.03784 
L 93.277333 45.52225 
L 93.758303 46.340909 
L 95.682182 47.422398 
L 96.163152 47.034462 
L 96.644121 45.826472 
L 97.606061 47.311846 
L 98.08703 47.857658 
L 98.568 48.206513 
L 99.529939 49.455491 
L 100.491879 50.231145 
L 100.972848 50.270043 
L 101.453818 49.564593 
L 101.934788 49.513078 
L 102.415758 49.292072 
L 103.377697 47.406887 
L 104.339636 47.129747 
L 104.820606 47.078894 
L 106.263515 47.196049 
L 106.744485 46.793714 
L 107.225455 47.16851 
L 107.706424 46.92157 
L 108.187394 47.366977 
L 109.149333 47.962816 
L 109.630303 45.072888 
L 110.111273 41.13188 
L 110.592242 39.533914 
L 112.035152 32.139317 
L 112.997091 27.254756 
L 113.478061 26.076226 
L 116.363879 15.565789 
L 117.806788 7.539946 
L 118.287758 5.462325 
L 118.768727 5.193307 
L 119.249697 6.239233 
L 120.692606 13.9077 
L 121.654545 18.694682 
L 122.616485 25.028872 
L 123.097455 28.953446 
L 124.059394 33.68186 
L 126.945212 46.354935 
L 127.426182 47.801606 
L 128.388121 49.482545 
L 128.869091 49.771205 
L 129.83103 49.306329 
L 130.312 49.094495 
L 130.79297 49.315032 
L 131.273939 49.329592 
L 131.754909 49.886628 
L 132.235879 49.730146 
L 132.716848 49.153752 
L 133.197818 49.137813 
L 133.678788 49.419593 
L 134.159758 49.22188 
L 134.640727 48.686655 
L 135.602667 45.933687 
L 136.083636 44.621674 
L 136.564606 44.141257 
L 137.045576 43.164819 
L 137.526545 41.853089 
L 138.007515 40.878279 
L 138.488485 40.176527 
L 138.969455 40.063375 
L 140.893333 37.981475 
L 141.374303 37.144867 
L 141.855273 35.592371 
L 142.336242 35.25837 
L 142.817212 33.903891 
L 143.298182 33.439796 
L 143.779152 32.697781 
L 144.260121 32.868214 
L 144.741091 32.770512 
L 145.222061 33.338545 
L 145.70303 34.59808 
L 146.184 34.673721 
L 146.66497 34.399294 
L 148.107879 34.421297 
L 148.588848 33.979733 
L 149.069818 34.087582 
L 150.512727 35.599442 
L 150.993697 36.289143 
L 151.955636 36.667105 
L 152.436606 35.967881 
L 152.917576 37.927717 
L 155.322424 41.917876 
L 155.803394 42.29722 
L 156.284364 41.67536 
L 156.765333 41.367372 
L 157.246303 40.723544 
L 158.208242 40.610165 
L 158.689212 40.029976 
L 159.170182 39.056971 
L 159.651152 39.189999 
L 160.132121 39.984231 
L 160.613091 39.947358 
L 161.094061 38.569436 
L 161.57503 37.739081 
L 162.53697 37.120202 
L 163.017939 37.009067 
L 163.979879 35.581488 
L 164.460848 35.917964 
L 164.941818 35.395219 
L 165.422788 35.363712 
L 167.346667 36.201629 
L 167.827636 36.183685 
L 168.308606 35.91642 
L 168.789576 35.259052 
L 169.751515 33.251316 
L 170.232485 32.974803 
L 170.713455 32.97881 
L 171.194424 33.204481 
L 171.675394 32.912378 
L 172.156364 32.076644 
L 172.637333 32.606803 
L 173.118303 32.539603 
L 173.599273 32.874913 
L 174.561212 33.961686 
L 175.042182 33.482469 
L 175.523152 32.409352 
L 176.004121 31.890962 
L 176.966061 32.397002 
L 177.44703 33.326142 
L 177.928 34.784433 
L 178.40897 35.836985 
L 178.889939 37.208435 
L 179.370909 38.015852 
L 179.851879 38.179604 
L 180.813818 38.794171 
L 181.775758 38.717538 
L 182.256727 38.441275 
L 183.699636 38.277751 
L 184.180606 38.246926 
L 185.142545 38.851093 
L 185.623515 39.030883 
L 186.104485 40.068295 
L 186.585455 40.643385 
L 187.066424 41.575987 
L 187.547394 42.92101 
L 188.509333 46.540589 
L 189.471273 49.274259 
L 189.952242 50.111653 
L 190.433212 51.28476 
L 191.395152 52.846769 
L 192.357091 54.028182 
L 192.838061 53.957026 
L 193.31903 54.203355 
L 194.28097 54.824178 
L 195.242909 54.872945 
L 195.723879 54.749561 
L 196.204848 54.309587 
L 196.685818 53.522149 
L 197.166788 52.412629 
L 197.647758 50.72018 
L 200.052606 39.961094 
L 202.457455 26.082934 
L 203.900364 19.865593 
L 204.862303 16.494057 
L 205.343273 14.367062 
L 206.786182 9.89529 
L 207.267152 8.949228 
L 207.748121 8.382603 
L 208.229091 8.396314 
L 209.19103 9.474611 
L 210.15297 11.479299 
L 210.633939 12.761571 
L 211.595879 16.66343 
L 212.076848 18.594763 
L 213.038788 23.379005 
L 214.000727 27.479925 
L 214.962667 31.188823 
L 215.924606 35.519715 
L 216.886545 39.490778 
L 217.367515 41.140761 
L 217.848485 42.230492 
L 218.810424 43.609878 
L 220.253333 43.7854 
L 220.734303 44.207801 
L 221.215273 45.232151 
L 221.696242 45.467873 
L 222.658182 45.295275 
L 223.139152 45.579017 
L 223.620121 46.052289 
L 224.101091 46.010882 
L 224.582061 45.718563 
L 225.544 44.691078 
L 226.02497 44.490039 
L 226.505939 43.906969 
L 226.986909 42.966233 
L 227.467879 42.341373 
L 228.910788 38.109063 
L 230.353697 35.577946 
L 231.315636 34.383642 
L 231.796606 34.338197 
L 232.277576 34.037861 
L 232.758545 34.51502 
L 234.201455 34.449014 
L 234.682424 34.787426 
L 235.163394 34.906779 
L 236.125333 35.999177 
L 237.087273 37.40746 
L 238.049212 38.623571 
L 238.530182 39.028018 
L 239.011152 39.772825 
L 239.492121 40.15101 
L 240.454061 39.674015 
L 242.377939 38.675298 
L 244.301818 35.181957 
L 245.263758 34.148524 
L 247.187636 33.801154 
L 248.149576 31.462814 
L 249.592485 23.880526 
L 251.997333 15.699062 
L 252.478303 15.187509 
L 253.440242 12.423079 
L 254.883152 10.318003 
L 255.845091 9.177808 
L 256.326061 9.019948 
L 256.80703 9.377552 
L 257.288 11.026152 
L 259.211879 19.78132 
L 259.692848 21.800688 
L 260.654788 27.41436 
L 261.135758 29.24439 
L 261.616727 31.53307 
L 262.578667 36.926937 
L 263.540606 41.573705 
L 264.021576 42.669642 
L 265.464485 47.136916 
L 265.945455 48.067765 
L 266.426424 49.475497 
L 266.907394 51.259735 
L 267.388364 52.398509 
L 267.869333 52.768782 
L 268.350303 52.88199 
L 268.831273 52.3618 
L 269.312242 51.544309 
L 269.793212 50.299035 
L 270.274182 48.322069 
L 273.16 32.94852 
L 274.121939 28.315903 
L 276.045818 16.681316 
L 276.526788 15.052505 
L 277.007758 13.949307 
L 277.488727 13.311034 
L 278.450667 13.464408 
L 278.931636 14.052368 
L 279.412606 15.132698 
L 279.893576 17.392225 
L 280.374545 18.781086 
L 280.855515 19.354734 
L 281.336485 19.540077 
L 282.298424 21.466789 
L 282.779394 23.775953 
L 283.741333 26.86944 
L 284.222303 27.937862 
L 284.703273 28.4958 
L 285.665212 30.118789 
L 286.146182 31.3303 
L 287.108121 34.069828 
L 288.070061 35.930298 
L 289.032 36.89008 
L 289.51297 37.250518 
L 290.474909 38.907971 
L 291.917818 41.722021 
L 292.398788 41.760557 
L 292.879758 41.919351 
L 293.360727 41.652424 
L 294.803636 38.361455 
L 295.284606 39.576691 
L 295.765576 40.078708 
L 296.246545 40.802213 
L 297.208485 43.78181 
L 297.689455 43.511522 
L 298.170424 43.411824 
L 298.651394 43.192953 
L 299.132364 43.60975 
L 299.613333 44.217005 
L 300.575273 44.868487 
L 301.056242 45.22152 
L 301.537212 45.26647 
L 302.018182 45.03429 
L 302.499152 45.179045 
L 303.461091 45.180577 
L 304.42303 43.161591 
L 304.904 41.872086 
L 305.38497 40.956059 
L 306.346909 40.434759 
L 306.827879 38.736326 
L 307.789818 37.052455 
L 308.270788 35.626605 
L 309.713697 30.591644 
L 310.194667 29.574673 
L 310.675636 29.234716 
L 311.637576 29.030625 
L 312.118545 30.050763 
L 312.599515 30.768294 
L 313.561455 32.924 
L 314.042424 34.856448 
L 315.485333 37.75046 
L 315.966303 36.083095 
L 316.447273 33.508581 
L 317.409212 26.848279 
L 317.890182 25.985783 
L 318.371152 24.089206 
L 318.852121 22.782585 
L 319.333091 20.783999 
L 319.814061 19.580328 
L 320.29503 19.116521 
L 320.776 19.499602 
L 321.25697 20.545565 
L 322.218909 25.003568 
L 323.180848 31.998385 
L 323.661818 34.217567 
L 324.142788 35.751704 
L 325.104727 37.722441 
L 325.585697 39.115817 
L 326.066667 40.155195 
L 327.028606 40.914653 
L 327.509576 41.141686 
L 328.471515 41.350744 
L 328.952485 41.973235 
L 329.914424 42.313912 
L 330.395394 43.058914 
L 330.876364 43.263521 
L 331.357333 43.036558 
L 332.319273 43.469574 
L 332.800242 44.650294 
L 333.281212 44.802375 
L 335.205091 42.237713 
L 335.686061 40.903584 
L 336.648 39.099584 
L 337.12897 38.992049 
L 337.609939 39.473103 
L 339.052848 38.583006 
L 339.533818 38.515132 
L 340.014788 38.598735 
L 340.495758 38.92158 
L 340.976727 40.357208 
L 341.457697 41.201383 
L 342.419636 42.256371 
L 343.381576 43.938368 
L 343.862545 45.288357 
L 344.343515 47.399206 
L 345.305455 52.85534 
L 345.786424 55.399169 
L 346.267394 57.208363 
L 346.748364 58.352879 
L 347.710303 59.555806 
L 348.191273 59.274248 
L 348.672242 58.646602 
L 349.634182 54.897015 
L 350.115152 52.637791 
L 352.52 38.217616 
L 354.443879 22.524468 
L 354.924848 19.381486 
L 355.405818 17.152363 
L 355.886788 15.701919 
L 356.367758 15.798303 
L 356.848727 16.940368 
L 357.329697 19.265326 
L 358.772606 28.401685 
L 359.253576 30.44413 
L 359.734545 31.567992 
L 360.215515 33.215558 
L 361.177455 37.798976 
L 363.582303 45.989768 
L 364.063273 47.250471 
L 365.025212 50.868678 
L 365.987152 53.556907 
L 366.468121 54.274461 
L 366.949091 54.257667 
L 367.430061 53.273543 
L 367.91103 53.233986 
L 368.87297 52.408792 
L 369.353939 52.280179 
L 369.834909 51.918328 
L 370.315879 51.372505 
L 371.277818 49.073738 
L 373.682667 39.150772 
L 374.644606 37.737261 
L 375.606545 36.45152 
L 376.568485 34.443217 
L 377.049455 34.438443 
L 377.530424 34.827849 
L 378.011394 35.614016 
L 378.492364 36.667065 
L 378.973333 37.354384 
L 379.454303 38.40407 
L 380.416242 41.802006 
L 381.378182 43.594089 
L 381.859152 44.431523 
L 382.340121 44.5081 
L 382.821091 43.81713 
L 383.302061 43.535998 
L 383.78303 43.448131 
L 384.264 43.746997 
L 384.74497 44.239023 
L 385.225939 44.440276 
L 385.706909 43.272077 
L 387.149818 42.224799 
L 388.111758 42.572267 
L 388.592727 42.927502 
L 390.035636 45.371219 
L 390.997576 46.434219 
L 391.959515 47.041646 
L 392.440485 46.805166 
L 392.921455 46.873309 
L 393.402424 46.747221 
L 394.364364 46.380332 
L 394.845333 46.377853 
L 395.807273 45.879204 
L 395.807273 45.879204 
" clip-path="url(#pdeb56a71b6)" style="fill: none; stroke: #008000; stroke-width: 1.5; stroke-linecap: square"/>
   </g>
   <g id="line2d_4">
    <path d="M 71.152727 47.741161 
L 71.633697 47.491529 
L 72.114667 47.368116 
L 72.595636 46.657662 
L 73.076606 46.841509 
L 73.557576 46.896269 
L 74.038545 46.094527 
L 75.481455 44.580921 
L 76.443394 43.083956 
L 76.924364 42.259899 
L 77.405333 40.893799 
L 77.886303 40.446297 
L 78.367273 40.342895 
L 78.848242 40.784677 
L 80.291152 42.704681 
L 80.772121 43.13068 
L 81.253091 43.040351 
L 81.734061 42.807476 
L 82.21503 41.900999 
L 82.696 40.540642 
L 83.17697 39.702674 
L 83.657939 39.728882 
L 84.138909 40.209818 
L 86.062788 40.888533 
L 86.543758 40.963982 
L 87.024727 40.777387 
L 87.986667 39.794006 
L 88.467636 39.535571 
L 89.429576 39.365813 
L 90.391515 39.723316 
L 91.353455 41.228318 
L 91.834424 41.266625 
L 92.315394 42.473768 
L 93.277333 45.75594 
L 93.758303 46.737216 
L 94.720242 47.619429 
L 95.682182 47.878552 
L 96.163152 47.806067 
L 96.644121 46.175477 
L 97.125091 46.075901 
L 97.606061 47.143024 
L 99.04897 48.717795 
L 99.529939 49.552206 
L 100.010909 49.660574 
L 100.491879 50.317107 
L 100.972848 50.450853 
L 101.453818 49.936296 
L 102.415758 49.629984 
L 102.896727 48.992024 
L 103.377697 47.732128 
L 103.858667 47.587985 
L 104.339636 47.63923 
L 104.820606 47.858811 
L 105.301576 47.639569 
L 105.782545 48.05405 
L 106.263515 48.080785 
L 106.744485 47.723766 
L 107.225455 47.723582 
L 108.187394 48.27161 
L 108.668364 48.953947 
L 109.149333 49.299233 
L 109.630303 47.911252 
L 110.111273 43.274709 
L 111.073212 38.625892 
L 112.997091 28.315596 
L 114.44 23.523216 
L 116.363879 16.485573 
L 117.325818 10.572446 
L 117.806788 7.490833 
L 118.287758 9.031691 
L 118.768727 8.694851 
L 119.249697 9.724312 
L 119.730667 11.750998 
L 120.692606 16.98442 
L 121.654545 21.702946 
L 124.059394 36.728467 
L 126.945212 49.827967 
L 128.388121 53.090322 
L 128.869091 53.747773 
L 129.350061 53.65967 
L 130.79297 52.980287 
L 131.754909 53.152142 
L 132.235879 53.13248 
L 132.716848 52.411186 
L 133.678788 52.130755 
L 134.159758 52.328491 
L 134.640727 51.645099 
L 136.564606 46.069895 
L 137.526545 43.982605 
L 138.488485 41.394911 
L 138.969455 40.95163 
L 139.450424 40.846948 
L 139.931394 40.607902 
L 140.412364 40.539112 
L 140.893333 40.067847 
L 141.374303 39.282996 
L 141.855273 37.893663 
L 142.336242 37.718349 
L 143.298182 36.437749 
L 143.779152 35.933791 
L 144.260121 35.970336 
L 144.741091 36.12774 
L 145.222061 36.655133 
L 145.70303 37.866054 
L 146.184 38.454052 
L 146.66497 38.242271 
L 148.588848 38.579389 
L 149.069818 38.100291 
L 149.550788 38.545753 
L 150.031758 39.644095 
L 150.993697 40.953144 
L 151.474667 41.132797 
L 151.955636 41.891436 
L 152.436606 42.12872 
L 152.917576 42.579441 
L 153.879515 44.038292 
L 154.360485 45.285478 
L 155.803394 47.281813 
L 156.765333 46.230538 
L 157.246303 45.475329 
L 157.727273 45.265696 
L 158.208242 45.347727 
L 158.689212 45.164915 
L 159.170182 43.616759 
L 159.651152 43.67849 
L 160.613091 44.148583 
L 161.57503 42.406417 
L 163.017939 41.51571 
L 163.498909 41.076346 
L 163.979879 40.162321 
L 164.460848 40.666658 
L 164.941818 39.993327 
L 165.422788 40.224227 
L 165.903758 40.63236 
L 166.384727 40.698341 
L 167.346667 41.217347 
L 167.827636 41.374091 
L 168.308606 41.203466 
L 168.789576 40.503236 
L 169.751515 38.549827 
L 170.713455 37.907295 
L 171.194424 38.454355 
L 171.675394 38.281055 
L 172.156364 37.513274 
L 173.599273 38.232797 
L 174.561212 39.460703 
L 175.042182 39.181872 
L 175.523152 38.063362 
L 176.004121 37.292395 
L 176.485091 37.357287 
L 176.966061 37.676459 
L 177.44703 38.501747 
L 178.889939 42.388903 
L 179.370909 43.064191 
L 180.332848 43.533292 
L 180.813818 43.666593 
L 182.256727 43.011638 
L 182.737697 42.318248 
L 183.218667 41.825389 
L 184.180606 41.342551 
L 185.623515 40.358084 
L 186.104485 40.480641 
L 187.066424 41.637563 
L 187.547394 42.578132 
L 188.028364 44.806161 
L 191.876121 52.776064 
L 192.357091 53.272727 
L 193.31903 53.582804 
L 193.8 53.762482 
L 194.28097 54.265118 
L 194.761939 54.010291 
L 195.723879 53.194637 
L 196.204848 52.697783 
L 196.685818 51.683471 
L 197.166788 50.384881 
L 197.647758 49.87008 
L 199.090667 43.626312 
L 200.052606 38.141514 
L 202.457455 22.114659 
L 203.419394 17.62627 
L 205.824242 8.096424 
L 206.786182 5.195849 
L 207.267152 4.13488 
L 207.748121 3.578741 
L 208.229091 3.557647 
L 209.19103 4.682777 
L 209.672 5.510708 
L 210.633939 7.787393 
L 211.114909 9.478067 
L 214.000727 22.480516 
L 214.962667 26.348652 
L 217.367515 37.457525 
L 217.848485 38.738766 
L 218.810424 40.523144 
L 219.291394 40.815909 
L 220.253333 41.134362 
L 220.734303 41.689892 
L 221.215273 42.728433 
L 221.696242 43.154207 
L 222.177212 43.281863 
L 222.658182 43.22525 
L 223.139152 43.980728 
L 223.620121 44.138984 
L 224.101091 43.988815 
L 224.582061 43.463563 
L 225.06303 42.760533 
L 226.02497 41.685834 
L 226.986909 39.845841 
L 227.467879 38.735652 
L 228.429818 35.693294 
L 228.910788 33.902761 
L 229.872727 31.565992 
L 230.834667 30.254908 
L 231.796606 29.420533 
L 232.277576 29.407277 
L 232.758545 29.907008 
L 234.201455 30.474264 
L 235.644364 32.364335 
L 237.087273 35.032046 
L 239.011152 38.406949 
L 239.492121 38.824258 
L 240.454061 38.306367 
L 241.89697 37.462162 
L 242.858909 36.434893 
L 243.339879 35.689022 
L 244.301818 33.217365 
L 245.263758 32.02368 
L 245.744727 31.882205 
L 247.187636 31.919764 
L 247.668606 31.184606 
L 248.149576 29.998439 
L 250.073455 21.613602 
L 251.035394 18.583241 
L 251.997333 15.749894 
L 252.478303 14.972755 
L 253.440242 12.671715 
L 254.402182 11.004981 
L 255.364121 9.505702 
L 255.845091 8.966897 
L 256.326061 8.797326 
L 256.80703 9.385908 
L 257.288 10.716899 
L 258.249939 15.168937 
L 258.730909 17.468366 
L 259.211879 19.053959 
L 261.135758 27.735636 
L 262.097697 32.570239 
L 263.059636 37.683312 
L 263.540606 39.706471 
L 264.502545 42.460341 
L 266.907394 50.871445 
L 267.388364 52.434736 
L 267.869333 53.181101 
L 268.350303 53.601102 
L 268.831273 53.814182 
L 269.312242 53.419499 
L 269.793212 52.104834 
L 270.755152 48.054209 
L 272.198061 39.611596 
L 272.67903 44.453322 
L 273.16 42.368009 
L 273.64097 43.889524 
L 274.121939 43.773143 
L 274.602909 45.242544 
L 275.083879 44.239476 
L 275.564848 40.55239 
L 276.526788 37.237343 
L 277.007758 36.236339 
L 277.488727 35.602818 
L 278.450667 36.080633 
L 278.931636 36.781669 
L 279.412606 37.960244 
L 279.893576 40.304774 
L 280.374545 42.018275 
L 280.855515 42.495863 
L 281.336485 42.562175 
L 282.298424 43.957164 
L 283.260364 46.99887 
L 283.741333 47.113642 
L 284.222303 47.958673 
L 284.703273 47.993072 
L 285.184242 48.276779 
L 286.146182 49.44324 
L 287.108121 51.832489 
L 288.070061 53.423725 
L 288.55103 53.706075 
L 289.032 53.579379 
L 289.51297 53.048267 
L 289.993939 52.847954 
L 290.955879 52.759804 
L 291.436848 52.295979 
L 291.917818 52.537423 
L 292.398788 51.89262 
L 292.879758 51.708427 
L 293.360727 51.10062 
L 294.803636 47.117059 
L 295.284606 48.19043 
L 295.765576 48.643114 
L 296.246545 49.257303 
L 297.208485 51.480764 
L 297.689455 51.929841 
L 298.651394 51.936657 
L 299.132364 52.518963 
L 299.613333 53.862138 
L 301.056242 55.919778 
L 301.537212 56.393885 
L 302.018182 56.476593 
L 302.499152 57.007562 
L 302.980121 57.080298 
L 303.461091 56.978879 
L 303.942061 56.2926 
L 305.38497 53.457462 
L 305.865939 52.601048 
L 306.346909 52.766215 
L 306.827879 51.035366 
L 307.308848 50.192544 
L 307.789818 49.743584 
L 308.270788 48.548924 
L 309.232727 44.211046 
L 309.713697 41.599062 
L 310.194667 39.757168 
L 311.156606 37.508844 
L 311.637576 36.301642 
L 312.118545 35.669643 
L 312.599515 34.411001 
L 313.080485 34.321794 
L 313.561455 34.691615 
L 314.042424 35.232208 
L 314.523394 34.687838 
L 315.004364 35.06367 
L 315.485333 35.081546 
L 315.966303 34.169899 
L 316.928242 27.233767 
L 317.409212 24.501711 
L 318.371152 21.212871 
L 318.852121 20.275809 
L 319.333091 18.559888 
L 319.814061 17.6589 
L 320.29503 16.053284 
L 320.776 16.036077 
L 321.25697 17.017413 
L 321.737939 18.251949 
L 322.218909 20.08782 
L 322.699879 23.057589 
L 323.661818 26.932935 
L 324.142788 27.898053 
L 324.623758 28.222421 
L 325.104727 29.190885 
L 326.066667 32.643734 
L 327.028606 34.281153 
L 327.509576 34.319253 
L 328.471515 33.568169 
L 328.952485 34.040025 
L 329.914424 34.424616 
L 330.395394 35.488406 
L 330.876364 36.211385 
L 331.357333 35.937015 
L 331.838303 35.923611 
L 332.319273 36.205021 
L 332.800242 37.914428 
L 333.281212 39.028541 
L 333.762182 39.574531 
L 334.243152 39.552684 
L 334.724121 41.060787 
L 335.686061 42.359879 
L 336.16703 42.315304 
L 336.648 42.808078 
L 337.12897 43.767483 
L 337.609939 45.127718 
L 338.090909 45.565584 
L 338.571879 45.662485 
L 339.052848 46.249945 
L 339.533818 47.109768 
L 340.495758 48.107033 
L 342.419636 51.313291 
L 342.900606 51.937143 
L 343.381576 52.378762 
L 343.862545 53.049013 
L 344.343515 54.53399 
L 345.786424 62.894771 
L 346.748364 68.832707 
L 347.710303 73.12554 
L 348.191273 73.669333 
L 348.672242 74.710588 
L 349.634182 73.313964 
L 350.115152 71.232335 
L 351.077091 65.922149 
L 352.52 55.771461 
L 353.00097 51.286325 
L 353.962909 39.648181 
L 354.924848 32.442332 
L 355.886788 27.732408 
L 356.367758 26.732785 
L 356.848727 27.207436 
L 357.329697 28.807638 
L 358.772606 38.843278 
L 359.253576 41.655593 
L 359.734545 43.301527 
L 360.696485 48.239539 
L 361.177455 52.275554 
L 362.620364 60.155737 
L 363.582303 62.949368 
L 364.544242 65.712845 
L 365.025212 67.343895 
L 365.506182 68.489197 
L 365.987152 69.259802 
L 366.468121 69.721391 
L 366.949091 70.406241 
L 367.430061 69.864349 
L 368.392 71.253839 
L 368.87297 72.668736 
L 369.353939 72.756827 
L 370.315879 71.709728 
L 371.277818 69.528114 
L 373.201697 61.219402 
L 373.682667 60.630987 
L 374.163636 59.77287 
L 374.644606 59.439767 
L 376.087515 57.878359 
L 376.568485 57.034744 
L 377.530424 56.681346 
L 378.011394 57.333533 
L 378.492364 58.610143 
L 379.454303 59.892701 
L 380.416242 61.889011 
L 380.897212 62.391002 
L 381.378182 63.485428 
L 381.859152 63.926026 
L 382.340121 64.104795 
L 383.302061 62.362736 
L 383.78303 62.331218 
L 384.74497 62.092852 
L 385.225939 62.14774 
L 385.706909 60.574317 
L 386.668848 59.55554 
L 388.111758 58.542255 
L 388.592727 58.550802 
L 389.073697 59.221159 
L 390.035636 61.193477 
L 390.516606 61.745066 
L 390.997576 61.95169 
L 391.959515 62.150852 
L 393.402424 61.695222 
L 394.364364 61.170941 
L 395.326303 60.850638 
L 395.807273 60.573932 
L 395.807273 60.573932 
" clip-path="url(#pdeb56a71b6)" style="fill: none; stroke: #ff0000; stroke-width: 1.5; stroke-linecap: square"/>
   </g>
   <g id="patch_3">
    <path d="M 54.92 78.268235 
L 54.92 0 
" style="fill: none; stroke: #000000; stroke-width: 0.8; stroke-linejoin: miter; stroke-linecap: square"/>
   </g>
   <g id="patch_4">
    <path d="M 412.04 78.268235 
L 412.04 0 
" style="fill: none; stroke: #000000; stroke-width: 0.8; stroke-linejoin: miter; stroke-linecap: square"/>
   </g>
   <g id="patch_5">
    <path d="M 54.92 78.268235 
L 412.04 78.268235 
" style="fill: none; stroke: #000000; stroke-width: 0.8; stroke-linejoin: miter; stroke-linecap: square"/>
   </g>
   <g id="patch_6">
    <path d="M 54.92 0 
L 412.04 0 
" style="fill: none; stroke: #000000; stroke-width: 0.8; stroke-linejoin: miter; stroke-linecap: square"/>
   </g>
   <g id="legend_1">
    <g id="patch_7">
     <path d="M 66.82 69.768235 
L 231.725313 69.768235 
Q 235.125313 69.768235 235.125313 66.368235 
L 235.125313 17.689798 
Q 235.125313 14.289798 231.725313 14.289798 
L 66.82 14.289798 
Q 63.42 14.289798 63.42 17.689798 
L 63.42 66.368235 
Q 63.42 69.768235 66.82 69.768235 
z
" style="fill: #ffffff; opacity: 0.8; stroke: #cccccc; stroke-linejoin: miter"/>
    </g>
    <g id="line2d_5">
     <path d="M 70.22 28.057142 
L 87.22 28.057142 
L 104.22 28.057142 
" style="fill: none; stroke: #008000; stroke-width: 1.5; stroke-linecap: square"/>
    </g>
    <g id="text_4">
     <!-- ground_truth -->
     <g transform="translate(117.82 34.007142)scale(0.17 -0.17)">
      <defs>
       <path id="DejaVuSans-67" d="M 2906 1791 
Q 2906 2416 2648 2759 
Q 2391 3103 1925 3103 
Q 1463 3103 1205 2759 
Q 947 2416 947 1791 
Q 947 1169 1205 825 
Q 1463 481 1925 481 
Q 2391 481 2648 825 
Q 2906 1169 2906 1791 
z
M 3481 434 
Q 3481 -459 3084 -895 
Q 2688 -1331 1869 -1331 
Q 1566 -1331 1297 -1286 
Q 1028 -1241 775 -1147 
L 775 -588 
Q 1028 -725 1275 -790 
Q 1522 -856 1778 -856 
Q 2344 -856 2625 -561 
Q 2906 -266 2906 331 
L 2906 616 
Q 2728 306 2450 153 
Q 2172 0 1784 0 
Q 1141 0 747 490 
Q 353 981 353 1791 
Q 353 2603 747 3093 
Q 1141 3584 1784 3584 
Q 2172 3584 2450 3431 
Q 2728 3278 2906 2969 
L 2906 3500 
L 3481 3500 
L 3481 434 
z
" transform="scale(0.015625)"/>
       <path id="DejaVuSans-72" d="M 2631 2963 
Q 2534 3019 2420 3045 
Q 2306 3072 2169 3072 
Q 1681 3072 1420 2755 
Q 1159 2438 1159 1844 
L 1159 0 
L 581 0 
L 581 3500 
L 1159 3500 
L 1159 2956 
Q 1341 3275 1631 3429 
Q 1922 3584 2338 3584 
Q 2397 3584 2469 3576 
Q 2541 3569 2628 3553 
L 2631 2963 
z
" transform="scale(0.015625)"/>
       <path id="DejaVuSans-6f" d="M 1959 3097 
Q 1497 3097 1228 2736 
Q 959 2375 959 1747 
Q 959 1119 1226 758 
Q 1494 397 1959 397 
Q 2419 397 2687 759 
Q 2956 1122 2956 1747 
Q 2956 2369 2687 2733 
Q 2419 3097 1959 3097 
z
M 1959 3584 
Q 2709 3584 3137 3096 
Q 3566 2609 3566 1747 
Q 3566 888 3137 398 
Q 2709 -91 1959 -91 
Q 1206 -91 779 398 
Q 353 888 353 1747 
Q 353 2609 779 3096 
Q 1206 3584 1959 3584 
z
" transform="scale(0.015625)"/>
       <path id="DejaVuSans-75" d="M 544 1381 
L 544 3500 
L 1119 3500 
L 1119 1403 
Q 1119 906 1312 657 
Q 1506 409 1894 409 
Q 2359 409 2629 706 
Q 2900 1003 2900 1516 
L 2900 3500 
L 3475 3500 
L 3475 0 
L 2900 0 
L 2900 538 
Q 2691 219 2414 64 
Q 2138 -91 1772 -91 
Q 1169 -91 856 284 
Q 544 659 544 1381 
z
M 1991 3584 
L 1991 3584 
z
" transform="scale(0.015625)"/>
       <path id="DejaVuSans-6e" d="M 3513 2113 
L 3513 0 
L 2938 0 
L 2938 2094 
Q 2938 2591 2744 2837 
Q 2550 3084 2163 3084 
Q 1697 3084 1428 2787 
Q 1159 2491 1159 1978 
L 1159 0 
L 581 0 
L 581 3500 
L 1159 3500 
L 1159 2956 
Q 1366 3272 1645 3428 
Q 1925 3584 2291 3584 
Q 2894 3584 3203 3211 
Q 3513 2838 3513 2113 
z
" transform="scale(0.015625)"/>
       <path id="DejaVuSans-64" d="M 2906 2969 
L 2906 4863 
L 3481 4863 
L 3481 0 
L 2906 0 
L 2906 525 
Q 2725 213 2448 61 
Q 2172 -91 1784 -91 
Q 1150 -91 751 415 
Q 353 922 353 1747 
Q 353 2572 751 3078 
Q 1150 3584 1784 3584 
Q 2172 3584 2448 3432 
Q 2725 3281 2906 2969 
z
M 947 1747 
Q 947 1113 1208 752 
Q 1469 391 1925 391 
Q 2381 391 2643 752 
Q 2906 1113 2906 1747 
Q 2906 2381 2643 2742 
Q 2381 3103 1925 3103 
Q 1469 3103 1208 2742 
Q 947 2381 947 1747 
z
" transform="scale(0.015625)"/>
       <path id="DejaVuSans-5f" d="M 3263 -1063 
L 3263 -1509 
L -63 -1509 
L -63 -1063 
L 3263 -1063 
z
" transform="scale(0.015625)"/>
       <path id="DejaVuSans-74" d="M 1172 4494 
L 1172 3500 
L 2356 3500 
L 2356 3053 
L 1172 3053 
L 1172 1153 
Q 1172 725 1289 603 
Q 1406 481 1766 481 
L 2356 481 
L 2356 0 
L 1766 0 
Q 1100 0 847 248 
Q 594 497 594 1153 
L 594 3053 
L 172 3053 
L 172 3500 
L 594 3500 
L 594 4494 
L 1172 4494 
z
" transform="scale(0.015625)"/>
       <path id="DejaVuSans-68" d="M 3513 2113 
L 3513 0 
L 2938 0 
L 2938 2094 
Q 2938 2591 2744 2837 
Q 2550 3084 2163 3084 
Q 1697 3084 1428 2787 
Q 1159 2491 1159 1978 
L 1159 0 
L 581 0 
L 581 4863 
L 1159 4863 
L 1159 2956 
Q 1366 3272 1645 3428 
Q 1925 3584 2291 3584 
Q 2894 3584 3203 3211 
Q 3513 2838 3513 2113 
z
" transform="scale(0.015625)"/>
      </defs>
      <use xlink:href="#DejaVuSans-67"/>
      <use xlink:href="#DejaVuSans-72" x="63.476562"/>
      <use xlink:href="#DejaVuSans-6f" x="102.339844"/>
      <use xlink:href="#DejaVuSans-75" x="163.521484"/>
      <use xlink:href="#DejaVuSans-6e" x="226.900391"/>
      <use xlink:href="#DejaVuSans-64" x="290.279297"/>
      <use xlink:href="#DejaVuSans-5f" x="353.755859"/>
      <use xlink:href="#DejaVuSans-74" x="403.755859"/>
      <use xlink:href="#DejaVuSans-72" x="442.964844"/>
      <use xlink:href="#DejaVuSans-75" x="484.078125"/>
      <use xlink:href="#DejaVuSans-74" x="547.457031"/>
      <use xlink:href="#DejaVuSans-68" x="586.666016"/>
     </g>
    </g>
    <g id="line2d_6">
     <path d="M 70.22 53.482767 
L 87.22 53.482767 
L 104.22 53.482767 
" style="fill: none; stroke: #ff0000; stroke-width: 1.5; stroke-linecap: square"/>
    </g>
    <g id="text_5">
     <!-- estimated -->
     <g transform="translate(117.82 59.432767)scale(0.17 -0.17)">
      <defs>
       <path id="DejaVuSans-65" d="M 3597 1894 
L 3597 1613 
L 953 1613 
Q 991 1019 1311 708 
Q 1631 397 2203 397 
Q 2534 397 2845 478 
Q 3156 559 3463 722 
L 3463 178 
Q 3153 47 2828 -22 
Q 2503 -91 2169 -91 
Q 1331 -91 842 396 
Q 353 884 353 1716 
Q 353 2575 817 3079 
Q 1281 3584 2069 3584 
Q 2775 3584 3186 3129 
Q 3597 2675 3597 1894 
z
M 3022 2063 
Q 3016 2534 2758 2815 
Q 2500 3097 2075 3097 
Q 1594 3097 1305 2825 
Q 1016 2553 972 2059 
L 3022 2063 
z
" transform="scale(0.015625)"/>
       <path id="DejaVuSans-73" d="M 2834 3397 
L 2834 2853 
Q 2591 2978 2328 3040 
Q 2066 3103 1784 3103 
Q 1356 3103 1142 2972 
Q 928 2841 928 2578 
Q 928 2378 1081 2264 
Q 1234 2150 1697 2047 
L 1894 2003 
Q 2506 1872 2764 1633 
Q 3022 1394 3022 966 
Q 3022 478 2636 193 
Q 2250 -91 1575 -91 
Q 1294 -91 989 -36 
Q 684 19 347 128 
L 347 722 
Q 666 556 975 473 
Q 1284 391 1588 391 
Q 1994 391 2212 530 
Q 2431 669 2431 922 
Q 2431 1156 2273 1281 
Q 2116 1406 1581 1522 
L 1381 1569 
Q 847 1681 609 1914 
Q 372 2147 372 2553 
Q 372 3047 722 3315 
Q 1072 3584 1716 3584 
Q 2034 3584 2315 3537 
Q 2597 3491 2834 3397 
z
" transform="scale(0.015625)"/>
       <path id="DejaVuSans-69" d="M 603 3500 
L 1178 3500 
L 1178 0 
L 603 0 
L 603 3500 
z
M 603 4863 
L 1178 4863 
L 1178 4134 
L 603 4134 
L 603 4863 
z
" transform="scale(0.015625)"/>
       <path id="DejaVuSans-6d" d="M 3328 2828 
Q 3544 3216 3844 3400 
Q 4144 3584 4550 3584 
Q 5097 3584 5394 3201 
Q 5691 2819 5691 2113 
L 5691 0 
L 5113 0 
L 5113 2094 
Q 5113 2597 4934 2840 
Q 4756 3084 4391 3084 
Q 3944 3084 3684 2787 
Q 3425 2491 3425 1978 
L 3425 0 
L 2847 0 
L 2847 2094 
Q 2847 2600 2669 2842 
Q 2491 3084 2119 3084 
Q 1678 3084 1418 2786 
Q 1159 2488 1159 1978 
L 1159 0 
L 581 0 
L 581 3500 
L 1159 3500 
L 1159 2956 
Q 1356 3278 1631 3431 
Q 1906 3584 2284 3584 
Q 2666 3584 2933 3390 
Q 3200 3197 3328 2828 
z
" transform="scale(0.015625)"/>
      </defs>
      <use xlink:href="#DejaVuSans-65"/>
      <use xlink:href="#DejaVuSans-73" x="61.523438"/>
      <use xlink:href="#DejaVuSans-74" x="113.623047"/>
      <use xlink:href="#DejaVuSans-69" x="152.832031"/>
      <use xlink:href="#DejaVuSans-6d" x="180.615234"/>
      <use xlink:href="#DejaVuSans-61" x="278.027344"/>
      <use xlink:href="#DejaVuSans-74" x="339.306641"/>
      <use xlink:href="#DejaVuSans-65" x="378.515625"/>
      <use xlink:href="#DejaVuSans-64" x="440.039062"/>
     </g>
    </g>
   </g>
  </g>
  <g id="axes_2">
   <g id="patch_8">
    <path d="M 54.92 172.190118 
L 412.04 172.190118 
L 412.04 93.921882 
L 54.92 93.921882 
z
" style="fill: #ffffff"/>
   </g>
   <g id="matplotlib.axis_3"/>
   <g id="matplotlib.axis_4">
    <g id="ytick_3">
     <g id="line2d_7">
      <g>
       <use xlink:href="#m64790520ff" x="54.92" y="147.289178" style="stroke: #000000; stroke-width: 0.8"/>
      </g>
     </g>
     <g id="text_6">
      <!-- −20 -->
      <g transform="translate(26.815313 151.088397)scale(0.1 -0.1)">
       <defs>
        <path id="DejaVuSans-32" d="M 1228 531 
L 3431 531 
L 3431 0 
L 469 0 
L 469 531 
Q 828 903 1448 1529 
Q 2069 2156 2228 2338 
Q 2531 2678 2651 2914 
Q 2772 3150 2772 3378 
Q 2772 3750 2511 3984 
Q 2250 4219 1831 4219 
Q 1534 4219 1204 4116 
Q 875 4013 500 3803 
L 500 4441 
Q 881 4594 1212 4672 
Q 1544 4750 1819 4750 
Q 2544 4750 2975 4387 
Q 3406 4025 3406 3419 
Q 3406 3131 3298 2873 
Q 3191 2616 2906 2266 
Q 2828 2175 2409 1742 
Q 1991 1309 1228 531 
z
" transform="scale(0.015625)"/>
       </defs>
       <use xlink:href="#DejaVuSans-2212"/>
       <use xlink:href="#DejaVuSans-32" x="83.789062"/>
       <use xlink:href="#DejaVuSans-30" x="147.412109"/>
      </g>
     </g>
    </g>
    <g id="ytick_4">
     <g id="line2d_8">
      <g>
       <use xlink:href="#m64790520ff" x="54.92" y="120.392629" style="stroke: #000000; stroke-width: 0.8"/>
      </g>
     </g>
     <g id="text_7">
      <!-- 0 -->
      <g transform="translate(41.5575 124.191848)scale(0.1 -0.1)">
       <use xlink:href="#DejaVuSans-30"/>
      </g>
     </g>
    </g>
    <g id="text_8">
     <!-- pitch [°] -->
     <g transform="translate(19.279844 167.790453)rotate(-90)scale(0.17 -0.17)">
      <defs>
       <path id="DejaVuSans-70" d="M 1159 525 
L 1159 -1331 
L 581 -1331 
L 581 3500 
L 1159 3500 
L 1159 2969 
Q 1341 3281 1617 3432 
Q 1894 3584 2278 3584 
Q 2916 3584 3314 3078 
Q 3713 2572 3713 1747 
Q 3713 922 3314 415 
Q 2916 -91 2278 -91 
Q 1894 -91 1617 61 
Q 1341 213 1159 525 
z
M 3116 1747 
Q 3116 2381 2855 2742 
Q 2594 3103 2138 3103 
Q 1681 3103 1420 2742 
Q 1159 2381 1159 1747 
Q 1159 1113 1420 752 
Q 1681 391 2138 391 
Q 2594 391 2855 752 
Q 3116 1113 3116 1747 
z
" transform="scale(0.015625)"/>
       <path id="DejaVuSans-63" d="M 3122 3366 
L 3122 2828 
Q 2878 2963 2633 3030 
Q 2388 3097 2138 3097 
Q 1578 3097 1268 2742 
Q 959 2388 959 1747 
Q 959 1106 1268 751 
Q 1578 397 2138 397 
Q 2388 397 2633 464 
Q 2878 531 3122 666 
L 3122 134 
Q 2881 22 2623 -34 
Q 2366 -91 2075 -91 
Q 1284 -91 818 406 
Q 353 903 353 1747 
Q 353 2603 823 3093 
Q 1294 3584 2113 3584 
Q 2378 3584 2631 3529 
Q 2884 3475 3122 3366 
z
" transform="scale(0.015625)"/>
      </defs>
      <use xlink:href="#DejaVuSans-70"/>
      <use xlink:href="#DejaVuSans-69" x="63.476562"/>
      <use xlink:href="#DejaVuSans-74" x="91.259766"/>
      <use xlink:href="#DejaVuSans-63" x="130.46875"/>
      <use xlink:href="#DejaVuSans-68" x="185.449219"/>
      <use xlink:href="#DejaVuSans-20" x="248.828125"/>
      <use xlink:href="#DejaVuSans-5b" x="280.615234"/>
      <use xlink:href="#DejaVuSans-b0" x="319.628906"/>
      <use xlink:href="#DejaVuSans-5d" x="369.628906"/>
     </g>
    </g>
   </g>
   <g id="line2d_9">
    <path d="M 71.152727 117.872319 
L 71.633697 118.184929 
L 72.595636 118.54276 
L 73.076606 118.32222 
L 73.557576 117.330035 
L 74.038545 116.974583 
L 74.519515 116.477489 
L 75.481455 116.496675 
L 75.962424 116.296668 
L 76.924364 112.906912 
L 77.405333 112.387474 
L 77.886303 112.97078 
L 78.367273 113.949798 
L 78.848242 114.442086 
L 79.329212 113.468824 
L 80.772121 107.674772 
L 81.253091 109.619811 
L 82.21503 114.225916 
L 82.696 114.736689 
L 83.657939 115.413264 
L 84.619879 113.457239 
L 85.100848 113.298972 
L 85.581818 113.664766 
L 86.062788 114.269978 
L 86.543758 115.138796 
L 87.024727 116.302071 
L 87.505697 117.133091 
L 88.467636 114.969403 
L 89.429576 111.403261 
L 89.910545 110.706763 
L 90.391515 110.948608 
L 91.353455 111.998166 
L 91.834424 113.107196 
L 92.315394 112.889937 
L 92.796364 113.504604 
L 93.277333 113.359966 
L 94.720242 111.407635 
L 95.201212 111.316936 
L 95.682182 111.095717 
L 96.163152 111.673191 
L 96.644121 113.524286 
L 97.125091 114.597171 
L 97.606061 114.501207 
L 98.08703 115.403432 
L 98.568 116.571367 
L 99.529939 119.612601 
L 100.010909 120.810994 
L 100.491879 120.580123 
L 100.972848 119.948618 
L 101.934788 118.323351 
L 102.415758 118.182796 
L 102.896727 119.71244 
L 103.377697 120.810842 
L 103.858667 120.680542 
L 104.339636 119.716916 
L 104.820606 119.417009 
L 105.301576 120.339621 
L 105.782545 120.918524 
L 106.263515 122.953774 
L 106.744485 123.859668 
L 107.706424 120.256231 
L 108.187394 119.510985 
L 108.668364 119.071204 
L 109.630303 121.023207 
L 110.111273 120.151611 
L 110.592242 118.735017 
L 111.073212 120.18512 
L 111.554182 122.964713 
L 112.035152 124.299222 
L 112.516121 123.621206 
L 113.478061 121.375302 
L 113.95903 121.487245 
L 114.44 120.944435 
L 115.401939 119.033119 
L 116.363879 117.726834 
L 117.325818 120.450871 
L 117.806788 120.795558 
L 119.249697 120.502167 
L 119.730667 119.679354 
L 120.211636 120.349582 
L 120.692606 120.492282 
L 121.173576 119.699007 
L 122.135515 116.446512 
L 123.097455 115.004222 
L 123.578424 115.049968 
L 124.059394 115.958397 
L 124.540364 116.574295 
L 125.021333 116.94818 
L 125.502303 118.325736 
L 125.983273 120.118527 
L 127.426182 123.539918 
L 127.907152 123.952258 
L 128.388121 123.910352 
L 129.350061 130.368893 
L 130.312 133.562088 
L 130.79297 133.610926 
L 131.273939 133.893255 
L 131.754909 133.65643 
L 132.235879 133.910613 
L 132.716848 133.251075 
L 133.197818 132.185594 
L 133.678788 131.491892 
L 134.640727 131.430194 
L 135.121697 130.646543 
L 135.602667 130.94503 
L 136.083636 129.029758 
L 136.564606 124.935056 
L 137.526545 119.563857 
L 138.007515 116.240447 
L 138.488485 114.561615 
L 138.969455 114.482127 
L 139.450424 115.360716 
L 140.412364 116.018604 
L 141.374303 117.391471 
L 141.855273 117.228867 
L 142.336242 117.40349 
L 143.298182 118.752349 
L 143.779152 118.789264 
L 144.260121 118.151336 
L 144.741091 118.560816 
L 145.222061 119.284919 
L 145.70303 120.718595 
L 146.184 122.555517 
L 146.66497 123.514606 
L 147.145939 122.829195 
L 147.626909 122.554632 
L 148.107879 121.559451 
L 149.069818 122.373263 
L 150.031758 124.60619 
L 150.512727 124.702888 
L 150.993697 125.092219 
L 151.474667 125.307128 
L 151.955636 125.670736 
L 152.436606 125.786766 
L 152.917576 126.54609 
L 153.398545 127.709055 
L 154.360485 130.720158 
L 154.841455 131.154894 
L 155.803394 134.229052 
L 156.765333 134.262183 
L 157.246303 134.648706 
L 157.727273 134.52921 
L 158.208242 134.184412 
L 159.170182 134.973075 
L 160.613091 132.319141 
L 161.094061 131.72446 
L 161.57503 130.572048 
L 162.056 128.813358 
L 162.53697 128.24741 
L 163.498909 129.023664 
L 164.460848 131.801948 
L 165.422788 132.657216 
L 165.903758 132.868836 
L 166.384727 132.875048 
L 166.865697 132.534022 
L 167.827636 132.038496 
L 168.308606 131.215225 
L 169.270545 128.271072 
L 169.751515 127.632775 
L 170.232485 127.486912 
L 170.713455 127.545453 
L 171.194424 127.469848 
L 171.675394 127.535722 
L 172.156364 127.768671 
L 173.118303 126.983489 
L 173.599273 127.432596 
L 174.080242 128.153663 
L 174.561212 129.446643 
L 175.042182 129.632705 
L 175.523152 129.543163 
L 176.004121 128.680907 
L 177.44703 127.151689 
L 177.928 127.058186 
L 178.40897 126.401591 
L 179.370909 124.389284 
L 179.851879 124.838338 
L 180.332848 125.037096 
L 181.775758 127.040595 
L 182.256727 127.143899 
L 182.737697 126.721819 
L 183.218667 126.015662 
L 183.699636 124.573363 
L 184.180606 124.715085 
L 184.661576 124.353574 
L 185.142545 123.368454 
L 185.623515 122.962647 
L 186.104485 123.595828 
L 187.547394 123.018148 
L 188.028364 122.945257 
L 188.990303 122.634838 
L 189.471273 122.823259 
L 189.952242 123.349871 
L 190.433212 124.228461 
L 191.876121 128.250159 
L 192.838061 128.902124 
L 193.31903 128.705766 
L 194.28097 128.905539 
L 195.242909 130.833985 
L 195.723879 130.894365 
L 196.685818 129.773998 
L 197.166788 128.688759 
L 197.647758 127.99224 
L 198.609697 128.87447 
L 199.571636 128.843997 
L 200.052606 128.676973 
L 200.533576 129.156027 
L 201.495515 129.509797 
L 201.976485 128.882572 
L 202.457455 127.360322 
L 202.938424 126.369953 
L 203.900364 123.516079 
L 204.381333 122.442025 
L 204.862303 122.053077 
L 206.305212 122.414082 
L 207.267152 122.598874 
L 207.748121 122.341943 
L 208.229091 121.341079 
L 208.710061 121.241622 
L 209.19103 121.003144 
L 210.15297 121.312315 
L 210.633939 121.215331 
L 211.114909 121.538238 
L 211.595879 121.22783 
L 212.076848 121.996878 
L 212.557818 122.984104 
L 213.038788 123.02146 
L 214.481697 124.290116 
L 215.443636 124.916069 
L 215.924606 124.840096 
L 216.405576 125.267188 
L 217.367515 127.593207 
L 217.848485 127.804412 
L 218.329455 127.584954 
L 218.810424 127.219058 
L 219.291394 126.240082 
L 219.772364 126.397212 
L 220.253333 126.889478 
L 220.734303 126.833621 
L 221.696242 123.590219 
L 223.620121 118.263735 
L 224.101091 117.586458 
L 225.06303 116.911767 
L 225.544 115.597895 
L 226.02497 115.167464 
L 226.986909 115.364302 
L 227.467879 115.822673 
L 227.948848 115.759366 
L 228.910788 116.663465 
L 229.872727 118.645655 
L 230.353697 118.784337 
L 231.315636 119.647352 
L 231.796606 119.365638 
L 232.758545 117.934088 
L 233.239515 117.650389 
L 234.682424 115.20217 
L 235.163394 114.641726 
L 236.125333 114.856613 
L 236.606303 115.159994 
L 238.049212 117.117065 
L 238.530182 117.28573 
L 239.492121 118.208182 
L 239.973091 119.883612 
L 240.454061 122.204293 
L 241.416 123.968926 
L 243.339879 129.453407 
L 243.820848 131.251184 
L 244.782788 131.925389 
L 245.263758 131.52484 
L 245.744727 129.929075 
L 246.225697 128.92498 
L 246.706667 127.183575 
L 247.187636 124.691168 
L 247.668606 122.799553 
L 248.149576 121.49031 
L 248.630545 120.996202 
L 249.592485 123.820196 
L 250.554424 124.849039 
L 251.035394 125.989925 
L 251.516364 126.502746 
L 251.997333 125.932429 
L 252.478303 124.914287 
L 252.959273 123.539432 
L 253.921212 117.857416 
L 254.402182 116.051806 
L 255.845091 112.883326 
L 256.326061 112.147766 
L 257.288 111.301445 
L 257.76897 111.973318 
L 258.730909 112.617774 
L 259.211879 112.427287 
L 259.692848 112.048313 
L 260.654788 109.423936 
L 261.135758 109.152623 
L 261.616727 109.256649 
L 262.097697 109.553216 
L 262.578667 109.084425 
L 263.540606 109.497549 
L 264.021576 110.081347 
L 264.983515 110.712485 
L 266.426424 112.096187 
L 267.388364 111.349674 
L 268.831273 114.833849 
L 269.793212 118.337232 
L 271.236121 124.149125 
L 271.717091 126.456529 
L 272.198061 128.066219 
L 272.67903 128.179699 
L 273.16 128.083262 
L 274.121939 126.89272 
L 274.602909 126.547951 
L 275.564848 126.413617 
L 276.045818 125.885008 
L 277.488727 123.050509 
L 279.412606 117.117784 
L 279.893576 116.451081 
L 280.374545 116.876743 
L 280.855515 117.652397 
L 281.336485 117.551489 
L 283.260364 110.519028 
L 283.741333 109.777866 
L 284.222303 109.85324 
L 284.703273 110.196199 
L 285.184242 111.375987 
L 285.665212 112.058363 
L 286.146182 113.57789 
L 286.627152 115.533672 
L 288.070061 119.716587 
L 288.55103 119.659697 
L 289.032 119.790524 
L 289.51297 119.2861 
L 289.993939 117.203434 
L 290.474909 112.993329 
L 290.955879 111.127979 
L 291.436848 111.467187 
L 291.917818 112.124038 
L 292.398788 113.039067 
L 293.360727 116.283476 
L 293.841697 117.132135 
L 294.322667 117.353772 
L 294.803636 117.401541 
L 296.246545 120.593231 
L 297.208485 120.19812 
L 297.689455 120.56074 
L 299.132364 119.753451 
L 299.613333 120.401564 
L 300.094303 120.680264 
L 300.575273 120.820513 
L 301.056242 120.591237 
L 301.537212 120.960907 
L 302.018182 120.99135 
L 304.42303 118.044462 
L 304.904 117.830046 
L 305.38497 117.738966 
L 305.865939 117.424791 
L 306.827879 118.758122 
L 307.789818 120.222271 
L 309.232727 120.30866 
L 311.156606 117.458773 
L 312.118545 114.415196 
L 312.599515 114.257539 
L 313.080485 114.246138 
L 314.042424 116.673024 
L 314.523394 118.25063 
L 315.004364 118.455703 
L 315.485333 119.527131 
L 315.966303 118.922218 
L 316.447273 117.413109 
L 316.928242 116.31887 
L 317.409212 116.317281 
L 317.890182 117.813691 
L 318.371152 117.586412 
L 318.852121 116.472894 
L 319.333091 116.602719 
L 319.814061 117.56406 
L 320.29503 117.734441 
L 320.776 117.644073 
L 321.25697 117.993257 
L 321.737939 118.201246 
L 322.218909 118.13277 
L 322.699879 117.820697 
L 323.180848 118.319728 
L 323.661818 118.427315 
L 324.142788 118.675516 
L 324.623758 119.171069 
L 325.104727 119.165484 
L 325.585697 119.282761 
L 326.066667 119.652928 
L 327.028606 118.645556 
L 327.509576 118.452477 
L 327.990545 119.163554 
L 328.471515 120.361157 
L 328.952485 121.084718 
L 329.433455 121.475342 
L 329.914424 120.694633 
L 330.395394 120.29302 
L 330.876364 120.070984 
L 331.357333 121.112226 
L 331.838303 121.07762 
L 333.281212 122.927714 
L 334.243152 121.853746 
L 335.205091 122.350176 
L 337.12897 126.910578 
L 337.609939 127.354305 
L 338.090909 127.255493 
L 338.571879 126.909961 
L 339.052848 127.00024 
L 339.533818 126.758758 
L 340.014788 125.798201 
L 340.495758 125.977929 
L 340.976727 125.604113 
L 341.457697 125.812755 
L 342.900606 130.314677 
L 343.381576 130.29592 
L 343.862545 129.724182 
L 344.824485 127.064636 
L 345.305455 126.864711 
L 346.748364 122.91779 
L 347.229333 122.371142 
L 347.710303 123.484739 
L 348.191273 123.732525 
L 348.672242 123.089052 
L 349.153212 122.950558 
L 349.634182 122.979797 
L 350.115152 123.672962 
L 351.077091 124.509509 
L 352.03903 126.779385 
L 352.52 126.645137 
L 353.481939 124.389287 
L 353.962909 124.3604 
L 354.924848 125.61599 
L 355.405818 125.912542 
L 355.886788 125.552157 
L 356.848727 123.625835 
L 357.810667 123.314937 
L 358.772606 122.154595 
L 359.253576 121.994878 
L 360.696485 123.821927 
L 361.177455 125.417138 
L 362.139394 130.534091 
L 362.620364 131.597418 
L 363.101333 131.137958 
L 363.582303 130.325016 
L 364.063273 130.865558 
L 365.025212 130.214196 
L 365.506182 130.394129 
L 365.987152 130.082586 
L 366.468121 128.392223 
L 366.949091 127.216472 
L 367.430061 126.653386 
L 367.91103 125.63212 
L 368.392 125.939597 
L 368.87297 127.026265 
L 369.353939 127.473236 
L 369.834909 126.9425 
L 370.796848 126.750531 
L 371.277818 126.274286 
L 372.239758 122.795767 
L 372.720727 121.076113 
L 373.201697 120.443383 
L 373.682667 119.310996 
L 374.163636 119.741767 
L 374.644606 119.803192 
L 376.087515 123.302377 
L 376.568485 123.140642 
L 377.049455 122.109676 
L 377.530424 120.370578 
L 378.011394 119.953431 
L 379.935273 113.287801 
L 380.416242 113.394959 
L 381.378182 118.558986 
L 381.859152 121.668311 
L 382.340121 123.896 
L 382.821091 125.474221 
L 383.302061 126.262709 
L 384.264 128.373704 
L 384.74497 128.152869 
L 385.225939 127.084566 
L 386.668848 128.193937 
L 387.149818 128.566105 
L 387.630788 128.516011 
L 388.592727 130.149524 
L 389.073697 130.499404 
L 389.554667 130.578555 
L 390.035636 131.242121 
L 390.516606 131.239568 
L 390.997576 130.649831 
L 391.959515 130.04629 
L 392.440485 130.011534 
L 393.883394 128.803175 
L 394.364364 128.52162 
L 394.845333 128.102982 
L 395.326303 127.880632 
L 395.807273 127.793214 
L 395.807273 127.793214 
" clip-path="url(#p709ff87a89)" style="fill: none; stroke: #008000; stroke-width: 1.5; stroke-linecap: square"/>
   </g>
   <g id="line2d_10">
    <path d="M 71.152727 117.872312 
L 71.633697 118.310521 
L 72.595636 118.902671 
L 73.076606 118.836508 
L 73.557576 117.666041 
L 75.000485 116.337508 
L 75.481455 115.983558 
L 75.962424 116.127081 
L 76.443394 114.596541 
L 76.924364 112.624787 
L 77.405333 111.751795 
L 77.886303 112.185 
L 78.848242 113.789218 
L 79.329212 112.972434 
L 79.810182 111.262354 
L 80.291152 107.896402 
L 80.772121 105.93198 
L 81.253091 107.396946 
L 81.734061 110.143514 
L 82.21503 112.212424 
L 82.696 113.230983 
L 83.17697 113.683029 
L 83.657939 113.900906 
L 84.619879 111.790101 
L 85.100848 111.448206 
L 85.581818 111.86295 
L 86.543758 113.675391 
L 87.505697 115.658786 
L 88.467636 113.808784 
L 89.429576 110.214135 
L 89.910545 109.440423 
L 90.391515 109.737831 
L 90.872485 109.530899 
L 91.353455 110.46019 
L 91.834424 111.978741 
L 92.315394 112.383666 
L 92.796364 113.20155 
L 93.277333 113.435751 
L 93.758303 113.363882 
L 94.239273 113.120413 
L 94.720242 112.290338 
L 95.201212 112.504314 
L 96.163152 112.451211 
L 97.125091 116.735504 
L 97.606061 116.466493 
L 98.08703 116.912213 
L 99.529939 120.695987 
L 100.010909 122.321569 
L 100.491879 122.387286 
L 100.972848 122.022304 
L 101.453818 120.964051 
L 101.934788 120.224241 
L 102.415758 119.85103 
L 103.377697 122.707997 
L 103.858667 123.134816 
L 104.339636 122.028452 
L 104.820606 121.451907 
L 105.301576 122.667736 
L 105.782545 122.313246 
L 106.263515 124.473133 
L 106.744485 125.869533 
L 107.225455 125.091636 
L 107.706424 122.865566 
L 108.668364 121.080991 
L 109.149333 121.747451 
L 109.630303 122.657319 
L 110.111273 122.888673 
L 110.592242 121.278896 
L 111.073212 122.61548 
L 112.035152 127.523337 
L 112.516121 127.010785 
L 113.478061 124.870741 
L 113.95903 124.999976 
L 114.44 124.576817 
L 115.401939 122.541367 
L 116.363879 121.495253 
L 116.844848 122.746796 
L 117.325818 124.505836 
L 117.806788 124.725647 
L 118.287758 122.199327 
L 119.249697 120.761539 
L 119.730667 119.885639 
L 120.692606 120.460486 
L 121.173576 119.385808 
L 121.654545 117.872529 
L 122.135515 115.743744 
L 122.616485 115.088463 
L 123.097455 113.908964 
L 125.021333 115.230396 
L 125.983273 117.719671 
L 126.464242 119.204674 
L 127.426182 121.425998 
L 127.907152 122.16533 
L 128.388121 122.36904 
L 128.869091 124.717149 
L 129.350061 127.854273 
L 129.83103 129.803571 
L 130.312 130.820265 
L 131.754909 129.644475 
L 132.235879 129.219059 
L 132.716848 128.052485 
L 133.678788 124.927112 
L 134.159758 124.375146 
L 134.640727 124.720688 
L 135.121697 123.740558 
L 135.602667 123.759571 
L 136.083636 122.394708 
L 137.045576 114.843212 
L 138.007515 108.760428 
L 138.488485 106.708872 
L 138.969455 106.028387 
L 139.931394 106.928862 
L 140.412364 107.067772 
L 140.893333 107.995124 
L 141.374303 109.187549 
L 141.855273 108.198106 
L 142.336242 107.847542 
L 143.298182 109.9935 
L 143.779152 110.224133 
L 144.260121 109.888558 
L 145.222061 111.636144 
L 145.70303 113.020972 
L 146.184 115.155794 
L 146.66497 116.53156 
L 147.626909 116.039429 
L 148.107879 115.359431 
L 148.588848 115.759121 
L 149.069818 117.028587 
L 149.550788 116.789684 
L 150.031758 121.337576 
L 150.512727 121.683689 
L 150.993697 122.497556 
L 151.474667 122.986695 
L 151.955636 124.44925 
L 152.436606 124.917056 
L 152.917576 125.862318 
L 153.398545 127.158607 
L 154.360485 131.19282 
L 154.841455 131.900737 
L 155.322424 133.48651 
L 155.803394 135.745761 
L 156.765333 136.592492 
L 157.246303 137.464272 
L 157.727273 137.850478 
L 158.208242 137.946555 
L 158.689212 138.65304 
L 159.170182 139.735385 
L 160.132121 138.732006 
L 160.613091 138.409148 
L 161.094061 137.733446 
L 161.57503 136.80584 
L 162.056 135.189415 
L 162.53697 134.538796 
L 163.017939 135.072111 
L 163.498909 135.39276 
L 163.979879 137.177739 
L 164.460848 138.508146 
L 164.941818 139.073549 
L 165.422788 139.446716 
L 166.384727 139.493052 
L 167.827636 138.232263 
L 168.308606 137.257588 
L 169.270545 134.215985 
L 169.751515 133.388374 
L 170.232485 133.21937 
L 170.713455 133.467748 
L 171.194424 133.230375 
L 171.675394 133.225934 
L 172.156364 133.581247 
L 173.118303 132.854883 
L 173.599273 133.145678 
L 174.080242 133.989435 
L 174.561212 135.245818 
L 175.042182 135.900967 
L 175.523152 136.1168 
L 176.485091 135.042862 
L 176.966061 134.5875 
L 177.44703 134.409841 
L 177.928 134.638762 
L 178.40897 134.175822 
L 179.370909 132.772317 
L 180.332848 134.144655 
L 180.813818 134.907293 
L 181.294788 136.178102 
L 181.775758 136.960172 
L 182.256727 137.395663 
L 182.737697 137.470055 
L 183.218667 137.012399 
L 183.699636 136.080242 
L 184.180606 136.788265 
L 184.661576 136.891689 
L 185.142545 136.727234 
L 185.623515 136.833391 
L 186.104485 137.783107 
L 186.585455 136.861258 
L 187.066424 136.568595 
L 188.028364 135.768648 
L 188.509333 135.934151 
L 189.471273 136.011378 
L 189.952242 136.462357 
L 190.433212 137.257499 
L 190.914182 138.364272 
L 191.395152 140.387399 
L 191.876121 141.747111 
L 192.838061 142.666149 
L 193.8 142.326038 
L 194.28097 142.602453 
L 194.761939 143.474573 
L 195.242909 144.655974 
L 195.723879 144.675738 
L 196.204848 143.3453 
L 196.685818 142.441187 
L 197.166788 140.485963 
L 197.647758 137.60304 
L 198.128727 137.125523 
L 198.609697 137.07125 
L 199.571636 136.667159 
L 200.052606 136.274539 
L 200.533576 136.644399 
L 201.014545 136.665525 
L 201.495515 136.380632 
L 201.976485 135.253721 
L 203.419394 128.928305 
L 204.381333 125.887246 
L 204.862303 125.217185 
L 205.343273 125.089251 
L 205.824242 124.831845 
L 206.305212 124.88922 
L 207.267152 125.384899 
L 207.748121 125.271906 
L 208.229091 124.157639 
L 208.710061 123.882474 
L 209.19103 123.344736 
L 209.672 123.160979 
L 211.114909 121.472975 
L 211.595879 120.63874 
L 212.557818 121.439977 
L 213.038788 121.467248 
L 214.000727 122.388291 
L 215.443636 122.95455 
L 215.924606 122.55071 
L 216.405576 122.475074 
L 217.367515 123.620028 
L 217.848485 123.252357 
L 218.810424 121.489139 
L 219.291394 119.942015 
L 219.772364 119.743933 
L 220.253333 119.995094 
L 220.734303 119.947069 
L 222.177212 114.847428 
L 222.658182 113.372529 
L 223.139152 111.32521 
L 223.620121 110.123788 
L 224.101091 109.461022 
L 224.582061 109.380566 
L 225.06303 109.115683 
L 225.544 108.283247 
L 226.02497 108.03573 
L 226.505939 108.112702 
L 226.986909 108.772084 
L 227.467879 109.725727 
L 227.948848 110.050504 
L 228.910788 111.709071 
L 229.391758 113.175559 
L 229.872727 114.099814 
L 230.353697 114.153696 
L 230.834667 113.994642 
L 231.315636 114.14305 
L 231.796606 113.685859 
L 232.277576 112.880698 
L 232.758545 111.848205 
L 233.239515 111.201128 
L 234.201455 108.936263 
L 234.682424 107.411338 
L 235.163394 106.317068 
L 235.644364 105.940712 
L 236.606303 105.756889 
L 238.049212 107.39789 
L 239.011152 107.776037 
L 239.492121 108.217795 
L 239.973091 110.003647 
L 240.454061 112.493666 
L 241.89697 115.811752 
L 243.339879 120.473513 
L 243.820848 122.63886 
L 244.301818 123.361581 
L 244.782788 123.667974 
L 245.263758 123.391297 
L 245.744727 121.938488 
L 246.225697 121.053193 
L 246.706667 119.045879 
L 247.187636 116.414396 
L 248.149576 112.733319 
L 248.630545 111.900719 
L 249.592485 114.161013 
L 250.554424 114.396925 
L 251.035394 115.410963 
L 251.516364 115.995757 
L 251.997333 115.475682 
L 252.959273 112.96836 
L 253.921212 107.013994 
L 254.402182 105.096439 
L 255.364121 102.117454 
L 255.845091 101.95803 
L 256.326061 100.864577 
L 256.80703 100.35684 
L 257.288 99.680373 
L 258.249939 100.285799 
L 258.730909 100.31965 
L 259.211879 100.725981 
L 259.692848 100.119904 
L 260.654788 97.86359 
L 261.616727 97.540741 
L 262.097697 97.78521 
L 262.578667 97.479529 
L 263.540606 97.778489 
L 264.021576 98.590225 
L 264.502545 99.172578 
L 265.464485 99.862865 
L 266.426424 101.138864 
L 266.907394 99.929167 
L 267.388364 99.590165 
L 268.350303 101.566586 
L 269.312242 104.400007 
L 272.198061 117.540664 
L 272.67903 115.799425 
L 273.16 115.496759 
L 273.64097 113.832277 
L 274.121939 113.198051 
L 274.602909 111.439378 
L 275.083879 111.156173 
L 275.564848 111.695677 
L 276.045818 111.497023 
L 276.526788 110.9388 
L 277.007758 110.899624 
L 277.969697 109.511437 
L 278.450667 109.299511 
L 278.931636 109.71324 
L 279.412606 110.539692 
L 279.893576 112.317861 
L 280.374545 114.875506 
L 280.855515 118.275307 
L 281.336485 119.832337 
L 281.817455 120.433035 
L 282.298424 121.901283 
L 282.779394 123.813251 
L 283.260364 125.11932 
L 283.741333 125.512696 
L 284.703273 129.122603 
L 285.665212 133.635972 
L 286.146182 135.668307 
L 287.108121 140.539855 
L 287.589091 142.508006 
L 288.070061 143.999535 
L 288.55103 144.847446 
L 289.51297 147.433591 
L 289.993939 147.271445 
L 290.474909 144.658325 
L 290.955879 143.173658 
L 292.398788 148.009898 
L 293.360727 151.963338 
L 293.841697 153.112133 
L 294.322667 153.819241 
L 294.803636 154.091265 
L 295.284606 154.983591 
L 296.246545 157.622167 
L 296.727515 157.812128 
L 297.208485 157.43389 
L 297.689455 157.978244 
L 298.170424 157.606322 
L 299.132364 156.328833 
L 299.613333 156.402605 
L 300.094303 156.832813 
L 300.575273 156.778145 
L 301.056242 156.136726 
L 301.537212 156.587162 
L 302.018182 155.828698 
L 302.499152 155.408266 
L 302.980121 154.617412 
L 303.942061 153.626138 
L 304.42303 152.880529 
L 304.904 152.50177 
L 305.38497 152.314279 
L 305.865939 152.3711 
L 306.346909 152.624182 
L 307.308848 154.059186 
L 307.789818 154.455651 
L 308.270788 154.440081 
L 308.751758 154.305097 
L 309.232727 154.998096 
L 309.713697 155.439986 
L 310.194667 155.35151 
L 310.675636 154.981468 
L 311.156606 154.787604 
L 311.637576 154.100576 
L 312.118545 153.135147 
L 312.599515 153.638648 
L 313.080485 153.896007 
L 313.561455 154.744665 
L 314.523394 157.629816 
L 315.004364 157.925225 
L 315.485333 158.681897 
L 315.966303 158.178317 
L 316.928242 155.348005 
L 317.409212 155.630451 
L 317.890182 157.279748 
L 318.371152 157.050526 
L 318.852121 156.15372 
L 319.333091 156.493617 
L 319.814061 157.476891 
L 320.29503 157.450098 
L 320.776 157.232222 
L 321.25697 157.669092 
L 321.737939 157.770769 
L 322.699879 157.169331 
L 323.180848 157.071056 
L 324.142788 156.475022 
L 324.623758 156.740839 
L 325.104727 156.729321 
L 326.066667 157.79482 
L 327.509576 156.604558 
L 327.990545 157.06309 
L 328.471515 158.105939 
L 328.952485 158.711907 
L 329.433455 159.101629 
L 329.914424 158.622128 
L 330.395394 158.418497 
L 330.876364 158.013469 
L 331.357333 159.025642 
L 331.838303 158.99503 
L 332.800242 160.417276 
L 333.281212 162.047734 
L 333.762182 161.711388 
L 334.724121 162.104289 
L 335.686061 164.028781 
L 336.648 166.367181 
L 337.12897 167.139548 
L 337.609939 167.193867 
L 339.052848 166.114019 
L 339.533818 165.43119 
L 340.014788 163.824979 
L 340.495758 163.804606 
L 340.976727 164.002209 
L 341.457697 163.836947 
L 341.938667 164.930321 
L 342.900606 168.600738 
L 343.381576 168.632471 
L 343.862545 168.247239 
L 345.786424 164.143404 
L 347.229333 158.252858 
L 348.191273 157.122729 
L 349.153212 154.229087 
L 349.634182 153.529619 
L 350.115152 153.518495 
L 350.596121 153.686694 
L 351.077091 154.375773 
L 351.558061 154.703821 
L 352.03903 156.547461 
L 352.52 157.740874 
L 353.00097 157.974798 
L 353.481939 157.66312 
L 353.962909 158.709054 
L 354.443879 160.09149 
L 354.924848 160.843143 
L 355.405818 160.909063 
L 355.886788 160.538127 
L 356.367758 159.93377 
L 356.848727 158.65823 
L 357.329697 158.675152 
L 357.810667 158.183414 
L 359.253576 156.052178 
L 360.215515 156.274155 
L 360.696485 155.858777 
L 361.177455 155.888688 
L 362.620364 158.587378 
L 363.101333 158.278332 
L 363.582303 158.315838 
L 364.544242 159.048176 
L 365.025212 159.113261 
L 365.506182 160.081372 
L 365.987152 160.514073 
L 366.468121 159.717813 
L 367.430061 156.135936 
L 367.91103 153.147004 
L 368.87297 148.869731 
L 369.353939 149.213394 
L 370.315879 149.247284 
L 370.796848 149.512482 
L 371.277818 149.194661 
L 371.758788 147.716159 
L 372.239758 144.674503 
L 373.201697 137.596371 
L 373.682667 134.14066 
L 374.644606 131.495055 
L 375.125576 131.290928 
L 376.087515 130.66179 
L 376.568485 129.724528 
L 377.530424 125.957242 
L 378.011394 125.138469 
L 378.492364 124.091849 
L 378.973333 124.060827 
L 379.454303 123.244038 
L 379.935273 123.520805 
L 380.416242 125.899248 
L 381.378182 135.692687 
L 382.340121 144.269106 
L 382.821091 147.52472 
L 383.302061 149.454681 
L 384.264 152.697687 
L 385.225939 154.299394 
L 385.706909 155.439585 
L 386.668848 155.840189 
L 387.149818 156.406564 
L 388.111758 158.483302 
L 388.592727 159.680689 
L 389.073697 160.448673 
L 390.516606 161.299806 
L 390.997576 161.341295 
L 391.478545 161.515255 
L 392.440485 161.473232 
L 392.921455 161.104611 
L 393.402424 160.92754 
L 393.883394 160.536221 
L 394.845333 160.084698 
L 395.326303 159.749986 
L 395.807273 159.906177 
L 395.807273 159.906177 
" clip-path="url(#p709ff87a89)" style="fill: none; stroke: #ff0000; stroke-width: 1.5; stroke-linecap: square"/>
   </g>
   <g id="patch_9">
    <path d="M 54.92 172.190118 
L 54.92 93.921882 
" style="fill: none; stroke: #000000; stroke-width: 0.8; stroke-linejoin: miter; stroke-linecap: square"/>
   </g>
   <g id="patch_10">
    <path d="M 412.04 172.190118 
L 412.04 93.921882 
" style="fill: none; stroke: #000000; stroke-width: 0.8; stroke-linejoin: miter; stroke-linecap: square"/>
   </g>
   <g id="patch_11">
    <path d="M 54.92 172.190118 
L 412.04 172.190118 
" style="fill: none; stroke: #000000; stroke-width: 0.8; stroke-linejoin: miter; stroke-linecap: square"/>
   </g>
   <g id="patch_12">
    <path d="M 54.92 93.921882 
L 412.04 93.921882 
" style="fill: none; stroke: #000000; stroke-width: 0.8; stroke-linejoin: miter; stroke-linecap: square"/>
   </g>
  </g>
  <g id="axes_3">
   <g id="patch_13">
    <path d="M 54.92 266.112 
L 412.04 266.112 
L 412.04 187.843765 
L 54.92 187.843765 
z
" style="fill: #ffffff"/>
   </g>
   <g id="matplotlib.axis_5"/>
   <g id="matplotlib.axis_6">
    <g id="ytick_5">
     <g id="line2d_11">
      <g>
       <use xlink:href="#m64790520ff" x="54.92" y="246.742418" style="stroke: #000000; stroke-width: 0.8"/>
      </g>
     </g>
     <g id="text_9">
      <!-- −100 -->
      <g transform="translate(20.452813 250.541637)scale(0.1 -0.1)">
       <use xlink:href="#DejaVuSans-2212"/>
       <use xlink:href="#DejaVuSans-31" x="83.789062"/>
       <use xlink:href="#DejaVuSans-30" x="147.412109"/>
       <use xlink:href="#DejaVuSans-30" x="211.035156"/>
      </g>
     </g>
    </g>
    <g id="ytick_6">
     <g id="line2d_12">
      <g>
       <use xlink:href="#m64790520ff" x="54.92" y="226.965701" style="stroke: #000000; stroke-width: 0.8"/>
      </g>
     </g>
     <g id="text_10">
      <!-- 0 -->
      <g transform="translate(41.5575 230.76492)scale(0.1 -0.1)">
       <use xlink:href="#DejaVuSans-30"/>
      </g>
     </g>
    </g>
    <g id="ytick_7">
     <g id="line2d_13">
      <g>
       <use xlink:href="#m64790520ff" x="54.92" y="207.188985" style="stroke: #000000; stroke-width: 0.8"/>
      </g>
     </g>
     <g id="text_11">
      <!-- 100 -->
      <g transform="translate(28.8325 210.988203)scale(0.1 -0.1)">
       <use xlink:href="#DejaVuSans-31"/>
       <use xlink:href="#DejaVuSans-30" x="63.623047"/>
       <use xlink:href="#DejaVuSans-30" x="127.246094"/>
      </g>
     </g>
    </g>
    <g id="text_12">
     <!-- roll [°] -->
     <g transform="translate(12.917344 253.788742)rotate(-90)scale(0.17 -0.17)">
      <defs>
       <path id="DejaVuSans-6c" d="M 603 4863 
L 1178 4863 
L 1178 0 
L 603 0 
L 603 4863 
z
" transform="scale(0.015625)"/>
      </defs>
      <use xlink:href="#DejaVuSans-72"/>
      <use xlink:href="#DejaVuSans-6f" x="38.863281"/>
      <use xlink:href="#DejaVuSans-6c" x="100.044922"/>
      <use xlink:href="#DejaVuSans-6c" x="127.828125"/>
      <use xlink:href="#DejaVuSans-20" x="155.611328"/>
      <use xlink:href="#DejaVuSans-5b" x="187.398438"/>
      <use xlink:href="#DejaVuSans-b0" x="226.412109"/>
      <use xlink:href="#DejaVuSans-5d" x="276.412109"/>
     </g>
    </g>
   </g>
   <g id="line2d_14">
    <path d="M 71.152727 236.864821 
L 72.595636 235.579532 
L 75.000485 232.183507 
L 75.481455 231.745437 
L 75.962424 231.465004 
L 77.405333 230.135297 
L 78.367273 228.999422 
L 78.848242 228.616981 
L 79.329212 228.075469 
L 80.291152 226.654656 
L 82.21503 224.881734 
L 82.696 224.671248 
L 84.138909 223.408405 
L 84.619879 223.208916 
L 85.581818 222.286897 
L 86.062788 222.280016 
L 87.505697 222.802737 
L 87.986667 223.195028 
L 89.429576 225.809252 
L 90.391515 227.621865 
L 91.353455 230.56853 
L 91.834424 231.663407 
L 92.796364 234.317797 
L 94.720242 238.008186 
L 95.682182 239.433815 
L 96.644121 240.376569 
L 97.606061 240.283266 
L 99.529939 240.133173 
L 100.010909 240.131664 
L 100.491879 240.017284 
L 102.896727 238.641176 
L 103.858667 237.666756 
L 104.820606 236.384977 
L 105.782545 234.680842 
L 106.744485 234.121699 
L 107.706424 232.737407 
L 108.187394 231.884922 
L 110.592242 228.998678 
L 111.073212 228.433704 
L 111.554182 228.19003 
L 112.035152 228.270789 
L 112.516121 228.136017 
L 113.95903 226.78428 
L 115.401939 225.758604 
L 116.363879 225.209618 
L 116.844848 225.00115 
L 118.287758 224.835573 
L 119.249697 224.466772 
L 120.211636 224.268629 
L 121.173576 223.773349 
L 122.135515 223.182884 
L 124.059394 222.182692 
L 124.540364 221.856787 
L 126.464242 221.432925 
L 127.426182 221.565884 
L 127.907152 221.51874 
L 128.388121 221.276494 
L 129.350061 220.243354 
L 130.312 218.743452 
L 131.273939 217.300616 
L 131.754909 216.557882 
L 132.235879 215.519326 
L 133.678788 213.437577 
L 135.121697 212.737137 
L 135.602667 212.731802 
L 136.083636 212.512346 
L 136.564606 211.987645 
L 137.526545 211.562826 
L 138.488485 210.725211 
L 138.969455 210.627764 
L 139.450424 211.027646 
L 139.931394 211.624497 
L 140.893333 213.206524 
L 141.855273 214.148211 
L 143.298182 216.812788 
L 145.222061 219.496978 
L 146.184 220.4709 
L 148.107879 222.100958 
L 149.069818 223.432292 
L 149.550788 224.941782 
L 150.031758 225.812633 
L 150.993697 226.605889 
L 152.436606 228.58192 
L 154.360485 230.676749 
L 155.322424 231.326241 
L 156.284364 232.310364 
L 157.727273 233.585972 
L 160.132121 235.760366 
L 160.613091 236.26194 
L 161.57503 236.796892 
L 162.53697 237.160274 
L 163.498909 237.309193 
L 164.460848 237.340006 
L 164.941818 237.50092 
L 165.422788 237.491252 
L 166.865697 237.006399 
L 169.270545 235.450841 
L 169.751515 235.296647 
L 171.194424 235.143892 
L 172.156364 234.871023 
L 172.637333 234.827406 
L 174.561212 234.15098 
L 175.042182 234.123011 
L 176.485091 235.004091 
L 176.966061 234.982815 
L 177.928 235.400312 
L 178.889939 235.836499 
L 179.851879 236.192249 
L 181.775758 237.666581 
L 183.218667 239.196439 
L 184.180606 240.388725 
L 185.142545 242.296027 
L 187.066424 246.248455 
L 187.547394 247.044028 
L 189.471273 248.74757 
L 189.952242 248.870755 
L 190.433212 248.805705 
L 191.876121 247.78343 
L 192.838061 247.605643 
L 193.8 247.599547 
L 194.761939 247.817877 
L 195.723879 248.551618 
L 196.204848 249.142616 
L 197.647758 251.598622 
L 198.128727 252.293376 
L 200.533576 254.848683 
L 202.938424 257.704946 
L 203.900364 258.32192 
L 205.343273 258.893527 
L 205.824242 258.966715 
L 207.267152 258.542624 
L 208.229091 258.737848 
L 208.710061 258.883482 
L 209.672 259.781383 
L 211.595879 261.478302 
L 212.076848 261.81756 
L 212.557818 261.941128 
L 213.519758 261.815798 
L 214.962667 262.10299 
L 215.924606 262.494617 
L 216.405576 191.794592 
L 217.848485 193.789841 
L 218.810424 194.969326 
L 219.291394 195.497723 
L 220.253333 196.100297 
L 220.734303 196.301527 
L 221.696242 196.861889 
L 222.658182 197.332094 
L 223.139152 197.386477 
L 224.582061 196.300687 
L 226.02497 195.011246 
L 227.948848 192.4656 
L 228.910788 191.606416 
L 229.391758 262.530702 
L 229.872727 191.401412 
L 230.353697 191.751768 
L 230.834667 192.352643 
L 233.720485 194.840527 
L 235.163394 197.102891 
L 235.644364 197.721157 
L 236.606303 198.474839 
L 239.011152 199.83102 
L 239.492121 199.69329 
L 239.973091 199.400559 
L 241.416 198.889038 
L 242.858909 197.93438 
L 243.820848 197.168845 
L 244.301818 196.862604 
L 245.744727 196.431456 
L 246.225697 196.541791 
L 247.668606 197.467576 
L 248.149576 197.847494 
L 248.630545 198.455641 
L 249.592485 200.072113 
L 250.554424 201.18693 
L 251.516364 201.747241 
L 252.478303 202.443925 
L 253.440242 202.951597 
L 254.402182 203.283019 
L 255.364121 203.292113 
L 256.80703 203.336953 
L 258.249939 202.615142 
L 259.211879 201.80843 
L 260.654788 201.156518 
L 261.135758 201.24331 
L 262.097697 201.134025 
L 262.578667 201.150489 
L 264.021576 201.679793 
L 264.502545 202.004434 
L 266.907394 204.848255 
L 267.869333 206.21783 
L 269.793212 207.955994 
L 272.67903 209.968941 
L 273.64097 210.430922 
L 276.045818 211.082811 
L 277.007758 211.145547 
L 277.969697 211.358055 
L 278.450667 211.628948 
L 279.412606 212.721253 
L 281.336485 215.334152 
L 281.817455 215.89981 
L 283.741333 219.342857 
L 284.222303 219.798578 
L 285.184242 220.966117 
L 286.627152 222.01589 
L 288.55103 223.047332 
L 289.993939 224.673073 
L 292.398788 227.573252 
L 294.322667 228.506718 
L 295.765576 228.591699 
L 296.727515 228.850515 
L 298.651394 228.442285 
L 299.613333 227.916646 
L 300.575273 227.715665 
L 302.018182 227.150762 
L 302.980121 227.029146 
L 304.42303 226.887632 
L 305.38497 226.888658 
L 306.827879 227.002574 
L 308.270788 226.618473 
L 308.751758 226.711705 
L 311.156606 228.449611 
L 312.118545 229.787379 
L 312.599515 230.628527 
L 314.523394 232.944494 
L 315.966303 234.000296 
L 316.447273 234.148592 
L 318.852121 233.67975 
L 319.333091 233.47817 
L 319.814061 233.479656 
L 320.29503 233.799526 
L 321.25697 234.034495 
L 322.699879 234.960342 
L 323.661818 236.013881 
L 324.142788 236.401037 
L 324.623758 236.641306 
L 325.104727 236.630201 
L 326.066667 236.119715 
L 327.028606 235.963709 
L 328.471515 236.459263 
L 328.952485 236.600441 
L 329.433455 236.616007 
L 330.876364 236.290375 
L 331.838303 236.371903 
L 332.800242 235.894737 
L 334.243152 234.543388 
L 335.686061 232.280865 
L 337.12897 230.604864 
L 337.609939 230.170859 
L 338.571879 229.732988 
L 339.533818 228.917198 
L 340.014788 228.772784 
L 343.381576 229.04339 
L 344.343515 229.355906 
L 345.305455 229.24082 
L 345.786424 228.930204 
L 348.672242 225.652049 
L 349.153212 225.140483 
L 350.115152 224.639399 
L 351.558061 224.555733 
L 352.03903 224.86698 
L 353.962909 226.613017 
L 354.443879 226.891099 
L 354.924848 226.977698 
L 355.886788 226.81561 
L 356.848727 227.019819 
L 358.772606 226.378185 
L 360.215515 225.631435 
L 362.139394 223.455386 
L 362.620364 223.301019 
L 364.063273 223.604592 
L 365.506182 224.189618 
L 365.987152 224.426002 
L 366.468121 224.410812 
L 366.949091 224.190367 
L 367.430061 223.59049 
L 368.392 221.848601 
L 368.87297 221.236699 
L 369.353939 221.183997 
L 370.315879 221.387264 
L 371.277818 221.362278 
L 371.758788 221.230789 
L 372.720727 220.184618 
L 373.682667 218.836997 
L 376.087515 217.053798 
L 377.049455 216.491987 
L 378.011394 216.309532 
L 378.973333 216.73529 
L 379.935273 217.693574 
L 381.378182 219.860766 
L 382.340121 221.019792 
L 383.78303 221.883619 
L 384.264 222.133695 
L 385.706909 223.357011 
L 386.668848 223.387847 
L 387.149818 223.555192 
L 388.111758 224.146248 
L 389.073697 224.387842 
L 390.516606 224.505395 
L 391.478545 224.851392 
L 392.440485 224.960943 
L 394.845333 225.192586 
L 395.807273 225.278718 
L 395.807273 225.278718 
" clip-path="url(#pb76087fd0e)" style="fill: none; stroke: #008000; stroke-width: 1.5; stroke-linecap: square"/>
   </g>
   <g id="line2d_15">
    <path d="M 71.152727 236.864814 
L 71.633697 236.497179 
L 72.114667 235.977006 
L 72.595636 235.656476 
L 73.076606 235.070094 
L 74.038545 233.35754 
L 75.481455 231.557722 
L 76.443394 230.934101 
L 76.924364 230.487007 
L 78.367273 228.721195 
L 79.329212 227.830558 
L 81.253091 225.153435 
L 81.734061 224.657861 
L 82.21503 224.345909 
L 82.696 224.191771 
L 84.138909 222.911254 
L 84.619879 222.660471 
L 85.100848 222.255188 
L 85.581818 221.69822 
L 86.062788 221.622385 
L 87.024727 221.955738 
L 87.505697 222.16377 
L 87.986667 222.500036 
L 88.948606 224.124741 
L 90.872485 228.393933 
L 92.796364 233.798158 
L 94.239273 236.911309 
L 95.201212 238.573387 
L 96.163152 239.727013 
L 96.644121 240.234351 
L 97.125091 240.37957 
L 99.04897 239.981527 
L 100.010909 240.113593 
L 100.491879 240.057647 
L 102.415758 239.082842 
L 103.377697 238.206714 
L 103.858667 237.774089 
L 104.820606 236.434977 
L 105.782545 234.708689 
L 106.263515 234.254426 
L 106.744485 234.101327 
L 107.225455 233.662103 
L 108.187394 231.980424 
L 109.149333 230.878718 
L 110.111273 229.820688 
L 111.073212 228.38105 
L 111.554182 228.036564 
L 112.516121 228.102093 
L 114.92097 226.016058 
L 116.363879 225.017354 
L 116.844848 224.797928 
L 117.325818 224.751865 
L 118.287758 225.169313 
L 119.249697 224.899031 
L 119.730667 224.945873 
L 121.173576 224.302123 
L 122.616485 223.429058 
L 123.578424 223.130304 
L 124.540364 222.382496 
L 126.464242 221.960909 
L 127.907152 222.097988 
L 128.388121 221.915627 
L 129.83103 220.249034 
L 131.273939 217.930693 
L 131.754909 217.303684 
L 132.716848 215.502853 
L 133.678788 214.08488 
L 134.159758 213.670824 
L 135.602667 213.112746 
L 136.083636 213.063217 
L 137.045576 212.232398 
L 137.526545 212.060141 
L 138.969455 210.922255 
L 139.450424 211.247834 
L 140.412364 212.788503 
L 141.374303 214.143579 
L 141.855273 214.607191 
L 142.336242 215.406023 
L 143.298182 217.301352 
L 145.70303 220.683206 
L 147.145939 221.931 
L 147.626909 222.321591 
L 148.588848 223.46245 
L 149.069818 224.208279 
L 149.550788 225.188764 
L 150.031758 226.688377 
L 150.993697 227.581302 
L 151.474667 228.20987 
L 151.955636 229.178639 
L 152.917576 230.151142 
L 153.879515 231.084937 
L 154.360485 231.680728 
L 155.803394 232.804972 
L 157.246303 234.157388 
L 158.208242 235.03477 
L 158.689212 235.357476 
L 159.651152 236.45222 
L 161.094061 237.754014 
L 162.53697 238.391246 
L 163.498909 238.543611 
L 164.460848 238.502114 
L 164.941818 238.664848 
L 165.422788 238.690965 
L 166.865697 238.231543 
L 168.308606 237.363185 
L 168.789576 236.94793 
L 169.751515 236.593494 
L 171.194424 236.478686 
L 172.156364 236.176446 
L 173.118303 235.991172 
L 174.561212 235.392037 
L 175.042182 235.282226 
L 176.485091 236.233311 
L 177.44703 236.373986 
L 179.370909 237.320714 
L 179.851879 237.506921 
L 181.294788 238.479988 
L 182.737697 239.959874 
L 184.180606 241.829805 
L 185.142545 243.758071 
L 186.104485 246.149544 
L 187.547394 248.540613 
L 188.028364 248.91881 
L 188.990303 250.027773 
L 189.471273 250.381348 
L 189.952242 250.525416 
L 190.433212 250.466883 
L 191.876121 249.454736 
L 192.838061 249.292574 
L 194.28097 249.348615 
L 194.761939 249.48734 
L 196.204848 250.82815 
L 197.166788 252.552614 
L 198.609697 254.143697 
L 201.495515 257.646672 
L 202.938424 259.337675 
L 203.900364 259.856087 
L 205.343273 260.399878 
L 205.824242 260.447746 
L 207.267152 259.960413 
L 208.710061 260.250655 
L 209.672 261.086871 
L 211.114909 262.554353 
L 211.595879 191.644949 
L 212.076848 192.035015 
L 212.557818 192.24785 
L 214.000727 192.205487 
L 215.443636 192.66099 
L 215.924606 192.884734 
L 216.405576 193.286959 
L 217.367515 194.600171 
L 218.329455 195.922507 
L 219.291394 197.001437 
L 221.215273 198.164234 
L 223.139152 198.893104 
L 223.620121 198.586509 
L 224.582061 197.704292 
L 225.544 196.926323 
L 226.505939 195.819958 
L 227.948848 193.825934 
L 228.910788 192.895878 
L 229.391758 192.574929 
L 229.872727 192.581146 
L 230.353697 192.862351 
L 231.315636 193.913654 
L 233.720485 196.027029 
L 235.644364 198.991973 
L 236.606303 199.891559 
L 237.568242 200.550278 
L 238.530182 201.305725 
L 239.011152 201.478295 
L 239.492121 201.396251 
L 240.454061 200.960431 
L 240.93503 200.922365 
L 242.858909 199.831533 
L 243.820848 199.060433 
L 244.782788 198.606912 
L 246.225697 198.344724 
L 247.668606 199.196547 
L 248.149576 199.552653 
L 248.630545 200.084573 
L 249.111515 200.821979 
L 249.592485 201.764272 
L 250.073455 202.429704 
L 251.035394 203.184485 
L 253.440242 204.817585 
L 254.402182 205.191994 
L 254.883152 205.288148 
L 255.845091 205.256843 
L 256.326061 205.41685 
L 256.80703 205.387443 
L 257.76897 204.951481 
L 258.249939 204.713277 
L 259.211879 203.897119 
L 260.654788 203.18368 
L 261.135758 203.258339 
L 262.097697 203.167648 
L 262.578667 203.176839 
L 264.021576 203.643161 
L 264.502545 203.993132 
L 265.464485 205.168638 
L 268.831273 209.515683 
L 269.793212 210.362819 
L 272.198061 212.082972 
L 272.67903 210.940654 
L 273.16 211.232043 
L 273.64097 211.12865 
L 274.121939 211.196802 
L 274.602909 211.063795 
L 275.083879 211.143827 
L 275.564848 211.366806 
L 277.488727 211.814875 
L 278.450667 212.345523 
L 279.893576 214.180719 
L 281.336485 216.029407 
L 281.817455 216.596894 
L 282.298424 217.360208 
L 283.260364 219.277686 
L 283.741333 220.012696 
L 285.665212 221.813203 
L 287.108121 222.433184 
L 288.070061 222.67984 
L 289.032 223.470862 
L 289.993939 224.837551 
L 290.474909 225.643645 
L 290.955879 226.083568 
L 292.398788 227.904138 
L 293.360727 228.40408 
L 294.803636 228.95834 
L 295.765576 228.914259 
L 297.208485 229.235444 
L 297.689455 229.077388 
L 298.170424 229.079276 
L 299.132364 228.593698 
L 299.613333 228.230596 
L 301.537212 227.664436 
L 302.018182 227.346508 
L 302.980121 227.249365 
L 303.942061 227.202718 
L 307.308848 227.082247 
L 308.270788 226.78147 
L 308.751758 226.721587 
L 309.232727 227.123076 
L 309.713697 227.669863 
L 311.156606 228.777753 
L 311.637576 229.394224 
L 313.080485 231.976274 
L 313.561455 232.495166 
L 314.523394 234.009246 
L 315.966303 235.336267 
L 316.447273 235.602738 
L 317.890182 235.456841 
L 318.371152 235.442259 
L 319.333091 234.832074 
L 319.814061 234.811415 
L 320.29503 235.152746 
L 321.25697 235.393186 
L 322.699879 236.354248 
L 324.142788 238.0966 
L 324.623758 238.407298 
L 325.104727 238.5146 
L 326.066667 238.002133 
L 327.028606 237.712798 
L 327.509576 237.827439 
L 328.471515 238.304746 
L 329.433455 238.577751 
L 331.357333 238.120208 
L 331.838303 238.274009 
L 332.319273 238.14572 
L 332.800242 237.893721 
L 334.243152 236.405552 
L 336.16703 232.954693 
L 337.609939 231.113245 
L 339.052848 230.08516 
L 339.533818 229.60658 
L 340.014788 229.33635 
L 343.381576 229.608691 
L 344.343515 230.143935 
L 345.305455 230.05617 
L 345.786424 229.801822 
L 346.267394 229.298539 
L 348.191273 226.552755 
L 350.115152 224.874186 
L 351.077091 224.673095 
L 351.558061 224.536745 
L 352.03903 224.717646 
L 353.00097 225.865873 
L 353.962909 226.856523 
L 354.443879 227.147783 
L 354.924848 227.251128 
L 355.886788 227.067067 
L 356.848727 227.352795 
L 357.329697 227.294662 
L 358.291636 226.967878 
L 359.253576 226.618703 
L 360.215515 226.04103 
L 360.696485 225.531453 
L 362.139394 223.437478 
L 362.620364 223.145966 
L 363.101333 223.217539 
L 363.582303 223.450156 
L 364.063273 223.483783 
L 366.468121 224.505571 
L 366.949091 224.318265 
L 367.430061 223.847648 
L 367.91103 223.095258 
L 368.87297 221.318297 
L 369.353939 221.101165 
L 370.315879 221.3472 
L 371.758788 221.438175 
L 372.239758 221.195003 
L 372.720727 220.744323 
L 373.682667 219.619164 
L 374.644606 218.867032 
L 376.568485 217.457256 
L 377.049455 217.29621 
L 378.011394 217.257583 
L 378.973333 217.827745 
L 379.454303 218.269783 
L 380.897212 220.022793 
L 382.340121 221.135271 
L 383.302061 221.699871 
L 384.264 221.996872 
L 384.74497 222.404754 
L 385.225939 222.997106 
L 385.706909 223.280727 
L 387.149818 223.391178 
L 387.630788 223.762972 
L 389.073697 224.191161 
L 389.554667 224.230392 
L 390.035636 224.127533 
L 390.516606 224.19893 
L 391.478545 224.655604 
L 392.440485 224.775972 
L 395.807273 225.239928 
L 395.807273 225.239928 
" clip-path="url(#pb76087fd0e)" style="fill: none; stroke: #ff0000; stroke-width: 1.5; stroke-linecap: square"/>
   </g>
   <g id="patch_14">
    <path d="M 54.92 266.112 
L 54.92 187.843765 
" style="fill: none; stroke: #000000; stroke-width: 0.8; stroke-linejoin: miter; stroke-linecap: square"/>
   </g>
   <g id="patch_15">
    <path d="M 412.04 266.112 
L 412.04 187.843765 
" style="fill: none; stroke: #000000; stroke-width: 0.8; stroke-linejoin: miter; stroke-linecap: square"/>
   </g>
   <g id="patch_16">
    <path d="M 54.92 266.112 
L 412.04 266.112 
" style="fill: none; stroke: #000000; stroke-width: 0.8; stroke-linejoin: miter; stroke-linecap: square"/>
   </g>
   <g id="patch_17">
    <path d="M 54.92 187.843765 
L 412.04 187.843765 
" style="fill: none; stroke: #000000; stroke-width: 0.8; stroke-linejoin: miter; stroke-linecap: square"/>
   </g>
  </g>
 </g>
 <defs>
  <clipPath id="pdeb56a71b6">
   <rect x="54.92" y="0" width="357.12" height="78.268235"/>
  </clipPath>
  <clipPath id="p709ff87a89">
   <rect x="54.92" y="93.921882" width="357.12" height="78.268235"/>
  </clipPath>
  <clipPath id="pb76087fd0e">
   <rect x="54.92" y="187.843765" width="357.12" height="78.268235"/>
  </clipPath>
 </defs>
</svg>
