<?xml version="1.0" encoding="utf-8" standalone="no"?>
<!DOCTYPE svg PUBLIC "-//W3C//DTD SVG 1.1//EN"
  "http://www.w3.org/Graphics/SVG/1.1/DTD/svg11.dtd">
<svg xmlns:xlink="http://www.w3.org/1999/xlink" width="412.04pt" height="269.612pt" viewBox="0 0 412.04 269.612" xmlns="http://www.w3.org/2000/svg" version="1.1">
 <metadata>
  <rdf:RDF xmlns:dc="http://purl.org/dc/elements/1.1/" xmlns:cc="http://creativecommons.org/ns#" xmlns:rdf="http://www.w3.org/1999/02/22-rdf-syntax-ns#">
   <cc:Work>
    <dc:type rdf:resource="http://purl.org/dc/dcmitype/StillImage"/>
    <dc:date>2022-02-10T00:12:23.059418</dc:date>
    <dc:format>image/svg+xml</dc:format>
    <dc:creator>
     <cc:Agent>
      <dc:title>Matplotlib v3.5.1, https://matplotlib.org/</dc:title>
     </cc:Agent>
    </dc:creator>
   </cc:Work>
  </rdf:RDF>
 </metadata>
 <defs>
  <style type="text/css">*{stroke-linejoin: round; stroke-linecap: butt}</style>
 </defs>
 <g id="figure_1">
  <g id="patch_1">
   <path d="M 0 269.612 
L 412.04 269.612 
L 412.04 0 
L 0 0 
z
" style="fill: #ffffff"/>
  </g>
  <g id="axes_1">
   <g id="patch_2">
    <path d="M 54.92 78.268235 
L 412.04 78.268235 
L 412.04 0 
L 54.92 0 
z
" style="fill: #ffffff"/>
   </g>
   <g id="matplotlib.axis_1"/>
   <g id="matplotlib.axis_2">
    <g id="ytick_1">
     <g id="line2d_1">
      <defs>
       <path id="m72608c6a6f" d="M 0 0 
L -3.5 0 
" style="stroke: #000000; stroke-width: 0.8"/>
      </defs>
      <g>
       <use xlink:href="#m72608c6a6f" x="54.92" y="72.069169" style="stroke: #000000; stroke-width: 0.8"/>
      </g>
     </g>
     <g id="text_1">
      <!-- −130 -->
      <g transform="translate(20.452813 75.868388)scale(0.1 -0.1)">
       <defs>
        <path id="DejaVuSans-2212" d="M 678 2272 
L 4684 2272 
L 4684 1741 
L 678 1741 
L 678 2272 
z
" transform="scale(0.015625)"/>
        <path id="DejaVuSans-31" d="M 794 531 
L 1825 531 
L 1825 4091 
L 703 3866 
L 703 4441 
L 1819 4666 
L 2450 4666 
L 2450 531 
L 3481 531 
L 3481 0 
L 794 0 
L 794 531 
z
" transform="scale(0.015625)"/>
        <path id="DejaVuSans-33" d="M 2597 2516 
Q 3050 2419 3304 2112 
Q 3559 1806 3559 1356 
Q 3559 666 3084 287 
Q 2609 -91 1734 -91 
Q 1441 -91 1130 -33 
Q 819 25 488 141 
L 488 750 
Q 750 597 1062 519 
Q 1375 441 1716 441 
Q 2309 441 2620 675 
Q 2931 909 2931 1356 
Q 2931 1769 2642 2001 
Q 2353 2234 1838 2234 
L 1294 2234 
L 1294 2753 
L 1863 2753 
Q 2328 2753 2575 2939 
Q 2822 3125 2822 3475 
Q 2822 3834 2567 4026 
Q 2313 4219 1838 4219 
Q 1578 4219 1281 4162 
Q 984 4106 628 3988 
L 628 4550 
Q 988 4650 1302 4700 
Q 1616 4750 1894 4750 
Q 2613 4750 3031 4423 
Q 3450 4097 3450 3541 
Q 3450 3153 3228 2886 
Q 3006 2619 2597 2516 
z
" transform="scale(0.015625)"/>
        <path id="DejaVuSans-30" d="M 2034 4250 
Q 1547 4250 1301 3770 
Q 1056 3291 1056 2328 
Q 1056 1369 1301 889 
Q 1547 409 2034 409 
Q 2525 409 2770 889 
Q 3016 1369 3016 2328 
Q 3016 3291 2770 3770 
Q 2525 4250 2034 4250 
z
M 2034 4750 
Q 2819 4750 3233 4129 
Q 3647 3509 3647 2328 
Q 3647 1150 3233 529 
Q 2819 -91 2034 -91 
Q 1250 -91 836 529 
Q 422 1150 422 2328 
Q 422 3509 836 4129 
Q 1250 4750 2034 4750 
z
" transform="scale(0.015625)"/>
       </defs>
       <use xlink:href="#DejaVuSans-2212"/>
       <use xlink:href="#DejaVuSans-31" x="83.789062"/>
       <use xlink:href="#DejaVuSans-33" x="147.412109"/>
       <use xlink:href="#DejaVuSans-30" x="211.035156"/>
      </g>
     </g>
    </g>
    <g id="ytick_2">
     <g id="line2d_2">
      <g>
       <use xlink:href="#m72608c6a6f" x="54.92" y="42.878738" style="stroke: #000000; stroke-width: 0.8"/>
      </g>
     </g>
     <g id="text_2">
      <!-- −120 -->
      <g transform="translate(20.452813 46.677957)scale(0.1 -0.1)">
       <defs>
        <path id="DejaVuSans-32" d="M 1228 531 
L 3431 531 
L 3431 0 
L 469 0 
L 469 531 
Q 828 903 1448 1529 
Q 2069 2156 2228 2338 
Q 2531 2678 2651 2914 
Q 2772 3150 2772 3378 
Q 2772 3750 2511 3984 
Q 2250 4219 1831 4219 
Q 1534 4219 1204 4116 
Q 875 4013 500 3803 
L 500 4441 
Q 881 4594 1212 4672 
Q 1544 4750 1819 4750 
Q 2544 4750 2975 4387 
Q 3406 4025 3406 3419 
Q 3406 3131 3298 2873 
Q 3191 2616 2906 2266 
Q 2828 2175 2409 1742 
Q 1991 1309 1228 531 
z
" transform="scale(0.015625)"/>
       </defs>
       <use xlink:href="#DejaVuSans-2212"/>
       <use xlink:href="#DejaVuSans-31" x="83.789062"/>
       <use xlink:href="#DejaVuSans-32" x="147.412109"/>
       <use xlink:href="#DejaVuSans-30" x="211.035156"/>
      </g>
     </g>
    </g>
    <g id="ytick_3">
     <g id="line2d_3">
      <g>
       <use xlink:href="#m72608c6a6f" x="54.92" y="13.688307" style="stroke: #000000; stroke-width: 0.8"/>
      </g>
     </g>
     <g id="text_3">
      <!-- −110 -->
      <g transform="translate(20.452813 17.487525)scale(0.1 -0.1)">
       <use xlink:href="#DejaVuSans-2212"/>
       <use xlink:href="#DejaVuSans-31" x="83.789062"/>
       <use xlink:href="#DejaVuSans-31" x="147.412109"/>
       <use xlink:href="#DejaVuSans-30" x="211.035156"/>
      </g>
     </g>
    </g>
    <g id="text_4">
     <!-- yaw [°] -->
     <g transform="translate(12.917344 69.90943)rotate(-90)scale(0.17 -0.17)">
      <defs>
       <path id="DejaVuSans-79" d="M 2059 -325 
Q 1816 -950 1584 -1140 
Q 1353 -1331 966 -1331 
L 506 -1331 
L 506 -850 
L 844 -850 
Q 1081 -850 1212 -737 
Q 1344 -625 1503 -206 
L 1606 56 
L 191 3500 
L 800 3500 
L 1894 763 
L 2988 3500 
L 3597 3500 
L 2059 -325 
z
" transform="scale(0.015625)"/>
       <path id="DejaVuSans-61" d="M 2194 1759 
Q 1497 1759 1228 1600 
Q 959 1441 959 1056 
Q 959 750 1161 570 
Q 1363 391 1709 391 
Q 2188 391 2477 730 
Q 2766 1069 2766 1631 
L 2766 1759 
L 2194 1759 
z
M 3341 1997 
L 3341 0 
L 2766 0 
L 2766 531 
Q 2569 213 2275 61 
Q 1981 -91 1556 -91 
Q 1019 -91 701 211 
Q 384 513 384 1019 
Q 384 1609 779 1909 
Q 1175 2209 1959 2209 
L 2766 2209 
L 2766 2266 
Q 2766 2663 2505 2880 
Q 2244 3097 1772 3097 
Q 1472 3097 1187 3025 
Q 903 2953 641 2809 
L 641 3341 
Q 956 3463 1253 3523 
Q 1550 3584 1831 3584 
Q 2591 3584 2966 3190 
Q 3341 2797 3341 1997 
z
" transform="scale(0.015625)"/>
       <path id="DejaVuSans-77" d="M 269 3500 
L 844 3500 
L 1563 769 
L 2278 3500 
L 2956 3500 
L 3675 769 
L 4391 3500 
L 4966 3500 
L 4050 0 
L 3372 0 
L 2619 2869 
L 1863 0 
L 1184 0 
L 269 3500 
z
" transform="scale(0.015625)"/>
       <path id="DejaVuSans-20" transform="scale(0.015625)"/>
       <path id="DejaVuSans-5b" d="M 550 4863 
L 1875 4863 
L 1875 4416 
L 1125 4416 
L 1125 -397 
L 1875 -397 
L 1875 -844 
L 550 -844 
L 550 4863 
z
" transform="scale(0.015625)"/>
       <path id="DejaVuSans-b0" d="M 1600 4347 
Q 1350 4347 1178 4173 
Q 1006 4000 1006 3750 
Q 1006 3503 1178 3333 
Q 1350 3163 1600 3163 
Q 1850 3163 2022 3333 
Q 2194 3503 2194 3750 
Q 2194 3997 2020 4172 
Q 1847 4347 1600 4347 
z
M 1600 4750 
Q 1800 4750 1984 4673 
Q 2169 4597 2303 4453 
Q 2447 4313 2519 4134 
Q 2591 3956 2591 3750 
Q 2591 3338 2302 3052 
Q 2013 2766 1594 2766 
Q 1172 2766 890 3047 
Q 609 3328 609 3750 
Q 609 4169 896 4459 
Q 1184 4750 1600 4750 
z
" transform="scale(0.015625)"/>
       <path id="DejaVuSans-5d" d="M 1947 4863 
L 1947 -844 
L 622 -844 
L 622 -397 
L 1369 -397 
L 1369 4416 
L 622 4416 
L 622 4863 
L 1947 4863 
z
" transform="scale(0.015625)"/>
      </defs>
      <use xlink:href="#DejaVuSans-79"/>
      <use xlink:href="#DejaVuSans-61" x="59.179688"/>
      <use xlink:href="#DejaVuSans-77" x="120.458984"/>
      <use xlink:href="#DejaVuSans-20" x="202.246094"/>
      <use xlink:href="#DejaVuSans-5b" x="234.033203"/>
      <use xlink:href="#DejaVuSans-b0" x="273.046875"/>
      <use xlink:href="#DejaVuSans-5d" x="323.046875"/>
     </g>
    </g>
   </g>
   <g id="line2d_4">
    <path d="M 71.152727 43.966164 
L 72.052047 45.422983 
L 72.951367 39.388593 
L 73.850687 40.925206 
L 74.750008 39.868594 
L 76.548648 46.306352 
L 77.447968 47.621741 
L 78.347288 48.692818 
L 79.246608 49.050929 
L 80.145928 49.534387 
L 81.045248 50.604037 
L 81.944568 52.968646 
L 82.843888 53.52633 
L 83.743208 53.519692 
L 84.642528 57.304097 
L 85.541848 58.821779 
L 87.340489 53.966998 
L 88.239809 52.737575 
L 89.139129 52.142405 
L 90.038449 52.100725 
L 90.937769 51.03326 
L 91.837089 50.797453 
L 92.736409 51.203741 
L 93.635729 49.86566 
L 94.535049 47.965368 
L 95.434369 48.141055 
L 96.333689 48.042977 
L 97.233009 49.85732 
L 98.132329 49.211431 
L 99.031649 50.38113 
L 99.93097 50.259676 
L 100.83029 51.298698 
L 101.72961 51.487861 
L 103.52825 48.253831 
L 104.42757 45.552991 
L 105.32689 46.378822 
L 106.22621 48.314308 
L 107.12553 48.310479 
L 108.02485 48.483897 
L 108.92417 49.474137 
L 109.82349 48.404066 
L 110.72281 48.59791 
L 112.521451 50.849283 
L 115.219411 56.606414 
L 116.118731 59.834945 
L 117.018051 62.572368 
L 117.917371 62.332162 
L 119.716011 54.025939 
L 120.615331 52.069495 
L 121.514651 49.249083 
L 122.413971 47.423994 
L 123.313291 50.416022 
L 124.212611 50.488117 
L 125.111932 48.958186 
L 126.011252 51.173203 
L 126.910572 52.446108 
L 127.809892 53.049501 
L 129.608532 55.739881 
L 130.507852 55.909412 
L 131.407172 55.200942 
L 132.306492 56.722701 
L 133.205812 57.363624 
L 134.105132 57.281975 
L 135.004452 58.358972 
L 135.903772 57.897622 
L 136.803092 58.887118 
L 137.702412 59.220123 
L 138.601733 58.453129 
L 139.501053 58.068708 
L 140.400373 59.444777 
L 141.299693 59.553954 
L 142.199013 59.901588 
L 143.098333 60.396304 
L 143.997653 60.161558 
L 144.896973 60.21439 
L 145.796293 60.634835 
L 146.695613 58.091171 
L 147.594933 58.415245 
L 148.494253 56.318623 
L 149.393573 54.955666 
L 150.292893 54.309408 
L 151.192214 54.902177 
L 152.091534 56.571402 
L 152.990854 54.190493 
L 153.890174 53.433884 
L 154.789494 53.49465 
L 155.688814 54.095753 
L 156.588134 52.681945 
L 157.487454 49.094329 
L 158.386774 51.666922 
L 159.286094 52.954465 
L 160.185414 52.105987 
L 161.084734 47.059805 
L 161.984054 42.670277 
L 162.883374 42.540163 
L 163.782695 41.328126 
L 165.581335 37.906795 
L 166.480655 40.071792 
L 167.379975 40.838228 
L 168.279295 38.541495 
L 169.178615 37.195623 
L 170.077935 36.806735 
L 170.977255 35.327275 
L 171.876575 33.182821 
L 172.775895 33.424778 
L 173.675215 32.60335 
L 174.574535 31.180897 
L 175.473855 29.418662 
L 176.373176 28.089788 
L 177.272496 27.452943 
L 178.171816 28.934419 
L 179.071136 30.713949 
L 179.970456 29.237519 
L 180.869776 29.940086 
L 181.769096 26.679058 
L 183.567736 25.313921 
L 184.467056 23.793214 
L 185.366376 21.176555 
L 186.265696 22.341034 
L 187.165016 24.631749 
L 188.963657 24.677922 
L 189.862977 24.095162 
L 190.762297 27.632666 
L 191.661617 28.186344 
L 192.560937 28.122785 
L 193.460257 31.009489 
L 194.359577 32.70759 
L 195.258897 32.59471 
L 196.158217 32.965198 
L 197.057537 35.599905 
L 197.956857 36.773107 
L 198.856177 37.735404 
L 199.755497 37.665932 
L 200.654817 41.091453 
L 201.554137 43.511472 
L 202.453458 46.463561 
L 203.352778 46.060712 
L 204.252098 49.925546 
L 205.151418 50.086696 
L 206.050738 48.19046 
L 206.950058 48.61224 
L 207.849378 47.794504 
L 208.748698 48.654208 
L 209.648018 51.622355 
L 210.547338 55.422402 
L 211.446658 55.795351 
L 212.345978 57.007653 
L 213.245298 57.290345 
L 214.144618 59.295902 
L 215.043939 59.075769 
L 215.943259 53.97815 
L 216.842579 53.390534 
L 217.741899 53.926652 
L 218.641219 48.324026 
L 219.540539 45.635455 
L 220.439859 44.099934 
L 222.238499 47.173811 
L 223.137819 48.272334 
L 224.037139 47.217294 
L 225.835779 49.262486 
L 226.735099 48.768739 
L 227.63442 45.656578 
L 228.53374 44.486179 
L 230.33238 38.978759 
L 231.2317 37.387797 
L 232.13102 35.318233 
L 233.03034 36.912679 
L 233.92966 34.470177 
L 234.82898 35.43707 
L 235.7283 34.6181 
L 236.62762 33.31582 
L 237.52694 34.458145 
L 238.42626 33.242338 
L 239.32558 31.057347 
L 240.224901 31.027046 
L 241.124221 29.757725 
L 242.023541 29.081731 
L 242.922861 29.149961 
L 243.822181 28.262323 
L 244.721501 28.589873 
L 245.620821 28.301855 
L 246.520141 28.778839 
L 247.419461 29.814 
L 248.318781 32.144522 
L 250.117421 35.811582 
L 251.016741 36.640091 
L 251.916061 37.766897 
L 252.815382 40.551921 
L 253.714702 40.357697 
L 254.614022 39.750962 
L 255.513342 42.506846 
L 256.412662 44.093762 
L 257.311982 44.252758 
L 258.211302 45.448668 
L 259.110622 47.129353 
L 260.009942 46.267331 
L 260.909262 47.162222 
L 262.707902 50.505637 
L 263.607222 49.933342 
L 264.506542 52.48552 
L 265.405863 53.794734 
L 266.305183 55.706739 
L 267.204503 57.021174 
L 268.103823 57.562148 
L 269.003143 58.896805 
L 270.801783 62.04167 
L 271.701103 62.889362 
L 272.600423 65.555978 
L 273.499743 68.796287 
L 274.399063 68.214475 
L 275.298383 68.098754 
L 277.996343 61.239221 
L 278.895664 61.167606 
L 279.794984 60.787 
L 281.593624 58.045075 
L 282.492944 58.502654 
L 283.392264 57.085038 
L 284.291584 57.264636 
L 285.190904 55.856004 
L 286.090224 56.384008 
L 286.989544 55.2086 
L 287.888864 54.735084 
L 288.788184 55.848797 
L 289.687504 52.223873 
L 290.586824 52.521126 
L 291.486145 52.991537 
L 292.385465 55.038039 
L 293.284785 53.934872 
L 294.184105 48.672552 
L 295.083425 49.449075 
L 295.982745 45.327748 
L 296.882065 44.362776 
L 297.781385 41.656758 
L 298.680705 43.549776 
L 299.580025 43.066246 
L 300.479345 40.841324 
L 301.378665 40.507493 
L 302.277985 39.68799 
L 304.076626 41.193863 
L 304.975946 38.335255 
L 305.875266 39.084755 
L 307.673906 37.341437 
L 308.573226 30.486051 
L 309.472546 32.731146 
L 310.371866 32.793555 
L 311.271186 34.239595 
L 312.170506 32.974994 
L 313.069826 25.140063 
L 313.969146 25.854369 
L 314.868466 26.118203 
L 315.767786 28.168349 
L 316.667107 24.782335 
L 317.566427 23.961254 
L 318.465747 17.308849 
L 319.365067 17.282506 
L 320.264387 17.018291 
L 321.163707 18.673192 
L 322.063027 15.315955 
L 322.962347 14.226301 
L 323.861667 13.410705 
L 324.760987 10.537213 
L 325.660307 10.921618 
L 326.559627 8.893933 
L 327.458947 4.357653 
L 328.358267 3.557647 
L 329.257588 8.211662 
L 330.156908 12.213744 
L 331.056228 12.648148 
L 332.854868 16.4034 
L 333.754188 17.811665 
L 334.653508 19.599746 
L 336.452148 28.084269 
L 337.351468 31.387576 
L 338.250788 32.322352 
L 339.150108 34.908764 
L 340.049428 33.568257 
L 342.747389 38.731785 
L 343.646709 37.219787 
L 344.546029 39.407415 
L 345.445349 43.091301 
L 346.344669 43.363758 
L 347.243989 40.492551 
L 348.143309 38.571402 
L 349.042629 37.851978 
L 349.941949 42.232904 
L 350.841269 43.567076 
L 351.740589 45.56544 
L 352.639909 46.814252 
L 353.539229 46.840767 
L 354.438549 49.623028 
L 355.33787 49.93732 
L 356.23719 51.015483 
L 357.13651 45.872843 
L 358.03583 38.725226 
L 358.93515 39.636464 
L 359.83447 41.075248 
L 360.73379 44.438838 
L 361.63311 46.908626 
L 362.53243 53.650805 
L 363.43175 58.993432 
L 364.33107 62.170856 
L 365.23039 66.996579 
L 366.12971 69.06132 
L 367.02903 69.269733 
L 367.928351 70.250289 
L 368.827671 70.245494 
L 369.726991 71.07302 
L 370.626311 71.199579 
L 371.525631 69.505021 
L 372.424951 69.829682 
L 373.324271 70.441127 
L 374.223591 71.213118 
L 375.122911 72.378804 
L 376.022231 70.766719 
L 376.921551 70.57551 
L 377.820871 69.567624 
L 378.720191 70.746943 
L 379.619511 68.640808 
L 380.518832 68.791184 
L 381.418152 69.335259 
L 382.317472 68.555577 
L 383.216792 68.700962 
L 384.116112 67.588339 
L 385.015432 67.645732 
L 385.914752 68.704339 
L 386.814072 67.856899 
L 387.713392 68.48646 
L 388.612712 70.878103 
L 389.512032 70.664086 
L 390.411352 69.178564 
L 391.310672 69.527704 
L 392.209992 68.700875 
L 393.109313 67.648666 
L 394.008633 67.67112 
L 394.907953 68.009666 
L 395.807273 67.732556 
L 395.807273 67.732556 
" clip-path="url(#p3e33e22126)" style="fill: none; stroke: #008000; stroke-width: 1.5; stroke-linecap: square"/>
   </g>
   <g id="line2d_5">
    <path d="M 71.152727 43.966303 
L 72.052047 46.583948 
L 72.951367 40.049022 
L 73.850687 41.379666 
L 74.750008 40.258297 
L 75.649328 42.802917 
L 76.548648 45.930364 
L 77.447968 48.247424 
L 78.347288 48.397671 
L 79.246608 50.352909 
L 80.145928 49.951761 
L 81.045248 50.965377 
L 81.944568 53.742742 
L 82.843888 54.303672 
L 83.743208 54.491204 
L 84.642528 58.332995 
L 85.541848 60.24827 
L 87.340489 55.178737 
L 88.239809 53.549582 
L 89.139129 52.915338 
L 90.038449 52.871677 
L 90.937769 53.275087 
L 92.736409 52.381176 
L 93.635729 52.216015 
L 94.535049 50.006813 
L 95.434369 49.124897 
L 97.233009 51.210196 
L 98.132329 51.011316 
L 99.031649 51.484197 
L 99.93097 52.240631 
L 100.83029 52.48444 
L 101.72961 52.124945 
L 103.52825 49.986433 
L 104.42757 47.642552 
L 105.32689 48.78382 
L 106.22621 48.73978 
L 107.12553 49.502961 
L 108.02485 49.309263 
L 108.92417 50.801591 
L 109.82349 49.533555 
L 110.72281 50.154552 
L 111.62213 51.340487 
L 112.521451 51.826783 
L 114.320091 57.10184 
L 115.219411 59.032754 
L 117.018051 64.707725 
L 117.917371 64.921418 
L 118.816691 63.124663 
L 119.716011 56.946985 
L 120.615331 54.796671 
L 121.514651 50.963466 
L 122.413971 49.548526 
L 123.313291 52.222501 
L 124.212611 52.704108 
L 125.111932 51.00859 
L 126.011252 53.162889 
L 126.910572 53.906749 
L 128.709212 56.900398 
L 129.608532 58.736311 
L 130.507852 57.738591 
L 131.407172 57.474416 
L 132.306492 59.13827 
L 133.205812 59.792322 
L 134.105132 59.769067 
L 135.903772 60.46606 
L 136.803092 61.364989 
L 138.601733 60.704878 
L 139.501053 60.086459 
L 140.400373 61.151361 
L 141.299693 61.304884 
L 142.199013 62.408603 
L 143.098333 62.299645 
L 143.997653 62.415865 
L 144.896973 62.310097 
L 145.796293 63.210749 
L 146.695613 60.258443 
L 147.594933 60.554046 
L 149.393573 57.353761 
L 150.292893 56.637225 
L 151.192214 56.992965 
L 152.091534 58.287244 
L 152.990854 55.855611 
L 153.890174 55.885267 
L 154.789494 56.159872 
L 155.688814 56.783571 
L 156.588134 54.480607 
L 157.487454 50.895508 
L 158.386774 53.708195 
L 159.286094 55.57905 
L 160.185414 55.08552 
L 161.084734 49.847553 
L 161.984054 45.278391 
L 162.883374 44.705511 
L 163.782695 42.873592 
L 164.682015 42.149449 
L 165.581335 40.708789 
L 166.480655 42.396112 
L 167.379975 43.026996 
L 168.279295 41.154006 
L 169.178615 40.513643 
L 170.077935 40.370793 
L 171.876575 36.92739 
L 172.775895 36.944863 
L 173.675215 36.210244 
L 174.574535 34.446186 
L 175.473855 33.471466 
L 176.373176 31.378163 
L 177.272496 30.785219 
L 178.171816 32.3776 
L 179.071136 33.573911 
L 179.970456 33.387481 
L 180.869776 33.472155 
L 181.769096 30.774606 
L 182.668416 30.3513 
L 183.567736 28.776757 
L 184.467056 26.68433 
L 185.366376 24.305907 
L 186.265696 24.944902 
L 187.165016 27.313586 
L 188.064336 27.439275 
L 188.963657 27.289622 
L 189.862977 26.401757 
L 190.762297 29.405784 
L 191.661617 29.883484 
L 192.560937 29.985617 
L 194.359577 34.677653 
L 195.258897 34.565402 
L 196.158217 34.849871 
L 197.057537 37.384234 
L 198.856177 40.364928 
L 199.755497 40.426759 
L 200.654817 42.861503 
L 201.554137 45.976658 
L 202.453458 48.028465 
L 203.352778 49.273929 
L 204.252098 51.521506 
L 205.151418 53.097548 
L 206.050738 51.546397 
L 206.950058 51.163428 
L 207.849378 50.565052 
L 208.748698 50.944947 
L 209.648018 53.920988 
L 210.547338 58.772459 
L 211.446658 58.802104 
L 212.345978 59.321066 
L 213.245298 60.70512 
L 214.144618 62.668406 
L 215.043939 61.908494 
L 215.943259 56.369925 
L 216.842579 55.976964 
L 217.741899 56.108253 
L 218.641219 50.647386 
L 219.540539 47.846112 
L 220.439859 46.315415 
L 221.339179 47.959163 
L 222.238499 48.448724 
L 223.137819 49.460393 
L 224.037139 48.843308 
L 225.835779 51.078046 
L 226.735099 50.119184 
L 227.63442 47.763298 
L 229.43306 43.548021 
L 230.33238 41.087488 
L 232.13102 37.557212 
L 233.03034 38.705519 
L 233.92966 36.147919 
L 234.82898 37.612896 
L 235.7283 36.741331 
L 236.62762 35.638551 
L 237.52694 36.275719 
L 238.42626 34.972048 
L 239.32558 33.103923 
L 242.023541 30.211232 
L 242.922861 30.886476 
L 243.822181 29.841647 
L 244.721501 30.071156 
L 245.620821 29.346263 
L 246.520141 29.969865 
L 247.419461 31.511318 
L 250.117421 37.957493 
L 251.016741 39.148416 
L 251.916061 39.800364 
L 252.815382 41.922281 
L 253.714702 42.022711 
L 254.614022 41.290335 
L 256.412662 45.603433 
L 257.311982 45.748978 
L 258.211302 47.011551 
L 259.110622 48.536102 
L 260.009942 47.630417 
L 260.909262 49.102879 
L 261.808582 50.97791 
L 262.707902 51.556644 
L 263.607222 51.849293 
L 264.506542 54.301697 
L 265.405863 55.601856 
L 266.305183 57.475 
L 269.003143 61.061537 
L 269.902463 62.953393 
L 270.801783 63.755091 
L 271.701103 65.189031 
L 272.600423 67.573667 
L 273.499743 70.665485 
L 274.399063 70.105697 
L 275.298383 70.341141 
L 277.097023 65.896582 
L 277.996343 63.345853 
L 278.895664 63.436386 
L 279.794984 62.840727 
L 281.593624 60.074853 
L 282.492944 60.611487 
L 283.392264 59.211686 
L 284.291584 58.945353 
L 285.190904 57.847671 
L 286.989544 56.630645 
L 287.888864 56.641805 
L 288.788184 57.18324 
L 289.687504 54.625123 
L 290.586824 53.448379 
L 291.486145 54.34111 
L 292.385465 55.968132 
L 293.284785 56.296856 
L 294.184105 52.117893 
L 295.982745 48.501281 
L 296.882065 45.841831 
L 297.781385 43.58083 
L 298.680705 44.620798 
L 299.580025 44.940454 
L 301.378665 42.167213 
L 302.277985 41.558976 
L 303.177305 41.467901 
L 304.076626 42.397398 
L 304.975946 40.708691 
L 305.875266 40.713597 
L 306.774586 38.937593 
L 307.673906 38.362476 
L 308.573226 32.56574 
L 309.472546 33.914163 
L 310.371866 34.049708 
L 311.271186 35.149675 
L 312.170506 34.132436 
L 313.069826 27.565364 
L 313.969146 27.316394 
L 314.868466 26.631844 
L 315.767786 28.810593 
L 316.667107 25.753965 
L 317.566427 24.482424 
L 318.465747 19.116187 
L 319.365067 17.754573 
L 320.264387 17.625368 
L 321.163707 18.861759 
L 322.063027 16.318848 
L 323.861667 14.311172 
L 324.760987 11.17132 
L 325.660307 11.139669 
L 326.559627 9.89308 
L 327.458947 5.87345 
L 328.358267 4.290332 
L 329.257588 9.126494 
L 330.156908 11.865038 
L 332.854868 16.471852 
L 333.754188 17.60647 
L 334.653508 19.693716 
L 335.552828 25.431299 
L 337.351468 32.874923 
L 338.250788 34.532924 
L 339.150108 36.792973 
L 340.049428 35.721981 
L 340.948748 36.912164 
L 341.848068 38.784802 
L 342.747389 39.94946 
L 343.646709 38.432722 
L 345.445349 44.83157 
L 346.344669 46.379875 
L 348.143309 40.029934 
L 349.042629 39.113256 
L 349.941949 43.374791 
L 350.841269 44.048434 
L 351.740589 46.390752 
L 352.639909 48.206855 
L 353.539229 49.023909 
L 354.438549 52.14557 
L 355.33787 51.782749 
L 356.23719 52.030568 
L 357.13651 46.74904 
L 358.03583 40.357627 
L 358.93515 40.21487 
L 359.83447 41.904989 
L 360.73379 45.468145 
L 361.63311 48.455771 
L 362.53243 54.194737 
L 363.43175 60.665422 
L 364.33107 63.918338 
L 365.23039 69.014707 
L 366.12971 71.57052 
L 367.02903 71.775946 
L 367.928351 72.903776 
L 368.827671 72.888665 
L 370.626311 73.520346 
L 371.525631 71.837031 
L 372.424951 72.407919 
L 374.223591 74.124188 
L 375.122911 74.710588 
L 376.022231 73.105755 
L 376.921551 73.413827 
L 377.820871 72.10163 
L 378.720191 72.904385 
L 379.619511 70.764927 
L 380.518832 70.503952 
L 381.418152 71.361224 
L 382.317472 70.719589 
L 383.216792 71.721324 
L 384.116112 69.7702 
L 385.015432 69.673965 
L 385.914752 70.116606 
L 386.814072 70.047788 
L 387.713392 70.312801 
L 388.612712 72.739126 
L 389.512032 72.725252 
L 390.411352 71.691415 
L 392.209992 70.884472 
L 393.109313 70.222421 
L 394.008633 69.339759 
L 394.907953 69.74265 
L 395.807273 69.467531 
L 395.807273 69.467531 
" clip-path="url(#p3e33e22126)" style="fill: none; stroke: #ff0000; stroke-width: 1.5; stroke-linecap: square"/>
   </g>
   <g id="patch_3">
    <path d="M 54.92 78.268235 
L 54.92 0 
" style="fill: none; stroke: #000000; stroke-width: 0.8; stroke-linejoin: miter; stroke-linecap: square"/>
   </g>
   <g id="patch_4">
    <path d="M 412.04 78.268235 
L 412.04 0 
" style="fill: none; stroke: #000000; stroke-width: 0.8; stroke-linejoin: miter; stroke-linecap: square"/>
   </g>
   <g id="patch_5">
    <path d="M 54.92 78.268235 
L 412.04 78.268235 
" style="fill: none; stroke: #000000; stroke-width: 0.8; stroke-linejoin: miter; stroke-linecap: square"/>
   </g>
   <g id="patch_6">
    <path d="M 54.92 0 
L 412.04 0 
" style="fill: none; stroke: #000000; stroke-width: 0.8; stroke-linejoin: miter; stroke-linecap: square"/>
   </g>
   <g id="legend_1">
    <g id="patch_7">
     <path d="M 235.234688 66.873336 
L 400.14 66.873336 
Q 403.54 66.873336 403.54 63.473336 
L 403.54 14.794899 
Q 403.54 11.394899 400.14 11.394899 
L 235.234688 11.394899 
Q 231.834688 11.394899 231.834688 14.794899 
L 231.834688 63.473336 
Q 231.834688 66.873336 235.234688 66.873336 
z
" style="fill: #ffffff; opacity: 0.8; stroke: #cccccc; stroke-linejoin: miter"/>
    </g>
    <g id="line2d_6">
     <path d="M 238.634688 25.162243 
L 255.634688 25.162243 
L 272.634688 25.162243 
" style="fill: none; stroke: #008000; stroke-width: 1.5; stroke-linecap: square"/>
    </g>
    <g id="text_5">
     <!-- ground_truth -->
     <g transform="translate(286.234688 31.112243)scale(0.17 -0.17)">
      <defs>
       <path id="DejaVuSans-67" d="M 2906 1791 
Q 2906 2416 2648 2759 
Q 2391 3103 1925 3103 
Q 1463 3103 1205 2759 
Q 947 2416 947 1791 
Q 947 1169 1205 825 
Q 1463 481 1925 481 
Q 2391 481 2648 825 
Q 2906 1169 2906 1791 
z
M 3481 434 
Q 3481 -459 3084 -895 
Q 2688 -1331 1869 -1331 
Q 1566 -1331 1297 -1286 
Q 1028 -1241 775 -1147 
L 775 -588 
Q 1028 -725 1275 -790 
Q 1522 -856 1778 -856 
Q 2344 -856 2625 -561 
Q 2906 -266 2906 331 
L 2906 616 
Q 2728 306 2450 153 
Q 2172 0 1784 0 
Q 1141 0 747 490 
Q 353 981 353 1791 
Q 353 2603 747 3093 
Q 1141 3584 1784 3584 
Q 2172 3584 2450 3431 
Q 2728 3278 2906 2969 
L 2906 3500 
L 3481 3500 
L 3481 434 
z
" transform="scale(0.015625)"/>
       <path id="DejaVuSans-72" d="M 2631 2963 
Q 2534 3019 2420 3045 
Q 2306 3072 2169 3072 
Q 1681 3072 1420 2755 
Q 1159 2438 1159 1844 
L 1159 0 
L 581 0 
L 581 3500 
L 1159 3500 
L 1159 2956 
Q 1341 3275 1631 3429 
Q 1922 3584 2338 3584 
Q 2397 3584 2469 3576 
Q 2541 3569 2628 3553 
L 2631 2963 
z
" transform="scale(0.015625)"/>
       <path id="DejaVuSans-6f" d="M 1959 3097 
Q 1497 3097 1228 2736 
Q 959 2375 959 1747 
Q 959 1119 1226 758 
Q 1494 397 1959 397 
Q 2419 397 2687 759 
Q 2956 1122 2956 1747 
Q 2956 2369 2687 2733 
Q 2419 3097 1959 3097 
z
M 1959 3584 
Q 2709 3584 3137 3096 
Q 3566 2609 3566 1747 
Q 3566 888 3137 398 
Q 2709 -91 1959 -91 
Q 1206 -91 779 398 
Q 353 888 353 1747 
Q 353 2609 779 3096 
Q 1206 3584 1959 3584 
z
" transform="scale(0.015625)"/>
       <path id="DejaVuSans-75" d="M 544 1381 
L 544 3500 
L 1119 3500 
L 1119 1403 
Q 1119 906 1312 657 
Q 1506 409 1894 409 
Q 2359 409 2629 706 
Q 2900 1003 2900 1516 
L 2900 3500 
L 3475 3500 
L 3475 0 
L 2900 0 
L 2900 538 
Q 2691 219 2414 64 
Q 2138 -91 1772 -91 
Q 1169 -91 856 284 
Q 544 659 544 1381 
z
M 1991 3584 
L 1991 3584 
z
" transform="scale(0.015625)"/>
       <path id="DejaVuSans-6e" d="M 3513 2113 
L 3513 0 
L 2938 0 
L 2938 2094 
Q 2938 2591 2744 2837 
Q 2550 3084 2163 3084 
Q 1697 3084 1428 2787 
Q 1159 2491 1159 1978 
L 1159 0 
L 581 0 
L 581 3500 
L 1159 3500 
L 1159 2956 
Q 1366 3272 1645 3428 
Q 1925 3584 2291 3584 
Q 2894 3584 3203 3211 
Q 3513 2838 3513 2113 
z
" transform="scale(0.015625)"/>
       <path id="DejaVuSans-64" d="M 2906 2969 
L 2906 4863 
L 3481 4863 
L 3481 0 
L 2906 0 
L 2906 525 
Q 2725 213 2448 61 
Q 2172 -91 1784 -91 
Q 1150 -91 751 415 
Q 353 922 353 1747 
Q 353 2572 751 3078 
Q 1150 3584 1784 3584 
Q 2172 3584 2448 3432 
Q 2725 3281 2906 2969 
z
M 947 1747 
Q 947 1113 1208 752 
Q 1469 391 1925 391 
Q 2381 391 2643 752 
Q 2906 1113 2906 1747 
Q 2906 2381 2643 2742 
Q 2381 3103 1925 3103 
Q 1469 3103 1208 2742 
Q 947 2381 947 1747 
z
" transform="scale(0.015625)"/>
       <path id="DejaVuSans-5f" d="M 3263 -1063 
L 3263 -1509 
L -63 -1509 
L -63 -1063 
L 3263 -1063 
z
" transform="scale(0.015625)"/>
       <path id="DejaVuSans-74" d="M 1172 4494 
L 1172 3500 
L 2356 3500 
L 2356 3053 
L 1172 3053 
L 1172 1153 
Q 1172 725 1289 603 
Q 1406 481 1766 481 
L 2356 481 
L 2356 0 
L 1766 0 
Q 1100 0 847 248 
Q 594 497 594 1153 
L 594 3053 
L 172 3053 
L 172 3500 
L 594 3500 
L 594 4494 
L 1172 4494 
z
" transform="scale(0.015625)"/>
       <path id="DejaVuSans-68" d="M 3513 2113 
L 3513 0 
L 2938 0 
L 2938 2094 
Q 2938 2591 2744 2837 
Q 2550 3084 2163 3084 
Q 1697 3084 1428 2787 
Q 1159 2491 1159 1978 
L 1159 0 
L 581 0 
L 581 4863 
L 1159 4863 
L 1159 2956 
Q 1366 3272 1645 3428 
Q 1925 3584 2291 3584 
Q 2894 3584 3203 3211 
Q 3513 2838 3513 2113 
z
" transform="scale(0.015625)"/>
      </defs>
      <use xlink:href="#DejaVuSans-67"/>
      <use xlink:href="#DejaVuSans-72" x="63.476562"/>
      <use xlink:href="#DejaVuSans-6f" x="102.339844"/>
      <use xlink:href="#DejaVuSans-75" x="163.521484"/>
      <use xlink:href="#DejaVuSans-6e" x="226.900391"/>
      <use xlink:href="#DejaVuSans-64" x="290.279297"/>
      <use xlink:href="#DejaVuSans-5f" x="353.755859"/>
      <use xlink:href="#DejaVuSans-74" x="403.755859"/>
      <use xlink:href="#DejaVuSans-72" x="442.964844"/>
      <use xlink:href="#DejaVuSans-75" x="484.078125"/>
      <use xlink:href="#DejaVuSans-74" x="547.457031"/>
      <use xlink:href="#DejaVuSans-68" x="586.666016"/>
     </g>
    </g>
    <g id="line2d_7">
     <path d="M 238.634688 50.587868 
L 255.634688 50.587868 
L 272.634688 50.587868 
" style="fill: none; stroke: #ff0000; stroke-width: 1.5; stroke-linecap: square"/>
    </g>
    <g id="text_6">
     <!-- estimated -->
     <g transform="translate(286.234688 56.537868)scale(0.17 -0.17)">
      <defs>
       <path id="DejaVuSans-65" d="M 3597 1894 
L 3597 1613 
L 953 1613 
Q 991 1019 1311 708 
Q 1631 397 2203 397 
Q 2534 397 2845 478 
Q 3156 559 3463 722 
L 3463 178 
Q 3153 47 2828 -22 
Q 2503 -91 2169 -91 
Q 1331 -91 842 396 
Q 353 884 353 1716 
Q 353 2575 817 3079 
Q 1281 3584 2069 3584 
Q 2775 3584 3186 3129 
Q 3597 2675 3597 1894 
z
M 3022 2063 
Q 3016 2534 2758 2815 
Q 2500 3097 2075 3097 
Q 1594 3097 1305 2825 
Q 1016 2553 972 2059 
L 3022 2063 
z
" transform="scale(0.015625)"/>
       <path id="DejaVuSans-73" d="M 2834 3397 
L 2834 2853 
Q 2591 2978 2328 3040 
Q 2066 3103 1784 3103 
Q 1356 3103 1142 2972 
Q 928 2841 928 2578 
Q 928 2378 1081 2264 
Q 1234 2150 1697 2047 
L 1894 2003 
Q 2506 1872 2764 1633 
Q 3022 1394 3022 966 
Q 3022 478 2636 193 
Q 2250 -91 1575 -91 
Q 1294 -91 989 -36 
Q 684 19 347 128 
L 347 722 
Q 666 556 975 473 
Q 1284 391 1588 391 
Q 1994 391 2212 530 
Q 2431 669 2431 922 
Q 2431 1156 2273 1281 
Q 2116 1406 1581 1522 
L 1381 1569 
Q 847 1681 609 1914 
Q 372 2147 372 2553 
Q 372 3047 722 3315 
Q 1072 3584 1716 3584 
Q 2034 3584 2315 3537 
Q 2597 3491 2834 3397 
z
" transform="scale(0.015625)"/>
       <path id="DejaVuSans-69" d="M 603 3500 
L 1178 3500 
L 1178 0 
L 603 0 
L 603 3500 
z
M 603 4863 
L 1178 4863 
L 1178 4134 
L 603 4134 
L 603 4863 
z
" transform="scale(0.015625)"/>
       <path id="DejaVuSans-6d" d="M 3328 2828 
Q 3544 3216 3844 3400 
Q 4144 3584 4550 3584 
Q 5097 3584 5394 3201 
Q 5691 2819 5691 2113 
L 5691 0 
L 5113 0 
L 5113 2094 
Q 5113 2597 4934 2840 
Q 4756 3084 4391 3084 
Q 3944 3084 3684 2787 
Q 3425 2491 3425 1978 
L 3425 0 
L 2847 0 
L 2847 2094 
Q 2847 2600 2669 2842 
Q 2491 3084 2119 3084 
Q 1678 3084 1418 2786 
Q 1159 2488 1159 1978 
L 1159 0 
L 581 0 
L 581 3500 
L 1159 3500 
L 1159 2956 
Q 1356 3278 1631 3431 
Q 1906 3584 2284 3584 
Q 2666 3584 2933 3390 
Q 3200 3197 3328 2828 
z
" transform="scale(0.015625)"/>
      </defs>
      <use xlink:href="#DejaVuSans-65"/>
      <use xlink:href="#DejaVuSans-73" x="61.523438"/>
      <use xlink:href="#DejaVuSans-74" x="113.623047"/>
      <use xlink:href="#DejaVuSans-69" x="152.832031"/>
      <use xlink:href="#DejaVuSans-6d" x="180.615234"/>
      <use xlink:href="#DejaVuSans-61" x="278.027344"/>
      <use xlink:href="#DejaVuSans-74" x="339.306641"/>
      <use xlink:href="#DejaVuSans-65" x="378.515625"/>
      <use xlink:href="#DejaVuSans-64" x="440.039062"/>
     </g>
    </g>
   </g>
  </g>
  <g id="axes_2">
   <g id="patch_8">
    <path d="M 54.92 172.190118 
L 412.04 172.190118 
L 412.04 93.921882 
L 54.92 93.921882 
z
" style="fill: #ffffff"/>
   </g>
   <g id="matplotlib.axis_3"/>
   <g id="matplotlib.axis_4">
    <g id="ytick_4">
     <g id="line2d_8">
      <g>
       <use xlink:href="#m72608c6a6f" x="54.92" y="167.750068" style="stroke: #000000; stroke-width: 0.8"/>
      </g>
     </g>
     <g id="text_7">
      <!-- −2.5 -->
      <g transform="translate(23.637188 171.549287)scale(0.1 -0.1)">
       <defs>
        <path id="DejaVuSans-2e" d="M 684 794 
L 1344 794 
L 1344 0 
L 684 0 
L 684 794 
z
" transform="scale(0.015625)"/>
        <path id="DejaVuSans-35" d="M 691 4666 
L 3169 4666 
L 3169 4134 
L 1269 4134 
L 1269 2991 
Q 1406 3038 1543 3061 
Q 1681 3084 1819 3084 
Q 2600 3084 3056 2656 
Q 3513 2228 3513 1497 
Q 3513 744 3044 326 
Q 2575 -91 1722 -91 
Q 1428 -91 1123 -41 
Q 819 9 494 109 
L 494 744 
Q 775 591 1075 516 
Q 1375 441 1709 441 
Q 2250 441 2565 725 
Q 2881 1009 2881 1497 
Q 2881 1984 2565 2268 
Q 2250 2553 1709 2553 
Q 1456 2553 1204 2497 
Q 953 2441 691 2322 
L 691 4666 
z
" transform="scale(0.015625)"/>
       </defs>
       <use xlink:href="#DejaVuSans-2212"/>
       <use xlink:href="#DejaVuSans-32" x="83.789062"/>
       <use xlink:href="#DejaVuSans-2e" x="147.412109"/>
       <use xlink:href="#DejaVuSans-35" x="179.199219"/>
      </g>
     </g>
    </g>
    <g id="ytick_5">
     <g id="line2d_9">
      <g>
       <use xlink:href="#m72608c6a6f" x="54.92" y="137.407637" style="stroke: #000000; stroke-width: 0.8"/>
      </g>
     </g>
     <g id="text_8">
      <!-- 0.0 -->
      <g transform="translate(32.016875 141.206856)scale(0.1 -0.1)">
       <use xlink:href="#DejaVuSans-30"/>
       <use xlink:href="#DejaVuSans-2e" x="63.623047"/>
       <use xlink:href="#DejaVuSans-30" x="95.410156"/>
      </g>
     </g>
    </g>
    <g id="ytick_6">
     <g id="line2d_10">
      <g>
       <use xlink:href="#m72608c6a6f" x="54.92" y="107.065206" style="stroke: #000000; stroke-width: 0.8"/>
      </g>
     </g>
     <g id="text_9">
      <!-- 2.5 -->
      <g transform="translate(32.016875 110.864425)scale(0.1 -0.1)">
       <use xlink:href="#DejaVuSans-32"/>
       <use xlink:href="#DejaVuSans-2e" x="63.623047"/>
       <use xlink:href="#DejaVuSans-35" x="95.410156"/>
      </g>
     </g>
    </g>
    <g id="text_10">
     <!-- pitch [°] -->
     <g transform="translate(16.101719 167.790453)rotate(-90)scale(0.17 -0.17)">
      <defs>
       <path id="DejaVuSans-70" d="M 1159 525 
L 1159 -1331 
L 581 -1331 
L 581 3500 
L 1159 3500 
L 1159 2969 
Q 1341 3281 1617 3432 
Q 1894 3584 2278 3584 
Q 2916 3584 3314 3078 
Q 3713 2572 3713 1747 
Q 3713 922 3314 415 
Q 2916 -91 2278 -91 
Q 1894 -91 1617 61 
Q 1341 213 1159 525 
z
M 3116 1747 
Q 3116 2381 2855 2742 
Q 2594 3103 2138 3103 
Q 1681 3103 1420 2742 
Q 1159 2381 1159 1747 
Q 1159 1113 1420 752 
Q 1681 391 2138 391 
Q 2594 391 2855 752 
Q 3116 1113 3116 1747 
z
" transform="scale(0.015625)"/>
       <path id="DejaVuSans-63" d="M 3122 3366 
L 3122 2828 
Q 2878 2963 2633 3030 
Q 2388 3097 2138 3097 
Q 1578 3097 1268 2742 
Q 959 2388 959 1747 
Q 959 1106 1268 751 
Q 1578 397 2138 397 
Q 2388 397 2633 464 
Q 2878 531 3122 666 
L 3122 134 
Q 2881 22 2623 -34 
Q 2366 -91 2075 -91 
Q 1284 -91 818 406 
Q 353 903 353 1747 
Q 353 2603 823 3093 
Q 1294 3584 2113 3584 
Q 2378 3584 2631 3529 
Q 2884 3475 3122 3366 
z
" transform="scale(0.015625)"/>
      </defs>
      <use xlink:href="#DejaVuSans-70"/>
      <use xlink:href="#DejaVuSans-69" x="63.476562"/>
      <use xlink:href="#DejaVuSans-74" x="91.259766"/>
      <use xlink:href="#DejaVuSans-63" x="130.46875"/>
      <use xlink:href="#DejaVuSans-68" x="185.449219"/>
      <use xlink:href="#DejaVuSans-20" x="248.828125"/>
      <use xlink:href="#DejaVuSans-5b" x="280.615234"/>
      <use xlink:href="#DejaVuSans-b0" x="319.628906"/>
      <use xlink:href="#DejaVuSans-5d" x="369.628906"/>
     </g>
    </g>
   </g>
   <g id="line2d_11">
    <path d="M 71.152727 106.437442 
L 72.052047 97.856763 
L 72.951367 103.315652 
L 73.850687 125.642926 
L 74.750008 124.677393 
L 75.649328 121.7716 
L 76.548648 110.247852 
L 77.447968 123.705688 
L 78.347288 117.026724 
L 79.246608 113.785597 
L 80.145928 121.077244 
L 81.045248 109.928103 
L 81.944568 111.635077 
L 82.843888 109.043 
L 83.743208 109.023647 
L 84.642528 109.535753 
L 85.541848 112.842752 
L 86.441168 103.345902 
L 87.340489 113.940751 
L 88.239809 111.806294 
L 89.139129 114.566765 
L 90.038449 116.720535 
L 90.937769 113.447595 
L 91.837089 111.847226 
L 92.736409 108.899605 
L 93.635729 107.518989 
L 94.535049 122.910705 
L 95.434369 109.285992 
L 96.333689 105.573599 
L 97.233009 102.714602 
L 98.132329 121.013013 
L 99.031649 125.383506 
L 99.93097 121.006819 
L 101.72961 111.400781 
L 102.62893 98.706512 
L 103.52825 106.879123 
L 104.42757 119.815605 
L 105.32689 116.522946 
L 106.22621 123.978908 
L 108.02485 127.275905 
L 108.92417 123.700624 
L 109.82349 127.081648 
L 110.72281 123.576066 
L 111.62213 114.985428 
L 112.521451 119.458664 
L 113.420771 118.220763 
L 114.320091 121.219357 
L 115.219411 117.429699 
L 116.118731 111.189233 
L 117.018051 114.225779 
L 117.917371 118.81131 
L 118.816691 117.096327 
L 119.716011 112.896012 
L 120.615331 115.532106 
L 121.514651 116.785141 
L 122.413971 113.41279 
L 123.313291 120.531971 
L 124.212611 122.659579 
L 125.111932 117.797073 
L 126.011252 116.108538 
L 126.910572 121.385757 
L 127.809892 125.83328 
L 128.709212 120.845563 
L 129.608532 120.062648 
L 130.507852 122.811539 
L 131.407172 126.285338 
L 132.306492 127.093848 
L 133.205812 124.376651 
L 134.105132 127.2281 
L 135.004452 131.854873 
L 136.803092 134.536455 
L 137.702412 132.050526 
L 138.601733 133.053133 
L 139.501053 132.670081 
L 140.400373 130.342622 
L 141.299693 130.947351 
L 142.199013 130.147771 
L 143.098333 134.221186 
L 143.997653 135.785298 
L 144.896973 142.969494 
L 145.796293 144.202042 
L 146.695613 139.925396 
L 147.594933 140.02987 
L 148.494253 133.277906 
L 149.393573 137.546225 
L 150.292893 137.260045 
L 151.192214 141.984587 
L 152.091534 141.879544 
L 152.990854 142.806619 
L 153.890174 142.414595 
L 154.789494 140.329035 
L 155.688814 141.049975 
L 156.588134 146.365316 
L 157.487454 144.637313 
L 158.386774 145.620674 
L 159.286094 144.072576 
L 160.185414 152.22037 
L 161.984054 163.50875 
L 162.883374 155.986956 
L 163.782695 143.998421 
L 164.682015 141.662982 
L 165.581335 146.92612 
L 166.480655 142.894731 
L 167.379975 138.346153 
L 168.279295 138.243418 
L 169.178615 131.458401 
L 170.077935 141.379476 
L 170.977255 139.296744 
L 171.876575 139.544517 
L 172.775895 139.666813 
L 173.675215 142.141153 
L 174.574535 141.455501 
L 175.473855 135.483393 
L 177.272496 150.121203 
L 178.171816 149.511032 
L 179.071136 147.890319 
L 179.970456 149.568931 
L 180.869776 153.408085 
L 181.769096 155.863789 
L 182.668416 154.907712 
L 183.567736 145.999988 
L 184.467056 139.381813 
L 185.366376 136.589037 
L 186.265696 137.482109 
L 187.165016 140.455768 
L 188.064336 146.542316 
L 188.963657 148.982318 
L 189.862977 149.755807 
L 190.762297 154.334727 
L 191.661617 157.201998 
L 192.560937 157.768154 
L 193.460257 156.532453 
L 194.359577 153.380962 
L 195.258897 155.564457 
L 196.158217 157.19572 
L 197.057537 151.623754 
L 197.956857 144.918938 
L 198.856177 151.980077 
L 199.755497 157.371053 
L 200.654817 159.392333 
L 201.554137 154.360103 
L 202.453458 157.512905 
L 203.352778 159.800481 
L 205.151418 157.052353 
L 206.050738 155.113311 
L 206.950058 155.011394 
L 207.849378 158.130767 
L 208.748698 157.251032 
L 209.648018 161.167136 
L 210.547338 154.272617 
L 211.446658 139.703877 
L 213.245298 126.783603 
L 214.144618 132.06638 
L 215.043939 135.794131 
L 215.943259 142.756241 
L 216.842579 145.525714 
L 217.741899 142.486504 
L 218.641219 145.634658 
L 219.540539 145.256224 
L 220.439859 139.425717 
L 221.339179 135.3948 
L 222.238499 134.764196 
L 224.037139 137.462043 
L 224.936459 137.928542 
L 225.835779 137.633032 
L 226.735099 139.232375 
L 227.63442 139.625293 
L 228.53374 129.241788 
L 229.43306 126.479975 
L 230.33238 129.219661 
L 231.2317 127.613171 
L 232.13102 123.167082 
L 233.03034 120.428356 
L 233.92966 121.632696 
L 234.82898 115.353882 
L 235.7283 114.565276 
L 237.52694 110.771415 
L 238.42626 109.1793 
L 239.32558 109.919029 
L 240.224901 111.714744 
L 241.124221 118.08454 
L 242.023541 122.157303 
L 242.922861 106.081994 
L 243.822181 105.960399 
L 244.721501 111.799317 
L 245.620821 114.998022 
L 246.520141 118.830059 
L 247.419461 122.01158 
L 248.318781 123.607953 
L 249.218101 125.595844 
L 250.117421 129.888019 
L 251.016741 129.956067 
L 251.916061 131.837937 
L 252.815382 129.235014 
L 253.714702 125.945422 
L 254.614022 125.530649 
L 255.513342 123.816771 
L 256.412662 120.686612 
L 257.311982 124.937408 
L 258.211302 121.079503 
L 259.110622 126.074122 
L 260.009942 127.44425 
L 260.909262 124.560714 
L 261.808582 125.748007 
L 262.707902 128.973463 
L 263.607222 137.076401 
L 264.506542 132.617465 
L 265.405863 129.003516 
L 266.305183 128.325381 
L 267.204503 129.057708 
L 268.103823 126.422376 
L 269.902463 127.093918 
L 271.701103 136.264492 
L 272.600423 146.547239 
L 273.499743 149.781743 
L 274.399063 150.182206 
L 275.298383 149.463304 
L 276.197703 148.927891 
L 277.097023 154.022823 
L 277.996343 154.683134 
L 278.895664 151.773322 
L 279.794984 146.694081 
L 280.694304 148.129849 
L 281.593624 151.501884 
L 282.492944 147.187229 
L 283.392264 145.837116 
L 284.291584 145.616401 
L 285.190904 145.155863 
L 286.090224 144.528637 
L 286.989544 142.794907 
L 287.888864 142.08397 
L 288.788184 142.566873 
L 289.687504 137.408305 
L 290.586824 126.448384 
L 291.486145 122.968542 
L 292.385465 123.274124 
L 293.284785 121.153355 
L 294.184105 121.74402 
L 295.083425 130.270315 
L 295.982745 127.461757 
L 296.882065 131.342661 
L 297.781385 134.095783 
L 298.680705 136.05577 
L 299.580025 135.277384 
L 300.479345 128.034774 
L 301.378665 114.539641 
L 303.177305 139.750559 
L 304.975946 134.157154 
L 305.875266 130.204451 
L 306.774586 135.824181 
L 307.673906 140.432674 
L 308.573226 128.346879 
L 309.472546 132.68425 
L 310.371866 132.291971 
L 311.271186 134.639042 
L 312.170506 135.419033 
L 313.069826 130.763447 
L 313.969146 138.432483 
L 314.868466 137.279993 
L 315.767786 135.896788 
L 316.667107 139.942228 
L 317.566427 132.948218 
L 318.465747 139.671598 
L 319.365067 151.301504 
L 320.264387 149.864312 
L 321.163707 154.996635 
L 322.063027 151.163404 
L 322.962347 154.448445 
L 323.861667 148.829789 
L 324.760987 147.368959 
L 325.660307 139.016439 
L 326.559627 136.182196 
L 327.458947 136.67664 
L 328.358267 142.397463 
L 329.257588 145.402854 
L 330.156908 150.630496 
L 331.056228 148.472592 
L 331.955548 149.75624 
L 332.854868 153.17746 
L 333.754188 154.544479 
L 334.653508 153.813804 
L 335.552828 151.102756 
L 336.452148 156.691273 
L 337.351468 161.470435 
L 338.250788 163.360156 
L 339.150108 161.799102 
L 340.049428 153.494786 
L 340.948748 151.102988 
L 341.848068 150.384964 
L 342.747389 152.176689 
L 343.646709 145.865378 
L 344.546029 144.049185 
L 345.445349 148.050013 
L 346.344669 151.370026 
L 347.243989 150.618159 
L 348.143309 151.295151 
L 349.941949 157.788371 
L 350.841269 157.110967 
L 351.740589 155.791152 
L 352.639909 154.170578 
L 353.539229 155.144899 
L 354.438549 154.10429 
L 355.33787 148.638768 
L 356.23719 148.780204 
L 358.03583 135.798257 
L 358.93515 139.605447 
L 359.83447 138.668632 
L 360.73379 143.245387 
L 361.63311 139.736884 
L 362.53243 140.44218 
L 363.43175 142.126503 
L 364.33107 151.5013 
L 365.23039 153.934415 
L 366.12971 149.554078 
L 367.02903 132.772592 
L 367.928351 126.654521 
L 368.827671 127.111204 
L 369.726991 130.678685 
L 370.626311 131.300434 
L 371.525631 132.9275 
L 372.424951 131.26913 
L 373.324271 133.729598 
L 374.223591 129.862296 
L 375.122911 128.60506 
L 376.022231 129.135539 
L 376.921551 131.233851 
L 377.820871 135.324403 
L 378.720191 136.509532 
L 379.619511 129.668956 
L 380.518832 131.029176 
L 381.418152 133.219253 
L 382.317472 128.289822 
L 383.216792 129.697442 
L 384.116112 130.654877 
L 385.914752 138.400587 
L 386.814072 136.19881 
L 387.713392 137.257143 
L 388.612712 141.635503 
L 389.512032 136.719967 
L 390.411352 136.231251 
L 391.310672 136.132821 
L 392.209992 132.865734 
L 393.109313 132.775203 
L 394.008633 131.42528 
L 394.907953 132.449865 
L 395.807273 132.444428 
L 395.807273 132.444428 
" clip-path="url(#p71c29e5550)" style="fill: none; stroke: #008000; stroke-width: 1.5; stroke-linecap: square"/>
   </g>
   <g id="line2d_12">
    <path d="M 71.152727 106.437043 
L 72.052047 101.13909 
L 72.951367 104.798941 
L 73.850687 126.933542 
L 74.750008 126.055718 
L 75.649328 121.412539 
L 76.548648 108.918913 
L 77.447968 123.35364 
L 78.347288 115.236821 
L 79.246608 112.664754 
L 80.145928 119.591659 
L 81.045248 108.925727 
L 81.944568 111.403504 
L 82.843888 107.092045 
L 83.743208 108.42484 
L 84.642528 107.987457 
L 85.541848 112.40385 
L 86.441168 103.051966 
L 87.340489 112.877151 
L 88.239809 111.109054 
L 89.139129 114.587579 
L 90.038449 117.009631 
L 90.937769 114.598664 
L 92.736409 106.905426 
L 93.635729 106.129094 
L 94.535049 120.041776 
L 95.434369 106.754375 
L 96.333689 103.837641 
L 97.233009 99.555467 
L 98.132329 119.22942 
L 99.031649 122.937566 
L 99.93097 120.040046 
L 101.72961 109.724022 
L 102.62893 97.479529 
L 103.52825 105.883943 
L 104.42757 120.230725 
L 105.32689 117.283068 
L 106.22621 123.77958 
L 107.12553 127.145619 
L 108.02485 128.131206 
L 108.92417 125.106516 
L 109.82349 128.6791 
L 110.72281 125.810593 
L 111.62213 116.884 
L 112.521451 120.674665 
L 113.420771 120.857058 
L 114.320091 123.861632 
L 115.219411 120.786322 
L 116.118731 113.450377 
L 117.018051 116.940676 
L 117.917371 121.840873 
L 118.816691 120.34704 
L 119.716011 115.010626 
L 120.615331 116.179143 
L 121.514651 118.984758 
L 122.413971 116.937677 
L 123.313291 124.008469 
L 124.212611 126.747517 
L 125.111932 122.373368 
L 126.011252 121.057848 
L 127.809892 130.568424 
L 128.709212 127.169647 
L 129.608532 126.713362 
L 130.507852 128.012261 
L 131.407172 132.659737 
L 132.306492 133.962145 
L 133.205812 131.501593 
L 134.105132 134.887928 
L 135.004452 139.048722 
L 135.903772 141.134747 
L 136.803092 141.896834 
L 137.702412 139.347721 
L 138.601733 140.145378 
L 139.501053 139.729331 
L 140.400373 137.988126 
L 141.299693 137.861008 
L 142.199013 136.509121 
L 143.098333 141.028204 
L 143.997653 142.446731 
L 144.896973 150.247836 
L 145.796293 151.826914 
L 146.695613 146.149716 
L 147.594933 146.590391 
L 148.494253 140.424055 
L 149.393573 144.315617 
L 150.292893 145.031788 
L 151.192214 147.691431 
L 152.091534 146.927851 
L 152.990854 148.168302 
L 153.890174 147.57484 
L 154.789494 145.436332 
L 155.688814 144.8181 
L 156.588134 149.825434 
L 157.487454 148.40817 
L 158.386774 150.12795 
L 159.286094 148.813009 
L 160.185414 157.293451 
L 161.984054 168.632471 
L 162.883374 160.910593 
L 163.782695 148.232166 
L 164.682015 147.406651 
L 165.581335 152.666121 
L 167.379975 143.937976 
L 168.279295 144.753602 
L 169.178615 137.464334 
L 170.077935 148.546564 
L 170.977255 147.344609 
L 171.876575 147.679147 
L 173.675215 150.15448 
L 174.574535 149.316954 
L 175.473855 144.323643 
L 176.373176 150.977153 
L 177.272496 158.524079 
L 178.171816 157.837215 
L 179.071136 156.285356 
L 179.970456 158.2849 
L 180.869776 161.580804 
L 181.769096 163.290116 
L 182.668416 162.985257 
L 183.567736 153.51253 
L 184.467056 146.575793 
L 185.366376 143.568698 
L 186.265696 144.597503 
L 187.165016 147.461509 
L 188.064336 153.573431 
L 188.963657 155.001867 
L 189.862977 155.575809 
L 190.762297 158.584372 
L 191.661617 162.471218 
L 192.560937 162.153253 
L 193.460257 160.375347 
L 194.359577 157.780306 
L 195.258897 159.803169 
L 196.158217 161.222441 
L 197.057537 156.713896 
L 197.956857 148.943223 
L 199.755497 161.944112 
L 200.654817 162.38531 
L 201.554137 157.820234 
L 202.453458 160.591567 
L 203.352778 162.25404 
L 204.252098 163.339247 
L 205.151418 160.537555 
L 206.950058 158.200082 
L 207.849378 160.552822 
L 208.748698 160.388794 
L 209.648018 165.278666 
L 210.547338 158.27134 
L 211.446658 143.061997 
L 212.345978 135.348597 
L 213.245298 131.162333 
L 215.043939 138.571736 
L 215.943259 145.659242 
L 216.842579 148.229873 
L 217.741899 145.268852 
L 218.641219 147.534897 
L 219.540539 147.07872 
L 220.439859 141.102899 
L 221.339179 136.220508 
L 222.238499 135.774686 
L 223.137819 137.752718 
L 224.037139 138.109974 
L 224.936459 138.894851 
L 225.835779 137.617536 
L 226.735099 139.030937 
L 227.63442 140.97789 
L 228.53374 130.276835 
L 229.43306 126.433436 
L 230.33238 130.894746 
L 231.2317 129.528859 
L 232.13102 125.531693 
L 233.03034 122.491527 
L 233.92966 123.904645 
L 234.82898 116.970178 
L 235.7283 117.764103 
L 236.62762 114.854268 
L 237.52694 112.719329 
L 238.42626 111.184106 
L 240.224901 113.28738 
L 241.124221 119.508455 
L 242.023541 124.634328 
L 242.922861 108.459371 
L 243.822181 108.673606 
L 244.721501 114.422244 
L 245.620821 117.014735 
L 246.520141 121.00684 
L 247.419461 124.313324 
L 248.318781 126.297071 
L 249.218101 127.604123 
L 250.117421 132.481031 
L 251.016741 132.454902 
L 251.916061 134.33637 
L 253.714702 128.040028 
L 254.614022 128.294102 
L 255.513342 125.358167 
L 256.412662 121.952421 
L 257.311982 126.739015 
L 258.211302 122.152323 
L 259.110622 127.784401 
L 260.009942 131.000262 
L 260.909262 128.223806 
L 261.808582 128.905923 
L 262.707902 131.699148 
L 263.607222 139.224509 
L 264.506542 137.564927 
L 265.405863 134.24974 
L 266.305183 133.605003 
L 267.204503 135.15188 
L 268.103823 131.504661 
L 269.003143 132.632266 
L 269.902463 134.613196 
L 270.801783 137.902366 
L 271.701103 143.531333 
L 272.600423 154.063951 
L 273.499743 158.867381 
L 274.399063 158.657119 
L 275.298383 159.26863 
L 276.197703 157.702414 
L 277.097023 162.368363 
L 277.996343 162.826724 
L 278.895664 159.968287 
L 279.794984 153.507935 
L 281.593624 157.260055 
L 282.492944 155.162543 
L 283.392264 152.288441 
L 285.190904 149.70619 
L 286.090224 149.329297 
L 286.989544 147.061902 
L 287.888864 147.407398 
L 288.788184 147.224446 
L 289.687504 140.901616 
L 290.586824 129.65487 
L 291.486145 125.669832 
L 292.385465 125.561978 
L 293.284785 124.933247 
L 294.184105 123.926552 
L 295.083425 132.404591 
L 295.982745 129.371889 
L 296.882065 134.145953 
L 297.781385 136.693083 
L 298.680705 138.286883 
L 299.580025 138.690917 
L 300.479345 130.639782 
L 301.378665 116.877783 
L 302.277985 128.105268 
L 303.177305 141.735809 
L 304.076626 140.204979 
L 304.975946 137.617308 
L 305.875266 134.155682 
L 306.774586 138.306264 
L 307.673906 143.914459 
L 308.573226 132.026358 
L 309.472546 135.611653 
L 310.371866 135.977505 
L 312.170506 139.769399 
L 313.069826 135.456947 
L 313.969146 142.029506 
L 315.767786 139.548031 
L 316.667107 143.313307 
L 317.566427 136.615344 
L 318.465747 143.379172 
L 319.365067 154.342911 
L 320.264387 152.82639 
L 321.163707 157.786559 
L 322.063027 155.701589 
L 322.962347 157.564131 
L 323.861667 153.261036 
L 324.760987 150.769955 
L 325.660307 142.131684 
L 326.559627 139.253242 
L 327.458947 140.261383 
L 328.358267 144.455691 
L 329.257588 147.571621 
L 330.156908 151.417961 
L 331.056228 151.246478 
L 331.955548 152.191448 
L 332.854868 155.460741 
L 333.754188 156.965261 
L 334.653508 156.395746 
L 335.552828 155.061007 
L 336.452148 160.440551 
L 337.351468 164.448669 
L 338.250788 165.351647 
L 339.150108 164.941627 
L 340.049428 158.043152 
L 340.948748 155.31485 
L 341.848068 154.065969 
L 342.747389 156.54641 
L 343.646709 150.044643 
L 344.546029 148.609884 
L 345.445349 152.29624 
L 346.344669 157.445915 
L 347.243989 155.177165 
L 348.143309 155.581948 
L 349.042629 157.908313 
L 349.941949 161.483175 
L 350.841269 160.279229 
L 351.740589 158.509055 
L 352.639909 157.565643 
L 353.539229 158.770004 
L 354.438549 157.801663 
L 355.33787 152.342322 
L 356.23719 151.196477 
L 357.13651 145.358872 
L 358.03583 137.804866 
L 358.93515 140.445447 
L 359.83447 139.755917 
L 360.73379 145.054547 
L 361.63311 141.084594 
L 362.53243 141.955224 
L 363.43175 144.969904 
L 364.33107 155.110116 
L 365.23039 158.469959 
L 366.12971 153.625441 
L 367.02903 138.873141 
L 367.928351 129.852145 
L 368.827671 130.563789 
L 369.726991 133.097239 
L 370.626311 133.472911 
L 371.525631 135.635232 
L 372.424951 134.175574 
L 373.324271 136.570878 
L 374.223591 133.267606 
L 375.122911 131.011042 
L 376.022231 131.784391 
L 376.921551 134.352431 
L 377.820871 137.60833 
L 378.720191 138.526337 
L 379.619511 132.519228 
L 380.518832 131.86947 
L 381.418152 134.962898 
L 382.317472 129.583671 
L 383.216792 131.714123 
L 384.116112 132.531042 
L 385.015432 135.916078 
L 385.914752 140.802327 
L 386.814072 137.937979 
L 387.713392 138.925473 
L 388.612712 143.942099 
L 389.512032 138.690981 
L 391.310672 137.708417 
L 392.209992 134.684306 
L 393.109313 134.569457 
L 394.008633 133.927645 
L 394.907953 134.050744 
L 395.807273 133.405503 
L 395.807273 133.405503 
" clip-path="url(#p71c29e5550)" style="fill: none; stroke: #ff0000; stroke-width: 1.5; stroke-linecap: square"/>
   </g>
   <g id="patch_9">
    <path d="M 54.92 172.190118 
L 54.92 93.921882 
" style="fill: none; stroke: #000000; stroke-width: 0.8; stroke-linejoin: miter; stroke-linecap: square"/>
   </g>
   <g id="patch_10">
    <path d="M 412.04 172.190118 
L 412.04 93.921882 
" style="fill: none; stroke: #000000; stroke-width: 0.8; stroke-linejoin: miter; stroke-linecap: square"/>
   </g>
   <g id="patch_11">
    <path d="M 54.92 172.190118 
L 412.04 172.190118 
" style="fill: none; stroke: #000000; stroke-width: 0.8; stroke-linejoin: miter; stroke-linecap: square"/>
   </g>
   <g id="patch_12">
    <path d="M 54.92 93.921882 
L 412.04 93.921882 
" style="fill: none; stroke: #000000; stroke-width: 0.8; stroke-linejoin: miter; stroke-linecap: square"/>
   </g>
  </g>
  <g id="axes_3">
   <g id="patch_13">
    <path d="M 54.92 266.112 
L 412.04 266.112 
L 412.04 187.843765 
L 54.92 187.843765 
z
" style="fill: #ffffff"/>
   </g>
   <g id="matplotlib.axis_5"/>
   <g id="matplotlib.axis_6">
    <g id="ytick_7">
     <g id="line2d_13">
      <g>
       <use xlink:href="#m72608c6a6f" x="54.92" y="256.984482" style="stroke: #000000; stroke-width: 0.8"/>
      </g>
     </g>
     <g id="text_11">
      <!-- −95 -->
      <g transform="translate(26.815313 260.783701)scale(0.1 -0.1)">
       <defs>
        <path id="DejaVuSans-39" d="M 703 97 
L 703 672 
Q 941 559 1184 500 
Q 1428 441 1663 441 
Q 2288 441 2617 861 
Q 2947 1281 2994 2138 
Q 2813 1869 2534 1725 
Q 2256 1581 1919 1581 
Q 1219 1581 811 2004 
Q 403 2428 403 3163 
Q 403 3881 828 4315 
Q 1253 4750 1959 4750 
Q 2769 4750 3195 4129 
Q 3622 3509 3622 2328 
Q 3622 1225 3098 567 
Q 2575 -91 1691 -91 
Q 1453 -91 1209 -44 
Q 966 3 703 97 
z
M 1959 2075 
Q 2384 2075 2632 2365 
Q 2881 2656 2881 3163 
Q 2881 3666 2632 3958 
Q 2384 4250 1959 4250 
Q 1534 4250 1286 3958 
Q 1038 3666 1038 3163 
Q 1038 2656 1286 2365 
Q 1534 2075 1959 2075 
z
" transform="scale(0.015625)"/>
       </defs>
       <use xlink:href="#DejaVuSans-2212"/>
       <use xlink:href="#DejaVuSans-39" x="83.789062"/>
       <use xlink:href="#DejaVuSans-35" x="147.412109"/>
      </g>
     </g>
    </g>
    <g id="ytick_8">
     <g id="line2d_14">
      <g>
       <use xlink:href="#m72608c6a6f" x="54.92" y="229.559197" style="stroke: #000000; stroke-width: 0.8"/>
      </g>
     </g>
     <g id="text_12">
      <!-- −90 -->
      <g transform="translate(26.815313 233.358416)scale(0.1 -0.1)">
       <use xlink:href="#DejaVuSans-2212"/>
       <use xlink:href="#DejaVuSans-39" x="83.789062"/>
       <use xlink:href="#DejaVuSans-30" x="147.412109"/>
      </g>
     </g>
    </g>
    <g id="ytick_9">
     <g id="line2d_15">
      <g>
       <use xlink:href="#m72608c6a6f" x="54.92" y="202.133912" style="stroke: #000000; stroke-width: 0.8"/>
      </g>
     </g>
     <g id="text_13">
      <!-- −85 -->
      <g transform="translate(26.815313 205.933131)scale(0.1 -0.1)">
       <defs>
        <path id="DejaVuSans-38" d="M 2034 2216 
Q 1584 2216 1326 1975 
Q 1069 1734 1069 1313 
Q 1069 891 1326 650 
Q 1584 409 2034 409 
Q 2484 409 2743 651 
Q 3003 894 3003 1313 
Q 3003 1734 2745 1975 
Q 2488 2216 2034 2216 
z
M 1403 2484 
Q 997 2584 770 2862 
Q 544 3141 544 3541 
Q 544 4100 942 4425 
Q 1341 4750 2034 4750 
Q 2731 4750 3128 4425 
Q 3525 4100 3525 3541 
Q 3525 3141 3298 2862 
Q 3072 2584 2669 2484 
Q 3125 2378 3379 2068 
Q 3634 1759 3634 1313 
Q 3634 634 3220 271 
Q 2806 -91 2034 -91 
Q 1263 -91 848 271 
Q 434 634 434 1313 
Q 434 1759 690 2068 
Q 947 2378 1403 2484 
z
M 1172 3481 
Q 1172 3119 1398 2916 
Q 1625 2713 2034 2713 
Q 2441 2713 2670 2916 
Q 2900 3119 2900 3481 
Q 2900 3844 2670 4047 
Q 2441 4250 2034 4250 
Q 1625 4250 1398 4047 
Q 1172 3844 1172 3481 
z
" transform="scale(0.015625)"/>
       </defs>
       <use xlink:href="#DejaVuSans-2212"/>
       <use xlink:href="#DejaVuSans-38" x="83.789062"/>
       <use xlink:href="#DejaVuSans-35" x="147.412109"/>
      </g>
     </g>
    </g>
    <g id="text_14">
     <!-- roll [°] -->
     <g transform="translate(19.279844 253.788742)rotate(-90)scale(0.17 -0.17)">
      <defs>
       <path id="DejaVuSans-6c" d="M 603 4863 
L 1178 4863 
L 1178 0 
L 603 0 
L 603 4863 
z
" transform="scale(0.015625)"/>
      </defs>
      <use xlink:href="#DejaVuSans-72"/>
      <use xlink:href="#DejaVuSans-6f" x="38.863281"/>
      <use xlink:href="#DejaVuSans-6c" x="100.044922"/>
      <use xlink:href="#DejaVuSans-6c" x="127.828125"/>
      <use xlink:href="#DejaVuSans-20" x="155.611328"/>
      <use xlink:href="#DejaVuSans-5b" x="187.398438"/>
      <use xlink:href="#DejaVuSans-b0" x="226.412109"/>
      <use xlink:href="#DejaVuSans-5d" x="276.412109"/>
     </g>
    </g>
   </g>
   <g id="line2d_16">
    <path d="M 71.152727 262.554161 
L 72.052047 252.860979 
L 72.951367 249.844006 
L 73.850687 254.572789 
L 75.649328 240.313738 
L 77.447968 233.991468 
L 78.347288 231.415097 
L 79.246608 229.852037 
L 80.145928 227.572462 
L 81.045248 226.51514 
L 82.843888 222.8937 
L 83.743208 220.36727 
L 84.642528 220.737594 
L 85.541848 218.885754 
L 86.441168 219.474134 
L 87.340489 218.655658 
L 88.239809 214.287538 
L 89.139129 212.198551 
L 90.038449 207.972153 
L 90.937769 207.806066 
L 91.837089 207.850338 
L 92.736409 203.001037 
L 93.635729 202.242521 
L 94.535049 209.166704 
L 96.333689 197.421958 
L 97.233009 197.037253 
L 98.132329 199.00269 
L 99.031649 196.062032 
L 99.93097 194.410591 
L 100.83029 194.973296 
L 101.72961 196.501423 
L 102.62893 197.753873 
L 103.52825 198.534205 
L 104.42757 203.183777 
L 105.32689 203.370017 
L 106.22621 200.752435 
L 107.12553 202.261388 
L 108.02485 201.896784 
L 108.92417 201.928286 
L 109.82349 203.167395 
L 110.72281 202.604403 
L 112.521451 206.187307 
L 113.420771 198.577145 
L 114.320091 195.424154 
L 115.219411 197.522836 
L 116.118731 212.011588 
L 117.018051 205.708334 
L 118.816691 194.360055 
L 119.716011 196.177988 
L 121.514651 221.518047 
L 123.313291 218.591116 
L 124.212611 216.738785 
L 125.111932 217.847306 
L 126.011252 216.469731 
L 126.910572 214.335599 
L 127.809892 213.374272 
L 128.709212 211.926227 
L 129.608532 211.155525 
L 130.507852 213.176292 
L 131.407172 215.583725 
L 132.306492 213.92536 
L 133.205812 214.211468 
L 134.105132 215.883632 
L 135.004452 218.253505 
L 135.903772 217.363962 
L 136.803092 216.840403 
L 137.702412 214.822529 
L 138.601733 214.68348 
L 139.501053 214.081599 
L 140.400373 215.431672 
L 141.299693 215.475219 
L 142.199013 216.449175 
L 143.098333 214.957706 
L 143.997653 214.862731 
L 144.896973 213.874331 
L 145.796293 213.816877 
L 146.695613 212.775879 
L 147.594933 218.363091 
L 148.494253 228.428831 
L 150.292893 222.121114 
L 151.192214 217.122405 
L 152.091534 211.145678 
L 152.990854 214.589545 
L 153.890174 209.437036 
L 154.789494 205.351935 
L 155.688814 203.428614 
L 156.588134 205.27673 
L 157.487454 200.679738 
L 158.386774 206.231565 
L 159.286094 201.343361 
L 160.185414 199.913411 
L 161.084734 201.287038 
L 161.984054 204.63539 
L 163.782695 214.313877 
L 164.682015 213.451962 
L 165.581335 214.731311 
L 166.480655 212.552768 
L 168.279295 208.835062 
L 169.178615 206.480223 
L 170.077935 204.851912 
L 170.977255 201.877293 
L 171.876575 200.380899 
L 172.775895 198.388092 
L 173.675215 197.04714 
L 174.574535 197.354351 
L 175.473855 195.654684 
L 176.373176 196.054099 
L 177.272496 198.175101 
L 178.171816 197.532751 
L 179.071136 197.73043 
L 179.970456 196.194658 
L 180.869776 197.74068 
L 181.769096 197.638978 
L 182.668416 198.501198 
L 183.567736 200.162127 
L 184.467056 201.536234 
L 185.366376 203.282821 
L 186.265696 203.826842 
L 188.064336 209.482321 
L 188.963657 209.989614 
L 189.862977 210.896441 
L 190.762297 210.017261 
L 191.661617 211.642261 
L 192.560937 211.909251 
L 193.460257 211.892519 
L 194.359577 212.907372 
L 195.258897 214.195659 
L 196.158217 214.234314 
L 197.057537 211.774216 
L 197.956857 212.715694 
L 198.856177 212.053845 
L 199.755497 211.539301 
L 200.654817 210.80237 
L 201.554137 211.863444 
L 202.453458 212.430924 
L 203.352778 215.6184 
L 204.252098 213.435335 
L 205.151418 214.959194 
L 206.050738 215.08747 
L 206.950058 208.348577 
L 208.748698 218.521271 
L 209.648018 212.675649 
L 210.547338 209.049033 
L 211.446658 208.901331 
L 212.345978 212.185865 
L 213.245298 213.572186 
L 214.144618 215.67719 
L 215.043939 220.386828 
L 215.943259 220.974541 
L 216.842579 222.246695 
L 217.741899 225.544922 
L 218.641219 224.608463 
L 219.540539 219.870381 
L 220.439859 219.736326 
L 221.339179 219.082405 
L 222.238499 218.598428 
L 223.137819 221.654653 
L 224.037139 220.148361 
L 224.936459 221.909355 
L 225.835779 222.203265 
L 226.735099 221.835253 
L 227.63442 222.107639 
L 228.53374 223.204241 
L 229.43306 220.722393 
L 230.33238 218.632077 
L 231.2317 218.095982 
L 232.13102 217.896507 
L 233.03034 218.51293 
L 233.92966 217.698411 
L 234.82898 217.368552 
L 235.7283 217.888977 
L 236.62762 215.031788 
L 237.52694 214.643728 
L 238.42626 212.295473 
L 239.32558 211.354726 
L 240.224901 209.552481 
L 241.124221 209.070907 
L 242.023541 206.877334 
L 242.922861 207.698609 
L 243.822181 209.907958 
L 244.721501 210.138131 
L 245.620821 212.935944 
L 246.520141 212.012366 
L 248.318781 212.971938 
L 249.218101 211.476933 
L 250.117421 211.232796 
L 251.016741 211.286985 
L 251.916061 214.019876 
L 252.815382 211.519848 
L 253.714702 211.256763 
L 254.614022 213.285135 
L 255.513342 211.417911 
L 256.412662 210.99435 
L 257.311982 206.004952 
L 258.211302 200.3805 
L 259.110622 202.684013 
L 260.009942 203.237647 
L 260.909262 203.628928 
L 261.808582 204.93958 
L 262.707902 207.354707 
L 263.607222 212.942856 
L 265.405863 220.825648 
L 266.305183 223.525869 
L 267.204503 223.727327 
L 268.103823 223.018354 
L 269.902463 228.134496 
L 270.801783 228.63789 
L 271.701103 228.207517 
L 272.600423 226.485397 
L 273.499743 228.785255 
L 274.399063 228.831885 
L 275.298383 230.946096 
L 276.197703 227.010778 
L 277.097023 227.138829 
L 277.996343 226.438246 
L 278.895664 227.267664 
L 279.794984 226.008345 
L 280.694304 228.099727 
L 281.593624 227.604782 
L 282.492944 226.039735 
L 283.392264 225.431212 
L 284.291584 225.327945 
L 285.190904 225.676998 
L 286.090224 225.626157 
L 286.989544 224.86363 
L 287.888864 222.831374 
L 288.788184 221.795213 
L 289.687504 217.12963 
L 290.586824 214.867134 
L 291.486145 210.152061 
L 292.385465 210.278414 
L 293.284785 207.544174 
L 294.184105 205.555567 
L 295.083425 207.881766 
L 295.982745 208.657308 
L 296.882065 208.28221 
L 297.781385 211.456966 
L 298.680705 213.315925 
L 299.580025 206.221493 
L 300.479345 201.061515 
L 301.378665 199.626375 
L 302.277985 199.831316 
L 303.177305 208.789009 
L 304.076626 215.504258 
L 304.975946 216.215454 
L 305.875266 214.30072 
L 306.774586 210.709148 
L 307.673906 208.610134 
L 308.573226 210.665474 
L 309.472546 211.461521 
L 311.271186 219.516758 
L 312.170506 217.564164 
L 313.069826 215.994526 
L 313.969146 218.210887 
L 314.868466 221.213826 
L 315.767786 222.693203 
L 316.667107 227.069584 
L 317.566427 230.363959 
L 318.465747 228.536028 
L 319.365067 223.138175 
L 320.264387 221.346817 
L 321.163707 220.610645 
L 322.063027 212.395832 
L 322.962347 206.252529 
L 325.660307 218.888655 
L 326.559627 218.250858 
L 327.458947 216.138135 
L 328.358267 216.877751 
L 329.257588 216.093677 
L 330.156908 220.719702 
L 331.056228 220.304909 
L 331.955548 221.854062 
L 332.854868 222.809551 
L 333.754188 224.672148 
L 334.653508 226.035077 
L 335.552828 227.986648 
L 336.452148 228.21191 
L 337.351468 231.107042 
L 338.250788 228.779051 
L 339.150108 229.407736 
L 340.948748 222.970503 
L 341.848068 221.260258 
L 342.747389 214.755568 
L 343.646709 210.752337 
L 344.546029 214.964243 
L 345.445349 220.327026 
L 346.344669 214.317044 
L 348.143309 216.483961 
L 349.042629 218.643629 
L 349.941949 220.410594 
L 350.841269 220.218767 
L 351.740589 223.282791 
L 352.639909 229.685729 
L 353.539229 228.810767 
L 354.438549 225.900812 
L 355.33787 227.429082 
L 356.23719 230.438484 
L 357.13651 229.736289 
L 358.03583 223.647323 
L 359.83447 218.720125 
L 360.73379 214.992484 
L 361.63311 217.151926 
L 362.53243 223.134901 
L 363.43175 225.708034 
L 364.33107 225.598408 
L 365.23039 225.870451 
L 366.12971 224.249706 
L 367.928351 223.720884 
L 368.827671 222.245173 
L 369.726991 218.995826 
L 370.626311 217.657797 
L 371.525631 218.604465 
L 372.424951 220.371776 
L 373.324271 220.172684 
L 374.223591 221.133692 
L 375.122911 219.669691 
L 376.022231 217.677143 
L 377.820871 218.185807 
L 378.720191 216.446151 
L 380.518832 210.342402 
L 381.418152 209.652544 
L 382.317472 209.248458 
L 383.216792 212.023547 
L 384.116112 213.179985 
L 385.015432 213.333819 
L 385.914752 215.237266 
L 386.814072 216.764363 
L 387.713392 214.689681 
L 388.612712 211.200372 
L 389.512032 213.539092 
L 390.411352 212.809083 
L 392.209992 212.019277 
L 393.109313 209.448404 
L 394.008633 209.994265 
L 394.907953 211.660211 
L 395.807273 210.465011 
L 395.807273 210.465011 
" clip-path="url(#p02466f4896)" style="fill: none; stroke: #008000; stroke-width: 1.5; stroke-linecap: square"/>
   </g>
   <g id="line2d_17">
    <path d="M 71.152727 262.554353 
L 72.052047 253.467516 
L 72.951367 249.789884 
L 73.850687 254.864997 
L 74.750008 248.118139 
L 75.649328 239.370236 
L 76.548648 234.447456 
L 77.447968 232.884027 
L 78.347288 230.577226 
L 79.246608 226.566605 
L 80.145928 225.768693 
L 81.045248 224.640158 
L 81.944568 223.236558 
L 82.843888 220.624102 
L 83.743208 217.574972 
L 84.642528 218.936329 
L 85.541848 216.487696 
L 87.340489 215.401253 
L 88.239809 211.813068 
L 89.139129 209.291847 
L 90.038449 205.328477 
L 90.937769 205.050223 
L 91.837089 205.108937 
L 92.736409 199.857481 
L 93.635729 199.410058 
L 94.535049 205.137013 
L 95.434369 200.658543 
L 96.333689 194.327744 
L 97.233009 192.736498 
L 98.132329 196.1053 
L 99.031649 193.523584 
L 99.93097 191.720913 
L 100.83029 191.401412 
L 101.72961 193.66215 
L 102.62893 194.479082 
L 103.52825 195.491508 
L 104.42757 201.075724 
L 105.32689 201.592184 
L 106.22621 198.995121 
L 107.12553 200.619194 
L 108.02485 199.959415 
L 108.92417 201.179529 
L 109.82349 200.6527 
L 111.62213 201.973162 
L 112.521451 204.035307 
L 113.420771 197.34162 
L 114.320091 194.410229 
L 115.219411 195.658448 
L 116.118731 209.347159 
L 117.917371 199.140094 
L 118.816691 194.767795 
L 119.716011 194.722115 
L 120.615331 205.758431 
L 121.514651 220.245179 
L 122.413971 219.415963 
L 124.212611 216.525138 
L 125.111932 217.489193 
L 126.011252 216.702487 
L 126.910572 214.707972 
L 127.809892 214.318773 
L 128.709212 212.300681 
L 129.608532 211.211264 
L 130.507852 213.409947 
L 131.407172 215.943405 
L 132.306492 214.580675 
L 133.205812 214.699745 
L 134.105132 216.370906 
L 135.004452 219.039645 
L 135.903772 217.893304 
L 136.803092 217.670893 
L 137.702412 215.752197 
L 138.601733 215.286782 
L 139.501053 214.64747 
L 140.400373 215.874342 
L 142.199013 217.060941 
L 143.098333 215.366411 
L 143.997653 215.940772 
L 144.896973 215.913352 
L 145.796293 214.319719 
L 146.695613 213.060542 
L 147.594933 218.51258 
L 148.494253 228.457868 
L 149.393573 227.467686 
L 150.292893 223.125347 
L 152.091534 210.615691 
L 152.990854 213.704271 
L 154.789494 204.461636 
L 155.688814 203.534481 
L 156.588134 205.03157 
L 157.487454 199.404147 
L 158.386774 205.04198 
L 159.286094 200.082029 
L 160.185414 198.688102 
L 161.084734 199.946599 
L 161.984054 203.499031 
L 162.883374 207.655015 
L 163.782695 212.868569 
L 164.682015 212.531275 
L 165.581335 213.676296 
L 166.480655 212.293973 
L 167.379975 210.319441 
L 168.279295 208.046191 
L 169.178615 206.507011 
L 170.077935 204.426181 
L 170.977255 201.411893 
L 171.876575 199.837797 
L 172.775895 197.99232 
L 173.675215 196.640012 
L 174.574535 196.945924 
L 175.473855 194.385617 
L 176.373176 195.038451 
L 177.272496 197.509386 
L 178.171816 196.264908 
L 179.071136 196.813869 
L 179.970456 195.691433 
L 180.869776 196.718015 
L 181.769096 196.801648 
L 183.567736 199.295556 
L 185.366376 202.921461 
L 186.265696 203.218632 
L 187.165016 206.564406 
L 188.064336 209.272775 
L 188.963657 209.577308 
L 189.862977 210.73562 
L 190.762297 209.154509 
L 191.661617 211.386621 
L 192.560937 211.228886 
L 193.460257 211.371029 
L 194.359577 212.125797 
L 195.258897 213.636916 
L 196.158217 213.882725 
L 197.057537 211.841105 
L 197.956857 212.237421 
L 198.856177 211.80232 
L 200.654817 209.699537 
L 201.554137 210.512899 
L 203.352778 214.536186 
L 204.252098 214.936277 
L 205.151418 215.508564 
L 206.050738 215.026391 
L 206.950058 208.372932 
L 207.849378 214.104812 
L 208.748698 218.001812 
L 209.648018 211.861857 
L 210.547338 208.792477 
L 211.446658 209.866255 
L 213.245298 213.073322 
L 214.144618 215.231922 
L 215.043939 219.914251 
L 215.943259 221.235632 
L 216.842579 222.012456 
L 217.741899 225.408402 
L 218.641219 224.335079 
L 219.540539 220.012934 
L 220.439859 219.877685 
L 221.339179 220.369677 
L 222.238499 218.780876 
L 223.137819 220.387423 
L 224.037139 220.347854 
L 224.936459 221.012511 
L 225.835779 222.2163 
L 226.735099 222.360417 
L 227.63442 221.913286 
L 228.53374 222.79294 
L 229.43306 220.782463 
L 230.33238 218.415936 
L 231.2317 218.425378 
L 232.13102 218.210577 
L 233.03034 218.379338 
L 233.92966 218.107739 
L 234.82898 218.165195 
L 235.7283 217.885894 
L 236.62762 215.922304 
L 237.52694 214.673377 
L 238.42626 212.22217 
L 240.224901 209.717895 
L 241.124221 208.119692 
L 242.023541 206.105098 
L 242.922861 206.707973 
L 243.822181 209.120002 
L 244.721501 208.735398 
L 245.620821 212.125123 
L 246.520141 211.730912 
L 247.419461 211.864682 
L 248.318781 213.068587 
L 249.218101 210.61479 
L 250.117421 210.470657 
L 251.016741 210.695423 
L 251.916061 212.34094 
L 252.815382 211.080413 
L 253.714702 210.052568 
L 254.614022 211.18867 
L 255.513342 210.384628 
L 256.412662 209.750543 
L 258.211302 199.076372 
L 259.110622 200.41904 
L 260.009942 200.954693 
L 260.909262 200.842626 
L 261.808582 201.932604 
L 262.707902 205.49494 
L 263.607222 211.742061 
L 264.506542 215.371038 
L 265.405863 218.086538 
L 266.305183 221.472218 
L 267.204503 221.908646 
L 268.103823 220.706308 
L 269.902463 227.2578 
L 270.801783 227.447385 
L 271.701103 227.323654 
L 272.600423 225.122549 
L 273.499743 227.307759 
L 274.399063 227.855607 
L 275.298383 230.461352 
L 276.197703 225.656818 
L 277.097023 226.525683 
L 277.996343 225.260715 
L 278.895664 226.065012 
L 279.794984 224.722347 
L 280.694304 226.526097 
L 281.593624 225.769561 
L 282.492944 224.507085 
L 283.392264 223.864364 
L 284.291584 224.057307 
L 285.190904 224.056345 
L 286.090224 223.862353 
L 286.989544 222.650978 
L 287.888864 221.224862 
L 288.788184 220.125067 
L 289.687504 216.286346 
L 290.586824 213.090228 
L 291.486145 208.435184 
L 292.385465 207.498735 
L 293.284785 206.212998 
L 294.184105 204.534055 
L 295.083425 207.342742 
L 295.982745 206.555682 
L 296.882065 207.56124 
L 297.781385 210.543711 
L 298.680705 212.73286 
L 299.580025 205.834708 
L 300.479345 197.258195 
L 301.378665 197.698074 
L 302.277985 196.336288 
L 303.177305 207.157975 
L 304.076626 214.403761 
L 304.975946 216.419425 
L 305.875266 214.598978 
L 306.774586 209.242066 
L 307.673906 207.260026 
L 308.573226 208.589514 
L 309.472546 209.641586 
L 311.271186 218.032794 
L 313.069826 215.348626 
L 313.969146 217.271969 
L 314.868466 220.29862 
L 315.767786 221.452953 
L 316.667107 226.446888 
L 317.566427 229.721341 
L 318.465747 228.636672 
L 319.365067 222.442105 
L 320.264387 220.921272 
L 321.163707 220.087258 
L 322.063027 211.335434 
L 322.962347 204.994293 
L 323.861667 208.855198 
L 324.760987 213.637717 
L 325.660307 217.173201 
L 326.559627 217.163206 
L 327.458947 214.817976 
L 328.358267 216.046015 
L 329.257588 215.605219 
L 330.156908 219.168648 
L 331.056228 219.824842 
L 331.955548 221.59557 
L 332.854868 222.451143 
L 335.552828 227.616155 
L 336.452148 227.444284 
L 337.351468 230.117898 
L 338.250788 229.641904 
L 339.150108 228.954573 
L 340.049428 227.305553 
L 340.948748 222.600789 
L 341.848068 220.385013 
L 342.747389 213.960727 
L 343.646709 209.674734 
L 344.546029 213.862887 
L 345.445349 220.614063 
L 346.344669 213.553523 
L 347.243989 214.695637 
L 349.042629 218.202856 
L 349.941949 219.249495 
L 350.841269 218.796318 
L 351.740589 221.542989 
L 352.639909 228.770454 
L 353.539229 227.74688 
L 354.438549 225.04402 
L 355.33787 225.836188 
L 356.23719 228.176122 
L 357.13651 227.723896 
L 358.03583 222.087218 
L 359.83447 216.229761 
L 360.73379 212.715126 
L 361.63311 214.956535 
L 362.53243 220.257345 
L 363.43175 223.336514 
L 364.33107 223.656635 
L 365.23039 224.249961 
L 366.12971 222.223531 
L 367.928351 221.137696 
L 368.827671 220.066611 
L 369.726991 216.621589 
L 370.626311 215.077945 
L 371.525631 216.082922 
L 372.424951 217.863427 
L 373.324271 217.773584 
L 374.223591 218.687955 
L 375.122911 217.00118 
L 376.022231 214.927992 
L 376.921551 215.470677 
L 377.820871 215.315791 
L 378.720191 213.645122 
L 379.619511 209.866857 
L 380.518832 206.951838 
L 381.418152 206.596879 
L 382.317472 205.740888 
L 384.116112 209.321237 
L 385.015432 209.564688 
L 385.914752 212.397558 
L 386.814072 213.505436 
L 387.713392 211.203759 
L 388.612712 207.824692 
L 389.512032 210.417484 
L 390.411352 209.000707 
L 391.310672 208.895457 
L 392.209992 208.43553 
L 393.109313 206.248289 
L 394.008633 206.581922 
L 394.907953 208.381843 
L 395.807273 206.966895 
L 395.807273 206.966895 
" clip-path="url(#p02466f4896)" style="fill: none; stroke: #ff0000; stroke-width: 1.5; stroke-linecap: square"/>
   </g>
   <g id="patch_14">
    <path d="M 54.92 266.112 
L 54.92 187.843765 
" style="fill: none; stroke: #000000; stroke-width: 0.8; stroke-linejoin: miter; stroke-linecap: square"/>
   </g>
   <g id="patch_15">
    <path d="M 412.04 266.112 
L 412.04 187.843765 
" style="fill: none; stroke: #000000; stroke-width: 0.8; stroke-linejoin: miter; stroke-linecap: square"/>
   </g>
   <g id="patch_16">
    <path d="M 54.92 266.112 
L 412.04 266.112 
" style="fill: none; stroke: #000000; stroke-width: 0.8; stroke-linejoin: miter; stroke-linecap: square"/>
   </g>
   <g id="patch_17">
    <path d="M 54.92 187.843765 
L 412.04 187.843765 
" style="fill: none; stroke: #000000; stroke-width: 0.8; stroke-linejoin: miter; stroke-linecap: square"/>
   </g>
  </g>
 </g>
 <defs>
  <clipPath id="p3e33e22126">
   <rect x="54.92" y="0" width="357.12" height="78.268235"/>
  </clipPath>
  <clipPath id="p71c29e5550">
   <rect x="54.92" y="93.921882" width="357.12" height="78.268235"/>
  </clipPath>
  <clipPath id="p02466f4896">
   <rect x="54.92" y="187.843765" width="357.12" height="78.268235"/>
  </clipPath>
 </defs>
</svg>
