<?xml version="1.0" encoding="utf-8" standalone="no"?>
<!DOCTYPE svg PUBLIC "-//W3C//DTD SVG 1.1//EN"
  "http://www.w3.org/Graphics/SVG/1.1/DTD/svg11.dtd">
<svg xmlns:xlink="http://www.w3.org/1999/xlink" width="412.04pt" height="269.612pt" viewBox="0 0 412.04 269.612" xmlns="http://www.w3.org/2000/svg" version="1.1">
 <metadata>
  <rdf:RDF xmlns:dc="http://purl.org/dc/elements/1.1/" xmlns:cc="http://creativecommons.org/ns#" xmlns:rdf="http://www.w3.org/1999/02/22-rdf-syntax-ns#">
   <cc:Work>
    <dc:type rdf:resource="http://purl.org/dc/dcmitype/StillImage"/>
    <dc:date>2022-02-10T00:11:52.609212</dc:date>
    <dc:format>image/svg+xml</dc:format>
    <dc:creator>
     <cc:Agent>
      <dc:title>Matplotlib v3.5.1, https://matplotlib.org/</dc:title>
     </cc:Agent>
    </dc:creator>
   </cc:Work>
  </rdf:RDF>
 </metadata>
 <defs>
  <style type="text/css">*{stroke-linejoin: round; stroke-linecap: butt}</style>
 </defs>
 <g id="figure_1">
  <g id="patch_1">
   <path d="M 0 269.612 
L 412.04 269.612 
L 412.04 0 
L 0 0 
z
" style="fill: #ffffff"/>
  </g>
  <g id="axes_1">
   <g id="patch_2">
    <path d="M 54.92 78.268235 
L 412.04 78.268235 
L 412.04 0 
L 54.92 0 
z
" style="fill: #ffffff"/>
   </g>
   <g id="matplotlib.axis_1"/>
   <g id="matplotlib.axis_2">
    <g id="ytick_1">
     <g id="line2d_1">
      <defs>
       <path id="m111d14a62f" d="M 0 0 
L -3.5 0 
" style="stroke: #000000; stroke-width: 0.8"/>
      </defs>
      <g>
       <use xlink:href="#m111d14a62f" x="54.92" y="58.879918" style="stroke: #000000; stroke-width: 0.8"/>
      </g>
     </g>
     <g id="text_1">
      <!-- −130 -->
      <g transform="translate(20.452813 62.679136)scale(0.1 -0.1)">
       <defs>
        <path id="DejaVuSans-2212" d="M 678 2272 
L 4684 2272 
L 4684 1741 
L 678 1741 
L 678 2272 
z
" transform="scale(0.015625)"/>
        <path id="DejaVuSans-31" d="M 794 531 
L 1825 531 
L 1825 4091 
L 703 3866 
L 703 4441 
L 1819 4666 
L 2450 4666 
L 2450 531 
L 3481 531 
L 3481 0 
L 794 0 
L 794 531 
z
" transform="scale(0.015625)"/>
        <path id="DejaVuSans-33" d="M 2597 2516 
Q 3050 2419 3304 2112 
Q 3559 1806 3559 1356 
Q 3559 666 3084 287 
Q 2609 -91 1734 -91 
Q 1441 -91 1130 -33 
Q 819 25 488 141 
L 488 750 
Q 750 597 1062 519 
Q 1375 441 1716 441 
Q 2309 441 2620 675 
Q 2931 909 2931 1356 
Q 2931 1769 2642 2001 
Q 2353 2234 1838 2234 
L 1294 2234 
L 1294 2753 
L 1863 2753 
Q 2328 2753 2575 2939 
Q 2822 3125 2822 3475 
Q 2822 3834 2567 4026 
Q 2313 4219 1838 4219 
Q 1578 4219 1281 4162 
Q 984 4106 628 3988 
L 628 4550 
Q 988 4650 1302 4700 
Q 1616 4750 1894 4750 
Q 2613 4750 3031 4423 
Q 3450 4097 3450 3541 
Q 3450 3153 3228 2886 
Q 3006 2619 2597 2516 
z
" transform="scale(0.015625)"/>
        <path id="DejaVuSans-30" d="M 2034 4250 
Q 1547 4250 1301 3770 
Q 1056 3291 1056 2328 
Q 1056 1369 1301 889 
Q 1547 409 2034 409 
Q 2525 409 2770 889 
Q 3016 1369 3016 2328 
Q 3016 3291 2770 3770 
Q 2525 4250 2034 4250 
z
M 2034 4750 
Q 2819 4750 3233 4129 
Q 3647 3509 3647 2328 
Q 3647 1150 3233 529 
Q 2819 -91 2034 -91 
Q 1250 -91 836 529 
Q 422 1150 422 2328 
Q 422 3509 836 4129 
Q 1250 4750 2034 4750 
z
" transform="scale(0.015625)"/>
       </defs>
       <use xlink:href="#DejaVuSans-2212"/>
       <use xlink:href="#DejaVuSans-31" x="83.789062"/>
       <use xlink:href="#DejaVuSans-33" x="147.412109"/>
       <use xlink:href="#DejaVuSans-30" x="211.035156"/>
      </g>
     </g>
    </g>
    <g id="ytick_2">
     <g id="line2d_2">
      <g>
       <use xlink:href="#m111d14a62f" x="54.92" y="38.577284" style="stroke: #000000; stroke-width: 0.8"/>
      </g>
     </g>
     <g id="text_2">
      <!-- −120 -->
      <g transform="translate(20.452813 42.376503)scale(0.1 -0.1)">
       <defs>
        <path id="DejaVuSans-32" d="M 1228 531 
L 3431 531 
L 3431 0 
L 469 0 
L 469 531 
Q 828 903 1448 1529 
Q 2069 2156 2228 2338 
Q 2531 2678 2651 2914 
Q 2772 3150 2772 3378 
Q 2772 3750 2511 3984 
Q 2250 4219 1831 4219 
Q 1534 4219 1204 4116 
Q 875 4013 500 3803 
L 500 4441 
Q 881 4594 1212 4672 
Q 1544 4750 1819 4750 
Q 2544 4750 2975 4387 
Q 3406 4025 3406 3419 
Q 3406 3131 3298 2873 
Q 3191 2616 2906 2266 
Q 2828 2175 2409 1742 
Q 1991 1309 1228 531 
z
" transform="scale(0.015625)"/>
       </defs>
       <use xlink:href="#DejaVuSans-2212"/>
       <use xlink:href="#DejaVuSans-31" x="83.789062"/>
       <use xlink:href="#DejaVuSans-32" x="147.412109"/>
       <use xlink:href="#DejaVuSans-30" x="211.035156"/>
      </g>
     </g>
    </g>
    <g id="ytick_3">
     <g id="line2d_3">
      <g>
       <use xlink:href="#m111d14a62f" x="54.92" y="18.274651" style="stroke: #000000; stroke-width: 0.8"/>
      </g>
     </g>
     <g id="text_3">
      <!-- −110 -->
      <g transform="translate(20.452813 22.073869)scale(0.1 -0.1)">
       <use xlink:href="#DejaVuSans-2212"/>
       <use xlink:href="#DejaVuSans-31" x="83.789062"/>
       <use xlink:href="#DejaVuSans-31" x="147.412109"/>
       <use xlink:href="#DejaVuSans-30" x="211.035156"/>
      </g>
     </g>
    </g>
    <g id="text_4">
     <!-- yaw [°] -->
     <g transform="translate(12.917344 69.90943)rotate(-90)scale(0.17 -0.17)">
      <defs>
       <path id="DejaVuSans-79" d="M 2059 -325 
Q 1816 -950 1584 -1140 
Q 1353 -1331 966 -1331 
L 506 -1331 
L 506 -850 
L 844 -850 
Q 1081 -850 1212 -737 
Q 1344 -625 1503 -206 
L 1606 56 
L 191 3500 
L 800 3500 
L 1894 763 
L 2988 3500 
L 3597 3500 
L 2059 -325 
z
" transform="scale(0.015625)"/>
       <path id="DejaVuSans-61" d="M 2194 1759 
Q 1497 1759 1228 1600 
Q 959 1441 959 1056 
Q 959 750 1161 570 
Q 1363 391 1709 391 
Q 2188 391 2477 730 
Q 2766 1069 2766 1631 
L 2766 1759 
L 2194 1759 
z
M 3341 1997 
L 3341 0 
L 2766 0 
L 2766 531 
Q 2569 213 2275 61 
Q 1981 -91 1556 -91 
Q 1019 -91 701 211 
Q 384 513 384 1019 
Q 384 1609 779 1909 
Q 1175 2209 1959 2209 
L 2766 2209 
L 2766 2266 
Q 2766 2663 2505 2880 
Q 2244 3097 1772 3097 
Q 1472 3097 1187 3025 
Q 903 2953 641 2809 
L 641 3341 
Q 956 3463 1253 3523 
Q 1550 3584 1831 3584 
Q 2591 3584 2966 3190 
Q 3341 2797 3341 1997 
z
" transform="scale(0.015625)"/>
       <path id="DejaVuSans-77" d="M 269 3500 
L 844 3500 
L 1563 769 
L 2278 3500 
L 2956 3500 
L 3675 769 
L 4391 3500 
L 4966 3500 
L 4050 0 
L 3372 0 
L 2619 2869 
L 1863 0 
L 1184 0 
L 269 3500 
z
" transform="scale(0.015625)"/>
       <path id="DejaVuSans-20" transform="scale(0.015625)"/>
       <path id="DejaVuSans-5b" d="M 550 4863 
L 1875 4863 
L 1875 4416 
L 1125 4416 
L 1125 -397 
L 1875 -397 
L 1875 -844 
L 550 -844 
L 550 4863 
z
" transform="scale(0.015625)"/>
       <path id="DejaVuSans-b0" d="M 1600 4347 
Q 1350 4347 1178 4173 
Q 1006 4000 1006 3750 
Q 1006 3503 1178 3333 
Q 1350 3163 1600 3163 
Q 1850 3163 2022 3333 
Q 2194 3503 2194 3750 
Q 2194 3997 2020 4172 
Q 1847 4347 1600 4347 
z
M 1600 4750 
Q 1800 4750 1984 4673 
Q 2169 4597 2303 4453 
Q 2447 4313 2519 4134 
Q 2591 3956 2591 3750 
Q 2591 3338 2302 3052 
Q 2013 2766 1594 2766 
Q 1172 2766 890 3047 
Q 609 3328 609 3750 
Q 609 4169 896 4459 
Q 1184 4750 1600 4750 
z
" transform="scale(0.015625)"/>
       <path id="DejaVuSans-5d" d="M 1947 4863 
L 1947 -844 
L 622 -844 
L 622 -397 
L 1369 -397 
L 1369 4416 
L 622 4416 
L 622 4863 
L 1947 4863 
z
" transform="scale(0.015625)"/>
      </defs>
      <use xlink:href="#DejaVuSans-79"/>
      <use xlink:href="#DejaVuSans-61" x="59.179688"/>
      <use xlink:href="#DejaVuSans-77" x="120.458984"/>
      <use xlink:href="#DejaVuSans-20" x="202.246094"/>
      <use xlink:href="#DejaVuSans-5b" x="234.033203"/>
      <use xlink:href="#DejaVuSans-b0" x="273.046875"/>
      <use xlink:href="#DejaVuSans-5d" x="323.046875"/>
     </g>
    </g>
   </g>
   <g id="line2d_4">
    <path d="M 71.152727 32.46466 
L 74.051429 30.03397 
L 76.95013 33.681826 
L 79.848831 44.105864 
L 82.747532 42.64788 
L 85.646234 41.79542 
L 88.544935 39.853311 
L 91.443636 31.771624 
L 94.342338 22.551932 
L 97.241039 23.035772 
L 100.13974 26.267048 
L 103.038442 33.660375 
L 105.937143 53.566362 
L 108.835844 53.418513 
L 111.734545 44.744348 
L 114.633247 11.511185 
L 117.531948 15.946278 
L 120.430649 22.231932 
L 123.329351 28.332504 
L 126.228052 33.979246 
L 129.126753 34.607122 
L 132.025455 42.31422 
L 134.924156 46.487931 
L 137.822857 31.474325 
L 140.721558 32.989928 
L 143.62026 28.017937 
L 146.518961 19.14923 
L 149.417662 6.351395 
L 152.316364 12.614982 
L 155.215065 18.448094 
L 158.113766 27.195841 
L 161.012468 35.207905 
L 163.911169 39.575926 
L 166.80987 35.684079 
L 169.708571 62.398135 
L 172.607273 60.421582 
L 175.505974 61.837155 
L 178.404675 63.468574 
L 181.303377 62.376657 
L 184.202078 61.198546 
L 187.100779 57.164813 
L 189.999481 54.994545 
L 192.898182 52.562507 
L 195.796883 50.275771 
L 198.695584 46.266785 
L 201.594286 42.353843 
L 204.492987 39.989453 
L 207.391688 38.423863 
L 210.29039 43.655179 
L 213.189091 48.361542 
L 216.087792 57.299113 
L 218.986494 56.653616 
L 221.885195 58.406421 
L 224.783896 60.30809 
L 227.682597 58.896054 
L 230.581299 55.758608 
L 233.48 56.515883 
L 236.378701 55.61041 
L 239.277403 55.655759 
L 242.176104 54.570931 
L 245.074805 50.230293 
L 247.973506 49.392299 
L 250.872208 50.034663 
L 253.770909 55.477008 
L 256.66961 56.93226 
L 259.568312 53.86046 
L 262.467013 64.240678 
L 265.365714 69.396674 
L 268.264416 63.222698 
L 271.163117 58.181104 
L 274.061818 52.049281 
L 276.960519 52.772019 
L 279.859221 49.721989 
L 282.757922 51.022605 
L 285.656623 47.327138 
L 288.555325 45.283404 
L 291.454026 47.71216 
L 294.352727 50.558619 
L 297.251429 50.517699 
L 300.15013 52.747862 
L 303.048831 58.956743 
L 305.947532 57.619299 
L 308.846234 53.276494 
L 311.744935 46.966054 
L 314.643636 51.117391 
L 317.542338 50.498833 
L 320.441039 50.996607 
L 323.33974 53.619178 
L 326.238442 59.103183 
L 329.137143 59.721434 
L 332.035844 56.092625 
L 334.934545 61.383737 
L 337.833247 62.823885 
L 340.731948 58.478685 
L 343.630649 54.680388 
L 346.529351 52.293684 
L 349.428052 51.644853 
L 352.326753 54.905076 
L 355.225455 58.316297 
L 358.124156 57.487633 
L 361.022857 64.402145 
L 363.921558 66.261598 
L 366.82026 66.900534 
L 369.718961 60.644448 
L 372.617662 62.783146 
L 375.516364 64.060459 
L 378.415065 63.991574 
L 381.313766 56.345866 
L 384.212468 55.36595 
L 387.111169 58.141302 
L 390.00987 58.763859 
L 392.908571 59.088761 
L 395.807273 58.968622 
" clip-path="url(#p43a9e104d1)" style="fill: none; stroke: #008000; stroke-width: 1.5; stroke-linecap: square"/>
   </g>
   <g id="line2d_5">
    <path d="M 71.152727 32.464729 
L 74.051429 30.052154 
L 76.95013 34.407707 
L 79.848831 44.989552 
L 82.747532 43.083034 
L 85.646234 42.411973 
L 88.544935 41.106346 
L 91.443636 32.058134 
L 94.342338 22.315202 
L 97.241039 22.944732 
L 100.13974 25.161044 
L 103.038442 32.815943 
L 105.937143 53.41516 
L 108.835844 52.633943 
L 111.734545 44.696806 
L 114.633247 11.244691 
L 117.531948 14.64614 
L 120.430649 21.446097 
L 123.329351 27.504134 
L 126.228052 31.107893 
L 129.126753 33.901718 
L 132.025455 42.677181 
L 134.924156 46.658458 
L 137.822857 30.952962 
L 140.721558 31.783555 
L 143.62026 26.422864 
L 146.518961 16.622661 
L 149.417662 3.557647 
L 152.316364 10.31325 
L 155.215065 16.201312 
L 158.113766 25.050479 
L 161.012468 33.52209 
L 163.911169 39.956582 
L 166.80987 33.72452 
L 169.708571 64.057184 
L 172.607273 63.293615 
L 175.505974 64.889005 
L 178.404675 66.468342 
L 181.303377 64.35749 
L 184.202078 63.023794 
L 187.100779 60.602095 
L 189.999481 58.577474 
L 192.898182 56.02373 
L 195.796883 53.504265 
L 198.695584 48.932312 
L 201.594286 44.460343 
L 204.492987 42.17244 
L 207.391688 41.309647 
L 210.29039 46.496692 
L 213.189091 51.765545 
L 216.087792 60.547083 
L 218.986494 59.870742 
L 221.885195 61.441047 
L 224.783896 63.422264 
L 227.682597 61.992673 
L 230.581299 59.283288 
L 233.48 59.290715 
L 236.378701 59.548166 
L 239.277403 59.390141 
L 242.176104 58.461506 
L 245.074805 55.073405 
L 247.973506 54.258763 
L 250.872208 55.104038 
L 253.770909 61.058061 
L 256.66961 62.701858 
L 259.568312 59.045537 
L 262.467013 69.517527 
L 265.365714 74.710588 
L 268.264416 68.251979 
L 271.163117 63.341735 
L 274.061818 57.247278 
L 276.960519 57.696665 
L 279.859221 54.329556 
L 282.757922 55.909934 
L 285.656623 52.094687 
L 288.555325 51.160421 
L 291.454026 53.691661 
L 294.352727 56.377158 
L 297.251429 56.678377 
L 300.15013 58.141835 
L 303.048831 63.455405 
L 305.947532 63.46906 
L 308.846234 59.337509 
L 311.744935 52.966177 
L 314.643636 56.771849 
L 317.542338 55.094517 
L 320.441039 54.684009 
L 323.33974 58.935401 
L 326.238442 64.20834 
L 329.137143 64.518715 
L 332.035844 61.727059 
L 334.934545 66.349464 
L 337.833247 68.093946 
L 340.731948 63.102403 
L 343.630649 58.415941 
L 346.529351 55.442511 
L 349.428052 55.168334 
L 352.326753 58.732581 
L 355.225455 62.877954 
L 358.124156 61.194725 
L 361.022857 67.947895 
L 363.921558 69.236427 
L 366.82026 69.771092 
L 369.718961 63.803859 
L 372.617662 65.050531 
L 375.516364 65.209991 
L 378.415065 64.574254 
L 381.313766 58.106014 
L 384.212468 54.528067 
L 387.111169 57.329957 
L 390.00987 58.035078 
L 392.908571 59.194011 
L 395.807273 58.72301 
" clip-path="url(#p43a9e104d1)" style="fill: none; stroke: #ff0000; stroke-width: 1.5; stroke-linecap: square"/>
   </g>
   <g id="patch_3">
    <path d="M 54.92 78.268235 
L 54.92 0 
" style="fill: none; stroke: #000000; stroke-width: 0.8; stroke-linejoin: miter; stroke-linecap: square"/>
   </g>
   <g id="patch_4">
    <path d="M 412.04 78.268235 
L 412.04 0 
" style="fill: none; stroke: #000000; stroke-width: 0.8; stroke-linejoin: miter; stroke-linecap: square"/>
   </g>
   <g id="patch_5">
    <path d="M 54.92 78.268235 
L 412.04 78.268235 
" style="fill: none; stroke: #000000; stroke-width: 0.8; stroke-linejoin: miter; stroke-linecap: square"/>
   </g>
   <g id="patch_6">
    <path d="M 54.92 0 
L 412.04 0 
" style="fill: none; stroke: #000000; stroke-width: 0.8; stroke-linejoin: miter; stroke-linecap: square"/>
   </g>
   <g id="legend_1">
    <g id="patch_7">
     <path d="M 235.234688 63.978438 
L 400.14 63.978438 
Q 403.54 63.978438 403.54 60.578438 
L 403.54 11.9 
Q 403.54 8.5 400.14 8.5 
L 235.234688 8.5 
Q 231.834688 8.5 231.834688 11.9 
L 231.834688 60.578438 
Q 231.834688 63.978438 235.234688 63.978438 
z
" style="fill: #ffffff; opacity: 0.8; stroke: #cccccc; stroke-linejoin: miter"/>
    </g>
    <g id="line2d_6">
     <path d="M 238.634688 22.267344 
L 255.634688 22.267344 
L 272.634688 22.267344 
" style="fill: none; stroke: #008000; stroke-width: 1.5; stroke-linecap: square"/>
    </g>
    <g id="text_5">
     <!-- ground_truth -->
     <g transform="translate(286.234688 28.217344)scale(0.17 -0.17)">
      <defs>
       <path id="DejaVuSans-67" d="M 2906 1791 
Q 2906 2416 2648 2759 
Q 2391 3103 1925 3103 
Q 1463 3103 1205 2759 
Q 947 2416 947 1791 
Q 947 1169 1205 825 
Q 1463 481 1925 481 
Q 2391 481 2648 825 
Q 2906 1169 2906 1791 
z
M 3481 434 
Q 3481 -459 3084 -895 
Q 2688 -1331 1869 -1331 
Q 1566 -1331 1297 -1286 
Q 1028 -1241 775 -1147 
L 775 -588 
Q 1028 -725 1275 -790 
Q 1522 -856 1778 -856 
Q 2344 -856 2625 -561 
Q 2906 -266 2906 331 
L 2906 616 
Q 2728 306 2450 153 
Q 2172 0 1784 0 
Q 1141 0 747 490 
Q 353 981 353 1791 
Q 353 2603 747 3093 
Q 1141 3584 1784 3584 
Q 2172 3584 2450 3431 
Q 2728 3278 2906 2969 
L 2906 3500 
L 3481 3500 
L 3481 434 
z
" transform="scale(0.015625)"/>
       <path id="DejaVuSans-72" d="M 2631 2963 
Q 2534 3019 2420 3045 
Q 2306 3072 2169 3072 
Q 1681 3072 1420 2755 
Q 1159 2438 1159 1844 
L 1159 0 
L 581 0 
L 581 3500 
L 1159 3500 
L 1159 2956 
Q 1341 3275 1631 3429 
Q 1922 3584 2338 3584 
Q 2397 3584 2469 3576 
Q 2541 3569 2628 3553 
L 2631 2963 
z
" transform="scale(0.015625)"/>
       <path id="DejaVuSans-6f" d="M 1959 3097 
Q 1497 3097 1228 2736 
Q 959 2375 959 1747 
Q 959 1119 1226 758 
Q 1494 397 1959 397 
Q 2419 397 2687 759 
Q 2956 1122 2956 1747 
Q 2956 2369 2687 2733 
Q 2419 3097 1959 3097 
z
M 1959 3584 
Q 2709 3584 3137 3096 
Q 3566 2609 3566 1747 
Q 3566 888 3137 398 
Q 2709 -91 1959 -91 
Q 1206 -91 779 398 
Q 353 888 353 1747 
Q 353 2609 779 3096 
Q 1206 3584 1959 3584 
z
" transform="scale(0.015625)"/>
       <path id="DejaVuSans-75" d="M 544 1381 
L 544 3500 
L 1119 3500 
L 1119 1403 
Q 1119 906 1312 657 
Q 1506 409 1894 409 
Q 2359 409 2629 706 
Q 2900 1003 2900 1516 
L 2900 3500 
L 3475 3500 
L 3475 0 
L 2900 0 
L 2900 538 
Q 2691 219 2414 64 
Q 2138 -91 1772 -91 
Q 1169 -91 856 284 
Q 544 659 544 1381 
z
M 1991 3584 
L 1991 3584 
z
" transform="scale(0.015625)"/>
       <path id="DejaVuSans-6e" d="M 3513 2113 
L 3513 0 
L 2938 0 
L 2938 2094 
Q 2938 2591 2744 2837 
Q 2550 3084 2163 3084 
Q 1697 3084 1428 2787 
Q 1159 2491 1159 1978 
L 1159 0 
L 581 0 
L 581 3500 
L 1159 3500 
L 1159 2956 
Q 1366 3272 1645 3428 
Q 1925 3584 2291 3584 
Q 2894 3584 3203 3211 
Q 3513 2838 3513 2113 
z
" transform="scale(0.015625)"/>
       <path id="DejaVuSans-64" d="M 2906 2969 
L 2906 4863 
L 3481 4863 
L 3481 0 
L 2906 0 
L 2906 525 
Q 2725 213 2448 61 
Q 2172 -91 1784 -91 
Q 1150 -91 751 415 
Q 353 922 353 1747 
Q 353 2572 751 3078 
Q 1150 3584 1784 3584 
Q 2172 3584 2448 3432 
Q 2725 3281 2906 2969 
z
M 947 1747 
Q 947 1113 1208 752 
Q 1469 391 1925 391 
Q 2381 391 2643 752 
Q 2906 1113 2906 1747 
Q 2906 2381 2643 2742 
Q 2381 3103 1925 3103 
Q 1469 3103 1208 2742 
Q 947 2381 947 1747 
z
" transform="scale(0.015625)"/>
       <path id="DejaVuSans-5f" d="M 3263 -1063 
L 3263 -1509 
L -63 -1509 
L -63 -1063 
L 3263 -1063 
z
" transform="scale(0.015625)"/>
       <path id="DejaVuSans-74" d="M 1172 4494 
L 1172 3500 
L 2356 3500 
L 2356 3053 
L 1172 3053 
L 1172 1153 
Q 1172 725 1289 603 
Q 1406 481 1766 481 
L 2356 481 
L 2356 0 
L 1766 0 
Q 1100 0 847 248 
Q 594 497 594 1153 
L 594 3053 
L 172 3053 
L 172 3500 
L 594 3500 
L 594 4494 
L 1172 4494 
z
" transform="scale(0.015625)"/>
       <path id="DejaVuSans-68" d="M 3513 2113 
L 3513 0 
L 2938 0 
L 2938 2094 
Q 2938 2591 2744 2837 
Q 2550 3084 2163 3084 
Q 1697 3084 1428 2787 
Q 1159 2491 1159 1978 
L 1159 0 
L 581 0 
L 581 4863 
L 1159 4863 
L 1159 2956 
Q 1366 3272 1645 3428 
Q 1925 3584 2291 3584 
Q 2894 3584 3203 3211 
Q 3513 2838 3513 2113 
z
" transform="scale(0.015625)"/>
      </defs>
      <use xlink:href="#DejaVuSans-67"/>
      <use xlink:href="#DejaVuSans-72" x="63.476562"/>
      <use xlink:href="#DejaVuSans-6f" x="102.339844"/>
      <use xlink:href="#DejaVuSans-75" x="163.521484"/>
      <use xlink:href="#DejaVuSans-6e" x="226.900391"/>
      <use xlink:href="#DejaVuSans-64" x="290.279297"/>
      <use xlink:href="#DejaVuSans-5f" x="353.755859"/>
      <use xlink:href="#DejaVuSans-74" x="403.755859"/>
      <use xlink:href="#DejaVuSans-72" x="442.964844"/>
      <use xlink:href="#DejaVuSans-75" x="484.078125"/>
      <use xlink:href="#DejaVuSans-74" x="547.457031"/>
      <use xlink:href="#DejaVuSans-68" x="586.666016"/>
     </g>
    </g>
    <g id="line2d_7">
     <path d="M 238.634688 47.692969 
L 255.634688 47.692969 
L 272.634688 47.692969 
" style="fill: none; stroke: #ff0000; stroke-width: 1.5; stroke-linecap: square"/>
    </g>
    <g id="text_6">
     <!-- estimated -->
     <g transform="translate(286.234688 53.642969)scale(0.17 -0.17)">
      <defs>
       <path id="DejaVuSans-65" d="M 3597 1894 
L 3597 1613 
L 953 1613 
Q 991 1019 1311 708 
Q 1631 397 2203 397 
Q 2534 397 2845 478 
Q 3156 559 3463 722 
L 3463 178 
Q 3153 47 2828 -22 
Q 2503 -91 2169 -91 
Q 1331 -91 842 396 
Q 353 884 353 1716 
Q 353 2575 817 3079 
Q 1281 3584 2069 3584 
Q 2775 3584 3186 3129 
Q 3597 2675 3597 1894 
z
M 3022 2063 
Q 3016 2534 2758 2815 
Q 2500 3097 2075 3097 
Q 1594 3097 1305 2825 
Q 1016 2553 972 2059 
L 3022 2063 
z
" transform="scale(0.015625)"/>
       <path id="DejaVuSans-73" d="M 2834 3397 
L 2834 2853 
Q 2591 2978 2328 3040 
Q 2066 3103 1784 3103 
Q 1356 3103 1142 2972 
Q 928 2841 928 2578 
Q 928 2378 1081 2264 
Q 1234 2150 1697 2047 
L 1894 2003 
Q 2506 1872 2764 1633 
Q 3022 1394 3022 966 
Q 3022 478 2636 193 
Q 2250 -91 1575 -91 
Q 1294 -91 989 -36 
Q 684 19 347 128 
L 347 722 
Q 666 556 975 473 
Q 1284 391 1588 391 
Q 1994 391 2212 530 
Q 2431 669 2431 922 
Q 2431 1156 2273 1281 
Q 2116 1406 1581 1522 
L 1381 1569 
Q 847 1681 609 1914 
Q 372 2147 372 2553 
Q 372 3047 722 3315 
Q 1072 3584 1716 3584 
Q 2034 3584 2315 3537 
Q 2597 3491 2834 3397 
z
" transform="scale(0.015625)"/>
       <path id="DejaVuSans-69" d="M 603 3500 
L 1178 3500 
L 1178 0 
L 603 0 
L 603 3500 
z
M 603 4863 
L 1178 4863 
L 1178 4134 
L 603 4134 
L 603 4863 
z
" transform="scale(0.015625)"/>
       <path id="DejaVuSans-6d" d="M 3328 2828 
Q 3544 3216 3844 3400 
Q 4144 3584 4550 3584 
Q 5097 3584 5394 3201 
Q 5691 2819 5691 2113 
L 5691 0 
L 5113 0 
L 5113 2094 
Q 5113 2597 4934 2840 
Q 4756 3084 4391 3084 
Q 3944 3084 3684 2787 
Q 3425 2491 3425 1978 
L 3425 0 
L 2847 0 
L 2847 2094 
Q 2847 2600 2669 2842 
Q 2491 3084 2119 3084 
Q 1678 3084 1418 2786 
Q 1159 2488 1159 1978 
L 1159 0 
L 581 0 
L 581 3500 
L 1159 3500 
L 1159 2956 
Q 1356 3278 1631 3431 
Q 1906 3584 2284 3584 
Q 2666 3584 2933 3390 
Q 3200 3197 3328 2828 
z
" transform="scale(0.015625)"/>
      </defs>
      <use xlink:href="#DejaVuSans-65"/>
      <use xlink:href="#DejaVuSans-73" x="61.523438"/>
      <use xlink:href="#DejaVuSans-74" x="113.623047"/>
      <use xlink:href="#DejaVuSans-69" x="152.832031"/>
      <use xlink:href="#DejaVuSans-6d" x="180.615234"/>
      <use xlink:href="#DejaVuSans-61" x="278.027344"/>
      <use xlink:href="#DejaVuSans-74" x="339.306641"/>
      <use xlink:href="#DejaVuSans-65" x="378.515625"/>
      <use xlink:href="#DejaVuSans-64" x="440.039062"/>
     </g>
    </g>
   </g>
  </g>
  <g id="axes_2">
   <g id="patch_8">
    <path d="M 54.92 172.190118 
L 412.04 172.190118 
L 412.04 93.921882 
L 54.92 93.921882 
z
" style="fill: #ffffff"/>
   </g>
   <g id="matplotlib.axis_3"/>
   <g id="matplotlib.axis_4">
    <g id="ytick_4">
     <g id="line2d_8">
      <g>
       <use xlink:href="#m111d14a62f" x="54.92" y="144.851887" style="stroke: #000000; stroke-width: 0.8"/>
      </g>
     </g>
     <g id="text_7">
      <!-- 0 -->
      <g transform="translate(41.5575 148.651106)scale(0.1 -0.1)">
       <use xlink:href="#DejaVuSans-30"/>
      </g>
     </g>
    </g>
    <g id="ytick_5">
     <g id="line2d_9">
      <g>
       <use xlink:href="#m111d14a62f" x="54.92" y="114.63999" style="stroke: #000000; stroke-width: 0.8"/>
      </g>
     </g>
     <g id="text_8">
      <!-- 5 -->
      <g transform="translate(41.5575 118.439208)scale(0.1 -0.1)">
       <defs>
        <path id="DejaVuSans-35" d="M 691 4666 
L 3169 4666 
L 3169 4134 
L 1269 4134 
L 1269 2991 
Q 1406 3038 1543 3061 
Q 1681 3084 1819 3084 
Q 2600 3084 3056 2656 
Q 3513 2228 3513 1497 
Q 3513 744 3044 326 
Q 2575 -91 1722 -91 
Q 1428 -91 1123 -41 
Q 819 9 494 109 
L 494 744 
Q 775 591 1075 516 
Q 1375 441 1709 441 
Q 2250 441 2565 725 
Q 2881 1009 2881 1497 
Q 2881 1984 2565 2268 
Q 2250 2553 1709 2553 
Q 1456 2553 1204 2497 
Q 953 2441 691 2322 
L 691 4666 
z
" transform="scale(0.015625)"/>
       </defs>
       <use xlink:href="#DejaVuSans-35"/>
      </g>
     </g>
    </g>
    <g id="text_9">
     <!-- pitch [°] -->
     <g transform="translate(34.022031 167.790453)rotate(-90)scale(0.17 -0.17)">
      <defs>
       <path id="DejaVuSans-70" d="M 1159 525 
L 1159 -1331 
L 581 -1331 
L 581 3500 
L 1159 3500 
L 1159 2969 
Q 1341 3281 1617 3432 
Q 1894 3584 2278 3584 
Q 2916 3584 3314 3078 
Q 3713 2572 3713 1747 
Q 3713 922 3314 415 
Q 2916 -91 2278 -91 
Q 1894 -91 1617 61 
Q 1341 213 1159 525 
z
M 3116 1747 
Q 3116 2381 2855 2742 
Q 2594 3103 2138 3103 
Q 1681 3103 1420 2742 
Q 1159 2381 1159 1747 
Q 1159 1113 1420 752 
Q 1681 391 2138 391 
Q 2594 391 2855 752 
Q 3116 1113 3116 1747 
z
" transform="scale(0.015625)"/>
       <path id="DejaVuSans-63" d="M 3122 3366 
L 3122 2828 
Q 2878 2963 2633 3030 
Q 2388 3097 2138 3097 
Q 1578 3097 1268 2742 
Q 959 2388 959 1747 
Q 959 1106 1268 751 
Q 1578 397 2138 397 
Q 2388 397 2633 464 
Q 2878 531 3122 666 
L 3122 134 
Q 2881 22 2623 -34 
Q 2366 -91 2075 -91 
Q 1284 -91 818 406 
Q 353 903 353 1747 
Q 353 2603 823 3093 
Q 1294 3584 2113 3584 
Q 2378 3584 2631 3529 
Q 2884 3475 3122 3366 
z
" transform="scale(0.015625)"/>
      </defs>
      <use xlink:href="#DejaVuSans-70"/>
      <use xlink:href="#DejaVuSans-69" x="63.476562"/>
      <use xlink:href="#DejaVuSans-74" x="91.259766"/>
      <use xlink:href="#DejaVuSans-63" x="130.46875"/>
      <use xlink:href="#DejaVuSans-68" x="185.449219"/>
      <use xlink:href="#DejaVuSans-20" x="248.828125"/>
      <use xlink:href="#DejaVuSans-5b" x="280.615234"/>
      <use xlink:href="#DejaVuSans-b0" x="319.628906"/>
      <use xlink:href="#DejaVuSans-5d" x="369.628906"/>
     </g>
    </g>
   </g>
   <g id="line2d_10">
    <path d="M 71.152727 136.219653 
L 74.051429 143.673225 
L 76.95013 139.901153 
L 79.848831 145.600572 
L 82.747532 149.783174 
L 85.646234 145.723794 
L 88.544935 144.475861 
L 91.443636 141.975823 
L 94.342338 147.196903 
L 97.241039 141.115053 
L 100.13974 138.76763 
L 103.038442 148.966828 
L 105.937143 152.217078 
L 108.835844 150.38228 
L 111.734545 156.571613 
L 114.633247 136.741167 
L 117.531948 146.623631 
L 120.430649 144.767832 
L 123.329351 148.564544 
L 126.228052 152.660595 
L 129.126753 135.764862 
L 132.025455 139.43966 
L 134.924156 127.425505 
L 137.822857 140.686141 
L 140.721558 125.121923 
L 143.62026 127.991131 
L 146.518961 138.932025 
L 149.417662 138.477648 
L 152.316364 137.744088 
L 155.215065 128.674469 
L 158.113766 132.399443 
L 161.012468 141.380426 
L 163.911169 135.646025 
L 166.80987 130.892199 
L 169.708571 139.825121 
L 172.607273 139.113436 
L 175.505974 146.349229 
L 178.404675 147.08475 
L 181.303377 146.782937 
L 184.202078 152.762996 
L 187.100779 134.989606 
L 189.999481 146.160714 
L 192.898182 153.19456 
L 195.796883 143.73995 
L 198.695584 141.213468 
L 201.594286 143.868051 
L 204.492987 141.859334 
L 207.391688 149.740067 
L 210.29039 120.358642 
L 213.189091 111.715817 
L 216.087792 112.874797 
L 218.986494 115.392466 
L 221.885195 111.348099 
L 224.783896 115.844907 
L 227.682597 110.06156 
L 230.581299 104.231429 
L 233.48 113.177036 
L 236.378701 109.346015 
L 239.277403 110.903596 
L 242.176104 108.086116 
L 245.074805 101.792528 
L 247.973506 103.062414 
L 250.872208 109.4372 
L 253.770909 106.896826 
L 256.66961 102.257499 
L 259.568312 108.490606 
L 262.467013 137.324582 
L 265.365714 136.388702 
L 268.264416 137.701894 
L 271.163117 130.241017 
L 274.061818 141.299804 
L 276.960519 142.790991 
L 279.859221 142.333889 
L 282.757922 133.043539 
L 285.656623 112.411578 
L 288.555325 123.963035 
L 291.454026 112.044993 
L 294.352727 106.927749 
L 297.251429 98.545127 
L 300.15013 111.032451 
L 303.048831 112.922137 
L 305.947532 100.230099 
L 308.846234 112.255341 
L 311.744935 108.711069 
L 314.643636 120.716005 
L 317.542338 118.830976 
L 320.441039 125.923029 
L 323.33974 108.059688 
L 326.238442 110.818646 
L 329.137143 115.94296 
L 332.035844 112.44241 
L 334.934545 125.034272 
L 337.833247 125.123045 
L 340.731948 135.044347 
L 343.630649 123.612195 
L 346.529351 135.718201 
L 349.428052 138.110895 
L 352.326753 143.696252 
L 355.225455 139.624154 
L 358.124156 134.315151 
L 361.022857 128.442913 
L 363.921558 119.65939 
L 366.82026 121.994144 
L 369.718961 122.450064 
L 372.617662 132.061374 
L 375.516364 131.497443 
L 378.415065 128.670015 
L 381.313766 144.285892 
L 384.212468 150.622173 
L 387.111169 141.041061 
L 390.00987 139.187958 
L 392.908571 140.731993 
L 395.807273 139.817878 
" clip-path="url(#p75945f9a79)" style="fill: none; stroke: #008000; stroke-width: 1.5; stroke-linecap: square"/>
   </g>
   <g id="line2d_11">
    <path d="M 71.152727 136.219351 
L 74.051429 143.853439 
L 76.95013 139.352473 
L 79.848831 146.452542 
L 82.747532 150.377075 
L 85.646234 145.352774 
L 88.544935 144.332448 
L 91.443636 140.131202 
L 94.342338 145.298176 
L 97.241039 138.261822 
L 100.13974 136.241458 
L 103.038442 146.619552 
L 105.937143 148.813256 
L 108.835844 147.732696 
L 111.734545 157.42558 
L 114.633247 136.470115 
L 117.531948 146.356562 
L 120.430649 143.399823 
L 123.329351 148.817018 
L 126.228052 153.027403 
L 129.126753 136.545108 
L 132.025455 140.608833 
L 134.924156 129.825995 
L 137.822857 139.904169 
L 140.721558 126.426097 
L 143.62026 129.355643 
L 146.518961 142.332491 
L 149.417662 139.895626 
L 152.316364 142.553489 
L 155.215065 133.96208 
L 158.113766 137.282347 
L 161.012468 148.417909 
L 163.911169 143.303534 
L 166.80987 137.146359 
L 169.708571 152.525436 
L 172.607273 152.54127 
L 175.505974 157.567425 
L 178.404675 158.712405 
L 181.303377 159.822726 
L 184.202078 168.632471 
L 187.100779 148.6924 
L 189.999481 158.764899 
L 192.898182 164.380587 
L 195.796883 155.353534 
L 198.695584 153.210299 
L 201.594286 156.083508 
L 204.492987 153.818088 
L 207.391688 161.115426 
L 210.29039 130.652772 
L 213.189091 121.442115 
L 216.087792 123.335117 
L 218.986494 126.329325 
L 221.885195 123.24963 
L 224.783896 127.367 
L 227.682597 122.167717 
L 230.581299 116.64029 
L 233.48 124.632537 
L 236.378701 121.069202 
L 239.277403 123.265341 
L 242.176104 119.114475 
L 245.074805 111.217848 
L 247.973506 111.362714 
L 250.872208 117.891591 
L 253.770909 114.59352 
L 256.66961 111.600332 
L 259.568312 117.695597 
L 262.467013 145.515954 
L 265.365714 144.993452 
L 268.264416 145.78701 
L 271.163117 137.821111 
L 274.061818 148.017609 
L 276.960519 149.784827 
L 279.859221 149.686739 
L 282.757922 139.613015 
L 285.656623 118.107963 
L 288.555325 127.686874 
L 291.454026 115.849863 
L 294.352727 109.440047 
L 297.251429 100.864448 
L 300.15013 110.738962 
L 303.048831 113.806191 
L 305.947532 99.800001 
L 308.846234 110.039111 
L 311.744935 107.86426 
L 314.643636 114.469922 
L 317.542338 112.140894 
L 320.441039 116.896877 
L 323.33974 97.479529 
L 326.238442 101.113118 
L 329.137143 105.846677 
L 332.035844 102.580321 
L 334.934545 112.985109 
L 337.833247 113.695304 
L 340.731948 123.169545 
L 343.630649 111.471671 
L 346.529351 122.972009 
L 349.428052 125.533752 
L 352.326753 131.294352 
L 355.225455 130.200054 
L 358.124156 123.115412 
L 361.022857 115.269204 
L 363.921558 105.625052 
L 366.82026 107.480337 
L 369.718961 107.588599 
L 372.617662 116.407072 
L 375.516364 114.777016 
L 378.415065 112.510776 
L 381.313766 128.914676 
L 384.212468 134.807671 
L 387.111169 125.916405 
L 390.00987 124.176291 
L 392.908571 125.39422 
L 395.807273 124.58893 
" clip-path="url(#p75945f9a79)" style="fill: none; stroke: #ff0000; stroke-width: 1.5; stroke-linecap: square"/>
   </g>
   <g id="patch_9">
    <path d="M 54.92 172.190118 
L 54.92 93.921882 
" style="fill: none; stroke: #000000; stroke-width: 0.8; stroke-linejoin: miter; stroke-linecap: square"/>
   </g>
   <g id="patch_10">
    <path d="M 412.04 172.190118 
L 412.04 93.921882 
" style="fill: none; stroke: #000000; stroke-width: 0.8; stroke-linejoin: miter; stroke-linecap: square"/>
   </g>
   <g id="patch_11">
    <path d="M 54.92 172.190118 
L 412.04 172.190118 
" style="fill: none; stroke: #000000; stroke-width: 0.8; stroke-linejoin: miter; stroke-linecap: square"/>
   </g>
   <g id="patch_12">
    <path d="M 54.92 93.921882 
L 412.04 93.921882 
" style="fill: none; stroke: #000000; stroke-width: 0.8; stroke-linejoin: miter; stroke-linecap: square"/>
   </g>
  </g>
  <g id="axes_3">
   <g id="patch_13">
    <path d="M 54.92 266.112 
L 412.04 266.112 
L 412.04 187.843765 
L 54.92 187.843765 
z
" style="fill: #ffffff"/>
   </g>
   <g id="matplotlib.axis_5"/>
   <g id="matplotlib.axis_6">
    <g id="ytick_6">
     <g id="line2d_12">
      <g>
       <use xlink:href="#m111d14a62f" x="54.92" y="247.037927" style="stroke: #000000; stroke-width: 0.8"/>
      </g>
     </g>
     <g id="text_10">
      <!-- −100 -->
      <g transform="translate(20.452813 250.837146)scale(0.1 -0.1)">
       <use xlink:href="#DejaVuSans-2212"/>
       <use xlink:href="#DejaVuSans-31" x="83.789062"/>
       <use xlink:href="#DejaVuSans-30" x="147.412109"/>
       <use xlink:href="#DejaVuSans-30" x="211.035156"/>
      </g>
     </g>
    </g>
    <g id="ytick_7">
     <g id="line2d_13">
      <g>
       <use xlink:href="#m111d14a62f" x="54.92" y="226.908499" style="stroke: #000000; stroke-width: 0.8"/>
      </g>
     </g>
     <g id="text_11">
      <!-- 0 -->
      <g transform="translate(41.5575 230.707718)scale(0.1 -0.1)">
       <use xlink:href="#DejaVuSans-30"/>
      </g>
     </g>
    </g>
    <g id="ytick_8">
     <g id="line2d_14">
      <g>
       <use xlink:href="#m111d14a62f" x="54.92" y="206.779071" style="stroke: #000000; stroke-width: 0.8"/>
      </g>
     </g>
     <g id="text_12">
      <!-- 100 -->
      <g transform="translate(28.8325 210.57829)scale(0.1 -0.1)">
       <use xlink:href="#DejaVuSans-31"/>
       <use xlink:href="#DejaVuSans-30" x="63.623047"/>
       <use xlink:href="#DejaVuSans-30" x="127.246094"/>
      </g>
     </g>
    </g>
    <g id="text_13">
     <!-- roll [°] -->
     <g transform="translate(12.917344 253.788742)rotate(-90)scale(0.17 -0.17)">
      <defs>
       <path id="DejaVuSans-6c" d="M 603 4863 
L 1178 4863 
L 1178 0 
L 603 0 
L 603 4863 
z
" transform="scale(0.015625)"/>
      </defs>
      <use xlink:href="#DejaVuSans-72"/>
      <use xlink:href="#DejaVuSans-6f" x="38.863281"/>
      <use xlink:href="#DejaVuSans-6c" x="100.044922"/>
      <use xlink:href="#DejaVuSans-6c" x="127.828125"/>
      <use xlink:href="#DejaVuSans-20" x="155.611328"/>
      <use xlink:href="#DejaVuSans-5b" x="187.398438"/>
      <use xlink:href="#DejaVuSans-b0" x="226.412109"/>
      <use xlink:href="#DejaVuSans-5d" x="276.412109"/>
     </g>
    </g>
   </g>
   <g id="line2d_15">
    <path d="M 71.152727 242.845139 
L 74.051429 242.368337 
L 76.95013 241.381209 
L 79.848831 242.500482 
L 82.747532 241.97324 
L 85.646234 240.438133 
L 88.544935 240.175908 
L 91.443636 238.135736 
L 94.342338 236.28597 
L 97.241039 236.069767 
L 100.13974 235.427511 
L 103.038442 234.105355 
L 105.937143 234.192733 
L 108.835844 233.6985 
L 111.734545 231.233502 
L 114.633247 230.433093 
L 117.531948 228.329827 
L 120.430649 228.04258 
L 123.329351 227.761709 
L 126.228052 225.40679 
L 129.126753 225.092287 
L 132.025455 225.646365 
L 134.924156 224.270946 
L 137.822857 222.539106 
L 140.721558 220.692917 
L 143.62026 220.807402 
L 146.518961 218.692465 
L 149.417662 219.040098 
L 152.316364 216.472361 
L 155.215065 215.91496 
L 158.113766 216.293688 
L 161.012468 214.483008 
L 163.911169 213.264271 
L 166.80987 213.365191 
L 169.708571 204.767405 
L 172.607273 204.021665 
L 175.505974 203.201864 
L 178.404675 203.408145 
L 181.303377 203.64777 
L 184.202078 202.682518 
L 187.100779 202.191102 
L 189.999481 200.34482 
L 192.898182 198.953044 
L 195.796883 198.385575 
L 198.695584 198.562598 
L 201.594286 198.741737 
L 204.492987 198.62474 
L 207.391688 198.063319 
L 210.29039 197.402243 
L 213.189091 196.594712 
L 216.087792 196.271083 
L 218.986494 196.370837 
L 221.885195 196.762308 
L 224.783896 195.72876 
L 227.682597 195.36917 
L 230.581299 194.750998 
L 233.48 194.115419 
L 236.378701 193.558015 
L 239.277403 193.447757 
L 242.176104 193.172517 
L 245.074805 192.125976 
L 247.973506 262.535563 
L 250.872208 262.075908 
L 253.770909 262.105311 
L 256.66961 262.344339 
L 259.568312 262.554353 
L 262.467013 262.247954 
L 265.365714 262.281453 
L 268.264416 262.233022 
L 271.163117 261.58643 
L 274.061818 260.63271 
L 276.960519 260.204892 
L 279.859221 260.638897 
L 282.757922 259.57884 
L 285.656623 258.711935 
L 288.555325 257.203494 
L 291.454026 256.412933 
L 294.352727 256.324337 
L 297.251429 254.951376 
L 300.15013 253.446659 
L 303.048831 253.382374 
L 305.947532 253.290513 
L 308.846234 251.369593 
L 311.744935 251.30061 
L 314.643636 249.05801 
L 317.542338 248.309099 
L 320.441039 248.107965 
L 323.33974 247.278313 
L 326.238442 247.224363 
L 329.137143 247.601805 
L 332.035844 247.031876 
L 334.934545 245.560637 
L 337.833247 245.473426 
L 340.731948 245.779998 
L 343.630649 245.447572 
L 346.529351 245.111494 
L 349.428052 244.604682 
L 352.326753 243.691841 
L 355.225455 243.986231 
L 358.124156 243.484351 
L 361.022857 241.418386 
L 363.921558 240.90828 
L 366.82026 240.616094 
L 369.718961 240.021431 
L 372.617662 238.079821 
L 375.516364 236.130212 
L 378.415065 235.781158 
L 381.313766 234.433603 
L 384.212468 233.851817 
L 387.111169 233.682822 
L 390.00987 233.480413 
L 392.908571 233.402116 
L 395.807273 233.522102 
" clip-path="url(#pce63ed337c)" style="fill: none; stroke: #008000; stroke-width: 1.5; stroke-linecap: square"/>
   </g>
   <g id="line2d_16">
    <path d="M 71.152727 242.845151 
L 74.051429 242.406078 
L 76.95013 241.352899 
L 79.848831 242.564019 
L 82.747532 242.00683 
L 85.646234 240.38478 
L 88.544935 240.131522 
L 91.443636 238.080035 
L 94.342338 236.088546 
L 97.241039 235.841938 
L 100.13974 235.21913 
L 103.038442 233.910863 
L 105.937143 233.99598 
L 108.835844 233.587686 
L 111.734545 231.11861 
L 114.633247 230.209142 
L 117.531948 228.007764 
L 120.430649 227.651363 
L 123.329351 227.430533 
L 126.228052 224.958402 
L 129.126753 224.618323 
L 132.025455 225.11785 
L 134.924156 223.776614 
L 137.822857 222.184958 
L 140.721558 220.154472 
L 143.62026 220.362731 
L 146.518961 218.196254 
L 149.417662 218.530781 
L 152.316364 215.837933 
L 155.215065 215.192142 
L 158.113766 215.651705 
L 161.012468 213.814671 
L 163.911169 212.556668 
L 166.80987 212.593854 
L 169.708571 204.052184 
L 172.607273 203.261804 
L 175.505974 202.483118 
L 178.404675 202.634217 
L 181.303377 202.998882 
L 184.202078 202.089811 
L 187.100779 201.560819 
L 189.999481 199.63108 
L 192.898182 198.225533 
L 195.796883 197.623163 
L 198.695584 197.802794 
L 201.594286 198.03627 
L 204.492987 197.908343 
L 207.391688 197.339795 
L 210.29039 196.71791 
L 213.189091 195.862433 
L 216.087792 195.528302 
L 218.986494 195.618 
L 221.885195 196.041703 
L 224.783896 194.994854 
L 227.682597 194.651749 
L 230.581299 194.063683 
L 233.48 193.411233 
L 236.378701 192.867331 
L 239.277403 192.761737 
L 242.176104 192.45767 
L 245.074805 191.401412 
L 247.973506 261.752207 
L 250.872208 261.274127 
L 253.770909 261.35937 
L 256.66961 261.632271 
L 259.568312 261.84082 
L 262.467013 261.519682 
L 265.365714 261.477812 
L 268.264416 261.564035 
L 271.163117 260.888814 
L 274.061818 259.911853 
L 276.960519 259.421799 
L 279.859221 259.868074 
L 282.757922 258.787258 
L 285.656623 257.967695 
L 288.555325 256.458112 
L 291.454026 255.625328 
L 294.352727 255.582768 
L 297.251429 254.12335 
L 300.15013 252.615973 
L 303.048831 252.513549 
L 305.947532 252.466309 
L 308.846234 250.487114 
L 311.744935 250.389976 
L 314.643636 248.081796 
L 317.542338 247.192644 
L 320.441039 246.973958 
L 323.33974 246.173769 
L 326.238442 246.078736 
L 329.137143 246.428874 
L 332.035844 245.921625 
L 334.934545 244.407996 
L 337.833247 244.349356 
L 340.731948 244.664551 
L 343.630649 244.332679 
L 346.529351 243.967266 
L 349.428052 243.488869 
L 352.326753 242.565707 
L 355.225455 242.874252 
L 358.124156 242.404177 
L 361.022857 240.314733 
L 363.921558 239.715365 
L 366.82026 239.430882 
L 369.718961 238.849458 
L 372.617662 236.863458 
L 375.516364 234.874637 
L 378.415065 234.507266 
L 381.313766 233.100979 
L 384.212468 232.585848 
L 387.111169 232.422984 
L 390.00987 232.183558 
L 392.908571 232.092725 
L 395.807273 232.210385 
" clip-path="url(#pce63ed337c)" style="fill: none; stroke: #ff0000; stroke-width: 1.5; stroke-linecap: square"/>
   </g>
   <g id="patch_14">
    <path d="M 54.92 266.112 
L 54.92 187.843765 
" style="fill: none; stroke: #000000; stroke-width: 0.8; stroke-linejoin: miter; stroke-linecap: square"/>
   </g>
   <g id="patch_15">
    <path d="M 412.04 266.112 
L 412.04 187.843765 
" style="fill: none; stroke: #000000; stroke-width: 0.8; stroke-linejoin: miter; stroke-linecap: square"/>
   </g>
   <g id="patch_16">
    <path d="M 54.92 266.112 
L 412.04 266.112 
" style="fill: none; stroke: #000000; stroke-width: 0.8; stroke-linejoin: miter; stroke-linecap: square"/>
   </g>
   <g id="patch_17">
    <path d="M 54.92 187.843765 
L 412.04 187.843765 
" style="fill: none; stroke: #000000; stroke-width: 0.8; stroke-linejoin: miter; stroke-linecap: square"/>
   </g>
  </g>
 </g>
 <defs>
  <clipPath id="p43a9e104d1">
   <rect x="54.92" y="0" width="357.12" height="78.268235"/>
  </clipPath>
  <clipPath id="p75945f9a79">
   <rect x="54.92" y="93.921882" width="357.12" height="78.268235"/>
  </clipPath>
  <clipPath id="pce63ed337c">
   <rect x="54.92" y="187.843765" width="357.12" height="78.268235"/>
  </clipPath>
 </defs>
</svg>
