<?xml version="1.0" encoding="utf-8" standalone="no"?>
<!DOCTYPE svg PUBLIC "-//W3C//DTD SVG 1.1//EN"
  "http://www.w3.org/Graphics/SVG/1.1/DTD/svg11.dtd">
<svg xmlns:xlink="http://www.w3.org/1999/xlink" width="412.04pt" height="269.612pt" viewBox="0 0 412.04 269.612" xmlns="http://www.w3.org/2000/svg" version="1.1">
 <metadata>
  <rdf:RDF xmlns:dc="http://purl.org/dc/elements/1.1/" xmlns:cc="http://creativecommons.org/ns#" xmlns:rdf="http://www.w3.org/1999/02/22-rdf-syntax-ns#">
   <cc:Work>
    <dc:type rdf:resource="http://purl.org/dc/dcmitype/StillImage"/>
    <dc:date>2022-02-10T00:12:13.384436</dc:date>
    <dc:format>image/svg+xml</dc:format>
    <dc:creator>
     <cc:Agent>
      <dc:title>Matplotlib v3.5.1, https://matplotlib.org/</dc:title>
     </cc:Agent>
    </dc:creator>
   </cc:Work>
  </rdf:RDF>
 </metadata>
 <defs>
  <style type="text/css">*{stroke-linejoin: round; stroke-linecap: butt}</style>
 </defs>
 <g id="figure_1">
  <g id="patch_1">
   <path d="M 0 269.612 
L 412.04 269.612 
L 412.04 0 
L 0 0 
z
" style="fill: #ffffff"/>
  </g>
  <g id="axes_1">
   <g id="patch_2">
    <path d="M 54.92 78.268235 
L 412.04 78.268235 
L 412.04 0 
L 54.92 0 
z
" style="fill: #ffffff"/>
   </g>
   <g id="matplotlib.axis_1"/>
   <g id="matplotlib.axis_2">
    <g id="ytick_1">
     <g id="line2d_1">
      <defs>
       <path id="mf3acb9b82f" d="M 0 0 
L -3.5 0 
" style="stroke: #000000; stroke-width: 0.8"/>
      </defs>
      <g>
       <use xlink:href="#mf3acb9b82f" x="54.92" y="60.829143" style="stroke: #000000; stroke-width: 0.8"/>
      </g>
     </g>
     <g id="text_1">
      <!-- −150 -->
      <g transform="translate(20.452813 64.628362)scale(0.1 -0.1)">
       <defs>
        <path id="DejaVuSans-2212" d="M 678 2272 
L 4684 2272 
L 4684 1741 
L 678 1741 
L 678 2272 
z
" transform="scale(0.015625)"/>
        <path id="DejaVuSans-31" d="M 794 531 
L 1825 531 
L 1825 4091 
L 703 3866 
L 703 4441 
L 1819 4666 
L 2450 4666 
L 2450 531 
L 3481 531 
L 3481 0 
L 794 0 
L 794 531 
z
" transform="scale(0.015625)"/>
        <path id="DejaVuSans-35" d="M 691 4666 
L 3169 4666 
L 3169 4134 
L 1269 4134 
L 1269 2991 
Q 1406 3038 1543 3061 
Q 1681 3084 1819 3084 
Q 2600 3084 3056 2656 
Q 3513 2228 3513 1497 
Q 3513 744 3044 326 
Q 2575 -91 1722 -91 
Q 1428 -91 1123 -41 
Q 819 9 494 109 
L 494 744 
Q 775 591 1075 516 
Q 1375 441 1709 441 
Q 2250 441 2565 725 
Q 2881 1009 2881 1497 
Q 2881 1984 2565 2268 
Q 2250 2553 1709 2553 
Q 1456 2553 1204 2497 
Q 953 2441 691 2322 
L 691 4666 
z
" transform="scale(0.015625)"/>
        <path id="DejaVuSans-30" d="M 2034 4250 
Q 1547 4250 1301 3770 
Q 1056 3291 1056 2328 
Q 1056 1369 1301 889 
Q 1547 409 2034 409 
Q 2525 409 2770 889 
Q 3016 1369 3016 2328 
Q 3016 3291 2770 3770 
Q 2525 4250 2034 4250 
z
M 2034 4750 
Q 2819 4750 3233 4129 
Q 3647 3509 3647 2328 
Q 3647 1150 3233 529 
Q 2819 -91 2034 -91 
Q 1250 -91 836 529 
Q 422 1150 422 2328 
Q 422 3509 836 4129 
Q 1250 4750 2034 4750 
z
" transform="scale(0.015625)"/>
       </defs>
       <use xlink:href="#DejaVuSans-2212"/>
       <use xlink:href="#DejaVuSans-31" x="83.789062"/>
       <use xlink:href="#DejaVuSans-35" x="147.412109"/>
       <use xlink:href="#DejaVuSans-30" x="211.035156"/>
      </g>
     </g>
    </g>
    <g id="ytick_2">
     <g id="line2d_2">
      <g>
       <use xlink:href="#mf3acb9b82f" x="54.92" y="32.73602" style="stroke: #000000; stroke-width: 0.8"/>
      </g>
     </g>
     <g id="text_2">
      <!-- −100 -->
      <g transform="translate(20.452813 36.535239)scale(0.1 -0.1)">
       <use xlink:href="#DejaVuSans-2212"/>
       <use xlink:href="#DejaVuSans-31" x="83.789062"/>
       <use xlink:href="#DejaVuSans-30" x="147.412109"/>
       <use xlink:href="#DejaVuSans-30" x="211.035156"/>
      </g>
     </g>
    </g>
    <g id="ytick_3">
     <g id="line2d_3">
      <g>
       <use xlink:href="#mf3acb9b82f" x="54.92" y="4.642896" style="stroke: #000000; stroke-width: 0.8"/>
      </g>
     </g>
     <g id="text_3">
      <!-- −50 -->
      <g transform="translate(26.815313 8.442115)scale(0.1 -0.1)">
       <use xlink:href="#DejaVuSans-2212"/>
       <use xlink:href="#DejaVuSans-35" x="83.789062"/>
       <use xlink:href="#DejaVuSans-30" x="147.412109"/>
      </g>
     </g>
    </g>
    <g id="text_4">
     <!-- yaw [°] -->
     <g transform="translate(12.917344 69.90943)rotate(-90)scale(0.17 -0.17)">
      <defs>
       <path id="DejaVuSans-79" d="M 2059 -325 
Q 1816 -950 1584 -1140 
Q 1353 -1331 966 -1331 
L 506 -1331 
L 506 -850 
L 844 -850 
Q 1081 -850 1212 -737 
Q 1344 -625 1503 -206 
L 1606 56 
L 191 3500 
L 800 3500 
L 1894 763 
L 2988 3500 
L 3597 3500 
L 2059 -325 
z
" transform="scale(0.015625)"/>
       <path id="DejaVuSans-61" d="M 2194 1759 
Q 1497 1759 1228 1600 
Q 959 1441 959 1056 
Q 959 750 1161 570 
Q 1363 391 1709 391 
Q 2188 391 2477 730 
Q 2766 1069 2766 1631 
L 2766 1759 
L 2194 1759 
z
M 3341 1997 
L 3341 0 
L 2766 0 
L 2766 531 
Q 2569 213 2275 61 
Q 1981 -91 1556 -91 
Q 1019 -91 701 211 
Q 384 513 384 1019 
Q 384 1609 779 1909 
Q 1175 2209 1959 2209 
L 2766 2209 
L 2766 2266 
Q 2766 2663 2505 2880 
Q 2244 3097 1772 3097 
Q 1472 3097 1187 3025 
Q 903 2953 641 2809 
L 641 3341 
Q 956 3463 1253 3523 
Q 1550 3584 1831 3584 
Q 2591 3584 2966 3190 
Q 3341 2797 3341 1997 
z
" transform="scale(0.015625)"/>
       <path id="DejaVuSans-77" d="M 269 3500 
L 844 3500 
L 1563 769 
L 2278 3500 
L 2956 3500 
L 3675 769 
L 4391 3500 
L 4966 3500 
L 4050 0 
L 3372 0 
L 2619 2869 
L 1863 0 
L 1184 0 
L 269 3500 
z
" transform="scale(0.015625)"/>
       <path id="DejaVuSans-20" transform="scale(0.015625)"/>
       <path id="DejaVuSans-5b" d="M 550 4863 
L 1875 4863 
L 1875 4416 
L 1125 4416 
L 1125 -397 
L 1875 -397 
L 1875 -844 
L 550 -844 
L 550 4863 
z
" transform="scale(0.015625)"/>
       <path id="DejaVuSans-b0" d="M 1600 4347 
Q 1350 4347 1178 4173 
Q 1006 4000 1006 3750 
Q 1006 3503 1178 3333 
Q 1350 3163 1600 3163 
Q 1850 3163 2022 3333 
Q 2194 3503 2194 3750 
Q 2194 3997 2020 4172 
Q 1847 4347 1600 4347 
z
M 1600 4750 
Q 1800 4750 1984 4673 
Q 2169 4597 2303 4453 
Q 2447 4313 2519 4134 
Q 2591 3956 2591 3750 
Q 2591 3338 2302 3052 
Q 2013 2766 1594 2766 
Q 1172 2766 890 3047 
Q 609 3328 609 3750 
Q 609 4169 896 4459 
Q 1184 4750 1600 4750 
z
" transform="scale(0.015625)"/>
       <path id="DejaVuSans-5d" d="M 1947 4863 
L 1947 -844 
L 622 -844 
L 622 -397 
L 1369 -397 
L 1369 4416 
L 622 4416 
L 622 4863 
L 1947 4863 
z
" transform="scale(0.015625)"/>
      </defs>
      <use xlink:href="#DejaVuSans-79"/>
      <use xlink:href="#DejaVuSans-61" x="59.179688"/>
      <use xlink:href="#DejaVuSans-77" x="120.458984"/>
      <use xlink:href="#DejaVuSans-20" x="202.246094"/>
      <use xlink:href="#DejaVuSans-5b" x="234.033203"/>
      <use xlink:href="#DejaVuSans-b0" x="273.046875"/>
      <use xlink:href="#DejaVuSans-5d" x="323.046875"/>
     </g>
    </g>
   </g>
   <g id="line2d_4">
    <path d="M 71.152727 30.040837 
L 75.111929 30.069984 
L 79.071131 29.976092 
L 83.030333 30.022557 
L 86.989534 30.096327 
L 90.948736 29.973682 
L 94.907938 30.033566 
L 98.86714 29.729128 
L 102.826341 30.274408 
L 106.785543 30.461166 
L 110.744745 30.53342 
L 114.703947 30.796202 
L 118.663149 30.490296 
L 122.62235 30.405213 
L 126.581552 29.881607 
L 130.540754 30.189941 
L 134.499956 30.309977 
L 138.459157 30.292953 
L 142.418359 29.952279 
L 146.377561 30.29308 
L 150.336763 30.531525 
L 154.295965 30.437989 
L 158.255166 30.844718 
L 162.214368 30.630027 
L 166.17357 30.356952 
L 170.132772 29.636059 
L 174.091973 30.01426 
L 178.051175 30.041625 
L 182.010377 30.147134 
L 185.969579 30.317415 
L 189.92878 30.130861 
L 193.887982 30.264612 
L 197.847184 30.788184 
L 201.806386 30.587898 
L 205.765588 30.301771 
L 209.724789 30.49227 
L 213.683991 30.189682 
L 217.643193 31.163074 
L 221.602395 30.631545 
L 225.561596 30.569207 
L 229.520798 30.215963 
L 233.48 30.641001 
L 237.439202 30.815888 
L 241.398404 30.51576 
L 245.357605 30.596172 
L 249.316807 30.606437 
L 253.276009 30.600799 
L 257.235211 30.187051 
L 261.194412 30.303945 
L 265.153614 30.241668 
L 269.112816 29.403073 
L 273.072018 29.318097 
L 277.03122 29.723588 
L 280.990421 30.139923 
L 284.949623 29.539667 
L 288.908825 30.239379 
L 292.868027 29.671384 
L 296.827228 29.254697 
L 300.78643 29.648421 
L 304.745632 29.983415 
L 308.704834 30.377662 
L 312.664035 30.388331 
L 316.623237 30.388345 
L 320.582439 29.817234 
L 324.541641 30.19264 
L 328.500843 30.248875 
L 332.460044 30.181853 
L 336.419246 29.880139 
L 340.378448 29.55489 
L 344.33765 29.873503 
L 348.296851 30.031008 
L 352.256053 29.718825 
L 356.215255 29.980594 
L 360.174457 30.229725 
L 364.133659 30.360923 
L 368.09286 30.319172 
L 372.052062 30.027895 
L 376.011264 29.640303 
L 379.970466 29.869833 
L 383.929667 30.317955 
L 387.888869 30.375618 
L 391.848071 30.677017 
L 395.807273 30.780443 
" clip-path="url(#p34573c37f4)" style="fill: none; stroke: #008000; stroke-width: 1.5; stroke-linecap: square"/>
   </g>
   <g id="line2d_5">
    <path d="M 71.152727 30.040825 
L 75.111929 30.040456 
L 79.071131 30.044977 
L 83.030333 30.032742 
L 86.989534 30.004526 
L 90.948736 29.765753 
L 94.907938 29.987164 
L 98.86714 29.619882 
L 102.826341 29.522211 
L 106.785543 30.439082 
L 110.744745 31.391869 
L 114.703947 31.707145 
L 118.663149 32.993213 
L 122.62235 3.557647 
L 126.581552 4.365234 
L 130.540754 5.908014 
L 134.499956 13.001751 
L 138.459157 25.694745 
L 142.418359 37.101706 
L 146.377561 18.701781 
L 150.336763 27.395641 
L 154.295965 18.164377 
L 158.255166 13.29277 
L 162.214368 11.01225 
L 166.17357 11.307659 
L 170.132772 13.903109 
L 174.091973 14.818018 
L 178.051175 14.851493 
L 182.010377 15.092899 
L 185.969579 15.080648 
L 189.92878 13.577596 
L 193.887982 9.70316 
L 197.847184 9.232185 
L 201.806386 9.658135 
L 205.765588 12.877704 
L 209.724789 12.441227 
L 213.683991 10.258216 
L 217.643193 10.413021 
L 221.602395 8.597047 
L 225.561596 8.795201 
L 229.520798 6.610426 
L 233.48 7.270216 
L 237.439202 9.882301 
L 241.398404 13.327192 
L 245.357605 19.309245 
L 249.316807 18.728299 
L 253.276009 26.072259 
L 257.235211 35.190626 
L 261.194412 38.45153 
L 265.153614 43.209039 
L 269.112816 47.416626 
L 273.072018 47.319468 
L 277.03122 50.581254 
L 280.990421 52.830872 
L 284.949623 52.981716 
L 288.908825 46.633665 
L 292.868027 40.989262 
L 296.827228 40.646714 
L 300.78643 42.197654 
L 304.745632 46.081704 
L 308.704834 46.726501 
L 312.664035 46.726162 
L 316.623237 46.734941 
L 320.582439 46.098745 
L 324.541641 46.498758 
L 328.500843 45.029 
L 332.460044 45.776672 
L 336.419246 46.632902 
L 340.378448 46.249053 
L 344.33765 44.581486 
L 348.296851 42.572701 
L 352.256053 39.506327 
L 356.215255 51.942457 
L 360.174457 65.59015 
L 364.133659 74.652645 
L 368.09286 74.710588 
L 372.052062 74.549547 
L 376.011264 72.961181 
L 379.970466 58.819069 
L 383.929667 59.161502 
L 387.888869 59.167609 
L 391.848071 59.229976 
L 395.807273 59.506649 
" clip-path="url(#p34573c37f4)" style="fill: none; stroke: #ff0000; stroke-width: 1.5; stroke-linecap: square"/>
   </g>
   <g id="patch_3">
    <path d="M 54.92 78.268235 
L 54.92 0 
" style="fill: none; stroke: #000000; stroke-width: 0.8; stroke-linejoin: miter; stroke-linecap: square"/>
   </g>
   <g id="patch_4">
    <path d="M 412.04 78.268235 
L 412.04 0 
" style="fill: none; stroke: #000000; stroke-width: 0.8; stroke-linejoin: miter; stroke-linecap: square"/>
   </g>
   <g id="patch_5">
    <path d="M 54.92 78.268235 
L 412.04 78.268235 
" style="fill: none; stroke: #000000; stroke-width: 0.8; stroke-linejoin: miter; stroke-linecap: square"/>
   </g>
   <g id="patch_6">
    <path d="M 54.92 0 
L 412.04 0 
" style="fill: none; stroke: #000000; stroke-width: 0.8; stroke-linejoin: miter; stroke-linecap: square"/>
   </g>
   <g id="legend_1">
    <g id="patch_7">
     <path d="M 66.82 69.768235 
L 231.725313 69.768235 
Q 235.125313 69.768235 235.125313 66.368235 
L 235.125313 17.689798 
Q 235.125313 14.289798 231.725313 14.289798 
L 66.82 14.289798 
Q 63.42 14.289798 63.42 17.689798 
L 63.42 66.368235 
Q 63.42 69.768235 66.82 69.768235 
z
" style="fill: #ffffff; opacity: 0.8; stroke: #cccccc; stroke-linejoin: miter"/>
    </g>
    <g id="line2d_6">
     <path d="M 70.22 28.057142 
L 87.22 28.057142 
L 104.22 28.057142 
" style="fill: none; stroke: #008000; stroke-width: 1.5; stroke-linecap: square"/>
    </g>
    <g id="text_5">
     <!-- ground_truth -->
     <g transform="translate(117.82 34.007142)scale(0.17 -0.17)">
      <defs>
       <path id="DejaVuSans-67" d="M 2906 1791 
Q 2906 2416 2648 2759 
Q 2391 3103 1925 3103 
Q 1463 3103 1205 2759 
Q 947 2416 947 1791 
Q 947 1169 1205 825 
Q 1463 481 1925 481 
Q 2391 481 2648 825 
Q 2906 1169 2906 1791 
z
M 3481 434 
Q 3481 -459 3084 -895 
Q 2688 -1331 1869 -1331 
Q 1566 -1331 1297 -1286 
Q 1028 -1241 775 -1147 
L 775 -588 
Q 1028 -725 1275 -790 
Q 1522 -856 1778 -856 
Q 2344 -856 2625 -561 
Q 2906 -266 2906 331 
L 2906 616 
Q 2728 306 2450 153 
Q 2172 0 1784 0 
Q 1141 0 747 490 
Q 353 981 353 1791 
Q 353 2603 747 3093 
Q 1141 3584 1784 3584 
Q 2172 3584 2450 3431 
Q 2728 3278 2906 2969 
L 2906 3500 
L 3481 3500 
L 3481 434 
z
" transform="scale(0.015625)"/>
       <path id="DejaVuSans-72" d="M 2631 2963 
Q 2534 3019 2420 3045 
Q 2306 3072 2169 3072 
Q 1681 3072 1420 2755 
Q 1159 2438 1159 1844 
L 1159 0 
L 581 0 
L 581 3500 
L 1159 3500 
L 1159 2956 
Q 1341 3275 1631 3429 
Q 1922 3584 2338 3584 
Q 2397 3584 2469 3576 
Q 2541 3569 2628 3553 
L 2631 2963 
z
" transform="scale(0.015625)"/>
       <path id="DejaVuSans-6f" d="M 1959 3097 
Q 1497 3097 1228 2736 
Q 959 2375 959 1747 
Q 959 1119 1226 758 
Q 1494 397 1959 397 
Q 2419 397 2687 759 
Q 2956 1122 2956 1747 
Q 2956 2369 2687 2733 
Q 2419 3097 1959 3097 
z
M 1959 3584 
Q 2709 3584 3137 3096 
Q 3566 2609 3566 1747 
Q 3566 888 3137 398 
Q 2709 -91 1959 -91 
Q 1206 -91 779 398 
Q 353 888 353 1747 
Q 353 2609 779 3096 
Q 1206 3584 1959 3584 
z
" transform="scale(0.015625)"/>
       <path id="DejaVuSans-75" d="M 544 1381 
L 544 3500 
L 1119 3500 
L 1119 1403 
Q 1119 906 1312 657 
Q 1506 409 1894 409 
Q 2359 409 2629 706 
Q 2900 1003 2900 1516 
L 2900 3500 
L 3475 3500 
L 3475 0 
L 2900 0 
L 2900 538 
Q 2691 219 2414 64 
Q 2138 -91 1772 -91 
Q 1169 -91 856 284 
Q 544 659 544 1381 
z
M 1991 3584 
L 1991 3584 
z
" transform="scale(0.015625)"/>
       <path id="DejaVuSans-6e" d="M 3513 2113 
L 3513 0 
L 2938 0 
L 2938 2094 
Q 2938 2591 2744 2837 
Q 2550 3084 2163 3084 
Q 1697 3084 1428 2787 
Q 1159 2491 1159 1978 
L 1159 0 
L 581 0 
L 581 3500 
L 1159 3500 
L 1159 2956 
Q 1366 3272 1645 3428 
Q 1925 3584 2291 3584 
Q 2894 3584 3203 3211 
Q 3513 2838 3513 2113 
z
" transform="scale(0.015625)"/>
       <path id="DejaVuSans-64" d="M 2906 2969 
L 2906 4863 
L 3481 4863 
L 3481 0 
L 2906 0 
L 2906 525 
Q 2725 213 2448 61 
Q 2172 -91 1784 -91 
Q 1150 -91 751 415 
Q 353 922 353 1747 
Q 353 2572 751 3078 
Q 1150 3584 1784 3584 
Q 2172 3584 2448 3432 
Q 2725 3281 2906 2969 
z
M 947 1747 
Q 947 1113 1208 752 
Q 1469 391 1925 391 
Q 2381 391 2643 752 
Q 2906 1113 2906 1747 
Q 2906 2381 2643 2742 
Q 2381 3103 1925 3103 
Q 1469 3103 1208 2742 
Q 947 2381 947 1747 
z
" transform="scale(0.015625)"/>
       <path id="DejaVuSans-5f" d="M 3263 -1063 
L 3263 -1509 
L -63 -1509 
L -63 -1063 
L 3263 -1063 
z
" transform="scale(0.015625)"/>
       <path id="DejaVuSans-74" d="M 1172 4494 
L 1172 3500 
L 2356 3500 
L 2356 3053 
L 1172 3053 
L 1172 1153 
Q 1172 725 1289 603 
Q 1406 481 1766 481 
L 2356 481 
L 2356 0 
L 1766 0 
Q 1100 0 847 248 
Q 594 497 594 1153 
L 594 3053 
L 172 3053 
L 172 3500 
L 594 3500 
L 594 4494 
L 1172 4494 
z
" transform="scale(0.015625)"/>
       <path id="DejaVuSans-68" d="M 3513 2113 
L 3513 0 
L 2938 0 
L 2938 2094 
Q 2938 2591 2744 2837 
Q 2550 3084 2163 3084 
Q 1697 3084 1428 2787 
Q 1159 2491 1159 1978 
L 1159 0 
L 581 0 
L 581 4863 
L 1159 4863 
L 1159 2956 
Q 1366 3272 1645 3428 
Q 1925 3584 2291 3584 
Q 2894 3584 3203 3211 
Q 3513 2838 3513 2113 
z
" transform="scale(0.015625)"/>
      </defs>
      <use xlink:href="#DejaVuSans-67"/>
      <use xlink:href="#DejaVuSans-72" x="63.476562"/>
      <use xlink:href="#DejaVuSans-6f" x="102.339844"/>
      <use xlink:href="#DejaVuSans-75" x="163.521484"/>
      <use xlink:href="#DejaVuSans-6e" x="226.900391"/>
      <use xlink:href="#DejaVuSans-64" x="290.279297"/>
      <use xlink:href="#DejaVuSans-5f" x="353.755859"/>
      <use xlink:href="#DejaVuSans-74" x="403.755859"/>
      <use xlink:href="#DejaVuSans-72" x="442.964844"/>
      <use xlink:href="#DejaVuSans-75" x="484.078125"/>
      <use xlink:href="#DejaVuSans-74" x="547.457031"/>
      <use xlink:href="#DejaVuSans-68" x="586.666016"/>
     </g>
    </g>
    <g id="line2d_7">
     <path d="M 70.22 53.482767 
L 87.22 53.482767 
L 104.22 53.482767 
" style="fill: none; stroke: #ff0000; stroke-width: 1.5; stroke-linecap: square"/>
    </g>
    <g id="text_6">
     <!-- estimated -->
     <g transform="translate(117.82 59.432767)scale(0.17 -0.17)">
      <defs>
       <path id="DejaVuSans-65" d="M 3597 1894 
L 3597 1613 
L 953 1613 
Q 991 1019 1311 708 
Q 1631 397 2203 397 
Q 2534 397 2845 478 
Q 3156 559 3463 722 
L 3463 178 
Q 3153 47 2828 -22 
Q 2503 -91 2169 -91 
Q 1331 -91 842 396 
Q 353 884 353 1716 
Q 353 2575 817 3079 
Q 1281 3584 2069 3584 
Q 2775 3584 3186 3129 
Q 3597 2675 3597 1894 
z
M 3022 2063 
Q 3016 2534 2758 2815 
Q 2500 3097 2075 3097 
Q 1594 3097 1305 2825 
Q 1016 2553 972 2059 
L 3022 2063 
z
" transform="scale(0.015625)"/>
       <path id="DejaVuSans-73" d="M 2834 3397 
L 2834 2853 
Q 2591 2978 2328 3040 
Q 2066 3103 1784 3103 
Q 1356 3103 1142 2972 
Q 928 2841 928 2578 
Q 928 2378 1081 2264 
Q 1234 2150 1697 2047 
L 1894 2003 
Q 2506 1872 2764 1633 
Q 3022 1394 3022 966 
Q 3022 478 2636 193 
Q 2250 -91 1575 -91 
Q 1294 -91 989 -36 
Q 684 19 347 128 
L 347 722 
Q 666 556 975 473 
Q 1284 391 1588 391 
Q 1994 391 2212 530 
Q 2431 669 2431 922 
Q 2431 1156 2273 1281 
Q 2116 1406 1581 1522 
L 1381 1569 
Q 847 1681 609 1914 
Q 372 2147 372 2553 
Q 372 3047 722 3315 
Q 1072 3584 1716 3584 
Q 2034 3584 2315 3537 
Q 2597 3491 2834 3397 
z
" transform="scale(0.015625)"/>
       <path id="DejaVuSans-69" d="M 603 3500 
L 1178 3500 
L 1178 0 
L 603 0 
L 603 3500 
z
M 603 4863 
L 1178 4863 
L 1178 4134 
L 603 4134 
L 603 4863 
z
" transform="scale(0.015625)"/>
       <path id="DejaVuSans-6d" d="M 3328 2828 
Q 3544 3216 3844 3400 
Q 4144 3584 4550 3584 
Q 5097 3584 5394 3201 
Q 5691 2819 5691 2113 
L 5691 0 
L 5113 0 
L 5113 2094 
Q 5113 2597 4934 2840 
Q 4756 3084 4391 3084 
Q 3944 3084 3684 2787 
Q 3425 2491 3425 1978 
L 3425 0 
L 2847 0 
L 2847 2094 
Q 2847 2600 2669 2842 
Q 2491 3084 2119 3084 
Q 1678 3084 1418 2786 
Q 1159 2488 1159 1978 
L 1159 0 
L 581 0 
L 581 3500 
L 1159 3500 
L 1159 2956 
Q 1356 3278 1631 3431 
Q 1906 3584 2284 3584 
Q 2666 3584 2933 3390 
Q 3200 3197 3328 2828 
z
" transform="scale(0.015625)"/>
      </defs>
      <use xlink:href="#DejaVuSans-65"/>
      <use xlink:href="#DejaVuSans-73" x="61.523438"/>
      <use xlink:href="#DejaVuSans-74" x="113.623047"/>
      <use xlink:href="#DejaVuSans-69" x="152.832031"/>
      <use xlink:href="#DejaVuSans-6d" x="180.615234"/>
      <use xlink:href="#DejaVuSans-61" x="278.027344"/>
      <use xlink:href="#DejaVuSans-74" x="339.306641"/>
      <use xlink:href="#DejaVuSans-65" x="378.515625"/>
      <use xlink:href="#DejaVuSans-64" x="440.039062"/>
     </g>
    </g>
   </g>
  </g>
  <g id="axes_2">
   <g id="patch_8">
    <path d="M 54.92 172.190118 
L 412.04 172.190118 
L 412.04 93.921882 
L 54.92 93.921882 
z
" style="fill: #ffffff"/>
   </g>
   <g id="matplotlib.axis_3"/>
   <g id="matplotlib.axis_4">
    <g id="ytick_4">
     <g id="line2d_8">
      <g>
       <use xlink:href="#mf3acb9b82f" x="54.92" y="136.478687" style="stroke: #000000; stroke-width: 0.8"/>
      </g>
     </g>
     <g id="text_7">
      <!-- 0 -->
      <g transform="translate(41.5575 140.277906)scale(0.1 -0.1)">
       <use xlink:href="#DejaVuSans-30"/>
      </g>
     </g>
    </g>
    <g id="ytick_5">
     <g id="line2d_9">
      <g>
       <use xlink:href="#mf3acb9b82f" x="54.92" y="98.265657" style="stroke: #000000; stroke-width: 0.8"/>
      </g>
     </g>
     <g id="text_8">
      <!-- 50 -->
      <g transform="translate(35.195 102.064876)scale(0.1 -0.1)">
       <use xlink:href="#DejaVuSans-35"/>
       <use xlink:href="#DejaVuSans-30" x="63.623047"/>
      </g>
     </g>
    </g>
    <g id="text_9">
     <!-- pitch [°] -->
     <g transform="translate(27.659531 167.790453)rotate(-90)scale(0.17 -0.17)">
      <defs>
       <path id="DejaVuSans-70" d="M 1159 525 
L 1159 -1331 
L 581 -1331 
L 581 3500 
L 1159 3500 
L 1159 2969 
Q 1341 3281 1617 3432 
Q 1894 3584 2278 3584 
Q 2916 3584 3314 3078 
Q 3713 2572 3713 1747 
Q 3713 922 3314 415 
Q 2916 -91 2278 -91 
Q 1894 -91 1617 61 
Q 1341 213 1159 525 
z
M 3116 1747 
Q 3116 2381 2855 2742 
Q 2594 3103 2138 3103 
Q 1681 3103 1420 2742 
Q 1159 2381 1159 1747 
Q 1159 1113 1420 752 
Q 1681 391 2138 391 
Q 2594 391 2855 752 
Q 3116 1113 3116 1747 
z
" transform="scale(0.015625)"/>
       <path id="DejaVuSans-63" d="M 3122 3366 
L 3122 2828 
Q 2878 2963 2633 3030 
Q 2388 3097 2138 3097 
Q 1578 3097 1268 2742 
Q 959 2388 959 1747 
Q 959 1106 1268 751 
Q 1578 397 2138 397 
Q 2388 397 2633 464 
Q 2878 531 3122 666 
L 3122 134 
Q 2881 22 2623 -34 
Q 2366 -91 2075 -91 
Q 1284 -91 818 406 
Q 353 903 353 1747 
Q 353 2603 823 3093 
Q 1294 3584 2113 3584 
Q 2378 3584 2631 3529 
Q 2884 3475 3122 3366 
z
" transform="scale(0.015625)"/>
      </defs>
      <use xlink:href="#DejaVuSans-70"/>
      <use xlink:href="#DejaVuSans-69" x="63.476562"/>
      <use xlink:href="#DejaVuSans-74" x="91.259766"/>
      <use xlink:href="#DejaVuSans-63" x="130.46875"/>
      <use xlink:href="#DejaVuSans-68" x="185.449219"/>
      <use xlink:href="#DejaVuSans-20" x="248.828125"/>
      <use xlink:href="#DejaVuSans-5b" x="280.615234"/>
      <use xlink:href="#DejaVuSans-b0" x="319.628906"/>
      <use xlink:href="#DejaVuSans-5d" x="369.628906"/>
     </g>
    </g>
   </g>
   <g id="line2d_10">
    <path d="M 71.152727 136.059014 
L 75.111929 136.078919 
L 79.071131 135.929934 
L 83.030333 135.928907 
L 86.989534 136.106348 
L 90.948736 136.153676 
L 94.907938 136.353121 
L 98.86714 136.409502 
L 102.826341 136.797611 
L 106.785543 136.469091 
L 110.744745 136.368273 
L 114.703947 136.082282 
L 118.663149 136.074409 
L 122.62235 136.271849 
L 126.581552 136.32719 
L 130.540754 136.397947 
L 134.499956 136.430015 
L 138.459157 136.374835 
L 142.418359 136.669067 
L 146.377561 136.729568 
L 150.336763 136.488797 
L 154.295965 136.473538 
L 158.255166 136.22362 
L 162.214368 136.15433 
L 166.17357 136.305823 
L 170.132772 136.486018 
L 174.091973 135.749526 
L 178.051175 136.009518 
L 182.010377 136.25321 
L 185.969579 136.587849 
L 189.92878 136.584678 
L 193.887982 136.471542 
L 197.847184 136.343422 
L 201.806386 136.143122 
L 205.765588 135.85246 
L 209.724789 136.307656 
L 213.683991 135.871117 
L 217.643193 135.907952 
L 221.602395 136.126487 
L 225.561596 136.572839 
L 229.520798 136.305315 
L 233.48 136.190268 
L 237.439202 135.691688 
L 241.398404 135.509682 
L 245.357605 135.509845 
L 249.316807 135.778135 
L 253.276009 135.278859 
L 257.235211 135.496119 
L 261.194412 135.667763 
L 265.153614 135.756066 
L 269.112816 135.914262 
L 273.072018 135.55265 
L 277.03122 135.465616 
L 280.990421 135.376432 
L 284.949623 136.77333 
L 288.908825 135.66981 
L 292.868027 135.778951 
L 296.827228 135.858256 
L 300.78643 135.910731 
L 304.745632 136.01318 
L 308.704834 135.9782 
L 312.664035 135.955275 
L 316.623237 135.955908 
L 320.582439 135.976093 
L 324.541641 135.812684 
L 328.500843 135.844473 
L 332.460044 135.765889 
L 336.419246 135.87269 
L 340.378448 136.027402 
L 344.33765 136.139886 
L 348.296851 136.162978 
L 352.256053 136.172311 
L 356.215255 136.480421 
L 360.174457 136.871783 
L 364.133659 136.554684 
L 368.09286 136.379669 
L 372.052062 136.970711 
L 376.011264 137.57421 
L 379.970466 137.614011 
L 383.929667 137.206827 
L 387.888869 137.326367 
L 391.848071 136.773797 
L 395.807273 136.624691 
" clip-path="url(#p01a62f5359)" style="fill: none; stroke: #008000; stroke-width: 1.5; stroke-linecap: square"/>
   </g>
   <g id="line2d_11">
    <path d="M 71.152727 136.058995 
L 75.111929 136.060869 
L 79.071131 136.059735 
L 83.030333 136.046034 
L 86.989534 136.285114 
L 90.948736 136.461603 
L 94.907938 136.787102 
L 98.86714 137.156053 
L 102.826341 139.184578 
L 106.785543 139.4129 
L 110.744745 139.198381 
L 114.703947 138.879053 
L 118.663149 138.013812 
L 122.62235 124.129749 
L 126.581552 118.80631 
L 130.540754 114.232309 
L 134.499956 104.041404 
L 138.459157 97.907008 
L 142.418359 97.479529 
L 146.377561 99.412956 
L 150.336763 103.490112 
L 154.295965 109.85085 
L 158.255166 115.862379 
L 162.214368 121.372926 
L 166.17357 119.853125 
L 170.132772 114.392497 
L 174.091973 112.513543 
L 178.051175 112.525203 
L 182.010377 112.783214 
L 185.969579 113.592553 
L 189.92878 116.021831 
L 193.887982 127.717092 
L 197.847184 137.331 
L 201.806386 144.038285 
L 205.765588 155.052583 
L 209.724789 155.923741 
L 213.683991 151.039946 
L 217.643193 148.353172 
L 221.602395 140.589575 
L 225.561596 129.606139 
L 229.520798 132.597639 
L 233.48 143.980093 
L 237.439202 153.010186 
L 241.398404 159.37124 
L 245.357605 165.810729 
L 249.316807 165.763112 
L 253.276009 168.534783 
L 257.235211 168.632471 
L 261.194412 167.953538 
L 265.153614 165.500222 
L 269.112816 161.85098 
L 273.072018 160.470586 
L 277.03122 156.314144 
L 280.990421 149.954851 
L 284.949623 148.036569 
L 288.908825 153.526142 
L 292.868027 151.452472 
L 296.827228 151.208867 
L 300.78643 149.439699 
L 304.745632 144.195704 
L 308.704834 143.596401 
L 312.664035 143.605499 
L 316.623237 143.609654 
L 320.582439 144.431501 
L 324.541641 146.178704 
L 328.500843 147.374889 
L 332.460044 144.87763 
L 336.419246 138.554462 
L 340.378448 133.139189 
L 344.33765 126.809288 
L 348.296851 122.628544 
L 352.256053 118.58523 
L 356.215255 113.05208 
L 360.174457 132.880685 
L 364.133659 148.388839 
L 368.09286 150.796869 
L 372.052062 151.017678 
L 376.011264 146.069697 
L 379.970466 140.889178 
L 383.929667 135.061099 
L 387.888869 136.68164 
L 391.848071 143.030957 
L 395.807273 137.553946 
" clip-path="url(#p01a62f5359)" style="fill: none; stroke: #ff0000; stroke-width: 1.5; stroke-linecap: square"/>
   </g>
   <g id="patch_9">
    <path d="M 54.92 172.190118 
L 54.92 93.921882 
" style="fill: none; stroke: #000000; stroke-width: 0.8; stroke-linejoin: miter; stroke-linecap: square"/>
   </g>
   <g id="patch_10">
    <path d="M 412.04 172.190118 
L 412.04 93.921882 
" style="fill: none; stroke: #000000; stroke-width: 0.8; stroke-linejoin: miter; stroke-linecap: square"/>
   </g>
   <g id="patch_11">
    <path d="M 54.92 172.190118 
L 412.04 172.190118 
" style="fill: none; stroke: #000000; stroke-width: 0.8; stroke-linejoin: miter; stroke-linecap: square"/>
   </g>
   <g id="patch_12">
    <path d="M 54.92 93.921882 
L 412.04 93.921882 
" style="fill: none; stroke: #000000; stroke-width: 0.8; stroke-linejoin: miter; stroke-linecap: square"/>
   </g>
  </g>
  <g id="axes_3">
   <g id="patch_13">
    <path d="M 54.92 266.112 
L 412.04 266.112 
L 412.04 187.843765 
L 54.92 187.843765 
z
" style="fill: #ffffff"/>
   </g>
   <g id="matplotlib.axis_5"/>
   <g id="matplotlib.axis_6">
    <g id="ytick_6">
     <g id="line2d_12">
      <g>
       <use xlink:href="#mf3acb9b82f" x="54.92" y="246.875406" style="stroke: #000000; stroke-width: 0.8"/>
      </g>
     </g>
     <g id="text_10">
      <!-- −100 -->
      <g transform="translate(20.452813 250.674625)scale(0.1 -0.1)">
       <use xlink:href="#DejaVuSans-2212"/>
       <use xlink:href="#DejaVuSans-31" x="83.789062"/>
       <use xlink:href="#DejaVuSans-30" x="147.412109"/>
       <use xlink:href="#DejaVuSans-30" x="211.035156"/>
      </g>
     </g>
    </g>
    <g id="ytick_7">
     <g id="line2d_13">
      <g>
       <use xlink:href="#mf3acb9b82f" x="54.92" y="226.993015" style="stroke: #000000; stroke-width: 0.8"/>
      </g>
     </g>
     <g id="text_11">
      <!-- 0 -->
      <g transform="translate(41.5575 230.792233)scale(0.1 -0.1)">
       <use xlink:href="#DejaVuSans-30"/>
      </g>
     </g>
    </g>
    <g id="ytick_8">
     <g id="line2d_14">
      <g>
       <use xlink:href="#mf3acb9b82f" x="54.92" y="207.110623" style="stroke: #000000; stroke-width: 0.8"/>
      </g>
     </g>
     <g id="text_12">
      <!-- 100 -->
      <g transform="translate(28.8325 210.909842)scale(0.1 -0.1)">
       <use xlink:href="#DejaVuSans-31"/>
       <use xlink:href="#DejaVuSans-30" x="63.623047"/>
       <use xlink:href="#DejaVuSans-30" x="127.246094"/>
      </g>
     </g>
    </g>
    <g id="text_13">
     <!-- roll [°] -->
     <g transform="translate(12.917344 253.788742)rotate(-90)scale(0.17 -0.17)">
      <defs>
       <path id="DejaVuSans-6c" d="M 603 4863 
L 1178 4863 
L 1178 0 
L 603 0 
L 603 4863 
z
" transform="scale(0.015625)"/>
      </defs>
      <use xlink:href="#DejaVuSans-72"/>
      <use xlink:href="#DejaVuSans-6f" x="38.863281"/>
      <use xlink:href="#DejaVuSans-6c" x="100.044922"/>
      <use xlink:href="#DejaVuSans-6c" x="127.828125"/>
      <use xlink:href="#DejaVuSans-20" x="155.611328"/>
      <use xlink:href="#DejaVuSans-5b" x="187.398438"/>
      <use xlink:href="#DejaVuSans-b0" x="226.412109"/>
      <use xlink:href="#DejaVuSans-5d" x="276.412109"/>
     </g>
    </g>
   </g>
   <g id="line2d_15">
    <path d="M 71.152727 195.95154 
L 75.111929 195.944707 
L 79.071131 195.934233 
L 83.030333 195.924879 
L 86.989534 194.439148 
L 90.948736 192.793347 
L 94.907938 191.480367 
L 98.86714 258.869085 
L 102.826341 253.010973 
L 106.785543 249.973526 
L 110.744745 246.303057 
L 114.703947 243.903497 
L 118.663149 240.824877 
L 122.62235 241.826055 
L 126.581552 243.678486 
L 130.540754 245.020459 
L 134.499956 247.767445 
L 138.459157 252.211183 
L 142.418359 254.977288 
L 146.377561 249.564743 
L 150.336763 243.517279 
L 154.295965 238.733035 
L 158.255166 235.355082 
L 162.214368 233.517346 
L 166.17357 234.413119 
L 170.132772 236.812966 
L 174.091973 237.220327 
L 178.051175 237.39406 
L 182.010377 237.398461 
L 185.969579 237.112191 
L 189.92878 235.630757 
L 193.887982 230.430408 
L 197.847184 226.772327 
L 201.806386 224.303558 
L 205.765588 219.80257 
L 209.724789 219.922871 
L 213.683991 221.698003 
L 217.643193 222.853254 
L 221.602395 226.173323 
L 225.561596 230.312461 
L 229.520798 228.504335 
L 233.48 224.507322 
L 237.439202 221.016613 
L 241.398404 218.202227 
L 245.357605 214.926693 
L 249.316807 215.321207 
L 253.276009 212.050486 
L 257.235211 208.690182 
L 261.194412 207.474436 
L 265.153614 205.356945 
L 269.112816 203.555218 
L 273.072018 202.998345 
L 277.03122 200.944411 
L 280.990421 198.435059 
L 284.949623 197.657858 
L 288.908825 197.921154 
L 292.868027 198.239687 
L 296.827228 198.020178 
L 300.78643 196.578889 
L 304.745632 193.42619 
L 308.704834 193.199604 
L 312.664035 193.203143 
L 316.623237 193.206348 
L 320.582439 193.605995 
L 324.541641 194.8985 
L 328.500843 195.419077 
L 332.460044 193.845322 
L 336.419246 261.891282 
L 340.378448 259.110031 
L 344.33765 255.547795 
L 348.296851 253.113133 
L 352.256053 250.002293 
L 356.215255 247.078863 
L 360.174457 246.196776 
L 364.133659 249.85647 
L 368.09286 250.467994 
L 372.052062 250.461199 
L 376.011264 249.091171 
L 379.970466 247.124461 
L 383.929667 245.369414 
L 387.888869 246.194299 
L 391.848071 248.002887 
L 395.807273 246.375097 
" clip-path="url(#p5113821712)" style="fill: none; stroke: #008000; stroke-width: 1.5; stroke-linecap: square"/>
   </g>
   <g id="line2d_16">
    <path d="M 71.152727 195.95154 
L 75.111929 195.953112 
L 79.071131 195.952229 
L 83.030333 195.943761 
L 86.989534 194.456151 
L 90.948736 192.811233 
L 94.907938 191.401412 
L 98.86714 258.974763 
L 102.826341 253.430214 
L 106.785543 250.085575 
L 110.744745 246.452665 
L 114.703947 243.812028 
L 118.663149 240.579746 
L 122.62235 200.85449 
L 126.581552 201.890295 
L 130.540754 203.039902 
L 134.499956 206.834956 
L 138.459157 212.796481 
L 142.418359 218.03194 
L 146.377561 209.479301 
L 150.336763 209.679761 
L 154.295965 203.508897 
L 158.255166 200.019458 
L 162.214368 197.924582 
L 166.17357 198.558283 
L 170.132772 200.951613 
L 174.091973 201.456535 
L 178.051175 201.530396 
L 182.010377 201.586129 
L 185.969579 201.400844 
L 189.92878 200.054705 
L 193.887982 195.826635 
L 197.847184 192.772249 
L 201.806386 262.198392 
L 205.765588 258.191961 
L 209.724789 258.199922 
L 213.683991 259.975203 
L 217.643193 260.850591 
L 221.602395 191.910363 
L 225.561596 195.288279 
L 229.520798 194.148491 
L 233.48 262.554353 
L 237.439202 259.58721 
L 241.398404 256.875519 
L 245.357605 253.091188 
L 249.316807 253.493962 
L 253.276009 249.53752 
L 257.235211 245.006352 
L 261.194412 242.871558 
L 265.153614 240.240034 
L 269.112816 237.787698 
L 273.072018 237.447308 
L 277.03122 235.590874 
L 280.990421 233.339039 
L 284.949623 232.427851 
L 288.908825 233.095561 
L 292.868027 233.317691 
L 296.827228 233.098217 
L 300.78643 231.868981 
L 304.745632 228.378775 
L 308.704834 228.061356 
L 312.664035 228.061919 
L 316.623237 228.06594 
L 320.582439 228.454611 
L 324.541641 229.318249 
L 328.500843 230.207555 
L 332.460044 228.918646 
L 336.419246 225.732253 
L 340.378448 223.086884 
L 344.33765 219.624148 
L 348.296851 217.07011 
L 352.256053 213.997094 
L 356.215255 207.866168 
L 360.174457 200.254112 
L 364.133659 201.189558 
L 368.09286 201.488697 
L 372.052062 201.382513 
L 376.011264 200.760462 
L 379.970466 200.842465 
L 383.929667 199.816185 
L 387.888869 200.180959 
L 391.848071 201.704349 
L 395.807273 200.583068 
" clip-path="url(#p5113821712)" style="fill: none; stroke: #ff0000; stroke-width: 1.5; stroke-linecap: square"/>
   </g>
   <g id="patch_14">
    <path d="M 54.92 266.112 
L 54.92 187.843765 
" style="fill: none; stroke: #000000; stroke-width: 0.8; stroke-linejoin: miter; stroke-linecap: square"/>
   </g>
   <g id="patch_15">
    <path d="M 412.04 266.112 
L 412.04 187.843765 
" style="fill: none; stroke: #000000; stroke-width: 0.8; stroke-linejoin: miter; stroke-linecap: square"/>
   </g>
   <g id="patch_16">
    <path d="M 54.92 266.112 
L 412.04 266.112 
" style="fill: none; stroke: #000000; stroke-width: 0.8; stroke-linejoin: miter; stroke-linecap: square"/>
   </g>
   <g id="patch_17">
    <path d="M 54.92 187.843765 
L 412.04 187.843765 
" style="fill: none; stroke: #000000; stroke-width: 0.8; stroke-linejoin: miter; stroke-linecap: square"/>
   </g>
  </g>
 </g>
 <defs>
  <clipPath id="p34573c37f4">
   <rect x="54.92" y="0" width="357.12" height="78.268235"/>
  </clipPath>
  <clipPath id="p01a62f5359">
   <rect x="54.92" y="93.921882" width="357.12" height="78.268235"/>
  </clipPath>
  <clipPath id="p5113821712">
   <rect x="54.92" y="187.843765" width="357.12" height="78.268235"/>
  </clipPath>
 </defs>
</svg>
