<?xml version="1.0" encoding="utf-8" standalone="no"?>
<!DOCTYPE svg PUBLIC "-//W3C//DTD SVG 1.1//EN"
  "http://www.w3.org/Graphics/SVG/1.1/DTD/svg11.dtd">
<svg xmlns:xlink="http://www.w3.org/1999/xlink" width="353.239902pt" height="348.141644pt" viewBox="0 0 353.239902 348.141644" xmlns="http://www.w3.org/2000/svg" version="1.1">
 <metadata>
  <rdf:RDF xmlns:dc="http://purl.org/dc/elements/1.1/" xmlns:cc="http://creativecommons.org/ns#" xmlns:rdf="http://www.w3.org/1999/02/22-rdf-syntax-ns#">
   <cc:Work>
    <dc:type rdf:resource="http://purl.org/dc/dcmitype/StillImage"/>
    <dc:date>2022-02-09T21:02:13.994285</dc:date>
    <dc:format>image/svg+xml</dc:format>
    <dc:creator>
     <cc:Agent>
      <dc:title>Matplotlib v3.5.1, https://matplotlib.org/</dc:title>
     </cc:Agent>
    </dc:creator>
   </cc:Work>
  </rdf:RDF>
 </metadata>
 <defs>
  <style type="text/css">*{stroke-linejoin: round; stroke-linecap: butt}</style>
 </defs>
 <g id="figure_1">
  <g id="patch_1">
   <path d="M 0 348.141644 
L 353.239902 348.141644 
L 353.239902 0 
L 0 0 
z
" style="fill: #ffffff"/>
  </g>
  <g id="patch_2">
   <path d="M 0 345.6 
L 345.6 345.6 
L 345.6 -0 
L 0 -0 
z
" style="fill: #ffffff"/>
  </g>
  <g id="pane3d_1">
   <g id="patch_3">
    <path d="M 43.64011 276.021761 
L 104.335521 97.213163 
L 98.66794 8.134987 
L 32.634775 196.200845 
" style="fill: #f2f2f2; opacity: 0.5; stroke: #f2f2f2; stroke-linejoin: miter"/>
   </g>
  </g>
  <g id="pane3d_2">
   <g id="patch_4">
    <path d="M 104.335521 97.213163 
L 305.984932 143.221817 
L 316.100364 56.368059 
L 98.66794 8.134987 
" style="fill: #e6e6e6; opacity: 0.5; stroke: #e6e6e6; stroke-linejoin: miter"/>
   </g>
  </g>
  <g id="pane3d_3">
   <g id="patch_5">
    <path d="M 43.64011 276.021761 
L 255.924889 327.418502 
L 305.984932 143.221817 
L 104.335521 97.213163 
" style="fill: #ececec; opacity: 0.5; stroke: #ececec; stroke-linejoin: miter"/>
   </g>
  </g>
  <g id="axis3d_1">
   <g id="line2d_1">
    <path d="M 43.64011 276.021761 
L 255.924889 327.418502 
" style="fill: none; stroke: #000000; stroke-width: 0.8; stroke-linecap: square"/>
   </g>
   <g id="text_1">
    <!-- x [m] -->
    <g transform="translate(127.560419 337.662032)rotate(-346.389891)scale(0.1 -0.1)">
     <defs>
      <path id="DejaVuSans-78" d="M 3513 3500 
L 2247 1797 
L 3578 0 
L 2900 0 
L 1881 1375 
L 863 0 
L 184 0 
L 1544 1831 
L 300 3500 
L 978 3500 
L 1906 2253 
L 2834 3500 
L 3513 3500 
z
" transform="scale(0.015625)"/>
      <path id="DejaVuSans-20" transform="scale(0.015625)"/>
      <path id="DejaVuSans-5b" d="M 550 4863 
L 1875 4863 
L 1875 4416 
L 1125 4416 
L 1125 -397 
L 1875 -397 
L 1875 -844 
L 550 -844 
L 550 4863 
z
" transform="scale(0.015625)"/>
      <path id="DejaVuSans-6d" d="M 3328 2828 
Q 3544 3216 3844 3400 
Q 4144 3584 4550 3584 
Q 5097 3584 5394 3201 
Q 5691 2819 5691 2113 
L 5691 0 
L 5113 0 
L 5113 2094 
Q 5113 2597 4934 2840 
Q 4756 3084 4391 3084 
Q 3944 3084 3684 2787 
Q 3425 2491 3425 1978 
L 3425 0 
L 2847 0 
L 2847 2094 
Q 2847 2600 2669 2842 
Q 2491 3084 2119 3084 
Q 1678 3084 1418 2786 
Q 1159 2488 1159 1978 
L 1159 0 
L 581 0 
L 581 3500 
L 1159 3500 
L 1159 2956 
Q 1356 3278 1631 3431 
Q 1906 3584 2284 3584 
Q 2666 3584 2933 3390 
Q 3200 3197 3328 2828 
z
" transform="scale(0.015625)"/>
      <path id="DejaVuSans-5d" d="M 1947 4863 
L 1947 -844 
L 622 -844 
L 622 -397 
L 1369 -397 
L 1369 4416 
L 622 4416 
L 622 4863 
L 1947 4863 
z
" transform="scale(0.015625)"/>
     </defs>
     <use xlink:href="#DejaVuSans-78"/>
     <use xlink:href="#DejaVuSans-20" x="59.179688"/>
     <use xlink:href="#DejaVuSans-5b" x="90.966797"/>
     <use xlink:href="#DejaVuSans-6d" x="129.980469"/>
     <use xlink:href="#DejaVuSans-5d" x="227.392578"/>
    </g>
   </g>
   <g id="Line3DCollection_1">
    <path d="M 70.070639 282.420915 
L 129.45996 102.945596 
L 125.732136 14.138642 
" style="fill: none; stroke: #b0b0b0; stroke-width: 0.8"/>
    <path d="M 110.105753 292.113906 
L 167.506909 111.626449 
L 166.731008 23.233429 
" style="fill: none; stroke: #b0b0b0; stroke-width: 0.8"/>
    <path d="M 150.373222 301.863152 
L 205.762778 120.354969 
L 207.972592 32.382057 
" style="fill: none; stroke: #b0b0b0; stroke-width: 0.8"/>
    <path d="M 190.875072 311.669146 
L 244.229291 129.131551 
L 249.45905 41.585005 
" style="fill: none; stroke: #b0b0b0; stroke-width: 0.8"/>
    <path d="M 231.613357 321.532383 
L 282.908194 137.956592 
L 291.19257 50.842758 
" style="fill: none; stroke: #b0b0b0; stroke-width: 0.8"/>
   </g>
   <g id="xtick_1">
    <g id="line2d_2">
     <path d="M 70.572421 280.904521 
L 69.065708 285.457828 
" style="fill: none; stroke: #000000; stroke-width: 0.8; stroke-linecap: square"/>
    </g>
    <g id="text_2">
     <!-- −0.5 -->
     <g transform="translate(54.446848 306.80406)scale(0.1 -0.1)">
      <defs>
       <path id="DejaVuSans-2212" d="M 678 2272 
L 4684 2272 
L 4684 1741 
L 678 1741 
L 678 2272 
z
" transform="scale(0.015625)"/>
       <path id="DejaVuSans-30" d="M 2034 4250 
Q 1547 4250 1301 3770 
Q 1056 3291 1056 2328 
Q 1056 1369 1301 889 
Q 1547 409 2034 409 
Q 2525 409 2770 889 
Q 3016 1369 3016 2328 
Q 3016 3291 2770 3770 
Q 2525 4250 2034 4250 
z
M 2034 4750 
Q 2819 4750 3233 4129 
Q 3647 3509 3647 2328 
Q 3647 1150 3233 529 
Q 2819 -91 2034 -91 
Q 1250 -91 836 529 
Q 422 1150 422 2328 
Q 422 3509 836 4129 
Q 1250 4750 2034 4750 
z
" transform="scale(0.015625)"/>
       <path id="DejaVuSans-2e" d="M 684 794 
L 1344 794 
L 1344 0 
L 684 0 
L 684 794 
z
" transform="scale(0.015625)"/>
       <path id="DejaVuSans-35" d="M 691 4666 
L 3169 4666 
L 3169 4134 
L 1269 4134 
L 1269 2991 
Q 1406 3038 1543 3061 
Q 1681 3084 1819 3084 
Q 2600 3084 3056 2656 
Q 3513 2228 3513 1497 
Q 3513 744 3044 326 
Q 2575 -91 1722 -91 
Q 1428 -91 1123 -41 
Q 819 9 494 109 
L 494 744 
Q 775 591 1075 516 
Q 1375 441 1709 441 
Q 2250 441 2565 725 
Q 2881 1009 2881 1497 
Q 2881 1984 2565 2268 
Q 2250 2553 1709 2553 
Q 1456 2553 1204 2497 
Q 953 2441 691 2322 
L 691 4666 
z
" transform="scale(0.015625)"/>
      </defs>
      <use xlink:href="#DejaVuSans-2212"/>
      <use xlink:href="#DejaVuSans-30" x="83.789062"/>
      <use xlink:href="#DejaVuSans-2e" x="147.412109"/>
      <use xlink:href="#DejaVuSans-35" x="179.199219"/>
     </g>
    </g>
   </g>
   <g id="xtick_2">
    <g id="line2d_3">
     <path d="M 110.590813 290.588726 
L 109.134312 295.168426 
" style="fill: none; stroke: #000000; stroke-width: 0.8; stroke-linecap: square"/>
    </g>
    <g id="text_3">
     <!-- 0.0 -->
     <g transform="translate(98.611727 316.533447)scale(0.1 -0.1)">
      <use xlink:href="#DejaVuSans-30"/>
      <use xlink:href="#DejaVuSans-2e" x="63.623047"/>
      <use xlink:href="#DejaVuSans-30" x="95.410156"/>
     </g>
    </g>
   </g>
   <g id="xtick_3">
    <g id="line2d_4">
     <path d="M 150.841354 300.32911 
L 149.435675 304.935434 
" style="fill: none; stroke: #000000; stroke-width: 0.8; stroke-linecap: square"/>
    </g>
    <g id="text_4">
     <!-- 0.5 -->
     <g transform="translate(138.818477 326.31923)scale(0.1 -0.1)">
      <use xlink:href="#DejaVuSans-30"/>
      <use xlink:href="#DejaVuSans-2e" x="63.623047"/>
      <use xlink:href="#DejaVuSans-35" x="95.410156"/>
     </g>
    </g>
   </g>
   <g id="xtick_4">
    <g id="line2d_5">
     <path d="M 191.326073 310.126163 
L 189.971832 314.759345 
" style="fill: none; stroke: #000000; stroke-width: 0.8; stroke-linecap: square"/>
    </g>
    <g id="text_5">
     <!-- 1.0 -->
     <g transform="translate(179.258961 336.161901)scale(0.1 -0.1)">
      <defs>
       <path id="DejaVuSans-31" d="M 794 531 
L 1825 531 
L 1825 4091 
L 703 3866 
L 703 4441 
L 1819 4666 
L 2450 4666 
L 2450 531 
L 3481 531 
L 3481 0 
L 794 0 
L 794 531 
z
" transform="scale(0.015625)"/>
      </defs>
      <use xlink:href="#DejaVuSans-31"/>
      <use xlink:href="#DejaVuSans-2e" x="63.623047"/>
      <use xlink:href="#DejaVuSans-30" x="95.410156"/>
     </g>
    </g>
   </g>
   <g id="xtick_5">
    <g id="line2d_6">
     <path d="M 232.047018 319.980381 
L 230.744841 324.640656 
" style="fill: none; stroke: #000000; stroke-width: 0.8; stroke-linecap: square"/>
    </g>
    <g id="text_6">
     <!-- 1.5 -->
     <g transform="translate(219.935224 346.061957)scale(0.1 -0.1)">
      <use xlink:href="#DejaVuSans-31"/>
      <use xlink:href="#DejaVuSans-2e" x="63.623047"/>
      <use xlink:href="#DejaVuSans-35" x="95.410156"/>
     </g>
    </g>
   </g>
  </g>
  <g id="axis3d_2">
   <g id="line2d_7">
    <path d="M 305.984932 143.221817 
L 255.924889 327.418502 
" style="fill: none; stroke: #000000; stroke-width: 0.8; stroke-linecap: square"/>
   </g>
   <g id="text_7">
    <!-- y [m] -->
    <g transform="translate(308.660599 263.59734)rotate(-74.795681)scale(0.1 -0.1)">
     <defs>
      <path id="DejaVuSans-79" d="M 2059 -325 
Q 1816 -950 1584 -1140 
Q 1353 -1331 966 -1331 
L 506 -1331 
L 506 -850 
L 844 -850 
Q 1081 -850 1212 -737 
Q 1344 -625 1503 -206 
L 1606 56 
L 191 3500 
L 800 3500 
L 1894 763 
L 2988 3500 
L 3597 3500 
L 2059 -325 
z
" transform="scale(0.015625)"/>
     </defs>
     <use xlink:href="#DejaVuSans-79"/>
     <use xlink:href="#DejaVuSans-20" x="59.179688"/>
     <use xlink:href="#DejaVuSans-5b" x="90.966797"/>
     <use xlink:href="#DejaVuSans-6d" x="129.980469"/>
     <use xlink:href="#DejaVuSans-5d" x="227.392578"/>
    </g>
   </g>
   <g id="Line3DCollection_2">
    <path d="M 35.646697 187.622735 
L 46.396994 267.899984 
L 258.200482 319.045424 
" style="fill: none; stroke: #b0b0b0; stroke-width: 0.8"/>
    <path d="M 45.466047 159.65672 
L 55.392532 241.39914 
L 265.624415 291.72895 
" style="fill: none; stroke: #b0b0b0; stroke-width: 0.8"/>
    <path d="M 55.118112 132.167141 
L 64.246253 215.31609 
L 272.929542 264.849625 
" style="fill: none; stroke: #b0b0b0; stroke-width: 0.8"/>
    <path d="M 64.607131 105.141927 
L 72.961485 189.641029 
L 280.118692 238.397039 
" style="fill: none; stroke: #b0b0b0; stroke-width: 0.8"/>
    <path d="M 73.9372 78.569408 
L 81.541451 164.36446 
L 287.194605 212.36111 
" style="fill: none; stroke: #b0b0b0; stroke-width: 0.8"/>
    <path d="M 83.112281 52.438306 
L 89.989277 139.477177 
L 294.159936 186.73207 
" style="fill: none; stroke: #b0b0b0; stroke-width: 0.8"/>
    <path d="M 92.136202 26.737712 
L 98.307992 114.970255 
L 301.017256 161.500454 
" style="fill: none; stroke: #b0b0b0; stroke-width: 0.8"/>
   </g>
   <g id="xtick_6">
    <g id="line2d_8">
     <path d="M 256.480282 318.630037 
L 261.642146 319.876503 
" style="fill: none; stroke: #000000; stroke-width: 0.8; stroke-linecap: square"/>
    </g>
    <g id="text_8">
     <!-- −0.4 -->
     <g transform="translate(259.349178 334.491947)scale(0.1 -0.1)">
      <defs>
       <path id="DejaVuSans-34" d="M 2419 4116 
L 825 1625 
L 2419 1625 
L 2419 4116 
z
M 2253 4666 
L 3047 4666 
L 3047 1625 
L 3713 1625 
L 3713 1100 
L 3047 1100 
L 3047 0 
L 2419 0 
L 2419 1100 
L 313 1100 
L 313 1709 
L 2253 4666 
z
" transform="scale(0.015625)"/>
      </defs>
      <use xlink:href="#DejaVuSans-2212"/>
      <use xlink:href="#DejaVuSans-30" x="83.789062"/>
      <use xlink:href="#DejaVuSans-2e" x="147.412109"/>
      <use xlink:href="#DejaVuSans-34" x="179.199219"/>
     </g>
    </g>
   </g>
   <g id="xtick_7">
    <g id="line2d_9">
     <path d="M 263.917186 291.320237 
L 269.040119 292.546675 
" style="fill: none; stroke: #000000; stroke-width: 0.8; stroke-linecap: square"/>
    </g>
    <g id="text_9">
     <!-- −0.2 -->
     <g transform="translate(266.637447 307.218689)scale(0.1 -0.1)">
      <defs>
       <path id="DejaVuSans-32" d="M 1228 531 
L 3431 531 
L 3431 0 
L 469 0 
L 469 531 
Q 828 903 1448 1529 
Q 2069 2156 2228 2338 
Q 2531 2678 2651 2914 
Q 2772 3150 2772 3378 
Q 2772 3750 2511 3984 
Q 2250 4219 1831 4219 
Q 1534 4219 1204 4116 
Q 875 4013 500 3803 
L 500 4441 
Q 881 4594 1212 4672 
Q 1544 4750 1819 4750 
Q 2544 4750 2975 4387 
Q 3406 4025 3406 3419 
Q 3406 3131 3298 2873 
Q 3191 2616 2906 2266 
Q 2828 2175 2409 1742 
Q 1991 1309 1228 531 
z
" transform="scale(0.015625)"/>
      </defs>
      <use xlink:href="#DejaVuSans-2212"/>
      <use xlink:href="#DejaVuSans-30" x="83.789062"/>
      <use xlink:href="#DejaVuSans-2e" x="147.412109"/>
      <use xlink:href="#DejaVuSans-32" x="179.199219"/>
     </g>
    </g>
   </g>
   <g id="xtick_8">
    <g id="line2d_10">
     <path d="M 271.23509 264.447426 
L 276.319672 265.654314 
" style="fill: none; stroke: #000000; stroke-width: 0.8; stroke-linecap: square"/>
    </g>
    <g id="text_10">
     <!-- 0.0 -->
     <g transform="translate(277.999374 280.380204)scale(0.1 -0.1)">
      <use xlink:href="#DejaVuSans-30"/>
      <use xlink:href="#DejaVuSans-2e" x="63.623047"/>
      <use xlink:href="#DejaVuSans-30" x="95.410156"/>
     </g>
    </g>
   </g>
   <g id="xtick_9">
    <g id="line2d_11">
     <path d="M 278.436828 238.0012 
L 283.483627 239.189002 
" style="fill: none; stroke: #000000; stroke-width: 0.8; stroke-linecap: square"/>
    </g>
    <g id="text_11">
     <!-- 0.2 -->
     <g transform="translate(285.058028 253.966178)scale(0.1 -0.1)">
      <use xlink:href="#DejaVuSans-30"/>
      <use xlink:href="#DejaVuSans-2e" x="63.623047"/>
      <use xlink:href="#DejaVuSans-32" x="95.410156"/>
     </g>
    </g>
   </g>
   <g id="xtick_10">
    <g id="line2d_12">
     <path d="M 285.525145 211.97148 
L 290.534715 213.140646 
" style="fill: none; stroke: #000000; stroke-width: 0.8; stroke-linecap: square"/>
    </g>
    <g id="text_12">
     <!-- 0.4 -->
     <g transform="translate(292.005924 227.966621)scale(0.1 -0.1)">
      <use xlink:href="#DejaVuSans-30"/>
      <use xlink:href="#DejaVuSans-2e" x="63.623047"/>
      <use xlink:href="#DejaVuSans-34" x="95.410156"/>
     </g>
    </g>
   </g>
   <g id="xtick_11">
    <g id="line2d_13">
     <path d="M 292.502698 186.348505 
L 297.475583 187.499469 
" style="fill: none; stroke: #000000; stroke-width: 0.8; stroke-linecap: square"/>
    </g>
    <g id="text_13">
     <!-- 0.6 -->
     <g transform="translate(298.845647 202.371852)scale(0.1 -0.1)">
      <defs>
       <path id="DejaVuSans-36" d="M 2113 2584 
Q 1688 2584 1439 2293 
Q 1191 2003 1191 1497 
Q 1191 994 1439 701 
Q 1688 409 2113 409 
Q 2538 409 2786 701 
Q 3034 994 3034 1497 
Q 3034 2003 2786 2293 
Q 2538 2584 2113 2584 
z
M 3366 4563 
L 3366 3988 
Q 3128 4100 2886 4159 
Q 2644 4219 2406 4219 
Q 1781 4219 1451 3797 
Q 1122 3375 1075 2522 
Q 1259 2794 1537 2939 
Q 1816 3084 2150 3084 
Q 2853 3084 3261 2657 
Q 3669 2231 3669 1497 
Q 3669 778 3244 343 
Q 2819 -91 2113 -91 
Q 1303 -91 875 529 
Q 447 1150 447 2328 
Q 447 3434 972 4092 
Q 1497 4750 2381 4750 
Q 2619 4750 2861 4703 
Q 3103 4656 3366 4563 
z
" transform="scale(0.015625)"/>
      </defs>
      <use xlink:href="#DejaVuSans-30"/>
      <use xlink:href="#DejaVuSans-2e" x="63.623047"/>
      <use xlink:href="#DejaVuSans-36" x="95.410156"/>
     </g>
    </g>
   </g>
   <g id="xtick_12">
    <g id="line2d_14">
     <path d="M 299.372065 161.122814 
L 304.308794 162.255999 
" style="fill: none; stroke: #000000; stroke-width: 0.8; stroke-linecap: square"/>
    </g>
    <g id="text_14">
     <!-- 0.8 -->
     <g transform="translate(305.579705 177.172493)scale(0.1 -0.1)">
      <defs>
       <path id="DejaVuSans-38" d="M 2034 2216 
Q 1584 2216 1326 1975 
Q 1069 1734 1069 1313 
Q 1069 891 1326 650 
Q 1584 409 2034 409 
Q 2484 409 2743 651 
Q 3003 894 3003 1313 
Q 3003 1734 2745 1975 
Q 2488 2216 2034 2216 
z
M 1403 2484 
Q 997 2584 770 2862 
Q 544 3141 544 3541 
Q 544 4100 942 4425 
Q 1341 4750 2034 4750 
Q 2731 4750 3128 4425 
Q 3525 4100 3525 3541 
Q 3525 3141 3298 2862 
Q 3072 2584 2669 2484 
Q 3125 2378 3379 2068 
Q 3634 1759 3634 1313 
Q 3634 634 3220 271 
Q 2806 -91 2034 -91 
Q 1263 -91 848 271 
Q 434 634 434 1313 
Q 434 1759 690 2068 
Q 947 2378 1403 2484 
z
M 1172 3481 
Q 1172 3119 1398 2916 
Q 1625 2713 2034 2713 
Q 2441 2713 2670 2916 
Q 2900 3119 2900 3481 
Q 2900 3844 2670 4047 
Q 2441 4250 2034 4250 
Q 1625 4250 1398 4047 
Q 1172 3844 1172 3481 
z
" transform="scale(0.015625)"/>
      </defs>
      <use xlink:href="#DejaVuSans-30"/>
      <use xlink:href="#DejaVuSans-2e" x="63.623047"/>
      <use xlink:href="#DejaVuSans-38" x="95.410156"/>
     </g>
    </g>
   </g>
  </g>
  <g id="axis3d_3">
   <g id="line2d_15">
    <path d="M 305.984932 143.221817 
L 316.100364 56.368059 
" style="fill: none; stroke: #000000; stroke-width: 0.8; stroke-linecap: square"/>
   </g>
   <g id="text_15">
    <!-- z [m] -->
    <g transform="translate(348.169849 96.616472)rotate(-83.356969)scale(0.1 -0.1)">
     <defs>
      <path id="DejaVuSans-7a" d="M 353 3500 
L 3084 3500 
L 3084 2975 
L 922 459 
L 3084 459 
L 3084 0 
L 275 0 
L 275 525 
L 2438 3041 
L 353 3041 
L 353 3500 
z
" transform="scale(0.015625)"/>
     </defs>
     <use xlink:href="#DejaVuSans-7a"/>
     <use xlink:href="#DejaVuSans-20" x="52.490234"/>
     <use xlink:href="#DejaVuSans-5b" x="84.277344"/>
     <use xlink:href="#DejaVuSans-6d" x="123.291016"/>
     <use xlink:href="#DejaVuSans-5d" x="220.703125"/>
    </g>
   </g>
   <g id="Line3DCollection_3">
    <path d="M 307.495794 130.249154 
L 103.488187 83.895494 
L 42.000884 264.13257 
" style="fill: none; stroke: #b0b0b0; stroke-width: 0.8"/>
    <path d="M 309.103382 116.445984 
L 102.58692 69.730155 
L 40.254962 251.469527 
" style="fill: none; stroke: #b0b0b0; stroke-width: 0.8"/>
    <path d="M 310.751219 102.297226 
L 101.663423 55.215429 
L 38.463451 238.475821 
" style="fill: none; stroke: #b0b0b0; stroke-width: 0.8"/>
    <path d="M 312.440835 87.789737 
L 100.716864 40.338227 
L 36.62454 225.138329 
" style="fill: none; stroke: #b0b0b0; stroke-width: 0.8"/>
    <path d="M 314.17384 72.9097 
L 99.746368 25.084801 
L 34.736323 211.443225 
" style="fill: none; stroke: #b0b0b0; stroke-width: 0.8"/>
   </g>
   <g id="xtick_13">
    <g id="line2d_16">
     <path d="M 305.839923 129.872915 
L 310.808707 131.001899 
" style="fill: none; stroke: #000000; stroke-width: 0.8; stroke-linecap: square"/>
    </g>
    <g id="text_16">
     <!-- 1.0 -->
     <g transform="translate(315.783087 129.658684)scale(0.1 -0.1)">
      <use xlink:href="#DejaVuSans-31"/>
      <use xlink:href="#DejaVuSans-2e" x="63.623047"/>
      <use xlink:href="#DejaVuSans-30" x="95.410156"/>
     </g>
    </g>
   </g>
   <g id="xtick_14">
    <g id="line2d_17">
     <path d="M 307.426849 116.066737 
L 312.457647 117.204748 
" style="fill: none; stroke: #000000; stroke-width: 0.8; stroke-linecap: square"/>
    </g>
    <g id="text_17">
     <!-- 1.2 -->
     <g transform="translate(317.586758 115.790314)scale(0.1 -0.1)">
      <use xlink:href="#DejaVuSans-31"/>
      <use xlink:href="#DejaVuSans-2e" x="63.623047"/>
      <use xlink:href="#DejaVuSans-32" x="95.410156"/>
     </g>
    </g>
   </g>
   <g id="xtick_15">
    <g id="line2d_18">
     <path d="M 309.053502 101.914939 
L 314.147882 103.062077 
" style="fill: none; stroke: #000000; stroke-width: 0.8; stroke-linecap: square"/>
    </g>
    <g id="text_18">
     <!-- 1.4 -->
     <g transform="translate(319.435469 101.575636)scale(0.1 -0.1)">
      <use xlink:href="#DejaVuSans-31"/>
      <use xlink:href="#DejaVuSans-2e" x="63.623047"/>
      <use xlink:href="#DejaVuSans-34" x="95.410156"/>
     </g>
    </g>
   </g>
   <g id="xtick_16">
    <g id="line2d_19">
     <path d="M 310.721392 87.404376 
L 315.880981 88.560742 
" style="fill: none; stroke: #000000; stroke-width: 0.8; stroke-linecap: square"/>
    </g>
    <g id="text_19">
     <!-- 1.6 -->
     <g transform="translate(321.330927 87.001515)scale(0.1 -0.1)">
      <use xlink:href="#DejaVuSans-31"/>
      <use xlink:href="#DejaVuSans-2e" x="63.623047"/>
      <use xlink:href="#DejaVuSans-36" x="95.410156"/>
     </g>
    </g>
   </g>
   <g id="xtick_17">
    <g id="line2d_20">
     <path d="M 312.432108 72.521233 
L 317.658597 73.686924 
" style="fill: none; stroke: #000000; stroke-width: 0.8; stroke-linecap: square"/>
    </g>
    <g id="text_20">
     <!-- 1.8 -->
     <g transform="translate(323.27493 72.05414)scale(0.1 -0.1)">
      <use xlink:href="#DejaVuSans-31"/>
      <use xlink:href="#DejaVuSans-2e" x="63.623047"/>
      <use xlink:href="#DejaVuSans-38" x="95.410156"/>
     </g>
    </g>
   </g>
  </g>
  <g id="axes_1">
   <g id="line2d_21">
    <path d="M 230.146912 197.492934 
L 230.154227 197.47923 
L 230.049551 197.474497 
L 229.590069 197.338032 
L 229.053948 196.737534 
L 228.834765 195.964543 
L 228.842591 195.301052 
L 229.532183 192.887681 
L 230.27818 191.344062 
L 231.221989 189.490262 
L 233.857683 185.036687 
L 236.087752 181.910628 
L 239.969917 176.80162 
L 240.749893 175.619182 
L 241.153154 175.004373 
L 241.750918 174.025864 
L 242.80879 172.10734 
L 243.75151 170.05813 
L 244.023368 168.912506 
L 243.888477 168.415068 
L 243.637717 168.160645 
L 243.257988 167.086113 
L 243.407106 164.851126 
L 243.843144 161.777079 
L 245.292275 153.834958 
L 246.675151 146.469153 
L 251.154878 122.753855 
L 254.096019 111.687601 
L 254.656831 109.670867 
L 256.168113 104.000293 
L 256.702902 102.010126 
L 258.451391 95.89356 
L 259.971062 91.968904 
L 260.341058 90.961075 
L 261.123134 89.298548 
L 262.364953 87.072316 
L 263.184671 85.956207 
L 263.624279 85.584836 
L 264.023812 85.453695 
L 264.397066 85.414784 
L 264.731126 85.607647 
L 265.000702 86.003514 
L 265.25319 86.70417 
L 265.25319 86.70417 
" clip-path="url(#peeab42f239)" style="fill: none; stroke: #008000; stroke-width: 1.5; stroke-linecap: square"/>
   </g>
   <g id="line2d_22">
    <path d="M 265.382191 87.333068 
L 265.601504 88.673557 
L 266.076613 90.493812 
L 267.014872 93.572997 
L 267.606645 94.998031 
L 268.704797 96.834362 
L 270.721738 101.672047 
L 271.116186 103.60754 
L 271.284764 105.303786 
L 271.191247 107.267852 
L 270.892084 109.432514 
L 270.407757 111.770385 
L 268.811783 117.071407 
L 267.144266 120.821691 
L 265.760212 123.234654 
L 264.224513 125.360337 
L 262.028332 128.079543 
L 252.673348 137.437841 
L 250.832858 139.853182 
L 249.898232 141.515389 
L 248.971524 144.058977 
L 248.601241 145.920137 
L 248.561024 147.888055 
L 248.848169 149.379957 
L 249.263054 150.391242 
L 249.932484 151.568179 
L 250.458692 152.661182 
L 250.827421 153.560926 
L 251.251786 155.335555 
L 251.442894 157.450664 
L 251.254715 161.038926 
L 250.071143 166.315905 
L 249.063172 169.338924 
L 247.098489 173.916868 
L 245.45268 177.212652 
L 243.062041 181.340914 
L 240.09198 185.753625 
L 237.74051 188.698754 
L 234.116081 192.625019 
L 230.788816 195.64234 
L 228.5171 197.443258 
L 224.801309 199.860906 
L 218.692689 203.187964 
L 215.097878 204.769765 
L 212.311342 205.379209 
L 208.860542 205.604988 
L 204.533027 205.822215 
L 202.95338 206.106544 
L 199.60744 207.058986 
L 195.075309 208.528236 
L 188.39845 211.348668 
L 184.796271 213.271299 
L 180.088696 216.39527 
L 177.531081 218.057264 
L 168.007455 223.440038 
L 165.321761 224.610948 
L 163.071894 225.387663 
L 158.483979 226.592556 
L 156.250332 227.169047 
L 152.719219 227.500638 
L 151.341236 227.534588 
L 148.617458 227.385855 
L 145.127883 226.767081 
L 143.013262 226.072463 
L 141.298802 225.521453 
L 135.751822 223.261167 
L 133.190993 221.902999 
L 131.028952 220.506363 
L 127.955441 218.32109 
L 124.927939 215.950761 
L 123.741308 215.051456 
L 122.086332 213.657172 
L 121.056573 212.882045 
L 119.893133 212.085134 
L 119.604152 212.034638 
L 119.144233 211.810227 
L 119.052651 211.597708 
L 119.108661 211.208032 
L 119.811387 210.284365 
L 120.076456 209.499206 
L 119.82083 208.622949 
L 117.93472 206.251589 
L 115.389748 203.847927 
L 111.691963 201.202178 
L 107.886402 199.2118 
L 106.187332 198.911542 
L 105.581483 198.939348 
L 105.03783 199.080581 
L 104.223118 199.480265 
L 103.684709 199.831212 
L 101.625914 202.325954 
L 100.720635 203.467726 
L 99.043494 205.300493 
L 97.978545 206.112031 
L 97.171224 206.565259 
L 96.377108 206.781121 
L 95.557573 206.858333 
L 94.73541 206.782804 
L 93.509236 206.447837 
L 92.658409 206.120759 
L 91.836235 205.600133 
L 90.574683 204.635242 
L 88.275359 201.963244 
L 87.198542 200.435535 
L 84.3162 194.758465 
L 82.692451 190.321806 
L 81.930599 187.729014 
L 81.173221 184.476677 
L 80.490406 179.402125 
L 80.302731 170.999558 
L 80.614354 166.255708 
L 81.172037 161.238013 
L 81.458057 158.075673 
L 82.258804 143.860087 
L 82.815225 140.115791 
L 83.526234 137.009044 
L 85.265626 130.996365 
L 87.202694 125.392468 
L 89.098071 120.63409 
L 91.191253 116.554133 
L 93.319651 113.982659 
L 94.582383 112.940598 
L 95.109924 112.638409 
L 95.403107 112.663489 
L 95.815291 112.963912 
L 96.310767 113.77529 
L 96.741998 115.127457 
L 96.884903 118.286475 
L 96.562167 122.903849 
L 95.691872 129.573221 
L 94.962174 133.601358 
L 94.320639 136.5585 
L 93.916073 138.097399 
L 92.776482 141.257694 
L 90.384474 145.979364 
L 88.530145 149.325971 
L 87.314918 151.325336 
L 86.255724 152.947272 
L 84.32226 155.758671 
L 81.877942 159.3126 
L 79.725038 162.970021 
L 78.222345 166.295668 
L 77.496469 168.191274 
L 76.173845 172.374416 
L 75.103575 176.765488 
L 74.092619 181.534976 
L 73.369306 185.265562 
L 72.527184 191.72668 
L 72.456283 194.019295 
L 72.65532 197.328511 
L 73.657155 202.490865 
L 74.790812 205.973234 
L 75.780213 208.515679 
L 77.251249 211.873814 
L 78.343991 214.04961 
L 79.045231 215.223565 
L 80.029843 216.651659 
L 81.103968 217.915288 
L 82.607438 218.977661 
L 83.823055 219.581698 
L 84.687568 219.973594 
L 87.779811 220.537601 
L 89.657559 220.57142 
L 90.504328 220.387669 
L 91.402836 220.188297 
L 91.95638 220.117483 
L 92.525661 220.309326 
L 93.109132 220.589634 
L 93.891033 220.877305 
L 95.085248 221.193024 
L 96.971919 221.70368 
L 100.724139 222.367678 
L 101.885368 222.271955 
L 102.928761 221.761014 
L 103.761025 221.142585 
L 106.1988 219.116051 
L 107.895074 217.439696 
L 110.291268 214.929837 
L 112.60012 212.703019 
L 114.620426 211.040546 
L 116.643183 209.788293 
L 117.647215 209.309151 
L 118.668245 208.99059 
L 119.754704 208.775059 
L 122.64237 208.581911 
L 125.076593 208.691729 
L 128.292958 208.991494 
L 131.039413 209.283077 
L 138.835046 210.4564 
L 141.682832 211.049743 
L 145.856535 212.329867 
L 151.262987 214.595196 
L 154.02508 215.98504 
L 158.788478 219.086236 
L 166.495387 224.637606 
L 170.012545 227.375483 
L 172.78667 229.673282 
L 179.949433 236.133719 
L 183.324246 239.937166 
L 185.328128 242.543317 
L 189.72711 249.15605 
L 191.833908 251.975378 
L 193.148449 253.38909 
L 194.548725 254.585924 
L 196.952399 256.185176 
L 199.398294 257.522624 
L 203.545171 259.245614 
L 205.877944 259.811382 
L 208.910541 260.210931 
L 213.342354 260.303086 
L 215.206709 260.229192 
L 218.225247 260.155353 
L 220.5964 259.928416 
L 223.419999 259.636477 
L 228.581737 258.795838 
L 231.047135 258.115768 
L 243.015374 254.472044 
L 249.362099 252.97593 
L 251.100918 252.675474 
L 253.30668 252.179697 
L 253.30668 252.179697 
" clip-path="url(#peeab42f239)" style="fill: none; stroke: #008000; stroke-width: 1.5; stroke-linecap: square"/>
   </g>
   <g id="line2d_23">
    <path d="M 255.975716 251.488901 
L 256.418259 251.312901 
L 256.879572 251.078306 
L 257.309557 250.877846 
L 257.742663 250.633597 
L 258.167621 250.344408 
L 258.587422 250.045867 
L 259.007711 249.740805 
L 259.429229 249.45907 
L 259.818771 249.102299 
L 260.208069 248.709174 
L 260.5907 248.330817 
L 260.854298 247.92674 
L 261.230945 247.50931 
L 261.549661 247.017557 
" clip-path="url(#peeab42f239)" style="fill: none; stroke: #008000; stroke-width: 1.5; stroke-linecap: square"/>
   </g>
   <g id="line2d_24">
    <path d="M 262.540698 245.610486 
L 263.974605 242.906521 
L 265.338362 239.154911 
L 266.294636 235.63651 
L 267.021124 232.012288 
L 267.989822 224.91507 
L 268.545114 219.030792 
L 269.440654 208.938618 
L 270.65634 198.314319 
L 272.492023 182.312834 
L 272.756225 178.279591 
L 272.833738 174.510313 
L 272.724261 171.025196 
L 272.130154 165.458558 
L 270.709529 158.634555 
L 269.146823 153.436065 
L 268.365891 151.356054 
L 267.449304 149.029057 
L 266.033157 145.694272 
L 264.532089 143.062461 
L 263.13092 140.832575 
L 261.018629 137.833645 
L 259.857457 137.084155 
L 259.066694 136.966992 
L 258.097559 137.174512 
L 257.437732 137.595548 
L 257.095169 137.973985 
L 256.649616 138.669778 
L 254.742146 142.971941 
L 252.026488 150.150459 
L 248.079055 160.749213 
L 246.337354 165.339547 
L 243.035062 173.887385 
L 240.887445 179.166461 
L 237.349821 187.122708 
L 235.099789 191.753154 
L 232.265894 196.978025 
L 229.631528 201.325205 
L 228.206867 203.444105 
L 226.281335 206.034021 
L 224.307115 208.466938 
L 221.032887 211.602783 
L 218.872954 213.029753 
L 216.191895 214.356432 
L 210.618103 217.580671 
L 209.447387 218.990733 
L 209.175091 219.480123 
L 208.110218 222.091421 
L 206.0062 225.608617 
L 205.581237 226.08817 
L 204.588079 226.762941 
L 204.362479 226.489488 
L 204.230721 225.832709 
L 204.359613 224.787996 
L 204.727793 223.202136 
L 205.002978 222.026702 
L 205.279658 220.363999 
L 205.395799 218.835543 
L 205.317394 218.27894 
L 205.317394 218.27894 
" clip-path="url(#peeab42f239)" style="fill: none; stroke: #008000; stroke-width: 1.5; stroke-linecap: square"/>
   </g>
   <g id="line2d_25">
    <path d="M 265.006805 92.830959 
L 266.145995 94.103333 
L 266.81335 96.771218 
L 264.872665 102.689004 
L 261.734039 110.21722 
L 258.138601 117.469043 
L 254.874295 122.135325 
L 248.557052 129.183413 
L 245.44112 131.330776 
L 242.784765 133.565253 
L 241.242771 136.870119 
L 239.924378 141.254732 
L 239.699376 144.8688 
L 240.990735 145.215639 
L 242.60142 147.343646 
L 242.969904 151.30658 
L 242.229467 156.473069 
L 240.565433 162.705353 
L 238.392534 168.721372 
L 235.533141 174.14193 
L 231.475589 177.516098 
L 227.200471 181.610367 
L 222.79117 184.938927 
L 218.426024 188.730838 
L 214.065931 190.52448 
L 207.12305 194.124231 
L 203.695125 191.832772 
L 199.528757 191.206482 
L 193.991244 192.932729 
L 186.694155 200.062627 
L 180.085441 204.383673 
L 175.387332 204.431091 
L 171.397376 209.330946 
L 166.85676 211.055191 
L 160.081141 214.118483 
L 152.95647 218.249323 
L 147.020949 218.710211 
L 141.793361 221.199601 
L 138.177506 217.193454 
L 134.147891 216.189611 
L 126.979269 213.519554 
L 122.606567 215.635687 
L 117.062977 214.800474 
L 112.26999 209.917787 
L 108.653954 207.433582 
L 108.36478 203.576002 
L 105.994665 210.184431 
L 104.39698 217.211415 
L 106.520246 217.45086 
L 107.315227 214.719203 
L 103.140907 209.80486 
L 96.067463 208.242376 
L 96.181468 208.572877 
L 98.559397 199.436198 
L 96.54888 202.576138 
L 91.772466 199.494892 
L 88.049472 197.352711 
L 82.548354 192.195971 
L 79.960395 185.195841 
L 78.120476 178.545963 
L 77.842505 173.90141 
L 78.642586 167.201653 
L 79.134439 162.063243 
L 79.113527 155.694192 
L 78.779401 150.113066 
L 78.951055 144.519771 
L 79.428709 139.635502 
L 81.865 129.713878 
L 85.774311 118.249485 
L 87.485606 115.582475 
L 89.452437 112.729779 
L 91.210129 111.037832 
L 91.753645 112.388368 
L 92.305157 114.668254 
L 92.091789 119.431559 
L 91.124396 125.874463 
L 89.583893 133.075561 
L 89.054886 139.287605 
L 87.953549 142.581989 
L 86.629431 145.101017 
L 81.017578 156.653237 
L 79.510499 157.047133 
L 74.45106 169.421608 
L 79.208358 166.295689 
L 78.188307 174.084402 
L 78.114956 177.360585 
L 77.330314 184.697171 
L 77.151234 192.07841 
L 77.897232 197.881433 
L 79.601761 203.505484 
L 82.377973 207.25561 
L 84.922412 210.201232 
L 87.704556 212.566608 
L 90.553216 213.14709 
L 92.941562 213.15666 
L 95.34505 212.947332 
L 96.641808 211.306162 
L 97.088859 210.059278 
L 99.622806 211.975255 
L 103.731629 212.599639 
L 106.285353 213.2724 
L 111.958865 209.011554 
L 111.657068 208.196485 
L 112.198418 208.681599 
L 117.77468 205.578514 
L 122.835175 200.951294 
L 128.288014 207.693014 
L 134.072647 204.648693 
L 139.334621 203.672248 
L 146.487596 201.563713 
L 154.086977 202.625968 
L 161.603705 206.11461 
L 169.495348 209.965254 
L 185.849297 220.58911 
L 190.824285 229.396365 
L 194.537048 237.708926 
L 199.010221 243.18788 
L 206.027608 244.847715 
L 209.025658 247.220421 
L 215.921846 248.302493 
L 221.666831 247.559554 
L 227.00534 248.839709 
L 232.151124 248.910286 
L 236.499665 247.338874 
L 246.984889 243.124503 
L 250.810594 242.193876 
L 255.145932 241.389946 
L 259.358417 240.111499 
L 263.938892 238.976941 
L 267.261932 235.436002 
L 270.822413 230.565342 
L 272.984671 224.316726 
L 274.351997 218.500787 
L 275.259037 211.089375 
L 276.766263 182.01249 
L 277.480649 174.158592 
L 277.524867 164.886733 
L 276.821917 158.223379 
L 275.367564 150.122366 
L 273.846571 143.847235 
L 272.497324 140.107162 
L 271.120482 138.856557 
L 269.181423 134.603258 
L 266.092521 131.864533 
L 264.206304 131.234633 
L 262.308764 130.440375 
L 259.616298 133.363889 
L 258.132188 135.421948 
L 255.935175 138.963173 
L 252.554993 144.140261 
L 249.204009 150.41214 
L 260.962097 194.169516 
L 254.993683 199.461364 
L 250.57562 206.617717 
L 246.199413 212.50305 
L 241.558028 219.719447 
L 238.3077 223.82841 
L 235.476464 226.81773 
L 230.797296 233.733927 
L 227.326652 239.16946 
L 224.547233 241.770679 
L 222.861821 242.128369 
L 221.29608 243.433512 
L 219.778275 245.241467 
L 218.926797 245.09338 
L 216.907514 246.284147 
L 216.086897 248.666686 
L 215.457723 250.169503 
L 214.9438 250.707415 
L 213.429693 252.100501 
L 211.90844 252.692592 
L 211.220281 252.183564 
L 210.808771 252.317807 
L 210.824058 251.587027 
L 211.372338 250.355211 
L 211.845949 249.93646 
L 213.10341 247.105262 
L 213.295896 246.318585 
L 213.210597 245.97918 
L 213.337916 245.400842 
L 213.337916 245.400842 
" clip-path="url(#peeab42f239)" style="fill: none; stroke: #ff0000; stroke-width: 1.5; stroke-linecap: square"/>
   </g>
   <g id="legend_1">
    <g id="patch_6">
     <path d="M 243.41875 37.35625 
L 338.6 37.35625 
Q 340.6 37.35625 340.6 35.35625 
L 340.6 7 
Q 340.6 5 338.6 5 
L 243.41875 5 
Q 241.41875 5 241.41875 7 
L 241.41875 35.35625 
Q 241.41875 37.35625 243.41875 37.35625 
z
" style="fill: #ffffff; opacity: 0.8; stroke: #cccccc; stroke-linejoin: miter"/>
    </g>
    <g id="line2d_26">
     <path d="M 245.41875 13.098437 
L 255.41875 13.098437 
L 265.41875 13.098437 
" style="fill: none; stroke: #008000; stroke-width: 1.5; stroke-linecap: square"/>
    </g>
    <g id="text_21">
     <!-- ground truth -->
     <g transform="translate(273.41875 16.598437)scale(0.1 -0.1)">
      <defs>
       <path id="DejaVuSans-67" d="M 2906 1791 
Q 2906 2416 2648 2759 
Q 2391 3103 1925 3103 
Q 1463 3103 1205 2759 
Q 947 2416 947 1791 
Q 947 1169 1205 825 
Q 1463 481 1925 481 
Q 2391 481 2648 825 
Q 2906 1169 2906 1791 
z
M 3481 434 
Q 3481 -459 3084 -895 
Q 2688 -1331 1869 -1331 
Q 1566 -1331 1297 -1286 
Q 1028 -1241 775 -1147 
L 775 -588 
Q 1028 -725 1275 -790 
Q 1522 -856 1778 -856 
Q 2344 -856 2625 -561 
Q 2906 -266 2906 331 
L 2906 616 
Q 2728 306 2450 153 
Q 2172 0 1784 0 
Q 1141 0 747 490 
Q 353 981 353 1791 
Q 353 2603 747 3093 
Q 1141 3584 1784 3584 
Q 2172 3584 2450 3431 
Q 2728 3278 2906 2969 
L 2906 3500 
L 3481 3500 
L 3481 434 
z
" transform="scale(0.015625)"/>
       <path id="DejaVuSans-72" d="M 2631 2963 
Q 2534 3019 2420 3045 
Q 2306 3072 2169 3072 
Q 1681 3072 1420 2755 
Q 1159 2438 1159 1844 
L 1159 0 
L 581 0 
L 581 3500 
L 1159 3500 
L 1159 2956 
Q 1341 3275 1631 3429 
Q 1922 3584 2338 3584 
Q 2397 3584 2469 3576 
Q 2541 3569 2628 3553 
L 2631 2963 
z
" transform="scale(0.015625)"/>
       <path id="DejaVuSans-6f" d="M 1959 3097 
Q 1497 3097 1228 2736 
Q 959 2375 959 1747 
Q 959 1119 1226 758 
Q 1494 397 1959 397 
Q 2419 397 2687 759 
Q 2956 1122 2956 1747 
Q 2956 2369 2687 2733 
Q 2419 3097 1959 3097 
z
M 1959 3584 
Q 2709 3584 3137 3096 
Q 3566 2609 3566 1747 
Q 3566 888 3137 398 
Q 2709 -91 1959 -91 
Q 1206 -91 779 398 
Q 353 888 353 1747 
Q 353 2609 779 3096 
Q 1206 3584 1959 3584 
z
" transform="scale(0.015625)"/>
       <path id="DejaVuSans-75" d="M 544 1381 
L 544 3500 
L 1119 3500 
L 1119 1403 
Q 1119 906 1312 657 
Q 1506 409 1894 409 
Q 2359 409 2629 706 
Q 2900 1003 2900 1516 
L 2900 3500 
L 3475 3500 
L 3475 0 
L 2900 0 
L 2900 538 
Q 2691 219 2414 64 
Q 2138 -91 1772 -91 
Q 1169 -91 856 284 
Q 544 659 544 1381 
z
M 1991 3584 
L 1991 3584 
z
" transform="scale(0.015625)"/>
       <path id="DejaVuSans-6e" d="M 3513 2113 
L 3513 0 
L 2938 0 
L 2938 2094 
Q 2938 2591 2744 2837 
Q 2550 3084 2163 3084 
Q 1697 3084 1428 2787 
Q 1159 2491 1159 1978 
L 1159 0 
L 581 0 
L 581 3500 
L 1159 3500 
L 1159 2956 
Q 1366 3272 1645 3428 
Q 1925 3584 2291 3584 
Q 2894 3584 3203 3211 
Q 3513 2838 3513 2113 
z
" transform="scale(0.015625)"/>
       <path id="DejaVuSans-64" d="M 2906 2969 
L 2906 4863 
L 3481 4863 
L 3481 0 
L 2906 0 
L 2906 525 
Q 2725 213 2448 61 
Q 2172 -91 1784 -91 
Q 1150 -91 751 415 
Q 353 922 353 1747 
Q 353 2572 751 3078 
Q 1150 3584 1784 3584 
Q 2172 3584 2448 3432 
Q 2725 3281 2906 2969 
z
M 947 1747 
Q 947 1113 1208 752 
Q 1469 391 1925 391 
Q 2381 391 2643 752 
Q 2906 1113 2906 1747 
Q 2906 2381 2643 2742 
Q 2381 3103 1925 3103 
Q 1469 3103 1208 2742 
Q 947 2381 947 1747 
z
" transform="scale(0.015625)"/>
       <path id="DejaVuSans-74" d="M 1172 4494 
L 1172 3500 
L 2356 3500 
L 2356 3053 
L 1172 3053 
L 1172 1153 
Q 1172 725 1289 603 
Q 1406 481 1766 481 
L 2356 481 
L 2356 0 
L 1766 0 
Q 1100 0 847 248 
Q 594 497 594 1153 
L 594 3053 
L 172 3053 
L 172 3500 
L 594 3500 
L 594 4494 
L 1172 4494 
z
" transform="scale(0.015625)"/>
       <path id="DejaVuSans-68" d="M 3513 2113 
L 3513 0 
L 2938 0 
L 2938 2094 
Q 2938 2591 2744 2837 
Q 2550 3084 2163 3084 
Q 1697 3084 1428 2787 
Q 1159 2491 1159 1978 
L 1159 0 
L 581 0 
L 581 4863 
L 1159 4863 
L 1159 2956 
Q 1366 3272 1645 3428 
Q 1925 3584 2291 3584 
Q 2894 3584 3203 3211 
Q 3513 2838 3513 2113 
z
" transform="scale(0.015625)"/>
      </defs>
      <use xlink:href="#DejaVuSans-67"/>
      <use xlink:href="#DejaVuSans-72" x="63.476562"/>
      <use xlink:href="#DejaVuSans-6f" x="102.339844"/>
      <use xlink:href="#DejaVuSans-75" x="163.521484"/>
      <use xlink:href="#DejaVuSans-6e" x="226.900391"/>
      <use xlink:href="#DejaVuSans-64" x="290.279297"/>
      <use xlink:href="#DejaVuSans-20" x="353.755859"/>
      <use xlink:href="#DejaVuSans-74" x="385.542969"/>
      <use xlink:href="#DejaVuSans-72" x="424.751953"/>
      <use xlink:href="#DejaVuSans-75" x="465.865234"/>
      <use xlink:href="#DejaVuSans-74" x="529.244141"/>
      <use xlink:href="#DejaVuSans-68" x="568.453125"/>
     </g>
    </g>
    <g id="line2d_27">
     <path d="M 245.41875 27.776562 
L 255.41875 27.776562 
L 265.41875 27.776562 
" style="fill: none; stroke: #ff0000; stroke-width: 1.5; stroke-linecap: square"/>
    </g>
    <g id="text_22">
     <!-- estimated -->
     <g transform="translate(273.41875 31.276562)scale(0.1 -0.1)">
      <defs>
       <path id="DejaVuSans-65" d="M 3597 1894 
L 3597 1613 
L 953 1613 
Q 991 1019 1311 708 
Q 1631 397 2203 397 
Q 2534 397 2845 478 
Q 3156 559 3463 722 
L 3463 178 
Q 3153 47 2828 -22 
Q 2503 -91 2169 -91 
Q 1331 -91 842 396 
Q 353 884 353 1716 
Q 353 2575 817 3079 
Q 1281 3584 2069 3584 
Q 2775 3584 3186 3129 
Q 3597 2675 3597 1894 
z
M 3022 2063 
Q 3016 2534 2758 2815 
Q 2500 3097 2075 3097 
Q 1594 3097 1305 2825 
Q 1016 2553 972 2059 
L 3022 2063 
z
" transform="scale(0.015625)"/>
       <path id="DejaVuSans-73" d="M 2834 3397 
L 2834 2853 
Q 2591 2978 2328 3040 
Q 2066 3103 1784 3103 
Q 1356 3103 1142 2972 
Q 928 2841 928 2578 
Q 928 2378 1081 2264 
Q 1234 2150 1697 2047 
L 1894 2003 
Q 2506 1872 2764 1633 
Q 3022 1394 3022 966 
Q 3022 478 2636 193 
Q 2250 -91 1575 -91 
Q 1294 -91 989 -36 
Q 684 19 347 128 
L 347 722 
Q 666 556 975 473 
Q 1284 391 1588 391 
Q 1994 391 2212 530 
Q 2431 669 2431 922 
Q 2431 1156 2273 1281 
Q 2116 1406 1581 1522 
L 1381 1569 
Q 847 1681 609 1914 
Q 372 2147 372 2553 
Q 372 3047 722 3315 
Q 1072 3584 1716 3584 
Q 2034 3584 2315 3537 
Q 2597 3491 2834 3397 
z
" transform="scale(0.015625)"/>
       <path id="DejaVuSans-69" d="M 603 3500 
L 1178 3500 
L 1178 0 
L 603 0 
L 603 3500 
z
M 603 4863 
L 1178 4863 
L 1178 4134 
L 603 4134 
L 603 4863 
z
" transform="scale(0.015625)"/>
       <path id="DejaVuSans-61" d="M 2194 1759 
Q 1497 1759 1228 1600 
Q 959 1441 959 1056 
Q 959 750 1161 570 
Q 1363 391 1709 391 
Q 2188 391 2477 730 
Q 2766 1069 2766 1631 
L 2766 1759 
L 2194 1759 
z
M 3341 1997 
L 3341 0 
L 2766 0 
L 2766 531 
Q 2569 213 2275 61 
Q 1981 -91 1556 -91 
Q 1019 -91 701 211 
Q 384 513 384 1019 
Q 384 1609 779 1909 
Q 1175 2209 1959 2209 
L 2766 2209 
L 2766 2266 
Q 2766 2663 2505 2880 
Q 2244 3097 1772 3097 
Q 1472 3097 1187 3025 
Q 903 2953 641 2809 
L 641 3341 
Q 956 3463 1253 3523 
Q 1550 3584 1831 3584 
Q 2591 3584 2966 3190 
Q 3341 2797 3341 1997 
z
" transform="scale(0.015625)"/>
      </defs>
      <use xlink:href="#DejaVuSans-65"/>
      <use xlink:href="#DejaVuSans-73" x="61.523438"/>
      <use xlink:href="#DejaVuSans-74" x="113.623047"/>
      <use xlink:href="#DejaVuSans-69" x="152.832031"/>
      <use xlink:href="#DejaVuSans-6d" x="180.615234"/>
      <use xlink:href="#DejaVuSans-61" x="278.027344"/>
      <use xlink:href="#DejaVuSans-74" x="339.306641"/>
      <use xlink:href="#DejaVuSans-65" x="378.515625"/>
      <use xlink:href="#DejaVuSans-64" x="440.039062"/>
     </g>
    </g>
   </g>
  </g>
 </g>
 <defs>
  <clipPath id="peeab42f239">
   <rect x="0" y="-0" width="345.6" height="345.6"/>
  </clipPath>
 </defs>
</svg>
