<?xml version="1.0" encoding="utf-8" standalone="no"?>
<!DOCTYPE svg PUBLIC "-//W3C//DTD SVG 1.1//EN"
  "http://www.w3.org/Graphics/SVG/1.1/DTD/svg11.dtd">
<svg xmlns:xlink="http://www.w3.org/1999/xlink" width="405.265312pt" height="296.46825pt" viewBox="0 0 405.265312 296.46825" xmlns="http://www.w3.org/2000/svg" version="1.1">
 <metadata>
  <rdf:RDF xmlns:dc="http://purl.org/dc/elements/1.1/" xmlns:cc="http://creativecommons.org/ns#" xmlns:rdf="http://www.w3.org/1999/02/22-rdf-syntax-ns#">
   <cc:Work>
    <dc:type rdf:resource="http://purl.org/dc/dcmitype/StillImage"/>
    <dc:date>2022-02-09T21:07:31.136135</dc:date>
    <dc:format>image/svg+xml</dc:format>
    <dc:creator>
     <cc:Agent>
      <dc:title>Matplotlib v3.5.1, https://matplotlib.org/</dc:title>
     </cc:Agent>
    </dc:creator>
   </cc:Work>
  </rdf:RDF>
 </metadata>
 <defs>
  <style type="text/css">*{stroke-linejoin: round; stroke-linecap: butt}</style>
 </defs>
 <g id="figure_1">
  <g id="patch_1">
   <path d="M 0 296.46825 
L 405.265312 296.46825 
L 405.265312 0 
L 0 0 
z
" style="fill: #ffffff"/>
  </g>
  <g id="axes_1">
   <g id="patch_2">
    <path d="M 48.145313 78.268235 
L 405.265313 78.268235 
L 405.265313 0 
L 48.145313 0 
z
" style="fill: #ffffff"/>
   </g>
   <g id="matplotlib.axis_1">
    <g id="xtick_1">
     <g id="line2d_1">
      <defs>
       <path id="md7a3d4ec1d" d="M 0 0 
L 0 3.5 
" style="stroke: #000000; stroke-width: 0.8"/>
      </defs>
      <g>
       <use xlink:href="#md7a3d4ec1d" x="64.37804" y="78.268235" style="stroke: #000000; stroke-width: 0.8"/>
      </g>
     </g>
     <g id="text_1">
      <!-- 0 -->
      <g transform="translate(61.19679 92.866673)scale(0.1 -0.1)">
       <defs>
        <path id="DejaVuSans-30" d="M 2034 4250 
Q 1547 4250 1301 3770 
Q 1056 3291 1056 2328 
Q 1056 1369 1301 889 
Q 1547 409 2034 409 
Q 2525 409 2770 889 
Q 3016 1369 3016 2328 
Q 3016 3291 2770 3770 
Q 2525 4250 2034 4250 
z
M 2034 4750 
Q 2819 4750 3233 4129 
Q 3647 3509 3647 2328 
Q 3647 1150 3233 529 
Q 2819 -91 2034 -91 
Q 1250 -91 836 529 
Q 422 1150 422 2328 
Q 422 3509 836 4129 
Q 1250 4750 2034 4750 
z
" transform="scale(0.015625)"/>
       </defs>
       <use xlink:href="#DejaVuSans-30"/>
      </g>
     </g>
    </g>
    <g id="xtick_2">
     <g id="line2d_2">
      <g>
       <use xlink:href="#md7a3d4ec1d" x="121.839021" y="78.268235" style="stroke: #000000; stroke-width: 0.8"/>
      </g>
     </g>
     <g id="text_2">
      <!-- 20 -->
      <g transform="translate(115.476521 92.866673)scale(0.1 -0.1)">
       <defs>
        <path id="DejaVuSans-32" d="M 1228 531 
L 3431 531 
L 3431 0 
L 469 0 
L 469 531 
Q 828 903 1448 1529 
Q 2069 2156 2228 2338 
Q 2531 2678 2651 2914 
Q 2772 3150 2772 3378 
Q 2772 3750 2511 3984 
Q 2250 4219 1831 4219 
Q 1534 4219 1204 4116 
Q 875 4013 500 3803 
L 500 4441 
Q 881 4594 1212 4672 
Q 1544 4750 1819 4750 
Q 2544 4750 2975 4387 
Q 3406 4025 3406 3419 
Q 3406 3131 3298 2873 
Q 3191 2616 2906 2266 
Q 2828 2175 2409 1742 
Q 1991 1309 1228 531 
z
" transform="scale(0.015625)"/>
       </defs>
       <use xlink:href="#DejaVuSans-32"/>
       <use xlink:href="#DejaVuSans-30" x="63.623047"/>
      </g>
     </g>
    </g>
    <g id="xtick_3">
     <g id="line2d_3">
      <g>
       <use xlink:href="#md7a3d4ec1d" x="179.300003" y="78.268235" style="stroke: #000000; stroke-width: 0.8"/>
      </g>
     </g>
     <g id="text_3">
      <!-- 40 -->
      <g transform="translate(172.937503 92.866673)scale(0.1 -0.1)">
       <defs>
        <path id="DejaVuSans-34" d="M 2419 4116 
L 825 1625 
L 2419 1625 
L 2419 4116 
z
M 2253 4666 
L 3047 4666 
L 3047 1625 
L 3713 1625 
L 3713 1100 
L 3047 1100 
L 3047 0 
L 2419 0 
L 2419 1100 
L 313 1100 
L 313 1709 
L 2253 4666 
z
" transform="scale(0.015625)"/>
       </defs>
       <use xlink:href="#DejaVuSans-34"/>
       <use xlink:href="#DejaVuSans-30" x="63.623047"/>
      </g>
     </g>
    </g>
    <g id="xtick_4">
     <g id="line2d_4">
      <g>
       <use xlink:href="#md7a3d4ec1d" x="236.760984" y="78.268235" style="stroke: #000000; stroke-width: 0.8"/>
      </g>
     </g>
     <g id="text_4">
      <!-- 60 -->
      <g transform="translate(230.398484 92.866673)scale(0.1 -0.1)">
       <defs>
        <path id="DejaVuSans-36" d="M 2113 2584 
Q 1688 2584 1439 2293 
Q 1191 2003 1191 1497 
Q 1191 994 1439 701 
Q 1688 409 2113 409 
Q 2538 409 2786 701 
Q 3034 994 3034 1497 
Q 3034 2003 2786 2293 
Q 2538 2584 2113 2584 
z
M 3366 4563 
L 3366 3988 
Q 3128 4100 2886 4159 
Q 2644 4219 2406 4219 
Q 1781 4219 1451 3797 
Q 1122 3375 1075 2522 
Q 1259 2794 1537 2939 
Q 1816 3084 2150 3084 
Q 2853 3084 3261 2657 
Q 3669 2231 3669 1497 
Q 3669 778 3244 343 
Q 2819 -91 2113 -91 
Q 1303 -91 875 529 
Q 447 1150 447 2328 
Q 447 3434 972 4092 
Q 1497 4750 2381 4750 
Q 2619 4750 2861 4703 
Q 3103 4656 3366 4563 
z
" transform="scale(0.015625)"/>
       </defs>
       <use xlink:href="#DejaVuSans-36"/>
       <use xlink:href="#DejaVuSans-30" x="63.623047"/>
      </g>
     </g>
    </g>
    <g id="xtick_5">
     <g id="line2d_5">
      <g>
       <use xlink:href="#md7a3d4ec1d" x="294.221966" y="78.268235" style="stroke: #000000; stroke-width: 0.8"/>
      </g>
     </g>
     <g id="text_5">
      <!-- 80 -->
      <g transform="translate(287.859466 92.866673)scale(0.1 -0.1)">
       <defs>
        <path id="DejaVuSans-38" d="M 2034 2216 
Q 1584 2216 1326 1975 
Q 1069 1734 1069 1313 
Q 1069 891 1326 650 
Q 1584 409 2034 409 
Q 2484 409 2743 651 
Q 3003 894 3003 1313 
Q 3003 1734 2745 1975 
Q 2488 2216 2034 2216 
z
M 1403 2484 
Q 997 2584 770 2862 
Q 544 3141 544 3541 
Q 544 4100 942 4425 
Q 1341 4750 2034 4750 
Q 2731 4750 3128 4425 
Q 3525 4100 3525 3541 
Q 3525 3141 3298 2862 
Q 3072 2584 2669 2484 
Q 3125 2378 3379 2068 
Q 3634 1759 3634 1313 
Q 3634 634 3220 271 
Q 2806 -91 2034 -91 
Q 1263 -91 848 271 
Q 434 634 434 1313 
Q 434 1759 690 2068 
Q 947 2378 1403 2484 
z
M 1172 3481 
Q 1172 3119 1398 2916 
Q 1625 2713 2034 2713 
Q 2441 2713 2670 2916 
Q 2900 3119 2900 3481 
Q 2900 3844 2670 4047 
Q 2441 4250 2034 4250 
Q 1625 4250 1398 4047 
Q 1172 3844 1172 3481 
z
" transform="scale(0.015625)"/>
       </defs>
       <use xlink:href="#DejaVuSans-38"/>
       <use xlink:href="#DejaVuSans-30" x="63.623047"/>
      </g>
     </g>
    </g>
    <g id="xtick_6">
     <g id="line2d_6">
      <g>
       <use xlink:href="#md7a3d4ec1d" x="351.682947" y="78.268235" style="stroke: #000000; stroke-width: 0.8"/>
      </g>
     </g>
     <g id="text_6">
      <!-- 100 -->
      <g transform="translate(342.139197 92.866673)scale(0.1 -0.1)">
       <defs>
        <path id="DejaVuSans-31" d="M 794 531 
L 1825 531 
L 1825 4091 
L 703 3866 
L 703 4441 
L 1819 4666 
L 2450 4666 
L 2450 531 
L 3481 531 
L 3481 0 
L 794 0 
L 794 531 
z
" transform="scale(0.015625)"/>
       </defs>
       <use xlink:href="#DejaVuSans-31"/>
       <use xlink:href="#DejaVuSans-30" x="63.623047"/>
       <use xlink:href="#DejaVuSans-30" x="127.246094"/>
      </g>
     </g>
    </g>
    <g id="text_7">
     <!-- keyframe number -->
     <g transform="translate(182.025625 106.544798)scale(0.1 -0.1)">
      <defs>
       <path id="DejaVuSans-6b" d="M 581 4863 
L 1159 4863 
L 1159 1991 
L 2875 3500 
L 3609 3500 
L 1753 1863 
L 3688 0 
L 2938 0 
L 1159 1709 
L 1159 0 
L 581 0 
L 581 4863 
z
" transform="scale(0.015625)"/>
       <path id="DejaVuSans-65" d="M 3597 1894 
L 3597 1613 
L 953 1613 
Q 991 1019 1311 708 
Q 1631 397 2203 397 
Q 2534 397 2845 478 
Q 3156 559 3463 722 
L 3463 178 
Q 3153 47 2828 -22 
Q 2503 -91 2169 -91 
Q 1331 -91 842 396 
Q 353 884 353 1716 
Q 353 2575 817 3079 
Q 1281 3584 2069 3584 
Q 2775 3584 3186 3129 
Q 3597 2675 3597 1894 
z
M 3022 2063 
Q 3016 2534 2758 2815 
Q 2500 3097 2075 3097 
Q 1594 3097 1305 2825 
Q 1016 2553 972 2059 
L 3022 2063 
z
" transform="scale(0.015625)"/>
       <path id="DejaVuSans-79" d="M 2059 -325 
Q 1816 -950 1584 -1140 
Q 1353 -1331 966 -1331 
L 506 -1331 
L 506 -850 
L 844 -850 
Q 1081 -850 1212 -737 
Q 1344 -625 1503 -206 
L 1606 56 
L 191 3500 
L 800 3500 
L 1894 763 
L 2988 3500 
L 3597 3500 
L 2059 -325 
z
" transform="scale(0.015625)"/>
       <path id="DejaVuSans-66" d="M 2375 4863 
L 2375 4384 
L 1825 4384 
Q 1516 4384 1395 4259 
Q 1275 4134 1275 3809 
L 1275 3500 
L 2222 3500 
L 2222 3053 
L 1275 3053 
L 1275 0 
L 697 0 
L 697 3053 
L 147 3053 
L 147 3500 
L 697 3500 
L 697 3744 
Q 697 4328 969 4595 
Q 1241 4863 1831 4863 
L 2375 4863 
z
" transform="scale(0.015625)"/>
       <path id="DejaVuSans-72" d="M 2631 2963 
Q 2534 3019 2420 3045 
Q 2306 3072 2169 3072 
Q 1681 3072 1420 2755 
Q 1159 2438 1159 1844 
L 1159 0 
L 581 0 
L 581 3500 
L 1159 3500 
L 1159 2956 
Q 1341 3275 1631 3429 
Q 1922 3584 2338 3584 
Q 2397 3584 2469 3576 
Q 2541 3569 2628 3553 
L 2631 2963 
z
" transform="scale(0.015625)"/>
       <path id="DejaVuSans-61" d="M 2194 1759 
Q 1497 1759 1228 1600 
Q 959 1441 959 1056 
Q 959 750 1161 570 
Q 1363 391 1709 391 
Q 2188 391 2477 730 
Q 2766 1069 2766 1631 
L 2766 1759 
L 2194 1759 
z
M 3341 1997 
L 3341 0 
L 2766 0 
L 2766 531 
Q 2569 213 2275 61 
Q 1981 -91 1556 -91 
Q 1019 -91 701 211 
Q 384 513 384 1019 
Q 384 1609 779 1909 
Q 1175 2209 1959 2209 
L 2766 2209 
L 2766 2266 
Q 2766 2663 2505 2880 
Q 2244 3097 1772 3097 
Q 1472 3097 1187 3025 
Q 903 2953 641 2809 
L 641 3341 
Q 956 3463 1253 3523 
Q 1550 3584 1831 3584 
Q 2591 3584 2966 3190 
Q 3341 2797 3341 1997 
z
" transform="scale(0.015625)"/>
       <path id="DejaVuSans-6d" d="M 3328 2828 
Q 3544 3216 3844 3400 
Q 4144 3584 4550 3584 
Q 5097 3584 5394 3201 
Q 5691 2819 5691 2113 
L 5691 0 
L 5113 0 
L 5113 2094 
Q 5113 2597 4934 2840 
Q 4756 3084 4391 3084 
Q 3944 3084 3684 2787 
Q 3425 2491 3425 1978 
L 3425 0 
L 2847 0 
L 2847 2094 
Q 2847 2600 2669 2842 
Q 2491 3084 2119 3084 
Q 1678 3084 1418 2786 
Q 1159 2488 1159 1978 
L 1159 0 
L 581 0 
L 581 3500 
L 1159 3500 
L 1159 2956 
Q 1356 3278 1631 3431 
Q 1906 3584 2284 3584 
Q 2666 3584 2933 3390 
Q 3200 3197 3328 2828 
z
" transform="scale(0.015625)"/>
       <path id="DejaVuSans-20" transform="scale(0.015625)"/>
       <path id="DejaVuSans-6e" d="M 3513 2113 
L 3513 0 
L 2938 0 
L 2938 2094 
Q 2938 2591 2744 2837 
Q 2550 3084 2163 3084 
Q 1697 3084 1428 2787 
Q 1159 2491 1159 1978 
L 1159 0 
L 581 0 
L 581 3500 
L 1159 3500 
L 1159 2956 
Q 1366 3272 1645 3428 
Q 1925 3584 2291 3584 
Q 2894 3584 3203 3211 
Q 3513 2838 3513 2113 
z
" transform="scale(0.015625)"/>
       <path id="DejaVuSans-75" d="M 544 1381 
L 544 3500 
L 1119 3500 
L 1119 1403 
Q 1119 906 1312 657 
Q 1506 409 1894 409 
Q 2359 409 2629 706 
Q 2900 1003 2900 1516 
L 2900 3500 
L 3475 3500 
L 3475 0 
L 2900 0 
L 2900 538 
Q 2691 219 2414 64 
Q 2138 -91 1772 -91 
Q 1169 -91 856 284 
Q 544 659 544 1381 
z
M 1991 3584 
L 1991 3584 
z
" transform="scale(0.015625)"/>
       <path id="DejaVuSans-62" d="M 3116 1747 
Q 3116 2381 2855 2742 
Q 2594 3103 2138 3103 
Q 1681 3103 1420 2742 
Q 1159 2381 1159 1747 
Q 1159 1113 1420 752 
Q 1681 391 2138 391 
Q 2594 391 2855 752 
Q 3116 1113 3116 1747 
z
M 1159 2969 
Q 1341 3281 1617 3432 
Q 1894 3584 2278 3584 
Q 2916 3584 3314 3078 
Q 3713 2572 3713 1747 
Q 3713 922 3314 415 
Q 2916 -91 2278 -91 
Q 1894 -91 1617 61 
Q 1341 213 1159 525 
L 1159 0 
L 581 0 
L 581 4863 
L 1159 4863 
L 1159 2969 
z
" transform="scale(0.015625)"/>
      </defs>
      <use xlink:href="#DejaVuSans-6b"/>
      <use xlink:href="#DejaVuSans-65" x="54.285156"/>
      <use xlink:href="#DejaVuSans-79" x="115.808594"/>
      <use xlink:href="#DejaVuSans-66" x="174.988281"/>
      <use xlink:href="#DejaVuSans-72" x="210.193359"/>
      <use xlink:href="#DejaVuSans-61" x="251.306641"/>
      <use xlink:href="#DejaVuSans-6d" x="312.585938"/>
      <use xlink:href="#DejaVuSans-65" x="409.998047"/>
      <use xlink:href="#DejaVuSans-20" x="471.521484"/>
      <use xlink:href="#DejaVuSans-6e" x="503.308594"/>
      <use xlink:href="#DejaVuSans-75" x="566.6875"/>
      <use xlink:href="#DejaVuSans-6d" x="630.066406"/>
      <use xlink:href="#DejaVuSans-62" x="727.478516"/>
      <use xlink:href="#DejaVuSans-65" x="790.955078"/>
      <use xlink:href="#DejaVuSans-72" x="852.478516"/>
     </g>
    </g>
   </g>
   <g id="matplotlib.axis_2">
    <g id="ytick_1">
     <g id="line2d_7">
      <defs>
       <path id="ma4205b7b72" d="M 0 0 
L -3.5 0 
" style="stroke: #000000; stroke-width: 0.8"/>
      </defs>
      <g>
       <use xlink:href="#ma4205b7b72" x="48.145313" y="58.879918" style="stroke: #000000; stroke-width: 0.8"/>
      </g>
     </g>
     <g id="text_8">
      <!-- −130 -->
      <g transform="translate(13.678125 62.679136)scale(0.1 -0.1)">
       <defs>
        <path id="DejaVuSans-2212" d="M 678 2272 
L 4684 2272 
L 4684 1741 
L 678 1741 
L 678 2272 
z
" transform="scale(0.015625)"/>
        <path id="DejaVuSans-33" d="M 2597 2516 
Q 3050 2419 3304 2112 
Q 3559 1806 3559 1356 
Q 3559 666 3084 287 
Q 2609 -91 1734 -91 
Q 1441 -91 1130 -33 
Q 819 25 488 141 
L 488 750 
Q 750 597 1062 519 
Q 1375 441 1716 441 
Q 2309 441 2620 675 
Q 2931 909 2931 1356 
Q 2931 1769 2642 2001 
Q 2353 2234 1838 2234 
L 1294 2234 
L 1294 2753 
L 1863 2753 
Q 2328 2753 2575 2939 
Q 2822 3125 2822 3475 
Q 2822 3834 2567 4026 
Q 2313 4219 1838 4219 
Q 1578 4219 1281 4162 
Q 984 4106 628 3988 
L 628 4550 
Q 988 4650 1302 4700 
Q 1616 4750 1894 4750 
Q 2613 4750 3031 4423 
Q 3450 4097 3450 3541 
Q 3450 3153 3228 2886 
Q 3006 2619 2597 2516 
z
" transform="scale(0.015625)"/>
       </defs>
       <use xlink:href="#DejaVuSans-2212"/>
       <use xlink:href="#DejaVuSans-31" x="83.789062"/>
       <use xlink:href="#DejaVuSans-33" x="147.412109"/>
       <use xlink:href="#DejaVuSans-30" x="211.035156"/>
      </g>
     </g>
    </g>
    <g id="ytick_2">
     <g id="line2d_8">
      <g>
       <use xlink:href="#ma4205b7b72" x="48.145313" y="38.577284" style="stroke: #000000; stroke-width: 0.8"/>
      </g>
     </g>
     <g id="text_9">
      <!-- −120 -->
      <g transform="translate(13.678125 42.376503)scale(0.1 -0.1)">
       <use xlink:href="#DejaVuSans-2212"/>
       <use xlink:href="#DejaVuSans-31" x="83.789062"/>
       <use xlink:href="#DejaVuSans-32" x="147.412109"/>
       <use xlink:href="#DejaVuSans-30" x="211.035156"/>
      </g>
     </g>
    </g>
    <g id="ytick_3">
     <g id="line2d_9">
      <g>
       <use xlink:href="#ma4205b7b72" x="48.145313" y="18.274651" style="stroke: #000000; stroke-width: 0.8"/>
      </g>
     </g>
     <g id="text_10">
      <!-- −110 -->
      <g transform="translate(13.678125 22.073869)scale(0.1 -0.1)">
       <use xlink:href="#DejaVuSans-2212"/>
       <use xlink:href="#DejaVuSans-31" x="83.789062"/>
       <use xlink:href="#DejaVuSans-31" x="147.412109"/>
       <use xlink:href="#DejaVuSans-30" x="211.035156"/>
      </g>
     </g>
    </g>
    <g id="text_11">
     <!-- yaw [degrees] -->
     <g transform="translate(7.598437 74.863024)rotate(-90)scale(0.1 -0.1)">
      <defs>
       <path id="DejaVuSans-77" d="M 269 3500 
L 844 3500 
L 1563 769 
L 2278 3500 
L 2956 3500 
L 3675 769 
L 4391 3500 
L 4966 3500 
L 4050 0 
L 3372 0 
L 2619 2869 
L 1863 0 
L 1184 0 
L 269 3500 
z
" transform="scale(0.015625)"/>
       <path id="DejaVuSans-5b" d="M 550 4863 
L 1875 4863 
L 1875 4416 
L 1125 4416 
L 1125 -397 
L 1875 -397 
L 1875 -844 
L 550 -844 
L 550 4863 
z
" transform="scale(0.015625)"/>
       <path id="DejaVuSans-64" d="M 2906 2969 
L 2906 4863 
L 3481 4863 
L 3481 0 
L 2906 0 
L 2906 525 
Q 2725 213 2448 61 
Q 2172 -91 1784 -91 
Q 1150 -91 751 415 
Q 353 922 353 1747 
Q 353 2572 751 3078 
Q 1150 3584 1784 3584 
Q 2172 3584 2448 3432 
Q 2725 3281 2906 2969 
z
M 947 1747 
Q 947 1113 1208 752 
Q 1469 391 1925 391 
Q 2381 391 2643 752 
Q 2906 1113 2906 1747 
Q 2906 2381 2643 2742 
Q 2381 3103 1925 3103 
Q 1469 3103 1208 2742 
Q 947 2381 947 1747 
z
" transform="scale(0.015625)"/>
       <path id="DejaVuSans-67" d="M 2906 1791 
Q 2906 2416 2648 2759 
Q 2391 3103 1925 3103 
Q 1463 3103 1205 2759 
Q 947 2416 947 1791 
Q 947 1169 1205 825 
Q 1463 481 1925 481 
Q 2391 481 2648 825 
Q 2906 1169 2906 1791 
z
M 3481 434 
Q 3481 -459 3084 -895 
Q 2688 -1331 1869 -1331 
Q 1566 -1331 1297 -1286 
Q 1028 -1241 775 -1147 
L 775 -588 
Q 1028 -725 1275 -790 
Q 1522 -856 1778 -856 
Q 2344 -856 2625 -561 
Q 2906 -266 2906 331 
L 2906 616 
Q 2728 306 2450 153 
Q 2172 0 1784 0 
Q 1141 0 747 490 
Q 353 981 353 1791 
Q 353 2603 747 3093 
Q 1141 3584 1784 3584 
Q 2172 3584 2450 3431 
Q 2728 3278 2906 2969 
L 2906 3500 
L 3481 3500 
L 3481 434 
z
" transform="scale(0.015625)"/>
       <path id="DejaVuSans-73" d="M 2834 3397 
L 2834 2853 
Q 2591 2978 2328 3040 
Q 2066 3103 1784 3103 
Q 1356 3103 1142 2972 
Q 928 2841 928 2578 
Q 928 2378 1081 2264 
Q 1234 2150 1697 2047 
L 1894 2003 
Q 2506 1872 2764 1633 
Q 3022 1394 3022 966 
Q 3022 478 2636 193 
Q 2250 -91 1575 -91 
Q 1294 -91 989 -36 
Q 684 19 347 128 
L 347 722 
Q 666 556 975 473 
Q 1284 391 1588 391 
Q 1994 391 2212 530 
Q 2431 669 2431 922 
Q 2431 1156 2273 1281 
Q 2116 1406 1581 1522 
L 1381 1569 
Q 847 1681 609 1914 
Q 372 2147 372 2553 
Q 372 3047 722 3315 
Q 1072 3584 1716 3584 
Q 2034 3584 2315 3537 
Q 2597 3491 2834 3397 
z
" transform="scale(0.015625)"/>
       <path id="DejaVuSans-5d" d="M 1947 4863 
L 1947 -844 
L 622 -844 
L 622 -397 
L 1369 -397 
L 1369 4416 
L 622 4416 
L 622 4863 
L 1947 4863 
z
" transform="scale(0.015625)"/>
      </defs>
      <use xlink:href="#DejaVuSans-79"/>
      <use xlink:href="#DejaVuSans-61" x="59.179688"/>
      <use xlink:href="#DejaVuSans-77" x="120.458984"/>
      <use xlink:href="#DejaVuSans-20" x="202.246094"/>
      <use xlink:href="#DejaVuSans-5b" x="234.033203"/>
      <use xlink:href="#DejaVuSans-64" x="273.046875"/>
      <use xlink:href="#DejaVuSans-65" x="336.523438"/>
      <use xlink:href="#DejaVuSans-67" x="398.046875"/>
      <use xlink:href="#DejaVuSans-72" x="461.523438"/>
      <use xlink:href="#DejaVuSans-65" x="500.386719"/>
      <use xlink:href="#DejaVuSans-65" x="561.910156"/>
      <use xlink:href="#DejaVuSans-73" x="623.433594"/>
      <use xlink:href="#DejaVuSans-5d" x="675.533203"/>
     </g>
    </g>
   </g>
   <g id="line2d_10">
    <path d="M 64.37804 32.46466 
L 67.276741 30.03397 
L 70.175442 33.681826 
L 73.074144 44.105864 
L 75.972845 42.64788 
L 78.871546 41.79542 
L 81.770248 39.853311 
L 84.668949 31.771624 
L 87.56765 22.551932 
L 90.466351 23.035772 
L 93.365053 26.267048 
L 96.263754 33.660375 
L 99.162455 53.566362 
L 102.061157 53.418513 
L 104.959858 44.744348 
L 107.858559 11.511185 
L 110.757261 15.946278 
L 113.655962 22.231932 
L 116.554663 28.332504 
L 119.453364 33.979246 
L 122.352066 34.607122 
L 125.250767 42.31422 
L 128.149468 46.487931 
L 131.04817 31.474325 
L 133.946871 32.989928 
L 136.845572 28.017937 
L 139.744274 19.14923 
L 142.642975 6.351395 
L 145.541676 12.614982 
L 148.440377 18.448094 
L 151.339079 27.195841 
L 154.23778 35.207905 
L 157.136481 39.575926 
L 160.035183 35.684079 
L 162.933884 62.398135 
L 165.832585 60.421582 
L 168.731287 61.837155 
L 171.629988 63.468574 
L 174.528689 62.376657 
L 177.42739 61.198546 
L 180.326092 57.164813 
L 183.224793 54.994545 
L 186.123494 52.562507 
L 189.022196 50.275771 
L 191.920897 46.266785 
L 194.819598 42.353843 
L 197.7183 39.989453 
L 200.617001 38.423863 
L 203.515702 43.655179 
L 206.414403 48.361542 
L 209.313105 57.299113 
L 212.211806 56.653616 
L 215.110507 58.406421 
L 218.009209 60.30809 
L 220.90791 58.896054 
L 223.806611 55.758608 
L 226.705313 56.515883 
L 229.604014 55.61041 
L 232.502715 55.655759 
L 235.401416 54.570931 
L 238.300118 50.230293 
L 241.198819 49.392299 
L 244.09752 50.034663 
L 246.996222 55.477008 
L 249.894923 56.93226 
L 252.793624 53.86046 
L 255.692325 64.240678 
L 258.591027 69.396674 
L 261.489728 63.222698 
L 264.388429 58.181104 
L 267.287131 52.049281 
L 270.185832 52.772019 
L 273.084533 49.721989 
L 275.983235 51.022605 
L 278.881936 47.327138 
L 281.780637 45.283404 
L 284.679338 47.71216 
L 287.57804 50.558619 
L 290.476741 50.517699 
L 293.375442 52.747862 
L 296.274144 58.956743 
L 299.172845 57.619299 
L 302.071546 53.276494 
L 304.970248 46.966054 
L 307.868949 51.117391 
L 310.76765 50.498833 
L 313.666351 50.996607 
L 316.565053 53.619178 
L 319.463754 59.103183 
L 322.362455 59.721434 
L 325.261157 56.092625 
L 328.159858 61.383737 
L 331.058559 62.823885 
L 333.957261 58.478685 
L 336.855962 54.680388 
L 339.754663 52.293684 
L 342.653364 51.644853 
L 345.552066 54.905076 
L 348.450767 58.316297 
L 351.349468 57.487633 
L 354.24817 64.402145 
L 357.146871 66.261598 
L 360.045572 66.900534 
L 362.944274 60.644448 
L 365.842975 62.783146 
L 368.741676 64.060459 
L 371.640377 63.991574 
L 374.539079 56.345866 
L 377.43778 55.36595 
L 380.336481 58.141302 
L 383.235183 58.763859 
L 386.133884 59.088761 
L 389.032585 58.968622 
" clip-path="url(#p68c8bb2f94)" style="fill: none; stroke: #008000; stroke-width: 1.5; stroke-linecap: square"/>
   </g>
   <g id="line2d_11">
    <path d="M 64.37804 32.464729 
L 67.276741 30.052154 
L 70.175442 34.407707 
L 73.074144 44.989552 
L 75.972845 43.083034 
L 78.871546 42.411973 
L 81.770248 41.106346 
L 84.668949 32.058134 
L 87.56765 22.315202 
L 90.466351 22.944732 
L 93.365053 25.161044 
L 96.263754 32.815943 
L 99.162455 53.41516 
L 102.061157 52.633943 
L 104.959858 44.696806 
L 107.858559 11.244691 
L 110.757261 14.64614 
L 113.655962 21.446097 
L 116.554663 27.504134 
L 119.453364 31.107893 
L 122.352066 33.901718 
L 125.250767 42.677181 
L 128.149468 46.658458 
L 131.04817 30.952962 
L 133.946871 31.783555 
L 136.845572 26.422864 
L 139.744274 16.622661 
L 142.642975 3.557647 
L 145.541676 10.31325 
L 148.440377 16.201312 
L 151.339079 25.050479 
L 154.23778 33.52209 
L 157.136481 39.956582 
L 160.035183 33.72452 
L 162.933884 64.057184 
L 165.832585 63.293615 
L 168.731287 64.889005 
L 171.629988 66.468342 
L 174.528689 64.35749 
L 177.42739 63.023794 
L 180.326092 60.602095 
L 183.224793 58.577474 
L 186.123494 56.02373 
L 189.022196 53.504265 
L 191.920897 48.932312 
L 194.819598 44.460343 
L 197.7183 42.17244 
L 200.617001 41.309647 
L 203.515702 46.496692 
L 206.414403 51.765545 
L 209.313105 60.547083 
L 212.211806 59.870742 
L 215.110507 61.441047 
L 218.009209 63.422264 
L 220.90791 61.992673 
L 223.806611 59.283288 
L 226.705313 59.290715 
L 229.604014 59.548166 
L 232.502715 59.390141 
L 235.401416 58.461506 
L 238.300118 55.073405 
L 241.198819 54.258763 
L 244.09752 55.104038 
L 246.996222 61.058061 
L 249.894923 62.701858 
L 252.793624 59.045537 
L 255.692325 69.517527 
L 258.591027 74.710588 
L 261.489728 68.251979 
L 264.388429 63.341735 
L 267.287131 57.247278 
L 270.185832 57.696665 
L 273.084533 54.329556 
L 275.983235 55.909934 
L 278.881936 52.094687 
L 281.780637 51.160421 
L 284.679338 53.691661 
L 287.57804 56.377158 
L 290.476741 56.678377 
L 293.375442 58.141835 
L 296.274144 63.455405 
L 299.172845 63.46906 
L 302.071546 59.337509 
L 304.970248 52.966177 
L 307.868949 56.771849 
L 310.76765 55.094517 
L 313.666351 54.684009 
L 316.565053 58.935401 
L 319.463754 64.20834 
L 322.362455 64.518715 
L 325.261157 61.727059 
L 328.159858 66.349464 
L 331.058559 68.093946 
L 333.957261 63.102403 
L 336.855962 58.415941 
L 339.754663 55.442511 
L 342.653364 55.168334 
L 345.552066 58.732581 
L 348.450767 62.877954 
L 351.349468 61.194725 
L 354.24817 67.947895 
L 357.146871 69.236427 
L 360.045572 69.771092 
L 362.944274 63.803859 
L 365.842975 65.050531 
L 368.741676 65.209991 
L 371.640377 64.574254 
L 374.539079 58.106014 
L 377.43778 54.528067 
L 380.336481 57.329957 
L 383.235183 58.035078 
L 386.133884 59.194011 
L 389.032585 58.72301 
" clip-path="url(#p68c8bb2f94)" style="fill: none; stroke: #ff0000; stroke-width: 1.5; stroke-linecap: square"/>
   </g>
   <g id="patch_3">
    <path d="M 48.145313 78.268235 
L 48.145313 -0 
" style="fill: none; stroke: #000000; stroke-width: 0.8; stroke-linejoin: miter; stroke-linecap: square"/>
   </g>
   <g id="patch_4">
    <path d="M 405.265313 78.268235 
L 405.265313 -0 
" style="fill: none; stroke: #000000; stroke-width: 0.8; stroke-linejoin: miter; stroke-linecap: square"/>
   </g>
   <g id="patch_5">
    <path d="M 48.145313 78.268235 
L 405.265313 78.268235 
" style="fill: none; stroke: #000000; stroke-width: 0.8; stroke-linejoin: miter; stroke-linecap: square"/>
   </g>
   <g id="patch_6">
    <path d="M 48.145313 0 
L 405.265313 0 
" style="fill: none; stroke: #000000; stroke-width: 0.8; stroke-linejoin: miter; stroke-linecap: square"/>
   </g>
   <g id="legend_1">
    <g id="patch_7">
     <path d="M 301.262188 37.634375 
L 398.265313 37.634375 
Q 400.265313 37.634375 400.265313 35.634375 
L 400.265313 7 
Q 400.265313 5 398.265313 5 
L 301.262188 5 
Q 299.262188 5 299.262188 7 
L 299.262188 35.634375 
Q 299.262188 37.634375 301.262188 37.634375 
z
" style="fill: #ffffff; opacity: 0.8; stroke: #cccccc; stroke-linejoin: miter"/>
    </g>
    <g id="line2d_12">
     <path d="M 303.262188 13.098437 
L 313.262188 13.098437 
L 323.262188 13.098437 
" style="fill: none; stroke: #008000; stroke-width: 1.5; stroke-linecap: square"/>
    </g>
    <g id="text_12">
     <!-- ground_truth -->
     <g transform="translate(331.262188 16.598437)scale(0.1 -0.1)">
      <defs>
       <path id="DejaVuSans-6f" d="M 1959 3097 
Q 1497 3097 1228 2736 
Q 959 2375 959 1747 
Q 959 1119 1226 758 
Q 1494 397 1959 397 
Q 2419 397 2687 759 
Q 2956 1122 2956 1747 
Q 2956 2369 2687 2733 
Q 2419 3097 1959 3097 
z
M 1959 3584 
Q 2709 3584 3137 3096 
Q 3566 2609 3566 1747 
Q 3566 888 3137 398 
Q 2709 -91 1959 -91 
Q 1206 -91 779 398 
Q 353 888 353 1747 
Q 353 2609 779 3096 
Q 1206 3584 1959 3584 
z
" transform="scale(0.015625)"/>
       <path id="DejaVuSans-5f" d="M 3263 -1063 
L 3263 -1509 
L -63 -1509 
L -63 -1063 
L 3263 -1063 
z
" transform="scale(0.015625)"/>
       <path id="DejaVuSans-74" d="M 1172 4494 
L 1172 3500 
L 2356 3500 
L 2356 3053 
L 1172 3053 
L 1172 1153 
Q 1172 725 1289 603 
Q 1406 481 1766 481 
L 2356 481 
L 2356 0 
L 1766 0 
Q 1100 0 847 248 
Q 594 497 594 1153 
L 594 3053 
L 172 3053 
L 172 3500 
L 594 3500 
L 594 4494 
L 1172 4494 
z
" transform="scale(0.015625)"/>
       <path id="DejaVuSans-68" d="M 3513 2113 
L 3513 0 
L 2938 0 
L 2938 2094 
Q 2938 2591 2744 2837 
Q 2550 3084 2163 3084 
Q 1697 3084 1428 2787 
Q 1159 2491 1159 1978 
L 1159 0 
L 581 0 
L 581 4863 
L 1159 4863 
L 1159 2956 
Q 1366 3272 1645 3428 
Q 1925 3584 2291 3584 
Q 2894 3584 3203 3211 
Q 3513 2838 3513 2113 
z
" transform="scale(0.015625)"/>
      </defs>
      <use xlink:href="#DejaVuSans-67"/>
      <use xlink:href="#DejaVuSans-72" x="63.476562"/>
      <use xlink:href="#DejaVuSans-6f" x="102.339844"/>
      <use xlink:href="#DejaVuSans-75" x="163.521484"/>
      <use xlink:href="#DejaVuSans-6e" x="226.900391"/>
      <use xlink:href="#DejaVuSans-64" x="290.279297"/>
      <use xlink:href="#DejaVuSans-5f" x="353.755859"/>
      <use xlink:href="#DejaVuSans-74" x="403.755859"/>
      <use xlink:href="#DejaVuSans-72" x="442.964844"/>
      <use xlink:href="#DejaVuSans-75" x="484.078125"/>
      <use xlink:href="#DejaVuSans-74" x="547.457031"/>
      <use xlink:href="#DejaVuSans-68" x="586.666016"/>
     </g>
    </g>
    <g id="line2d_13">
     <path d="M 303.262188 28.054688 
L 313.262188 28.054688 
L 323.262188 28.054688 
" style="fill: none; stroke: #ff0000; stroke-width: 1.5; stroke-linecap: square"/>
    </g>
    <g id="text_13">
     <!-- estimated -->
     <g transform="translate(331.262188 31.554688)scale(0.1 -0.1)">
      <defs>
       <path id="DejaVuSans-69" d="M 603 3500 
L 1178 3500 
L 1178 0 
L 603 0 
L 603 3500 
z
M 603 4863 
L 1178 4863 
L 1178 4134 
L 603 4134 
L 603 4863 
z
" transform="scale(0.015625)"/>
      </defs>
      <use xlink:href="#DejaVuSans-65"/>
      <use xlink:href="#DejaVuSans-73" x="61.523438"/>
      <use xlink:href="#DejaVuSans-74" x="113.623047"/>
      <use xlink:href="#DejaVuSans-69" x="152.832031"/>
      <use xlink:href="#DejaVuSans-6d" x="180.615234"/>
      <use xlink:href="#DejaVuSans-61" x="278.027344"/>
      <use xlink:href="#DejaVuSans-74" x="339.306641"/>
      <use xlink:href="#DejaVuSans-65" x="378.515625"/>
      <use xlink:href="#DejaVuSans-64" x="440.039062"/>
     </g>
    </g>
   </g>
  </g>
  <g id="axes_2">
   <g id="patch_8">
    <path d="M 48.145313 172.190118 
L 405.265313 172.190118 
L 405.265313 93.921882 
L 48.145313 93.921882 
z
" style="fill: #ffffff"/>
   </g>
   <g id="matplotlib.axis_3">
    <g id="xtick_7">
     <g id="line2d_14">
      <g>
       <use xlink:href="#md7a3d4ec1d" x="64.37804" y="172.190118" style="stroke: #000000; stroke-width: 0.8"/>
      </g>
     </g>
     <g id="text_14">
      <!-- 0 -->
      <g transform="translate(61.19679 186.788555)scale(0.1 -0.1)">
       <use xlink:href="#DejaVuSans-30"/>
      </g>
     </g>
    </g>
    <g id="xtick_8">
     <g id="line2d_15">
      <g>
       <use xlink:href="#md7a3d4ec1d" x="121.839021" y="172.190118" style="stroke: #000000; stroke-width: 0.8"/>
      </g>
     </g>
     <g id="text_15">
      <!-- 20 -->
      <g transform="translate(115.476521 186.788555)scale(0.1 -0.1)">
       <use xlink:href="#DejaVuSans-32"/>
       <use xlink:href="#DejaVuSans-30" x="63.623047"/>
      </g>
     </g>
    </g>
    <g id="xtick_9">
     <g id="line2d_16">
      <g>
       <use xlink:href="#md7a3d4ec1d" x="179.300003" y="172.190118" style="stroke: #000000; stroke-width: 0.8"/>
      </g>
     </g>
     <g id="text_16">
      <!-- 40 -->
      <g transform="translate(172.937503 186.788555)scale(0.1 -0.1)">
       <use xlink:href="#DejaVuSans-34"/>
       <use xlink:href="#DejaVuSans-30" x="63.623047"/>
      </g>
     </g>
    </g>
    <g id="xtick_10">
     <g id="line2d_17">
      <g>
       <use xlink:href="#md7a3d4ec1d" x="236.760984" y="172.190118" style="stroke: #000000; stroke-width: 0.8"/>
      </g>
     </g>
     <g id="text_17">
      <!-- 60 -->
      <g transform="translate(230.398484 186.788555)scale(0.1 -0.1)">
       <use xlink:href="#DejaVuSans-36"/>
       <use xlink:href="#DejaVuSans-30" x="63.623047"/>
      </g>
     </g>
    </g>
    <g id="xtick_11">
     <g id="line2d_18">
      <g>
       <use xlink:href="#md7a3d4ec1d" x="294.221966" y="172.190118" style="stroke: #000000; stroke-width: 0.8"/>
      </g>
     </g>
     <g id="text_18">
      <!-- 80 -->
      <g transform="translate(287.859466 186.788555)scale(0.1 -0.1)">
       <use xlink:href="#DejaVuSans-38"/>
       <use xlink:href="#DejaVuSans-30" x="63.623047"/>
      </g>
     </g>
    </g>
    <g id="xtick_12">
     <g id="line2d_19">
      <g>
       <use xlink:href="#md7a3d4ec1d" x="351.682947" y="172.190118" style="stroke: #000000; stroke-width: 0.8"/>
      </g>
     </g>
     <g id="text_19">
      <!-- 100 -->
      <g transform="translate(342.139197 186.788555)scale(0.1 -0.1)">
       <use xlink:href="#DejaVuSans-31"/>
       <use xlink:href="#DejaVuSans-30" x="63.623047"/>
       <use xlink:href="#DejaVuSans-30" x="127.246094"/>
      </g>
     </g>
    </g>
    <g id="text_20">
     <!-- keyframe number -->
     <g transform="translate(182.025625 200.46668)scale(0.1 -0.1)">
      <use xlink:href="#DejaVuSans-6b"/>
      <use xlink:href="#DejaVuSans-65" x="54.285156"/>
      <use xlink:href="#DejaVuSans-79" x="115.808594"/>
      <use xlink:href="#DejaVuSans-66" x="174.988281"/>
      <use xlink:href="#DejaVuSans-72" x="210.193359"/>
      <use xlink:href="#DejaVuSans-61" x="251.306641"/>
      <use xlink:href="#DejaVuSans-6d" x="312.585938"/>
      <use xlink:href="#DejaVuSans-65" x="409.998047"/>
      <use xlink:href="#DejaVuSans-20" x="471.521484"/>
      <use xlink:href="#DejaVuSans-6e" x="503.308594"/>
      <use xlink:href="#DejaVuSans-75" x="566.6875"/>
      <use xlink:href="#DejaVuSans-6d" x="630.066406"/>
      <use xlink:href="#DejaVuSans-62" x="727.478516"/>
      <use xlink:href="#DejaVuSans-65" x="790.955078"/>
      <use xlink:href="#DejaVuSans-72" x="852.478516"/>
     </g>
    </g>
   </g>
   <g id="matplotlib.axis_4">
    <g id="ytick_4">
     <g id="line2d_20">
      <g>
       <use xlink:href="#ma4205b7b72" x="48.145313" y="144.851887" style="stroke: #000000; stroke-width: 0.8"/>
      </g>
     </g>
     <g id="text_21">
      <!-- 0 -->
      <g transform="translate(34.782813 148.651106)scale(0.1 -0.1)">
       <use xlink:href="#DejaVuSans-30"/>
      </g>
     </g>
    </g>
    <g id="ytick_5">
     <g id="line2d_21">
      <g>
       <use xlink:href="#ma4205b7b72" x="48.145313" y="114.63999" style="stroke: #000000; stroke-width: 0.8"/>
      </g>
     </g>
     <g id="text_22">
      <!-- 5 -->
      <g transform="translate(34.782813 118.439208)scale(0.1 -0.1)">
       <defs>
        <path id="DejaVuSans-35" d="M 691 4666 
L 3169 4666 
L 3169 4134 
L 1269 4134 
L 1269 2991 
Q 1406 3038 1543 3061 
Q 1681 3084 1819 3084 
Q 2600 3084 3056 2656 
Q 3513 2228 3513 1497 
Q 3513 744 3044 326 
Q 2575 -91 1722 -91 
Q 1428 -91 1123 -41 
Q 819 9 494 109 
L 494 744 
Q 775 591 1075 516 
Q 1375 441 1709 441 
Q 2250 441 2565 725 
Q 2881 1009 2881 1497 
Q 2881 1984 2565 2268 
Q 2250 2553 1709 2553 
Q 1456 2553 1204 2497 
Q 953 2441 691 2322 
L 691 4666 
z
" transform="scale(0.015625)"/>
       </defs>
       <use xlink:href="#DejaVuSans-35"/>
      </g>
     </g>
    </g>
    <g id="text_23">
     <!-- pitch [degrees] -->
     <g transform="translate(28.703125 171.113813)rotate(-90)scale(0.1 -0.1)">
      <defs>
       <path id="DejaVuSans-70" d="M 1159 525 
L 1159 -1331 
L 581 -1331 
L 581 3500 
L 1159 3500 
L 1159 2969 
Q 1341 3281 1617 3432 
Q 1894 3584 2278 3584 
Q 2916 3584 3314 3078 
Q 3713 2572 3713 1747 
Q 3713 922 3314 415 
Q 2916 -91 2278 -91 
Q 1894 -91 1617 61 
Q 1341 213 1159 525 
z
M 3116 1747 
Q 3116 2381 2855 2742 
Q 2594 3103 2138 3103 
Q 1681 3103 1420 2742 
Q 1159 2381 1159 1747 
Q 1159 1113 1420 752 
Q 1681 391 2138 391 
Q 2594 391 2855 752 
Q 3116 1113 3116 1747 
z
" transform="scale(0.015625)"/>
       <path id="DejaVuSans-63" d="M 3122 3366 
L 3122 2828 
Q 2878 2963 2633 3030 
Q 2388 3097 2138 3097 
Q 1578 3097 1268 2742 
Q 959 2388 959 1747 
Q 959 1106 1268 751 
Q 1578 397 2138 397 
Q 2388 397 2633 464 
Q 2878 531 3122 666 
L 3122 134 
Q 2881 22 2623 -34 
Q 2366 -91 2075 -91 
Q 1284 -91 818 406 
Q 353 903 353 1747 
Q 353 2603 823 3093 
Q 1294 3584 2113 3584 
Q 2378 3584 2631 3529 
Q 2884 3475 3122 3366 
z
" transform="scale(0.015625)"/>
      </defs>
      <use xlink:href="#DejaVuSans-70"/>
      <use xlink:href="#DejaVuSans-69" x="63.476562"/>
      <use xlink:href="#DejaVuSans-74" x="91.259766"/>
      <use xlink:href="#DejaVuSans-63" x="130.46875"/>
      <use xlink:href="#DejaVuSans-68" x="185.449219"/>
      <use xlink:href="#DejaVuSans-20" x="248.828125"/>
      <use xlink:href="#DejaVuSans-5b" x="280.615234"/>
      <use xlink:href="#DejaVuSans-64" x="319.628906"/>
      <use xlink:href="#DejaVuSans-65" x="383.105469"/>
      <use xlink:href="#DejaVuSans-67" x="444.628906"/>
      <use xlink:href="#DejaVuSans-72" x="508.105469"/>
      <use xlink:href="#DejaVuSans-65" x="546.96875"/>
      <use xlink:href="#DejaVuSans-65" x="608.492188"/>
      <use xlink:href="#DejaVuSans-73" x="670.015625"/>
      <use xlink:href="#DejaVuSans-5d" x="722.115234"/>
     </g>
    </g>
   </g>
   <g id="line2d_22">
    <path d="M 64.37804 136.219653 
L 67.276741 143.673225 
L 70.175442 139.901153 
L 73.074144 145.600572 
L 75.972845 149.783174 
L 78.871546 145.723794 
L 81.770248 144.475861 
L 84.668949 141.975823 
L 87.56765 147.196903 
L 90.466351 141.115053 
L 93.365053 138.76763 
L 96.263754 148.966828 
L 99.162455 152.217078 
L 102.061157 150.38228 
L 104.959858 156.571613 
L 107.858559 136.741167 
L 110.757261 146.623631 
L 113.655962 144.767832 
L 116.554663 148.564544 
L 119.453364 152.660595 
L 122.352066 135.764862 
L 125.250767 139.43966 
L 128.149468 127.425505 
L 131.04817 140.686141 
L 133.946871 125.121923 
L 136.845572 127.991131 
L 139.744274 138.932025 
L 142.642975 138.477648 
L 145.541676 137.744088 
L 148.440377 128.674469 
L 151.339079 132.399443 
L 154.23778 141.380426 
L 157.136481 135.646025 
L 160.035183 130.892199 
L 162.933884 139.825121 
L 165.832585 139.113436 
L 168.731287 146.349229 
L 171.629988 147.08475 
L 174.528689 146.782937 
L 177.42739 152.762996 
L 180.326092 134.989606 
L 183.224793 146.160714 
L 186.123494 153.19456 
L 189.022196 143.73995 
L 191.920897 141.213468 
L 194.819598 143.868051 
L 197.7183 141.859334 
L 200.617001 149.740067 
L 203.515702 120.358642 
L 206.414403 111.715817 
L 209.313105 112.874797 
L 212.211806 115.392466 
L 215.110507 111.348099 
L 218.009209 115.844907 
L 220.90791 110.06156 
L 223.806611 104.231429 
L 226.705313 113.177036 
L 229.604014 109.346015 
L 232.502715 110.903596 
L 235.401416 108.086116 
L 238.300118 101.792528 
L 241.198819 103.062414 
L 244.09752 109.4372 
L 246.996222 106.896826 
L 249.894923 102.257499 
L 252.793624 108.490606 
L 255.692325 137.324582 
L 258.591027 136.388702 
L 261.489728 137.701894 
L 264.388429 130.241017 
L 267.287131 141.299804 
L 270.185832 142.790991 
L 273.084533 142.333889 
L 275.983235 133.043539 
L 278.881936 112.411578 
L 281.780637 123.963035 
L 284.679338 112.044993 
L 287.57804 106.927749 
L 290.476741 98.545127 
L 293.375442 111.032451 
L 296.274144 112.922137 
L 299.172845 100.230099 
L 302.071546 112.255341 
L 304.970248 108.711069 
L 307.868949 120.716005 
L 310.76765 118.830976 
L 313.666351 125.923029 
L 316.565053 108.059688 
L 319.463754 110.818646 
L 322.362455 115.94296 
L 325.261157 112.44241 
L 328.159858 125.034272 
L 331.058559 125.123045 
L 333.957261 135.044347 
L 336.855962 123.612195 
L 339.754663 135.718201 
L 342.653364 138.110895 
L 345.552066 143.696252 
L 348.450767 139.624154 
L 351.349468 134.315151 
L 354.24817 128.442913 
L 357.146871 119.65939 
L 360.045572 121.994144 
L 362.944274 122.450064 
L 365.842975 132.061374 
L 368.741676 131.497443 
L 371.640377 128.670015 
L 374.539079 144.285892 
L 377.43778 150.622173 
L 380.336481 141.041061 
L 383.235183 139.187958 
L 386.133884 140.731993 
L 389.032585 139.817878 
" clip-path="url(#p34a8836d01)" style="fill: none; stroke: #008000; stroke-width: 1.5; stroke-linecap: square"/>
   </g>
   <g id="line2d_23">
    <path d="M 64.37804 136.219351 
L 67.276741 143.853439 
L 70.175442 139.352473 
L 73.074144 146.452542 
L 75.972845 150.377075 
L 78.871546 145.352774 
L 81.770248 144.332448 
L 84.668949 140.131202 
L 87.56765 145.298176 
L 90.466351 138.261822 
L 93.365053 136.241458 
L 96.263754 146.619552 
L 99.162455 148.813256 
L 102.061157 147.732696 
L 104.959858 157.42558 
L 107.858559 136.470115 
L 110.757261 146.356562 
L 113.655962 143.399823 
L 116.554663 148.817018 
L 119.453364 153.027403 
L 122.352066 136.545108 
L 125.250767 140.608833 
L 128.149468 129.825995 
L 131.04817 139.904169 
L 133.946871 126.426097 
L 136.845572 129.355643 
L 139.744274 142.332491 
L 142.642975 139.895626 
L 145.541676 142.553489 
L 148.440377 133.96208 
L 151.339079 137.282347 
L 154.23778 148.417909 
L 157.136481 143.303534 
L 160.035183 137.146359 
L 162.933884 152.525436 
L 165.832585 152.54127 
L 168.731287 157.567425 
L 171.629988 158.712405 
L 174.528689 159.822726 
L 177.42739 168.632471 
L 180.326092 148.6924 
L 183.224793 158.764899 
L 186.123494 164.380587 
L 189.022196 155.353534 
L 191.920897 153.210299 
L 194.819598 156.083508 
L 197.7183 153.818088 
L 200.617001 161.115426 
L 203.515702 130.652772 
L 206.414403 121.442115 
L 209.313105 123.335117 
L 212.211806 126.329325 
L 215.110507 123.24963 
L 218.009209 127.367 
L 220.90791 122.167717 
L 223.806611 116.64029 
L 226.705313 124.632537 
L 229.604014 121.069202 
L 232.502715 123.265341 
L 235.401416 119.114475 
L 238.300118 111.217848 
L 241.198819 111.362714 
L 244.09752 117.891591 
L 246.996222 114.59352 
L 249.894923 111.600332 
L 252.793624 117.695597 
L 255.692325 145.515954 
L 258.591027 144.993452 
L 261.489728 145.78701 
L 264.388429 137.821111 
L 267.287131 148.017609 
L 270.185832 149.784827 
L 273.084533 149.686739 
L 275.983235 139.613015 
L 278.881936 118.107963 
L 281.780637 127.686874 
L 284.679338 115.849863 
L 287.57804 109.440047 
L 290.476741 100.864448 
L 293.375442 110.738962 
L 296.274144 113.806191 
L 299.172845 99.800001 
L 302.071546 110.039111 
L 304.970248 107.86426 
L 307.868949 114.469922 
L 310.76765 112.140894 
L 313.666351 116.896877 
L 316.565053 97.479529 
L 319.463754 101.113118 
L 322.362455 105.846677 
L 325.261157 102.580321 
L 328.159858 112.985109 
L 331.058559 113.695304 
L 333.957261 123.169545 
L 336.855962 111.471671 
L 339.754663 122.972009 
L 342.653364 125.533752 
L 345.552066 131.294352 
L 348.450767 130.200054 
L 351.349468 123.115412 
L 354.24817 115.269204 
L 357.146871 105.625052 
L 360.045572 107.480337 
L 362.944274 107.588599 
L 365.842975 116.407072 
L 368.741676 114.777016 
L 371.640377 112.510776 
L 374.539079 128.914676 
L 377.43778 134.807671 
L 380.336481 125.916405 
L 383.235183 124.176291 
L 386.133884 125.39422 
L 389.032585 124.58893 
" clip-path="url(#p34a8836d01)" style="fill: none; stroke: #ff0000; stroke-width: 1.5; stroke-linecap: square"/>
   </g>
   <g id="patch_9">
    <path d="M 48.145313 172.190118 
L 48.145313 93.921882 
" style="fill: none; stroke: #000000; stroke-width: 0.8; stroke-linejoin: miter; stroke-linecap: square"/>
   </g>
   <g id="patch_10">
    <path d="M 405.265313 172.190118 
L 405.265313 93.921882 
" style="fill: none; stroke: #000000; stroke-width: 0.8; stroke-linejoin: miter; stroke-linecap: square"/>
   </g>
   <g id="patch_11">
    <path d="M 48.145313 172.190118 
L 405.265313 172.190118 
" style="fill: none; stroke: #000000; stroke-width: 0.8; stroke-linejoin: miter; stroke-linecap: square"/>
   </g>
   <g id="patch_12">
    <path d="M 48.145313 93.921882 
L 405.265313 93.921882 
" style="fill: none; stroke: #000000; stroke-width: 0.8; stroke-linejoin: miter; stroke-linecap: square"/>
   </g>
  </g>
  <g id="axes_3">
   <g id="patch_13">
    <path d="M 48.145313 266.112 
L 405.265313 266.112 
L 405.265313 187.843765 
L 48.145313 187.843765 
z
" style="fill: #ffffff"/>
   </g>
   <g id="matplotlib.axis_5">
    <g id="xtick_13">
     <g id="line2d_24">
      <g>
       <use xlink:href="#md7a3d4ec1d" x="64.37804" y="266.112" style="stroke: #000000; stroke-width: 0.8"/>
      </g>
     </g>
     <g id="text_24">
      <!-- 0 -->
      <g transform="translate(61.19679 280.710438)scale(0.1 -0.1)">
       <use xlink:href="#DejaVuSans-30"/>
      </g>
     </g>
    </g>
    <g id="xtick_14">
     <g id="line2d_25">
      <g>
       <use xlink:href="#md7a3d4ec1d" x="121.839021" y="266.112" style="stroke: #000000; stroke-width: 0.8"/>
      </g>
     </g>
     <g id="text_25">
      <!-- 20 -->
      <g transform="translate(115.476521 280.710438)scale(0.1 -0.1)">
       <use xlink:href="#DejaVuSans-32"/>
       <use xlink:href="#DejaVuSans-30" x="63.623047"/>
      </g>
     </g>
    </g>
    <g id="xtick_15">
     <g id="line2d_26">
      <g>
       <use xlink:href="#md7a3d4ec1d" x="179.300003" y="266.112" style="stroke: #000000; stroke-width: 0.8"/>
      </g>
     </g>
     <g id="text_26">
      <!-- 40 -->
      <g transform="translate(172.937503 280.710438)scale(0.1 -0.1)">
       <use xlink:href="#DejaVuSans-34"/>
       <use xlink:href="#DejaVuSans-30" x="63.623047"/>
      </g>
     </g>
    </g>
    <g id="xtick_16">
     <g id="line2d_27">
      <g>
       <use xlink:href="#md7a3d4ec1d" x="236.760984" y="266.112" style="stroke: #000000; stroke-width: 0.8"/>
      </g>
     </g>
     <g id="text_27">
      <!-- 60 -->
      <g transform="translate(230.398484 280.710438)scale(0.1 -0.1)">
       <use xlink:href="#DejaVuSans-36"/>
       <use xlink:href="#DejaVuSans-30" x="63.623047"/>
      </g>
     </g>
    </g>
    <g id="xtick_17">
     <g id="line2d_28">
      <g>
       <use xlink:href="#md7a3d4ec1d" x="294.221966" y="266.112" style="stroke: #000000; stroke-width: 0.8"/>
      </g>
     </g>
     <g id="text_28">
      <!-- 80 -->
      <g transform="translate(287.859466 280.710438)scale(0.1 -0.1)">
       <use xlink:href="#DejaVuSans-38"/>
       <use xlink:href="#DejaVuSans-30" x="63.623047"/>
      </g>
     </g>
    </g>
    <g id="xtick_18">
     <g id="line2d_29">
      <g>
       <use xlink:href="#md7a3d4ec1d" x="351.682947" y="266.112" style="stroke: #000000; stroke-width: 0.8"/>
      </g>
     </g>
     <g id="text_29">
      <!-- 100 -->
      <g transform="translate(342.139197 280.710438)scale(0.1 -0.1)">
       <use xlink:href="#DejaVuSans-31"/>
       <use xlink:href="#DejaVuSans-30" x="63.623047"/>
       <use xlink:href="#DejaVuSans-30" x="127.246094"/>
      </g>
     </g>
    </g>
    <g id="text_30">
     <!-- keyframe number -->
     <g transform="translate(182.025625 294.388563)scale(0.1 -0.1)">
      <use xlink:href="#DejaVuSans-6b"/>
      <use xlink:href="#DejaVuSans-65" x="54.285156"/>
      <use xlink:href="#DejaVuSans-79" x="115.808594"/>
      <use xlink:href="#DejaVuSans-66" x="174.988281"/>
      <use xlink:href="#DejaVuSans-72" x="210.193359"/>
      <use xlink:href="#DejaVuSans-61" x="251.306641"/>
      <use xlink:href="#DejaVuSans-6d" x="312.585938"/>
      <use xlink:href="#DejaVuSans-65" x="409.998047"/>
      <use xlink:href="#DejaVuSans-20" x="471.521484"/>
      <use xlink:href="#DejaVuSans-6e" x="503.308594"/>
      <use xlink:href="#DejaVuSans-75" x="566.6875"/>
      <use xlink:href="#DejaVuSans-6d" x="630.066406"/>
      <use xlink:href="#DejaVuSans-62" x="727.478516"/>
      <use xlink:href="#DejaVuSans-65" x="790.955078"/>
      <use xlink:href="#DejaVuSans-72" x="852.478516"/>
     </g>
    </g>
   </g>
   <g id="matplotlib.axis_6">
    <g id="ytick_6">
     <g id="line2d_30">
      <g>
       <use xlink:href="#ma4205b7b72" x="48.145313" y="247.037927" style="stroke: #000000; stroke-width: 0.8"/>
      </g>
     </g>
     <g id="text_31">
      <!-- −100 -->
      <g transform="translate(13.678125 250.837146)scale(0.1 -0.1)">
       <use xlink:href="#DejaVuSans-2212"/>
       <use xlink:href="#DejaVuSans-31" x="83.789062"/>
       <use xlink:href="#DejaVuSans-30" x="147.412109"/>
       <use xlink:href="#DejaVuSans-30" x="211.035156"/>
      </g>
     </g>
    </g>
    <g id="ytick_7">
     <g id="line2d_31">
      <g>
       <use xlink:href="#ma4205b7b72" x="48.145313" y="226.908499" style="stroke: #000000; stroke-width: 0.8"/>
      </g>
     </g>
     <g id="text_32">
      <!-- 0 -->
      <g transform="translate(34.782813 230.707718)scale(0.1 -0.1)">
       <use xlink:href="#DejaVuSans-30"/>
      </g>
     </g>
    </g>
    <g id="ytick_8">
     <g id="line2d_32">
      <g>
       <use xlink:href="#ma4205b7b72" x="48.145313" y="206.779071" style="stroke: #000000; stroke-width: 0.8"/>
      </g>
     </g>
     <g id="text_33">
      <!-- 100 -->
      <g transform="translate(22.057813 210.57829)scale(0.1 -0.1)">
       <use xlink:href="#DejaVuSans-31"/>
       <use xlink:href="#DejaVuSans-30" x="63.623047"/>
       <use xlink:href="#DejaVuSans-30" x="127.246094"/>
      </g>
     </g>
    </g>
    <g id="text_34">
     <!-- roll [degrees] -->
     <g transform="translate(7.598437 260.374757)rotate(-90)scale(0.1 -0.1)">
      <defs>
       <path id="DejaVuSans-6c" d="M 603 4863 
L 1178 4863 
L 1178 0 
L 603 0 
L 603 4863 
z
" transform="scale(0.015625)"/>
      </defs>
      <use xlink:href="#DejaVuSans-72"/>
      <use xlink:href="#DejaVuSans-6f" x="38.863281"/>
      <use xlink:href="#DejaVuSans-6c" x="100.044922"/>
      <use xlink:href="#DejaVuSans-6c" x="127.828125"/>
      <use xlink:href="#DejaVuSans-20" x="155.611328"/>
      <use xlink:href="#DejaVuSans-5b" x="187.398438"/>
      <use xlink:href="#DejaVuSans-64" x="226.412109"/>
      <use xlink:href="#DejaVuSans-65" x="289.888672"/>
      <use xlink:href="#DejaVuSans-67" x="351.412109"/>
      <use xlink:href="#DejaVuSans-72" x="414.888672"/>
      <use xlink:href="#DejaVuSans-65" x="453.751953"/>
      <use xlink:href="#DejaVuSans-65" x="515.275391"/>
      <use xlink:href="#DejaVuSans-73" x="576.798828"/>
      <use xlink:href="#DejaVuSans-5d" x="628.898438"/>
     </g>
    </g>
   </g>
   <g id="line2d_33">
    <path d="M 64.37804 242.845139 
L 67.276741 242.368337 
L 70.175442 241.381209 
L 73.074144 242.500482 
L 75.972845 241.97324 
L 78.871546 240.438133 
L 81.770248 240.175908 
L 84.668949 238.135736 
L 87.56765 236.28597 
L 90.466351 236.069767 
L 93.365053 235.427511 
L 96.263754 234.105355 
L 99.162455 234.192733 
L 102.061157 233.6985 
L 104.959858 231.233502 
L 107.858559 230.433093 
L 110.757261 228.329827 
L 113.655962 228.04258 
L 116.554663 227.761709 
L 119.453364 225.40679 
L 122.352066 225.092287 
L 125.250767 225.646365 
L 128.149468 224.270946 
L 131.04817 222.539106 
L 133.946871 220.692917 
L 136.845572 220.807402 
L 139.744274 218.692465 
L 142.642975 219.040098 
L 145.541676 216.472361 
L 148.440377 215.91496 
L 151.339079 216.293688 
L 154.23778 214.483008 
L 157.136481 213.264271 
L 160.035183 213.365191 
L 162.933884 204.767405 
L 165.832585 204.021665 
L 168.731287 203.201864 
L 171.629988 203.408145 
L 174.528689 203.64777 
L 177.42739 202.682518 
L 180.326092 202.191102 
L 183.224793 200.34482 
L 186.123494 198.953044 
L 189.022196 198.385575 
L 191.920897 198.562598 
L 194.819598 198.741737 
L 197.7183 198.62474 
L 200.617001 198.063319 
L 203.515702 197.402243 
L 206.414403 196.594712 
L 209.313105 196.271083 
L 212.211806 196.370837 
L 215.110507 196.762308 
L 218.009209 195.72876 
L 220.90791 195.36917 
L 223.806611 194.750998 
L 226.705313 194.115419 
L 229.604014 193.558015 
L 232.502715 193.447757 
L 235.401416 193.172517 
L 238.300118 192.125976 
L 241.198819 262.535563 
L 244.09752 262.075908 
L 246.996222 262.105311 
L 249.894923 262.344339 
L 252.793624 262.554353 
L 255.692325 262.247954 
L 258.591027 262.281453 
L 261.489728 262.233022 
L 264.388429 261.58643 
L 267.287131 260.63271 
L 270.185832 260.204892 
L 273.084533 260.638897 
L 275.983235 259.57884 
L 278.881936 258.711935 
L 281.780637 257.203494 
L 284.679338 256.412933 
L 287.57804 256.324337 
L 290.476741 254.951376 
L 293.375442 253.446659 
L 296.274144 253.382374 
L 299.172845 253.290513 
L 302.071546 251.369593 
L 304.970248 251.30061 
L 307.868949 249.05801 
L 310.76765 248.309099 
L 313.666351 248.107965 
L 316.565053 247.278313 
L 319.463754 247.224363 
L 322.362455 247.601805 
L 325.261157 247.031876 
L 328.159858 245.560637 
L 331.058559 245.473426 
L 333.957261 245.779998 
L 336.855962 245.447572 
L 339.754663 245.111494 
L 342.653364 244.604682 
L 345.552066 243.691841 
L 348.450767 243.986231 
L 351.349468 243.484351 
L 354.24817 241.418386 
L 357.146871 240.90828 
L 360.045572 240.616094 
L 362.944274 240.021431 
L 365.842975 238.079821 
L 368.741676 236.130212 
L 371.640377 235.781158 
L 374.539079 234.433603 
L 377.43778 233.851817 
L 380.336481 233.682822 
L 383.235183 233.480413 
L 386.133884 233.402116 
L 389.032585 233.522102 
" clip-path="url(#p264087fca3)" style="fill: none; stroke: #008000; stroke-width: 1.5; stroke-linecap: square"/>
   </g>
   <g id="line2d_34">
    <path d="M 64.37804 242.845151 
L 67.276741 242.406078 
L 70.175442 241.352899 
L 73.074144 242.564019 
L 75.972845 242.00683 
L 78.871546 240.38478 
L 81.770248 240.131522 
L 84.668949 238.080035 
L 87.56765 236.088546 
L 90.466351 235.841938 
L 93.365053 235.21913 
L 96.263754 233.910863 
L 99.162455 233.99598 
L 102.061157 233.587686 
L 104.959858 231.11861 
L 107.858559 230.209142 
L 110.757261 228.007764 
L 113.655962 227.651363 
L 116.554663 227.430533 
L 119.453364 224.958402 
L 122.352066 224.618323 
L 125.250767 225.11785 
L 128.149468 223.776614 
L 131.04817 222.184958 
L 133.946871 220.154472 
L 136.845572 220.362731 
L 139.744274 218.196254 
L 142.642975 218.530781 
L 145.541676 215.837933 
L 148.440377 215.192142 
L 151.339079 215.651705 
L 154.23778 213.814671 
L 157.136481 212.556668 
L 160.035183 212.593854 
L 162.933884 204.052184 
L 165.832585 203.261804 
L 168.731287 202.483118 
L 171.629988 202.634217 
L 174.528689 202.998882 
L 177.42739 202.089811 
L 180.326092 201.560819 
L 183.224793 199.63108 
L 186.123494 198.225533 
L 189.022196 197.623163 
L 191.920897 197.802794 
L 194.819598 198.03627 
L 197.7183 197.908343 
L 200.617001 197.339795 
L 203.515702 196.71791 
L 206.414403 195.862433 
L 209.313105 195.528302 
L 212.211806 195.618 
L 215.110507 196.041703 
L 218.009209 194.994854 
L 220.90791 194.651749 
L 223.806611 194.063683 
L 226.705313 193.411233 
L 229.604014 192.867331 
L 232.502715 192.761737 
L 235.401416 192.45767 
L 238.300118 191.401412 
L 241.198819 261.752207 
L 244.09752 261.274127 
L 246.996222 261.35937 
L 249.894923 261.632271 
L 252.793624 261.84082 
L 255.692325 261.519682 
L 258.591027 261.477812 
L 261.489728 261.564035 
L 264.388429 260.888814 
L 267.287131 259.911853 
L 270.185832 259.421799 
L 273.084533 259.868074 
L 275.983235 258.787258 
L 278.881936 257.967695 
L 281.780637 256.458112 
L 284.679338 255.625328 
L 287.57804 255.582768 
L 290.476741 254.12335 
L 293.375442 252.615973 
L 296.274144 252.513549 
L 299.172845 252.466309 
L 302.071546 250.487114 
L 304.970248 250.389976 
L 307.868949 248.081796 
L 310.76765 247.192644 
L 313.666351 246.973958 
L 316.565053 246.173769 
L 319.463754 246.078736 
L 322.362455 246.428874 
L 325.261157 245.921625 
L 328.159858 244.407996 
L 331.058559 244.349356 
L 333.957261 244.664551 
L 336.855962 244.332679 
L 339.754663 243.967266 
L 342.653364 243.488869 
L 345.552066 242.565707 
L 348.450767 242.874252 
L 351.349468 242.404177 
L 354.24817 240.314733 
L 357.146871 239.715365 
L 360.045572 239.430882 
L 362.944274 238.849458 
L 365.842975 236.863458 
L 368.741676 234.874637 
L 371.640377 234.507266 
L 374.539079 233.100979 
L 377.43778 232.585848 
L 380.336481 232.422984 
L 383.235183 232.183558 
L 386.133884 232.092725 
L 389.032585 232.210385 
" clip-path="url(#p264087fca3)" style="fill: none; stroke: #ff0000; stroke-width: 1.5; stroke-linecap: square"/>
   </g>
   <g id="patch_14">
    <path d="M 48.145313 266.112 
L 48.145313 187.843765 
" style="fill: none; stroke: #000000; stroke-width: 0.8; stroke-linejoin: miter; stroke-linecap: square"/>
   </g>
   <g id="patch_15">
    <path d="M 405.265313 266.112 
L 405.265313 187.843765 
" style="fill: none; stroke: #000000; stroke-width: 0.8; stroke-linejoin: miter; stroke-linecap: square"/>
   </g>
   <g id="patch_16">
    <path d="M 48.145313 266.112 
L 405.265313 266.112 
" style="fill: none; stroke: #000000; stroke-width: 0.8; stroke-linejoin: miter; stroke-linecap: square"/>
   </g>
   <g id="patch_17">
    <path d="M 48.145313 187.843765 
L 405.265313 187.843765 
" style="fill: none; stroke: #000000; stroke-width: 0.8; stroke-linejoin: miter; stroke-linecap: square"/>
   </g>
  </g>
 </g>
 <defs>
  <clipPath id="p68c8bb2f94">
   <rect x="48.145313" y="0" width="357.12" height="78.268235"/>
  </clipPath>
  <clipPath id="p34a8836d01">
   <rect x="48.145313" y="93.921882" width="357.12" height="78.268235"/>
  </clipPath>
  <clipPath id="p264087fca3">
   <rect x="48.145313" y="187.843765" width="357.12" height="78.268235"/>
  </clipPath>
 </defs>
</svg>
