<?xml version="1.0" encoding="utf-8" standalone="no"?>
<!DOCTYPE svg PUBLIC "-//W3C//DTD SVG 1.1//EN"
  "http://www.w3.org/Graphics/SVG/1.1/DTD/svg11.dtd">
<svg xmlns:xlink="http://www.w3.org/1999/xlink" width="357.656018pt" height="351.438563pt" viewBox="0 0 357.656018 351.438563" xmlns="http://www.w3.org/2000/svg" version="1.1">
 <metadata>
  <rdf:RDF xmlns:dc="http://purl.org/dc/elements/1.1/" xmlns:cc="http://creativecommons.org/ns#" xmlns:rdf="http://www.w3.org/1999/02/22-rdf-syntax-ns#">
   <cc:Work>
    <dc:type rdf:resource="http://purl.org/dc/dcmitype/StillImage"/>
    <dc:date>2022-02-10T00:11:27.690123</dc:date>
    <dc:format>image/svg+xml</dc:format>
    <dc:creator>
     <cc:Agent>
      <dc:title>Matplotlib v3.5.1, https://matplotlib.org/</dc:title>
     </cc:Agent>
    </dc:creator>
   </cc:Work>
  </rdf:RDF>
 </metadata>
 <defs>
  <style type="text/css">*{stroke-linejoin: round; stroke-linecap: butt}</style>
 </defs>
 <g id="figure_1">
  <g id="patch_1">
   <path d="M 0 351.438563 
L 357.656018 351.438563 
L 357.656018 0 
L 0 0 
z
" style="fill: #ffffff"/>
  </g>
  <g id="patch_2">
   <path d="M 0 345.6 
L 345.6 345.6 
L 345.6 0 
L 0 0 
z
" style="fill: #ffffff"/>
  </g>
  <g id="pane3d_1">
   <g id="patch_3">
    <path d="M 43.64011 276.021761 
L 104.335521 97.213163 
L 98.66794 8.134987 
L 32.634775 196.200845 
" style="fill: #f2f2f2; opacity: 0.5; stroke: #f2f2f2; stroke-linejoin: miter"/>
   </g>
  </g>
  <g id="pane3d_2">
   <g id="patch_4">
    <path d="M 104.335521 97.213163 
L 305.984932 143.221817 
L 316.100364 56.368059 
L 98.66794 8.134987 
" style="fill: #e6e6e6; opacity: 0.5; stroke: #e6e6e6; stroke-linejoin: miter"/>
   </g>
  </g>
  <g id="pane3d_3">
   <g id="patch_5">
    <path d="M 43.64011 276.021761 
L 255.924889 327.418502 
L 305.984932 143.221817 
L 104.335521 97.213163 
" style="fill: #ececec; opacity: 0.5; stroke: #ececec; stroke-linejoin: miter"/>
   </g>
  </g>
  <g id="axis3d_1">
   <g id="line2d_1">
    <path d="M 43.64011 276.021761 
L 255.924889 327.418502 
" style="fill: none; stroke: #000000; stroke-width: 0.8; stroke-linecap: square"/>
   </g>
   <g id="text_1">
    <!-- x [m] -->
    <g transform="translate(118.043506 337.34524)rotate(-346.389891)scale(0.17 -0.17)">
     <defs>
      <path id="DejaVuSans-78" d="M 3513 3500 
L 2247 1797 
L 3578 0 
L 2900 0 
L 1881 1375 
L 863 0 
L 184 0 
L 1544 1831 
L 300 3500 
L 978 3500 
L 1906 2253 
L 2834 3500 
L 3513 3500 
z
" transform="scale(0.015625)"/>
      <path id="DejaVuSans-20" transform="scale(0.015625)"/>
      <path id="DejaVuSans-5b" d="M 550 4863 
L 1875 4863 
L 1875 4416 
L 1125 4416 
L 1125 -397 
L 1875 -397 
L 1875 -844 
L 550 -844 
L 550 4863 
z
" transform="scale(0.015625)"/>
      <path id="DejaVuSans-6d" d="M 3328 2828 
Q 3544 3216 3844 3400 
Q 4144 3584 4550 3584 
Q 5097 3584 5394 3201 
Q 5691 2819 5691 2113 
L 5691 0 
L 5113 0 
L 5113 2094 
Q 5113 2597 4934 2840 
Q 4756 3084 4391 3084 
Q 3944 3084 3684 2787 
Q 3425 2491 3425 1978 
L 3425 0 
L 2847 0 
L 2847 2094 
Q 2847 2600 2669 2842 
Q 2491 3084 2119 3084 
Q 1678 3084 1418 2786 
Q 1159 2488 1159 1978 
L 1159 0 
L 581 0 
L 581 3500 
L 1159 3500 
L 1159 2956 
Q 1356 3278 1631 3431 
Q 1906 3584 2284 3584 
Q 2666 3584 2933 3390 
Q 3200 3197 3328 2828 
z
" transform="scale(0.015625)"/>
      <path id="DejaVuSans-5d" d="M 1947 4863 
L 1947 -844 
L 622 -844 
L 622 -397 
L 1369 -397 
L 1369 4416 
L 622 4416 
L 622 4863 
L 1947 4863 
z
" transform="scale(0.015625)"/>
     </defs>
     <use xlink:href="#DejaVuSans-78"/>
     <use xlink:href="#DejaVuSans-20" x="59.179688"/>
     <use xlink:href="#DejaVuSans-5b" x="90.966797"/>
     <use xlink:href="#DejaVuSans-6d" x="129.980469"/>
     <use xlink:href="#DejaVuSans-5d" x="227.392578"/>
    </g>
   </g>
   <g id="Line3DCollection_1">
    <path d="M 79.621561 284.73331 
L 138.53765 105.016776 
L 135.512547 16.308233 
" style="fill: none; stroke: #b0b0b0; stroke-width: 0.8"/>
    <path d="M 116.921816 293.764158 
L 173.983307 113.104114 
L 173.711622 24.78194 
" style="fill: none; stroke: #b0b0b0; stroke-width: 0.8"/>
    <path d="M 154.423584 302.843795 
L 209.61014 121.23279 
L 212.121201 33.302343 
" style="fill: none; stroke: #b0b0b0; stroke-width: 0.8"/>
    <path d="M 192.128502 311.972617 
L 245.419541 129.40312 
L 250.743029 41.86983 
" style="fill: none; stroke: #b0b0b0; stroke-width: 0.8"/>
    <path d="M 230.038227 321.151025 
L 281.412916 137.615427 
L 289.578869 50.484791 
" style="fill: none; stroke: #b0b0b0; stroke-width: 0.8"/>
   </g>
   <g id="xtick_1">
    <g id="line2d_2">
     <path d="M 80.119364 283.214822 
L 78.624601 287.774419 
" style="fill: none; stroke: #000000; stroke-width: 0.8; stroke-linecap: square"/>
    </g>
    <g id="text_2">
     <!-- 1.20 -->
     <g transform="translate(64.992058 309.125144)scale(0.1 -0.1)">
      <defs>
       <path id="DejaVuSans-31" d="M 794 531 
L 1825 531 
L 1825 4091 
L 703 3866 
L 703 4441 
L 1819 4666 
L 2450 4666 
L 2450 531 
L 3481 531 
L 3481 0 
L 794 0 
L 794 531 
z
" transform="scale(0.015625)"/>
       <path id="DejaVuSans-2e" d="M 684 794 
L 1344 794 
L 1344 0 
L 684 0 
L 684 794 
z
" transform="scale(0.015625)"/>
       <path id="DejaVuSans-32" d="M 1228 531 
L 3431 531 
L 3431 0 
L 469 0 
L 469 531 
Q 828 903 1448 1529 
Q 2069 2156 2228 2338 
Q 2531 2678 2651 2914 
Q 2772 3150 2772 3378 
Q 2772 3750 2511 3984 
Q 2250 4219 1831 4219 
Q 1534 4219 1204 4116 
Q 875 4013 500 3803 
L 500 4441 
Q 881 4594 1212 4672 
Q 1544 4750 1819 4750 
Q 2544 4750 2975 4387 
Q 3406 4025 3406 3419 
Q 3406 3131 3298 2873 
Q 3191 2616 2906 2266 
Q 2828 2175 2409 1742 
Q 1991 1309 1228 531 
z
" transform="scale(0.015625)"/>
       <path id="DejaVuSans-30" d="M 2034 4250 
Q 1547 4250 1301 3770 
Q 1056 3291 1056 2328 
Q 1056 1369 1301 889 
Q 1547 409 2034 409 
Q 2525 409 2770 889 
Q 3016 1369 3016 2328 
Q 3016 3291 2770 3770 
Q 2525 4250 2034 4250 
z
M 2034 4750 
Q 2819 4750 3233 4129 
Q 3647 3509 3647 2328 
Q 3647 1150 3233 529 
Q 2819 -91 2034 -91 
Q 1250 -91 836 529 
Q 422 1150 422 2328 
Q 422 3509 836 4129 
Q 1250 4750 2034 4750 
z
" transform="scale(0.015625)"/>
      </defs>
      <use xlink:href="#DejaVuSans-31"/>
      <use xlink:href="#DejaVuSans-2e" x="63.623047"/>
      <use xlink:href="#DejaVuSans-32" x="95.410156"/>
      <use xlink:href="#DejaVuSans-30" x="159.033203"/>
     </g>
    </g>
   </g>
   <g id="xtick_2">
    <g id="line2d_3">
     <path d="M 117.404017 292.237479 
L 115.956097 296.821681 
" style="fill: none; stroke: #000000; stroke-width: 0.8; stroke-linecap: square"/>
    </g>
    <g id="text_3">
     <!-- 1.25 -->
     <g transform="translate(102.236282 318.189888)scale(0.1 -0.1)">
      <defs>
       <path id="DejaVuSans-35" d="M 691 4666 
L 3169 4666 
L 3169 4134 
L 1269 4134 
L 1269 2991 
Q 1406 3038 1543 3061 
Q 1681 3084 1819 3084 
Q 2600 3084 3056 2656 
Q 3513 2228 3513 1497 
Q 3513 744 3044 326 
Q 2575 -91 1722 -91 
Q 1428 -91 1123 -41 
Q 819 9 494 109 
L 494 744 
Q 775 591 1075 516 
Q 1375 441 1709 441 
Q 2250 441 2565 725 
Q 2881 1009 2881 1497 
Q 2881 1984 2565 2268 
Q 2250 2553 1709 2553 
Q 1456 2553 1204 2497 
Q 953 2441 691 2322 
L 691 4666 
z
" transform="scale(0.015625)"/>
      </defs>
      <use xlink:href="#DejaVuSans-31"/>
      <use xlink:href="#DejaVuSans-2e" x="63.623047"/>
      <use xlink:href="#DejaVuSans-32" x="95.410156"/>
      <use xlink:href="#DejaVuSans-35" x="159.033203"/>
     </g>
    </g>
   </g>
   <g id="xtick_3">
    <g id="line2d_4">
     <path d="M 154.890008 301.308859 
L 153.489458 305.917866 
" style="fill: none; stroke: #000000; stroke-width: 0.8; stroke-linecap: square"/>
    </g>
    <g id="text_4">
     <!-- 1.30 -->
     <g transform="translate(139.681465 327.303543)scale(0.1 -0.1)">
      <defs>
       <path id="DejaVuSans-33" d="M 2597 2516 
Q 3050 2419 3304 2112 
Q 3559 1806 3559 1356 
Q 3559 666 3084 287 
Q 2609 -91 1734 -91 
Q 1441 -91 1130 -33 
Q 819 25 488 141 
L 488 750 
Q 750 597 1062 519 
Q 1375 441 1716 441 
Q 2309 441 2620 675 
Q 2931 909 2931 1356 
Q 2931 1769 2642 2001 
Q 2353 2234 1838 2234 
L 1294 2234 
L 1294 2753 
L 1863 2753 
Q 2328 2753 2575 2939 
Q 2822 3125 2822 3475 
Q 2822 3834 2567 4026 
Q 2313 4219 1838 4219 
Q 1578 4219 1281 4162 
Q 984 4106 628 3988 
L 628 4550 
Q 988 4650 1302 4700 
Q 1616 4750 1894 4750 
Q 2613 4750 3031 4423 
Q 3450 4097 3450 3541 
Q 3450 3153 3228 2886 
Q 3006 2619 2597 2516 
z
" transform="scale(0.015625)"/>
      </defs>
      <use xlink:href="#DejaVuSans-31"/>
      <use xlink:href="#DejaVuSans-2e" x="63.623047"/>
      <use xlink:href="#DejaVuSans-33" x="95.410156"/>
      <use xlink:href="#DejaVuSans-30" x="159.033203"/>
     </g>
    </g>
   </g>
   <g id="xtick_4">
    <g id="line2d_5">
     <path d="M 192.578971 310.429357 
L 191.226328 315.063371 
" style="fill: none; stroke: #000000; stroke-width: 0.8; stroke-linecap: square"/>
    </g>
    <g id="text_5">
     <!-- 1.35 -->
     <g transform="translate(177.329238 336.466505)scale(0.1 -0.1)">
      <use xlink:href="#DejaVuSans-31"/>
      <use xlink:href="#DejaVuSans-2e" x="63.623047"/>
      <use xlink:href="#DejaVuSans-33" x="95.410156"/>
      <use xlink:href="#DejaVuSans-35" x="159.033203"/>
     </g>
    </g>
   </g>
   <g id="xtick_5">
    <g id="line2d_6">
     <path d="M 230.47256 319.599373 
L 229.168365 324.258598 
" style="fill: none; stroke: #000000; stroke-width: 0.8; stroke-linecap: square"/>
    </g>
    <g id="text_6">
     <!-- 1.40 -->
     <g transform="translate(215.181248 345.679177)scale(0.1 -0.1)">
      <defs>
       <path id="DejaVuSans-34" d="M 2419 4116 
L 825 1625 
L 2419 1625 
L 2419 4116 
z
M 2253 4666 
L 3047 4666 
L 3047 1625 
L 3713 1625 
L 3713 1100 
L 3047 1100 
L 3047 0 
L 2419 0 
L 2419 1100 
L 313 1100 
L 313 1709 
L 2253 4666 
z
" transform="scale(0.015625)"/>
      </defs>
      <use xlink:href="#DejaVuSans-31"/>
      <use xlink:href="#DejaVuSans-2e" x="63.623047"/>
      <use xlink:href="#DejaVuSans-34" x="95.410156"/>
      <use xlink:href="#DejaVuSans-30" x="159.033203"/>
     </g>
    </g>
   </g>
  </g>
  <g id="axis3d_2">
   <g id="line2d_7">
    <path d="M 305.984932 143.221817 
L 255.924889 327.418502 
" style="fill: none; stroke: #000000; stroke-width: 0.8; stroke-linecap: square"/>
   </g>
   <g id="text_7">
    <!-- y [m] -->
    <g transform="translate(308.079163 273.101756)rotate(-74.795681)scale(0.17 -0.17)">
     <defs>
      <path id="DejaVuSans-79" d="M 2059 -325 
Q 1816 -950 1584 -1140 
Q 1353 -1331 966 -1331 
L 506 -1331 
L 506 -850 
L 844 -850 
Q 1081 -850 1212 -737 
Q 1344 -625 1503 -206 
L 1606 56 
L 191 3500 
L 800 3500 
L 1894 763 
L 2988 3500 
L 3597 3500 
L 2059 -325 
z
" transform="scale(0.015625)"/>
     </defs>
     <use xlink:href="#DejaVuSans-79"/>
     <use xlink:href="#DejaVuSans-20" x="59.179688"/>
     <use xlink:href="#DejaVuSans-5b" x="90.966797"/>
     <use xlink:href="#DejaVuSans-6d" x="129.980469"/>
     <use xlink:href="#DejaVuSans-5d" x="227.392578"/>
    </g>
   </g>
   <g id="Line3DCollection_2">
    <path d="M 39.702178 176.072515 
L 50.110813 256.959078 
L 261.265681 307.766978 
" style="fill: none; stroke: #b0b0b0; stroke-width: 0.8"/>
    <path d="M 51.230728 143.238613 
L 60.679038 225.8251 
L 269.986475 275.678684 
" style="fill: none; stroke: #b0b0b0; stroke-width: 0.8"/>
    <path d="M 62.528216 111.062782 
L 71.051157 195.268854 
L 278.543017 244.194759 
" style="fill: none; stroke: #b0b0b0; stroke-width: 0.8"/>
    <path d="M 73.601522 79.525436 
L 81.232576 165.274406 
L 286.939903 213.298287 
" style="fill: none; stroke: #b0b0b0; stroke-width: 0.8"/>
    <path d="M 84.457253 48.607757 
L 91.228508 135.826405 
L 295.181562 182.97298 
" style="fill: none; stroke: #b0b0b0; stroke-width: 0.8"/>
    <path d="M 95.101758 18.291657 
L 101.043975 106.910051 
L 303.272257 153.203144 
" style="fill: none; stroke: #b0b0b0; stroke-width: 0.8"/>
   </g>
   <g id="xtick_6">
    <g id="line2d_8">
     <path d="M 259.550835 307.354353 
L 264.696631 308.59253 
" style="fill: none; stroke: #000000; stroke-width: 0.8; stroke-linecap: square"/>
    </g>
    <g id="text_8">
     <!-- 0.50 -->
     <g transform="translate(263.366902 323.231553)scale(0.1 -0.1)">
      <use xlink:href="#DejaVuSans-30"/>
      <use xlink:href="#DejaVuSans-2e" x="63.623047"/>
      <use xlink:href="#DejaVuSans-35" x="95.410156"/>
      <use xlink:href="#DejaVuSans-30" x="159.033203"/>
     </g>
    </g>
   </g>
   <g id="xtick_7">
    <g id="line2d_9">
     <path d="M 268.286874 275.273867 
L 273.386912 276.488612 
" style="fill: none; stroke: #000000; stroke-width: 0.8; stroke-linecap: square"/>
    </g>
    <g id="text_9">
     <!-- 0.55 -->
     <g transform="translate(271.928603 291.19301)scale(0.1 -0.1)">
      <use xlink:href="#DejaVuSans-30"/>
      <use xlink:href="#DejaVuSans-2e" x="63.623047"/>
      <use xlink:href="#DejaVuSans-35" x="95.410156"/>
      <use xlink:href="#DejaVuSans-35" x="159.033203"/>
     </g>
    </g>
   </g>
   <g id="xtick_8">
    <g id="line2d_10">
     <path d="M 276.858393 243.79753 
L 281.913477 244.989502 
" style="fill: none; stroke: #000000; stroke-width: 0.8; stroke-linecap: square"/>
    </g>
    <g id="text_10">
     <!-- 0.60 -->
     <g transform="translate(280.329668 259.755584)scale(0.1 -0.1)">
      <defs>
       <path id="DejaVuSans-36" d="M 2113 2584 
Q 1688 2584 1439 2293 
Q 1191 2003 1191 1497 
Q 1191 994 1439 701 
Q 1688 409 2113 409 
Q 2538 409 2786 701 
Q 3034 994 3034 1497 
Q 3034 2003 2786 2293 
Q 2538 2584 2113 2584 
z
M 3366 4563 
L 3366 3988 
Q 3128 4100 2886 4159 
Q 2644 4219 2406 4219 
Q 1781 4219 1451 3797 
Q 1122 3375 1075 2522 
Q 1259 2794 1537 2939 
Q 1816 3084 2150 3084 
Q 2853 3084 3261 2657 
Q 3669 2231 3669 1497 
Q 3669 778 3244 343 
Q 2819 -91 2113 -91 
Q 1303 -91 875 529 
Q 447 1150 447 2328 
Q 447 3434 972 4092 
Q 1497 4750 2381 4750 
Q 2619 4750 2861 4703 
Q 3103 4656 3366 4563 
z
" transform="scale(0.015625)"/>
      </defs>
      <use xlink:href="#DejaVuSans-30"/>
      <use xlink:href="#DejaVuSans-2e" x="63.623047"/>
      <use xlink:href="#DejaVuSans-36" x="95.410156"/>
      <use xlink:href="#DejaVuSans-30" x="159.033203"/>
     </g>
    </g>
   </g>
   <g id="xtick_9">
    <g id="line2d_11">
     <path d="M 285.269997 212.908435 
L 290.280908 214.078269 
" style="fill: none; stroke: #000000; stroke-width: 0.8; stroke-linecap: square"/>
    </g>
    <g id="text_11">
     <!-- 0.65 -->
     <g transform="translate(288.574573 228.902516)scale(0.1 -0.1)">
      <use xlink:href="#DejaVuSans-30"/>
      <use xlink:href="#DejaVuSans-2e" x="63.623047"/>
      <use xlink:href="#DejaVuSans-36" x="95.410156"/>
      <use xlink:href="#DejaVuSans-35" x="159.033203"/>
     </g>
    </g>
   </g>
   <g id="xtick_10">
    <g id="line2d_12">
     <path d="M 293.526118 182.590301 
L 298.493619 183.738608 
" style="fill: none; stroke: #000000; stroke-width: 0.8; stroke-linecap: square"/>
    </g>
    <g id="text_12">
     <!-- 0.70 -->
     <g transform="translate(296.667634 198.617662)scale(0.1 -0.1)">
      <defs>
       <path id="DejaVuSans-37" d="M 525 4666 
L 3525 4666 
L 3525 4397 
L 1831 0 
L 1172 0 
L 2766 4134 
L 525 4134 
L 525 4666 
z
" transform="scale(0.015625)"/>
      </defs>
      <use xlink:href="#DejaVuSans-30"/>
      <use xlink:href="#DejaVuSans-2e" x="63.623047"/>
      <use xlink:href="#DejaVuSans-37" x="95.410156"/>
      <use xlink:href="#DejaVuSans-30" x="159.033203"/>
     </g>
    </g>
   </g>
   <g id="xtick_11">
    <g id="line2d_13">
     <path d="M 301.63103 152.827442 
L 306.555862 153.95481 
" style="fill: none; stroke: #000000; stroke-width: 0.8; stroke-linecap: square"/>
    </g>
    <g id="text_13">
     <!-- 0.75 -->
     <g transform="translate(304.613007 168.885469)scale(0.1 -0.1)">
      <use xlink:href="#DejaVuSans-30"/>
      <use xlink:href="#DejaVuSans-2e" x="63.623047"/>
      <use xlink:href="#DejaVuSans-37" x="95.410156"/>
      <use xlink:href="#DejaVuSans-35" x="159.033203"/>
     </g>
    </g>
   </g>
  </g>
  <g id="axis3d_3">
   <g id="line2d_14">
    <path d="M 305.984932 143.221817 
L 316.100364 56.368059 
" style="fill: none; stroke: #000000; stroke-width: 0.8; stroke-linecap: square"/>
   </g>
   <g id="text_14">
    <!-- z [m] -->
    <g transform="translate(349.036928 105.868505)rotate(-83.356969)scale(0.17 -0.17)">
     <defs>
      <path id="DejaVuSans-7a" d="M 353 3500 
L 3084 3500 
L 3084 2975 
L 922 459 
L 3084 459 
L 3084 0 
L 275 0 
L 275 525 
L 2438 3041 
L 353 3041 
L 353 3500 
z
" transform="scale(0.015625)"/>
     </defs>
     <use xlink:href="#DejaVuSans-7a"/>
     <use xlink:href="#DejaVuSans-20" x="52.490234"/>
     <use xlink:href="#DejaVuSans-5b" x="84.277344"/>
     <use xlink:href="#DejaVuSans-6d" x="123.291016"/>
     <use xlink:href="#DejaVuSans-5d" x="220.703125"/>
    </g>
   </g>
   <g id="Line3DCollection_3">
    <path d="M 306.64185 137.581349 
L 103.967068 91.422136 
L 42.927576 270.853803 
" style="fill: none; stroke: #b0b0b0; stroke-width: 0.8"/>
    <path d="M 309.330209 114.498392 
L 102.459779 67.731871 
L 40.008472 249.681748 
" style="fill: none; stroke: #b0b0b0; stroke-width: 0.8"/>
    <path d="M 312.132848 90.434194 
L 100.889379 43.049659 
L 36.95989 227.5706 
" style="fill: none; stroke: #b0b0b0; stroke-width: 0.8"/>
    <path d="M 315.057213 65.324829 
L 99.251817 17.311867 
L 33.77302 204.45646 
" style="fill: none; stroke: #b0b0b0; stroke-width: 0.8"/>
   </g>
   <g id="xtick_12">
    <g id="line2d_15">
     <path d="M 304.996951 137.206723 
L 309.9328 138.330863 
" style="fill: none; stroke: #000000; stroke-width: 0.8; stroke-linecap: square"/>
    </g>
    <g id="text_15">
     <!-- 1.4 -->
     <g transform="translate(314.824937 137.025869)scale(0.1 -0.1)">
      <use xlink:href="#DejaVuSans-31"/>
      <use xlink:href="#DejaVuSans-2e" x="63.623047"/>
      <use xlink:href="#DejaVuSans-34" x="95.410156"/>
     </g>
    </g>
   </g>
   <g id="xtick_13">
    <g id="line2d_16">
     <path d="M 307.65076 114.118725 
L 312.690309 115.257999 
" style="fill: none; stroke: #000000; stroke-width: 0.8; stroke-linecap: square"/>
    </g>
    <g id="text_16">
     <!-- 1.5 -->
     <g transform="translate(317.841242 113.833594)scale(0.1 -0.1)">
      <use xlink:href="#DejaVuSans-31"/>
      <use xlink:href="#DejaVuSans-2e" x="63.623047"/>
      <use xlink:href="#DejaVuSans-35" x="95.410156"/>
     </g>
    </g>
   </g>
   <g id="xtick_14">
    <g id="line2d_17">
     <path d="M 310.417366 90.04939 
L 315.565067 91.204084 
" style="fill: none; stroke: #000000; stroke-width: 0.8; stroke-linecap: square"/>
    </g>
    <g id="text_17">
     <!-- 1.6 -->
     <g transform="translate(320.985429 89.658045)scale(0.1 -0.1)">
      <use xlink:href="#DejaVuSans-31"/>
      <use xlink:href="#DejaVuSans-2e" x="63.623047"/>
      <use xlink:href="#DejaVuSans-36" x="95.410156"/>
     </g>
    </g>
   </g>
   <g id="xtick_15">
    <g id="line2d_18">
     <path d="M 313.304117 64.934796 
L 318.564714 66.105187 
" style="fill: none; stroke: #000000; stroke-width: 0.8; stroke-linecap: square"/>
    </g>
    <g id="text_18">
     <!-- 1.7 -->
     <g transform="translate(324.265805 64.435338)scale(0.1 -0.1)">
      <use xlink:href="#DejaVuSans-31"/>
      <use xlink:href="#DejaVuSans-2e" x="63.623047"/>
      <use xlink:href="#DejaVuSans-37" x="95.410156"/>
     </g>
    </g>
   </g>
  </g>
  <g id="axes_1">
   <g id="line2d_19">
    <path d="M 220.34535 128.641025 
L 220.069005 128.300995 
L 220.505488 127.959956 
L 220.576052 127.493429 
L 220.436385 127.202681 
L 220.529566 126.89199 
L 220.563762 126.525933 
L 220.961372 126.019491 
L 221.109369 125.547009 
L 221.162075 125.119262 
L 221.272777 124.771181 
L 221.362643 124.219646 
L 221.567516 123.851512 
L 221.717189 123.33134 
L 221.99947 122.956695 
L 222.051019 122.554028 
L 222.256608 122.162165 
L 222.446483 121.75956 
L 222.576406 121.326192 
L 222.841773 120.965441 
L 223.066678 120.487843 
L 223.254441 120.134097 
L 223.442162 119.780429 
L 223.551359 119.457999 
L 223.719074 118.877353 
L 224.041103 118.620602 
L 224.287615 118.32217 
L 224.417151 117.889723 
L 223.957964 117.472177 
L 224.490722 117.329591 
L 224.447797 116.948653 
L 224.463837 116.622611 
L 224.555289 116.338366 
L 224.911926 116.007304 
L 225.120195 115.857007 
L 225.100235 115.630226 
L 225.286451 115.301918 
L 225.472619 114.973696 
L 225.658738 114.645561 
L 225.863258 114.255892 
L 225.91499 113.831616 
L 226.215749 113.686045 
L 226.401667 113.358261 
L 226.587535 113.030564 
L 227.021827 112.669066 
L 227.209706 112.29277 
L 227.736396 111.936029 
L 227.864081 111.529847 
L 228.105368 111.33022 
L 228.402806 110.921838 
L 229.064235 110.637261 
L 229.191634 110.231531 
L 229.606788 109.932191 
L 229.982282 109.492771 
L 230.306094 109.164395 
L 230.949785 108.917139 
L 231.121053 108.554201 
L 231.930724 108.377987 
L 231.361361 107.707502 
" clip-path="url(#p60db34bd13)" style="fill: none; stroke: #008000; stroke-width: 1.5; stroke-linecap: square"/>
   </g>
   <g id="line2d_20">
    <path d="M 232.446942 106.898592 
L 232.67363 106.663447 
L 233.011417 106.683326 
" clip-path="url(#p60db34bd13)" style="fill: none; stroke: #008000; stroke-width: 1.5; stroke-linecap: square"/>
   </g>
   <g id="line2d_21">
    <path d="M 233.273366 106.350095 
L 233.308677 106.251981 
L 233.251937 106.148961 
L 233.364632 106.043671 
L 233.249959 105.862109 
L 233.304715 105.678299 
L 233.510621 105.553514 
L 233.698258 105.490002 
L 233.996095 105.370207 
L 234.092923 105.277275 
L 234.43284 105.248307 
L 234.47051 105.101349 
L 234.508179 104.954396 
L 234.449014 104.900385 
L 234.389855 104.846378 
L 234.463571 104.912593 
L 234.190538 104.81904 
L 234.037478 104.779411 
L 234.018047 104.865069 
L 233.330666 104.758789 
" clip-path="url(#p60db34bd13)" style="fill: none; stroke: #008000; stroke-width: 1.5; stroke-linecap: square"/>
   </g>
   <g id="line2d_22">
    <path d="M 232.265519 105.158388 
L 230.59414 105.39536 
L 229.57038 105.933875 
L 228.93756 106.003625 
L 228.741336 106.262239 
L 228.240251 106.476273 
L 227.873415 106.450975 
L 227.065237 107.003902 
L 226.487755 107.224835 
L 225.317627 107.989113 
L 224.491831 108.292164 
L 223.935023 108.737464 
L 223.3393 109.04325 
L 222.935431 109.498428 
L 221.747187 110.370908 
L 220.502605 111.47456 
L 215.93025 115.675867 
L 215.094858 116.822871 
L 213.975287 117.839768 
L 213.444857 118.363338 
L 212.895804 119.568458 
L 212.081906 119.937857 
L 211.684203 120.247054 
L 211.857633 120.720707 
L 211.007736 121.475 
L 210.895475 121.866654 
L 210.383874 122.615744 
L 210.289444 122.970242 
L 208.910828 124.153292 
L 208.628918 124.548178 
L 208.024092 124.983254 
L 207.344976 125.042462 
L 206.837679 126.509302 
L 205.746777 128.80648 
L 204.436557 129.889761 
L 204.002507 130.826111 
L 203.245672 131.7789 
L 202.849934 132.832927 
L 200.658787 137.133112 
L 199.030834 140.646912 
L 198.350318 143.120008 
L 197.153923 145.749331 
L 196.129838 149.280075 
L 195.482422 151.689361 
L 195.158923 152.72637 
L 194.682261 153.752441 
L 193.538473 157.63077 
L 193.424295 158.227675 
L 192.564094 160.441144 
L 192.334434 161.1706 
L 191.990047 161.73947 
L 191.396584 163.32409 
L 191.243228 163.80356 
L 190.610589 164.778389 
L 190.322629 165.675553 
L 190.034737 166.080758 
L 189.861319 166.893892 
L 189.477364 167.344668 
L 189.438375 167.740567 
L 189.246606 168.054334 
L 188.901228 168.355994 
L 188.938811 168.769953 
L 187.841218 170.792619 
L 187.244034 171.514879 
L 187.18667 171.433906 
L 186.745241 171.333813 
L 186.726579 171.126552 
L 186.496149 171.119749 
L 186.419791 170.878194 
L 186.016757 170.721852 
L 185.5777 169.85808 
L 185.194958 169.569092 
L 185.157542 169.201887 
L 184.851574 168.930876 
L 184.968665 168.106595 
L 184.644402 167.629282 
L 184.607423 167.216092 
L 184.132805 165.813238 
L 183.810389 164.892326 
L 183.69928 163.772655 
L 183.473863 162.563449 
L 183.080654 160.253043 
L 183.063928 159.582082 
L 182.781152 158.635681 
L 182.689736 157.553906 
L 182.863767 156.818539 
L 182.636525 156.442388 
L 182.867112 155.811275 
L 182.681789 154.40854 
L 182.835024 154.051257 
L 182.800396 153.078409 
L 182.877584 152.704296 
L 183.239333 152.392206 
L 183.126986 151.888662 
L 183.434347 150.66912 
L 183.663415 150.213903 
L 183.608151 149.697403 
L 183.343953 149.332141 
L 183.572751 148.900944 
L 183.422567 148.453117 
L 183.575299 148.05183 
L 184.429677 147.363401 
L 184.260953 146.860643 
L 184.300956 146.20741 
L 184.624489 145.662395 
L 184.569824 145.030465 
L 185.748315 143.393 
L 186.071637 142.82513 
L 186.169918 141.62979 
L 186.62554 141.111561 
L 187.250907 140.613705 
L 187.536227 140.122491 
L 187.537862 139.54748 
L 188.087873 138.985265 
L 188.203272 138.281037 
L 188.923248 137.692145 
L 189.644763 136.505268 
L 189.778636 135.763818 
L 190.443486 134.475156 
L 190.992894 133.913685 
L 191.939076 133.353686 
L 193.07704 131.989388 
L 193.229028 131.450578 
L 194.308225 130.652537 
L 194.500036 129.585633 
L 195.067506 129.249817 
L 196.488323 127.467678 
L 196.490622 127.062028 
L 197.039983 126.739852 
L 197.383559 125.922684 
L 197.669193 125.647281 
L 198.277192 125.307911 
L 198.373495 124.881928 
L 198.866696 124.743387 
L 199.342792 124.021648 
L 199.41967 124.253418 
L 199.956461 123.704765 
L 200.225228 123.418323 
L 200.70071 123.316853 
L 200.721979 123.135658 
L 201.007763 123.170161 
L 201.105224 122.982206 
L 201.05087 122.783639 
L 201.298685 122.678174 
L 201.132586 122.226299 
L 201.647671 121.929869 
L 201.705055 121.69785 
L 202.031272 121.202753 
L 202.09227 120.515772 
L 202.283367 120.331469 
L 202.188796 120.088927 
L 202.584972 119.875614 
L 202.566105 119.650401 
L 202.164522 119.531449 
L 201.307653 119.667502 
L 201.059878 119.773198 
L 200.944146 119.998703 
L 200.694968 119.890218 
L 200.238738 120.193128 
L 199.705147 120.28864 
L 199.361872 120.510256 
L 198.697123 120.74803 
L 198.429642 120.986774 
L 197.747027 120.975541 
L 197.347938 121.094494 
L 197.40039 121.412845 
L 196.812888 121.071687 
L 196.412265 121.572343 
L 195.464615 121.751445 
L 195.234495 122.201151 
L 194.815497 122.500651 
L 194.39845 122.942209 
L 193.377914 123.007925 
L 193.429562 123.682883 
L 192.578887 123.745664 
L 192.025781 124.687372 
L 190.909423 125.273064 
L 190.585759 126.027231 
L 190.300888 126.349578 
L 189.678129 126.629934 
L 188.638191 127.44625 
L 188.522853 127.979695 
L 188.125854 128.335439 
L 187.483697 128.748139 
L 187.388014 129.14903 
L 187.066345 129.521946 
L 186.857445 130.027971 
L 186.441544 130.44482 
L 185.72465 130.792656 
L 185.685951 131.009936 
L 184.647878 131.683141 
L 184.664614 132.240997 
L 184.305268 132.688933 
L 183.720012 133.108798 
L 183.642668 133.663486 
L 182.566488 134.412064 
L 182.282193 134.877506 
L 180.561883 136.469323 
L 180.503183 136.986907 
L 180.199599 137.490454 
L 179.102265 138.516822 
L 178.892887 138.976565 
L 178.438436 139.445877 
L 178.285115 139.960999 
L 177.660716 140.480868 
L 177.526447 140.887669 
L 177.033287 141.503901 
L 176.879696 141.996014 
L 176.424719 142.442414 
L 176.120329 142.923611 
L 175.589733 143.305857 
L 175.511203 143.815869 
L 175.036633 144.347807 
L 174.863357 144.902379 
L 174.064275 145.931275 
L 173.664519 146.434218 
L 173.585696 146.968631 
L 172.940351 147.528303 
L 172.917339 148.095283 
L 171.829155 149.858623 
L 171.691972 150.579475 
L 171.159861 151.010447 
L 171.533208 151.580613 
L 171.037675 152.153063 
L 170.844091 152.795487 
L 170.083068 153.463161 
L 169.832953 154.003247 
L 169.280536 154.473639 
L 169.011146 155.122722 
L 169.082461 155.671234 
L 168.882488 157.181943 
L 168.536677 157.744488 
L 168.436872 158.274385 
L 168.166667 158.87818 
L 167.764315 159.361729 
L 167.835511 159.911685 
L 167.660002 160.448185 
L 166.540633 160.74871 
L 166.175407 161.467798 
L 165.772935 161.998582 
L 165.32667 163.210659 
L 164.803844 164.359557 
L 163.315981 167.432731 
L 163.061135 168.244749 
L 162.579656 169.073678 
L 162.305211 169.972092 
L 161.547628 171.631651 
L 161.28301 173.204289 
L 160.836364 174.132236 
L 160.636642 175.02794 
L 160.209299 175.894087 
L 159.744186 178.414654 
L 158.519694 185.701959 
L 158.153605 187.628035 
L 158.163435 188.33143 
L 157.872663 190.255899 
L 157.830698 192.808764 
L 157.938138 193.106566 
L 158.377073 198.065068 
L 158.143155 198.238797 
L 157.719029 198.230982 
L 157.150893 197.800162 
L 156.25474 197.702752 
L 156.04575 197.630588 
L 155.953811 197.471658 
L 155.745361 197.422283 
L 155.770479 197.176684 
L 155.486481 197.154902 
L 155.165945 196.987773 
L 154.962015 196.711297 
L 154.874633 196.325577 
L 154.414556 195.442198 
L 154.214911 194.916923 
L 153.956035 194.605383 
L 153.701258 194.044845 
L 153.582377 193.28947 
L 153.153516 191.917282 
L 153.132264 191.163907 
L 152.567407 189.152748 
L 152.430016 188.487818 
L 152.245507 186.50415 
L 151.978516 183.853646 
L 152.290451 182.669159 
L 152.265675 182.170652 
L 152.411777 181.622283 
L 152.386436 181.10169 
L 152.667532 179.624474 
L 152.862903 178.553934 
L 153.08958 177.849546 
L 153.024551 177.45665 
L 156.262532 172.150856 
L 156.760875 171.645015 
L 156.825029 171.307012 
L 157.359123 170.94334 
L 157.443542 170.589398 
L 157.656703 170.218111 
L 158.285111 169.810287 
L 158.376396 168.994564 
L 158.589208 168.623881 
L 159.25516 168.04686 
L 159.56974 167.193338 
L 160.278392 166.319948 
L 160.340777 165.93825 
L 160.83631 165.412363 
L 161.186313 164.276465 
L 161.987063 163.291774 
L 162.1422 162.774689 
L 162.57865 162.435116 
L 162.959058 161.993493 
L 163.133712 161.438122 
L 165.317327 158.674541 
L 165.827598 158.330164 
L 166.716749 157.499177 
L 167.245149 157.001069 
L 167.230361 156.535586 
L 168.646465 155.138029 
L 169.684255 154.31965 
L 170.158417 153.456879 
L 170.797884 153.13994 
L 170.96865 152.803736 
L 171.533135 152.469515 
L 171.853479 152.121599 
L 172.304615 151.892905 
L 173.361476 150.518956 
L 173.681818 150.171043 
L 174.848842 149.356779 
L 176.712134 147.785739 
L 177.10602 147.694402 
L 177.783662 147.091754 
L 177.785091 146.712602 
L 178.179146 146.691071 
L 178.367376 146.509712 
L 178.686527 146.44756 
L 179.514682 145.809165 
L 180.077252 145.860063 
L 180.416048 145.619725 
L 181.054792 145.500981 
L 181.093057 145.331487 
L 181.58117 145.435122 
L 181.788994 145.168671 
L 182.070822 145.20575 
L 182.128346 144.928019 
L 182.4293 144.903672 
L 182.992748 145.094764 
L 183.087411 144.957083 
L 183.70829 145.039775 
L 183.878238 144.91935 
L 184.160865 144.90961 
L 184.330173 145.028879 
L 184.349487 144.920589 
L 184.425454 144.820822 
L 186.293944 144.349253 
L 187.748855 144.270754 
L 188.183884 144.248643 
L 188.354784 144.104415 
L 189.642044 144.123015 
L 189.945429 144.051502 
L 190.626833 144.019799 
L 190.892322 143.854637 
L 191.195732 143.806566 
L 191.442378 143.943403 
L 192.256962 143.984555 
L 192.35207 143.893233 
L 192.748858 144.159001 
L 193.087956 144.680429 
L 192.973879 144.83344 
L 193.105593 145.217606 
L 192.915941 145.353233 
L 192.531904 146.722518 
L 192.227478 146.817172 
L 192.169402 147.096168 
L 191.903355 147.284678 
L 191.996355 147.598425 
L 191.860615 148.023979 
L 191.575395 148.05665 
L 191.403369 148.247503 
L 191.02362 148.347838 
L 190.870921 148.69427 
L 189.655837 150.010693 
L 188.461923 151.319039 
L 187.003258 152.745324 
L 186.150559 153.64207 
L 185.486037 154.714662 
L 183.703744 156.848449 
L 182.453689 158.031159 
L 181.71346 159.109744 
L 179.686251 161.067999 
L 176.197811 164.67289 
L 175.627108 165.678925 
L 170.412375 170.266482 
L 169.749275 170.624897 
L 169.388276 171.122277 
L 168.744653 171.441505 
L 168.041204 172.282453 
L 167.51216 172.540657 
L 166.621229 173.204651 
L 165.863479 173.653747 
L 165.082655 174.812613 
L 164.24937 175.244255 
L 163.96247 175.667967 
L 163.824366 176.43936 
L 163.520724 176.6816 
L 163.498646 177.010789 
L 163.270689 177.293459 
L 163.363325 177.53844 
L 163.059317 177.757928 
L 163.303422 178.083719 
L 163.057931 178.116157 
L 163.323532 178.066975 
L 163.212 177.929935 
L 163.669961 177.524318 
L 163.748516 177.320649 
L 164.588499 176.492394 
L 164.516163 176.253835 
L 164.688855 175.960061 
L 166.246272 174.785413 
L 166.173516 174.524343 
L 166.571535 174.237743 
L 166.55514 174.102203 
L 167.145282 173.50587 
L 167.166957 173.17755 
L 167.681302 172.541166 
L 168.176102 171.967106 
L 168.656722 170.520416 
L 168.828599 170.204678 
L 169.151004 169.923959 
L 169.155223 169.392683 
L 169.72439 168.79108 
L 169.824653 167.881343 
L 169.938384 167.751895 
L 169.998228 167.277681 
L 169.736264 167.129854 
L 169.944836 167.001897 
L 169.874357 166.54595 
L 170.082695 166.3951 
L 169.577525 165.923001 
L 169.598911 165.596095 
L 169.211574 164.982965 
L 168.668949 164.726985 
L 168.482584 164.597036 
L 168.860159 164.396456 
L 168.523192 164.18572 
L 168.562206 164.108105 
L 168.095022 163.869797 
L 168.208758 163.763638 
L 167.81598 163.450823 
L 167.986469 163.021309 
L 167.423155 162.620382 
L 167.574522 162.275595 
L 167.631052 161.929048 
L 167.536405 161.950357 
L 167.554898 161.796411 
L 167.703872 161.69292 
L 167.926778 160.95011 
L 167.925967 160.857784 
L 168.244966 160.750226 
L 168.147881 160.494378 
L 168.372296 160.408019 
L 168.24006 160.172713 
L 168.90902 159.854296 
L 168.211436 159.666686 
L 168.318548 159.789293 
L 168.354336 159.837902 
L 168.540596 159.898262 
L 168.765473 159.811661 
L 168.722159 159.899519 
L 168.928534 159.967493 
L 168.700068 160.157192 
L 168.825885 160.622589 
L 168.560495 160.647817 
L 168.672351 160.783573 
L 168.349298 161.064298 
L 166.259206 161.195277 
L 161.989441 160.608067 
L 161.133411 160.334049 
L 160.705732 160.4219 
L 160.635883 160.301587 
L 159.557585 160.068159 
L 159.169047 159.986344 
L 159.249357 159.87797 
L 158.377731 159.712715 
L 158.513651 159.683526 
L 158.20002 159.57315 
L 157.847541 159.586109 
L 157.874637 159.514279 
L 156.870551 159.271471 
L 156.951976 159.209616 
L 156.661918 159.424697 
L 156.648653 159.384022 
L 157.08232 159.802316 
L 156.524063 159.78873 
L 156.086524 160.192126 
L 156.317616 160.210684 
L 155.91594 160.305222 
L 156.024246 160.571264 
L 155.845744 160.694449 
L 156.616906 160.373233 
L 156.511325 160.445074 
L 156.38688 160.600875 
L 156.67231 160.697636 
L 156.673151 160.966054 
L 156.253257 161.121091 
L 156.706052 161.190947 
L 156.750355 161.365204 
L 157.170189 161.455189 
L 157.066061 161.594848 
L 157.178283 162.131832 
L 157.388439 162.210685 
L 157.358412 162.367071 
L 157.957348 163.155999 
L 157.760537 163.361079 
L 158.173409 163.597054 
L 158.094203 163.991663 
L 159.661162 165.676741 
L 159.814162 166.049252 
L 160.249459 166.538522 
L 160.328495 166.893341 
L 162.005618 167.990132 
L 164.0707 169.951409 
L 164.625764 170.173595 
L 164.775356 170.431477 
L 165.273691 170.879912 
L 165.808989 171.139997 
L 166.972635 172.232807 
L 167.36003 172.413728 
L 167.877993 173.001308 
L 168.870704 173.762122 
L 170.141383 174.681164 
L 170.490906 175.093619 
L 170.803633 175.21239 
L 173.75969 177.186764 
L 173.889556 177.155241 
L 175.355342 178.071414 
L 175.520351 178.000804 
L 175.319299 177.822865 
L 175.557485 177.747161 
L 175.410981 177.66883 
L 175.375022 177.464481 
L 174.954091 177.146835 
L 174.880123 176.81976 
L 174.714594 176.71322 
L 174.292595 176.129288 
L 174.072295 175.92288 
L 174.180638 175.833918 
L 173.221561 174.034086 
L 172.558265 173.27906 
L 172.611482 173.044612 
L 171.662821 171.628474 
L 171.328912 171.345846 
L 171.288984 171.086673 
L 170.954847 170.826068 
L 171.024158 170.699787 
L 170.468892 170.432358 
L 170.575579 170.139382 
L 169.922131 169.748779 
L 169.826219 169.342875 
L 169.949738 169.248612 
L 169.595146 169.047477 
L 169.608968 168.819384 
L 169.437609 168.768742 
L 169.303611 168.528527 
L 169.112969 168.538689 
L 168.825675 168.163636 
L 168.75988 167.794349 
L 168.861298 167.558033 
L 168.855934 167.411849 
L 169.128887 167.395819 
L 168.650748 167.345725 
L 168.899316 167.221608 
L 169.066771 167.241644 
L 169.041933 167.110559 
L 169.308597 167.165004 
L 169.71277 167.132052 
L 169.874844 167.221801 
L 171.139369 167.282248 
L 171.057711 167.358994 
L 172.401489 167.266057 
L 173.389952 167.182831 
L 173.988628 167.025382 
L 174.306265 167.220425 
L 174.948 167.064105 
L 178.985977 164.712507 
L 179.575876 164.590406 
L 179.61394 164.407312 
L 180.032766 164.335629 
L 182.477635 163.349583 
L 183.300769 163.069279 
L 184.009126 162.885078 
L 183.1882 162.709307 
L 183.399608 162.544313 
L 186.007996 162.126686 
L 186.067272 161.949245 
L 186.491013 161.829361 
L 188.222483 161.564577 
L 188.684059 161.530028 
L 189.031711 161.263473 
L 190.35833 161.243545 
L 191.092315 161.147119 
L 192.15123 160.977094 
L 192.498273 160.827898 
L 192.192618 160.639065 
L 192.461917 160.542738 
L 192.404353 160.461942 
L 191.866331 160.361156 
L 191.904234 160.282238 
L 191.92381 160.195661 
L 191.597941 160.140506 
L 191.694633 160.048118 
L 192.118164 159.940181 
L 191.983798 159.841643 
L 191.426554 159.803909 
L 191.463885 159.772182 
L 190.945314 159.608464 
L 190.983871 159.482481 
L 191.599372 159.284071 
L 191.293115 159.142319 
L 191.370209 159.136489 
L 191.773768 159.138682 
L 190.946261 159.045512 
L 190.676863 158.919326 
L 190.368688 158.942661 
L 189.427085 158.910579 
L 189.099573 159.02042 
L 189.098061 159.161817 
L 188.348511 159.308782 
L 188.423794 159.467846 
L 187.461803 159.710508 
L 187.03775 159.983001 
L 186.556767 160.151242 
L 185.57764 160.338839 
L 185.422358 160.585446 
L 184.596904 160.831793 
L 184.459804 161.250019 
L 183.979749 161.464677 
L 182.542126 161.8737 
L 181.966926 162.179973 
L 181.257229 162.785737 
L 180.835499 163.173591 
L 179.458462 163.988235 
L 179.018508 164.344676 
L 178.388712 164.639137 
L 178.502135 165.056227 
L 177.396391 165.563036 
L 177.43376 166.00848 
L 176.444966 166.871194 
L 175.363485 168.054956 
L 174.889164 168.335885 
L 174.377605 169.180987 
L 174.530231 169.539691 
L 174.113364 169.946045 
L 174.154192 170.490107 
L 173.833835 171.104281 
L 173.929912 171.358748 
L 173.856296 171.962247 
L 174.008433 172.250236 
L 173.819472 172.638451 
L 173.990878 172.863795 
L 173.66985 173.062401 
L 173.670662 173.291807 
L 173.954993 173.837079 
L 174.26008 174.868921 
L 174.638123 175.185387 
L 174.619447 175.476249 
L 175.035869 175.690779 
L 175.111815 175.936701 
L 175.811006 176.716863 
L 175.942868 177.042142 
L 176.395573 177.602974 
L 176.357425 178.000562 
L 176.583602 178.280674 
L 176.979487 178.533537 
L 177.016512 178.925484 
L 177.674879 179.531557 
L 178.163207 180.164403 
L 178.990227 180.901261 
L 179.402619 181.515731 
L 179.778142 181.829653 
L 179.909003 182.107825 
L 180.790994 182.741917 
L 181.840266 183.750124 
L 182.120923 184.085422 
L 182.232404 184.402634 
L 182.794166 184.915034 
L 182.830893 185.124449 
L 183.91628 186.205493 
L 183.971977 186.352676 
L 184.289389 186.806707 
L 184.438302 187.175387 
L 184.719904 187.285172 
L 184.928004 187.152599 
L 184.967554 186.957095 
L 185.043359 186.884615 
L 184.894284 186.66947 
L 184.82051 186.449272 
L 184.670736 186.324097 
L 184.765716 186.16676 
L 184.431276 185.413496 
L 184.11201 185.292764 
L 184.0579 184.874403 
L 182.520272 183.512876 
L 182.596394 183.371954 
L 182.465391 183.138613 
L 182.050798 183.062167 
L 182.107765 182.983462 
L 180.941389 182.005396 
L 180.696315 181.878819 
L 180.527358 181.519921 
L 179.8859 181.185839 
L 179.64054 181.036313 
L 179.640864 180.877101 
L 179.339781 180.23771 
L 179.34018 180.009929 
L 178.904959 179.8814 
L 178.905266 179.653438 
L 178.659492 179.412218 
L 178.659772 179.161231 
L 178.413824 178.919779 
L 178.319365 178.393548 
L 177.67529 178.126134 
L 177.675364 177.737242 
L 177.99781 177.356035 
L 177.65619 177.135753 
L 177.428804 176.509723 
L 177.275597 176.191771 
L 176.649067 175.791678 
L 176.629483 175.555599 
L 176.532499 175.639014 
L 176.36098 175.390414 
L 176.588333 174.822042 
L 176.340663 174.555333 
L 176.435512 173.933997 
L 176.472007 173.246279 
L 176.547871 172.963619 
L 176.776126 172.73932 
L 176.205 171.893685 
L 176.394474 171.817745 
L 176.718601 171.547771 
L 177.099751 171.427766 
L 176.96494 171.088504 
L 177.728121 170.708758 
L 178.225471 170.155003 
L 178.588253 170.050911 
L 178.780295 169.681397 
L 179.105852 169.43344 
L 179.182673 169.218378 
L 179.891193 168.942464 
L 180.197794 168.780434 
L 180.217823 168.484277 
L 181.00357 168.31896 
L 181.886746 167.874802 
L 182.673496 167.732535 
L 182.655206 167.561939 
L 184.634504 167.115686 
L 185.135078 166.885568 
L 185.309629 166.623903 
L 185.867736 166.497954 
L 186.637051 166.488497 
L 186.657815 166.261305 
L 187.640188 166.004108 
L 188.836786 165.405115 
L 188.857611 165.201078 
L 190.188682 164.794279 
L 190.036511 164.617658 
L 190.404105 164.334757 
L 190.695712 163.963409 
L 191.371298 163.75161 
L 191.760373 163.26401 
L 191.010005 163.022648 
L 190.682033 162.838203 
L 188.850674 162.747996 
L 187.809472 162.525933 
L 187.134738 162.585087 
L 185.749459 162.617825 
L 185.844349 162.737098 
L 185.266835 162.774354 
L 183.130548 163.727881 
L 182.976102 163.926801 
L 182.362302 163.99574 
L 182.208206 164.171086 
L 181.574825 164.466735 
L 181.401569 164.704801 
L 180.78804 165.00733 
L 180.538504 165.250788 
L 179.639206 165.559239 
L 179.085364 165.789159 
L 179.104431 165.959583 
L 178.818148 166.082443 
L 178.111683 166.242322 
L 178.169753 166.35685 
L 177.483312 166.546931 
L 177.465336 166.690129 
L 176.936792 166.691327 
L 176.5385 166.629845 
L 176.425457 166.817709 
L 176.634521 167.258219 
L 176.597535 167.463367 
L 176.161153 167.573222 
L 175.859826 167.95315 
L 175.538889 168.001638 
L 174.96021 168.799184 
L 175.246779 169.287706 
L 175.210463 169.491207 
L 175.306482 169.953214 
L 175.136733 170.371674 
L 176.331487 171.192884 
L 177.429155 172.011282 
L 178.241134 172.687388 
L 179.108954 173.007635 
L 179.353801 173.341227 
L 180.954676 174.218458 
L 181.311462 174.642254 
L 181.988409 175.119419 
L 182.193648 175.621793 
L 183.938688 177.184857 
L 184.200018 177.652013 
L 185.045087 178.055187 
L 184.930371 178.366331 
L 185.324432 178.550683 
L 185.605338 178.818993 
L 186.130121 179.168401 
L 186.429859 179.374486 
L 186.599064 179.370068 
L 186.561799 179.228377 
L 186.994334 179.174961 
L 187.447453 178.878027 
L 187.636863 178.675414 
L 188.109626 178.468672 
L 188.205411 178.265144 
L 188.244682 178.004667 
L 188.60634 177.524775 
L 188.626 177.394458 
L 188.47613 177.29123 
L 188.9879 176.914213 
L 188.837762 176.833685 
L 188.856948 176.969312 
L 188.895094 177.042831 
L 188.351005 177.196004 
L 188.124598 177.3869 
L 188.294232 177.580519 
L 187.614956 178.130768 
L 187.708977 178.329766 
L 187.614414 178.595446 
L 186.68988 179.087643 
L 186.368616 179.323637 
L 185.933009 180.109386 
L 185.572977 180.691766 
L 185.099743 181.137265 
L 184.985764 181.44338 
L 184.569212 181.74741 
L 184.340521 182.428273 
L 182.575962 184.397981 
L 182.215534 184.66946 
L 182.158336 184.789067 
L 181.91266 184.707954 
L 181.628577 184.75198 
L 181.476535 184.893889 
L 181.34467 184.727913 
L 179.98153 184.537644 
L 179.735451 184.456439 
L 179.130514 183.974299 
L 178.525264 183.469136 
L 178.241812 183.108269 
L 177.515963 183.168615 
L 177.438695 183.305547 
L 177.304864 183.316502 
L 177.279639 183.975663 
L 177.290192 185.117009 
L 177.211267 185.546727 
L 177.284335 185.989341 
L 177.069697 186.791923 
L 176.563708 188.358691 
L 176.599439 188.704391 
L 176.364832 189.663595 
L 176.227298 190.375951 
L 176.404654 192.652586 
L 176.758915 194.182476 
L 176.770932 195.611055 
L 177.0343 196.442489 
L 176.839804 197.099021 
L 177.061406 198.623685 
L 176.980621 199.46626 
L 177.244225 200.231165 
L 177.069092 200.915735 
L 177.352262 201.730419 
L 177.310433 202.514586 
L 177.950467 204.887401 
L 178.689421 206.535217 
L 178.896319 207.400097 
L 180.986153 210.970487 
L 181.327359 211.728988 
L 182.373765 213.014532 
L 183.076189 214.149153 
L 183.648003 214.531866 
L 184.312259 215.497958 
L 188.48173 218.435954 
L 190.806009 219.497755 
L 191.015656 219.386613 
L 191.093499 219.042821 
L 189.785626 217.31625 
L 189.309937 216.88807 
L 188.949533 216.305883 
L 188.186795 216.037269 
L 187.730961 215.478571 
L 186.436192 214.588619 
L 184.395621 213.472033 
L 183.402274 213.416914 
L 183.153647 213.493582 
L 182.195839 214.212523 
L 181.851537 214.401557 
L 181.46709 215.101633 
L 181.21828 215.311462 
L 180.488599 216.688012 
L 180.314779 217.320737 
L 180.178908 217.943439 
L 180.329641 218.384687 
L 180.038418 219.759851 
L 179.2351 220.628508 
L 177.498188 221.110409 
L 177.154836 221.099791 
L 176.793546 220.92422 
L 176.566604 220.531343 
L 176.035237 220.110874 
L 175.202558 218.963024 
L 175.05338 218.271545 
L 174.656394 217.545711 
L 174.169969 215.532646 
L 173.532014 213.617504 
L 173.706367 212.845865 
L 173.316344 207.259359 
L 173.455565 206.161942 
L 173.288879 205.219839 
L 173.717356 203.333228 
L 173.798232 202.449248 
L 174.106897 201.618969 
L 174.168348 200.821132 
L 174.552913 200.054054 
L 174.633667 199.193628 
L 175.75069 196.45874 
L 176.402403 195.395901 
L 177.111708 194.302841 
L 177.454988 194.091329 
L 177.49503 193.85411 
L 179.455524 192.993206 
L 179.853843 192.952939 
L 180.647976 193.252013 
L 180.970171 193.19402 
L 183.413534 191.936266 
L 183.732676 192.281658 
L 184.280621 192.009066 
L 185.978958 191.582896 
L 186.299418 191.257964 
L 187.599618 191.162117 
L 188.503542 190.79589 
L 189.500852 190.629875 
L 192.22532 189.715513 
L 194.345627 189.237889 
L 197.567216 188.800343 
L 201.433924 188.852533 
L 204.004487 188.976863 
L 205.805295 189.762771 
L 206.287349 190.23294 
L 206.750411 190.476982 
L 207.126767 191.415618 
L 207.021429 191.883966 
L 207.015808 192.084592 
L 206.878229 192.210467 
L 206.948154 192.406146 
L 206.679989 192.412708 
L 206.710769 192.511384 
L 206.243322 192.794694 
L 206.593353 192.834346 
L 206.157379 192.889983 
L 206.487608 193.035848 
L 206.558015 193.208654 
L 206.738703 193.31955 
L 206.733156 193.519187 
L 207.362857 193.690157 
L 207.226958 193.77085 
L 208.769325 194.073944 
L 209.805673 193.965904 
L 210.249088 193.894506 
L 210.249088 193.894506 
" clip-path="url(#p60db34bd13)" style="fill: none; stroke: #008000; stroke-width: 1.5; stroke-linecap: square"/>
   </g>
   <g id="line2d_23">
    <path d="M 218.529405 193.477673 
" clip-path="url(#p60db34bd13)" style="fill: none; stroke: #008000; stroke-width: 1.5; stroke-linecap: square"/>
   </g>
   <g id="line2d_24">
    <path d="M 216.319312 193.633728 
L 215.616331 193.842106 
L 214.47259 194.407371 
L 212.682142 194.908572 
L 212.058476 194.958108 
L 209.895416 195.697225 
L 209.049789 195.892899 
L 208.391018 196.242383 
L 207.712207 196.389394 
L 207.032587 196.845421 
L 206.241786 197.07699 
L 205.654583 197.467192 
L 204.937106 197.716714 
L 204.256135 198.129965 
L 203.174702 198.425711 
L 202.81171 198.471436 
L 202.561473 198.654283 
L 201.200525 198.682535 
L 201.117412 198.838836 
L 200.76083 198.774243 
L 201.088544 198.982886 
L 200.797257 199.068964 
L 199.99819 198.947268 
L 199.6308 199.015806 
L 199.828546 199.328085 
L 199.29178 199.111851 
L 199.451181 199.304022 
L 199.185045 199.5074 
L 199.23073 199.56172 
L 198.708746 200.2423 
L 198.695533 200.597218 
L 198.340702 200.782857 
L 198.40274 200.88679 
L 198.748884 201.124583 
L 198.659592 201.193244 
L 198.002038 201.263655 
L 198.34839 201.501841 
L 197.784555 201.54954 
L 197.37548 202.015847 
L 197.530455 202.164705 
L 197.058467 202.279254 
L 197.269999 202.531478 
L 197.46399 203.342718 
L 196.518567 203.594849 
L 196.767696 203.74369 
L 196.389476 203.835678 
L 196.599492 204.178123 
L 196.390947 204.309732 
L 195.725838 204.356834 
L 195.993549 204.465051 
L 196.145721 204.771406 
L 195.746148 204.767894 
L 195.880418 204.799676 
L 195.690806 205.13894 
L 195.576757 205.247616 
L 195.234535 205.302813 
L 195.482527 205.519204 
L 194.837121 205.977925 
L 194.952745 206.050787 
L 194.537473 206.700434 
L 194.615048 206.900146 
L 194.292507 207.096342 
L 194.276252 207.523764 
L 194.106578 207.711203 
L 194.089597 207.912127 
L 193.750313 208.265048 
L 193.618811 208.575316 
L 193.354137 208.764084 
L 193.298411 209.114903 
L 192.653406 209.89684 
L 192.464341 210.376471 
L 192.102598 210.928882 
L 191.379971 212.674786 
L 189.050714 215.26362 
L 188.782634 215.773397 
L 187.996981 216.781451 
L 186.401781 219.436972 
L 185.72836 220.01197 
L 185.824074 220.381972 
L 182.849053 225.052251 
L 182.536777 226.215693 
L 182.246301 226.696824 
L 181.287316 230.718496 
L 180.951057 233.007593 
L 181.294741 233.658212 
L 181.023226 234.207223 
L 181.424169 234.962544 
L 183.015441 241.030368 
L 183.358657 241.746301 
L 183.813714 243.356717 
L 184.560782 244.077152 
L 185.477997 245.497871 
L 186.053083 245.903877 
L 186.569151 246.591057 
L 187.144116 246.996961 
L 188.330082 248.36407 
L 189.116405 248.867786 
L 190.70484 250.582036 
L 191.472454 250.851298 
L 191.872775 251.371638 
L 192.408962 251.629191 
L 192.905866 252.059577 
L 193.383899 252.255468 
L 194.860523 252.988186 
L 195.299843 253.591396 
L 196.107028 253.922305 
L 196.854729 254.555657 
L 197.757371 254.883145 
L 199.388885 255.909098 
L 201.29128 256.496174 
L 201.804955 257.225261 
L 205.105605 258.291707 
L 206.048851 258.724793 
L 207.834655 259.188365 
L 208.392159 259.572852 
L 209.455212 259.444575 
L 210.166946 259.865834 
L 211.867788 260.397815 
L 212.821119 260.595883 
L 213.446298 260.828661 
L 213.700415 260.711445 
L 213.628023 260.564468 
L 214.378343 260.428025 
L 214.191839 260.37144 
L 211.783587 260.7498 
L 211.571996 261.553847 
L 211.052792 261.91896 
L 210.687324 262.34243 
L 210.194228 263.565262 
L 210.289059 263.561181 
L 210.363457 263.665268 
L 210.602426 264.642719 
L 210.461903 264.690272 
L 210.529768 264.986594 
L 210.520414 265.264347 
L 210.320965 265.571672 
L 210.296417 265.485507 
L 210.690291 265.832308 
L 210.781295 265.934749 
L 210.816284 265.889553 
L 210.890483 265.993232 
L 210.694184 265.892883 
L 210.440526 265.687643 
L 210.264139 265.179016 
L 210.069438 265.036173 
L 210.051345 264.758255 
L 209.705561 264.171645 
L 209.477742 264.331551 
L 208.673096 263.52793 
L 208.288742 263.09302 
L 208.020095 262.524853 
L 207.558126 262.093071 
L 207.120638 261.103404 
L 206.938442 260.553939 
L 206.906449 260.169527 
L 207.008952 259.908258 
L 206.861174 259.656945 
L 206.885954 259.398579 
L 206.679365 259.085037 
L 206.693274 257.989612 
L 207.023387 257.030352 
L 207.357783 256.823085 
L 208.064872 256.600233 
L 208.262176 256.355506 
L 208.498069 256.281133 
L 208.965446 255.961 
L 209.261353 255.604435 
L 209.936936 253.768388 
L 210.214305 253.153841 
L 210.820291 252.547411 
L 211.270939 251.925739 
L 211.959321 250.561599 
L 212.684426 249.110068 
L 213.507708 247.245126 
L 214.273463 244.951857 
L 214.897845 243.999784 
L 215.134151 242.977817 
L 216.405124 239.953137 
L 216.814446 238.92474 
L 217.417352 237.781047 
L 218.177463 235.963476 
L 218.334516 234.967399 
L 218.723063 234.048386 
L 221.284927 229.600781 
L 221.536461 228.924978 
L 221.980815 228.477979 
L 222.170682 227.786042 
L 223.461314 226.342514 
L 224.910788 225.168394 
L 225.817277 224.875737 
L 225.835987 224.811085 
L 227.207005 224.62779 
L 227.321809 224.516723 
L 228.268152 224.371632 
L 230.358868 224.542167 
L 232.498142 224.996234 
L 232.60916 224.952012 
L 233.263615 225.013048 
L 233.839734 224.734527 
L 235.011066 224.434263 
L 235.800771 224.275094 
L 236.515153 224.396669 
L 236.645144 224.609137 
L 237.526336 224.813909 
L 239.175488 224.968633 
L 239.168765 225.079965 
L 240.213338 225.068909 
L 243.498195 225.072147 
L 244.008732 225.121117 
L 245.37401 224.842143 
L 247.028256 224.239776 
L 247.510588 223.801634 
L 248.144084 223.444514 
L 248.563625 222.96889 
L 249.250815 222.419382 
L 250.981012 220.445926 
L 251.298757 219.743758 
L 252.82217 217.342859 
L 253.384147 216.678027 
L 254.873855 214.1433 
L 255.5711 213.218755 
L 256.86906 211.757578 
L 258.210009 209.70116 
L 258.48512 209.157613 
L 258.950099 206.774966 
L 257.77387 205.522026 
L 257.525857 205.376595 
L 256.535173 205.127821 
L 256.138536 205.239778 
L 255.414244 205.073264 
L 254.382199 205.217541 
L 253.119095 205.352966 
L 250.993721 205.804146 
L 249.918766 205.688972 
L 246.278879 206.115418 
L 246.253077 206.422666 
L 246.364518 206.784206 
L 245.865447 206.688648 
L 245.842471 206.951671 
L 244.294738 206.991855 
L 244.086016 207.412402 
L 243.686931 207.497636 
L 243.28213 208.006119 
L 242.905928 207.939024 
L 242.910088 207.983535 
L 242.833596 208.077215 
L 242.090956 207.991192 
L 241.044487 208.217108 
L 240.663702 208.194664 
L 239.937806 208.022579 
L 239.590066 207.917669 
L 238.051431 207.917174 
L 237.565123 207.757449 
L 236.753686 207.996587 
L 236.91872 207.830544 
L 235.123066 207.499813 
L 234.034377 207.289238 
L 232.850372 207.442276 
L 232.191906 207.605535 
L 231.856638 207.821967 
L 231.292952 207.939561 
L 229.458712 207.986827 
L 226.07341 207.239229 
L 224.836404 206.744674 
L 224.132484 206.488715 
L 222.822073 206.204309 
L 222.176864 206.00752 
L 220.271135 205.765898 
L 218.858178 205.6399 
L 216.797141 205.65841 
L 215.29011 206.126201 
L 214.50666 206.49015 
L 213.761426 206.703586 
L 211.422855 207.868007 
L 210.462732 208.32828 
L 207.768525 210.392572 
L 206.709747 211.264436 
L 205.611033 212.012543 
L 204.897049 212.87378 
L 203.875092 213.640265 
L 203.277253 214.34646 
L 202.428203 214.787453 
L 201.790242 215.391999 
L 200.940624 215.855455 
L 200.39939 216.391417 
L 199.588985 216.979264 
L 194.699392 222.01091 
L 192.665107 224.689325 
L 191.814675 224.921244 
L 191.27273 225.479841 
L 190.808492 225.758113 
L 190.013287 226.54866 
L 189.56862 226.76227 
L 189.488515 227.242199 
L 188.750341 228.225554 
L 188.632356 228.767716 
L 188.205237 229.347693 
L 188.087064 229.911815 
L 187.699356 230.318213 
L 187.424724 231.110681 
L 187.037729 231.47257 
L 187.074197 231.796252 
L 186.648831 232.054815 
L 186.124371 232.900087 
L 186.141346 233.309871 
L 185.595572 234.69269 
L 185.264418 235.610065 
L 185.358284 236.037351 
L 185.067563 236.461263 
L 185.084491 236.892003 
L 185.331324 237.42092 
L 185.328313 237.981475 
L 185.45919 238.664519 
L 185.437127 239.245455 
L 185.754949 240.823791 
L 185.771571 241.275061 
L 185.654603 241.581794 
L 185.767577 241.942962 
L 185.553273 242.469705 
L 185.532879 242.66457 
L 185.81869 242.953805 
L 185.815588 243.512131 
L 185.945354 244.658334 
L 185.867837 244.938055 
L 186.039614 245.186173 
L 185.983642 244.951744 
L 186.041654 244.947751 
L 185.90775 245.036464 
L 185.716832 245.188794 
L 185.525522 245.1948 
L 185.779064 244.306348 
L 185.494188 243.864927 
L 185.594114 243.340357 
L 185.557893 242.975424 
L 185.790092 242.790663 
L 185.446986 242.330848 
L 185.775614 242.077637 
L 185.548126 241.484646 
L 185.570582 240.859657 
L 185.439216 240.219858 
L 185.599713 239.04697 
L 185.472181 237.735404 
L 185.763474 237.311106 
L 185.824273 236.809989 
L 186.212554 236.294897 
L 187.266407 233.852122 
L 187.308654 233.159354 
L 187.562656 232.585692 
L 187.762535 231.154285 
L 188.017307 230.303207 
L 188.83395 229.038696 
L 189.203605 228.41928 
L 189.438477 227.69871 
L 189.807445 227.145688 
L 190.350362 226.542227 
L 190.429935 225.873971 
L 190.895748 225.252248 
L 192.961891 219.65086 
L 193.699099 218.335607 
L 195.035502 216.313418 
L 195.38479 215.295922 
L 197.647335 211.408703 
L 198.226034 211.086908 
L 199.307353 209.785377 
L 199.674263 209.322719 
L 200.136336 209.156477 
L 200.520836 208.400263 
L 201.885553 207.142533 
L 203.769915 206.053544 
L 203.806913 205.970691 
L 206.354992 205.128939 
L 206.584717 205.228279 
L 207.329087 205.083019 
L 207.877927 205.142728 
L 208.329397 204.974598 
L 209.416445 205.06888 
L 210.306818 204.822048 
L 210.587621 204.569336 
L 211.021855 204.352716 
L 212.404397 203.9041 
L 215.615976 202.706625 
L 224.398304 199.603231 
L 227.035984 199.342451 
L 227.341919 199.057437 
L 228.128492 198.685477 
L 228.609799 198.243036 
L 228.973384 198.017188 
L 229.230241 198.083543 
L 230.531659 198.106173 
L 230.945633 199.05963 
L 231.24647 199.511496 
L 231.200833 199.816183 
L 231.275119 200.192479 
L 231.631717 200.433346 
L 231.441913 200.882206 
L 231.572714 201.361435 
L 231.931186 201.893843 
L 231.417741 202.043128 
L 231.740938 202.67904 
L 231.474517 202.796279 
L 231.153433 203.102251 
L 231.212495 203.810969 
L 230.833233 204.372698 
L 230.832774 204.70907 
L 230.529847 204.952207 
L 230.243558 205.491038 
L 229.809312 205.591215 
L 229.21223 205.899587 
L 228.272962 205.971019 
L 227.57678 205.762927 
L 226.900395 205.783862 
L 226.587288 205.912126 
L 224.992998 206.166981 
L 223.916345 206.813013 
L 223.395957 207.073182 
L 223.103394 207.386897 
L 222.420594 207.474517 
L 222.145978 207.725379 
L 221.755935 207.814274 
L 221.554288 208.15001 
L 221.236321 208.345974 
L 220.920417 208.812945 
L 219.51219 209.205355 
L 218.780073 209.327695 
L 217.840296 209.582198 
L 216.107221 210.238847 
L 213.888159 211.553182 
L 213.321229 212.054304 
L 212.468198 212.398185 
L 209.000634 214.761211 
L 208.413014 215.327438 
L 207.009189 216.045018 
L 206.239725 217.278459 
L 205.040415 217.635539 
L 204.471582 218.072913 
L 203.695681 219.146735 
L 202.267115 220.249816 
L 201.981478 220.639356 
L 200.65937 220.737257 
L 200.985766 220.997193 
L 200.679365 221.221217 
L 200.238287 221.367345 
L 200.449044 221.485457 
L 199.700542 221.89995 
L 199.259577 221.749862 
L 199.221573 221.581675 
L 199.280149 221.32322 
L 198.822433 220.260206 
L 198.496637 220.274239 
L 198.47757 220.338199 
L 196.17729 221.114628 
L 194.893286 221.950733 
L 194.334914 222.635801 
L 193.565899 222.95071 
L 193.565899 222.95071 
" clip-path="url(#p60db34bd13)" style="fill: none; stroke: #008000; stroke-width: 1.5; stroke-linecap: square"/>
   </g>
   <g id="line2d_25">
    <path d="M 132.106416 34.362404 
L 136.301394 22.698405 
L 132.052111 26.115686 
L 129.352308 38.33885 
L 129.26898 37.719259 
L 121.679207 44.542939 
L 113.610696 54.606227 
L 116.756699 47.277774 
L 113.293134 48.692927 
L 113.22658 51.172779 
L 109.710143 55.282745 
L 105.658746 58.303695 
L 100.987698 58.731715 
L 99.176633 62.073039 
L 90.992163 66.139741 
L 85.037293 73.199964 
L 83.466788 78.880021 
L 84.985169 87.366349 
L 81.643408 94.164057 
L 75.522997 97.811291 
L 72.787906 98.069569 
L 75.532566 102.715896 
L 81.076865 128.58519 
L 86.21152 144.567658 
L 82.276524 146.701557 
L 91.486236 157.440078 
L 105.413306 157.141528 
L 109.94331 160.728981 
L 109.846397 157.235973 
L 111.023283 152.793887 
L 112.479458 150.885875 
L 114.131548 150.087978 
L 115.720617 147.630886 
L 120.174388 147.523006 
L 121.139758 147.375647 
L 126.486981 147.328064 
L 124.419425 150.098417 
L 125.316288 144.90766 
L 128.732102 143.907775 
L 131.270054 142.386654 
L 135.528771 138.339683 
L 136.81336 135.492201 
L 137.958976 137.424166 
L 142.810729 147.119392 
L 143.380837 149.166224 
L 142.600243 145.165623 
L 141.778407 143.733654 
L 138.313338 146.760162 
L 139.768435 141.933871 
L 137.877087 145.66858 
L 142.427954 148.21201 
L 148.514675 153.095987 
L 153.820047 155.462455 
L 150.412161 171.052193 
L 146.0905 167.578875 
L 147.970103 159.170361 
L 130.209406 183.295304 
L 135.882155 204.679713 
L 123.995165 181.164798 
L 139.850718 132.343215 
L 137.256452 135.567815 
L 117.809666 149.017673 
L 133.572963 134.733343 
L 148.387348 137.270855 
L 151.233349 132.487508 
L 145.626637 132.286421 
L 145.362515 127.475548 
L 144.435957 122.105333 
L 147.981088 120.810865 
L 146.410945 120.460404 
L 144.107904 119.36609 
L 151.458813 123.182651 
L 146.791991 121.588066 
L 146.888837 121.79887 
L 145.25176 118.582249 
L 137.760425 113.075794 
L 138.533467 112.35191 
L 138.888746 111.047479 
L 137.758423 109.14077 
L 143.503021 113.779564 
L 144.990357 114.237503 
L 160.29786 129.062412 
L 163.701904 135.987018 
L 163.270933 139.886362 
L 157.720868 136.463962 
L 163.658003 140.058214 
L 163.507719 142.742098 
L 167.059087 147.657099 
L 168.388511 151.177403 
L 166.426175 153.008689 
L 168.751463 155.9908 
L 173.019138 160.92269 
L 174.317293 163.698418 
L 178.857772 166.592976 
L 185.148743 173.126195 
L 191.605646 177.671652 
L 203.187994 187.673587 
L 208.72448 191.576294 
L 211.623834 193.327761 
L 212.515174 196.992638 
L 211.27334 199.216739 
L 209.017567 195.796372 
L 207.441544 192.929869 
L 205.365585 188.533183 
L 199.945141 184.381941 
L 193.891685 178.990029 
L 191.507871 175.997464 
L 186.50563 170.538821 
L 184.134077 167.078518 
L 182.016183 165.048069 
L 177.725564 159.86268 
L 177.662896 154.421444 
L 174.757428 147.2396 
L 172.201319 142.351029 
L 176.103344 140.860761 
L 176.49764 137.544434 
L 180.543368 139.798271 
L 177.516748 134.220052 
L 181.811809 133.859294 
L 189.844136 142.103988 
L 192.923549 142.146995 
L 199.989705 152.185015 
L 191.959884 142.664605 
L 190.534313 137.795374 
L 205.055362 159.317892 
L 203.291816 164.181209 
L 206.968211 166.867325 
L 199.557525 166.776584 
L 196.946649 171.136497 
L 194.748658 173.531316 
L 192.724222 178.417714 
L 192.151388 182.592983 
L 189.234507 185.479191 
L 182.520839 185.17102 
L 187.470554 190.320999 
L 187.473766 193.248903 
L 190.122523 196.407515 
L 198.843518 204.444291 
L 200.361982 207.121608 
L 209.95634 213.376887 
L 213.759879 216.517743 
L 214.093072 215.398303 
L 216.397926 215.842981 
L 216.600108 214.883164 
L 215.243085 213.28994 
L 213.284581 211.395568 
L 211.320157 209.280201 
L 210.65169 208.015578 
L 209.174643 207.88837 
L 202.350613 202.34895 
L 194.918146 192.826288 
L 194.515291 193.436427 
L 194.380159 188.610107 
L 190.473072 183.845913 
L 189.501569 180.817796 
L 182.123681 170.585673 
L 180.237048 165.332027 
L 193.789287 170.60442 
L 195.061933 167.408639 
L 200.095897 167.735854 
L 206.221253 172.01612 
L 208.360947 175.274433 
L 216.414646 182.608661 
L 215.355557 182.763143 
L 219.369179 184.556106 
L 213.971056 184.575334 
L 212.427694 191.252956 
L 212.939918 194.29525 
L 210.85482 200.136489 
L 209.90787 206.727431 
L 209.566595 212.376333 
L 202.917408 210.369726 
L 206.572361 215.044365 
L 202.039608 218.27086 
L 196.865563 211.665378 
L 192.262972 209.088499 
L 194.23691 208.010436 
L 194.049735 206.935035 
L 191.58627 208.528049 
L 198.805369 214.960844 
L 197.579742 212.688841 
L 199.761177 213.13965 
L 195.902032 214.647479 
L 192.89905 216.45885 
L 184.631753 218.042477 
L 182.215922 214.00108 
L 177.889095 215.009945 
L 174.875857 213.104095 
L 177.167776 213.197227 
L 173.101064 223.594118 
L 174.208968 222.390589 
L 175.779329 228.159626 
L 178.988072 232.576853 
L 182.435089 241.585249 
L 181.871228 249.869118 
L 183.153559 252.356394 
L 177.460288 247.83567 
L 176.199936 251.073997 
L 175.634734 249.063057 
L 179.214179 246.344646 
L 178.287789 256.522054 
L 174.044256 253.025119 
L 179.355668 252.38355 
L 169.359056 256.167792 
L 174.382508 240.717546 
L 177.091154 234.212509 
L 188.496142 233.710222 
L 192.164544 227.074604 
L 201.564523 230.6986 
L 210.305522 230.332037 
L 220.95162 230.494302 
L 226.099742 232.464208 
L 233.444149 237.8261 
L 236.896963 244.900069 
L 237.412978 246.5697 
L 240.129943 250.200807 
L 242.430643 248.499461 
L 249.243303 249.919629 
L 253.196842 253.084752 
L 255.906233 253.047255 
L 254.443069 251.498694 
L 249.898477 249.982425 
L 243.913368 255.688396 
L 235.767323 251.968918 
L 230.596375 239.953718 
L 231.203129 241.595175 
L 226.298556 236.278674 
L 229.391212 236.918658 
L 233.294049 236.145602 
L 231.082902 237.471659 
L 225.940794 239.115097 
L 211.464346 241.723232 
L 217.562104 232.698426 
L 203.075828 233.814998 
L 199.269302 232.65527 
L 196.948471 236.207533 
L 196.692556 239.587408 
L 192.560615 250.890533 
L 194.134928 257.53135 
L 197.36256 258.02203 
L 202.555026 253.81638 
L 201.20055 261.872706 
L 207.068647 257.819986 
L 211.318682 256.448814 
L 207.633659 274.819603 
L 208.146395 273.225592 
L 205.00578 282.649354 
L 202.227994 277.496303 
L 200.284175 278.618076 
L 201.260467 277.164828 
L 202.593065 278.420305 
L 203.669268 280.012883 
L 206.021722 270.928201 
L 205.975254 269.40718 
L 201.18782 270.698344 
L 200.932829 250.651562 
L 200.174035 258.56832 
L 202.726303 242.908033 
L 207.810259 248.426321 
L 210.501727 231.901061 
L 219.39445 225.421093 
L 220.344795 224.945121 
L 235.817412 220.264688 
L 233.426836 221.779768 
L 236.693376 219.90604 
L 241.415563 220.071825 
L 245.703642 216.155701 
L 243.227571 221.628118 
L 249.104423 223.46056 
L 252.609673 219.739505 
L 262.714064 225.518422 
L 269.039063 225.863129 
L 273.771398 222.966509 
L 271.866955 224.211009 
L 272.344163 223.233561 
L 273.166118 229.850817 
L 266.753844 226.699844 
L 265.688485 223.910497 
L 264.27343 222.844457 
L 263.866298 224.99028 
L 263.222095 225.05367 
L 263.575519 228.093818 
L 258.745493 222.349644 
L 259.374627 224.948592 
L 256.824144 215.122093 
L 254.998433 206.269368 
L 244.58988 203.012533 
L 239.054976 202.754186 
L 232.430088 201.255366 
L 227.213982 205.786024 
L 216.582372 221.630048 
L 212.694719 217.506949 
L 203.102394 219.759039 
L 198.223263 214.665208 
L 199.319986 211.674573 
L 194.670608 218.40836 
L 191.9174 222.854665 
L 187.668429 229.505284 
L 191.068345 236.459275 
L 188.612271 239.737383 
L 187.006671 246.657387 
L 187.966867 246.840833 
L 184.442637 248.404153 
L 186.201358 244.303341 
L 182.373102 242.12696 
L 183.493496 236.361346 
L 186.470256 233.127734 
L 187.189663 224.358068 
L 191.468232 217.534825 
L 193.078814 212.742824 
L 198.697863 207.101952 
L 202.77999 203.324366 
L 203.00368 205.294872 
L 206.715937 208.540633 
L 208.570366 201.967945 
L 211.692705 200.032567 
L 215.487837 200.776525 
L 220.581355 203.528959 
L 224.346795 205.026661 
L 241.628668 209.635261 
L 250.494315 217.441977 
L 253.590899 217.16286 
L 258.330697 217.197289 
L 258.986706 217.35548 
L 258.562535 220.514428 
L 260.700089 216.889231 
L 253.530678 220.02611 
L 244.712485 229.470181 
L 249.400572 226.105617 
L 247.362225 224.201331 
L 244.164531 222.765247 
L 240.884233 224.063004 
L 230.857879 217.825439 
L 224.785119 222.528113 
L 222.656516 225.698427 
L 218.192036 221.463616 
L 217.497312 217.59478 
L 216.860288 216.672339 
L 216.5306 218.614566 
L 216.485203 225.408211 
L 216.485203 225.408211 
" clip-path="url(#p60db34bd13)" style="fill: none; stroke: #ff0000; stroke-width: 1.5; stroke-linecap: square"/>
   </g>
   <g id="legend_1">
    <g id="patch_6">
     <path d="M 171.891875 63.505625 
L 333.7 63.505625 
Q 337.1 63.505625 337.1 60.105625 
L 337.1 11.9 
Q 337.1 8.5 333.7 8.5 
L 171.891875 8.5 
Q 168.491875 8.5 168.491875 11.9 
L 168.491875 60.105625 
Q 168.491875 63.505625 171.891875 63.505625 
z
" style="fill: #ffffff; opacity: 0.8; stroke: #cccccc; stroke-linejoin: miter"/>
    </g>
    <g id="line2d_26">
     <path d="M 175.291875 22.267344 
L 192.291875 22.267344 
L 209.291875 22.267344 
" style="fill: none; stroke: #008000; stroke-width: 1.5; stroke-linecap: square"/>
    </g>
    <g id="text_19">
     <!-- ground truth -->
     <g transform="translate(222.891875 28.217344)scale(0.17 -0.17)">
      <defs>
       <path id="DejaVuSans-67" d="M 2906 1791 
Q 2906 2416 2648 2759 
Q 2391 3103 1925 3103 
Q 1463 3103 1205 2759 
Q 947 2416 947 1791 
Q 947 1169 1205 825 
Q 1463 481 1925 481 
Q 2391 481 2648 825 
Q 2906 1169 2906 1791 
z
M 3481 434 
Q 3481 -459 3084 -895 
Q 2688 -1331 1869 -1331 
Q 1566 -1331 1297 -1286 
Q 1028 -1241 775 -1147 
L 775 -588 
Q 1028 -725 1275 -790 
Q 1522 -856 1778 -856 
Q 2344 -856 2625 -561 
Q 2906 -266 2906 331 
L 2906 616 
Q 2728 306 2450 153 
Q 2172 0 1784 0 
Q 1141 0 747 490 
Q 353 981 353 1791 
Q 353 2603 747 3093 
Q 1141 3584 1784 3584 
Q 2172 3584 2450 3431 
Q 2728 3278 2906 2969 
L 2906 3500 
L 3481 3500 
L 3481 434 
z
" transform="scale(0.015625)"/>
       <path id="DejaVuSans-72" d="M 2631 2963 
Q 2534 3019 2420 3045 
Q 2306 3072 2169 3072 
Q 1681 3072 1420 2755 
Q 1159 2438 1159 1844 
L 1159 0 
L 581 0 
L 581 3500 
L 1159 3500 
L 1159 2956 
Q 1341 3275 1631 3429 
Q 1922 3584 2338 3584 
Q 2397 3584 2469 3576 
Q 2541 3569 2628 3553 
L 2631 2963 
z
" transform="scale(0.015625)"/>
       <path id="DejaVuSans-6f" d="M 1959 3097 
Q 1497 3097 1228 2736 
Q 959 2375 959 1747 
Q 959 1119 1226 758 
Q 1494 397 1959 397 
Q 2419 397 2687 759 
Q 2956 1122 2956 1747 
Q 2956 2369 2687 2733 
Q 2419 3097 1959 3097 
z
M 1959 3584 
Q 2709 3584 3137 3096 
Q 3566 2609 3566 1747 
Q 3566 888 3137 398 
Q 2709 -91 1959 -91 
Q 1206 -91 779 398 
Q 353 888 353 1747 
Q 353 2609 779 3096 
Q 1206 3584 1959 3584 
z
" transform="scale(0.015625)"/>
       <path id="DejaVuSans-75" d="M 544 1381 
L 544 3500 
L 1119 3500 
L 1119 1403 
Q 1119 906 1312 657 
Q 1506 409 1894 409 
Q 2359 409 2629 706 
Q 2900 1003 2900 1516 
L 2900 3500 
L 3475 3500 
L 3475 0 
L 2900 0 
L 2900 538 
Q 2691 219 2414 64 
Q 2138 -91 1772 -91 
Q 1169 -91 856 284 
Q 544 659 544 1381 
z
M 1991 3584 
L 1991 3584 
z
" transform="scale(0.015625)"/>
       <path id="DejaVuSans-6e" d="M 3513 2113 
L 3513 0 
L 2938 0 
L 2938 2094 
Q 2938 2591 2744 2837 
Q 2550 3084 2163 3084 
Q 1697 3084 1428 2787 
Q 1159 2491 1159 1978 
L 1159 0 
L 581 0 
L 581 3500 
L 1159 3500 
L 1159 2956 
Q 1366 3272 1645 3428 
Q 1925 3584 2291 3584 
Q 2894 3584 3203 3211 
Q 3513 2838 3513 2113 
z
" transform="scale(0.015625)"/>
       <path id="DejaVuSans-64" d="M 2906 2969 
L 2906 4863 
L 3481 4863 
L 3481 0 
L 2906 0 
L 2906 525 
Q 2725 213 2448 61 
Q 2172 -91 1784 -91 
Q 1150 -91 751 415 
Q 353 922 353 1747 
Q 353 2572 751 3078 
Q 1150 3584 1784 3584 
Q 2172 3584 2448 3432 
Q 2725 3281 2906 2969 
z
M 947 1747 
Q 947 1113 1208 752 
Q 1469 391 1925 391 
Q 2381 391 2643 752 
Q 2906 1113 2906 1747 
Q 2906 2381 2643 2742 
Q 2381 3103 1925 3103 
Q 1469 3103 1208 2742 
Q 947 2381 947 1747 
z
" transform="scale(0.015625)"/>
       <path id="DejaVuSans-74" d="M 1172 4494 
L 1172 3500 
L 2356 3500 
L 2356 3053 
L 1172 3053 
L 1172 1153 
Q 1172 725 1289 603 
Q 1406 481 1766 481 
L 2356 481 
L 2356 0 
L 1766 0 
Q 1100 0 847 248 
Q 594 497 594 1153 
L 594 3053 
L 172 3053 
L 172 3500 
L 594 3500 
L 594 4494 
L 1172 4494 
z
" transform="scale(0.015625)"/>
       <path id="DejaVuSans-68" d="M 3513 2113 
L 3513 0 
L 2938 0 
L 2938 2094 
Q 2938 2591 2744 2837 
Q 2550 3084 2163 3084 
Q 1697 3084 1428 2787 
Q 1159 2491 1159 1978 
L 1159 0 
L 581 0 
L 581 4863 
L 1159 4863 
L 1159 2956 
Q 1366 3272 1645 3428 
Q 1925 3584 2291 3584 
Q 2894 3584 3203 3211 
Q 3513 2838 3513 2113 
z
" transform="scale(0.015625)"/>
      </defs>
      <use xlink:href="#DejaVuSans-67"/>
      <use xlink:href="#DejaVuSans-72" x="63.476562"/>
      <use xlink:href="#DejaVuSans-6f" x="102.339844"/>
      <use xlink:href="#DejaVuSans-75" x="163.521484"/>
      <use xlink:href="#DejaVuSans-6e" x="226.900391"/>
      <use xlink:href="#DejaVuSans-64" x="290.279297"/>
      <use xlink:href="#DejaVuSans-20" x="353.755859"/>
      <use xlink:href="#DejaVuSans-74" x="385.542969"/>
      <use xlink:href="#DejaVuSans-72" x="424.751953"/>
      <use xlink:href="#DejaVuSans-75" x="465.865234"/>
      <use xlink:href="#DejaVuSans-74" x="529.244141"/>
      <use xlink:href="#DejaVuSans-68" x="568.453125"/>
     </g>
    </g>
    <g id="line2d_27">
     <path d="M 175.291875 47.220156 
L 192.291875 47.220156 
L 209.291875 47.220156 
" style="fill: none; stroke: #ff0000; stroke-width: 1.5; stroke-linecap: square"/>
    </g>
    <g id="text_20">
     <!-- estimated -->
     <g transform="translate(222.891875 53.170156)scale(0.17 -0.17)">
      <defs>
       <path id="DejaVuSans-65" d="M 3597 1894 
L 3597 1613 
L 953 1613 
Q 991 1019 1311 708 
Q 1631 397 2203 397 
Q 2534 397 2845 478 
Q 3156 559 3463 722 
L 3463 178 
Q 3153 47 2828 -22 
Q 2503 -91 2169 -91 
Q 1331 -91 842 396 
Q 353 884 353 1716 
Q 353 2575 817 3079 
Q 1281 3584 2069 3584 
Q 2775 3584 3186 3129 
Q 3597 2675 3597 1894 
z
M 3022 2063 
Q 3016 2534 2758 2815 
Q 2500 3097 2075 3097 
Q 1594 3097 1305 2825 
Q 1016 2553 972 2059 
L 3022 2063 
z
" transform="scale(0.015625)"/>
       <path id="DejaVuSans-73" d="M 2834 3397 
L 2834 2853 
Q 2591 2978 2328 3040 
Q 2066 3103 1784 3103 
Q 1356 3103 1142 2972 
Q 928 2841 928 2578 
Q 928 2378 1081 2264 
Q 1234 2150 1697 2047 
L 1894 2003 
Q 2506 1872 2764 1633 
Q 3022 1394 3022 966 
Q 3022 478 2636 193 
Q 2250 -91 1575 -91 
Q 1294 -91 989 -36 
Q 684 19 347 128 
L 347 722 
Q 666 556 975 473 
Q 1284 391 1588 391 
Q 1994 391 2212 530 
Q 2431 669 2431 922 
Q 2431 1156 2273 1281 
Q 2116 1406 1581 1522 
L 1381 1569 
Q 847 1681 609 1914 
Q 372 2147 372 2553 
Q 372 3047 722 3315 
Q 1072 3584 1716 3584 
Q 2034 3584 2315 3537 
Q 2597 3491 2834 3397 
z
" transform="scale(0.015625)"/>
       <path id="DejaVuSans-69" d="M 603 3500 
L 1178 3500 
L 1178 0 
L 603 0 
L 603 3500 
z
M 603 4863 
L 1178 4863 
L 1178 4134 
L 603 4134 
L 603 4863 
z
" transform="scale(0.015625)"/>
       <path id="DejaVuSans-61" d="M 2194 1759 
Q 1497 1759 1228 1600 
Q 959 1441 959 1056 
Q 959 750 1161 570 
Q 1363 391 1709 391 
Q 2188 391 2477 730 
Q 2766 1069 2766 1631 
L 2766 1759 
L 2194 1759 
z
M 3341 1997 
L 3341 0 
L 2766 0 
L 2766 531 
Q 2569 213 2275 61 
Q 1981 -91 1556 -91 
Q 1019 -91 701 211 
Q 384 513 384 1019 
Q 384 1609 779 1909 
Q 1175 2209 1959 2209 
L 2766 2209 
L 2766 2266 
Q 2766 2663 2505 2880 
Q 2244 3097 1772 3097 
Q 1472 3097 1187 3025 
Q 903 2953 641 2809 
L 641 3341 
Q 956 3463 1253 3523 
Q 1550 3584 1831 3584 
Q 2591 3584 2966 3190 
Q 3341 2797 3341 1997 
z
" transform="scale(0.015625)"/>
      </defs>
      <use xlink:href="#DejaVuSans-65"/>
      <use xlink:href="#DejaVuSans-73" x="61.523438"/>
      <use xlink:href="#DejaVuSans-74" x="113.623047"/>
      <use xlink:href="#DejaVuSans-69" x="152.832031"/>
      <use xlink:href="#DejaVuSans-6d" x="180.615234"/>
      <use xlink:href="#DejaVuSans-61" x="278.027344"/>
      <use xlink:href="#DejaVuSans-74" x="339.306641"/>
      <use xlink:href="#DejaVuSans-65" x="378.515625"/>
      <use xlink:href="#DejaVuSans-64" x="440.039062"/>
     </g>
    </g>
   </g>
  </g>
 </g>
 <defs>
  <clipPath id="p60db34bd13">
   <rect x="0" y="0" width="345.6" height="345.6"/>
  </clipPath>
 </defs>
</svg>
