<?xml version="1.0" encoding="utf-8" standalone="no"?>
<!DOCTYPE svg PUBLIC "-//W3C//DTD SVG 1.1//EN"
  "http://www.w3.org/Graphics/SVG/1.1/DTD/svg11.dtd">
<svg xmlns:xlink="http://www.w3.org/1999/xlink" width="353.239902pt" height="352.606618pt" viewBox="0 0 353.239902 352.606618" xmlns="http://www.w3.org/2000/svg" version="1.1">
 <metadata>
  <rdf:RDF xmlns:dc="http://purl.org/dc/elements/1.1/" xmlns:cc="http://creativecommons.org/ns#" xmlns:rdf="http://www.w3.org/1999/02/22-rdf-syntax-ns#">
   <cc:Work>
    <dc:type rdf:resource="http://purl.org/dc/dcmitype/StillImage"/>
    <dc:date>2022-02-09T21:16:05.665454</dc:date>
    <dc:format>image/svg+xml</dc:format>
    <dc:creator>
     <cc:Agent>
      <dc:title>Matplotlib v3.5.1, https://matplotlib.org/</dc:title>
     </cc:Agent>
    </dc:creator>
   </cc:Work>
  </rdf:RDF>
 </metadata>
 <defs>
  <style type="text/css">*{stroke-linejoin: round; stroke-linecap: butt}</style>
 </defs>
 <g id="figure_1">
  <g id="patch_1">
   <path d="M 0 352.606618 
L 353.239902 352.606618 
L 353.239902 0 
L 0 0 
z
" style="fill: #ffffff"/>
  </g>
  <g id="patch_2">
   <path d="M 0 345.6 
L 345.6 345.6 
L 345.6 0 
L 0 0 
z
" style="fill: #ffffff"/>
  </g>
  <g id="pane3d_1">
   <g id="patch_3">
    <path d="M 43.64011 276.021761 
L 104.335521 97.213163 
L 98.66794 8.134987 
L 32.634775 196.200845 
" style="fill: #f2f2f2; opacity: 0.5; stroke: #f2f2f2; stroke-linejoin: miter"/>
   </g>
  </g>
  <g id="pane3d_2">
   <g id="patch_4">
    <path d="M 104.335521 97.213163 
L 305.984932 143.221817 
L 316.100364 56.368059 
L 98.66794 8.134987 
" style="fill: #e6e6e6; opacity: 0.5; stroke: #e6e6e6; stroke-linejoin: miter"/>
   </g>
  </g>
  <g id="pane3d_3">
   <g id="patch_5">
    <path d="M 43.64011 276.021761 
L 255.924889 327.418502 
L 305.984932 143.221817 
L 104.335521 97.213163 
" style="fill: #ececec; opacity: 0.5; stroke: #ececec; stroke-linejoin: miter"/>
   </g>
  </g>
  <g id="axis3d_1">
   <g id="line2d_1">
    <path d="M 43.64011 276.021761 
L 255.924889 327.418502 
" style="fill: none; stroke: #000000; stroke-width: 0.8; stroke-linecap: square"/>
   </g>
   <g id="text_1">
    <!-- x [m] -->
    <g transform="translate(127.560419 337.662032)rotate(-346.389891)scale(0.1 -0.1)">
     <defs>
      <path id="DejaVuSans-78" d="M 3513 3500 
L 2247 1797 
L 3578 0 
L 2900 0 
L 1881 1375 
L 863 0 
L 184 0 
L 1544 1831 
L 300 3500 
L 978 3500 
L 1906 2253 
L 2834 3500 
L 3513 3500 
z
" transform="scale(0.015625)"/>
      <path id="DejaVuSans-20" transform="scale(0.015625)"/>
      <path id="DejaVuSans-5b" d="M 550 4863 
L 1875 4863 
L 1875 4416 
L 1125 4416 
L 1125 -397 
L 1875 -397 
L 1875 -844 
L 550 -844 
L 550 4863 
z
" transform="scale(0.015625)"/>
      <path id="DejaVuSans-6d" d="M 3328 2828 
Q 3544 3216 3844 3400 
Q 4144 3584 4550 3584 
Q 5097 3584 5394 3201 
Q 5691 2819 5691 2113 
L 5691 0 
L 5113 0 
L 5113 2094 
Q 5113 2597 4934 2840 
Q 4756 3084 4391 3084 
Q 3944 3084 3684 2787 
Q 3425 2491 3425 1978 
L 3425 0 
L 2847 0 
L 2847 2094 
Q 2847 2600 2669 2842 
Q 2491 3084 2119 3084 
Q 1678 3084 1418 2786 
Q 1159 2488 1159 1978 
L 1159 0 
L 581 0 
L 581 3500 
L 1159 3500 
L 1159 2956 
Q 1356 3278 1631 3431 
Q 1906 3584 2284 3584 
Q 2666 3584 2933 3390 
Q 3200 3197 3328 2828 
z
" transform="scale(0.015625)"/>
      <path id="DejaVuSans-5d" d="M 1947 4863 
L 1947 -844 
L 622 -844 
L 622 -397 
L 1369 -397 
L 1369 4416 
L 622 4416 
L 622 4863 
L 1947 4863 
z
" transform="scale(0.015625)"/>
     </defs>
     <use xlink:href="#DejaVuSans-78"/>
     <use xlink:href="#DejaVuSans-20" x="59.179688"/>
     <use xlink:href="#DejaVuSans-5b" x="90.966797"/>
     <use xlink:href="#DejaVuSans-6d" x="129.980469"/>
     <use xlink:href="#DejaVuSans-5d" x="227.392578"/>
    </g>
   </g>
   <g id="Line3DCollection_1">
    <path d="M 59.570891 279.878798 
L 119.479683 100.66848 
L 114.980413 11.753586 
" style="fill: none; stroke: #b0b0b0; stroke-width: 0.8"/>
    <path d="M 97.239011 288.99871 
L 155.280422 108.836834 
L 153.554012 20.310374 
" style="fill: none; stroke: #b0b0b0; stroke-width: 0.8"/>
    <path d="M 135.112943 298.168452 
L 191.266244 117.047417 
L 192.342587 28.91485 
" style="fill: none; stroke: #b0b0b0; stroke-width: 0.8"/>
    <path d="M 173.194378 307.388434 
L 227.438587 125.300557 
L 231.34794 37.567414 
" style="fill: none; stroke: #b0b0b0; stroke-width: 0.8"/>
    <path d="M 211.485027 316.659068 
L 263.798906 133.596586 
L 270.571894 46.26847 
" style="fill: none; stroke: #b0b0b0; stroke-width: 0.8"/>
    <path d="M 249.986618 325.980774 
L 300.348669 141.935838 
L 310.016291 55.018428 
" style="fill: none; stroke: #b0b0b0; stroke-width: 0.8"/>
   </g>
   <g id="xtick_1">
    <g id="line2d_2">
     <path d="M 60.077043 278.364704 
L 58.557213 282.911101 
" style="fill: none; stroke: #000000; stroke-width: 0.8; stroke-linecap: square"/>
    </g>
    <g id="text_2">
     <!-- −1.0 -->
     <g transform="translate(43.96281 304.252385)scale(0.1 -0.1)">
      <defs>
       <path id="DejaVuSans-2212" d="M 678 2272 
L 4684 2272 
L 4684 1741 
L 678 1741 
L 678 2272 
z
" transform="scale(0.015625)"/>
       <path id="DejaVuSans-31" d="M 794 531 
L 1825 531 
L 1825 4091 
L 703 3866 
L 703 4441 
L 1819 4666 
L 2450 4666 
L 2450 531 
L 3481 531 
L 3481 0 
L 794 0 
L 794 531 
z
" transform="scale(0.015625)"/>
       <path id="DejaVuSans-2e" d="M 684 794 
L 1344 794 
L 1344 0 
L 684 0 
L 684 794 
z
" transform="scale(0.015625)"/>
       <path id="DejaVuSans-30" d="M 2034 4250 
Q 1547 4250 1301 3770 
Q 1056 3291 1056 2328 
Q 1056 1369 1301 889 
Q 1547 409 2034 409 
Q 2525 409 2770 889 
Q 3016 1369 3016 2328 
Q 3016 3291 2770 3770 
Q 2525 4250 2034 4250 
z
M 2034 4750 
Q 2819 4750 3233 4129 
Q 3647 3509 3647 2328 
Q 3647 1150 3233 529 
Q 2819 -91 2034 -91 
Q 1250 -91 836 529 
Q 422 1150 422 2328 
Q 422 3509 836 4129 
Q 1250 4750 2034 4750 
z
" transform="scale(0.015625)"/>
      </defs>
      <use xlink:href="#DejaVuSans-2212"/>
      <use xlink:href="#DejaVuSans-31" x="83.789062"/>
      <use xlink:href="#DejaVuSans-2e" x="147.412109"/>
      <use xlink:href="#DejaVuSans-30" x="179.199219"/>
     </g>
    </g>
   </g>
   <g id="xtick_2">
    <g id="line2d_3">
     <path d="M 97.729456 287.476356 
L 96.256784 292.047566 
" style="fill: none; stroke: #000000; stroke-width: 0.8; stroke-linecap: square"/>
    </g>
    <g id="text_3">
     <!-- −0.5 -->
     <g transform="translate(81.574481 313.406561)scale(0.1 -0.1)">
      <defs>
       <path id="DejaVuSans-35" d="M 691 4666 
L 3169 4666 
L 3169 4134 
L 1269 4134 
L 1269 2991 
Q 1406 3038 1543 3061 
Q 1681 3084 1819 3084 
Q 2600 3084 3056 2656 
Q 3513 2228 3513 1497 
Q 3513 744 3044 326 
Q 2575 -91 1722 -91 
Q 1428 -91 1123 -41 
Q 819 9 494 109 
L 494 744 
Q 775 591 1075 516 
Q 1375 441 1709 441 
Q 2250 441 2565 725 
Q 2881 1009 2881 1497 
Q 2881 1984 2565 2268 
Q 2250 2553 1709 2553 
Q 1456 2553 1204 2497 
Q 953 2441 691 2322 
L 691 4666 
z
" transform="scale(0.015625)"/>
      </defs>
      <use xlink:href="#DejaVuSans-2212"/>
      <use xlink:href="#DejaVuSans-30" x="83.789062"/>
      <use xlink:href="#DejaVuSans-2e" x="147.412109"/>
      <use xlink:href="#DejaVuSans-35" x="179.199219"/>
     </g>
    </g>
   </g>
   <g id="xtick_3">
    <g id="line2d_4">
     <path d="M 135.587503 296.637771 
L 134.162526 301.233997 
" style="fill: none; stroke: #000000; stroke-width: 0.8; stroke-linecap: square"/>
    </g>
    <g id="text_4">
     <!-- 0.0 -->
     <g transform="translate(123.581243 322.610692)scale(0.1 -0.1)">
      <use xlink:href="#DejaVuSans-30"/>
      <use xlink:href="#DejaVuSans-2e" x="63.623047"/>
      <use xlink:href="#DejaVuSans-30" x="95.410156"/>
     </g>
    </g>
   </g>
   <g id="xtick_4">
    <g id="line2d_5">
     <path d="M 173.652871 305.849357 
L 172.276136 310.470805 
" style="fill: none; stroke: #000000; stroke-width: 0.8; stroke-linecap: square"/>
    </g>
    <g id="text_5">
     <!-- 0.5 -->
     <g transform="translate(161.605092 331.865186)scale(0.1 -0.1)">
      <use xlink:href="#DejaVuSans-30"/>
      <use xlink:href="#DejaVuSans-2e" x="63.623047"/>
      <use xlink:href="#DejaVuSans-35" x="95.410156"/>
     </g>
    </g>
   </g>
   <g id="xtick_5">
    <g id="line2d_6">
     <path d="M 211.927269 315.111526 
L 210.599328 319.758404 
" style="fill: none; stroke: #000000; stroke-width: 0.8; stroke-linecap: square"/>
    </g>
    <g id="text_6">
     <!-- 1.0 -->
     <g transform="translate(199.837576 341.170459)scale(0.1 -0.1)">
      <use xlink:href="#DejaVuSans-31"/>
      <use xlink:href="#DejaVuSans-2e" x="63.623047"/>
      <use xlink:href="#DejaVuSans-30" x="95.410156"/>
     </g>
    </g>
   </g>
   <g id="xtick_6">
    <g id="line2d_7">
     <path d="M 250.412423 324.424697 
L 249.133835 329.097216 
" style="fill: none; stroke: #000000; stroke-width: 0.8; stroke-linecap: square"/>
    </g>
    <g id="text_7">
     <!-- 1.5 -->
     <g transform="translate(238.280416 350.52693)scale(0.1 -0.1)">
      <use xlink:href="#DejaVuSans-31"/>
      <use xlink:href="#DejaVuSans-2e" x="63.623047"/>
      <use xlink:href="#DejaVuSans-35" x="95.410156"/>
     </g>
    </g>
   </g>
  </g>
  <g id="axis3d_2">
   <g id="line2d_8">
    <path d="M 305.984932 143.221817 
L 255.924889 327.418502 
" style="fill: none; stroke: #000000; stroke-width: 0.8; stroke-linecap: square"/>
   </g>
   <g id="text_8">
    <!-- y [m] -->
    <g transform="translate(308.660599 263.59734)rotate(-74.795681)scale(0.1 -0.1)">
     <defs>
      <path id="DejaVuSans-79" d="M 2059 -325 
Q 1816 -950 1584 -1140 
Q 1353 -1331 966 -1331 
L 506 -1331 
L 506 -850 
L 844 -850 
Q 1081 -850 1212 -737 
Q 1344 -625 1503 -206 
L 1606 56 
L 191 3500 
L 800 3500 
L 1894 763 
L 2988 3500 
L 3597 3500 
L 2059 -325 
z
" transform="scale(0.015625)"/>
     </defs>
     <use xlink:href="#DejaVuSans-79"/>
     <use xlink:href="#DejaVuSans-20" x="59.179688"/>
     <use xlink:href="#DejaVuSans-5b" x="90.966797"/>
     <use xlink:href="#DejaVuSans-6d" x="129.980469"/>
     <use xlink:href="#DejaVuSans-5d" x="227.392578"/>
    </g>
   </g>
   <g id="Line3DCollection_2">
    <path d="M 46.761442 155.967368 
L 56.580123 237.900499 
L 266.604387 288.123127 
" style="fill: none; stroke: #b0b0b0; stroke-width: 0.8"/>
    <path d="M 60.838394 115.875484 
L 69.498756 199.842223 
L 277.262508 248.906411 
" style="fill: none; stroke: #b0b0b0; stroke-width: 0.8"/>
    <path d="M 74.569486 76.768625 
L 82.123289 162.650367 
L 287.674388 210.595741 
" style="fill: none; stroke: #b0b0b0; stroke-width: 0.8"/>
    <path d="M 87.96731 38.610931 
L 94.463651 126.295677 
L 297.848464 173.160074 
" style="fill: none; stroke: #b0b0b0; stroke-width: 0.8"/>
   </g>
   <g id="xtick_7">
    <g id="line2d_9">
     <path d="M 264.898871 287.71529 
L 270.016663 288.939096 
" style="fill: none; stroke: #000000; stroke-width: 0.8; stroke-linecap: square"/>
    </g>
    <g id="text_9">
     <!-- −1.0 -->
     <g transform="translate(267.599546 303.618441)scale(0.1 -0.1)">
      <use xlink:href="#DejaVuSans-2212"/>
      <use xlink:href="#DejaVuSans-31" x="83.789062"/>
      <use xlink:href="#DejaVuSans-2e" x="147.412109"/>
      <use xlink:href="#DejaVuSans-30" x="179.199219"/>
     </g>
    </g>
   </g>
   <g id="xtick_8">
    <g id="line2d_10">
     <path d="M 275.575641 248.508052 
L 280.637456 249.703418 
" style="fill: none; stroke: #000000; stroke-width: 0.8; stroke-linecap: square"/>
    </g>
    <g id="text_10">
     <!-- −0.5 -->
     <g transform="translate(278.063793 264.460424)scale(0.1 -0.1)">
      <use xlink:href="#DejaVuSans-2212"/>
      <use xlink:href="#DejaVuSans-30" x="83.789062"/>
      <use xlink:href="#DejaVuSans-2e" x="147.412109"/>
      <use xlink:href="#DejaVuSans-35" x="179.199219"/>
     </g>
    </g>
   </g>
   <g id="xtick_9">
    <g id="line2d_11">
     <path d="M 286.005769 210.206531 
L 291.012814 211.374438 
" style="fill: none; stroke: #000000; stroke-width: 0.8; stroke-linecap: square"/>
    </g>
    <g id="text_11">
     <!-- 0.0 -->
     <g transform="translate(292.477042 226.203661)scale(0.1 -0.1)">
      <use xlink:href="#DejaVuSans-30"/>
      <use xlink:href="#DejaVuSans-2e" x="63.623047"/>
      <use xlink:href="#DejaVuSans-30" x="95.410156"/>
     </g>
    </g>
   </g>
   <g id="xtick_10">
    <g id="line2d_12">
     <path d="M 296.197704 172.779702 
L 301.151146 173.921085 
" style="fill: none; stroke: #000000; stroke-width: 0.8; stroke-linecap: square"/>
    </g>
    <g id="text_12">
     <!-- 0.5 -->
     <g transform="translate(302.467824 188.81739)scale(0.1 -0.1)">
      <use xlink:href="#DejaVuSans-30"/>
      <use xlink:href="#DejaVuSans-2e" x="63.623047"/>
      <use xlink:href="#DejaVuSans-35" x="95.410156"/>
     </g>
    </g>
   </g>
  </g>
  <g id="axis3d_3">
   <g id="line2d_13">
    <path d="M 305.984932 143.221817 
L 316.100364 56.368059 
" style="fill: none; stroke: #000000; stroke-width: 0.8; stroke-linecap: square"/>
   </g>
   <g id="text_13">
    <!-- z [m] -->
    <g transform="translate(348.169849 96.616472)rotate(-83.356969)scale(0.1 -0.1)">
     <defs>
      <path id="DejaVuSans-7a" d="M 353 3500 
L 3084 3500 
L 3084 2975 
L 922 459 
L 3084 459 
L 3084 0 
L 275 0 
L 275 525 
L 2438 3041 
L 353 3041 
L 353 3500 
z
" transform="scale(0.015625)"/>
     </defs>
     <use xlink:href="#DejaVuSans-7a"/>
     <use xlink:href="#DejaVuSans-20" x="52.490234"/>
     <use xlink:href="#DejaVuSans-5b" x="84.277344"/>
     <use xlink:href="#DejaVuSans-6d" x="123.291016"/>
     <use xlink:href="#DejaVuSans-5d" x="220.703125"/>
    </g>
   </g>
   <g id="Line3DCollection_3">
    <path d="M 306.958765 134.860226 
L 103.789335 88.628683 
L 42.583722 268.359852 
" style="fill: none; stroke: #b0b0b0; stroke-width: 0.8"/>
    <path d="M 308.1382 124.733288 
L 103.127994 78.234293 
L 41.303415 259.073882 
" style="fill: none; stroke: #b0b0b0; stroke-width: 0.8"/>
    <path d="M 309.339318 114.420174 
L 102.454673 67.651619 
L 39.998572 249.609943 
" style="fill: none; stroke: #b0b0b0; stroke-width: 0.8"/>
    <path d="M 310.562723 103.915702 
L 101.769045 56.875497 
L 38.668478 239.962869 
" style="fill: none; stroke: #b0b0b0; stroke-width: 0.8"/>
    <path d="M 311.80904 93.214495 
L 101.070768 45.900575 
L 37.312395 230.127293 
" style="fill: none; stroke: #b0b0b0; stroke-width: 0.8"/>
    <path d="M 313.07892 82.310975 
L 100.359488 34.7213 
L 35.929553 220.097635 
" style="fill: none; stroke: #b0b0b0; stroke-width: 0.8"/>
    <path d="M 314.373036 71.199351 
L 99.634841 23.331911 
L 34.519151 209.868094 
" style="fill: none; stroke: #b0b0b0; stroke-width: 0.8"/>
    <path d="M 315.69209 59.873606 
L 98.896444 11.726428 
L 33.080359 199.432633 
" style="fill: none; stroke: #b0b0b0; stroke-width: 0.8"/>
   </g>
   <g id="xtick_11">
    <g id="line2d_14">
     <path d="M 305.309795 134.485 
L 310.257866 135.610942 
" style="fill: none; stroke: #000000; stroke-width: 0.8; stroke-linecap: square"/>
    </g>
    <g id="text_14">
     <!-- 1.0 -->
     <g transform="translate(315.180529 134.291732)scale(0.1 -0.1)">
      <use xlink:href="#DejaVuSans-31"/>
      <use xlink:href="#DejaVuSans-2e" x="63.623047"/>
      <use xlink:href="#DejaVuSans-30" x="95.410156"/>
     </g>
    </g>
   </g>
   <g id="xtick_12">
    <g id="line2d_15">
     <path d="M 306.474073 124.355843 
L 311.467637 125.488448 
" style="fill: none; stroke: #000000; stroke-width: 0.8; stroke-linecap: square"/>
    </g>
    <g id="text_15">
     <!-- 1.2 -->
     <g transform="translate(316.503863 124.116658)scale(0.1 -0.1)">
      <defs>
       <path id="DejaVuSans-32" d="M 1228 531 
L 3431 531 
L 3431 0 
L 469 0 
L 469 531 
Q 828 903 1448 1529 
Q 2069 2156 2228 2338 
Q 2531 2678 2651 2914 
Q 2772 3150 2772 3378 
Q 2772 3750 2511 3984 
Q 2250 4219 1831 4219 
Q 1534 4219 1204 4116 
Q 875 4013 500 3803 
L 500 4441 
Q 881 4594 1212 4672 
Q 1544 4750 1819 4750 
Q 2544 4750 2975 4387 
Q 3406 4025 3406 3419 
Q 3406 3131 3298 2873 
Q 3191 2616 2906 2266 
Q 2828 2175 2409 1742 
Q 1991 1309 1228 531 
z
" transform="scale(0.015625)"/>
      </defs>
      <use xlink:href="#DejaVuSans-31"/>
      <use xlink:href="#DejaVuSans-2e" x="63.623047"/>
      <use xlink:href="#DejaVuSans-32" x="95.410156"/>
     </g>
    </g>
   </g>
   <g id="xtick_13">
    <g id="line2d_16">
     <path d="M 307.659752 114.04049 
L 312.699653 115.179815 
" style="fill: none; stroke: #000000; stroke-width: 0.8; stroke-linecap: square"/>
    </g>
    <g id="text_16">
     <!-- 1.4 -->
     <g transform="translate(317.851463 113.75501)scale(0.1 -0.1)">
      <defs>
       <path id="DejaVuSans-34" d="M 2419 4116 
L 825 1625 
L 2419 1625 
L 2419 4116 
z
M 2253 4666 
L 3047 4666 
L 3047 1625 
L 3713 1625 
L 3713 1100 
L 3047 1100 
L 3047 0 
L 2419 0 
L 2419 1100 
L 313 1100 
L 313 1709 
L 2253 4666 
z
" transform="scale(0.015625)"/>
      </defs>
      <use xlink:href="#DejaVuSans-31"/>
      <use xlink:href="#DejaVuSans-2e" x="63.623047"/>
      <use xlink:href="#DejaVuSans-34" x="95.410156"/>
     </g>
    </g>
   </g>
   <g id="xtick_14">
    <g id="line2d_17">
     <path d="M 308.867429 103.53376 
L 313.954535 104.679861 
" style="fill: none; stroke: #000000; stroke-width: 0.8; stroke-linecap: square"/>
    </g>
    <g id="text_17">
     <!-- 1.6 -->
     <g transform="translate(319.224001 103.201606)scale(0.1 -0.1)">
      <defs>
       <path id="DejaVuSans-36" d="M 2113 2584 
Q 1688 2584 1439 2293 
Q 1191 2003 1191 1497 
Q 1191 994 1439 701 
Q 1688 409 2113 409 
Q 2538 409 2786 701 
Q 3034 994 3034 1497 
Q 3034 2003 2786 2293 
Q 2538 2584 2113 2584 
z
M 3366 4563 
L 3366 3988 
Q 3128 4100 2886 4159 
Q 2644 4219 2406 4219 
Q 1781 4219 1451 3797 
Q 1122 3375 1075 2522 
Q 1259 2794 1537 2939 
Q 1816 3084 2150 3084 
Q 2853 3084 3261 2657 
Q 3669 2231 3669 1497 
Q 3669 778 3244 343 
Q 2819 -91 2113 -91 
Q 1303 -91 875 529 
Q 447 1150 447 2328 
Q 447 3434 972 4092 
Q 1497 4750 2381 4750 
Q 2619 4750 2861 4703 
Q 3103 4656 3366 4563 
z
" transform="scale(0.015625)"/>
      </defs>
      <use xlink:href="#DejaVuSans-31"/>
      <use xlink:href="#DejaVuSans-2e" x="63.623047"/>
      <use xlink:href="#DejaVuSans-36" x="95.410156"/>
     </g>
    </g>
   </g>
   <g id="xtick_15">
    <g id="line2d_18">
     <path d="M 310.097722 92.830278 
L 315.232925 93.983209 
" style="fill: none; stroke: #000000; stroke-width: 0.8; stroke-linecap: square"/>
    </g>
    <g id="text_18">
     <!-- 1.8 -->
     <g transform="translate(320.622177 92.451075)scale(0.1 -0.1)">
      <defs>
       <path id="DejaVuSans-38" d="M 2034 2216 
Q 1584 2216 1326 1975 
Q 1069 1734 1069 1313 
Q 1069 891 1326 650 
Q 1584 409 2034 409 
Q 2484 409 2743 651 
Q 3003 894 3003 1313 
Q 3003 1734 2745 1975 
Q 2488 2216 2034 2216 
z
M 1403 2484 
Q 997 2584 770 2862 
Q 544 3141 544 3541 
Q 544 4100 942 4425 
Q 1341 4750 2034 4750 
Q 2731 4750 3128 4425 
Q 3525 4100 3525 3541 
Q 3525 3141 3298 2862 
Q 3072 2584 2669 2484 
Q 3125 2378 3379 2068 
Q 3634 1759 3634 1313 
Q 3634 634 3220 271 
Q 2806 -91 2034 -91 
Q 1263 -91 848 271 
Q 434 634 434 1313 
Q 434 1759 690 2068 
Q 947 2378 1403 2484 
z
M 1172 3481 
Q 1172 3119 1398 2916 
Q 1625 2713 2034 2713 
Q 2441 2713 2670 2916 
Q 2900 3119 2900 3481 
Q 2900 3844 2670 4047 
Q 2441 4250 2034 4250 
Q 1625 4250 1398 4047 
Q 1172 3844 1172 3481 
z
" transform="scale(0.015625)"/>
      </defs>
      <use xlink:href="#DejaVuSans-31"/>
      <use xlink:href="#DejaVuSans-2e" x="63.623047"/>
      <use xlink:href="#DejaVuSans-38" x="95.410156"/>
     </g>
    </g>
   </g>
   <g id="xtick_16">
    <g id="line2d_19">
     <path d="M 311.351271 81.924465 
L 316.53549 83.084281 
" style="fill: none; stroke: #000000; stroke-width: 0.8; stroke-linecap: square"/>
    </g>
    <g id="text_19">
     <!-- 2.0 -->
     <g transform="translate(322.046716 81.497841)scale(0.1 -0.1)">
      <use xlink:href="#DejaVuSans-32"/>
      <use xlink:href="#DejaVuSans-2e" x="63.623047"/>
      <use xlink:href="#DejaVuSans-30" x="95.410156"/>
     </g>
    </g>
   </g>
   <g id="xtick_17">
    <g id="line2d_20">
     <path d="M 312.628742 70.810529 
L 317.862922 71.977284 
" style="fill: none; stroke: #000000; stroke-width: 0.8; stroke-linecap: square"/>
    </g>
    <g id="text_20">
     <!-- 2.2 -->
     <g transform="translate(323.49837 70.336116)scale(0.1 -0.1)">
      <use xlink:href="#DejaVuSans-32"/>
      <use xlink:href="#DejaVuSans-2e" x="63.623047"/>
      <use xlink:href="#DejaVuSans-32" x="95.410156"/>
     </g>
    </g>
   </g>
   <g id="xtick_18">
    <g id="line2d_21">
     <path d="M 313.930827 59.482455 
L 319.215939 60.656202 
" style="fill: none; stroke: #000000; stroke-width: 0.8; stroke-linecap: square"/>
    </g>
    <g id="text_21">
     <!-- 2.4 -->
     <g transform="translate(324.977922 58.959892)scale(0.1 -0.1)">
      <use xlink:href="#DejaVuSans-32"/>
      <use xlink:href="#DejaVuSans-2e" x="63.623047"/>
      <use xlink:href="#DejaVuSans-34" x="95.410156"/>
     </g>
    </g>
   </g>
  </g>
  <g id="axes_1">
   <g id="line2d_22">
    <path d="M 154.797938 176.176638 
L 145.338067 169.206909 
L 143.210993 167.594447 
L 139.734727 165.150896 
L 137.105045 162.640458 
L 133.159865 158.019582 
L 131.566379 155.452683 
L 130.906718 153.812096 
L 129.165203 145.098865 
L 128.304589 142.046996 
L 127.280163 138.965761 
L 125.780213 134.98855 
L 122.713809 127.973369 
L 120.588966 123.591895 
L 117.482752 117.606774 
L 116.019305 115.347601 
L 114.348434 113.21181 
L 111.959307 109.741959 
L 111.699499 109.033035 
L 111.599743 108.463785 
L 111.587433 107.540655 
L 111.708308 106.714742 
L 112.168898 104.718598 
L 112.708053 102.708277 
L 113.598678 100.130987 
L 114.589035 98.130635 
L 117.962149 91.630674 
L 118.866289 89.325489 
L 119.963791 86.504389 
L 121.245766 83.586728 
L 121.516233 82.580449 
L 121.598415 81.081219 
L 121.533237 79.834457 
L 121.503962 79.052104 
L 121.476205 77.540006 
L 121.652983 75.072917 
L 121.815075 73.689177 
L 121.937221 72.505811 
L 122.018414 71.566051 
L 121.966183 70.594252 
L 121.921103 70.204319 
L 121.948569 69.86947 
L 121.955406 69.874605 
L 122.069585 69.762225 
L 123.146932 70.080768 
L 124.342134 70.435925 
L 125.988249 70.928232 
L 126.300973 71.015941 
L 127.737376 71.759403 
L 128.792778 72.38551 
L 129.413152 72.992607 
L 129.803608 73.735125 
L 130.294433 75.04562 
L 130.343336 75.822819 
L 130.153925 77.588956 
L 129.216738 81.629062 
L 128.893554 82.652382 
L 128.342476 84.29973 
L 127.743558 86.174575 
L 127.140269 88.224453 
L 126.329178 91.258178 
L 124.297613 100.978992 
L 123.450861 105.369678 
L 120.663665 116.694219 
L 120.059468 119.738126 
L 119.612779 122.650338 
L 119.142498 127.562223 
L 118.878692 132.237401 
L 118.82034 137.680979 
L 118.973926 141.751688 
L 119.336901 144.41671 
L 120.04473 147.45805 
L 120.846593 149.95412 
L 124.448244 158.136172 
L 127.137711 162.69583 
L 130.350661 167.397626 
L 133.646528 171.316587 
L 135.30943 173.300633 
L 141.028514 180.094621 
L 141.58328 180.531729 
L 143.413752 182.092386 
L 144.656002 182.907846 
L 146.103124 183.586294 
L 147.976015 184.344917 
L 151.332631 185.117588 
L 152.664361 185.242435 
L 158.63028 185.091763 
L 160.771099 184.798302 
L 162.470089 184.429909 
L 165.723144 183.531117 
L 172.169841 182.066237 
L 173.559072 181.970515 
L 175.0415 182.064576 
L 176.639067 182.35889 
L 178.977196 183.12654 
L 182.58173 184.772148 
L 188.604308 188.207119 
L 191.296352 189.76943 
L 194.076965 191.218651 
L 196.922437 192.497813 
L 198.383705 193.15621 
L 200.328151 193.883729 
L 204.27753 195.062514 
L 207.582096 195.927951 
L 210.665312 196.500678 
L 215.597411 196.972494 
L 218.493229 197.046377 
L 220.860317 196.935505 
L 224.292665 196.558834 
L 227.599104 195.971439 
L 234.787183 194.097915 
L 237.125116 193.356003 
L 240.174751 192.201461 
L 251.962319 187.381489 
L 257.015794 185.957966 
L 263.799621 184.171561 
L 266.074314 183.277038 
L 267.844881 182.384581 
L 269.962623 181.060944 
L 271.520895 179.82913 
L 272.640224 178.874117 
L 274.209337 177.201937 
L 275.265636 175.7911 
L 275.89346 174.69414 
L 276.56633 173.172353 
L 277.534126 170.434461 
L 277.838736 169.292577 
L 278.210066 167.513568 
L 278.580397 162.989411 
L 278.491677 160.546961 
L 278.183189 157.47515 
L 278.030163 156.47423 
L 277.546016 153.284848 
L 276.760647 147.117122 
L 276.821835 145.627238 
L 277.211031 142.630363 
L 279.272603 134.242107 
L 280.347625 130.530091 
L 281.815485 126.948986 
L 284.271126 122.214426 
L 288.236038 116.231957 
L 289.225419 113.087169 
L 289.225419 113.087169 
" clip-path="url(#p12b9ee3858)" style="fill: none; stroke: #008000; stroke-width: 1.5; stroke-linecap: square"/>
   </g>
   <g id="line2d_23">
    <path d="M 289.207841 112.650016 
L 289.20661 112.490674 
L 289.19774 112.315959 
L 289.130569 112.21687 
L 289.140107 112.041246 
L 289.137007 111.849413 
L 289.156264 111.668069 
L 289.165799 111.492512 
L 289.187147 111.303727 
L 289.178815 111.137544 
L 289.176533 110.975299 
" clip-path="url(#p12b9ee3858)" style="fill: none; stroke: #008000; stroke-width: 1.5; stroke-linecap: square"/>
   </g>
   <g id="line2d_24">
    <path d="M 288.90417 110.397722 
L 288.610113 109.825655 
L 287.789835 108.870494 
L 286.978452 108.480507 
L 286.970965 108.506204 
L 287.127264 108.762736 
L 287.393931 109.095115 
L 287.815996 109.559319 
L 288.201829 110.148407 
L 289.454702 112.433441 
L 289.755386 113.701914 
L 289.923012 114.801947 
L 289.921483 117.896346 
L 289.67216 119.025763 
L 287.850826 124.061363 
L 286.927708 125.866369 
L 285.161614 129.159325 
L 283.289332 133.52736 
L 281.994113 136.752576 
L 279.99382 141.168277 
L 278.349159 144.155482 
L 276.78204 146.495742 
L 273.497135 151.144256 
L 270.893675 156.329185 
L 269.836261 158.20203 
L 267.685259 161.202003 
L 261.617567 168.651774 
L 260.307859 170.797429 
L 259.482425 172.486033 
L 258.634169 174.612717 
L 257.966815 176.783187 
L 257.423658 179.341521 
L 256.841587 183.293947 
L 256.667367 185.104145 
L 255.587516 190.898186 
L 254.781248 193.371477 
L 253.623574 196.134221 
L 250.850044 201.809685 
L 249.539214 204.084761 
L 248.392223 205.773885 
L 246.420208 207.981867 
L 243.762112 210.395301 
L 242.718782 211.288082 
L 239.112282 215.612675 
L 238.295545 216.547527 
L 234.600659 222.003338 
L 233.100163 224.528919 
L 231.938193 226.434275 
L 229.711667 229.718787 
L 226.447354 235.096363 
L 222.795971 241.536718 
L 219.34768 247.246079 
L 216.217527 251.499845 
L 214.921297 252.920854 
L 213.257096 254.342227 
L 211.581503 255.252598 
L 210.760316 255.398118 
L 209.882756 255.176277 
L 209.560325 254.835137 
L 209.296834 254.38629 
L 208.886131 253.020699 
L 208.577676 251.464186 
L 208.395263 249.995091 
L 208.824354 245.379336 
L 209.153515 243.977347 
L 210.417671 239.813285 
L 212.486623 233.880634 
L 213.791199 229.863074 
L 213.921059 228.553756 
L 213.813191 227.643102 
L 213.495231 226.907357 
L 213.114855 226.471453 
L 212.488296 226.133229 
L 211.846916 225.96439 
L 210.467464 225.895761 
L 206.865191 226.077312 
L 204.250598 226.365111 
L 202.19094 226.898847 
L 201.147282 227.323851 
L 196.735224 229.499367 
L 195.275058 230.612446 
L 194.203112 232.031348 
L 193.921034 232.554274 
L 193.511525 233.617754 
L 193.150279 235.714646 
L 193.435239 238.194384 
L 194.70091 243.757306 
L 195.475238 249.426024 
L 195.545873 252.461859 
L 195.505712 253.202975 
L 195.422868 254.209647 
L 195.042657 256.432647 
L 193.387059 262.700485 
L 192.964017 266.278148 
L 192.816388 271.972479 
L 192.462903 273.383242 
L 191.983045 274.221465 
L 191.516348 274.500405 
L 191.144577 274.577963 
L 190.630363 274.321155 
L 190.257764 273.952198 
L 189.560205 272.658532 
L 189.254839 270.46718 
L 189.473677 267.827443 
L 189.556069 267.177313 
L 189.82842 264.446806 
L 189.954625 262.089027 
L 189.572329 255.63642 
L 188.214449 249.71037 
L 185.700502 241.575779 
L 185.170172 240.295502 
L 183.46924 235.910235 
L 181.569377 231.499454 
L 180.676092 229.884923 
L 178.157468 226.083977 
L 177.235581 224.894498 
L 172.726983 219.473597 
L 168.534513 214.681011 
L 162.877654 206.784017 
L 159.059327 202.837439 
L 157.488852 201.521744 
L 156.378974 200.533278 
L 152.299125 195.944612 
L 151.063208 194.902305 
L 149.421276 193.900258 
L 146.958717 192.819667 
L 143.271551 191.569246 
L 139.649132 190.653881 
L 137.828406 190.170673 
L 133.541383 189.017635 
L 131.71268 188.699796 
L 130.105843 188.68193 
L 128.622783 188.874337 
L 126.389336 189.61249 
L 124.764411 190.600843 
L 121.893109 192.574721 
L 120.349386 193.013647 
L 118.229911 193.158464 
L 115.810663 193.101676 
L 114.572343 192.851565 
L 113.402872 192.345891 
L 112.511103 191.838065 
L 112.094989 191.500915 
L 111.386657 190.622041 
L 111.027354 189.957482 
L 110.662836 187.387857 
L 110.771281 186.504684 
L 111.110919 185.045783 
L 111.668207 183.511077 
L 114.253771 178.300593 
L 118.770251 171.934535 
L 120.906317 169.449684 
L 121.819525 168.277787 
L 123.459819 165.532045 
L 123.672547 164.736777 
L 123.637405 164.009732 
L 123.254705 163.079225 
L 122.568456 162.109753 
L 121.402122 161.1176 
L 120.46843 160.548142 
L 118.505339 159.784128 
L 117.661283 159.561176 
L 116.050462 159.251477 
L 115.122739 158.887826 
L 114.170717 158.180361 
L 113.555424 157.485147 
L 112.299107 155.924205 
L 111.347261 154.480932 
L 109.258722 150.165354 
L 108.196291 147.244798 
L 106.881244 141.933473 
L 106.511093 140.260315 
L 105.290938 136.10573 
L 104.614523 134.881483 
L 103.870175 133.864164 
L 102.45581 132.243686 
L 101.038999 130.896558 
L 98.868915 128.978667 
L 97.950478 128.320232 
L 96.208706 127.259427 
L 95.127881 126.659021 
L 94.184328 126.07793 
L 93.663101 125.714806 
L 93.054249 125.106849 
L 92.733859 123.988138 
L 92.775424 122.092579 
L 93.269296 119.972008 
L 94.044342 118.065681 
L 95.121771 116.04913 
L 96.75124 113.692592 
L 98.992513 111.216501 
L 102.13512 107.69817 
L 108.805806 99.482891 
L 110.132724 97.385821 
L 111.039693 95.427431 
L 111.741426 93.230935 
L 112.081019 91.831045 
L 112.206518 91.439838 
L 112.545089 90.178543 
L 112.964294 88.869412 
L 112.99314 89.183363 
L 113.157275 89.672475 
L 113.366305 90.794457 
L 114.017367 93.548162 
L 114.401516 94.362174 
L 114.640355 94.91886 
L 115.472666 96.200569 
L 116.459615 97.443932 
L 117.732977 98.378589 
L 118.635451 98.949233 
L 119.055112 99.301302 
L 119.97081 100.11058 
L 121.34091 101.399798 
L 124.470526 104.783137 
L 125.821093 106.891603 
L 126.440874 108.210792 
L 127.419201 110.793813 
L 127.772477 111.978265 
L 128.156497 113.744989 
L 128.317726 114.887279 
L 128.279617 116.541065 
L 128.037424 117.874769 
L 127.300497 119.448683 
L 126.282464 120.679329 
L 125.489722 121.466813 
L 119.728091 126.066766 
L 117.195297 127.988366 
L 114.337834 130.084558 
L 109.541163 133.410648 
L 107.886733 134.537439 
L 104.766449 136.801527 
L 103.85722 137.707008 
L 102.757542 139.159234 
L 102.093274 140.411497 
L 101.81983 141.515288 
L 101.737622 143.253085 
L 101.973304 144.704118 
L 103.056854 147.577642 
L 104.096777 149.601755 
L 105.657594 152.318445 
L 107.566127 155.512495 
L 110.388833 160.588018 
L 112.729915 164.611555 
L 114.635832 167.545082 
L 116.022751 169.373572 
L 119.337915 172.72563 
L 121.050756 173.978546 
L 122.591839 174.865962 
L 123.950468 175.53226 
L 125.052764 175.946851 
L 129.382525 177.110239 
L 134.864171 178.107594 
L 145.4784 179.167196 
L 150.58689 180.011206 
L 157.348141 181.660798 
L 160.691618 182.752256 
L 163.62876 183.969755 
L 165.578128 184.892786 
L 169.74481 186.966187 
L 171.286989 187.530686 
L 174.66432 188.306278 
L 175.826804 188.351892 
L 176.921104 188.247807 
L 177.918918 187.983901 
L 179.270836 187.39888 
L 180.06372 186.87265 
L 181.431659 185.570253 
L 182.414972 184.319175 
L 185.576994 180.244868 
L 186.977729 178.3958 
L 187.950734 176.89823 
L 189.868835 173.604525 
L 191.164976 171.336672 
L 191.988538 170.44202 
L 192.736034 170.062254 
L 193.558776 170.19301 
L 194.230766 170.657739 
L 195.561048 171.974506 
L 198.227511 175.08522 
L 199.201002 176.208511 
L 200.199277 177.408532 
L 203.059013 181.281748 
L 204.389829 182.924363 
L 206.265284 184.810289 
L 208.438491 186.56499 
L 210.008191 187.596166 
L 212.473465 188.946597 
L 214.14952 189.706138 
L 215.832045 190.356493 
L 217.565214 190.89124 
L 222.839288 191.8229 
L 225.898518 192.136783 
L 232.344262 192.235498 
L 234.437956 191.897134 
L 236.034588 191.403921 
L 238.006934 190.399738 
L 239.298826 189.490307 
L 241.257236 187.777767 
L 247.128866 181.95 
L 248.569149 180.092253 
L 250.008483 177.598511 
L 250.871646 176.42021 
L 253.424516 172.681996 
L 253.426335 172.297407 
L 253.010149 172.05036 
L 252.718911 172.101049 
L 252.082321 172.404987 
L 251.147327 173.536674 
L 250.474682 174.853257 
L 249.980726 175.857337 
L 249.766573 176.261628 
L 249.123316 177.387611 
L 248.82399 177.800188 
L 248.133705 178.631949 
L 246.932643 179.561136 
L 245.28124 180.393094 
L 240.411438 182.327517 
L 237.826053 183.411822 
L 233.867295 185.089424 
L 230.692939 186.043332 
L 225.310854 187.487427 
L 221.539176 188.84512 
L 217.149058 191.453631 
L 217.181774 191.456015 
L 217.171781 191.462009 
L 217.304023 191.488719 
L 217.307503 191.496107 
L 217.497201 191.729586 
L 217.499574 191.759961 
L 217.497655 191.757768 
" clip-path="url(#p12b9ee3858)" style="fill: none; stroke: #008000; stroke-width: 1.5; stroke-linecap: square"/>
   </g>
   <g id="line2d_25">
    <path d="M 131.490936 128.022477 
L 131.986949 123.063952 
L 131.51408 121.142818 
L 131.337346 119.458551 
L 131.456205 118.350947 
L 131.236326 117.152987 
L 131.43778 116.399039 
L 132.062489 115.561361 
L 131.085116 112.961125 
L 131.697725 112.044853 
L 131.771803 111.208211 
L 130.764575 109.787788 
L 132.411221 109.475075 
L 133.761891 108.957324 
L 134.146449 108.46395 
L 134.462508 108.497602 
L 134.938376 107.897267 
L 134.604906 108.222058 
L 134.811328 109.014529 
L 135.528451 109.209298 
L 136.260453 108.872404 
L 137.255887 108.947117 
L 137.978523 108.763404 
L 138.398652 108.90079 
L 138.920544 108.631856 
L 139.143867 108.963366 
L 139.60189 108.99033 
L 140.779491 109.625488 
L 140.9193 110.243033 
L 141.290995 110.618564 
L 141.75291 110.910927 
L 144.274565 111.381214 
L 143.266422 113.575551 
L 142.559306 114.668849 
L 140.840044 120.173149 
L 140.803549 122.443425 
L 140.092804 125.185912 
L 140.128966 127.966875 
L 141.181842 132.077175 
L 140.241971 135.336767 
L 138.796436 138.644448 
L 139.010143 142.581324 
L 139.039335 147.287873 
L 138.401888 155.343523 
L 138.709897 159.217357 
L 138.286749 162.375937 
L 138.850301 165.166536 
L 139.771903 174.663604 
L 140.409675 178.076897 
L 141.232414 181.133621 
L 141.431613 184.712289 
L 142.123276 187.128276 
L 143.407741 190.177839 
L 145.070484 192.874053 
L 145.885849 195.79172 
L 148.250569 198.818541 
L 150.088176 201.861636 
L 151.282298 203.509484 
L 151.590554 205.268126 
L 154.010862 207.200268 
L 156.017189 209.879606 
L 158.817441 211.596279 
L 161.074521 213.479081 
L 163.754402 212.633765 
L 164.198591 215.485588 
L 166.876855 218.047339 
L 169.285078 220.029537 
L 171.77921 221.308494 
L 172.80555 222.787919 
L 173.176762 223.736374 
L 174.417949 224.315174 
L 176.463828 224.671622 
L 179.085456 224.8403 
L 184.026343 223.729134 
L 186.425606 222.193892 
L 188.820282 221.56868 
L 191.339572 218.379026 
L 193.482937 218.16359 
L 194.818552 217.005594 
L 191.786429 218.703768 
L 183.005001 215.533769 
L 184.233431 216.384564 
L 183.685979 217.958941 
L 183.581298 220.116978 
L 187.542217 219.652242 
L 190.243142 219.553027 
L 191.655895 220.071201 
L 194.857969 221.977476 
L 198.028217 223.062578 
L 201.141724 224.751054 
L 203.844779 225.256851 
L 205.692285 226.821718 
L 208.130052 226.447352 
L 211.462651 226.434756 
L 214.211559 227.159643 
L 217.216526 227.426479 
L 220.852738 226.648295 
L 224.197227 226.939607 
L 228.102207 225.185141 
L 231.665728 224.803667 
L 237.9128 222.14711 
L 250.522799 215.691823 
L 253.163866 214.89472 
L 256.015384 213.120572 
L 258.360786 212.106458 
L 260.819849 210.68689 
L 263.838474 209.580451 
L 270.576053 206.894251 
L 273.707264 204.424021 
L 276.247903 203.262563 
L 279.061676 200.813084 
L 281.492758 197.955752 
L 282.901325 196.817086 
L 284.574493 194.974851 
L 285.551723 190.912518 
L 285.954764 187.866045 
L 286.009557 185.837055 
L 286.530105 183.085603 
L 287.044149 179.350542 
L 286.72203 175.852708 
L 286.160016 173.09516 
L 285.464345 170.42998 
L 284.764266 168.619125 
L 283.992148 167.201864 
L 283.873992 163.230207 
L 283.95907 159.448228 
L 283.688836 156.59197 
L 284.062172 154.59432 
L 284.703357 152.645277 
L 284.890502 150.872478 
L 285.378254 149.375486 
L 286.654086 144.269474 
L 286.619439 142.969357 
L 287.010896 141.343951 
L 289.061836 138.174922 
L 290.937735 135.566092 
L 291.20653 136.312238 
L 299.346648 134.332736 
L 291.427237 132.603182 
L 291.942514 129.839602 
L 292.739219 128.890479 
L 291.367039 125.558407 
L 291.240651 125.138709 
L 289.249751 123.197539 
L 289.177411 122.756499 
L 288.971486 122.372608 
L 289.591335 122.805947 
L 290.530415 123.307969 
L 290.206023 125.023322 
L 290.434567 125.522579 
L 290.214432 127.073512 
L 290.571012 127.80353 
L 291.162515 128.616456 
L 290.640365 130.190517 
L 290.735659 132.235468 
L 289.771942 134.28443 
L 288.087925 138.225079 
L 286.593035 140.816148 
L 285.864066 142.921873 
L 284.14279 145.896597 
L 283.455182 148.004206 
L 282.458556 150.093745 
L 281.524455 152.467812 
L 280.40348 154.83027 
L 278.225815 158.663338 
L 276.898513 160.107428 
L 276.161481 161.854766 
L 275.246976 163.645215 
L 273.767331 167.622961 
L 269.686065 174.047461 
L 265.69634 178.71118 
L 263.346434 182.172277 
L 261.699855 186.381394 
L 260.822094 189.250304 
L 259.852478 192.004365 
L 259.084653 196.912479 
L 258.822187 199.128949 
L 258.387538 201.248512 
L 256.33659 208.148468 
L 254.154752 213.134574 
L 251.547902 217.748619 
L 250.310646 219.561957 
L 248.855121 221.199441 
L 245.950491 223.226754 
L 245.050167 223.588686 
L 243.774583 224.311543 
L 242.723072 224.693856 
L 241.86307 225.246732 
L 241.241036 225.167203 
L 240.462784 228.677986 
L 239.645756 229.936712 
L 237.720258 232.149334 
L 237.258992 234.543281 
L 236.630278 235.117267 
L 235.771727 236.929435 
L 234.743804 238.652786 
L 230.631442 244.088978 
L 229.803983 245.594571 
L 229.256884 247.282782 
L 228.024253 249.232178 
L 227.098989 251.427813 
L 225.710716 253.748772 
L 223.520338 256.529248 
L 222.799567 258.670525 
L 219.94597 262.459593 
L 218.844493 264.051522 
L 216.508057 267.863806 
L 215.813287 269.528095 
L 212.735254 274.114568 
L 211.306468 275.852545 
L 210.054409 276.633137 
L 209.515786 276.637787 
L 209.448864 275.759804 
L 209.721393 275.051853 
L 209.966821 274.039201 
L 209.407961 273.292581 
L 209.278773 271.657254 
L 208.898079 270.021282 
L 209.156143 265.919147 
L 209.746018 263.503077 
L 209.885563 260.887597 
L 210.29168 258.519354 
L 211.167121 256.306633 
L 211.848018 253.906903 
L 212.129986 251.557139 
L 212.710597 249.800579 
L 212.511731 245.906948 
L 212.119633 243.691744 
L 210.407984 242.676167 
L 209.702918 242.011039 
L 208.241071 241.202069 
L 206.593231 240.959782 
L 201.989487 241.829981 
L 200.324296 242.568532 
L 200.528885 242.865396 
L 199.963344 243.394225 
L 198.995 243.559097 
L 197.666177 243.97447 
L 197.249317 244.226014 
L 196.867374 244.713921 
L 195.838464 245.027772 
L 194.304127 245.296041 
L 192.81082 247.990961 
L 192.196781 249.331768 
L 191.694179 252.339901 
L 191.821286 254.013746 
L 192.693841 255.686387 
L 193.235953 257.539905 
L 193.961385 259.227307 
L 193.607559 261.36172 
L 193.56372 263.133132 
L 194.082466 266.434008 
L 194.042323 268.43642 
L 192.729778 272.648026 
L 192.677657 274.584805 
L 192.344763 276.372651 
L 191.564692 279.87372 
L 190.854968 284.947521 
L 190.416033 286.541447 
L 190.494832 287.593592 
L 189.682484 290.526606 
L 188.518685 291.779147 
L 188.673196 293.099418 
L 188.907788 293.330457 
L 188.362869 293.40418 
L 187.724744 292.601318 
L 187.568738 291.717605 
L 187.60585 290.71148 
L 187.36692 289.714679 
L 187.972519 286.663898 
L 188.278548 283.758101 
L 189.082995 280.154578 
L 189.571038 278.028449 
L 189.47259 273.66269 
L 188.840221 271.113714 
L 188.627276 268.412892 
L 187.716653 265.966109 
L 186.34317 260.405888 
L 185.407728 257.584395 
L 180.529923 245.838616 
L 179.136207 243.769242 
L 177.594911 241.738867 
L 176.022198 239.097932 
L 174.384801 236.964204 
L 172.574133 235.349498 
L 170.620427 233.843157 
L 168.293316 231.130114 
L 165.666681 228.406701 
L 163.545245 224.987694 
L 163.273884 222.609655 
L 161.675294 221.885469 
L 159.787353 220.207209 
L 157.199473 217.318158 
L 155.744218 216.483327 
L 154.927419 215.637229 
L 154.009773 214.983499 
L 153.260441 213.955277 
L 151.03883 212.00309 
L 148.382986 210.839447 
L 147.683201 211.252319 
L 146.098175 210.649413 
L 144.3701 210.213187 
L 142.480073 209.493752 
L 139.939768 208.212741 
L 137.936398 207.016417 
L 136.405464 206.671006 
L 134.395732 205.940018 
L 132.981677 205.876977 
L 131.623324 206.011868 
L 130.67299 206.898845 
L 129.750241 206.927056 
L 129.365565 207.250079 
L 128.276433 207.830254 
L 127.432857 208.44749 
L 126.124943 208.885994 
L 124.883621 208.993542 
L 124.50961 209.467768 
L 122.305624 209.808071 
L 120.880472 209.968668 
L 120.501417 209.809191 
L 119.714503 208.618283 
L 118.161001 207.975815 
L 117.481878 207.328263 
L 116.967204 206.446239 
L 116.000902 205.360267 
L 115.518666 205.008609 
L 116.259493 202.922004 
L 115.97441 202.32382 
L 117.531701 201.061914 
L 118.266323 199.256204 
L 119.219031 199.234664 
L 114.511727 176.015394 
L 115.238238 175.052661 
L 112.607574 166.112551 
L 110.384394 160.990488 
L 106.645127 151.279959 
L 104.524555 146.184288 
L 105.127471 145.639765 
L 104.855807 143.620714 
L 105.318408 142.965712 
L 105.732685 141.243438 
L 106.635499 139.87983 
L 107.256915 138.42316 
L 108.930799 135.55332 
L 109.471911 135.215746 
L 109.339807 134.374365 
L 108.828495 134.18506 
L 107.13955 134.17085 
L 106.3743 134.317532 
L 108.009654 136.77623 
L 106.191846 135.959881 
L 106.691453 136.845567 
L 106.032598 136.256527 
L 105.875064 135.21662 
L 105.40378 134.46334 
L 105.074409 132.97234 
L 105.093738 130.904151 
L 104.976838 129.373266 
L 104.268816 127.774811 
L 102.35193 127.146558 
L 101.485662 124.946187 
L 103.663594 123.307754 
L 104.237043 122.513425 
L 103.609921 120.705928 
L 103.338451 119.56505 
L 100.768891 116.157282 
L 99.480339 115.581648 
L 97.056026 115.499553 
L 96.294002 115.623327 
L 95.683096 115.217347 
L 95.074326 115.075026 
L 94.865342 115.516321 
L 95.287433 112.339475 
L 95.709309 112.318711 
L 96.579913 111.24495 
L 97.235498 109.543852 
L 97.671997 107.794627 
L 98.441463 107.047104 
L 98.793905 104.986321 
L 99.884888 104.605333 
L 100.655881 102.232702 
L 101.923101 100.007028 
L 103.119894 97.469835 
L 107.47011 86.034907 
L 107.494809 84.879715 
L 108.779811 81.720692 
L 109.017042 80.015083 
L 108.917498 78.438362 
L 108.462497 75.774289 
L 107.793823 73.8785 
L 108.571418 72.946512 
L 108.536622 71.231632 
L 108.031365 70.906439 
L 107.59589 71.332277 
L 107.608691 71.65925 
L 107.815635 72.209268 
L 107.993863 73.269589 
L 107.869407 73.77167 
L 106.932036 75.666691 
L 107.589912 77.363063 
L 107.582949 77.019156 
L 107.141167 77.626572 
L 107.270025 77.8671 
L 107.818794 78.545968 
L 107.870565 75.982099 
L 107.581952 76.290896 
L 107.732544 76.120634 
L 107.905704 76.330539 
L 108.259951 77.66009 
L 108.223172 77.255858 
L 109.122775 78.587154 
L 110.303979 78.444889 
L 111.294472 80.959381 
L 112.458041 83.135708 
L 113.472804 84.088907 
L 114.015574 85.816761 
L 115.201351 88.173126 
L 116.134255 88.230439 
L 117.060154 89.698185 
L 117.909378 89.410415 
L 118.08374 89.714207 
L 117.711787 91.489333 
L 116.958227 92.862839 
L 115.732486 94.576443 
L 113.940755 96.473221 
L 109.630834 100.731595 
L 107.476971 103.160916 
L 100.308779 109.002999 
L 98.043265 109.899719 
L 95.76996 111.615693 
L 94.165261 113.064478 
L 93.017339 114.799365 
L 92.126134 116.996702 
L 91.754405 118.249398 
L 91.944335 120.13928 
L 92.728055 121.469549 
L 93.792878 123.016877 
L 95.135145 123.789073 
L 96.223392 126.229678 
L 98.792905 129.12229 
L 100.168456 131.401295 
L 101.631852 134.714868 
L 104.206309 137.990135 
L 105.72636 139.371028 
L 108.760657 140.962313 
L 116.025815 142.475129 
L 118.978738 142.098503 
L 122.09179 141.818483 
L 128.563116 140.436476 
L 131.362207 139.510575 
L 134.076601 139.260224 
L 136.940277 139.325988 
L 139.944766 140.06194 
L 142.616883 140.015352 
L 145.564107 140.805129 
L 148.48518 141.153314 
L 150.992103 141.713263 
L 153.257189 141.828312 
L 158.035265 141.445491 
L 162.291427 140.853704 
L 163.708632 138.988042 
L 164.997137 137.723496 
L 165.522512 134.68124 
L 166.327638 133.239551 
L 166.658558 131.259725 
L 166.538191 129.080939 
L 167.430245 127.065466 
L 167.855041 124.701233 
L 168.379382 122.570755 
L 168.394843 118.592392 
L 169.401957 115.584844 
L 169.667327 112.718879 
L 169.856896 112.270518 
L 171.629604 115.211173 
L 173.535628 118.094296 
L 176.238044 120.384964 
L 177.071103 123.655466 
L 178.232778 123.391265 
L 179.459219 123.325062 
L 180.968277 123.629684 
L 182.410628 123.086718 
L 185.398897 125.238059 
L 186.945115 127.271086 
L 188.772506 127.612561 
L 190.893174 129.343863 
L 195.657886 131.470836 
L 198.631087 132.163126 
L 204.70525 132.704626 
L 207.81494 132.816543 
L 211.327823 132.055417 
L 214.704848 131.988038 
L 220.695979 131.096 
L 223.307402 129.455631 
L 225.581468 128.8475 
L 227.417813 127.988918 
L 228.917007 126.443394 
L 230.782815 122.787992 
L 232.235783 120.400233 
L 235.080888 116.385754 
L 236.017387 114.793881 
L 236.927692 112.40567 
L 237.346058 111.959036 
L 237.782063 111.265631 
L 238.797006 110.916117 
L 239.505994 109.360821 
L 240.396716 108.09771 
L 241.078788 106.711481 
L 241.50292 105.590413 
L 241.521226 104.710815 
L 241.387732 103.785587 
L 240.786596 103.681474 
L 240.340498 103.851608 
L 239.42113 105.117491 
L 238.626458 105.404119 
L 237.926043 107.767585 
L 237.676308 108.531694 
L 237.603541 109.996556 
L 237.004355 110.982974 
L 235.342696 112.066752 
L 234.18442 112.665644 
L 232.109456 113.007269 
L 229.842947 114.002812 
L 227.80282 115.713713 
L 225.467312 116.727403 
L 223.257626 118.63024 
L 221.076157 120.060368 
L 218.190157 120.627992 
L 215.371741 121.988035 
L 213.071304 123.705363 
L 211.028307 124.957283 
L 209.265113 125.737899 
L 207.432487 127.009736 
L 206.244566 128.162014 
L 205.094569 129.66687 
L 203.825784 130.712674 
L 202.901271 131.644027 
L 202.610873 132.21109 
L 202.215779 132.280648 
L 201.767525 132.306257 
L 202.012796 132.21106 
L 201.82373 132.08011 
L 201.82373 132.08011 
" clip-path="url(#p12b9ee3858)" style="fill: none; stroke: #ff0000; stroke-width: 1.5; stroke-linecap: square"/>
   </g>
   <g id="legend_1">
    <g id="patch_6">
     <path d="M 243.41875 37.35625 
L 338.6 37.35625 
Q 340.6 37.35625 340.6 35.35625 
L 340.6 7 
Q 340.6 5 338.6 5 
L 243.41875 5 
Q 241.41875 5 241.41875 7 
L 241.41875 35.35625 
Q 241.41875 37.35625 243.41875 37.35625 
z
" style="fill: #ffffff; opacity: 0.8; stroke: #cccccc; stroke-linejoin: miter"/>
    </g>
    <g id="line2d_26">
     <path d="M 245.41875 13.098437 
L 255.41875 13.098437 
L 265.41875 13.098437 
" style="fill: none; stroke: #008000; stroke-width: 1.5; stroke-linecap: square"/>
    </g>
    <g id="text_22">
     <!-- ground truth -->
     <g transform="translate(273.41875 16.598437)scale(0.1 -0.1)">
      <defs>
       <path id="DejaVuSans-67" d="M 2906 1791 
Q 2906 2416 2648 2759 
Q 2391 3103 1925 3103 
Q 1463 3103 1205 2759 
Q 947 2416 947 1791 
Q 947 1169 1205 825 
Q 1463 481 1925 481 
Q 2391 481 2648 825 
Q 2906 1169 2906 1791 
z
M 3481 434 
Q 3481 -459 3084 -895 
Q 2688 -1331 1869 -1331 
Q 1566 -1331 1297 -1286 
Q 1028 -1241 775 -1147 
L 775 -588 
Q 1028 -725 1275 -790 
Q 1522 -856 1778 -856 
Q 2344 -856 2625 -561 
Q 2906 -266 2906 331 
L 2906 616 
Q 2728 306 2450 153 
Q 2172 0 1784 0 
Q 1141 0 747 490 
Q 353 981 353 1791 
Q 353 2603 747 3093 
Q 1141 3584 1784 3584 
Q 2172 3584 2450 3431 
Q 2728 3278 2906 2969 
L 2906 3500 
L 3481 3500 
L 3481 434 
z
" transform="scale(0.015625)"/>
       <path id="DejaVuSans-72" d="M 2631 2963 
Q 2534 3019 2420 3045 
Q 2306 3072 2169 3072 
Q 1681 3072 1420 2755 
Q 1159 2438 1159 1844 
L 1159 0 
L 581 0 
L 581 3500 
L 1159 3500 
L 1159 2956 
Q 1341 3275 1631 3429 
Q 1922 3584 2338 3584 
Q 2397 3584 2469 3576 
Q 2541 3569 2628 3553 
L 2631 2963 
z
" transform="scale(0.015625)"/>
       <path id="DejaVuSans-6f" d="M 1959 3097 
Q 1497 3097 1228 2736 
Q 959 2375 959 1747 
Q 959 1119 1226 758 
Q 1494 397 1959 397 
Q 2419 397 2687 759 
Q 2956 1122 2956 1747 
Q 2956 2369 2687 2733 
Q 2419 3097 1959 3097 
z
M 1959 3584 
Q 2709 3584 3137 3096 
Q 3566 2609 3566 1747 
Q 3566 888 3137 398 
Q 2709 -91 1959 -91 
Q 1206 -91 779 398 
Q 353 888 353 1747 
Q 353 2609 779 3096 
Q 1206 3584 1959 3584 
z
" transform="scale(0.015625)"/>
       <path id="DejaVuSans-75" d="M 544 1381 
L 544 3500 
L 1119 3500 
L 1119 1403 
Q 1119 906 1312 657 
Q 1506 409 1894 409 
Q 2359 409 2629 706 
Q 2900 1003 2900 1516 
L 2900 3500 
L 3475 3500 
L 3475 0 
L 2900 0 
L 2900 538 
Q 2691 219 2414 64 
Q 2138 -91 1772 -91 
Q 1169 -91 856 284 
Q 544 659 544 1381 
z
M 1991 3584 
L 1991 3584 
z
" transform="scale(0.015625)"/>
       <path id="DejaVuSans-6e" d="M 3513 2113 
L 3513 0 
L 2938 0 
L 2938 2094 
Q 2938 2591 2744 2837 
Q 2550 3084 2163 3084 
Q 1697 3084 1428 2787 
Q 1159 2491 1159 1978 
L 1159 0 
L 581 0 
L 581 3500 
L 1159 3500 
L 1159 2956 
Q 1366 3272 1645 3428 
Q 1925 3584 2291 3584 
Q 2894 3584 3203 3211 
Q 3513 2838 3513 2113 
z
" transform="scale(0.015625)"/>
       <path id="DejaVuSans-64" d="M 2906 2969 
L 2906 4863 
L 3481 4863 
L 3481 0 
L 2906 0 
L 2906 525 
Q 2725 213 2448 61 
Q 2172 -91 1784 -91 
Q 1150 -91 751 415 
Q 353 922 353 1747 
Q 353 2572 751 3078 
Q 1150 3584 1784 3584 
Q 2172 3584 2448 3432 
Q 2725 3281 2906 2969 
z
M 947 1747 
Q 947 1113 1208 752 
Q 1469 391 1925 391 
Q 2381 391 2643 752 
Q 2906 1113 2906 1747 
Q 2906 2381 2643 2742 
Q 2381 3103 1925 3103 
Q 1469 3103 1208 2742 
Q 947 2381 947 1747 
z
" transform="scale(0.015625)"/>
       <path id="DejaVuSans-74" d="M 1172 4494 
L 1172 3500 
L 2356 3500 
L 2356 3053 
L 1172 3053 
L 1172 1153 
Q 1172 725 1289 603 
Q 1406 481 1766 481 
L 2356 481 
L 2356 0 
L 1766 0 
Q 1100 0 847 248 
Q 594 497 594 1153 
L 594 3053 
L 172 3053 
L 172 3500 
L 594 3500 
L 594 4494 
L 1172 4494 
z
" transform="scale(0.015625)"/>
       <path id="DejaVuSans-68" d="M 3513 2113 
L 3513 0 
L 2938 0 
L 2938 2094 
Q 2938 2591 2744 2837 
Q 2550 3084 2163 3084 
Q 1697 3084 1428 2787 
Q 1159 2491 1159 1978 
L 1159 0 
L 581 0 
L 581 4863 
L 1159 4863 
L 1159 2956 
Q 1366 3272 1645 3428 
Q 1925 3584 2291 3584 
Q 2894 3584 3203 3211 
Q 3513 2838 3513 2113 
z
" transform="scale(0.015625)"/>
      </defs>
      <use xlink:href="#DejaVuSans-67"/>
      <use xlink:href="#DejaVuSans-72" x="63.476562"/>
      <use xlink:href="#DejaVuSans-6f" x="102.339844"/>
      <use xlink:href="#DejaVuSans-75" x="163.521484"/>
      <use xlink:href="#DejaVuSans-6e" x="226.900391"/>
      <use xlink:href="#DejaVuSans-64" x="290.279297"/>
      <use xlink:href="#DejaVuSans-20" x="353.755859"/>
      <use xlink:href="#DejaVuSans-74" x="385.542969"/>
      <use xlink:href="#DejaVuSans-72" x="424.751953"/>
      <use xlink:href="#DejaVuSans-75" x="465.865234"/>
      <use xlink:href="#DejaVuSans-74" x="529.244141"/>
      <use xlink:href="#DejaVuSans-68" x="568.453125"/>
     </g>
    </g>
    <g id="line2d_27">
     <path d="M 245.41875 27.776563 
L 255.41875 27.776563 
L 265.41875 27.776563 
" style="fill: none; stroke: #ff0000; stroke-width: 1.5; stroke-linecap: square"/>
    </g>
    <g id="text_23">
     <!-- estimated -->
     <g transform="translate(273.41875 31.276563)scale(0.1 -0.1)">
      <defs>
       <path id="DejaVuSans-65" d="M 3597 1894 
L 3597 1613 
L 953 1613 
Q 991 1019 1311 708 
Q 1631 397 2203 397 
Q 2534 397 2845 478 
Q 3156 559 3463 722 
L 3463 178 
Q 3153 47 2828 -22 
Q 2503 -91 2169 -91 
Q 1331 -91 842 396 
Q 353 884 353 1716 
Q 353 2575 817 3079 
Q 1281 3584 2069 3584 
Q 2775 3584 3186 3129 
Q 3597 2675 3597 1894 
z
M 3022 2063 
Q 3016 2534 2758 2815 
Q 2500 3097 2075 3097 
Q 1594 3097 1305 2825 
Q 1016 2553 972 2059 
L 3022 2063 
z
" transform="scale(0.015625)"/>
       <path id="DejaVuSans-73" d="M 2834 3397 
L 2834 2853 
Q 2591 2978 2328 3040 
Q 2066 3103 1784 3103 
Q 1356 3103 1142 2972 
Q 928 2841 928 2578 
Q 928 2378 1081 2264 
Q 1234 2150 1697 2047 
L 1894 2003 
Q 2506 1872 2764 1633 
Q 3022 1394 3022 966 
Q 3022 478 2636 193 
Q 2250 -91 1575 -91 
Q 1294 -91 989 -36 
Q 684 19 347 128 
L 347 722 
Q 666 556 975 473 
Q 1284 391 1588 391 
Q 1994 391 2212 530 
Q 2431 669 2431 922 
Q 2431 1156 2273 1281 
Q 2116 1406 1581 1522 
L 1381 1569 
Q 847 1681 609 1914 
Q 372 2147 372 2553 
Q 372 3047 722 3315 
Q 1072 3584 1716 3584 
Q 2034 3584 2315 3537 
Q 2597 3491 2834 3397 
z
" transform="scale(0.015625)"/>
       <path id="DejaVuSans-69" d="M 603 3500 
L 1178 3500 
L 1178 0 
L 603 0 
L 603 3500 
z
M 603 4863 
L 1178 4863 
L 1178 4134 
L 603 4134 
L 603 4863 
z
" transform="scale(0.015625)"/>
       <path id="DejaVuSans-61" d="M 2194 1759 
Q 1497 1759 1228 1600 
Q 959 1441 959 1056 
Q 959 750 1161 570 
Q 1363 391 1709 391 
Q 2188 391 2477 730 
Q 2766 1069 2766 1631 
L 2766 1759 
L 2194 1759 
z
M 3341 1997 
L 3341 0 
L 2766 0 
L 2766 531 
Q 2569 213 2275 61 
Q 1981 -91 1556 -91 
Q 1019 -91 701 211 
Q 384 513 384 1019 
Q 384 1609 779 1909 
Q 1175 2209 1959 2209 
L 2766 2209 
L 2766 2266 
Q 2766 2663 2505 2880 
Q 2244 3097 1772 3097 
Q 1472 3097 1187 3025 
Q 903 2953 641 2809 
L 641 3341 
Q 956 3463 1253 3523 
Q 1550 3584 1831 3584 
Q 2591 3584 2966 3190 
Q 3341 2797 3341 1997 
z
" transform="scale(0.015625)"/>
      </defs>
      <use xlink:href="#DejaVuSans-65"/>
      <use xlink:href="#DejaVuSans-73" x="61.523438"/>
      <use xlink:href="#DejaVuSans-74" x="113.623047"/>
      <use xlink:href="#DejaVuSans-69" x="152.832031"/>
      <use xlink:href="#DejaVuSans-6d" x="180.615234"/>
      <use xlink:href="#DejaVuSans-61" x="278.027344"/>
      <use xlink:href="#DejaVuSans-74" x="339.306641"/>
      <use xlink:href="#DejaVuSans-65" x="378.515625"/>
      <use xlink:href="#DejaVuSans-64" x="440.039062"/>
     </g>
    </g>
   </g>
  </g>
 </g>
 <defs>
  <clipPath id="p12b9ee3858">
   <rect x="0" y="0" width="345.6" height="345.6"/>
  </clipPath>
 </defs>
</svg>
