<?xml version="1.0" encoding="utf-8" standalone="no"?>
<!DOCTYPE svg PUBLIC "-//W3C//DTD SVG 1.1//EN"
  "http://www.w3.org/Graphics/SVG/1.1/DTD/svg11.dtd">
<svg xmlns:xlink="http://www.w3.org/1999/xlink" width="412.04pt" height="269.612pt" viewBox="0 0 412.04 269.612" xmlns="http://www.w3.org/2000/svg" version="1.1">
 <metadata>
  <rdf:RDF xmlns:dc="http://purl.org/dc/elements/1.1/" xmlns:cc="http://creativecommons.org/ns#" xmlns:rdf="http://www.w3.org/1999/02/22-rdf-syntax-ns#">
   <cc:Work>
    <dc:type rdf:resource="http://purl.org/dc/dcmitype/StillImage"/>
    <dc:date>2022-02-10T00:11:01.727402</dc:date>
    <dc:format>image/svg+xml</dc:format>
    <dc:creator>
     <cc:Agent>
      <dc:title>Matplotlib v3.5.1, https://matplotlib.org/</dc:title>
     </cc:Agent>
    </dc:creator>
   </cc:Work>
  </rdf:RDF>
 </metadata>
 <defs>
  <style type="text/css">*{stroke-linejoin: round; stroke-linecap: butt}</style>
 </defs>
 <g id="figure_1">
  <g id="patch_1">
   <path d="M 0 269.612 
L 412.04 269.612 
L 412.04 0 
L 0 0 
z
" style="fill: #ffffff"/>
  </g>
  <g id="axes_1">
   <g id="patch_2">
    <path d="M 54.92 78.268235 
L 412.04 78.268235 
L 412.04 0 
L 54.92 0 
z
" style="fill: #ffffff"/>
   </g>
   <g id="matplotlib.axis_1"/>
   <g id="matplotlib.axis_2">
    <g id="ytick_1">
     <g id="line2d_1">
      <defs>
       <path id="m5360e5111a" d="M 0 0 
L -3.5 0 
" style="stroke: #000000; stroke-width: 0.8"/>
      </defs>
      <g>
       <use xlink:href="#m5360e5111a" x="54.92" y="65.876467" style="stroke: #000000; stroke-width: 0.8"/>
      </g>
     </g>
     <g id="text_1">
      <!-- −140 -->
      <g transform="translate(20.452813 69.675685)scale(0.1 -0.1)">
       <defs>
        <path id="DejaVuSans-2212" d="M 678 2272 
L 4684 2272 
L 4684 1741 
L 678 1741 
L 678 2272 
z
" transform="scale(0.015625)"/>
        <path id="DejaVuSans-31" d="M 794 531 
L 1825 531 
L 1825 4091 
L 703 3866 
L 703 4441 
L 1819 4666 
L 2450 4666 
L 2450 531 
L 3481 531 
L 3481 0 
L 794 0 
L 794 531 
z
" transform="scale(0.015625)"/>
        <path id="DejaVuSans-34" d="M 2419 4116 
L 825 1625 
L 2419 1625 
L 2419 4116 
z
M 2253 4666 
L 3047 4666 
L 3047 1625 
L 3713 1625 
L 3713 1100 
L 3047 1100 
L 3047 0 
L 2419 0 
L 2419 1100 
L 313 1100 
L 313 1709 
L 2253 4666 
z
" transform="scale(0.015625)"/>
        <path id="DejaVuSans-30" d="M 2034 4250 
Q 1547 4250 1301 3770 
Q 1056 3291 1056 2328 
Q 1056 1369 1301 889 
Q 1547 409 2034 409 
Q 2525 409 2770 889 
Q 3016 1369 3016 2328 
Q 3016 3291 2770 3770 
Q 2525 4250 2034 4250 
z
M 2034 4750 
Q 2819 4750 3233 4129 
Q 3647 3509 3647 2328 
Q 3647 1150 3233 529 
Q 2819 -91 2034 -91 
Q 1250 -91 836 529 
Q 422 1150 422 2328 
Q 422 3509 836 4129 
Q 1250 4750 2034 4750 
z
" transform="scale(0.015625)"/>
       </defs>
       <use xlink:href="#DejaVuSans-2212"/>
       <use xlink:href="#DejaVuSans-31" x="83.789062"/>
       <use xlink:href="#DejaVuSans-34" x="147.412109"/>
       <use xlink:href="#DejaVuSans-30" x="211.035156"/>
      </g>
     </g>
    </g>
    <g id="ytick_2">
     <g id="line2d_2">
      <g>
       <use xlink:href="#m5360e5111a" x="54.92" y="37.905662" style="stroke: #000000; stroke-width: 0.8"/>
      </g>
     </g>
     <g id="text_2">
      <!-- −130 -->
      <g transform="translate(20.452813 41.704881)scale(0.1 -0.1)">
       <defs>
        <path id="DejaVuSans-33" d="M 2597 2516 
Q 3050 2419 3304 2112 
Q 3559 1806 3559 1356 
Q 3559 666 3084 287 
Q 2609 -91 1734 -91 
Q 1441 -91 1130 -33 
Q 819 25 488 141 
L 488 750 
Q 750 597 1062 519 
Q 1375 441 1716 441 
Q 2309 441 2620 675 
Q 2931 909 2931 1356 
Q 2931 1769 2642 2001 
Q 2353 2234 1838 2234 
L 1294 2234 
L 1294 2753 
L 1863 2753 
Q 2328 2753 2575 2939 
Q 2822 3125 2822 3475 
Q 2822 3834 2567 4026 
Q 2313 4219 1838 4219 
Q 1578 4219 1281 4162 
Q 984 4106 628 3988 
L 628 4550 
Q 988 4650 1302 4700 
Q 1616 4750 1894 4750 
Q 2613 4750 3031 4423 
Q 3450 4097 3450 3541 
Q 3450 3153 3228 2886 
Q 3006 2619 2597 2516 
z
" transform="scale(0.015625)"/>
       </defs>
       <use xlink:href="#DejaVuSans-2212"/>
       <use xlink:href="#DejaVuSans-31" x="83.789062"/>
       <use xlink:href="#DejaVuSans-33" x="147.412109"/>
       <use xlink:href="#DejaVuSans-30" x="211.035156"/>
      </g>
     </g>
    </g>
    <g id="ytick_3">
     <g id="line2d_3">
      <g>
       <use xlink:href="#m5360e5111a" x="54.92" y="9.934857" style="stroke: #000000; stroke-width: 0.8"/>
      </g>
     </g>
     <g id="text_3">
      <!-- −120 -->
      <g transform="translate(20.452813 13.734076)scale(0.1 -0.1)">
       <defs>
        <path id="DejaVuSans-32" d="M 1228 531 
L 3431 531 
L 3431 0 
L 469 0 
L 469 531 
Q 828 903 1448 1529 
Q 2069 2156 2228 2338 
Q 2531 2678 2651 2914 
Q 2772 3150 2772 3378 
Q 2772 3750 2511 3984 
Q 2250 4219 1831 4219 
Q 1534 4219 1204 4116 
Q 875 4013 500 3803 
L 500 4441 
Q 881 4594 1212 4672 
Q 1544 4750 1819 4750 
Q 2544 4750 2975 4387 
Q 3406 4025 3406 3419 
Q 3406 3131 3298 2873 
Q 3191 2616 2906 2266 
Q 2828 2175 2409 1742 
Q 1991 1309 1228 531 
z
" transform="scale(0.015625)"/>
       </defs>
       <use xlink:href="#DejaVuSans-2212"/>
       <use xlink:href="#DejaVuSans-31" x="83.789062"/>
       <use xlink:href="#DejaVuSans-32" x="147.412109"/>
       <use xlink:href="#DejaVuSans-30" x="211.035156"/>
      </g>
     </g>
    </g>
    <g id="text_4">
     <!-- yaw [°] -->
     <g transform="translate(12.917344 69.90943)rotate(-90)scale(0.17 -0.17)">
      <defs>
       <path id="DejaVuSans-79" d="M 2059 -325 
Q 1816 -950 1584 -1140 
Q 1353 -1331 966 -1331 
L 506 -1331 
L 506 -850 
L 844 -850 
Q 1081 -850 1212 -737 
Q 1344 -625 1503 -206 
L 1606 56 
L 191 3500 
L 800 3500 
L 1894 763 
L 2988 3500 
L 3597 3500 
L 2059 -325 
z
" transform="scale(0.015625)"/>
       <path id="DejaVuSans-61" d="M 2194 1759 
Q 1497 1759 1228 1600 
Q 959 1441 959 1056 
Q 959 750 1161 570 
Q 1363 391 1709 391 
Q 2188 391 2477 730 
Q 2766 1069 2766 1631 
L 2766 1759 
L 2194 1759 
z
M 3341 1997 
L 3341 0 
L 2766 0 
L 2766 531 
Q 2569 213 2275 61 
Q 1981 -91 1556 -91 
Q 1019 -91 701 211 
Q 384 513 384 1019 
Q 384 1609 779 1909 
Q 1175 2209 1959 2209 
L 2766 2209 
L 2766 2266 
Q 2766 2663 2505 2880 
Q 2244 3097 1772 3097 
Q 1472 3097 1187 3025 
Q 903 2953 641 2809 
L 641 3341 
Q 956 3463 1253 3523 
Q 1550 3584 1831 3584 
Q 2591 3584 2966 3190 
Q 3341 2797 3341 1997 
z
" transform="scale(0.015625)"/>
       <path id="DejaVuSans-77" d="M 269 3500 
L 844 3500 
L 1563 769 
L 2278 3500 
L 2956 3500 
L 3675 769 
L 4391 3500 
L 4966 3500 
L 4050 0 
L 3372 0 
L 2619 2869 
L 1863 0 
L 1184 0 
L 269 3500 
z
" transform="scale(0.015625)"/>
       <path id="DejaVuSans-20" transform="scale(0.015625)"/>
       <path id="DejaVuSans-5b" d="M 550 4863 
L 1875 4863 
L 1875 4416 
L 1125 4416 
L 1125 -397 
L 1875 -397 
L 1875 -844 
L 550 -844 
L 550 4863 
z
" transform="scale(0.015625)"/>
       <path id="DejaVuSans-b0" d="M 1600 4347 
Q 1350 4347 1178 4173 
Q 1006 4000 1006 3750 
Q 1006 3503 1178 3333 
Q 1350 3163 1600 3163 
Q 1850 3163 2022 3333 
Q 2194 3503 2194 3750 
Q 2194 3997 2020 4172 
Q 1847 4347 1600 4347 
z
M 1600 4750 
Q 1800 4750 1984 4673 
Q 2169 4597 2303 4453 
Q 2447 4313 2519 4134 
Q 2591 3956 2591 3750 
Q 2591 3338 2302 3052 
Q 2013 2766 1594 2766 
Q 1172 2766 890 3047 
Q 609 3328 609 3750 
Q 609 4169 896 4459 
Q 1184 4750 1600 4750 
z
" transform="scale(0.015625)"/>
       <path id="DejaVuSans-5d" d="M 1947 4863 
L 1947 -844 
L 622 -844 
L 622 -397 
L 1369 -397 
L 1369 4416 
L 622 4416 
L 622 4863 
L 1947 4863 
z
" transform="scale(0.015625)"/>
      </defs>
      <use xlink:href="#DejaVuSans-79"/>
      <use xlink:href="#DejaVuSans-61" x="59.179688"/>
      <use xlink:href="#DejaVuSans-77" x="120.458984"/>
      <use xlink:href="#DejaVuSans-20" x="202.246094"/>
      <use xlink:href="#DejaVuSans-5b" x="234.033203"/>
      <use xlink:href="#DejaVuSans-b0" x="273.046875"/>
      <use xlink:href="#DejaVuSans-5d" x="323.046875"/>
     </g>
    </g>
   </g>
   <g id="line2d_4">
    <path d="M 71.152727 32.192685 
L 73.220591 39.160714 
L 75.288454 47.120559 
L 77.356317 46.667115 
L 79.424181 46.797374 
L 81.492044 47.586833 
L 83.559907 56.557965 
L 85.627771 56.298913 
L 87.695634 51.107426 
L 89.763497 51.724 
L 91.831361 48.990353 
L 95.967087 38.273393 
L 98.034951 35.811184 
L 100.102814 23.55509 
L 102.170677 5.82693 
L 104.238541 6.47923 
L 106.306404 18.775078 
L 108.374268 33.165044 
L 110.442131 40.975893 
L 112.509994 43.059213 
L 114.577858 41.464716 
L 116.645721 47.637007 
L 120.781448 60.983468 
L 122.849311 59.222235 
L 124.917174 58.437731 
L 126.985038 55.18545 
L 129.052901 51.416856 
L 131.120764 45.121257 
L 133.188628 33.254944 
L 135.256491 30.129938 
L 137.324354 31.382729 
L 139.392218 34.496837 
L 141.460081 30.459367 
L 143.527944 30.845889 
L 145.595808 35.650631 
L 147.663671 36.627274 
L 149.731534 38.054764 
L 151.799398 34.15724 
L 153.867261 39.437782 
L 155.935124 42.529006 
L 158.002988 43.229405 
L 160.070851 45.892661 
L 162.138715 49.869033 
L 164.206578 54.322532 
L 166.274441 57.371287 
L 168.342305 54.868389 
L 170.410168 57.508601 
L 172.478031 60.759488 
L 174.545895 60.914723 
L 176.613758 61.532214 
L 178.681621 60.629075 
L 180.749485 57.97194 
L 182.817348 54.430659 
L 184.885211 52.22991 
L 186.953075 48.811236 
L 189.020938 44.400554 
L 191.088801 43.009231 
L 193.156665 35.110057 
L 195.224528 31.420544 
L 197.292391 34.48253 
L 199.360255 39.669502 
L 201.428118 43.001875 
L 203.495981 43.436841 
L 205.563845 43.700684 
L 207.631708 45.137888 
L 209.699572 47.98168 
L 211.767435 46.004503 
L 213.835298 40.993014 
L 215.903162 37.987562 
L 217.971025 38.955118 
L 220.038888 40.376373 
L 222.106752 44.149802 
L 224.174615 43.411354 
L 226.242478 46.989669 
L 228.310342 48.75233 
L 230.378205 48.091147 
L 232.446068 52.139776 
L 234.513932 51.891136 
L 236.581795 51.444824 
L 238.649658 53.230528 
L 240.717522 59.829934 
L 242.785385 58.599052 
L 244.853248 57.729728 
L 246.921112 56.541909 
L 248.988975 56.792012 
L 251.056838 56.676857 
L 253.124702 59.037341 
L 255.192565 62.537334 
L 257.260428 57.935167 
L 259.328292 57.41785 
L 261.396155 56.628358 
L 263.464019 57.557096 
L 265.531882 55.86273 
L 267.599745 50.028129 
L 269.667609 49.395176 
L 271.735472 51.059609 
L 273.803335 50.591092 
L 275.871199 52.09771 
L 277.939062 50.121627 
L 282.074789 50.105262 
L 284.142652 56.054631 
L 286.210515 57.645569 
L 288.278379 62.94608 
L 290.346242 61.225613 
L 292.414105 58.128259 
L 294.481969 49.527228 
L 296.549832 45.353213 
L 298.617695 43.318306 
L 300.685559 42.972456 
L 302.753422 39.600121 
L 304.821285 37.137121 
L 306.889149 36.274834 
L 308.957012 37.910473 
L 311.024876 41.259241 
L 313.092739 41.258205 
L 315.160602 40.950335 
L 317.228466 47.471748 
L 319.296329 49.712776 
L 321.364192 48.886709 
L 323.432056 53.585308 
L 325.499919 54.441099 
L 327.567782 58.925289 
L 329.635646 66.640802 
L 331.703509 69.837345 
L 333.771372 73.833201 
L 335.839236 74.710588 
L 337.907099 72.140829 
L 339.974962 65.192307 
L 342.042826 59.889769 
L 344.110689 51.838145 
L 346.178552 45.616064 
L 348.246416 43.895391 
L 350.314279 41.929552 
L 352.382142 42.526263 
L 354.450006 40.935332 
L 356.517869 42.857948 
L 358.585732 37.778197 
L 360.653596 37.807221 
L 362.721459 41.551232 
L 364.789323 47.541208 
L 366.857186 52.978641 
L 368.925049 58.856845 
L 370.992913 64.312217 
L 373.060776 64.41639 
L 375.128639 64.707649 
L 377.196503 62.749821 
L 379.264366 60.469317 
L 381.332229 59.64046 
L 383.400093 59.69187 
L 385.467956 58.754057 
L 387.535819 60.977967 
L 389.603683 60.281428 
L 391.671546 59.747317 
L 393.739409 59.761174 
L 395.807273 58.365725 
L 395.807273 58.365725 
" clip-path="url(#p3a279bc7ae)" style="fill: none; stroke: #008000; stroke-width: 1.5; stroke-linecap: square"/>
   </g>
   <g id="line2d_5">
    <path d="M 71.152727 32.192555 
L 73.220591 39.499958 
L 75.288454 47.900059 
L 77.356317 47.203804 
L 79.424181 48.180047 
L 81.492044 48.524017 
L 83.559907 57.829086 
L 85.627771 59.536883 
L 87.695634 54.327894 
L 89.763497 52.1013 
L 91.831361 52.511736 
L 93.899224 45.33144 
L 95.967087 38.898078 
L 98.034951 37.891491 
L 100.102814 25.563241 
L 102.170677 5.772648 
L 104.238541 3.557647 
L 106.306404 14.980927 
L 108.374268 32.210796 
L 110.442131 39.413724 
L 112.509994 44.120824 
L 114.577858 41.72137 
L 116.645721 47.673552 
L 118.713584 55.919105 
L 120.781448 62.982832 
L 122.849311 62.880904 
L 124.917174 61.535454 
L 126.985038 59.003044 
L 131.120764 47.586435 
L 133.188628 34.561563 
L 135.256491 29.634599 
L 137.324354 31.006623 
L 139.392218 34.972776 
L 141.460081 31.074982 
L 143.527944 30.514952 
L 145.595808 34.527347 
L 147.663671 37.985684 
L 149.731534 36.58437 
L 151.799398 33.978848 
L 153.867261 35.960212 
L 155.935124 41.956372 
L 160.070851 43.609039 
L 162.138715 48.889761 
L 164.206578 52.561745 
L 166.274441 57.546209 
L 168.342305 55.455261 
L 170.410168 57.573382 
L 172.478031 60.76069 
L 174.545895 61.492694 
L 176.613758 61.692105 
L 178.681621 61.083046 
L 180.749485 60.024719 
L 182.817348 55.063706 
L 186.953075 46.466096 
L 189.020938 44.149213 
L 191.088801 43.289336 
L 193.156665 32.22522 
L 195.224528 28.807516 
L 197.292391 29.378028 
L 199.360255 35.478813 
L 201.428118 39.784739 
L 203.495981 41.877837 
L 205.563845 41.302645 
L 207.631708 43.023131 
L 209.699572 44.355784 
L 211.767435 43.66542 
L 213.835298 38.810832 
L 215.903162 35.615136 
L 217.971025 37.457116 
L 220.038888 38.229703 
L 222.106752 41.978813 
L 224.174615 40.687068 
L 226.242478 44.780427 
L 228.310342 47.829884 
L 230.378205 45.142451 
L 232.446068 50.453458 
L 234.513932 48.983991 
L 236.581795 49.898737 
L 238.649658 51.435567 
L 240.717522 58.327305 
L 242.785385 65.955537 
L 244.853248 57.191998 
L 246.921112 53.383082 
L 248.988975 52.972502 
L 251.056838 53.312641 
L 253.124702 56.105227 
L 255.192565 60.73419 
L 257.260428 56.553984 
L 259.328292 54.999546 
L 261.396155 54.273809 
L 263.464019 54.978208 
L 265.531882 53.897491 
L 267.599745 46.949309 
L 269.667609 44.146933 
L 271.735472 46.50804 
L 273.803335 44.824433 
L 275.871199 47.669835 
L 277.939062 46.89062 
L 280.006925 45.468869 
L 282.074789 46.027609 
L 284.142652 51.827665 
L 286.210515 55.873322 
L 288.278379 61.485215 
L 290.346242 62.306026 
L 292.414105 58.262706 
L 294.481969 49.212743 
L 296.549832 43.593436 
L 298.617695 41.236556 
L 300.685559 39.791247 
L 302.753422 36.875333 
L 304.821285 34.747279 
L 306.889149 31.38386 
L 308.957012 32.885545 
L 311.024876 35.8898 
L 313.092739 35.670419 
L 315.160602 34.210146 
L 317.228466 42.163795 
L 319.296329 46.230045 
L 321.364192 46.320055 
L 323.432056 49.830087 
L 327.567782 56.042559 
L 329.635646 65.016967 
L 333.771372 73.95776 
L 335.839236 73.015427 
L 337.907099 70.063438 
L 339.974962 63.544538 
L 342.042826 57.455884 
L 344.110689 47.304217 
L 346.178552 40.270072 
L 348.246416 37.100519 
L 350.314279 34.798016 
L 352.382142 34.879108 
L 354.450006 31.922551 
L 356.517869 33.112094 
L 358.585732 30.448281 
L 360.653596 28.650137 
L 362.721459 31.895855 
L 364.789323 39.121913 
L 370.992913 58.774985 
L 373.060776 59.496925 
L 375.128639 59.355862 
L 377.196503 58.438057 
L 379.264366 55.929521 
L 381.332229 55.571445 
L 383.400093 54.267774 
L 385.467956 54.274052 
L 387.535819 56.067603 
L 389.603683 55.564503 
L 391.671546 55.545007 
L 393.739409 55.260148 
L 395.807273 54.254624 
L 395.807273 54.254624 
" clip-path="url(#p3a279bc7ae)" style="fill: none; stroke: #ff0000; stroke-width: 1.5; stroke-linecap: square"/>
   </g>
   <g id="patch_3">
    <path d="M 54.92 78.268235 
L 54.92 0 
" style="fill: none; stroke: #000000; stroke-width: 0.8; stroke-linejoin: miter; stroke-linecap: square"/>
   </g>
   <g id="patch_4">
    <path d="M 412.04 78.268235 
L 412.04 0 
" style="fill: none; stroke: #000000; stroke-width: 0.8; stroke-linejoin: miter; stroke-linecap: square"/>
   </g>
   <g id="patch_5">
    <path d="M 54.92 78.268235 
L 412.04 78.268235 
" style="fill: none; stroke: #000000; stroke-width: 0.8; stroke-linejoin: miter; stroke-linecap: square"/>
   </g>
   <g id="patch_6">
    <path d="M 54.92 0 
L 412.04 0 
" style="fill: none; stroke: #000000; stroke-width: 0.8; stroke-linejoin: miter; stroke-linecap: square"/>
   </g>
   <g id="legend_1">
    <g id="patch_7">
     <path d="M 235.234688 63.978437 
L 400.14 63.978437 
Q 403.54 63.978437 403.54 60.578437 
L 403.54 11.9 
Q 403.54 8.5 400.14 8.5 
L 235.234688 8.5 
Q 231.834688 8.5 231.834688 11.9 
L 231.834688 60.578437 
Q 231.834688 63.978437 235.234688 63.978437 
z
" style="fill: #ffffff; opacity: 0.8; stroke: #cccccc; stroke-linejoin: miter"/>
    </g>
    <g id="line2d_6">
     <path d="M 238.634688 22.267344 
L 255.634688 22.267344 
L 272.634688 22.267344 
" style="fill: none; stroke: #008000; stroke-width: 1.5; stroke-linecap: square"/>
    </g>
    <g id="text_5">
     <!-- ground_truth -->
     <g transform="translate(286.234688 28.217344)scale(0.17 -0.17)">
      <defs>
       <path id="DejaVuSans-67" d="M 2906 1791 
Q 2906 2416 2648 2759 
Q 2391 3103 1925 3103 
Q 1463 3103 1205 2759 
Q 947 2416 947 1791 
Q 947 1169 1205 825 
Q 1463 481 1925 481 
Q 2391 481 2648 825 
Q 2906 1169 2906 1791 
z
M 3481 434 
Q 3481 -459 3084 -895 
Q 2688 -1331 1869 -1331 
Q 1566 -1331 1297 -1286 
Q 1028 -1241 775 -1147 
L 775 -588 
Q 1028 -725 1275 -790 
Q 1522 -856 1778 -856 
Q 2344 -856 2625 -561 
Q 2906 -266 2906 331 
L 2906 616 
Q 2728 306 2450 153 
Q 2172 0 1784 0 
Q 1141 0 747 490 
Q 353 981 353 1791 
Q 353 2603 747 3093 
Q 1141 3584 1784 3584 
Q 2172 3584 2450 3431 
Q 2728 3278 2906 2969 
L 2906 3500 
L 3481 3500 
L 3481 434 
z
" transform="scale(0.015625)"/>
       <path id="DejaVuSans-72" d="M 2631 2963 
Q 2534 3019 2420 3045 
Q 2306 3072 2169 3072 
Q 1681 3072 1420 2755 
Q 1159 2438 1159 1844 
L 1159 0 
L 581 0 
L 581 3500 
L 1159 3500 
L 1159 2956 
Q 1341 3275 1631 3429 
Q 1922 3584 2338 3584 
Q 2397 3584 2469 3576 
Q 2541 3569 2628 3553 
L 2631 2963 
z
" transform="scale(0.015625)"/>
       <path id="DejaVuSans-6f" d="M 1959 3097 
Q 1497 3097 1228 2736 
Q 959 2375 959 1747 
Q 959 1119 1226 758 
Q 1494 397 1959 397 
Q 2419 397 2687 759 
Q 2956 1122 2956 1747 
Q 2956 2369 2687 2733 
Q 2419 3097 1959 3097 
z
M 1959 3584 
Q 2709 3584 3137 3096 
Q 3566 2609 3566 1747 
Q 3566 888 3137 398 
Q 2709 -91 1959 -91 
Q 1206 -91 779 398 
Q 353 888 353 1747 
Q 353 2609 779 3096 
Q 1206 3584 1959 3584 
z
" transform="scale(0.015625)"/>
       <path id="DejaVuSans-75" d="M 544 1381 
L 544 3500 
L 1119 3500 
L 1119 1403 
Q 1119 906 1312 657 
Q 1506 409 1894 409 
Q 2359 409 2629 706 
Q 2900 1003 2900 1516 
L 2900 3500 
L 3475 3500 
L 3475 0 
L 2900 0 
L 2900 538 
Q 2691 219 2414 64 
Q 2138 -91 1772 -91 
Q 1169 -91 856 284 
Q 544 659 544 1381 
z
M 1991 3584 
L 1991 3584 
z
" transform="scale(0.015625)"/>
       <path id="DejaVuSans-6e" d="M 3513 2113 
L 3513 0 
L 2938 0 
L 2938 2094 
Q 2938 2591 2744 2837 
Q 2550 3084 2163 3084 
Q 1697 3084 1428 2787 
Q 1159 2491 1159 1978 
L 1159 0 
L 581 0 
L 581 3500 
L 1159 3500 
L 1159 2956 
Q 1366 3272 1645 3428 
Q 1925 3584 2291 3584 
Q 2894 3584 3203 3211 
Q 3513 2838 3513 2113 
z
" transform="scale(0.015625)"/>
       <path id="DejaVuSans-64" d="M 2906 2969 
L 2906 4863 
L 3481 4863 
L 3481 0 
L 2906 0 
L 2906 525 
Q 2725 213 2448 61 
Q 2172 -91 1784 -91 
Q 1150 -91 751 415 
Q 353 922 353 1747 
Q 353 2572 751 3078 
Q 1150 3584 1784 3584 
Q 2172 3584 2448 3432 
Q 2725 3281 2906 2969 
z
M 947 1747 
Q 947 1113 1208 752 
Q 1469 391 1925 391 
Q 2381 391 2643 752 
Q 2906 1113 2906 1747 
Q 2906 2381 2643 2742 
Q 2381 3103 1925 3103 
Q 1469 3103 1208 2742 
Q 947 2381 947 1747 
z
" transform="scale(0.015625)"/>
       <path id="DejaVuSans-5f" d="M 3263 -1063 
L 3263 -1509 
L -63 -1509 
L -63 -1063 
L 3263 -1063 
z
" transform="scale(0.015625)"/>
       <path id="DejaVuSans-74" d="M 1172 4494 
L 1172 3500 
L 2356 3500 
L 2356 3053 
L 1172 3053 
L 1172 1153 
Q 1172 725 1289 603 
Q 1406 481 1766 481 
L 2356 481 
L 2356 0 
L 1766 0 
Q 1100 0 847 248 
Q 594 497 594 1153 
L 594 3053 
L 172 3053 
L 172 3500 
L 594 3500 
L 594 4494 
L 1172 4494 
z
" transform="scale(0.015625)"/>
       <path id="DejaVuSans-68" d="M 3513 2113 
L 3513 0 
L 2938 0 
L 2938 2094 
Q 2938 2591 2744 2837 
Q 2550 3084 2163 3084 
Q 1697 3084 1428 2787 
Q 1159 2491 1159 1978 
L 1159 0 
L 581 0 
L 581 4863 
L 1159 4863 
L 1159 2956 
Q 1366 3272 1645 3428 
Q 1925 3584 2291 3584 
Q 2894 3584 3203 3211 
Q 3513 2838 3513 2113 
z
" transform="scale(0.015625)"/>
      </defs>
      <use xlink:href="#DejaVuSans-67"/>
      <use xlink:href="#DejaVuSans-72" x="63.476562"/>
      <use xlink:href="#DejaVuSans-6f" x="102.339844"/>
      <use xlink:href="#DejaVuSans-75" x="163.521484"/>
      <use xlink:href="#DejaVuSans-6e" x="226.900391"/>
      <use xlink:href="#DejaVuSans-64" x="290.279297"/>
      <use xlink:href="#DejaVuSans-5f" x="353.755859"/>
      <use xlink:href="#DejaVuSans-74" x="403.755859"/>
      <use xlink:href="#DejaVuSans-72" x="442.964844"/>
      <use xlink:href="#DejaVuSans-75" x="484.078125"/>
      <use xlink:href="#DejaVuSans-74" x="547.457031"/>
      <use xlink:href="#DejaVuSans-68" x="586.666016"/>
     </g>
    </g>
    <g id="line2d_7">
     <path d="M 238.634688 47.692969 
L 255.634688 47.692969 
L 272.634688 47.692969 
" style="fill: none; stroke: #ff0000; stroke-width: 1.5; stroke-linecap: square"/>
    </g>
    <g id="text_6">
     <!-- estimated -->
     <g transform="translate(286.234688 53.642969)scale(0.17 -0.17)">
      <defs>
       <path id="DejaVuSans-65" d="M 3597 1894 
L 3597 1613 
L 953 1613 
Q 991 1019 1311 708 
Q 1631 397 2203 397 
Q 2534 397 2845 478 
Q 3156 559 3463 722 
L 3463 178 
Q 3153 47 2828 -22 
Q 2503 -91 2169 -91 
Q 1331 -91 842 396 
Q 353 884 353 1716 
Q 353 2575 817 3079 
Q 1281 3584 2069 3584 
Q 2775 3584 3186 3129 
Q 3597 2675 3597 1894 
z
M 3022 2063 
Q 3016 2534 2758 2815 
Q 2500 3097 2075 3097 
Q 1594 3097 1305 2825 
Q 1016 2553 972 2059 
L 3022 2063 
z
" transform="scale(0.015625)"/>
       <path id="DejaVuSans-73" d="M 2834 3397 
L 2834 2853 
Q 2591 2978 2328 3040 
Q 2066 3103 1784 3103 
Q 1356 3103 1142 2972 
Q 928 2841 928 2578 
Q 928 2378 1081 2264 
Q 1234 2150 1697 2047 
L 1894 2003 
Q 2506 1872 2764 1633 
Q 3022 1394 3022 966 
Q 3022 478 2636 193 
Q 2250 -91 1575 -91 
Q 1294 -91 989 -36 
Q 684 19 347 128 
L 347 722 
Q 666 556 975 473 
Q 1284 391 1588 391 
Q 1994 391 2212 530 
Q 2431 669 2431 922 
Q 2431 1156 2273 1281 
Q 2116 1406 1581 1522 
L 1381 1569 
Q 847 1681 609 1914 
Q 372 2147 372 2553 
Q 372 3047 722 3315 
Q 1072 3584 1716 3584 
Q 2034 3584 2315 3537 
Q 2597 3491 2834 3397 
z
" transform="scale(0.015625)"/>
       <path id="DejaVuSans-69" d="M 603 3500 
L 1178 3500 
L 1178 0 
L 603 0 
L 603 3500 
z
M 603 4863 
L 1178 4863 
L 1178 4134 
L 603 4134 
L 603 4863 
z
" transform="scale(0.015625)"/>
       <path id="DejaVuSans-6d" d="M 3328 2828 
Q 3544 3216 3844 3400 
Q 4144 3584 4550 3584 
Q 5097 3584 5394 3201 
Q 5691 2819 5691 2113 
L 5691 0 
L 5113 0 
L 5113 2094 
Q 5113 2597 4934 2840 
Q 4756 3084 4391 3084 
Q 3944 3084 3684 2787 
Q 3425 2491 3425 1978 
L 3425 0 
L 2847 0 
L 2847 2094 
Q 2847 2600 2669 2842 
Q 2491 3084 2119 3084 
Q 1678 3084 1418 2786 
Q 1159 2488 1159 1978 
L 1159 0 
L 581 0 
L 581 3500 
L 1159 3500 
L 1159 2956 
Q 1356 3278 1631 3431 
Q 1906 3584 2284 3584 
Q 2666 3584 2933 3390 
Q 3200 3197 3328 2828 
z
" transform="scale(0.015625)"/>
      </defs>
      <use xlink:href="#DejaVuSans-65"/>
      <use xlink:href="#DejaVuSans-73" x="61.523438"/>
      <use xlink:href="#DejaVuSans-74" x="113.623047"/>
      <use xlink:href="#DejaVuSans-69" x="152.832031"/>
      <use xlink:href="#DejaVuSans-6d" x="180.615234"/>
      <use xlink:href="#DejaVuSans-61" x="278.027344"/>
      <use xlink:href="#DejaVuSans-74" x="339.306641"/>
      <use xlink:href="#DejaVuSans-65" x="378.515625"/>
      <use xlink:href="#DejaVuSans-64" x="440.039062"/>
     </g>
    </g>
   </g>
  </g>
  <g id="axes_2">
   <g id="patch_8">
    <path d="M 54.92 172.190118 
L 412.04 172.190118 
L 412.04 93.921882 
L 54.92 93.921882 
z
" style="fill: #ffffff"/>
   </g>
   <g id="matplotlib.axis_3"/>
   <g id="matplotlib.axis_4">
    <g id="ytick_4">
     <g id="line2d_8">
      <g>
       <use xlink:href="#m5360e5111a" x="54.92" y="152.416779" style="stroke: #000000; stroke-width: 0.8"/>
      </g>
     </g>
     <g id="text_7">
      <!-- −5 -->
      <g transform="translate(33.177813 156.215998)scale(0.1 -0.1)">
       <defs>
        <path id="DejaVuSans-35" d="M 691 4666 
L 3169 4666 
L 3169 4134 
L 1269 4134 
L 1269 2991 
Q 1406 3038 1543 3061 
Q 1681 3084 1819 3084 
Q 2600 3084 3056 2656 
Q 3513 2228 3513 1497 
Q 3513 744 3044 326 
Q 2575 -91 1722 -91 
Q 1428 -91 1123 -41 
Q 819 9 494 109 
L 494 744 
Q 775 591 1075 516 
Q 1375 441 1709 441 
Q 2250 441 2565 725 
Q 2881 1009 2881 1497 
Q 2881 1984 2565 2268 
Q 2250 2553 1709 2553 
Q 1456 2553 1204 2497 
Q 953 2441 691 2322 
L 691 4666 
z
" transform="scale(0.015625)"/>
       </defs>
       <use xlink:href="#DejaVuSans-2212"/>
       <use xlink:href="#DejaVuSans-35" x="83.789062"/>
      </g>
     </g>
    </g>
    <g id="ytick_5">
     <g id="line2d_9">
      <g>
       <use xlink:href="#m5360e5111a" x="54.92" y="124.527922" style="stroke: #000000; stroke-width: 0.8"/>
      </g>
     </g>
     <g id="text_8">
      <!-- 0 -->
      <g transform="translate(41.5575 128.327141)scale(0.1 -0.1)">
       <use xlink:href="#DejaVuSans-30"/>
      </g>
     </g>
    </g>
    <g id="ytick_6">
     <g id="line2d_10">
      <g>
       <use xlink:href="#m5360e5111a" x="54.92" y="96.639065" style="stroke: #000000; stroke-width: 0.8"/>
      </g>
     </g>
     <g id="text_9">
      <!-- 5 -->
      <g transform="translate(41.5575 100.438284)scale(0.1 -0.1)">
       <use xlink:href="#DejaVuSans-35"/>
      </g>
     </g>
    </g>
    <g id="text_10">
     <!-- pitch [°] -->
     <g transform="translate(25.642344 167.790453)rotate(-90)scale(0.17 -0.17)">
      <defs>
       <path id="DejaVuSans-70" d="M 1159 525 
L 1159 -1331 
L 581 -1331 
L 581 3500 
L 1159 3500 
L 1159 2969 
Q 1341 3281 1617 3432 
Q 1894 3584 2278 3584 
Q 2916 3584 3314 3078 
Q 3713 2572 3713 1747 
Q 3713 922 3314 415 
Q 2916 -91 2278 -91 
Q 1894 -91 1617 61 
Q 1341 213 1159 525 
z
M 3116 1747 
Q 3116 2381 2855 2742 
Q 2594 3103 2138 3103 
Q 1681 3103 1420 2742 
Q 1159 2381 1159 1747 
Q 1159 1113 1420 752 
Q 1681 391 2138 391 
Q 2594 391 2855 752 
Q 3116 1113 3116 1747 
z
" transform="scale(0.015625)"/>
       <path id="DejaVuSans-63" d="M 3122 3366 
L 3122 2828 
Q 2878 2963 2633 3030 
Q 2388 3097 2138 3097 
Q 1578 3097 1268 2742 
Q 959 2388 959 1747 
Q 959 1106 1268 751 
Q 1578 397 2138 397 
Q 2388 397 2633 464 
Q 2878 531 3122 666 
L 3122 134 
Q 2881 22 2623 -34 
Q 2366 -91 2075 -91 
Q 1284 -91 818 406 
Q 353 903 353 1747 
Q 353 2603 823 3093 
Q 1294 3584 2113 3584 
Q 2378 3584 2631 3529 
Q 2884 3475 3122 3366 
z
" transform="scale(0.015625)"/>
      </defs>
      <use xlink:href="#DejaVuSans-70"/>
      <use xlink:href="#DejaVuSans-69" x="63.476562"/>
      <use xlink:href="#DejaVuSans-74" x="91.259766"/>
      <use xlink:href="#DejaVuSans-63" x="130.46875"/>
      <use xlink:href="#DejaVuSans-68" x="185.449219"/>
      <use xlink:href="#DejaVuSans-20" x="248.828125"/>
      <use xlink:href="#DejaVuSans-5b" x="280.615234"/>
      <use xlink:href="#DejaVuSans-b0" x="319.628906"/>
      <use xlink:href="#DejaVuSans-5d" x="369.628906"/>
     </g>
    </g>
   </g>
   <g id="line2d_11">
    <path d="M 71.152727 127.791339 
L 73.220591 120.97193 
L 75.288454 122.433552 
L 77.356317 122.088085 
L 79.424181 126.499295 
L 81.492044 116.232779 
L 83.559907 105.299908 
L 85.627771 104.930395 
L 87.695634 99.179105 
L 89.763497 104.277852 
L 91.831361 103.831608 
L 93.899224 116.443011 
L 95.967087 124.650875 
L 98.034951 124.444133 
L 100.102814 132.143025 
L 102.170677 137.589669 
L 104.238541 134.516214 
L 106.306404 137.504907 
L 108.374268 128.172076 
L 110.442131 121.264796 
L 112.509994 118.797533 
L 114.577858 124.636193 
L 116.645721 124.764637 
L 118.713584 119.71131 
L 120.781448 118.142309 
L 122.849311 123.581476 
L 124.917174 118.711858 
L 126.985038 112.787318 
L 129.052901 125.616637 
L 131.120764 130.549504 
L 133.188628 139.154779 
L 135.256491 143.565631 
L 137.324354 141.51474 
L 139.392218 142.595802 
L 141.460081 152.238501 
L 143.527944 156.709683 
L 145.595808 153.182349 
L 147.663671 144.856197 
L 149.731534 151.275404 
L 151.799398 135.80942 
L 153.867261 133.908375 
L 155.935124 117.774938 
L 158.002988 121.028565 
L 160.070851 118.657497 
L 162.138715 116.572602 
L 164.206578 125.025314 
L 166.274441 126.657248 
L 170.410168 116.200729 
L 172.478031 116.751289 
L 174.545895 115.326241 
L 176.613758 117.91454 
L 178.681621 122.597737 
L 180.749485 117.79105 
L 182.817348 126.919031 
L 184.885211 124.348992 
L 186.953075 140.441105 
L 189.020938 136.949649 
L 191.088801 165.89044 
L 193.156665 168.632471 
L 195.224528 147.333015 
L 197.292391 141.990712 
L 199.360255 139.469619 
L 201.428118 133.900063 
L 203.495981 130.763825 
L 205.563845 115.334232 
L 207.631708 111.073843 
L 209.699572 120.722749 
L 211.767435 133.365403 
L 213.835298 141.377487 
L 215.903162 141.029538 
L 217.971025 137.423631 
L 220.038888 130.301109 
L 222.106752 121.184405 
L 224.174615 123.307712 
L 226.242478 126.21133 
L 228.310342 129.71688 
L 230.378205 127.329893 
L 232.446068 117.287767 
L 234.513932 107.974336 
L 236.581795 108.679051 
L 238.649658 115.082377 
L 240.717522 123.711967 
L 242.785385 130.434142 
L 244.853248 127.822521 
L 246.921112 134.166556 
L 248.988975 139.026199 
L 251.056838 131.536477 
L 253.124702 119.201626 
L 255.192565 124.318038 
L 257.260428 119.558203 
L 259.328292 112.041664 
L 261.396155 107.758349 
L 263.464019 111.389671 
L 265.531882 120.382662 
L 267.599745 122.931962 
L 269.667609 118.254398 
L 271.735472 124.958228 
L 273.803335 122.931587 
L 275.871199 129.172231 
L 277.939062 121.086689 
L 280.006925 116.157494 
L 282.074789 118.052199 
L 284.142652 121.322968 
L 286.210515 115.894453 
L 288.278379 119.530093 
L 290.346242 114.821022 
L 292.414105 118.571169 
L 294.481969 112.462734 
L 296.549832 103.316159 
L 298.617695 103.44053 
L 300.685559 107.452983 
L 302.753422 107.245395 
L 304.821285 105.082775 
L 306.889149 105.735936 
L 308.957012 113.361465 
L 311.024876 106.494175 
L 313.092739 107.596165 
L 315.160602 119.108498 
L 317.228466 121.532174 
L 319.296329 115.6205 
L 321.364192 111.125889 
L 323.432056 116.702305 
L 325.499919 112.469671 
L 327.567782 114.85264 
L 329.635646 119.070546 
L 331.703509 116.124392 
L 333.771372 118.401409 
L 335.839236 114.878828 
L 337.907099 108.074438 
L 339.974962 107.572719 
L 342.042826 101.734708 
L 344.110689 103.907159 
L 346.178552 104.455081 
L 348.246416 104.822845 
L 350.314279 102.21011 
L 352.382142 103.548321 
L 354.450006 111.163637 
L 356.517869 124.089485 
L 358.585732 119.16816 
L 360.653596 121.745637 
L 362.721459 106.95041 
L 364.789323 105.801761 
L 366.857186 113.558419 
L 370.992913 109.277313 
L 373.060776 110.245028 
L 375.128639 108.863625 
L 377.196503 104.133952 
L 379.264366 104.010707 
L 381.332229 103.096009 
L 383.400093 101.464761 
L 385.467956 101.93575 
L 387.535819 100.783433 
L 389.603683 98.153201 
L 391.671546 99.311432 
L 393.739409 101.672572 
L 395.807273 101.526555 
L 395.807273 101.526555 
" clip-path="url(#p1e71ffb090)" style="fill: none; stroke: #008000; stroke-width: 1.5; stroke-linecap: square"/>
   </g>
   <g id="line2d_12">
    <path d="M 71.152727 127.791199 
L 73.220591 120.409623 
L 75.288454 120.618363 
L 77.356317 119.831385 
L 79.424181 128.317005 
L 81.492044 114.933955 
L 83.559907 103.097338 
L 85.627771 102.370036 
L 87.695634 97.479529 
L 89.763497 103.845321 
L 91.831361 101.384566 
L 93.899224 115.313745 
L 95.967087 121.321759 
L 98.034951 123.435314 
L 100.102814 126.437931 
L 102.170677 133.333827 
L 104.238541 130.600394 
L 106.306404 134.876765 
L 110.442131 120.78004 
L 112.509994 115.347004 
L 114.577858 122.276477 
L 116.645721 123.608631 
L 118.713584 119.145921 
L 120.781448 118.47384 
L 122.849311 123.117305 
L 124.917174 120.742979 
L 126.985038 111.965457 
L 129.052901 124.755567 
L 131.120764 128.220088 
L 133.188628 136.531233 
L 135.256491 142.139675 
L 137.324354 140.543745 
L 139.392218 140.409235 
L 141.460081 149.054543 
L 143.527944 154.124209 
L 145.595808 152.919978 
L 147.663671 140.114822 
L 149.731534 145.677072 
L 151.799398 131.332804 
L 153.867261 129.283155 
L 155.935124 114.49326 
L 158.002988 116.043265 
L 160.070851 115.282199 
L 162.138715 113.346212 
L 164.206578 119.973739 
L 166.274441 122.980251 
L 168.342305 116.477712 
L 170.410168 110.721028 
L 172.478031 109.256649 
L 174.545895 107.42885 
L 176.613758 107.989727 
L 178.681621 112.323958 
L 180.749485 110.533507 
L 182.817348 118.168281 
L 184.885211 116.819621 
L 186.953075 135.662852 
L 189.020938 128.915445 
L 191.088801 157.686947 
L 193.156665 162.055542 
L 195.224528 139.338868 
L 197.292391 129.474541 
L 199.360255 129.013084 
L 201.428118 126.072338 
L 203.495981 128.435179 
L 205.563845 113.089804 
L 207.631708 109.171512 
L 209.699572 116.899208 
L 211.767435 131.038599 
L 213.835298 140.060847 
L 215.903162 138.521653 
L 217.971025 133.888964 
L 220.038888 126.75479 
L 222.106752 116.221863 
L 226.242478 119.009706 
L 228.310342 123.198441 
L 230.378205 125.326484 
L 232.446068 110.416016 
L 234.513932 106.040024 
L 236.581795 106.261484 
L 238.649658 108.590506 
L 240.717522 118.464992 
L 242.785385 112.042023 
L 244.853248 132.425114 
L 246.921112 137.811295 
L 248.988975 149.143493 
L 251.056838 139.818512 
L 253.124702 126.289877 
L 255.192565 129.101087 
L 257.260428 123.701314 
L 261.396155 110.8208 
L 263.464019 114.68818 
L 265.531882 123.842183 
L 267.599745 125.395944 
L 269.667609 121.327162 
L 271.735472 128.909405 
L 273.803335 127.299414 
L 275.871199 134.354641 
L 277.939062 126.551822 
L 280.006925 121.17947 
L 282.074789 122.822346 
L 284.142652 127.171357 
L 286.210515 119.5011 
L 288.278379 123.5516 
L 290.346242 117.025235 
L 292.414105 121.313995 
L 294.481969 115.455093 
L 296.549832 105.467289 
L 298.617695 104.322414 
L 300.685559 109.765093 
L 302.753422 108.486144 
L 304.821285 105.274869 
L 306.889149 105.65688 
L 308.957012 112.53182 
L 311.024876 106.012486 
L 313.092739 106.576983 
L 315.160602 120.085415 
L 317.228466 125.316294 
L 319.296329 117.26313 
L 321.364192 114.445632 
L 323.432056 118.602865 
L 325.499919 114.56198 
L 327.567782 116.120838 
L 329.635646 121.497384 
L 331.703509 119.441121 
L 333.771372 121.295233 
L 335.839236 116.723955 
L 337.907099 110.611877 
L 339.974962 109.957525 
L 342.042826 104.416304 
L 344.110689 107.533088 
L 346.178552 108.963336 
L 348.246416 108.952236 
L 350.314279 107.321441 
L 352.382142 106.942773 
L 354.450006 113.837265 
L 356.517869 126.243249 
L 358.585732 124.558637 
L 360.653596 127.19191 
L 362.721459 112.661926 
L 364.789323 111.502398 
L 366.857186 119.271399 
L 370.992913 113.825184 
L 373.060776 114.415184 
L 375.128639 112.879952 
L 377.196503 107.681203 
L 379.264366 107.93815 
L 381.332229 106.918819 
L 383.400093 105.705031 
L 385.467956 106.252647 
L 387.535819 104.665594 
L 389.603683 102.250049 
L 391.671546 103.108015 
L 393.739409 105.670887 
L 395.807273 105.399312 
L 395.807273 105.399312 
" clip-path="url(#p1e71ffb090)" style="fill: none; stroke: #ff0000; stroke-width: 1.5; stroke-linecap: square"/>
   </g>
   <g id="patch_9">
    <path d="M 54.92 172.190118 
L 54.92 93.921882 
" style="fill: none; stroke: #000000; stroke-width: 0.8; stroke-linejoin: miter; stroke-linecap: square"/>
   </g>
   <g id="patch_10">
    <path d="M 412.04 172.190118 
L 412.04 93.921882 
" style="fill: none; stroke: #000000; stroke-width: 0.8; stroke-linejoin: miter; stroke-linecap: square"/>
   </g>
   <g id="patch_11">
    <path d="M 54.92 172.190118 
L 412.04 172.190118 
" style="fill: none; stroke: #000000; stroke-width: 0.8; stroke-linejoin: miter; stroke-linecap: square"/>
   </g>
   <g id="patch_12">
    <path d="M 54.92 93.921882 
L 412.04 93.921882 
" style="fill: none; stroke: #000000; stroke-width: 0.8; stroke-linejoin: miter; stroke-linecap: square"/>
   </g>
  </g>
  <g id="axes_3">
   <g id="patch_13">
    <path d="M 54.92 266.112 
L 412.04 266.112 
L 412.04 187.843765 
L 54.92 187.843765 
z
" style="fill: #ffffff"/>
   </g>
   <g id="matplotlib.axis_5"/>
   <g id="matplotlib.axis_6">
    <g id="ytick_7">
     <g id="line2d_13">
      <g>
       <use xlink:href="#m5360e5111a" x="54.92" y="234.625012" style="stroke: #000000; stroke-width: 0.8"/>
      </g>
     </g>
     <g id="text_11">
      <!-- 80 -->
      <g transform="translate(35.195 238.424231)scale(0.1 -0.1)">
       <defs>
        <path id="DejaVuSans-38" d="M 2034 2216 
Q 1584 2216 1326 1975 
Q 1069 1734 1069 1313 
Q 1069 891 1326 650 
Q 1584 409 2034 409 
Q 2484 409 2743 651 
Q 3003 894 3003 1313 
Q 3003 1734 2745 1975 
Q 2488 2216 2034 2216 
z
M 1403 2484 
Q 997 2584 770 2862 
Q 544 3141 544 3541 
Q 544 4100 942 4425 
Q 1341 4750 2034 4750 
Q 2731 4750 3128 4425 
Q 3525 4100 3525 3541 
Q 3525 3141 3298 2862 
Q 3072 2584 2669 2484 
Q 3125 2378 3379 2068 
Q 3634 1759 3634 1313 
Q 3634 634 3220 271 
Q 2806 -91 2034 -91 
Q 1263 -91 848 271 
Q 434 634 434 1313 
Q 434 1759 690 2068 
Q 947 2378 1403 2484 
z
M 1172 3481 
Q 1172 3119 1398 2916 
Q 1625 2713 2034 2713 
Q 2441 2713 2670 2916 
Q 2900 3119 2900 3481 
Q 2900 3844 2670 4047 
Q 2441 4250 2034 4250 
Q 1625 4250 1398 4047 
Q 1172 3844 1172 3481 
z
" transform="scale(0.015625)"/>
       </defs>
       <use xlink:href="#DejaVuSans-38"/>
       <use xlink:href="#DejaVuSans-30" x="63.623047"/>
      </g>
     </g>
    </g>
    <g id="ytick_8">
     <g id="line2d_14">
      <g>
       <use xlink:href="#m5360e5111a" x="54.92" y="193.84677" style="stroke: #000000; stroke-width: 0.8"/>
      </g>
     </g>
     <g id="text_12">
      <!-- 100 -->
      <g transform="translate(28.8325 197.645988)scale(0.1 -0.1)">
       <use xlink:href="#DejaVuSans-31"/>
       <use xlink:href="#DejaVuSans-30" x="63.623047"/>
       <use xlink:href="#DejaVuSans-30" x="127.246094"/>
      </g>
     </g>
    </g>
    <g id="text_13">
     <!-- roll [°] -->
     <g transform="translate(21.297031 253.788742)rotate(-90)scale(0.17 -0.17)">
      <defs>
       <path id="DejaVuSans-6c" d="M 603 4863 
L 1178 4863 
L 1178 0 
L 603 0 
L 603 4863 
z
" transform="scale(0.015625)"/>
      </defs>
      <use xlink:href="#DejaVuSans-72"/>
      <use xlink:href="#DejaVuSans-6f" x="38.863281"/>
      <use xlink:href="#DejaVuSans-6c" x="100.044922"/>
      <use xlink:href="#DejaVuSans-6c" x="127.828125"/>
      <use xlink:href="#DejaVuSans-20" x="155.611328"/>
      <use xlink:href="#DejaVuSans-5b" x="187.398438"/>
      <use xlink:href="#DejaVuSans-b0" x="226.412109"/>
      <use xlink:href="#DejaVuSans-5d" x="276.412109"/>
     </g>
    </g>
   </g>
   <g id="line2d_15">
    <path d="M 71.152727 223.056714 
L 73.220591 220.915551 
L 75.288454 219.718643 
L 77.356317 221.071207 
L 79.424181 220.057465 
L 81.492044 220.072955 
L 83.559907 218.948568 
L 85.627771 217.307356 
L 87.695634 215.331493 
L 89.763497 213.580008 
L 91.831361 211.038726 
L 93.899224 213.318678 
L 95.967087 216.333712 
L 98.034951 217.384674 
L 100.102814 222.08273 
L 102.170677 229.999117 
L 104.238541 230.805619 
L 106.306404 227.572035 
L 108.374268 220.84814 
L 110.442131 217.577516 
L 112.509994 218.801353 
L 114.577858 222.960998 
L 116.645721 226.632422 
L 118.713584 227.008278 
L 120.781448 226.242847 
L 122.849311 223.815004 
L 124.917174 219.543426 
L 126.985038 215.608412 
L 129.052901 214.526684 
L 131.120764 215.058257 
L 135.256491 222.043887 
L 137.324354 223.419311 
L 139.392218 221.837727 
L 141.460081 226.37284 
L 143.527944 230.594761 
L 145.595808 231.75621 
L 147.663671 236.375825 
L 149.731534 242.925934 
L 151.799398 242.671472 
L 153.867261 238.314471 
L 158.002988 227.930484 
L 160.070851 226.17639 
L 162.138715 223.681979 
L 164.206578 217.393738 
L 168.342305 208.096232 
L 170.410168 199.711718 
L 172.478031 195.480939 
L 174.545895 193.653271 
L 176.613758 195.790824 
L 178.681621 200.674357 
L 180.749485 202.174658 
L 182.817348 205.122333 
L 184.885211 214.048006 
L 186.953075 225.315773 
L 189.020938 230.613146 
L 191.088801 235.133165 
L 193.156665 236.578224 
L 195.224528 239.02026 
L 197.292391 245.089516 
L 199.360255 244.838052 
L 201.428118 241.010268 
L 203.495981 236.623262 
L 205.563845 230.823431 
L 207.631708 223.088723 
L 209.699572 219.536196 
L 211.767435 218.113284 
L 213.835298 216.019977 
L 215.903162 211.267145 
L 217.971025 205.343112 
L 220.038888 200.077258 
L 222.106752 198.451669 
L 224.174615 196.421839 
L 226.242478 196.810444 
L 228.310342 201.640367 
L 232.446068 213.588945 
L 234.513932 223.181649 
L 236.581795 234.771188 
L 238.649658 244.844498 
L 240.717522 253.489606 
L 242.785385 260.223823 
L 244.853248 262.110277 
L 246.921112 251.368748 
L 248.988975 239.376237 
L 251.056838 223.644135 
L 253.124702 214.36602 
L 255.192565 213.359893 
L 257.260428 213.25702 
L 259.328292 212.116964 
L 263.464019 214.032101 
L 265.531882 215.711871 
L 267.599745 215.280889 
L 269.667609 215.669143 
L 271.735472 214.802747 
L 273.803335 213.704818 
L 275.871199 212.291855 
L 277.939062 210.408597 
L 280.006925 210.259872 
L 282.074789 211.895568 
L 284.142652 214.675523 
L 286.210515 217.113627 
L 288.278379 219.162523 
L 290.346242 219.657332 
L 296.549832 216.449228 
L 298.617695 215.050521 
L 300.685559 213.906067 
L 302.753422 212.985198 
L 304.821285 212.889815 
L 306.889149 214.115085 
L 308.957012 215.522821 
L 311.024876 218.087516 
L 313.092739 216.400372 
L 315.160602 213.244165 
L 317.228466 209.717053 
L 319.296329 206.906548 
L 321.364192 206.62131 
L 323.432056 208.518075 
L 325.499919 210.240397 
L 327.567782 212.754609 
L 329.635646 217.520677 
L 331.703509 220.759145 
L 333.771372 223.333803 
L 335.839236 223.931636 
L 337.907099 222.52175 
L 339.974962 220.150263 
L 342.042826 216.924312 
L 346.178552 211.134297 
L 348.246416 209.971871 
L 350.314279 210.536348 
L 352.382142 211.426583 
L 354.450006 211.087816 
L 356.517869 213.946944 
L 358.585732 213.394259 
L 360.653596 212.430337 
L 362.721459 209.51368 
L 364.789323 210.282831 
L 366.857186 211.733486 
L 368.925049 212.796419 
L 370.992913 216.404001 
L 373.060776 219.073581 
L 375.128639 219.648371 
L 377.196503 218.11275 
L 381.332229 215.533203 
L 385.467956 214.81552 
L 387.535819 214.781508 
L 389.603683 215.279791 
L 391.671546 214.576713 
L 393.739409 214.130446 
L 395.807273 213.505043 
L 395.807273 213.505043 
" clip-path="url(#pd34c9e2f28)" style="fill: none; stroke: #008000; stroke-width: 1.5; stroke-linecap: square"/>
   </g>
   <g id="line2d_16">
    <path d="M 71.152727 223.056708 
L 73.220591 220.58525 
L 75.288454 218.627853 
L 77.356317 219.8968 
L 79.424181 220.488461 
L 81.492044 218.986097 
L 83.559907 217.789456 
L 85.627771 216.861376 
L 87.695634 214.85669 
L 89.763497 213.690238 
L 91.831361 210.026813 
L 93.899224 212.625887 
L 98.034951 217.072129 
L 100.102814 220.25702 
L 102.170677 228.731469 
L 104.238541 230.34918 
L 106.306404 227.62841 
L 108.374268 221.266542 
L 110.442131 217.457021 
L 112.509994 217.373561 
L 114.577858 221.871593 
L 116.645721 226.032807 
L 118.713584 226.510945 
L 120.781448 226.129528 
L 122.849311 223.799886 
L 124.917174 220.262743 
L 126.985038 215.21003 
L 129.052901 213.953283 
L 131.120764 213.993878 
L 133.188628 217.034517 
L 135.256491 221.109875 
L 137.324354 223.116255 
L 139.392218 221.104971 
L 141.460081 224.447226 
L 143.527944 230.046554 
L 145.595808 231.639441 
L 147.663671 235.02233 
L 149.731534 241.369263 
L 151.799398 243.175878 
L 153.867261 238.129883 
L 155.935124 233.684796 
L 158.002988 227.63797 
L 160.070851 226.332769 
L 162.138715 223.901928 
L 164.206578 217.090189 
L 168.342305 207.790102 
L 170.410168 199.278899 
L 172.478031 193.884981 
L 174.545895 191.401412 
L 176.613758 192.277765 
L 178.681621 197.180521 
L 180.749485 199.588496 
L 182.817348 201.521691 
L 184.885211 210.930614 
L 186.953075 223.955702 
L 189.020938 228.269282 
L 191.088801 233.499693 
L 193.156665 235.984972 
L 195.224528 237.97447 
L 197.292391 243.058924 
L 199.360255 244.059804 
L 201.428118 240.308038 
L 203.495981 236.951566 
L 205.563845 230.741711 
L 207.631708 222.705248 
L 209.699572 218.243298 
L 211.767435 217.039622 
L 213.835298 215.341987 
L 215.903162 210.048798 
L 217.971025 203.433768 
L 220.038888 197.578425 
L 222.106752 195.903701 
L 224.174615 193.032757 
L 226.242478 192.789356 
L 228.310342 197.461273 
L 230.378205 205.750285 
L 232.446068 208.700098 
L 234.513932 219.858083 
L 236.581795 232.283579 
L 240.717522 250.314917 
L 242.785385 254.652644 
L 244.853248 262.554353 
L 246.921112 252.707865 
L 248.988975 241.894588 
L 251.056838 225.365063 
L 253.124702 214.715676 
L 255.192565 212.893376 
L 257.260428 212.699552 
L 259.328292 211.342493 
L 261.396155 211.558035 
L 263.464019 212.737373 
L 265.531882 214.673087 
L 267.599745 214.231795 
L 269.667609 214.679217 
L 271.735472 214.385335 
L 273.803335 212.780735 
L 275.871199 211.897138 
L 277.939062 209.733375 
L 280.006925 209.550944 
L 282.074789 210.927237 
L 284.142652 213.168277 
L 288.278379 218.507321 
L 290.346242 218.693051 
L 292.414105 217.325742 
L 294.481969 216.560349 
L 296.549832 215.029402 
L 298.617695 213.164892 
L 300.685559 212.409371 
L 302.753422 211.042896 
L 304.821285 211.011215 
L 306.889149 212.267829 
L 308.957012 213.923252 
L 311.024876 216.592984 
L 313.092739 214.937194 
L 317.228466 209.017204 
L 319.296329 205.202376 
L 321.364192 205.444812 
L 323.432056 206.108867 
L 327.567782 210.603379 
L 329.635646 214.853388 
L 331.703509 218.506837 
L 333.771372 221.389968 
L 335.839236 222.303875 
L 337.907099 220.857335 
L 339.974962 218.045879 
L 342.042826 214.78736 
L 344.110689 211.860771 
L 346.178552 208.371875 
L 348.246416 206.772026 
L 350.314279 207.263314 
L 352.382142 208.421114 
L 354.450006 207.796059 
L 356.517869 211.16435 
L 358.585732 211.406436 
L 360.653596 210.38939 
L 362.721459 206.564811 
L 364.789323 207.426118 
L 366.857186 209.170564 
L 368.925049 209.956128 
L 370.992913 213.597592 
L 373.060776 216.471051 
L 375.128639 217.134409 
L 377.196503 215.52319 
L 379.264366 214.322202 
L 381.332229 212.875072 
L 383.400093 212.675899 
L 385.467956 212.148223 
L 387.535819 211.807381 
L 389.603683 212.51086 
L 395.807273 210.708171 
L 395.807273 210.708171 
" clip-path="url(#pd34c9e2f28)" style="fill: none; stroke: #ff0000; stroke-width: 1.5; stroke-linecap: square"/>
   </g>
   <g id="patch_14">
    <path d="M 54.92 266.112 
L 54.92 187.843765 
" style="fill: none; stroke: #000000; stroke-width: 0.8; stroke-linejoin: miter; stroke-linecap: square"/>
   </g>
   <g id="patch_15">
    <path d="M 412.04 266.112 
L 412.04 187.843765 
" style="fill: none; stroke: #000000; stroke-width: 0.8; stroke-linejoin: miter; stroke-linecap: square"/>
   </g>
   <g id="patch_16">
    <path d="M 54.92 266.112 
L 412.04 266.112 
" style="fill: none; stroke: #000000; stroke-width: 0.8; stroke-linejoin: miter; stroke-linecap: square"/>
   </g>
   <g id="patch_17">
    <path d="M 54.92 187.843765 
L 412.04 187.843765 
" style="fill: none; stroke: #000000; stroke-width: 0.8; stroke-linejoin: miter; stroke-linecap: square"/>
   </g>
  </g>
 </g>
 <defs>
  <clipPath id="p3a279bc7ae">
   <rect x="54.92" y="0" width="357.12" height="78.268235"/>
  </clipPath>
  <clipPath id="p1e71ffb090">
   <rect x="54.92" y="93.921882" width="357.12" height="78.268235"/>
  </clipPath>
  <clipPath id="pd34c9e2f28">
   <rect x="54.92" y="187.843765" width="357.12" height="78.268235"/>
  </clipPath>
 </defs>
</svg>
