<?xml version="1.0" encoding="utf-8" standalone="no"?>
<!DOCTYPE svg PUBLIC "-//W3C//DTD SVG 1.1//EN"
  "http://www.w3.org/Graphics/SVG/1.1/DTD/svg11.dtd">
<svg xmlns:xlink="http://www.w3.org/1999/xlink" width="405.265312pt" height="296.46825pt" viewBox="0 0 405.265312 296.46825" xmlns="http://www.w3.org/2000/svg" version="1.1">
 <metadata>
  <rdf:RDF xmlns:dc="http://purl.org/dc/elements/1.1/" xmlns:cc="http://creativecommons.org/ns#" xmlns:rdf="http://www.w3.org/1999/02/22-rdf-syntax-ns#">
   <cc:Work>
    <dc:type rdf:resource="http://purl.org/dc/dcmitype/StillImage"/>
    <dc:date>2022-02-09T22:45:04.163904</dc:date>
    <dc:format>image/svg+xml</dc:format>
    <dc:creator>
     <cc:Agent>
      <dc:title>Matplotlib v3.5.1, https://matplotlib.org/</dc:title>
     </cc:Agent>
    </dc:creator>
   </cc:Work>
  </rdf:RDF>
 </metadata>
 <defs>
  <style type="text/css">*{stroke-linejoin: round; stroke-linecap: butt}</style>
 </defs>
 <g id="figure_1">
  <g id="patch_1">
   <path d="M 0 296.46825 
L 405.265312 296.46825 
L 405.265312 0 
L 0 0 
z
" style="fill: #ffffff"/>
  </g>
  <g id="axes_1">
   <g id="patch_2">
    <path d="M 48.145313 78.268235 
L 405.265313 78.268235 
L 405.265313 -0 
L 48.145313 -0 
z
" style="fill: #ffffff"/>
   </g>
   <g id="matplotlib.axis_1">
    <g id="xtick_1">
     <g id="line2d_1">
      <defs>
       <path id="m7050208959" d="M 0 0 
L 0 3.5 
" style="stroke: #000000; stroke-width: 0.8"/>
      </defs>
      <g>
       <use xlink:href="#m7050208959" x="64.37804" y="78.268235" style="stroke: #000000; stroke-width: 0.8"/>
      </g>
     </g>
     <g id="text_1">
      <!-- 0 -->
      <g transform="translate(61.19679 92.866673)scale(0.1 -0.1)">
       <defs>
        <path id="DejaVuSans-30" d="M 2034 4250 
Q 1547 4250 1301 3770 
Q 1056 3291 1056 2328 
Q 1056 1369 1301 889 
Q 1547 409 2034 409 
Q 2525 409 2770 889 
Q 3016 1369 3016 2328 
Q 3016 3291 2770 3770 
Q 2525 4250 2034 4250 
z
M 2034 4750 
Q 2819 4750 3233 4129 
Q 3647 3509 3647 2328 
Q 3647 1150 3233 529 
Q 2819 -91 2034 -91 
Q 1250 -91 836 529 
Q 422 1150 422 2328 
Q 422 3509 836 4129 
Q 1250 4750 2034 4750 
z
" transform="scale(0.015625)"/>
       </defs>
       <use xlink:href="#DejaVuSans-30"/>
      </g>
     </g>
    </g>
    <g id="xtick_2">
     <g id="line2d_2">
      <g>
       <use xlink:href="#m7050208959" x="111.293437" y="78.268235" style="stroke: #000000; stroke-width: 0.8"/>
      </g>
     </g>
     <g id="text_2">
      <!-- 50 -->
      <g transform="translate(104.930937 92.866673)scale(0.1 -0.1)">
       <defs>
        <path id="DejaVuSans-35" d="M 691 4666 
L 3169 4666 
L 3169 4134 
L 1269 4134 
L 1269 2991 
Q 1406 3038 1543 3061 
Q 1681 3084 1819 3084 
Q 2600 3084 3056 2656 
Q 3513 2228 3513 1497 
Q 3513 744 3044 326 
Q 2575 -91 1722 -91 
Q 1428 -91 1123 -41 
Q 819 9 494 109 
L 494 744 
Q 775 591 1075 516 
Q 1375 441 1709 441 
Q 2250 441 2565 725 
Q 2881 1009 2881 1497 
Q 2881 1984 2565 2268 
Q 2250 2553 1709 2553 
Q 1456 2553 1204 2497 
Q 953 2441 691 2322 
L 691 4666 
z
" transform="scale(0.015625)"/>
       </defs>
       <use xlink:href="#DejaVuSans-35"/>
       <use xlink:href="#DejaVuSans-30" x="63.623047"/>
      </g>
     </g>
    </g>
    <g id="xtick_3">
     <g id="line2d_3">
      <g>
       <use xlink:href="#m7050208959" x="158.208833" y="78.268235" style="stroke: #000000; stroke-width: 0.8"/>
      </g>
     </g>
     <g id="text_3">
      <!-- 100 -->
      <g transform="translate(148.665083 92.866673)scale(0.1 -0.1)">
       <defs>
        <path id="DejaVuSans-31" d="M 794 531 
L 1825 531 
L 1825 4091 
L 703 3866 
L 703 4441 
L 1819 4666 
L 2450 4666 
L 2450 531 
L 3481 531 
L 3481 0 
L 794 0 
L 794 531 
z
" transform="scale(0.015625)"/>
       </defs>
       <use xlink:href="#DejaVuSans-31"/>
       <use xlink:href="#DejaVuSans-30" x="63.623047"/>
       <use xlink:href="#DejaVuSans-30" x="127.246094"/>
      </g>
     </g>
    </g>
    <g id="xtick_4">
     <g id="line2d_4">
      <g>
       <use xlink:href="#m7050208959" x="205.12423" y="78.268235" style="stroke: #000000; stroke-width: 0.8"/>
      </g>
     </g>
     <g id="text_4">
      <!-- 150 -->
      <g transform="translate(195.58048 92.866673)scale(0.1 -0.1)">
       <use xlink:href="#DejaVuSans-31"/>
       <use xlink:href="#DejaVuSans-35" x="63.623047"/>
       <use xlink:href="#DejaVuSans-30" x="127.246094"/>
      </g>
     </g>
    </g>
    <g id="xtick_5">
     <g id="line2d_5">
      <g>
       <use xlink:href="#m7050208959" x="252.039627" y="78.268235" style="stroke: #000000; stroke-width: 0.8"/>
      </g>
     </g>
     <g id="text_5">
      <!-- 200 -->
      <g transform="translate(242.495877 92.866673)scale(0.1 -0.1)">
       <defs>
        <path id="DejaVuSans-32" d="M 1228 531 
L 3431 531 
L 3431 0 
L 469 0 
L 469 531 
Q 828 903 1448 1529 
Q 2069 2156 2228 2338 
Q 2531 2678 2651 2914 
Q 2772 3150 2772 3378 
Q 2772 3750 2511 3984 
Q 2250 4219 1831 4219 
Q 1534 4219 1204 4116 
Q 875 4013 500 3803 
L 500 4441 
Q 881 4594 1212 4672 
Q 1544 4750 1819 4750 
Q 2544 4750 2975 4387 
Q 3406 4025 3406 3419 
Q 3406 3131 3298 2873 
Q 3191 2616 2906 2266 
Q 2828 2175 2409 1742 
Q 1991 1309 1228 531 
z
" transform="scale(0.015625)"/>
       </defs>
       <use xlink:href="#DejaVuSans-32"/>
       <use xlink:href="#DejaVuSans-30" x="63.623047"/>
       <use xlink:href="#DejaVuSans-30" x="127.246094"/>
      </g>
     </g>
    </g>
    <g id="xtick_6">
     <g id="line2d_6">
      <g>
       <use xlink:href="#m7050208959" x="298.955023" y="78.268235" style="stroke: #000000; stroke-width: 0.8"/>
      </g>
     </g>
     <g id="text_6">
      <!-- 250 -->
      <g transform="translate(289.411273 92.866673)scale(0.1 -0.1)">
       <use xlink:href="#DejaVuSans-32"/>
       <use xlink:href="#DejaVuSans-35" x="63.623047"/>
       <use xlink:href="#DejaVuSans-30" x="127.246094"/>
      </g>
     </g>
    </g>
    <g id="xtick_7">
     <g id="line2d_7">
      <g>
       <use xlink:href="#m7050208959" x="345.87042" y="78.268235" style="stroke: #000000; stroke-width: 0.8"/>
      </g>
     </g>
     <g id="text_7">
      <!-- 300 -->
      <g transform="translate(336.32667 92.866673)scale(0.1 -0.1)">
       <defs>
        <path id="DejaVuSans-33" d="M 2597 2516 
Q 3050 2419 3304 2112 
Q 3559 1806 3559 1356 
Q 3559 666 3084 287 
Q 2609 -91 1734 -91 
Q 1441 -91 1130 -33 
Q 819 25 488 141 
L 488 750 
Q 750 597 1062 519 
Q 1375 441 1716 441 
Q 2309 441 2620 675 
Q 2931 909 2931 1356 
Q 2931 1769 2642 2001 
Q 2353 2234 1838 2234 
L 1294 2234 
L 1294 2753 
L 1863 2753 
Q 2328 2753 2575 2939 
Q 2822 3125 2822 3475 
Q 2822 3834 2567 4026 
Q 2313 4219 1838 4219 
Q 1578 4219 1281 4162 
Q 984 4106 628 3988 
L 628 4550 
Q 988 4650 1302 4700 
Q 1616 4750 1894 4750 
Q 2613 4750 3031 4423 
Q 3450 4097 3450 3541 
Q 3450 3153 3228 2886 
Q 3006 2619 2597 2516 
z
" transform="scale(0.015625)"/>
       </defs>
       <use xlink:href="#DejaVuSans-33"/>
       <use xlink:href="#DejaVuSans-30" x="63.623047"/>
       <use xlink:href="#DejaVuSans-30" x="127.246094"/>
      </g>
     </g>
    </g>
    <g id="xtick_8">
     <g id="line2d_8">
      <g>
       <use xlink:href="#m7050208959" x="392.785817" y="78.268235" style="stroke: #000000; stroke-width: 0.8"/>
      </g>
     </g>
     <g id="text_8">
      <!-- 350 -->
      <g transform="translate(383.242067 92.866673)scale(0.1 -0.1)">
       <use xlink:href="#DejaVuSans-33"/>
       <use xlink:href="#DejaVuSans-35" x="63.623047"/>
       <use xlink:href="#DejaVuSans-30" x="127.246094"/>
      </g>
     </g>
    </g>
    <g id="text_9">
     <!-- keyframe number -->
     <g transform="translate(182.025625 106.544798)scale(0.1 -0.1)">
      <defs>
       <path id="DejaVuSans-6b" d="M 581 4863 
L 1159 4863 
L 1159 1991 
L 2875 3500 
L 3609 3500 
L 1753 1863 
L 3688 0 
L 2938 0 
L 1159 1709 
L 1159 0 
L 581 0 
L 581 4863 
z
" transform="scale(0.015625)"/>
       <path id="DejaVuSans-65" d="M 3597 1894 
L 3597 1613 
L 953 1613 
Q 991 1019 1311 708 
Q 1631 397 2203 397 
Q 2534 397 2845 478 
Q 3156 559 3463 722 
L 3463 178 
Q 3153 47 2828 -22 
Q 2503 -91 2169 -91 
Q 1331 -91 842 396 
Q 353 884 353 1716 
Q 353 2575 817 3079 
Q 1281 3584 2069 3584 
Q 2775 3584 3186 3129 
Q 3597 2675 3597 1894 
z
M 3022 2063 
Q 3016 2534 2758 2815 
Q 2500 3097 2075 3097 
Q 1594 3097 1305 2825 
Q 1016 2553 972 2059 
L 3022 2063 
z
" transform="scale(0.015625)"/>
       <path id="DejaVuSans-79" d="M 2059 -325 
Q 1816 -950 1584 -1140 
Q 1353 -1331 966 -1331 
L 506 -1331 
L 506 -850 
L 844 -850 
Q 1081 -850 1212 -737 
Q 1344 -625 1503 -206 
L 1606 56 
L 191 3500 
L 800 3500 
L 1894 763 
L 2988 3500 
L 3597 3500 
L 2059 -325 
z
" transform="scale(0.015625)"/>
       <path id="DejaVuSans-66" d="M 2375 4863 
L 2375 4384 
L 1825 4384 
Q 1516 4384 1395 4259 
Q 1275 4134 1275 3809 
L 1275 3500 
L 2222 3500 
L 2222 3053 
L 1275 3053 
L 1275 0 
L 697 0 
L 697 3053 
L 147 3053 
L 147 3500 
L 697 3500 
L 697 3744 
Q 697 4328 969 4595 
Q 1241 4863 1831 4863 
L 2375 4863 
z
" transform="scale(0.015625)"/>
       <path id="DejaVuSans-72" d="M 2631 2963 
Q 2534 3019 2420 3045 
Q 2306 3072 2169 3072 
Q 1681 3072 1420 2755 
Q 1159 2438 1159 1844 
L 1159 0 
L 581 0 
L 581 3500 
L 1159 3500 
L 1159 2956 
Q 1341 3275 1631 3429 
Q 1922 3584 2338 3584 
Q 2397 3584 2469 3576 
Q 2541 3569 2628 3553 
L 2631 2963 
z
" transform="scale(0.015625)"/>
       <path id="DejaVuSans-61" d="M 2194 1759 
Q 1497 1759 1228 1600 
Q 959 1441 959 1056 
Q 959 750 1161 570 
Q 1363 391 1709 391 
Q 2188 391 2477 730 
Q 2766 1069 2766 1631 
L 2766 1759 
L 2194 1759 
z
M 3341 1997 
L 3341 0 
L 2766 0 
L 2766 531 
Q 2569 213 2275 61 
Q 1981 -91 1556 -91 
Q 1019 -91 701 211 
Q 384 513 384 1019 
Q 384 1609 779 1909 
Q 1175 2209 1959 2209 
L 2766 2209 
L 2766 2266 
Q 2766 2663 2505 2880 
Q 2244 3097 1772 3097 
Q 1472 3097 1187 3025 
Q 903 2953 641 2809 
L 641 3341 
Q 956 3463 1253 3523 
Q 1550 3584 1831 3584 
Q 2591 3584 2966 3190 
Q 3341 2797 3341 1997 
z
" transform="scale(0.015625)"/>
       <path id="DejaVuSans-6d" d="M 3328 2828 
Q 3544 3216 3844 3400 
Q 4144 3584 4550 3584 
Q 5097 3584 5394 3201 
Q 5691 2819 5691 2113 
L 5691 0 
L 5113 0 
L 5113 2094 
Q 5113 2597 4934 2840 
Q 4756 3084 4391 3084 
Q 3944 3084 3684 2787 
Q 3425 2491 3425 1978 
L 3425 0 
L 2847 0 
L 2847 2094 
Q 2847 2600 2669 2842 
Q 2491 3084 2119 3084 
Q 1678 3084 1418 2786 
Q 1159 2488 1159 1978 
L 1159 0 
L 581 0 
L 581 3500 
L 1159 3500 
L 1159 2956 
Q 1356 3278 1631 3431 
Q 1906 3584 2284 3584 
Q 2666 3584 2933 3390 
Q 3200 3197 3328 2828 
z
" transform="scale(0.015625)"/>
       <path id="DejaVuSans-20" transform="scale(0.015625)"/>
       <path id="DejaVuSans-6e" d="M 3513 2113 
L 3513 0 
L 2938 0 
L 2938 2094 
Q 2938 2591 2744 2837 
Q 2550 3084 2163 3084 
Q 1697 3084 1428 2787 
Q 1159 2491 1159 1978 
L 1159 0 
L 581 0 
L 581 3500 
L 1159 3500 
L 1159 2956 
Q 1366 3272 1645 3428 
Q 1925 3584 2291 3584 
Q 2894 3584 3203 3211 
Q 3513 2838 3513 2113 
z
" transform="scale(0.015625)"/>
       <path id="DejaVuSans-75" d="M 544 1381 
L 544 3500 
L 1119 3500 
L 1119 1403 
Q 1119 906 1312 657 
Q 1506 409 1894 409 
Q 2359 409 2629 706 
Q 2900 1003 2900 1516 
L 2900 3500 
L 3475 3500 
L 3475 0 
L 2900 0 
L 2900 538 
Q 2691 219 2414 64 
Q 2138 -91 1772 -91 
Q 1169 -91 856 284 
Q 544 659 544 1381 
z
M 1991 3584 
L 1991 3584 
z
" transform="scale(0.015625)"/>
       <path id="DejaVuSans-62" d="M 3116 1747 
Q 3116 2381 2855 2742 
Q 2594 3103 2138 3103 
Q 1681 3103 1420 2742 
Q 1159 2381 1159 1747 
Q 1159 1113 1420 752 
Q 1681 391 2138 391 
Q 2594 391 2855 752 
Q 3116 1113 3116 1747 
z
M 1159 2969 
Q 1341 3281 1617 3432 
Q 1894 3584 2278 3584 
Q 2916 3584 3314 3078 
Q 3713 2572 3713 1747 
Q 3713 922 3314 415 
Q 2916 -91 2278 -91 
Q 1894 -91 1617 61 
Q 1341 213 1159 525 
L 1159 0 
L 581 0 
L 581 4863 
L 1159 4863 
L 1159 2969 
z
" transform="scale(0.015625)"/>
      </defs>
      <use xlink:href="#DejaVuSans-6b"/>
      <use xlink:href="#DejaVuSans-65" x="54.285156"/>
      <use xlink:href="#DejaVuSans-79" x="115.808594"/>
      <use xlink:href="#DejaVuSans-66" x="174.988281"/>
      <use xlink:href="#DejaVuSans-72" x="210.193359"/>
      <use xlink:href="#DejaVuSans-61" x="251.306641"/>
      <use xlink:href="#DejaVuSans-6d" x="312.585938"/>
      <use xlink:href="#DejaVuSans-65" x="409.998047"/>
      <use xlink:href="#DejaVuSans-20" x="471.521484"/>
      <use xlink:href="#DejaVuSans-6e" x="503.308594"/>
      <use xlink:href="#DejaVuSans-75" x="566.6875"/>
      <use xlink:href="#DejaVuSans-6d" x="630.066406"/>
      <use xlink:href="#DejaVuSans-62" x="727.478516"/>
      <use xlink:href="#DejaVuSans-65" x="790.955078"/>
      <use xlink:href="#DejaVuSans-72" x="852.478516"/>
     </g>
    </g>
   </g>
   <g id="matplotlib.axis_2">
    <g id="ytick_1">
     <g id="line2d_9">
      <defs>
       <path id="m3ff62c9162" d="M 0 0 
L -3.5 0 
" style="stroke: #000000; stroke-width: 0.8"/>
      </defs>
      <g>
       <use xlink:href="#m3ff62c9162" x="48.145313" y="59.141761" style="stroke: #000000; stroke-width: 0.8"/>
      </g>
     </g>
     <g id="text_10">
      <!-- −100 -->
      <g transform="translate(13.678125 62.940979)scale(0.1 -0.1)">
       <defs>
        <path id="DejaVuSans-2212" d="M 678 2272 
L 4684 2272 
L 4684 1741 
L 678 1741 
L 678 2272 
z
" transform="scale(0.015625)"/>
       </defs>
       <use xlink:href="#DejaVuSans-2212"/>
       <use xlink:href="#DejaVuSans-31" x="83.789062"/>
       <use xlink:href="#DejaVuSans-30" x="147.412109"/>
       <use xlink:href="#DejaVuSans-30" x="211.035156"/>
      </g>
     </g>
    </g>
    <g id="ytick_2">
     <g id="line2d_10">
      <g>
       <use xlink:href="#m3ff62c9162" x="48.145313" y="39.270984" style="stroke: #000000; stroke-width: 0.8"/>
      </g>
     </g>
     <g id="text_11">
      <!-- 0 -->
      <g transform="translate(34.782813 43.070203)scale(0.1 -0.1)">
       <use xlink:href="#DejaVuSans-30"/>
      </g>
     </g>
    </g>
    <g id="ytick_3">
     <g id="line2d_11">
      <g>
       <use xlink:href="#m3ff62c9162" x="48.145313" y="19.400208" style="stroke: #000000; stroke-width: 0.8"/>
      </g>
     </g>
     <g id="text_12">
      <!-- 100 -->
      <g transform="translate(22.057813 23.199427)scale(0.1 -0.1)">
       <use xlink:href="#DejaVuSans-31"/>
       <use xlink:href="#DejaVuSans-30" x="63.623047"/>
       <use xlink:href="#DejaVuSans-30" x="127.246094"/>
      </g>
     </g>
    </g>
    <g id="text_13">
     <!-- yaw [degrees] -->
     <g transform="translate(7.598437 74.863024)rotate(-90)scale(0.1 -0.1)">
      <defs>
       <path id="DejaVuSans-77" d="M 269 3500 
L 844 3500 
L 1563 769 
L 2278 3500 
L 2956 3500 
L 3675 769 
L 4391 3500 
L 4966 3500 
L 4050 0 
L 3372 0 
L 2619 2869 
L 1863 0 
L 1184 0 
L 269 3500 
z
" transform="scale(0.015625)"/>
       <path id="DejaVuSans-5b" d="M 550 4863 
L 1875 4863 
L 1875 4416 
L 1125 4416 
L 1125 -397 
L 1875 -397 
L 1875 -844 
L 550 -844 
L 550 4863 
z
" transform="scale(0.015625)"/>
       <path id="DejaVuSans-64" d="M 2906 2969 
L 2906 4863 
L 3481 4863 
L 3481 0 
L 2906 0 
L 2906 525 
Q 2725 213 2448 61 
Q 2172 -91 1784 -91 
Q 1150 -91 751 415 
Q 353 922 353 1747 
Q 353 2572 751 3078 
Q 1150 3584 1784 3584 
Q 2172 3584 2448 3432 
Q 2725 3281 2906 2969 
z
M 947 1747 
Q 947 1113 1208 752 
Q 1469 391 1925 391 
Q 2381 391 2643 752 
Q 2906 1113 2906 1747 
Q 2906 2381 2643 2742 
Q 2381 3103 1925 3103 
Q 1469 3103 1208 2742 
Q 947 2381 947 1747 
z
" transform="scale(0.015625)"/>
       <path id="DejaVuSans-67" d="M 2906 1791 
Q 2906 2416 2648 2759 
Q 2391 3103 1925 3103 
Q 1463 3103 1205 2759 
Q 947 2416 947 1791 
Q 947 1169 1205 825 
Q 1463 481 1925 481 
Q 2391 481 2648 825 
Q 2906 1169 2906 1791 
z
M 3481 434 
Q 3481 -459 3084 -895 
Q 2688 -1331 1869 -1331 
Q 1566 -1331 1297 -1286 
Q 1028 -1241 775 -1147 
L 775 -588 
Q 1028 -725 1275 -790 
Q 1522 -856 1778 -856 
Q 2344 -856 2625 -561 
Q 2906 -266 2906 331 
L 2906 616 
Q 2728 306 2450 153 
Q 2172 0 1784 0 
Q 1141 0 747 490 
Q 353 981 353 1791 
Q 353 2603 747 3093 
Q 1141 3584 1784 3584 
Q 2172 3584 2450 3431 
Q 2728 3278 2906 2969 
L 2906 3500 
L 3481 3500 
L 3481 434 
z
" transform="scale(0.015625)"/>
       <path id="DejaVuSans-73" d="M 2834 3397 
L 2834 2853 
Q 2591 2978 2328 3040 
Q 2066 3103 1784 3103 
Q 1356 3103 1142 2972 
Q 928 2841 928 2578 
Q 928 2378 1081 2264 
Q 1234 2150 1697 2047 
L 1894 2003 
Q 2506 1872 2764 1633 
Q 3022 1394 3022 966 
Q 3022 478 2636 193 
Q 2250 -91 1575 -91 
Q 1294 -91 989 -36 
Q 684 19 347 128 
L 347 722 
Q 666 556 975 473 
Q 1284 391 1588 391 
Q 1994 391 2212 530 
Q 2431 669 2431 922 
Q 2431 1156 2273 1281 
Q 2116 1406 1581 1522 
L 1381 1569 
Q 847 1681 609 1914 
Q 372 2147 372 2553 
Q 372 3047 722 3315 
Q 1072 3584 1716 3584 
Q 2034 3584 2315 3537 
Q 2597 3491 2834 3397 
z
" transform="scale(0.015625)"/>
       <path id="DejaVuSans-5d" d="M 1947 4863 
L 1947 -844 
L 622 -844 
L 622 -397 
L 1369 -397 
L 1369 4416 
L 622 4416 
L 622 4863 
L 1947 4863 
z
" transform="scale(0.015625)"/>
      </defs>
      <use xlink:href="#DejaVuSans-79"/>
      <use xlink:href="#DejaVuSans-61" x="59.179688"/>
      <use xlink:href="#DejaVuSans-77" x="120.458984"/>
      <use xlink:href="#DejaVuSans-20" x="202.246094"/>
      <use xlink:href="#DejaVuSans-5b" x="234.033203"/>
      <use xlink:href="#DejaVuSans-64" x="273.046875"/>
      <use xlink:href="#DejaVuSans-65" x="336.523438"/>
      <use xlink:href="#DejaVuSans-67" x="398.046875"/>
      <use xlink:href="#DejaVuSans-72" x="461.523438"/>
      <use xlink:href="#DejaVuSans-65" x="500.386719"/>
      <use xlink:href="#DejaVuSans-65" x="561.910156"/>
      <use xlink:href="#DejaVuSans-73" x="623.433594"/>
      <use xlink:href="#DejaVuSans-5d" x="675.533203"/>
     </g>
    </g>
   </g>
   <g id="line2d_12">
    <path d="M 64.37804 64.877158 
L 66.260095 65.680271 
L 67.201123 65.89005 
L 72.847289 66.29535 
L 76.611399 66.178308 
L 78.493455 65.887477 
L 80.37551 65.373318 
L 81.316538 65.125099 
L 82.257565 64.619309 
L 84.139621 63.364937 
L 85.080648 63.006903 
L 86.021676 62.97035 
L 86.962704 63.051237 
L 87.903731 63.334006 
L 90.726814 65.384323 
L 91.667842 65.901998 
L 94.490925 66.54309 
L 97.314008 66.974253 
L 99.196063 66.916142 
L 102.019146 66.484228 
L 103.901202 66.197733 
L 107.665313 65.507876 
L 109.547368 64.98794 
L 111.429423 64.171112 
L 112.370451 63.94723 
L 113.311479 63.885534 
L 117.075589 65.570466 
L 118.016617 66.284644 
L 118.957645 66.766522 
L 120.8397 66.962118 
L 123.662783 66.974368 
L 124.603811 67.07672 
L 125.544838 67.059546 
L 126.485866 66.929049 
L 128.367921 66.235112 
L 129.308949 65.706082 
L 131.191004 64.816246 
L 133.07306 63.957982 
L 139.660253 59.053388 
L 140.601281 59.013319 
L 141.542309 59.324607 
L 145.306419 61.731028 
L 146.247447 62.528036 
L 147.188475 63.146876 
L 149.07053 65.004241 
L 150.011558 65.799467 
L 152.834641 68.5255 
L 154.716696 70.075297 
L 156.598751 71.201675 
L 158.480807 71.737394 
L 159.421834 71.668987 
L 161.30389 70.780276 
L 165.068 68.124176 
L 169.773139 64.531979 
L 171.655194 62.817437 
L 173.537249 61.588193 
L 176.360332 59.822875 
L 178.242388 59.063924 
L 181.065471 58.773834 
L 182.006498 58.940022 
L 182.947526 58.917436 
L 183.888554 59.235483 
L 184.829581 60.034957 
L 189.53472 65.166299 
L 190.475747 66.065425 
L 196.121913 69.333645 
L 198.944996 70.102254 
L 199.886024 70.099524 
L 201.768079 69.600657 
L 203.650135 68.76012 
L 205.53219 67.605034 
L 206.473218 67.105875 
L 208.355273 65.768394 
L 211.178356 63.391891 
L 212.119384 62.822607 
L 213.060411 62.053481 
L 214.001439 61.1108 
L 214.942467 60.453954 
L 216.824522 58.704257 
L 218.706577 57.703017 
L 219.647605 57.443234 
L 220.588633 57.577988 
L 223.411716 58.788617 
L 225.293771 60.886536 
L 226.234799 61.977951 
L 227.175826 62.763411 
L 228.116854 64.294243 
L 229.057882 65.106114 
L 230.939937 67.285571 
L 231.880965 67.523625 
L 232.821992 67.32781 
L 233.76302 66.979553 
L 235.645075 66.714349 
L 237.527131 66.634692 
L 244.114324 68.555733 
L 245.99638 70.03295 
L 248.819463 73.993258 
L 249.76049 3.557647 
L 250.701518 4.052345 
L 251.642546 3.710437 
L 252.583573 73.52864 
L 254.465629 71.234299 
L 256.347684 69.57979 
L 258.229739 67.552475 
L 260.111795 65.173341 
L 261.052822 64.407258 
L 262.934878 63.400783 
L 263.875905 63.244961 
L 266.698988 63.357431 
L 268.581044 63.8249 
L 269.522071 64.097572 
L 270.463099 65.001877 
L 272.345154 65.784697 
L 274.22721 65.174047 
L 275.168237 64.783326 
L 276.109265 63.912086 
L 277.99132 62.978728 
L 278.932348 62.792432 
L 280.814403 63.009581 
L 281.755431 63.335314 
L 286.460569 66.163668 
L 287.401597 66.966399 
L 289.283652 69.135863 
L 290.22468 70.918006 
L 292.106735 73.164976 
L 293.047763 74.501809 
L 293.988791 3.894888 
L 294.929818 5.013896 
L 295.870846 5.868446 
L 296.811874 7.041211 
L 298.693929 7.768595 
L 299.634957 7.738921 
L 300.575984 7.375213 
L 302.45804 4.885654 
L 303.399067 3.659453 
L 304.340095 73.661732 
L 306.22215 70.965978 
L 308.104206 68.011432 
L 309.045233 66.842625 
L 310.927289 64.856755 
L 311.868316 63.834744 
L 313.750372 62.523955 
L 317.514482 61.61046 
L 318.45551 61.540937 
L 319.396538 61.244199 
L 322.219621 60.850512 
L 323.160648 60.803102 
L 325.983731 61.161645 
L 326.924759 61.508103 
L 327.865787 61.645757 
L 328.806814 61.612017 
L 329.747842 61.752713 
L 330.68887 61.364463 
L 332.570925 60.917948 
L 333.511953 61.03985 
L 334.45298 61.470205 
L 335.394008 62.030424 
L 337.276063 62.747849 
L 338.217091 62.885982 
L 340.099146 63.52413 
L 343.863257 67.606013 
L 344.804285 68.797379 
L 345.745313 70.279266 
L 349.509423 74.597122 
L 350.450451 74.710588 
L 351.391479 74.561026 
L 352.332506 74.27505 
L 353.273534 73.489487 
L 354.214562 72.28865 
L 357.037645 67.034578 
L 357.978672 65.722697 
L 358.9197 64.680796 
L 360.801755 63.481108 
L 361.742783 63.074347 
L 364.565866 62.34956 
L 365.506894 61.894681 
L 367.388949 61.644041 
L 368.329977 61.868161 
L 369.271004 61.939173 
L 370.212032 62.827558 
L 371.15306 63.215282 
L 373.035115 64.532704 
L 373.976143 64.834258 
L 374.91717 65.007254 
L 375.858198 64.775917 
L 376.799226 63.797802 
L 377.740253 63.072939 
L 378.681281 62.835882 
L 380.563336 62.593959 
L 381.504364 62.715488 
L 382.445392 62.685572 
L 383.386419 62.531733 
L 385.268475 62.923312 
L 388.091558 62.381992 
L 389.032585 62.271139 
L 389.032585 62.271139 
" clip-path="url(#p5c522b1a3c)" style="fill: none; stroke: #008000; stroke-width: 1.5; stroke-linecap: square"/>
   </g>
   <g id="line2d_13">
    <path d="M 64.37804 64.877153 
L 65.319067 65.530886 
L 66.260095 65.901382 
L 71.906261 66.513463 
L 77.552427 66.31563 
L 78.493455 66.142244 
L 81.316538 65.069171 
L 82.257565 64.589104 
L 83.198593 63.894245 
L 84.139621 63.018968 
L 85.080648 62.4203 
L 86.021676 62.21791 
L 87.903731 62.4197 
L 88.844759 63.024981 
L 90.726814 64.697903 
L 91.667842 65.314458 
L 93.549897 66.044182 
L 96.37298 66.613974 
L 99.196063 66.687918 
L 102.960174 66.062329 
L 109.547368 64.533586 
L 112.370451 63.141337 
L 113.311479 63.015366 
L 114.252506 63.209856 
L 115.193534 63.959682 
L 116.134562 64.426932 
L 117.075589 64.710356 
L 118.016617 65.180298 
L 118.957645 66.080651 
L 119.898672 66.634783 
L 122.721755 66.705266 
L 123.662783 66.493298 
L 125.544838 66.656446 
L 126.485866 66.618087 
L 127.426894 66.395623 
L 130.249977 65.092187 
L 131.191004 64.509834 
L 133.07306 63.60759 
L 134.955115 62.343447 
L 138.719226 59.053295 
L 139.660253 58.527726 
L 140.601281 58.262153 
L 141.542309 58.578417 
L 142.483336 59.056465 
L 146.247447 61.638624 
L 147.188475 62.387624 
L 149.07053 64.167732 
L 150.952585 65.958101 
L 152.834641 67.835439 
L 154.716696 69.272175 
L 156.598751 70.409324 
L 158.480807 70.947315 
L 159.421834 70.868955 
L 160.362862 70.490709 
L 161.30389 69.971391 
L 165.068 67.131832 
L 173.537249 60.04552 
L 175.419305 58.775241 
L 178.242388 57.445344 
L 180.124443 57.140847 
L 181.065471 57.119736 
L 182.006498 57.293572 
L 182.947526 57.064167 
L 183.888554 57.456074 
L 184.829581 58.105964 
L 190.475747 64.194291 
L 191.416775 64.916725 
L 193.29883 66.089729 
L 194.239858 66.767913 
L 196.121913 67.690988 
L 198.003969 68.253373 
L 198.944996 68.401503 
L 199.886024 68.339595 
L 201.768079 67.802255 
L 203.650135 66.876946 
L 208.355273 63.818004 
L 210.237328 62.079584 
L 212.119384 60.573977 
L 214.001439 59.025817 
L 214.942467 58.222069 
L 215.883494 57.187597 
L 216.824522 56.373084 
L 217.76555 55.722764 
L 219.647605 54.961031 
L 220.588633 55.026518 
L 222.470688 55.79006 
L 223.411716 56.225852 
L 227.175826 60.066361 
L 228.116854 61.539497 
L 229.998909 63.370362 
L 230.939937 64.708021 
L 231.880965 65.242773 
L 232.821992 65.216898 
L 233.76302 64.80037 
L 236.586103 64.320273 
L 237.527131 64.346559 
L 238.468158 64.501676 
L 244.114324 66.299706 
L 245.99638 67.581622 
L 247.878435 70.387417 
L 248.819463 72.276404 
L 249.76049 73.722706 
L 250.701518 74.630814 
L 251.642546 74.264528 
L 252.583573 72.167333 
L 255.406656 68.294822 
L 257.288712 66.51075 
L 258.229739 65.096953 
L 260.111795 63.032107 
L 261.052822 62.191567 
L 261.99385 61.559024 
L 262.934878 61.186248 
L 263.875905 60.958713 
L 265.757961 61.090558 
L 266.698988 61.225705 
L 269.522071 62.05174 
L 270.463099 63.099157 
L 271.404127 63.646109 
L 272.345154 63.800998 
L 273.286182 63.647964 
L 274.22721 63.351591 
L 275.168237 62.79526 
L 276.109265 61.569756 
L 277.99132 60.700289 
L 279.873376 60.746898 
L 281.755431 61.235586 
L 287.401597 64.258414 
L 289.283652 65.873031 
L 291.165708 68.881195 
L 292.106735 70.225825 
L 293.988791 73.62846 
L 294.929818 3.85065 
L 295.870846 5.004118 
L 296.811874 6.682287 
L 297.752901 7.979107 
L 299.634957 8.665468 
L 300.575984 7.961383 
L 301.517012 6.793974 
L 302.45804 4.964184 
L 303.399067 74.570618 
L 306.22215 69.102911 
L 307.163178 67.373742 
L 309.045233 64.370121 
L 309.986261 63.525941 
L 310.927289 62.363661 
L 312.809344 60.720331 
L 313.750372 60.152637 
L 314.691399 59.791296 
L 321.278593 58.670475 
L 322.219621 58.572211 
L 323.160648 58.614375 
L 327.865787 59.689172 
L 328.806814 59.587452 
L 329.747842 59.647888 
L 330.68887 59.173826 
L 331.629897 59.070151 
L 332.570925 58.838941 
L 333.511953 58.975886 
L 334.45298 59.355035 
L 335.394008 59.897296 
L 337.276063 60.599193 
L 338.217091 60.644991 
L 339.158119 60.805565 
L 340.099146 60.823271 
L 341.040174 61.245001 
L 342.922229 62.72444 
L 345.745313 65.669897 
L 347.627368 67.910979 
L 349.509423 70.526317 
L 350.450451 70.86219 
L 352.332506 70.687658 
L 353.273534 69.901082 
L 354.214562 68.677787 
L 357.037645 63.748818 
L 357.978672 62.729429 
L 358.9197 62.023203 
L 360.801755 61.140807 
L 362.683811 60.707491 
L 364.565866 60.378899 
L 365.506894 59.851785 
L 367.388949 59.406747 
L 369.271004 59.610709 
L 370.212032 60.502153 
L 371.15306 61.216404 
L 373.035115 62.898415 
L 374.91717 63.539807 
L 375.858198 63.150237 
L 376.799226 62.025752 
L 377.740253 61.20613 
L 379.622309 61.127735 
L 380.563336 60.957419 
L 382.445392 60.994996 
L 383.386419 60.668519 
L 385.268475 60.909186 
L 388.091558 60.327458 
L 389.032585 60.178174 
L 389.032585 60.178174 
" clip-path="url(#p5c522b1a3c)" style="fill: none; stroke: #ff0000; stroke-width: 1.5; stroke-linecap: square"/>
   </g>
   <g id="patch_3">
    <path d="M 48.145313 78.268235 
L 48.145313 -0 
" style="fill: none; stroke: #000000; stroke-width: 0.8; stroke-linejoin: miter; stroke-linecap: square"/>
   </g>
   <g id="patch_4">
    <path d="M 405.265313 78.268235 
L 405.265313 -0 
" style="fill: none; stroke: #000000; stroke-width: 0.8; stroke-linejoin: miter; stroke-linecap: square"/>
   </g>
   <g id="patch_5">
    <path d="M 48.145313 78.268235 
L 405.265313 78.268235 
" style="fill: none; stroke: #000000; stroke-width: 0.8; stroke-linejoin: miter; stroke-linecap: square"/>
   </g>
   <g id="patch_6">
    <path d="M 48.145313 -0 
L 405.265313 -0 
" style="fill: none; stroke: #000000; stroke-width: 0.8; stroke-linejoin: miter; stroke-linecap: square"/>
   </g>
   <g id="legend_1">
    <g id="patch_7">
     <path d="M 55.145313 37.634375 
L 152.148438 37.634375 
Q 154.148438 37.634375 154.148438 35.634375 
L 154.148438 7 
Q 154.148438 5 152.148438 5 
L 55.145313 5 
Q 53.145313 5 53.145313 7 
L 53.145313 35.634375 
Q 53.145313 37.634375 55.145313 37.634375 
z
" style="fill: #ffffff; opacity: 0.8; stroke: #cccccc; stroke-linejoin: miter"/>
    </g>
    <g id="line2d_14">
     <path d="M 57.145313 13.098437 
L 67.145313 13.098437 
L 77.145313 13.098437 
" style="fill: none; stroke: #008000; stroke-width: 1.5; stroke-linecap: square"/>
    </g>
    <g id="text_14">
     <!-- ground_truth -->
     <g transform="translate(85.145313 16.598437)scale(0.1 -0.1)">
      <defs>
       <path id="DejaVuSans-6f" d="M 1959 3097 
Q 1497 3097 1228 2736 
Q 959 2375 959 1747 
Q 959 1119 1226 758 
Q 1494 397 1959 397 
Q 2419 397 2687 759 
Q 2956 1122 2956 1747 
Q 2956 2369 2687 2733 
Q 2419 3097 1959 3097 
z
M 1959 3584 
Q 2709 3584 3137 3096 
Q 3566 2609 3566 1747 
Q 3566 888 3137 398 
Q 2709 -91 1959 -91 
Q 1206 -91 779 398 
Q 353 888 353 1747 
Q 353 2609 779 3096 
Q 1206 3584 1959 3584 
z
" transform="scale(0.015625)"/>
       <path id="DejaVuSans-5f" d="M 3263 -1063 
L 3263 -1509 
L -63 -1509 
L -63 -1063 
L 3263 -1063 
z
" transform="scale(0.015625)"/>
       <path id="DejaVuSans-74" d="M 1172 4494 
L 1172 3500 
L 2356 3500 
L 2356 3053 
L 1172 3053 
L 1172 1153 
Q 1172 725 1289 603 
Q 1406 481 1766 481 
L 2356 481 
L 2356 0 
L 1766 0 
Q 1100 0 847 248 
Q 594 497 594 1153 
L 594 3053 
L 172 3053 
L 172 3500 
L 594 3500 
L 594 4494 
L 1172 4494 
z
" transform="scale(0.015625)"/>
       <path id="DejaVuSans-68" d="M 3513 2113 
L 3513 0 
L 2938 0 
L 2938 2094 
Q 2938 2591 2744 2837 
Q 2550 3084 2163 3084 
Q 1697 3084 1428 2787 
Q 1159 2491 1159 1978 
L 1159 0 
L 581 0 
L 581 4863 
L 1159 4863 
L 1159 2956 
Q 1366 3272 1645 3428 
Q 1925 3584 2291 3584 
Q 2894 3584 3203 3211 
Q 3513 2838 3513 2113 
z
" transform="scale(0.015625)"/>
      </defs>
      <use xlink:href="#DejaVuSans-67"/>
      <use xlink:href="#DejaVuSans-72" x="63.476562"/>
      <use xlink:href="#DejaVuSans-6f" x="102.339844"/>
      <use xlink:href="#DejaVuSans-75" x="163.521484"/>
      <use xlink:href="#DejaVuSans-6e" x="226.900391"/>
      <use xlink:href="#DejaVuSans-64" x="290.279297"/>
      <use xlink:href="#DejaVuSans-5f" x="353.755859"/>
      <use xlink:href="#DejaVuSans-74" x="403.755859"/>
      <use xlink:href="#DejaVuSans-72" x="442.964844"/>
      <use xlink:href="#DejaVuSans-75" x="484.078125"/>
      <use xlink:href="#DejaVuSans-74" x="547.457031"/>
      <use xlink:href="#DejaVuSans-68" x="586.666016"/>
     </g>
    </g>
    <g id="line2d_15">
     <path d="M 57.145313 28.054687 
L 67.145313 28.054687 
L 77.145313 28.054687 
" style="fill: none; stroke: #ff0000; stroke-width: 1.5; stroke-linecap: square"/>
    </g>
    <g id="text_15">
     <!-- estimated -->
     <g transform="translate(85.145313 31.554687)scale(0.1 -0.1)">
      <defs>
       <path id="DejaVuSans-69" d="M 603 3500 
L 1178 3500 
L 1178 0 
L 603 0 
L 603 3500 
z
M 603 4863 
L 1178 4863 
L 1178 4134 
L 603 4134 
L 603 4863 
z
" transform="scale(0.015625)"/>
      </defs>
      <use xlink:href="#DejaVuSans-65"/>
      <use xlink:href="#DejaVuSans-73" x="61.523438"/>
      <use xlink:href="#DejaVuSans-74" x="113.623047"/>
      <use xlink:href="#DejaVuSans-69" x="152.832031"/>
      <use xlink:href="#DejaVuSans-6d" x="180.615234"/>
      <use xlink:href="#DejaVuSans-61" x="278.027344"/>
      <use xlink:href="#DejaVuSans-74" x="339.306641"/>
      <use xlink:href="#DejaVuSans-65" x="378.515625"/>
      <use xlink:href="#DejaVuSans-64" x="440.039062"/>
     </g>
    </g>
   </g>
  </g>
  <g id="axes_2">
   <g id="patch_8">
    <path d="M 48.145313 172.190118 
L 405.265313 172.190118 
L 405.265313 93.921882 
L 48.145313 93.921882 
z
" style="fill: #ffffff"/>
   </g>
   <g id="matplotlib.axis_3">
    <g id="xtick_9">
     <g id="line2d_16">
      <g>
       <use xlink:href="#m7050208959" x="64.37804" y="172.190118" style="stroke: #000000; stroke-width: 0.8"/>
      </g>
     </g>
     <g id="text_16">
      <!-- 0 -->
      <g transform="translate(61.19679 186.788555)scale(0.1 -0.1)">
       <use xlink:href="#DejaVuSans-30"/>
      </g>
     </g>
    </g>
    <g id="xtick_10">
     <g id="line2d_17">
      <g>
       <use xlink:href="#m7050208959" x="111.293437" y="172.190118" style="stroke: #000000; stroke-width: 0.8"/>
      </g>
     </g>
     <g id="text_17">
      <!-- 50 -->
      <g transform="translate(104.930937 186.788555)scale(0.1 -0.1)">
       <use xlink:href="#DejaVuSans-35"/>
       <use xlink:href="#DejaVuSans-30" x="63.623047"/>
      </g>
     </g>
    </g>
    <g id="xtick_11">
     <g id="line2d_18">
      <g>
       <use xlink:href="#m7050208959" x="158.208833" y="172.190118" style="stroke: #000000; stroke-width: 0.8"/>
      </g>
     </g>
     <g id="text_18">
      <!-- 100 -->
      <g transform="translate(148.665083 186.788555)scale(0.1 -0.1)">
       <use xlink:href="#DejaVuSans-31"/>
       <use xlink:href="#DejaVuSans-30" x="63.623047"/>
       <use xlink:href="#DejaVuSans-30" x="127.246094"/>
      </g>
     </g>
    </g>
    <g id="xtick_12">
     <g id="line2d_19">
      <g>
       <use xlink:href="#m7050208959" x="205.12423" y="172.190118" style="stroke: #000000; stroke-width: 0.8"/>
      </g>
     </g>
     <g id="text_19">
      <!-- 150 -->
      <g transform="translate(195.58048 186.788555)scale(0.1 -0.1)">
       <use xlink:href="#DejaVuSans-31"/>
       <use xlink:href="#DejaVuSans-35" x="63.623047"/>
       <use xlink:href="#DejaVuSans-30" x="127.246094"/>
      </g>
     </g>
    </g>
    <g id="xtick_13">
     <g id="line2d_20">
      <g>
       <use xlink:href="#m7050208959" x="252.039627" y="172.190118" style="stroke: #000000; stroke-width: 0.8"/>
      </g>
     </g>
     <g id="text_20">
      <!-- 200 -->
      <g transform="translate(242.495877 186.788555)scale(0.1 -0.1)">
       <use xlink:href="#DejaVuSans-32"/>
       <use xlink:href="#DejaVuSans-30" x="63.623047"/>
       <use xlink:href="#DejaVuSans-30" x="127.246094"/>
      </g>
     </g>
    </g>
    <g id="xtick_14">
     <g id="line2d_21">
      <g>
       <use xlink:href="#m7050208959" x="298.955023" y="172.190118" style="stroke: #000000; stroke-width: 0.8"/>
      </g>
     </g>
     <g id="text_21">
      <!-- 250 -->
      <g transform="translate(289.411273 186.788555)scale(0.1 -0.1)">
       <use xlink:href="#DejaVuSans-32"/>
       <use xlink:href="#DejaVuSans-35" x="63.623047"/>
       <use xlink:href="#DejaVuSans-30" x="127.246094"/>
      </g>
     </g>
    </g>
    <g id="xtick_15">
     <g id="line2d_22">
      <g>
       <use xlink:href="#m7050208959" x="345.87042" y="172.190118" style="stroke: #000000; stroke-width: 0.8"/>
      </g>
     </g>
     <g id="text_22">
      <!-- 300 -->
      <g transform="translate(336.32667 186.788555)scale(0.1 -0.1)">
       <use xlink:href="#DejaVuSans-33"/>
       <use xlink:href="#DejaVuSans-30" x="63.623047"/>
       <use xlink:href="#DejaVuSans-30" x="127.246094"/>
      </g>
     </g>
    </g>
    <g id="xtick_16">
     <g id="line2d_23">
      <g>
       <use xlink:href="#m7050208959" x="392.785817" y="172.190118" style="stroke: #000000; stroke-width: 0.8"/>
      </g>
     </g>
     <g id="text_23">
      <!-- 350 -->
      <g transform="translate(383.242067 186.788555)scale(0.1 -0.1)">
       <use xlink:href="#DejaVuSans-33"/>
       <use xlink:href="#DejaVuSans-35" x="63.623047"/>
       <use xlink:href="#DejaVuSans-30" x="127.246094"/>
      </g>
     </g>
    </g>
    <g id="text_24">
     <!-- keyframe number -->
     <g transform="translate(182.025625 200.46668)scale(0.1 -0.1)">
      <use xlink:href="#DejaVuSans-6b"/>
      <use xlink:href="#DejaVuSans-65" x="54.285156"/>
      <use xlink:href="#DejaVuSans-79" x="115.808594"/>
      <use xlink:href="#DejaVuSans-66" x="174.988281"/>
      <use xlink:href="#DejaVuSans-72" x="210.193359"/>
      <use xlink:href="#DejaVuSans-61" x="251.306641"/>
      <use xlink:href="#DejaVuSans-6d" x="312.585938"/>
      <use xlink:href="#DejaVuSans-65" x="409.998047"/>
      <use xlink:href="#DejaVuSans-20" x="471.521484"/>
      <use xlink:href="#DejaVuSans-6e" x="503.308594"/>
      <use xlink:href="#DejaVuSans-75" x="566.6875"/>
      <use xlink:href="#DejaVuSans-6d" x="630.066406"/>
      <use xlink:href="#DejaVuSans-62" x="727.478516"/>
      <use xlink:href="#DejaVuSans-65" x="790.955078"/>
      <use xlink:href="#DejaVuSans-72" x="852.478516"/>
     </g>
    </g>
   </g>
   <g id="matplotlib.axis_4">
    <g id="ytick_4">
     <g id="line2d_24">
      <g>
       <use xlink:href="#m3ff62c9162" x="48.145313" y="161.298761" style="stroke: #000000; stroke-width: 0.8"/>
      </g>
     </g>
     <g id="text_25">
      <!-- −50 -->
      <g transform="translate(20.040625 165.09798)scale(0.1 -0.1)">
       <use xlink:href="#DejaVuSans-2212"/>
       <use xlink:href="#DejaVuSans-35" x="83.789062"/>
       <use xlink:href="#DejaVuSans-30" x="147.412109"/>
      </g>
     </g>
    </g>
    <g id="ytick_5">
     <g id="line2d_25">
      <g>
       <use xlink:href="#m3ff62c9162" x="48.145313" y="133.25671" style="stroke: #000000; stroke-width: 0.8"/>
      </g>
     </g>
     <g id="text_26">
      <!-- 0 -->
      <g transform="translate(34.782813 137.055928)scale(0.1 -0.1)">
       <use xlink:href="#DejaVuSans-30"/>
      </g>
     </g>
    </g>
    <g id="ytick_6">
     <g id="line2d_26">
      <g>
       <use xlink:href="#m3ff62c9162" x="48.145313" y="105.214658" style="stroke: #000000; stroke-width: 0.8"/>
      </g>
     </g>
     <g id="text_27">
      <!-- 50 -->
      <g transform="translate(28.420313 109.013877)scale(0.1 -0.1)">
       <use xlink:href="#DejaVuSans-35"/>
       <use xlink:href="#DejaVuSans-30" x="63.623047"/>
      </g>
     </g>
    </g>
    <g id="text_28">
     <!-- pitch [degrees] -->
     <g transform="translate(13.960938 171.113812)rotate(-90)scale(0.1 -0.1)">
      <defs>
       <path id="DejaVuSans-70" d="M 1159 525 
L 1159 -1331 
L 581 -1331 
L 581 3500 
L 1159 3500 
L 1159 2969 
Q 1341 3281 1617 3432 
Q 1894 3584 2278 3584 
Q 2916 3584 3314 3078 
Q 3713 2572 3713 1747 
Q 3713 922 3314 415 
Q 2916 -91 2278 -91 
Q 1894 -91 1617 61 
Q 1341 213 1159 525 
z
M 3116 1747 
Q 3116 2381 2855 2742 
Q 2594 3103 2138 3103 
Q 1681 3103 1420 2742 
Q 1159 2381 1159 1747 
Q 1159 1113 1420 752 
Q 1681 391 2138 391 
Q 2594 391 2855 752 
Q 3116 1113 3116 1747 
z
" transform="scale(0.015625)"/>
       <path id="DejaVuSans-63" d="M 3122 3366 
L 3122 2828 
Q 2878 2963 2633 3030 
Q 2388 3097 2138 3097 
Q 1578 3097 1268 2742 
Q 959 2388 959 1747 
Q 959 1106 1268 751 
Q 1578 397 2138 397 
Q 2388 397 2633 464 
Q 2878 531 3122 666 
L 3122 134 
Q 2881 22 2623 -34 
Q 2366 -91 2075 -91 
Q 1284 -91 818 406 
Q 353 903 353 1747 
Q 353 2603 823 3093 
Q 1294 3584 2113 3584 
Q 2378 3584 2631 3529 
Q 2884 3475 3122 3366 
z
" transform="scale(0.015625)"/>
      </defs>
      <use xlink:href="#DejaVuSans-70"/>
      <use xlink:href="#DejaVuSans-69" x="63.476562"/>
      <use xlink:href="#DejaVuSans-74" x="91.259766"/>
      <use xlink:href="#DejaVuSans-63" x="130.46875"/>
      <use xlink:href="#DejaVuSans-68" x="185.449219"/>
      <use xlink:href="#DejaVuSans-20" x="248.828125"/>
      <use xlink:href="#DejaVuSans-5b" x="280.615234"/>
      <use xlink:href="#DejaVuSans-64" x="319.628906"/>
      <use xlink:href="#DejaVuSans-65" x="383.105469"/>
      <use xlink:href="#DejaVuSans-67" x="444.628906"/>
      <use xlink:href="#DejaVuSans-72" x="508.105469"/>
      <use xlink:href="#DejaVuSans-65" x="546.96875"/>
      <use xlink:href="#DejaVuSans-65" x="608.492188"/>
      <use xlink:href="#DejaVuSans-73" x="670.015625"/>
      <use xlink:href="#DejaVuSans-5d" x="722.115234"/>
     </g>
    </g>
   </g>
   <g id="line2d_27">
    <path d="M 64.37804 150.261554 
L 65.319067 147.692664 
L 68.14215 142.427494 
L 70.024206 137.598923 
L 70.965233 135.259028 
L 72.847289 132.033429 
L 73.788316 130.754583 
L 75.670372 127.738301 
L 76.611399 125.862605 
L 78.493455 120.713946 
L 79.434482 117.446761 
L 80.37551 115.45584 
L 81.316538 113.865226 
L 83.198593 109.920013 
L 84.139621 108.510136 
L 85.080648 107.794887 
L 86.962704 107.895287 
L 87.903731 108.186669 
L 88.844759 109.809871 
L 89.785787 112.137678 
L 90.726814 115.052786 
L 91.667842 117.211857 
L 92.60887 118.806959 
L 95.431953 124.638533 
L 96.37298 127.62657 
L 97.314008 131.127999 
L 99.196063 136.35481 
L 100.137091 138.744024 
L 102.019146 142.481945 
L 102.960174 144.598337 
L 103.901202 146.439969 
L 104.842229 148.028349 
L 106.724285 150.177652 
L 107.665313 151.654347 
L 108.60634 153.407855 
L 109.547368 154.858206 
L 110.488396 156.867365 
L 111.429423 158.267335 
L 112.370451 158.392438 
L 113.311479 158.034179 
L 114.252506 155.620715 
L 115.193534 152.703648 
L 116.134562 151.711658 
L 117.075589 149.814122 
L 118.957645 140.696907 
L 119.898672 137.377836 
L 120.8397 136.351898 
L 122.721755 130.945499 
L 123.662783 130.169015 
L 124.603811 131.103664 
L 125.544838 131.282888 
L 126.485866 130.965543 
L 127.426894 131.239784 
L 129.308949 132.333621 
L 132.132032 132.856855 
L 133.07306 132.870537 
L 134.014087 133.127735 
L 135.896143 133.15443 
L 140.601281 134.164292 
L 142.483336 133.669102 
L 144.365392 133.102186 
L 147.188475 133.021081 
L 152.834641 130.757532 
L 156.598751 130.413317 
L 158.480807 130.590557 
L 159.421834 130.923606 
L 160.362862 131.00825 
L 161.30389 130.863285 
L 163.185945 131.11738 
L 164.126973 131.394326 
L 166.950056 131.719226 
L 167.891083 132.094887 
L 168.832111 132.327122 
L 169.773139 132.424612 
L 172.596222 133.190882 
L 173.537249 133.359486 
L 174.478277 133.763013 
L 175.419305 133.925678 
L 178.242388 133.820126 
L 181.065471 133.76167 
L 182.006498 133.478472 
L 182.947526 133.371613 
L 183.888554 133.003695 
L 184.829581 132.832014 
L 185.770609 133.21246 
L 186.711637 133.238037 
L 188.593692 133.000236 
L 191.416775 132.724918 
L 192.357803 132.534834 
L 194.239858 132.398563 
L 196.121913 131.994098 
L 197.062941 131.81218 
L 198.003969 131.985141 
L 199.886024 132.174714 
L 200.827052 132.309733 
L 201.768079 132.118391 
L 203.650135 132.090922 
L 204.591162 131.912606 
L 205.53219 132.018255 
L 207.414245 132.678597 
L 208.355273 132.743094 
L 210.237328 132.201317 
L 211.178356 132.372491 
L 212.119384 132.714771 
L 214.942467 132.689567 
L 216.824522 132.452291 
L 219.647605 132.595105 
L 220.588633 132.471162 
L 222.470688 132.610538 
L 223.411716 132.819285 
L 224.352743 133.286792 
L 225.293771 133.558741 
L 226.234799 133.616576 
L 227.175826 133.233089 
L 228.116854 132.642648 
L 229.057882 132.620091 
L 229.998909 132.320147 
L 230.939937 130.769269 
L 231.880965 130.821191 
L 232.821992 131.505979 
L 235.645075 132.390472 
L 236.586103 132.537598 
L 237.527131 133.383142 
L 238.468158 134.992338 
L 241.291241 140.864942 
L 242.232269 143.435803 
L 243.173297 145.060305 
L 244.114324 147.03328 
L 245.055352 149.773924 
L 245.99638 151.572068 
L 246.937407 153.042289 
L 247.878435 153.144957 
L 248.819463 153.435935 
L 249.76049 152.903406 
L 252.583573 153.414337 
L 253.524601 153.273935 
L 254.465629 152.625022 
L 255.406656 152.439066 
L 256.347684 152.131105 
L 257.288712 151.253189 
L 258.229739 150.151761 
L 259.170767 148.020059 
L 260.111795 144.093875 
L 261.99385 137.623948 
L 262.934878 135.523395 
L 263.875905 131.168111 
L 264.816933 127.46859 
L 265.757961 124.921391 
L 266.698988 122.85138 
L 267.640016 119.869836 
L 269.522071 116.540331 
L 270.463099 114.088803 
L 271.404127 112.198194 
L 272.345154 108.651612 
L 273.286182 108.226672 
L 274.22721 108.465049 
L 275.168237 109.126043 
L 277.050293 113.300236 
L 278.932348 121.963692 
L 279.873376 124.871928 
L 280.814403 127.413565 
L 281.755431 130.76228 
L 282.696459 135.034893 
L 287.401597 151.205559 
L 288.342625 155.454673 
L 289.283652 157.586083 
L 290.22468 160.164853 
L 291.165708 160.627399 
L 292.106735 160.916911 
L 293.047763 160.551583 
L 293.988791 159.816201 
L 294.929818 158.669307 
L 295.870846 157.049501 
L 296.811874 154.103945 
L 297.752901 152.789114 
L 298.693929 151.987878 
L 299.634957 151.859214 
L 300.575984 152.409142 
L 301.517012 153.549288 
L 302.45804 153.809106 
L 303.399067 154.450868 
L 304.340095 154.621519 
L 305.281123 154.620939 
L 306.22215 154.287384 
L 307.163178 152.618112 
L 308.104206 151.558906 
L 309.045233 151.334461 
L 309.986261 150.053277 
L 310.927289 148.389304 
L 313.750372 141.698783 
L 316.573455 134.544 
L 318.45551 131.598665 
L 319.396538 129.757702 
L 320.337565 127.094174 
L 321.278593 125.061437 
L 322.219621 123.367486 
L 324.101676 121.870345 
L 325.042704 120.635069 
L 325.983731 119.704978 
L 326.924759 119.244848 
L 327.865787 118.193438 
L 328.806814 116.975227 
L 329.747842 116.757646 
L 330.68887 118.693586 
L 331.629897 121.499229 
L 335.394008 136.865503 
L 336.335036 141.424877 
L 337.276063 145.186504 
L 340.099146 154.585431 
L 341.040174 156.878922 
L 343.863257 160.785899 
L 344.804285 162.956338 
L 345.745313 164.000911 
L 346.68634 164.579026 
L 347.627368 164.900969 
L 348.568396 164.610248 
L 349.509423 164.535647 
L 350.450451 163.950718 
L 351.391479 163.625341 
L 352.332506 163.670437 
L 353.273534 163.076867 
L 354.214562 162.652047 
L 355.155589 161.849439 
L 356.096617 160.090667 
L 357.037645 157.669511 
L 357.978672 154.751578 
L 361.742783 141.221964 
L 362.683811 136.697549 
L 363.624838 132.795003 
L 364.565866 128.129147 
L 365.506894 124.386325 
L 366.447921 121.90492 
L 367.388949 118.904536 
L 368.329977 115.305164 
L 370.212032 110.076655 
L 373.035115 106.420768 
L 373.976143 105.890714 
L 374.91717 105.061637 
L 375.858198 104.746406 
L 376.799226 107.292557 
L 378.681281 116.879721 
L 379.622309 119.373714 
L 382.445392 130.385924 
L 383.386419 132.71411 
L 384.327447 133.103808 
L 386.209502 131.58813 
L 387.15053 131.252908 
L 388.091558 131.540149 
L 389.032585 131.524974 
L 389.032585 131.524974 
" clip-path="url(#p92566feaa4)" style="fill: none; stroke: #008000; stroke-width: 1.5; stroke-linecap: square"/>
   </g>
   <g id="line2d_28">
    <path d="M 64.37804 150.261558 
L 65.319067 147.051936 
L 66.260095 145.313906 
L 67.201123 143.90295 
L 70.024206 137.220185 
L 70.965233 134.588535 
L 72.847289 131.37035 
L 74.729344 128.470479 
L 76.611399 124.942129 
L 77.552427 122.830729 
L 79.434482 117.201119 
L 80.37551 115.054332 
L 82.257565 111.42716 
L 83.198593 109.460666 
L 84.139621 108.076565 
L 85.080648 107.489458 
L 86.962704 107.651525 
L 87.903731 108.085231 
L 88.844759 109.722194 
L 90.726814 114.755874 
L 92.60887 118.431526 
L 94.490925 122.049515 
L 95.431953 124.174895 
L 97.314008 130.16413 
L 98.255036 133.567249 
L 100.137091 138.235912 
L 103.901202 146.082513 
L 104.842229 147.726038 
L 106.724285 149.947931 
L 107.665313 151.33014 
L 108.60634 153.117456 
L 109.547368 154.559977 
L 110.488396 156.611944 
L 111.429423 157.7568 
L 112.370451 157.819375 
L 113.311479 157.347208 
L 114.252506 155.390739 
L 115.193534 152.464277 
L 117.075589 150.332863 
L 118.957645 141.349883 
L 119.898672 136.346313 
L 120.8397 135.203157 
L 121.780728 133.749588 
L 122.721755 130.106628 
L 123.662783 128.553536 
L 124.603811 129.249034 
L 125.544838 129.717384 
L 126.485866 129.25455 
L 127.426894 129.246674 
L 129.308949 130.342776 
L 131.191004 130.771446 
L 134.955115 131.213341 
L 135.896143 131.174957 
L 136.83717 131.340852 
L 137.778198 131.68495 
L 140.601281 132.168231 
L 144.365392 131.101243 
L 145.306419 131.037158 
L 146.247447 131.09288 
L 147.188475 131.008618 
L 150.952585 129.582029 
L 152.834641 128.671918 
L 156.598751 128.158344 
L 158.480807 128.335237 
L 159.421834 128.719956 
L 160.362862 128.893997 
L 161.30389 128.761618 
L 163.185945 129.013266 
L 165.068 129.787299 
L 166.950056 130.101535 
L 168.832111 130.886991 
L 170.714166 131.223695 
L 171.655194 131.573688 
L 173.537249 131.840225 
L 174.478277 132.192396 
L 175.419305 132.422222 
L 178.242388 132.276863 
L 180.124443 132.111851 
L 181.065471 132.193327 
L 182.947526 131.79071 
L 183.888554 131.382339 
L 184.829581 131.303308 
L 185.770609 131.680753 
L 186.711637 131.701078 
L 188.593692 131.55181 
L 190.475747 131.507543 
L 192.357803 131.188465 
L 193.29883 131.032758 
L 194.239858 131.005319 
L 196.121913 130.53657 
L 197.062941 130.327392 
L 198.944996 130.532821 
L 200.827052 130.790074 
L 201.768079 130.611803 
L 203.650135 130.595648 
L 204.591162 130.436541 
L 205.53219 130.519852 
L 207.414245 131.294633 
L 208.355273 131.350284 
L 209.296301 130.963168 
L 210.237328 130.774106 
L 211.178356 130.878399 
L 212.119384 131.211506 
L 214.942467 131.273826 
L 218.706577 130.98014 
L 223.411716 131.124283 
L 224.352743 131.548564 
L 226.234799 131.875984 
L 227.175826 131.474738 
L 228.116854 130.882241 
L 229.057882 131.057488 
L 229.998909 130.739426 
L 230.939937 129.167307 
L 231.880965 128.518193 
L 232.821992 129.291571 
L 235.645075 130.628126 
L 236.586103 131.121 
L 237.527131 132.095915 
L 238.468158 133.717627 
L 241.291241 140.895481 
L 242.232269 143.949764 
L 243.173297 145.925182 
L 244.114324 148.459377 
L 245.055352 152.060815 
L 246.937407 156.928184 
L 248.819463 158.814282 
L 249.76049 158.777043 
L 251.642546 159.453668 
L 253.524601 158.538386 
L 254.465629 157.206304 
L 255.406656 156.259136 
L 256.347684 155.599658 
L 257.288712 154.035448 
L 258.229739 151.96307 
L 259.170767 149.38299 
L 261.052822 140.062512 
L 261.99385 136.417964 
L 262.934878 133.836625 
L 263.875905 128.792125 
L 264.816933 124.405855 
L 265.757961 121.22822 
L 266.698988 118.463979 
L 267.640016 114.834074 
L 269.522071 111.082209 
L 270.463099 108.052099 
L 271.404127 105.538723 
L 272.345154 101.845665 
L 273.286182 101.517169 
L 274.22721 101.580968 
L 275.168237 102.516593 
L 277.050293 107.934386 
L 278.932348 117.08395 
L 280.814403 123.201628 
L 281.755431 126.919931 
L 282.696459 131.190464 
L 283.637486 134.380196 
L 286.460569 145.781467 
L 287.401597 150.212947 
L 288.342625 155.516913 
L 289.283652 158.449766 
L 290.22468 162.496713 
L 291.165708 164.389362 
L 292.106735 165.558514 
L 293.047763 166.10856 
L 293.988791 165.797184 
L 294.929818 165.170476 
L 295.870846 163.927946 
L 296.811874 160.933912 
L 297.752901 159.1819 
L 298.693929 158.458807 
L 299.634957 158.059762 
L 301.517012 159.584887 
L 302.45804 159.956739 
L 303.399067 160.495556 
L 304.340095 160.370041 
L 305.281123 159.629657 
L 306.22215 158.61969 
L 308.104206 153.7728 
L 309.045233 152.855125 
L 310.927289 148.688566 
L 313.750372 140.080072 
L 314.691399 136.774426 
L 316.573455 131.56971 
L 319.396538 125.715936 
L 321.278593 120.331717 
L 322.219621 118.471533 
L 324.101676 116.131516 
L 325.042704 114.801354 
L 325.983731 113.663756 
L 326.924759 113.290624 
L 327.865787 112.376767 
L 328.806814 111.163853 
L 329.747842 110.768116 
L 330.68887 112.861023 
L 331.629897 116.133982 
L 337.276063 140.338329 
L 339.158119 146.380813 
L 340.099146 150.062741 
L 341.040174 153.08578 
L 341.981202 155.037614 
L 342.922229 157.358437 
L 344.804285 162.6891 
L 345.745313 164.792448 
L 347.627368 167.390306 
L 348.568396 168.083221 
L 349.509423 168.632471 
L 351.391479 168.006203 
L 352.332506 168.009567 
L 353.273534 167.097646 
L 354.214562 166.01633 
L 355.155589 164.288201 
L 356.096617 161.513458 
L 361.742783 137.913604 
L 364.565866 124.101525 
L 365.506894 120.333212 
L 367.388949 114.33463 
L 369.271004 106.820473 
L 370.212032 104.281907 
L 371.15306 102.416761 
L 372.094087 101.036454 
L 373.035115 99.390926 
L 373.976143 98.721986 
L 374.91717 97.909042 
L 375.858198 97.479529 
L 376.799226 99.974063 
L 377.740253 105.56708 
L 378.681281 110.001353 
L 379.622309 112.886142 
L 382.445392 123.910174 
L 383.386419 126.990004 
L 384.327447 127.754948 
L 386.209502 126.214081 
L 387.15053 125.804288 
L 388.091558 126.09693 
L 389.032585 126.13633 
L 389.032585 126.13633 
" clip-path="url(#p92566feaa4)" style="fill: none; stroke: #ff0000; stroke-width: 1.5; stroke-linecap: square"/>
   </g>
   <g id="patch_9">
    <path d="M 48.145313 172.190118 
L 48.145313 93.921882 
" style="fill: none; stroke: #000000; stroke-width: 0.8; stroke-linejoin: miter; stroke-linecap: square"/>
   </g>
   <g id="patch_10">
    <path d="M 405.265313 172.190118 
L 405.265313 93.921882 
" style="fill: none; stroke: #000000; stroke-width: 0.8; stroke-linejoin: miter; stroke-linecap: square"/>
   </g>
   <g id="patch_11">
    <path d="M 48.145313 172.190118 
L 405.265313 172.190118 
" style="fill: none; stroke: #000000; stroke-width: 0.8; stroke-linejoin: miter; stroke-linecap: square"/>
   </g>
   <g id="patch_12">
    <path d="M 48.145313 93.921882 
L 405.265313 93.921882 
" style="fill: none; stroke: #000000; stroke-width: 0.8; stroke-linejoin: miter; stroke-linecap: square"/>
   </g>
  </g>
  <g id="axes_3">
   <g id="patch_13">
    <path d="M 48.145313 266.112 
L 405.265313 266.112 
L 405.265313 187.843765 
L 48.145313 187.843765 
z
" style="fill: #ffffff"/>
   </g>
   <g id="matplotlib.axis_5">
    <g id="xtick_17">
     <g id="line2d_29">
      <g>
       <use xlink:href="#m7050208959" x="64.37804" y="266.112" style="stroke: #000000; stroke-width: 0.8"/>
      </g>
     </g>
     <g id="text_29">
      <!-- 0 -->
      <g transform="translate(61.19679 280.710437)scale(0.1 -0.1)">
       <use xlink:href="#DejaVuSans-30"/>
      </g>
     </g>
    </g>
    <g id="xtick_18">
     <g id="line2d_30">
      <g>
       <use xlink:href="#m7050208959" x="111.293437" y="266.112" style="stroke: #000000; stroke-width: 0.8"/>
      </g>
     </g>
     <g id="text_30">
      <!-- 50 -->
      <g transform="translate(104.930937 280.710437)scale(0.1 -0.1)">
       <use xlink:href="#DejaVuSans-35"/>
       <use xlink:href="#DejaVuSans-30" x="63.623047"/>
      </g>
     </g>
    </g>
    <g id="xtick_19">
     <g id="line2d_31">
      <g>
       <use xlink:href="#m7050208959" x="158.208833" y="266.112" style="stroke: #000000; stroke-width: 0.8"/>
      </g>
     </g>
     <g id="text_31">
      <!-- 100 -->
      <g transform="translate(148.665083 280.710437)scale(0.1 -0.1)">
       <use xlink:href="#DejaVuSans-31"/>
       <use xlink:href="#DejaVuSans-30" x="63.623047"/>
       <use xlink:href="#DejaVuSans-30" x="127.246094"/>
      </g>
     </g>
    </g>
    <g id="xtick_20">
     <g id="line2d_32">
      <g>
       <use xlink:href="#m7050208959" x="205.12423" y="266.112" style="stroke: #000000; stroke-width: 0.8"/>
      </g>
     </g>
     <g id="text_32">
      <!-- 150 -->
      <g transform="translate(195.58048 280.710437)scale(0.1 -0.1)">
       <use xlink:href="#DejaVuSans-31"/>
       <use xlink:href="#DejaVuSans-35" x="63.623047"/>
       <use xlink:href="#DejaVuSans-30" x="127.246094"/>
      </g>
     </g>
    </g>
    <g id="xtick_21">
     <g id="line2d_33">
      <g>
       <use xlink:href="#m7050208959" x="252.039627" y="266.112" style="stroke: #000000; stroke-width: 0.8"/>
      </g>
     </g>
     <g id="text_33">
      <!-- 200 -->
      <g transform="translate(242.495877 280.710437)scale(0.1 -0.1)">
       <use xlink:href="#DejaVuSans-32"/>
       <use xlink:href="#DejaVuSans-30" x="63.623047"/>
       <use xlink:href="#DejaVuSans-30" x="127.246094"/>
      </g>
     </g>
    </g>
    <g id="xtick_22">
     <g id="line2d_34">
      <g>
       <use xlink:href="#m7050208959" x="298.955023" y="266.112" style="stroke: #000000; stroke-width: 0.8"/>
      </g>
     </g>
     <g id="text_34">
      <!-- 250 -->
      <g transform="translate(289.411273 280.710437)scale(0.1 -0.1)">
       <use xlink:href="#DejaVuSans-32"/>
       <use xlink:href="#DejaVuSans-35" x="63.623047"/>
       <use xlink:href="#DejaVuSans-30" x="127.246094"/>
      </g>
     </g>
    </g>
    <g id="xtick_23">
     <g id="line2d_35">
      <g>
       <use xlink:href="#m7050208959" x="345.87042" y="266.112" style="stroke: #000000; stroke-width: 0.8"/>
      </g>
     </g>
     <g id="text_35">
      <!-- 300 -->
      <g transform="translate(336.32667 280.710437)scale(0.1 -0.1)">
       <use xlink:href="#DejaVuSans-33"/>
       <use xlink:href="#DejaVuSans-30" x="63.623047"/>
       <use xlink:href="#DejaVuSans-30" x="127.246094"/>
      </g>
     </g>
    </g>
    <g id="xtick_24">
     <g id="line2d_36">
      <g>
       <use xlink:href="#m7050208959" x="392.785817" y="266.112" style="stroke: #000000; stroke-width: 0.8"/>
      </g>
     </g>
     <g id="text_36">
      <!-- 350 -->
      <g transform="translate(383.242067 280.710437)scale(0.1 -0.1)">
       <use xlink:href="#DejaVuSans-33"/>
       <use xlink:href="#DejaVuSans-35" x="63.623047"/>
       <use xlink:href="#DejaVuSans-30" x="127.246094"/>
      </g>
     </g>
    </g>
    <g id="text_37">
     <!-- keyframe number -->
     <g transform="translate(182.025625 294.388562)scale(0.1 -0.1)">
      <use xlink:href="#DejaVuSans-6b"/>
      <use xlink:href="#DejaVuSans-65" x="54.285156"/>
      <use xlink:href="#DejaVuSans-79" x="115.808594"/>
      <use xlink:href="#DejaVuSans-66" x="174.988281"/>
      <use xlink:href="#DejaVuSans-72" x="210.193359"/>
      <use xlink:href="#DejaVuSans-61" x="251.306641"/>
      <use xlink:href="#DejaVuSans-6d" x="312.585938"/>
      <use xlink:href="#DejaVuSans-65" x="409.998047"/>
      <use xlink:href="#DejaVuSans-20" x="471.521484"/>
      <use xlink:href="#DejaVuSans-6e" x="503.308594"/>
      <use xlink:href="#DejaVuSans-75" x="566.6875"/>
      <use xlink:href="#DejaVuSans-6d" x="630.066406"/>
      <use xlink:href="#DejaVuSans-62" x="727.478516"/>
      <use xlink:href="#DejaVuSans-65" x="790.955078"/>
      <use xlink:href="#DejaVuSans-72" x="852.478516"/>
     </g>
    </g>
   </g>
   <g id="matplotlib.axis_6">
    <g id="ytick_7">
     <g id="line2d_37">
      <g>
       <use xlink:href="#m3ff62c9162" x="48.145313" y="246.900289" style="stroke: #000000; stroke-width: 0.8"/>
      </g>
     </g>
     <g id="text_38">
      <!-- −100 -->
      <g transform="translate(13.678125 250.699508)scale(0.1 -0.1)">
       <use xlink:href="#DejaVuSans-2212"/>
       <use xlink:href="#DejaVuSans-31" x="83.789062"/>
       <use xlink:href="#DejaVuSans-30" x="147.412109"/>
       <use xlink:href="#DejaVuSans-30" x="211.035156"/>
      </g>
     </g>
    </g>
    <g id="ytick_8">
     <g id="line2d_38">
      <g>
       <use xlink:href="#m3ff62c9162" x="48.145313" y="226.996419" style="stroke: #000000; stroke-width: 0.8"/>
      </g>
     </g>
     <g id="text_39">
      <!-- 0 -->
      <g transform="translate(34.782813 230.795637)scale(0.1 -0.1)">
       <use xlink:href="#DejaVuSans-30"/>
      </g>
     </g>
    </g>
    <g id="ytick_9">
     <g id="line2d_39">
      <g>
       <use xlink:href="#m3ff62c9162" x="48.145313" y="207.092548" style="stroke: #000000; stroke-width: 0.8"/>
      </g>
     </g>
     <g id="text_40">
      <!-- 100 -->
      <g transform="translate(22.057813 210.891767)scale(0.1 -0.1)">
       <use xlink:href="#DejaVuSans-31"/>
       <use xlink:href="#DejaVuSans-30" x="63.623047"/>
       <use xlink:href="#DejaVuSans-30" x="127.246094"/>
      </g>
     </g>
    </g>
    <g id="text_41">
     <!-- roll [degrees] -->
     <g transform="translate(7.598437 260.374757)rotate(-90)scale(0.1 -0.1)">
      <defs>
       <path id="DejaVuSans-6c" d="M 603 4863 
L 1178 4863 
L 1178 0 
L 603 0 
L 603 4863 
z
" transform="scale(0.015625)"/>
      </defs>
      <use xlink:href="#DejaVuSans-72"/>
      <use xlink:href="#DejaVuSans-6f" x="38.863281"/>
      <use xlink:href="#DejaVuSans-6c" x="100.044922"/>
      <use xlink:href="#DejaVuSans-6c" x="127.828125"/>
      <use xlink:href="#DejaVuSans-20" x="155.611328"/>
      <use xlink:href="#DejaVuSans-5b" x="187.398438"/>
      <use xlink:href="#DejaVuSans-64" x="226.412109"/>
      <use xlink:href="#DejaVuSans-65" x="289.888672"/>
      <use xlink:href="#DejaVuSans-67" x="351.412109"/>
      <use xlink:href="#DejaVuSans-72" x="414.888672"/>
      <use xlink:href="#DejaVuSans-65" x="453.751953"/>
      <use xlink:href="#DejaVuSans-65" x="515.275391"/>
      <use xlink:href="#DejaVuSans-73" x="576.798828"/>
      <use xlink:href="#DejaVuSans-5d" x="628.898438"/>
     </g>
    </g>
   </g>
   <g id="line2d_40">
    <path d="M 64.37804 214.386015 
L 66.260095 213.048756 
L 67.201123 212.489304 
L 68.14215 212.140293 
L 71.906261 210.027088 
L 74.729344 208.830226 
L 75.670372 208.49025 
L 77.552427 207.291526 
L 78.493455 206.567669 
L 79.434482 205.486317 
L 82.257565 203.254271 
L 84.139621 201.317616 
L 85.080648 200.840711 
L 86.962704 200.894877 
L 87.903731 201.254397 
L 91.667842 205.596688 
L 94.490925 207.272528 
L 95.431953 207.724545 
L 100.137091 210.587174 
L 104.842229 212.862145 
L 106.724285 213.408937 
L 109.547368 214.783456 
L 111.429423 216.0024 
L 112.370451 216.268855 
L 113.311479 216.355323 
L 115.193534 214.80345 
L 116.134562 214.620161 
L 117.075589 213.962911 
L 118.957645 211.751073 
L 119.898672 211.037581 
L 120.8397 210.637043 
L 122.721755 209.410194 
L 123.662783 209.157737 
L 125.544838 209.23743 
L 127.426894 209.30012 
L 129.308949 209.533323 
L 134.014087 209.723383 
L 135.896143 209.745999 
L 141.542309 209.686936 
L 144.365392 209.521845 
L 148.129502 209.619106 
L 151.893613 209.830446 
L 156.598751 210.256281 
L 160.362862 210.358535 
L 163.185945 210.276205 
L 168.832111 209.712445 
L 170.714166 209.561591 
L 173.537249 209.662823 
L 174.478277 209.798733 
L 179.183415 209.940503 
L 182.006498 209.99673 
L 183.888554 209.75318 
L 184.829581 209.525195 
L 186.711637 209.359187 
L 187.652664 209.215936 
L 191.416775 209.079042 
L 193.29883 209.005757 
L 200.827052 209.083484 
L 208.355273 209.244967 
L 209.296301 209.365638 
L 211.178356 209.302609 
L 213.060411 209.288866 
L 216.824522 209.33903 
L 217.76555 209.446568 
L 223.411716 209.373093 
L 228.116854 209.357409 
L 229.057882 209.369104 
L 230.939937 209.747997 
L 231.880965 209.78843 
L 233.76302 209.546341 
L 234.704048 209.396652 
L 236.586103 208.740707 
L 240.350214 206.648024 
L 243.173297 204.001837 
L 244.114324 203.140223 
L 245.055352 201.386439 
L 245.99638 200.18325 
L 246.937407 198.117719 
L 248.819463 194.571888 
L 249.76049 193.397062 
L 250.701518 192.79673 
L 251.642546 193.175227 
L 252.583573 195.121617 
L 254.465629 197.991327 
L 256.347684 200.31394 
L 257.288712 201.726906 
L 258.229739 202.915279 
L 259.170767 204.748174 
L 260.111795 206.177107 
L 261.99385 207.94324 
L 262.934878 208.618199 
L 266.698988 212.385785 
L 267.640016 213.631115 
L 269.522071 215.049105 
L 270.463099 216.39382 
L 271.404127 216.941919 
L 272.345154 217.892088 
L 273.286182 217.705059 
L 274.22721 217.267976 
L 275.168237 216.60998 
L 276.109265 215.275355 
L 278.932348 212.313723 
L 279.873376 211.642924 
L 280.814403 211.162559 
L 281.755431 210.272602 
L 282.696459 209.751711 
L 283.637486 209.378308 
L 284.578514 208.554738 
L 285.519542 207.401261 
L 287.401597 204.136111 
L 288.342625 202.07653 
L 289.283652 200.382536 
L 290.22468 197.810275 
L 292.106735 194.402149 
L 293.047763 192.406844 
L 293.988791 262.554353 
L 295.870846 259.878158 
L 296.811874 258.546816 
L 297.752901 257.920896 
L 298.693929 257.649829 
L 299.634957 257.772198 
L 300.575984 258.273496 
L 302.45804 261.061772 
L 303.399067 262.543342 
L 304.340095 192.605792 
L 306.22215 196.17859 
L 307.163178 198.631803 
L 308.104206 200.327154 
L 311.868316 205.124527 
L 312.809344 205.879353 
L 313.750372 206.895436 
L 315.632427 208.348399 
L 316.573455 208.894055 
L 317.514482 209.297051 
L 318.45551 210.042868 
L 321.278593 211.500328 
L 324.101676 213.553297 
L 325.042704 214.051811 
L 326.924759 214.482406 
L 327.865787 214.407003 
L 328.806814 214.13354 
L 329.747842 214.07526 
L 332.570925 212.572313 
L 333.511953 211.844976 
L 334.45298 211.421031 
L 335.394008 211.15661 
L 336.335036 210.764732 
L 337.276063 210.731258 
L 338.217091 210.535271 
L 339.158119 210.20433 
L 340.099146 209.437087 
L 341.040174 207.682041 
L 341.981202 206.216023 
L 342.922229 204.445455 
L 345.745313 199.776663 
L 346.68634 198.737559 
L 349.509423 194.8438 
L 351.391479 194.502834 
L 352.332506 194.747453 
L 353.273534 195.455614 
L 354.214562 196.637297 
L 357.037645 202.654091 
L 357.978672 204.346338 
L 358.9197 205.747529 
L 359.860728 206.708397 
L 360.801755 207.864677 
L 361.742783 208.644761 
L 363.624838 209.474048 
L 364.565866 209.689497 
L 365.506894 209.739009 
L 367.388949 210.457645 
L 369.271004 212.157959 
L 370.212032 213.392612 
L 372.094087 215.103635 
L 373.035115 215.702256 
L 373.976143 215.999812 
L 374.91717 216.101304 
L 375.858198 215.785386 
L 376.799226 214.819375 
L 377.740253 214.174345 
L 379.622309 213.380673 
L 384.327447 210.020874 
L 385.268475 209.736488 
L 389.032585 209.794574 
L 389.032585 209.794574 
" clip-path="url(#p69c1c64e22)" style="fill: none; stroke: #008000; stroke-width: 1.5; stroke-linecap: square"/>
   </g>
   <g id="line2d_41">
    <path d="M 64.37804 214.386017 
L 65.319067 213.22709 
L 66.260095 212.576693 
L 68.14215 211.663812 
L 70.024206 210.584177 
L 70.965233 209.884712 
L 73.788316 208.540314 
L 75.670372 207.654601 
L 77.552427 206.660877 
L 78.493455 205.831432 
L 80.37551 203.826742 
L 82.257565 202.124324 
L 84.139621 199.853084 
L 85.080648 199.130556 
L 86.021676 198.989841 
L 86.962704 199.084453 
L 87.903731 199.330789 
L 88.844759 200.417068 
L 90.726814 203.25983 
L 91.667842 204.30408 
L 92.60887 205.112574 
L 94.490925 206.347975 
L 96.37298 207.514009 
L 102.019146 211.159761 
L 104.842229 212.75302 
L 106.724285 213.374766 
L 107.665313 213.7867 
L 110.488396 215.559329 
L 111.429423 216.266379 
L 112.370451 216.706263 
L 113.311479 216.838498 
L 114.252506 216.392366 
L 115.193534 215.263367 
L 117.075589 214.642554 
L 118.016617 213.488467 
L 119.898672 210.567915 
L 120.8397 210.114662 
L 121.780728 209.784973 
L 122.721755 208.886293 
L 123.662783 208.325894 
L 124.603811 208.316349 
L 125.544838 208.449105 
L 127.426894 208.394976 
L 131.191004 208.769988 
L 134.955115 208.903326 
L 136.83717 208.825036 
L 142.483336 208.751743 
L 146.247447 208.699407 
L 148.129502 208.797278 
L 150.011558 208.851739 
L 158.480807 209.398932 
L 160.362862 209.306009 
L 166.009028 209.003738 
L 171.655194 208.528442 
L 175.419305 208.819107 
L 177.30136 208.91609 
L 182.947526 208.940878 
L 183.888554 208.82349 
L 184.829581 208.548415 
L 192.357803 208.074663 
L 198.003969 208.093903 
L 214.001439 208.280566 
L 216.824522 208.283569 
L 217.76555 208.405257 
L 224.352743 208.450203 
L 227.175826 208.54401 
L 229.057882 208.486375 
L 230.939937 208.825698 
L 235.645075 208.318106 
L 236.586103 207.962644 
L 238.468158 207.036343 
L 240.350214 206.395351 
L 244.114324 203.644482 
L 245.055352 202.156146 
L 245.99638 201.33836 
L 246.937407 199.227829 
L 247.878435 197.426541 
L 248.819463 195.347548 
L 249.76049 193.917143 
L 250.701518 193.03895 
L 251.642546 193.417232 
L 252.583573 195.62986 
L 254.465629 198.564074 
L 256.347684 201.208623 
L 257.288712 202.277051 
L 258.229739 203.689214 
L 259.170767 205.319535 
L 261.052822 207.050919 
L 263.875905 208.646389 
L 265.757961 209.997177 
L 266.698988 210.843795 
L 267.640016 211.936417 
L 269.522071 213.126798 
L 270.463099 214.408744 
L 272.345154 215.589685 
L 273.286182 215.481589 
L 274.22721 215.087502 
L 275.168237 214.271266 
L 276.109265 212.89547 
L 277.050293 211.944749 
L 278.932348 210.766313 
L 280.814403 210.039449 
L 281.755431 209.444848 
L 282.696459 209.184518 
L 283.637486 209.131589 
L 284.578514 208.706698 
L 285.519542 208.027674 
L 289.283652 202.85605 
L 291.165708 198.822074 
L 292.106735 197.078109 
L 293.988791 192.496271 
L 294.929818 262.305197 
L 296.811874 258.898714 
L 297.752901 257.751586 
L 298.693929 257.474228 
L 299.634957 257.386073 
L 300.575984 258.078125 
L 301.517012 259.309212 
L 302.45804 261.076494 
L 303.399067 191.401412 
L 306.22215 197.410887 
L 307.163178 199.802446 
L 308.104206 201.215621 
L 309.045233 202.863975 
L 309.986261 203.737003 
L 310.927289 204.889697 
L 313.750372 207.24642 
L 316.573455 208.63787 
L 317.514482 208.919576 
L 319.396538 209.925529 
L 321.278593 210.509814 
L 322.219621 211.010186 
L 325.042704 212.934734 
L 326.924759 213.366473 
L 327.865787 213.295001 
L 328.806814 212.875422 
L 329.747842 212.691805 
L 330.68887 212.295779 
L 332.570925 211.804778 
L 333.511953 211.375081 
L 334.45298 211.207366 
L 335.394008 211.215834 
L 336.335036 211.093414 
L 337.276063 211.402101 
L 339.158119 211.552493 
L 340.099146 211.198473 
L 341.981202 209.019268 
L 343.863257 206.195449 
L 344.804285 205.265736 
L 345.745313 204.007674 
L 346.68634 203.059096 
L 348.568396 200.292045 
L 349.509423 198.787811 
L 350.450451 198.388 
L 351.391479 198.18108 
L 352.332506 198.217358 
L 353.273534 198.840866 
L 354.214562 199.987253 
L 357.037645 205.158656 
L 357.978672 206.353387 
L 358.9197 207.24016 
L 361.742783 209.224571 
L 363.624838 209.485652 
L 364.565866 209.371368 
L 365.506894 209.114667 
L 367.388949 209.268515 
L 369.271004 210.393692 
L 371.15306 212.469197 
L 372.094087 213.466825 
L 373.035115 214.133116 
L 373.976143 214.484389 
L 374.91717 214.630166 
L 375.858198 214.160817 
L 376.799226 213.182925 
L 377.740253 212.680396 
L 378.681281 212.756034 
L 379.622309 212.57111 
L 382.445392 211.232027 
L 383.386419 210.539006 
L 385.268475 209.71822 
L 387.15053 209.570841 
L 389.032585 209.683309 
L 389.032585 209.683309 
" clip-path="url(#p69c1c64e22)" style="fill: none; stroke: #ff0000; stroke-width: 1.5; stroke-linecap: square"/>
   </g>
   <g id="patch_14">
    <path d="M 48.145313 266.112 
L 48.145313 187.843765 
" style="fill: none; stroke: #000000; stroke-width: 0.8; stroke-linejoin: miter; stroke-linecap: square"/>
   </g>
   <g id="patch_15">
    <path d="M 405.265313 266.112 
L 405.265313 187.843765 
" style="fill: none; stroke: #000000; stroke-width: 0.8; stroke-linejoin: miter; stroke-linecap: square"/>
   </g>
   <g id="patch_16">
    <path d="M 48.145313 266.112 
L 405.265313 266.112 
" style="fill: none; stroke: #000000; stroke-width: 0.8; stroke-linejoin: miter; stroke-linecap: square"/>
   </g>
   <g id="patch_17">
    <path d="M 48.145313 187.843765 
L 405.265313 187.843765 
" style="fill: none; stroke: #000000; stroke-width: 0.8; stroke-linejoin: miter; stroke-linecap: square"/>
   </g>
  </g>
 </g>
 <defs>
  <clipPath id="p5c522b1a3c">
   <rect x="48.145313" y="-0" width="357.12" height="78.268235"/>
  </clipPath>
  <clipPath id="p92566feaa4">
   <rect x="48.145313" y="93.921882" width="357.12" height="78.268235"/>
  </clipPath>
  <clipPath id="p69c1c64e22">
   <rect x="48.145313" y="187.843765" width="357.12" height="78.268235"/>
  </clipPath>
 </defs>
</svg>
