<?xml version="1.0" encoding="utf-8" standalone="no"?>
<!DOCTYPE svg PUBLIC "-//W3C//DTD SVG 1.1//EN"
  "http://www.w3.org/Graphics/SVG/1.1/DTD/svg11.dtd">
<svg xmlns:xlink="http://www.w3.org/1999/xlink" width="412.04pt" height="269.612pt" viewBox="0 0 412.04 269.612" xmlns="http://www.w3.org/2000/svg" version="1.1">
 <metadata>
  <rdf:RDF xmlns:dc="http://purl.org/dc/elements/1.1/" xmlns:cc="http://creativecommons.org/ns#" xmlns:rdf="http://www.w3.org/1999/02/22-rdf-syntax-ns#">
   <cc:Work>
    <dc:type rdf:resource="http://purl.org/dc/dcmitype/StillImage"/>
    <dc:date>2022-02-10T00:57:05.873354</dc:date>
    <dc:format>image/svg+xml</dc:format>
    <dc:creator>
     <cc:Agent>
      <dc:title>Matplotlib v3.5.1, https://matplotlib.org/</dc:title>
     </cc:Agent>
    </dc:creator>
   </cc:Work>
  </rdf:RDF>
 </metadata>
 <defs>
  <style type="text/css">*{stroke-linejoin: round; stroke-linecap: butt}</style>
 </defs>
 <g id="figure_1">
  <g id="patch_1">
   <path d="M 0 269.612 
L 412.04 269.612 
L 412.04 0 
L 0 0 
z
" style="fill: #ffffff"/>
  </g>
  <g id="axes_1">
   <g id="patch_2">
    <path d="M 54.92 78.268235 
L 412.04 78.268235 
L 412.04 0 
L 54.92 0 
z
" style="fill: #ffffff"/>
   </g>
   <g id="matplotlib.axis_1"/>
   <g id="matplotlib.axis_2">
    <g id="ytick_1">
     <g id="line2d_1">
      <defs>
       <path id="mf5e840d18c" d="M 0 0 
L -3.5 0 
" style="stroke: #000000; stroke-width: 0.8"/>
      </defs>
      <g>
       <use xlink:href="#mf5e840d18c" x="54.92" y="68.305164" style="stroke: #000000; stroke-width: 0.8"/>
      </g>
     </g>
     <g id="text_1">
      <!-- −140 -->
      <g transform="translate(20.452813 72.104383)scale(0.1 -0.1)">
       <defs>
        <path id="DejaVuSans-2212" d="M 678 2272 
L 4684 2272 
L 4684 1741 
L 678 1741 
L 678 2272 
z
" transform="scale(0.015625)"/>
        <path id="DejaVuSans-31" d="M 794 531 
L 1825 531 
L 1825 4091 
L 703 3866 
L 703 4441 
L 1819 4666 
L 2450 4666 
L 2450 531 
L 3481 531 
L 3481 0 
L 794 0 
L 794 531 
z
" transform="scale(0.015625)"/>
        <path id="DejaVuSans-34" d="M 2419 4116 
L 825 1625 
L 2419 1625 
L 2419 4116 
z
M 2253 4666 
L 3047 4666 
L 3047 1625 
L 3713 1625 
L 3713 1100 
L 3047 1100 
L 3047 0 
L 2419 0 
L 2419 1100 
L 313 1100 
L 313 1709 
L 2253 4666 
z
" transform="scale(0.015625)"/>
        <path id="DejaVuSans-30" d="M 2034 4250 
Q 1547 4250 1301 3770 
Q 1056 3291 1056 2328 
Q 1056 1369 1301 889 
Q 1547 409 2034 409 
Q 2525 409 2770 889 
Q 3016 1369 3016 2328 
Q 3016 3291 2770 3770 
Q 2525 4250 2034 4250 
z
M 2034 4750 
Q 2819 4750 3233 4129 
Q 3647 3509 3647 2328 
Q 3647 1150 3233 529 
Q 2819 -91 2034 -91 
Q 1250 -91 836 529 
Q 422 1150 422 2328 
Q 422 3509 836 4129 
Q 1250 4750 2034 4750 
z
" transform="scale(0.015625)"/>
       </defs>
       <use xlink:href="#DejaVuSans-2212"/>
       <use xlink:href="#DejaVuSans-31" x="83.789062"/>
       <use xlink:href="#DejaVuSans-34" x="147.412109"/>
       <use xlink:href="#DejaVuSans-30" x="211.035156"/>
      </g>
     </g>
    </g>
    <g id="ytick_2">
     <g id="line2d_2">
      <g>
       <use xlink:href="#mf5e840d18c" x="54.92" y="29.894747" style="stroke: #000000; stroke-width: 0.8"/>
      </g>
     </g>
     <g id="text_2">
      <!-- −120 -->
      <g transform="translate(20.452813 33.693966)scale(0.1 -0.1)">
       <defs>
        <path id="DejaVuSans-32" d="M 1228 531 
L 3431 531 
L 3431 0 
L 469 0 
L 469 531 
Q 828 903 1448 1529 
Q 2069 2156 2228 2338 
Q 2531 2678 2651 2914 
Q 2772 3150 2772 3378 
Q 2772 3750 2511 3984 
Q 2250 4219 1831 4219 
Q 1534 4219 1204 4116 
Q 875 4013 500 3803 
L 500 4441 
Q 881 4594 1212 4672 
Q 1544 4750 1819 4750 
Q 2544 4750 2975 4387 
Q 3406 4025 3406 3419 
Q 3406 3131 3298 2873 
Q 3191 2616 2906 2266 
Q 2828 2175 2409 1742 
Q 1991 1309 1228 531 
z
" transform="scale(0.015625)"/>
       </defs>
       <use xlink:href="#DejaVuSans-2212"/>
       <use xlink:href="#DejaVuSans-31" x="83.789062"/>
       <use xlink:href="#DejaVuSans-32" x="147.412109"/>
       <use xlink:href="#DejaVuSans-30" x="211.035156"/>
      </g>
     </g>
    </g>
    <g id="text_3">
     <!-- yaw [°] -->
     <g transform="translate(12.917344 69.90943)rotate(-90)scale(0.17 -0.17)">
      <defs>
       <path id="DejaVuSans-79" d="M 2059 -325 
Q 1816 -950 1584 -1140 
Q 1353 -1331 966 -1331 
L 506 -1331 
L 506 -850 
L 844 -850 
Q 1081 -850 1212 -737 
Q 1344 -625 1503 -206 
L 1606 56 
L 191 3500 
L 800 3500 
L 1894 763 
L 2988 3500 
L 3597 3500 
L 2059 -325 
z
" transform="scale(0.015625)"/>
       <path id="DejaVuSans-61" d="M 2194 1759 
Q 1497 1759 1228 1600 
Q 959 1441 959 1056 
Q 959 750 1161 570 
Q 1363 391 1709 391 
Q 2188 391 2477 730 
Q 2766 1069 2766 1631 
L 2766 1759 
L 2194 1759 
z
M 3341 1997 
L 3341 0 
L 2766 0 
L 2766 531 
Q 2569 213 2275 61 
Q 1981 -91 1556 -91 
Q 1019 -91 701 211 
Q 384 513 384 1019 
Q 384 1609 779 1909 
Q 1175 2209 1959 2209 
L 2766 2209 
L 2766 2266 
Q 2766 2663 2505 2880 
Q 2244 3097 1772 3097 
Q 1472 3097 1187 3025 
Q 903 2953 641 2809 
L 641 3341 
Q 956 3463 1253 3523 
Q 1550 3584 1831 3584 
Q 2591 3584 2966 3190 
Q 3341 2797 3341 1997 
z
" transform="scale(0.015625)"/>
       <path id="DejaVuSans-77" d="M 269 3500 
L 844 3500 
L 1563 769 
L 2278 3500 
L 2956 3500 
L 3675 769 
L 4391 3500 
L 4966 3500 
L 4050 0 
L 3372 0 
L 2619 2869 
L 1863 0 
L 1184 0 
L 269 3500 
z
" transform="scale(0.015625)"/>
       <path id="DejaVuSans-20" transform="scale(0.015625)"/>
       <path id="DejaVuSans-5b" d="M 550 4863 
L 1875 4863 
L 1875 4416 
L 1125 4416 
L 1125 -397 
L 1875 -397 
L 1875 -844 
L 550 -844 
L 550 4863 
z
" transform="scale(0.015625)"/>
       <path id="DejaVuSans-b0" d="M 1600 4347 
Q 1350 4347 1178 4173 
Q 1006 4000 1006 3750 
Q 1006 3503 1178 3333 
Q 1350 3163 1600 3163 
Q 1850 3163 2022 3333 
Q 2194 3503 2194 3750 
Q 2194 3997 2020 4172 
Q 1847 4347 1600 4347 
z
M 1600 4750 
Q 1800 4750 1984 4673 
Q 2169 4597 2303 4453 
Q 2447 4313 2519 4134 
Q 2591 3956 2591 3750 
Q 2591 3338 2302 3052 
Q 2013 2766 1594 2766 
Q 1172 2766 890 3047 
Q 609 3328 609 3750 
Q 609 4169 896 4459 
Q 1184 4750 1600 4750 
z
" transform="scale(0.015625)"/>
       <path id="DejaVuSans-5d" d="M 1947 4863 
L 1947 -844 
L 622 -844 
L 622 -397 
L 1369 -397 
L 1369 4416 
L 622 4416 
L 622 4863 
L 1947 4863 
z
" transform="scale(0.015625)"/>
      </defs>
      <use xlink:href="#DejaVuSans-79"/>
      <use xlink:href="#DejaVuSans-61" x="59.179688"/>
      <use xlink:href="#DejaVuSans-77" x="120.458984"/>
      <use xlink:href="#DejaVuSans-20" x="202.246094"/>
      <use xlink:href="#DejaVuSans-5b" x="234.033203"/>
      <use xlink:href="#DejaVuSans-b0" x="273.046875"/>
      <use xlink:href="#DejaVuSans-5d" x="323.046875"/>
     </g>
    </g>
   </g>
   <g id="line2d_3">
    <path d="M 71.152727 45.177333 
L 73.220591 49.961695 
L 75.288454 55.427054 
L 77.356317 55.115711 
L 79.424181 55.205149 
L 81.492044 55.747204 
L 83.559907 61.906929 
L 85.627771 61.72906 
L 87.695634 58.164501 
L 89.763497 58.587851 
L 91.831361 56.710884 
L 95.967087 49.352446 
L 98.034951 47.661853 
L 100.102814 39.24662 
L 102.170677 27.074177 
L 104.238541 27.522057 
L 106.306404 35.964586 
L 108.374268 45.84497 
L 110.442131 51.208026 
L 112.509994 52.638467 
L 114.577858 51.54366 
L 118.713584 60.272682 
L 120.781448 64.945552 
L 122.849311 63.736261 
L 124.917174 63.197607 
L 126.985038 60.964539 
L 129.052901 58.37696 
L 131.120764 54.0543 
L 133.188628 45.906697 
L 135.256491 43.761017 
L 137.324354 44.621204 
L 139.392218 46.759401 
L 141.460081 43.987208 
L 143.527944 44.252601 
L 145.595808 47.551615 
L 147.663671 48.222193 
L 149.731534 49.202331 
L 151.799398 46.526228 
L 153.867261 50.151934 
L 155.935124 52.274419 
L 158.002988 52.755324 
L 160.070851 54.583959 
L 162.138715 57.3142 
L 164.206578 60.372045 
L 166.274441 62.46537 
L 168.342305 60.746839 
L 170.410168 62.559652 
L 172.478031 64.791763 
L 174.545895 64.89835 
L 176.613758 65.32233 
L 178.681621 64.70222 
L 180.749485 62.877788 
L 182.817348 60.446287 
L 184.885211 58.935217 
L 186.953075 56.5879 
L 189.020938 53.559454 
L 191.088801 52.604149 
L 193.156665 47.180447 
L 195.224528 44.647168 
L 197.292391 46.749578 
L 199.360255 50.311036 
L 201.428118 52.599098 
L 203.495981 52.897753 
L 205.563845 53.078912 
L 207.631708 54.065719 
L 209.699572 56.018313 
L 211.767435 54.660752 
L 213.835298 51.219782 
L 215.903162 49.15619 
L 217.971025 49.820529 
L 220.038888 50.796385 
L 222.106752 53.387284 
L 224.174615 52.880253 
L 226.242478 55.337182 
L 228.310342 56.547454 
L 230.378205 56.093475 
L 232.446068 58.873329 
L 234.513932 58.702609 
L 236.581795 58.396164 
L 238.649658 59.622257 
L 240.717522 64.153517 
L 242.785385 63.308373 
L 244.853248 62.711481 
L 246.921112 61.895905 
L 248.988975 62.06763 
L 251.056838 61.988563 
L 253.124702 63.609309 
L 255.192565 66.012462 
L 257.260428 62.852539 
L 259.328292 62.49734 
L 261.396155 61.955262 
L 263.464019 62.592949 
L 265.531882 61.42957 
L 267.599745 57.423438 
L 269.667609 56.988842 
L 271.735472 58.131669 
L 273.803335 57.809978 
L 275.871199 58.844446 
L 277.939062 57.487635 
L 282.074789 57.476399 
L 284.142652 61.561333 
L 286.210515 62.653696 
L 288.278379 66.293113 
L 290.346242 65.111813 
L 292.414105 62.985119 
L 294.481969 57.079511 
L 296.549832 54.213565 
L 298.617695 52.816365 
L 300.685559 52.578898 
L 302.753422 50.263398 
L 304.821285 48.572263 
L 306.889149 47.980203 
L 308.957012 49.103259 
L 311.024876 51.402577 
L 313.092739 51.401866 
L 315.160602 51.190477 
L 317.228466 55.668186 
L 319.296329 57.206912 
L 321.364192 56.639721 
L 323.432056 59.865855 
L 325.499919 60.453455 
L 327.567782 63.532373 
L 329.635646 68.829969 
L 331.703509 71.024768 
L 333.771372 73.768387 
L 335.839236 74.370815 
L 337.907099 72.606377 
L 339.974962 67.835409 
L 342.042826 64.1946 
L 344.110689 58.666224 
L 346.178552 54.394043 
L 348.246416 53.212601 
L 350.314279 51.862824 
L 352.382142 52.272535 
L 354.450006 51.180176 
L 356.517869 52.500275 
L 358.585732 49.012436 
L 360.653596 49.032364 
L 362.721459 51.603063 
L 364.789323 55.715878 
L 366.857186 59.449308 
L 368.925049 63.485378 
L 370.992913 67.231125 
L 373.060776 67.302652 
L 375.128639 67.502635 
L 377.196503 66.158358 
L 379.264366 64.592527 
L 381.332229 64.02342 
L 383.400093 64.05872 
L 385.467956 63.414802 
L 387.535819 64.941775 
L 391.671546 64.096791 
L 393.739409 64.106305 
L 395.807273 63.148167 
L 395.807273 63.148167 
" clip-path="url(#pb6bed6f37a)" style="fill: none; stroke: #008000; stroke-width: 1.5; stroke-linecap: square"/>
   </g>
   <g id="line2d_4">
    <path d="M 71.152727 45.177243 
L 73.220591 49.380817 
L 75.288454 54.16949 
L 77.356317 55.237642 
L 79.424181 54.600347 
L 81.492044 56.406637 
L 83.559907 60.157288 
L 85.627771 65.156135 
L 87.695634 59.847209 
L 89.763497 58.209195 
L 91.831361 57.187408 
L 93.899224 54.045904 
L 95.967087 49.96381 
L 98.034951 50.625137 
L 100.102814 55.549729 
L 102.170677 51.010896 
L 104.238541 45.734341 
L 106.306404 51.593692 
L 108.374268 50.86019 
L 110.442131 57.560805 
L 112.509994 51.62039 
L 114.577858 52.146027 
L 116.645721 55.341442 
L 118.713584 62.67094 
L 120.781448 65.123916 
L 122.849311 68.068274 
L 124.917174 65.809651 
L 126.985038 56.276173 
L 129.052901 58.463834 
L 131.120764 58.917458 
L 133.188628 50.08907 
L 135.256491 42.745622 
L 137.324354 44.618351 
L 139.392218 48.326593 
L 141.460081 46.986826 
L 143.527944 42.973803 
L 145.595808 47.341191 
L 147.663671 57.056606 
L 149.731534 52.617446 
L 151.799398 51.646197 
L 153.867261 49.498815 
L 155.935124 59.828433 
L 158.002988 68.247043 
L 160.070851 67.975964 
L 162.138715 72.059197 
L 164.206578 73.905825 
L 166.274441 62.926217 
L 168.342305 63.787551 
L 170.410168 64.13493 
L 172.478031 66.126666 
L 174.545895 68.306108 
L 176.613758 68.181281 
L 178.681621 68.829212 
L 180.749485 66.992964 
L 182.817348 69.748677 
L 184.885211 67.329229 
L 186.953075 67.616798 
L 189.020938 67.50643 
L 191.088801 70.628718 
L 193.156665 67.094627 
L 195.224528 62.390262 
L 197.292391 68.02184 
L 199.360255 69.220071 
L 201.428118 70.852262 
L 203.495981 72.87258 
L 205.563845 71.171254 
L 207.631708 70.816627 
L 209.699572 71.472029 
L 211.767435 72.466602 
L 213.835298 74.710588 
L 215.903162 65.930958 
L 217.971025 64.038447 
L 220.038888 59.62165 
L 222.106752 62.442943 
L 224.174615 62.180111 
L 226.242478 65.099236 
L 228.310342 64.858675 
L 230.378205 65.670416 
L 232.446068 71.684826 
L 234.513932 65.627177 
L 236.581795 66.903882 
L 238.649658 57.411756 
L 240.717522 45.386512 
L 242.785385 55.036151 
L 244.853248 57.391556 
L 246.921112 48.279113 
L 248.988975 44.214346 
L 251.056838 36.854855 
L 253.124702 33.099344 
L 255.192565 37.206254 
L 257.260428 26.146237 
L 259.328292 20.395381 
L 261.396155 20.074931 
L 263.464019 21.086389 
L 265.531882 19.233434 
L 267.599745 15.821514 
L 269.667609 14.56117 
L 271.735472 26.714981 
L 273.803335 24.176458 
L 275.871199 26.098376 
L 277.939062 23.26163 
L 282.074789 20.44908 
L 284.142652 28.221531 
L 286.210515 29.031919 
L 288.278379 32.329045 
L 290.346242 34.150304 
L 292.414105 23.32042 
L 294.481969 14.168078 
L 296.549832 8.535872 
L 298.617695 6.626321 
L 300.685559 7.134452 
L 302.753422 5.29796 
L 304.821285 6.49363 
L 306.889149 3.557647 
L 308.957012 5.537836 
L 311.024876 8.403722 
L 313.092739 10.26133 
L 315.160602 9.147461 
L 317.228466 9.816194 
L 319.296329 13.719295 
L 321.364192 11.633926 
L 323.432056 15.847931 
L 325.499919 17.334077 
L 327.567782 14.640446 
L 329.635646 28.829652 
L 331.703509 34.450549 
L 333.771372 42.991213 
L 335.839236 52.411049 
L 337.907099 48.007613 
L 339.974962 47.596116 
L 342.042826 43.732653 
L 344.110689 34.134206 
L 346.178552 28.676196 
L 348.246416 26.235129 
L 350.314279 22.702996 
L 352.382142 20.929442 
L 354.450006 16.580571 
L 356.517869 22.129595 
L 358.585732 20.918619 
L 360.653596 19.370357 
L 362.721459 22.457696 
L 364.789323 28.061193 
L 366.857186 30.19738 
L 368.925049 34.636397 
L 370.992913 43.651308 
L 373.060776 46.573855 
L 375.128639 46.275063 
L 377.196503 44.339466 
L 381.332229 39.591648 
L 383.400093 32.36387 
L 385.467956 32.16099 
L 387.535819 33.304103 
L 389.603683 27.499096 
L 391.671546 11.352789 
L 393.739409 11.161113 
L 395.807273 10.632011 
L 395.807273 10.632011 
" clip-path="url(#pb6bed6f37a)" style="fill: none; stroke: #ff0000; stroke-width: 1.5; stroke-linecap: square"/>
   </g>
   <g id="patch_3">
    <path d="M 54.92 78.268235 
L 54.92 -0 
" style="fill: none; stroke: #000000; stroke-width: 0.8; stroke-linejoin: miter; stroke-linecap: square"/>
   </g>
   <g id="patch_4">
    <path d="M 412.04 78.268235 
L 412.04 -0 
" style="fill: none; stroke: #000000; stroke-width: 0.8; stroke-linejoin: miter; stroke-linecap: square"/>
   </g>
   <g id="patch_5">
    <path d="M 54.92 78.268235 
L 412.04 78.268235 
" style="fill: none; stroke: #000000; stroke-width: 0.8; stroke-linejoin: miter; stroke-linecap: square"/>
   </g>
   <g id="patch_6">
    <path d="M 54.92 0 
L 412.04 0 
" style="fill: none; stroke: #000000; stroke-width: 0.8; stroke-linejoin: miter; stroke-linecap: square"/>
   </g>
   <g id="legend_1">
    <g id="patch_7">
     <path d="M 66.82 63.978437 
L 231.725313 63.978437 
Q 235.125313 63.978437 235.125313 60.578437 
L 235.125313 11.9 
Q 235.125313 8.5 231.725313 8.5 
L 66.82 8.5 
Q 63.42 8.5 63.42 11.9 
L 63.42 60.578437 
Q 63.42 63.978437 66.82 63.978437 
z
" style="fill: #ffffff; opacity: 0.8; stroke: #cccccc; stroke-linejoin: miter"/>
    </g>
    <g id="line2d_5">
     <path d="M 70.22 22.267344 
L 87.22 22.267344 
L 104.22 22.267344 
" style="fill: none; stroke: #008000; stroke-width: 1.5; stroke-linecap: square"/>
    </g>
    <g id="text_4">
     <!-- ground_truth -->
     <g transform="translate(117.82 28.217344)scale(0.17 -0.17)">
      <defs>
       <path id="DejaVuSans-67" d="M 2906 1791 
Q 2906 2416 2648 2759 
Q 2391 3103 1925 3103 
Q 1463 3103 1205 2759 
Q 947 2416 947 1791 
Q 947 1169 1205 825 
Q 1463 481 1925 481 
Q 2391 481 2648 825 
Q 2906 1169 2906 1791 
z
M 3481 434 
Q 3481 -459 3084 -895 
Q 2688 -1331 1869 -1331 
Q 1566 -1331 1297 -1286 
Q 1028 -1241 775 -1147 
L 775 -588 
Q 1028 -725 1275 -790 
Q 1522 -856 1778 -856 
Q 2344 -856 2625 -561 
Q 2906 -266 2906 331 
L 2906 616 
Q 2728 306 2450 153 
Q 2172 0 1784 0 
Q 1141 0 747 490 
Q 353 981 353 1791 
Q 353 2603 747 3093 
Q 1141 3584 1784 3584 
Q 2172 3584 2450 3431 
Q 2728 3278 2906 2969 
L 2906 3500 
L 3481 3500 
L 3481 434 
z
" transform="scale(0.015625)"/>
       <path id="DejaVuSans-72" d="M 2631 2963 
Q 2534 3019 2420 3045 
Q 2306 3072 2169 3072 
Q 1681 3072 1420 2755 
Q 1159 2438 1159 1844 
L 1159 0 
L 581 0 
L 581 3500 
L 1159 3500 
L 1159 2956 
Q 1341 3275 1631 3429 
Q 1922 3584 2338 3584 
Q 2397 3584 2469 3576 
Q 2541 3569 2628 3553 
L 2631 2963 
z
" transform="scale(0.015625)"/>
       <path id="DejaVuSans-6f" d="M 1959 3097 
Q 1497 3097 1228 2736 
Q 959 2375 959 1747 
Q 959 1119 1226 758 
Q 1494 397 1959 397 
Q 2419 397 2687 759 
Q 2956 1122 2956 1747 
Q 2956 2369 2687 2733 
Q 2419 3097 1959 3097 
z
M 1959 3584 
Q 2709 3584 3137 3096 
Q 3566 2609 3566 1747 
Q 3566 888 3137 398 
Q 2709 -91 1959 -91 
Q 1206 -91 779 398 
Q 353 888 353 1747 
Q 353 2609 779 3096 
Q 1206 3584 1959 3584 
z
" transform="scale(0.015625)"/>
       <path id="DejaVuSans-75" d="M 544 1381 
L 544 3500 
L 1119 3500 
L 1119 1403 
Q 1119 906 1312 657 
Q 1506 409 1894 409 
Q 2359 409 2629 706 
Q 2900 1003 2900 1516 
L 2900 3500 
L 3475 3500 
L 3475 0 
L 2900 0 
L 2900 538 
Q 2691 219 2414 64 
Q 2138 -91 1772 -91 
Q 1169 -91 856 284 
Q 544 659 544 1381 
z
M 1991 3584 
L 1991 3584 
z
" transform="scale(0.015625)"/>
       <path id="DejaVuSans-6e" d="M 3513 2113 
L 3513 0 
L 2938 0 
L 2938 2094 
Q 2938 2591 2744 2837 
Q 2550 3084 2163 3084 
Q 1697 3084 1428 2787 
Q 1159 2491 1159 1978 
L 1159 0 
L 581 0 
L 581 3500 
L 1159 3500 
L 1159 2956 
Q 1366 3272 1645 3428 
Q 1925 3584 2291 3584 
Q 2894 3584 3203 3211 
Q 3513 2838 3513 2113 
z
" transform="scale(0.015625)"/>
       <path id="DejaVuSans-64" d="M 2906 2969 
L 2906 4863 
L 3481 4863 
L 3481 0 
L 2906 0 
L 2906 525 
Q 2725 213 2448 61 
Q 2172 -91 1784 -91 
Q 1150 -91 751 415 
Q 353 922 353 1747 
Q 353 2572 751 3078 
Q 1150 3584 1784 3584 
Q 2172 3584 2448 3432 
Q 2725 3281 2906 2969 
z
M 947 1747 
Q 947 1113 1208 752 
Q 1469 391 1925 391 
Q 2381 391 2643 752 
Q 2906 1113 2906 1747 
Q 2906 2381 2643 2742 
Q 2381 3103 1925 3103 
Q 1469 3103 1208 2742 
Q 947 2381 947 1747 
z
" transform="scale(0.015625)"/>
       <path id="DejaVuSans-5f" d="M 3263 -1063 
L 3263 -1509 
L -63 -1509 
L -63 -1063 
L 3263 -1063 
z
" transform="scale(0.015625)"/>
       <path id="DejaVuSans-74" d="M 1172 4494 
L 1172 3500 
L 2356 3500 
L 2356 3053 
L 1172 3053 
L 1172 1153 
Q 1172 725 1289 603 
Q 1406 481 1766 481 
L 2356 481 
L 2356 0 
L 1766 0 
Q 1100 0 847 248 
Q 594 497 594 1153 
L 594 3053 
L 172 3053 
L 172 3500 
L 594 3500 
L 594 4494 
L 1172 4494 
z
" transform="scale(0.015625)"/>
       <path id="DejaVuSans-68" d="M 3513 2113 
L 3513 0 
L 2938 0 
L 2938 2094 
Q 2938 2591 2744 2837 
Q 2550 3084 2163 3084 
Q 1697 3084 1428 2787 
Q 1159 2491 1159 1978 
L 1159 0 
L 581 0 
L 581 4863 
L 1159 4863 
L 1159 2956 
Q 1366 3272 1645 3428 
Q 1925 3584 2291 3584 
Q 2894 3584 3203 3211 
Q 3513 2838 3513 2113 
z
" transform="scale(0.015625)"/>
      </defs>
      <use xlink:href="#DejaVuSans-67"/>
      <use xlink:href="#DejaVuSans-72" x="63.476562"/>
      <use xlink:href="#DejaVuSans-6f" x="102.339844"/>
      <use xlink:href="#DejaVuSans-75" x="163.521484"/>
      <use xlink:href="#DejaVuSans-6e" x="226.900391"/>
      <use xlink:href="#DejaVuSans-64" x="290.279297"/>
      <use xlink:href="#DejaVuSans-5f" x="353.755859"/>
      <use xlink:href="#DejaVuSans-74" x="403.755859"/>
      <use xlink:href="#DejaVuSans-72" x="442.964844"/>
      <use xlink:href="#DejaVuSans-75" x="484.078125"/>
      <use xlink:href="#DejaVuSans-74" x="547.457031"/>
      <use xlink:href="#DejaVuSans-68" x="586.666016"/>
     </g>
    </g>
    <g id="line2d_6">
     <path d="M 70.22 47.692969 
L 87.22 47.692969 
L 104.22 47.692969 
" style="fill: none; stroke: #ff0000; stroke-width: 1.5; stroke-linecap: square"/>
    </g>
    <g id="text_5">
     <!-- estimated -->
     <g transform="translate(117.82 53.642969)scale(0.17 -0.17)">
      <defs>
       <path id="DejaVuSans-65" d="M 3597 1894 
L 3597 1613 
L 953 1613 
Q 991 1019 1311 708 
Q 1631 397 2203 397 
Q 2534 397 2845 478 
Q 3156 559 3463 722 
L 3463 178 
Q 3153 47 2828 -22 
Q 2503 -91 2169 -91 
Q 1331 -91 842 396 
Q 353 884 353 1716 
Q 353 2575 817 3079 
Q 1281 3584 2069 3584 
Q 2775 3584 3186 3129 
Q 3597 2675 3597 1894 
z
M 3022 2063 
Q 3016 2534 2758 2815 
Q 2500 3097 2075 3097 
Q 1594 3097 1305 2825 
Q 1016 2553 972 2059 
L 3022 2063 
z
" transform="scale(0.015625)"/>
       <path id="DejaVuSans-73" d="M 2834 3397 
L 2834 2853 
Q 2591 2978 2328 3040 
Q 2066 3103 1784 3103 
Q 1356 3103 1142 2972 
Q 928 2841 928 2578 
Q 928 2378 1081 2264 
Q 1234 2150 1697 2047 
L 1894 2003 
Q 2506 1872 2764 1633 
Q 3022 1394 3022 966 
Q 3022 478 2636 193 
Q 2250 -91 1575 -91 
Q 1294 -91 989 -36 
Q 684 19 347 128 
L 347 722 
Q 666 556 975 473 
Q 1284 391 1588 391 
Q 1994 391 2212 530 
Q 2431 669 2431 922 
Q 2431 1156 2273 1281 
Q 2116 1406 1581 1522 
L 1381 1569 
Q 847 1681 609 1914 
Q 372 2147 372 2553 
Q 372 3047 722 3315 
Q 1072 3584 1716 3584 
Q 2034 3584 2315 3537 
Q 2597 3491 2834 3397 
z
" transform="scale(0.015625)"/>
       <path id="DejaVuSans-69" d="M 603 3500 
L 1178 3500 
L 1178 0 
L 603 0 
L 603 3500 
z
M 603 4863 
L 1178 4863 
L 1178 4134 
L 603 4134 
L 603 4863 
z
" transform="scale(0.015625)"/>
       <path id="DejaVuSans-6d" d="M 3328 2828 
Q 3544 3216 3844 3400 
Q 4144 3584 4550 3584 
Q 5097 3584 5394 3201 
Q 5691 2819 5691 2113 
L 5691 0 
L 5113 0 
L 5113 2094 
Q 5113 2597 4934 2840 
Q 4756 3084 4391 3084 
Q 3944 3084 3684 2787 
Q 3425 2491 3425 1978 
L 3425 0 
L 2847 0 
L 2847 2094 
Q 2847 2600 2669 2842 
Q 2491 3084 2119 3084 
Q 1678 3084 1418 2786 
Q 1159 2488 1159 1978 
L 1159 0 
L 581 0 
L 581 3500 
L 1159 3500 
L 1159 2956 
Q 1356 3278 1631 3431 
Q 1906 3584 2284 3584 
Q 2666 3584 2933 3390 
Q 3200 3197 3328 2828 
z
" transform="scale(0.015625)"/>
      </defs>
      <use xlink:href="#DejaVuSans-65"/>
      <use xlink:href="#DejaVuSans-73" x="61.523438"/>
      <use xlink:href="#DejaVuSans-74" x="113.623047"/>
      <use xlink:href="#DejaVuSans-69" x="152.832031"/>
      <use xlink:href="#DejaVuSans-6d" x="180.615234"/>
      <use xlink:href="#DejaVuSans-61" x="278.027344"/>
      <use xlink:href="#DejaVuSans-74" x="339.306641"/>
      <use xlink:href="#DejaVuSans-65" x="378.515625"/>
      <use xlink:href="#DejaVuSans-64" x="440.039062"/>
     </g>
    </g>
   </g>
  </g>
  <g id="axes_2">
   <g id="patch_8">
    <path d="M 54.92 172.190118 
L 412.04 172.190118 
L 412.04 93.921882 
L 54.92 93.921882 
z
" style="fill: #ffffff"/>
   </g>
   <g id="matplotlib.axis_3"/>
   <g id="matplotlib.axis_4">
    <g id="ytick_3">
     <g id="line2d_7">
      <g>
       <use xlink:href="#mf5e840d18c" x="54.92" y="151.923476" style="stroke: #000000; stroke-width: 0.8"/>
      </g>
     </g>
     <g id="text_6">
      <!-- 0 -->
      <g transform="translate(41.5575 155.722695)scale(0.1 -0.1)">
       <use xlink:href="#DejaVuSans-30"/>
      </g>
     </g>
    </g>
    <g id="ytick_4">
     <g id="line2d_8">
      <g>
       <use xlink:href="#mf5e840d18c" x="54.92" y="110.648437" style="stroke: #000000; stroke-width: 0.8"/>
      </g>
     </g>
     <g id="text_7">
      <!-- 20 -->
      <g transform="translate(35.195 114.447656)scale(0.1 -0.1)">
       <use xlink:href="#DejaVuSans-32"/>
       <use xlink:href="#DejaVuSans-30" x="63.623047"/>
      </g>
     </g>
    </g>
    <g id="text_8">
     <!-- pitch [°] -->
     <g transform="translate(27.659531 167.790453)rotate(-90)scale(0.17 -0.17)">
      <defs>
       <path id="DejaVuSans-70" d="M 1159 525 
L 1159 -1331 
L 581 -1331 
L 581 3500 
L 1159 3500 
L 1159 2969 
Q 1341 3281 1617 3432 
Q 1894 3584 2278 3584 
Q 2916 3584 3314 3078 
Q 3713 2572 3713 1747 
Q 3713 922 3314 415 
Q 2916 -91 2278 -91 
Q 1894 -91 1617 61 
Q 1341 213 1159 525 
z
M 3116 1747 
Q 3116 2381 2855 2742 
Q 2594 3103 2138 3103 
Q 1681 3103 1420 2742 
Q 1159 2381 1159 1747 
Q 1159 1113 1420 752 
Q 1681 391 2138 391 
Q 2594 391 2855 752 
Q 3116 1113 3116 1747 
z
" transform="scale(0.015625)"/>
       <path id="DejaVuSans-63" d="M 3122 3366 
L 3122 2828 
Q 2878 2963 2633 3030 
Q 2388 3097 2138 3097 
Q 1578 3097 1268 2742 
Q 959 2388 959 1747 
Q 959 1106 1268 751 
Q 1578 397 2138 397 
Q 2388 397 2633 464 
Q 2878 531 3122 666 
L 3122 134 
Q 2881 22 2623 -34 
Q 2366 -91 2075 -91 
Q 1284 -91 818 406 
Q 353 903 353 1747 
Q 353 2603 823 3093 
Q 1294 3584 2113 3584 
Q 2378 3584 2631 3529 
Q 2884 3475 3122 3366 
z
" transform="scale(0.015625)"/>
      </defs>
      <use xlink:href="#DejaVuSans-70"/>
      <use xlink:href="#DejaVuSans-69" x="63.476562"/>
      <use xlink:href="#DejaVuSans-74" x="91.259766"/>
      <use xlink:href="#DejaVuSans-63" x="130.46875"/>
      <use xlink:href="#DejaVuSans-68" x="185.449219"/>
      <use xlink:href="#DejaVuSans-20" x="248.828125"/>
      <use xlink:href="#DejaVuSans-5b" x="280.615234"/>
      <use xlink:href="#DejaVuSans-b0" x="319.628906"/>
      <use xlink:href="#DejaVuSans-5d" x="369.628906"/>
     </g>
    </g>
   </g>
   <g id="line2d_9">
    <path d="M 71.152727 153.130926 
L 73.220591 150.607773 
L 75.288454 151.148567 
L 77.356317 151.020746 
L 79.424181 152.652875 
L 81.492044 148.854307 
L 83.559907 144.809191 
L 85.627771 144.672473 
L 87.695634 142.54452 
L 89.763497 144.431035 
L 91.831361 144.265927 
L 93.899224 148.932093 
L 95.967087 151.968968 
L 98.034951 151.892474 
L 100.102814 154.741032 
L 102.170677 156.756267 
L 104.238541 155.619102 
L 106.306404 156.724905 
L 108.374268 153.271797 
L 110.442131 150.716133 
L 112.509994 149.803256 
L 114.577858 151.963535 
L 116.645721 152.011059 
L 118.713584 150.14135 
L 120.781448 149.560826 
L 122.849311 151.573295 
L 124.917174 149.771556 
L 126.985038 147.579502 
L 129.052901 152.326296 
L 131.120764 154.151436 
L 133.188628 157.335351 
L 135.256491 158.967348 
L 137.324354 158.208527 
L 139.392218 158.608515 
L 141.460081 162.176273 
L 143.527944 163.830592 
L 145.595808 162.525493 
L 147.663671 159.444852 
L 149.731534 161.819932 
L 151.799398 156.097582 
L 153.867261 155.394204 
L 155.935124 149.4249 
L 158.002988 150.628728 
L 162.138715 148.980041 
L 164.206578 152.107509 
L 166.274441 152.711317 
L 170.410168 148.842449 
L 172.478031 149.046154 
L 174.545895 148.518892 
L 176.613758 149.476552 
L 178.681621 151.209315 
L 180.749485 149.430861 
L 182.817348 152.808176 
L 184.885211 151.857272 
L 186.953075 157.811286 
L 189.020938 156.519462 
L 191.088801 167.227433 
L 193.156665 168.241973 
L 195.224528 160.361264 
L 197.292391 158.384634 
L 199.360255 157.451841 
L 201.428118 155.391128 
L 203.495981 154.230733 
L 205.563845 148.521849 
L 207.631708 146.945523 
L 209.699572 150.515577 
L 211.767435 155.193306 
L 213.835298 158.157744 
L 215.903162 158.029004 
L 217.971025 156.694834 
L 220.038888 154.059531 
L 222.106752 150.686388 
L 224.174615 151.472003 
L 226.242478 152.546329 
L 228.310342 153.843368 
L 230.378205 152.960193 
L 232.446068 149.244649 
L 234.513932 145.798719 
L 236.581795 146.05946 
L 238.649658 148.428664 
L 240.717522 151.621576 
L 242.785385 154.108752 
L 244.853248 153.142464 
L 246.921112 155.48973 
L 248.988975 157.287777 
L 251.056838 154.516611 
L 253.124702 149.952768 
L 255.192565 151.845819 
L 257.260428 150.084701 
L 259.328292 147.303613 
L 261.396155 145.718804 
L 263.464019 147.062378 
L 265.531882 150.389747 
L 267.599745 151.332977 
L 269.667609 149.602298 
L 271.735472 152.082687 
L 273.803335 151.332839 
L 275.871199 153.641851 
L 277.939062 150.650234 
L 280.006925 148.826453 
L 282.074789 149.527485 
L 284.142652 150.737656 
L 286.210515 148.729128 
L 288.278379 150.0743 
L 290.346242 148.331964 
L 292.414105 149.719502 
L 294.481969 147.459407 
L 296.549832 144.075212 
L 298.617695 144.121229 
L 300.685559 145.60582 
L 302.753422 145.529014 
L 304.821285 144.728853 
L 306.889149 144.97052 
L 308.957012 147.791933 
L 311.024876 145.251065 
L 313.092739 145.658797 
L 315.160602 149.918312 
L 317.228466 150.815062 
L 319.296329 148.627767 
L 321.364192 146.96478 
L 323.432056 149.02803 
L 325.499919 147.461974 
L 327.567782 148.343662 
L 329.635646 149.904269 
L 331.703509 148.814205 
L 333.771372 149.656692 
L 335.839236 148.353352 
L 337.907099 145.835756 
L 339.974962 145.650122 
L 342.042826 143.490082 
L 344.110689 144.29388 
L 348.246416 144.63268 
L 350.314279 143.665979 
L 352.382142 144.161111 
L 354.450006 146.978746 
L 356.517869 151.761256 
L 358.585732 149.940386 
L 360.653596 150.894042 
L 362.721459 145.41987 
L 364.789323 144.994875 
L 366.857186 147.864806 
L 370.992913 146.280815 
L 373.060776 146.638865 
L 375.128639 146.127752 
L 377.196503 144.377793 
L 379.264366 144.332193 
L 381.332229 143.993758 
L 383.400093 143.390203 
L 385.467956 143.564467 
L 387.535819 143.138115 
L 389.603683 142.16494 
L 391.671546 142.593481 
L 393.739409 143.467092 
L 395.807273 143.413067 
L 395.807273 143.413067 
" clip-path="url(#p07dd1219f7)" style="fill: none; stroke: #008000; stroke-width: 1.5; stroke-linecap: square"/>
   </g>
   <g id="line2d_10">
    <path d="M 71.152727 153.130874 
L 73.220591 152.737546 
L 75.288454 153.408976 
L 77.356317 153.486861 
L 79.424181 142.234588 
L 81.492044 136.464832 
L 83.559907 121.396715 
L 85.627771 114.360939 
L 87.695634 108.022526 
L 89.763497 104.607559 
L 91.831361 104.604064 
L 93.899224 107.59352 
L 95.967087 109.229861 
L 98.034951 109.643513 
L 102.170677 136.036204 
L 104.238541 134.657139 
L 106.306404 133.843165 
L 108.374268 124.569285 
L 110.442131 122.663754 
L 112.509994 129.312187 
L 114.577858 130.38629 
L 116.645721 132.776419 
L 118.713584 130.515513 
L 120.781448 126.446201 
L 122.849311 114.500763 
L 124.917174 110.016256 
L 126.985038 131.597598 
L 129.052901 144.840521 
L 131.120764 148.188905 
L 133.188628 153.533639 
L 135.256491 161.303896 
L 137.324354 160.994534 
L 139.392218 158.203853 
L 141.460081 164.026354 
L 145.595808 164.220971 
L 147.663671 166.208826 
L 149.731534 168.632471 
L 151.799398 162.532019 
L 153.867261 149.733603 
L 155.935124 140.533081 
L 158.002988 132.172062 
L 160.070851 130.074278 
L 162.138715 127.361956 
L 164.206578 128.552365 
L 166.274441 129.541322 
L 168.342305 132.950112 
L 170.410168 132.044326 
L 172.478031 131.488827 
L 174.545895 131.882703 
L 176.613758 135.018272 
L 178.681621 136.298561 
L 180.749485 135.425519 
L 182.817348 124.839125 
L 184.885211 124.391258 
L 186.953075 128.407942 
L 189.020938 124.835498 
L 191.088801 136.169992 
L 193.156665 142.763369 
L 195.224528 134.666151 
L 197.292391 130.109628 
L 199.360255 130.870687 
L 201.428118 124.819466 
L 203.495981 122.327106 
L 205.563845 113.616875 
L 207.631708 100.471103 
L 209.699572 100.783835 
L 211.767435 108.664447 
L 213.835298 108.206184 
L 215.903162 104.664336 
L 217.971025 100.6799 
L 220.038888 99.54429 
L 222.106752 97.479529 
L 226.242478 99.95915 
L 228.310342 103.980615 
L 230.378205 103.789561 
L 232.446068 109.042634 
L 236.581795 123.62494 
L 238.649658 133.980786 
L 240.717522 120.712026 
L 242.785385 124.236108 
L 244.853248 121.694863 
L 246.921112 121.780621 
L 248.988975 116.391986 
L 251.056838 116.055021 
L 253.124702 112.659162 
L 255.192565 117.29948 
L 257.260428 113.783349 
L 259.328292 114.008533 
L 261.396155 114.064514 
L 263.464019 114.633342 
L 265.531882 118.266857 
L 267.599745 119.741183 
L 269.667609 118.525245 
L 271.735472 114.776378 
L 273.803335 112.629996 
L 275.871199 125.629446 
L 277.939062 125.01264 
L 280.006925 122.85056 
L 282.074789 123.211423 
L 284.142652 126.316417 
L 286.210515 121.268428 
L 288.278379 121.520229 
L 290.346242 115.638738 
L 292.414105 117.79231 
L 294.481969 115.349612 
L 296.549832 109.646433 
L 298.617695 109.623438 
L 300.685559 113.079844 
L 302.753422 109.606093 
L 304.821285 105.068899 
L 306.889149 104.748603 
L 308.957012 105.759265 
L 311.024876 103.582146 
L 313.092739 101.171796 
L 315.160602 107.086976 
L 317.228466 110.447382 
L 319.296329 107.564176 
L 321.364192 105.108322 
L 323.432056 106.844628 
L 325.499919 103.995505 
L 327.567782 102.114524 
L 329.635646 104.149584 
L 331.703509 106.411381 
L 333.771372 120.500425 
L 335.839236 122.642247 
L 337.907099 121.029868 
L 339.974962 127.780452 
L 342.042826 126.785145 
L 344.110689 126.045741 
L 346.178552 131.921025 
L 348.246416 131.533716 
L 352.382142 131.576389 
L 354.450006 130.819944 
L 356.517869 139.65336 
L 358.585732 139.26204 
L 360.653596 143.191003 
L 362.721459 127.845391 
L 364.789323 127.439919 
L 366.857186 124.010509 
L 368.925049 122.67728 
L 370.992913 113.465586 
L 373.060776 113.069747 
L 375.128639 113.854693 
L 377.196503 111.783211 
L 379.264366 113.221156 
L 381.332229 113.51812 
L 383.400093 119.661174 
L 385.467956 119.841272 
L 387.535819 118.24262 
L 389.603683 118.450741 
L 391.671546 113.681879 
L 393.739409 113.440079 
L 395.807273 114.499827 
L 395.807273 114.499827 
" clip-path="url(#p07dd1219f7)" style="fill: none; stroke: #ff0000; stroke-width: 1.5; stroke-linecap: square"/>
   </g>
   <g id="patch_9">
    <path d="M 54.92 172.190118 
L 54.92 93.921882 
" style="fill: none; stroke: #000000; stroke-width: 0.8; stroke-linejoin: miter; stroke-linecap: square"/>
   </g>
   <g id="patch_10">
    <path d="M 412.04 172.190118 
L 412.04 93.921882 
" style="fill: none; stroke: #000000; stroke-width: 0.8; stroke-linejoin: miter; stroke-linecap: square"/>
   </g>
   <g id="patch_11">
    <path d="M 54.92 172.190118 
L 412.04 172.190118 
" style="fill: none; stroke: #000000; stroke-width: 0.8; stroke-linejoin: miter; stroke-linecap: square"/>
   </g>
   <g id="patch_12">
    <path d="M 54.92 93.921882 
L 412.04 93.921882 
" style="fill: none; stroke: #000000; stroke-width: 0.8; stroke-linejoin: miter; stroke-linecap: square"/>
   </g>
  </g>
  <g id="axes_3">
   <g id="patch_13">
    <path d="M 54.92 266.112 
L 412.04 266.112 
L 412.04 187.843765 
L 54.92 187.843765 
z
" style="fill: #ffffff"/>
   </g>
   <g id="matplotlib.axis_5"/>
   <g id="matplotlib.axis_6">
    <g id="ytick_5">
     <g id="line2d_11">
      <g>
       <use xlink:href="#mf5e840d18c" x="54.92" y="252.05412" style="stroke: #000000; stroke-width: 0.8"/>
      </g>
     </g>
     <g id="text_9">
      <!-- 75 -->
      <g transform="translate(35.195 255.853338)scale(0.1 -0.1)">
       <defs>
        <path id="DejaVuSans-37" d="M 525 4666 
L 3525 4666 
L 3525 4397 
L 1831 0 
L 1172 0 
L 2766 4134 
L 525 4134 
L 525 4666 
z
" transform="scale(0.015625)"/>
        <path id="DejaVuSans-35" d="M 691 4666 
L 3169 4666 
L 3169 4134 
L 1269 4134 
L 1269 2991 
Q 1406 3038 1543 3061 
Q 1681 3084 1819 3084 
Q 2600 3084 3056 2656 
Q 3513 2228 3513 1497 
Q 3513 744 3044 326 
Q 2575 -91 1722 -91 
Q 1428 -91 1123 -41 
Q 819 9 494 109 
L 494 744 
Q 775 591 1075 516 
Q 1375 441 1709 441 
Q 2250 441 2565 725 
Q 2881 1009 2881 1497 
Q 2881 1984 2565 2268 
Q 2250 2553 1709 2553 
Q 1456 2553 1204 2497 
Q 953 2441 691 2322 
L 691 4666 
z
" transform="scale(0.015625)"/>
       </defs>
       <use xlink:href="#DejaVuSans-37"/>
       <use xlink:href="#DejaVuSans-35" x="63.623047"/>
      </g>
     </g>
    </g>
    <g id="ytick_6">
     <g id="line2d_12">
      <g>
       <use xlink:href="#mf5e840d18c" x="54.92" y="221.099549" style="stroke: #000000; stroke-width: 0.8"/>
      </g>
     </g>
     <g id="text_10">
      <!-- 100 -->
      <g transform="translate(28.8325 224.898767)scale(0.1 -0.1)">
       <use xlink:href="#DejaVuSans-31"/>
       <use xlink:href="#DejaVuSans-30" x="63.623047"/>
       <use xlink:href="#DejaVuSans-30" x="127.246094"/>
      </g>
     </g>
    </g>
    <g id="ytick_7">
     <g id="line2d_13">
      <g>
       <use xlink:href="#mf5e840d18c" x="54.92" y="190.144977" style="stroke: #000000; stroke-width: 0.8"/>
      </g>
     </g>
     <g id="text_11">
      <!-- 125 -->
      <g transform="translate(28.8325 193.944196)scale(0.1 -0.1)">
       <use xlink:href="#DejaVuSans-31"/>
       <use xlink:href="#DejaVuSans-32" x="63.623047"/>
       <use xlink:href="#DejaVuSans-35" x="127.246094"/>
      </g>
     </g>
    </g>
    <g id="text_12">
     <!-- roll [°] -->
     <g transform="translate(21.297031 253.788742)rotate(-90)scale(0.17 -0.17)">
      <defs>
       <path id="DejaVuSans-6c" d="M 603 4863 
L 1178 4863 
L 1178 0 
L 603 0 
L 603 4863 
z
" transform="scale(0.015625)"/>
      </defs>
      <use xlink:href="#DejaVuSans-72"/>
      <use xlink:href="#DejaVuSans-6f" x="38.863281"/>
      <use xlink:href="#DejaVuSans-6c" x="100.044922"/>
      <use xlink:href="#DejaVuSans-6c" x="127.828125"/>
      <use xlink:href="#DejaVuSans-20" x="155.611328"/>
      <use xlink:href="#DejaVuSans-5b" x="187.398438"/>
      <use xlink:href="#DejaVuSans-b0" x="226.412109"/>
      <use xlink:href="#DejaVuSans-5d" x="276.412109"/>
     </g>
    </g>
   </g>
   <g id="line2d_14">
    <path d="M 71.152727 238.838053 
L 73.220591 237.537776 
L 75.288454 236.810922 
L 77.356317 237.632302 
L 79.424181 237.016681 
L 81.492044 237.026087 
L 83.559907 236.343274 
L 85.627771 235.346605 
L 87.695634 234.14671 
L 89.763497 233.083075 
L 91.831361 231.539815 
L 93.899224 232.924375 
L 95.967087 234.755334 
L 98.034951 235.393558 
L 100.102814 238.246576 
L 102.170677 243.05401 
L 104.238541 243.543779 
L 106.306404 241.5801 
L 108.374268 237.496839 
L 110.442131 235.510666 
L 112.509994 236.253874 
L 114.577858 238.779927 
L 116.645721 241.009495 
L 118.713584 241.237744 
L 120.781448 240.772916 
L 122.849311 239.298544 
L 124.917174 236.704517 
L 126.985038 234.314877 
L 129.052901 233.657969 
L 131.120764 233.98078 
L 135.256491 238.222987 
L 137.324354 239.05825 
L 139.392218 238.097791 
L 141.460081 240.851857 
L 143.527944 243.41573 
L 145.595808 244.12105 
L 147.663671 246.926433 
L 149.731534 250.904158 
L 151.799398 250.749629 
L 153.867261 248.103726 
L 158.002988 241.797777 
L 160.070851 240.732558 
L 162.138715 239.217762 
L 164.206578 235.399062 
L 168.342305 229.752908 
L 170.410168 224.661192 
L 172.478031 222.091941 
L 174.545895 220.982041 
L 176.613758 222.280127 
L 178.681621 225.24578 
L 180.749485 226.156877 
L 182.817348 227.94693 
L 184.885211 233.367279 
L 186.953075 240.209926 
L 189.020938 243.426894 
L 191.088801 246.171795 
L 193.156665 247.049345 
L 195.224528 248.532335 
L 197.292391 252.218049 
L 199.360255 252.065342 
L 201.428118 249.74082 
L 203.495981 247.076695 
L 205.563845 243.554595 
L 207.631708 238.857491 
L 209.699572 236.700126 
L 211.767435 235.836025 
L 213.835298 234.56481 
L 215.903162 231.678528 
L 217.971025 228.081004 
L 220.038888 224.883176 
L 222.106752 223.895995 
L 224.174615 222.663327 
L 226.242478 222.899317 
L 228.310342 225.832415 
L 232.446068 233.088502 
L 234.513932 238.913923 
L 236.581795 245.951975 
L 238.649658 252.069256 
L 240.717522 257.319225 
L 242.785385 261.408754 
L 244.853248 262.554353 
L 246.921112 256.031278 
L 248.988975 248.748511 
L 251.056838 239.19478 
L 253.124702 233.560401 
L 255.192565 232.949404 
L 257.260428 232.886932 
L 259.328292 232.194603 
L 263.464019 233.35762 
L 265.531882 234.377705 
L 267.599745 234.115979 
L 269.667609 234.351757 
L 271.735472 233.825615 
L 273.803335 233.158869 
L 275.871199 232.30081 
L 277.939062 231.157152 
L 280.006925 231.066835 
L 282.074789 232.060155 
L 284.142652 233.748355 
L 286.210515 235.228957 
L 288.278379 236.473204 
L 290.346242 236.773689 
L 296.549832 234.825484 
L 298.617695 233.976082 
L 300.685559 233.281083 
L 302.753422 232.721861 
L 304.821285 232.663937 
L 308.957012 234.262899 
L 311.024876 235.820377 
L 313.092739 234.795815 
L 315.160602 232.879126 
L 317.228466 230.737194 
L 319.296329 229.030441 
L 321.364192 228.857223 
L 325.499919 231.055009 
L 327.567782 232.58183 
L 329.635646 235.476149 
L 331.703509 237.442794 
L 333.771372 239.006323 
L 335.839236 239.369372 
L 337.907099 238.513182 
L 339.974962 237.073034 
L 342.042826 235.113991 
L 346.178552 231.597853 
L 348.246416 230.891939 
L 350.314279 231.234732 
L 352.382142 231.775351 
L 354.450006 231.569626 
L 356.517869 233.305906 
L 358.585732 232.970274 
L 360.653596 232.384907 
L 362.721459 230.61369 
L 364.789323 231.080778 
L 366.857186 231.961726 
L 368.925049 232.60722 
L 370.992913 234.798019 
L 373.060776 236.419191 
L 375.128639 236.768247 
L 377.196503 235.835701 
L 381.332229 234.269204 
L 385.467956 233.833372 
L 387.535819 233.812717 
L 389.603683 234.115313 
L 391.671546 233.68835 
L 395.807273 233.037551 
L 395.807273 233.037551 
" clip-path="url(#p5cf6420817)" style="fill: none; stroke: #008000; stroke-width: 1.5; stroke-linecap: square"/>
   </g>
   <g id="line2d_15">
    <path d="M 71.152727 238.838049 
L 75.288454 235.812616 
L 77.356317 236.339989 
L 79.424181 237.115613 
L 81.492044 235.1789 
L 83.559907 234.769236 
L 85.627771 235.057341 
L 87.695634 233.143672 
L 91.831361 228.669736 
L 93.899224 229.941675 
L 95.967087 230.612359 
L 98.034951 232.336888 
L 100.102814 234.955659 
L 102.170677 237.829584 
L 104.238541 237.849266 
L 106.306404 235.970063 
L 108.374268 231.129686 
L 110.442131 228.635042 
L 112.509994 228.011694 
L 114.577858 229.425888 
L 116.645721 232.582257 
L 118.713584 231.78057 
L 120.781448 232.520268 
L 122.849311 232.83564 
L 124.917174 228.597803 
L 126.985038 223.232458 
L 129.052901 226.362693 
L 131.120764 225.082521 
L 133.188628 227.474487 
L 135.256491 229.626628 
L 137.324354 231.272106 
L 139.392218 229.788002 
L 141.460081 232.016722 
L 143.527944 236.019879 
L 145.595808 236.468203 
L 147.663671 238.30989 
L 149.731534 243.677702 
L 151.799398 244.781257 
L 153.867261 241.904379 
L 155.935124 240.221778 
L 158.002988 234.277916 
L 160.070851 233.219945 
L 162.138715 230.935269 
L 164.206578 226.103353 
L 166.274441 220.515003 
L 168.342305 218.603374 
L 170.410168 212.955353 
L 172.478031 209.863992 
L 174.545895 208.845622 
L 176.613758 210.095455 
L 178.681621 213.548116 
L 180.749485 215.922601 
L 182.817348 216.815904 
L 184.885211 222.058643 
L 186.953075 230.924157 
L 189.020938 233.670265 
L 191.088801 234.374334 
L 193.156665 235.807993 
L 195.224528 238.398764 
L 197.292391 241.682092 
L 199.360255 239.845924 
L 201.428118 237.550419 
L 203.495981 235.048888 
L 205.563845 231.501233 
L 207.631708 227.230187 
L 209.699572 223.308394 
L 211.767435 224.104243 
L 213.835298 221.492628 
L 215.903162 217.085149 
L 217.971025 213.24488 
L 220.038888 209.881313 
L 222.106752 209.32111 
L 224.174615 207.807132 
L 226.242478 207.767455 
L 228.310342 210.765228 
L 230.378205 216.5759 
L 232.446068 219.030384 
L 234.513932 226.070538 
L 236.581795 234.163228 
L 238.649658 245.479741 
L 240.717522 238.040349 
L 242.785385 245.497831 
L 244.853248 244.946735 
L 246.921112 236.639717 
L 248.988975 219.989003 
L 251.056838 209.115592 
L 253.124702 199.244409 
L 255.192565 198.746628 
L 257.260428 197.811778 
L 259.328292 196.28077 
L 261.396155 197.509866 
L 263.464019 198.567569 
L 265.531882 200.622821 
L 269.667609 202.31385 
L 271.735472 201.715668 
L 273.803335 200.553032 
L 275.871199 202.467171 
L 277.939062 202.097193 
L 280.006925 201.292279 
L 282.074789 203.415463 
L 284.142652 205.831571 
L 286.210515 206.082212 
L 288.278379 208.078723 
L 290.346242 202.598649 
L 292.414105 199.421936 
L 294.481969 197.835584 
L 296.549832 195.693592 
L 298.617695 194.493095 
L 300.685559 194.622227 
L 302.753422 193.258935 
L 304.821285 191.401412 
L 306.889149 191.835484 
L 308.957012 193.687801 
L 311.024876 196.06121 
L 313.092739 195.995909 
L 315.160602 194.6727 
L 317.228466 193.989373 
L 319.296329 193.504385 
L 321.364192 192.224315 
L 323.432056 193.923054 
L 325.499919 194.685826 
L 327.567782 198.543645 
L 329.635646 205.366677 
L 331.703509 208.740043 
L 333.771372 213.647783 
L 335.839236 216.764663 
L 337.907099 215.476002 
L 339.974962 215.83426 
L 342.042826 214.185046 
L 344.110689 212.320626 
L 346.178552 211.439432 
L 348.246416 210.411598 
L 350.314279 208.589097 
L 352.382142 208.289416 
L 354.450006 206.043496 
L 356.517869 209.918874 
L 358.585732 210.570272 
L 360.653596 210.920441 
L 362.721459 206.134304 
L 364.789323 206.508809 
L 366.857186 207.569966 
L 370.992913 208.021285 
L 373.060776 208.534707 
L 375.128639 209.209986 
L 377.196503 208.566344 
L 379.264366 207.798554 
L 381.332229 206.789476 
L 383.400093 206.912426 
L 387.535819 205.414381 
L 389.603683 205.377 
L 391.671546 203.178264 
L 393.739409 202.781202 
L 395.807273 203.352606 
L 395.807273 203.352606 
" clip-path="url(#p5cf6420817)" style="fill: none; stroke: #ff0000; stroke-width: 1.5; stroke-linecap: square"/>
   </g>
   <g id="patch_14">
    <path d="M 54.92 266.112 
L 54.92 187.843765 
" style="fill: none; stroke: #000000; stroke-width: 0.8; stroke-linejoin: miter; stroke-linecap: square"/>
   </g>
   <g id="patch_15">
    <path d="M 412.04 266.112 
L 412.04 187.843765 
" style="fill: none; stroke: #000000; stroke-width: 0.8; stroke-linejoin: miter; stroke-linecap: square"/>
   </g>
   <g id="patch_16">
    <path d="M 54.92 266.112 
L 412.04 266.112 
" style="fill: none; stroke: #000000; stroke-width: 0.8; stroke-linejoin: miter; stroke-linecap: square"/>
   </g>
   <g id="patch_17">
    <path d="M 54.92 187.843765 
L 412.04 187.843765 
" style="fill: none; stroke: #000000; stroke-width: 0.8; stroke-linejoin: miter; stroke-linecap: square"/>
   </g>
  </g>
 </g>
 <defs>
  <clipPath id="pb6bed6f37a">
   <rect x="54.92" y="0" width="357.12" height="78.268235"/>
  </clipPath>
  <clipPath id="p07dd1219f7">
   <rect x="54.92" y="93.921882" width="357.12" height="78.268235"/>
  </clipPath>
  <clipPath id="p5cf6420817">
   <rect x="54.92" y="187.843765" width="357.12" height="78.268235"/>
  </clipPath>
 </defs>
</svg>
