<?xml version="1.0" encoding="utf-8" standalone="no"?>
<!DOCTYPE svg PUBLIC "-//W3C//DTD SVG 1.1//EN"
  "http://www.w3.org/Graphics/SVG/1.1/DTD/svg11.dtd">
<svg xmlns:xlink="http://www.w3.org/1999/xlink" width="357.656018pt" height="351.438563pt" viewBox="0 0 357.656018 351.438563" xmlns="http://www.w3.org/2000/svg" version="1.1">
 <metadata>
  <rdf:RDF xmlns:dc="http://purl.org/dc/elements/1.1/" xmlns:cc="http://creativecommons.org/ns#" xmlns:rdf="http://www.w3.org/1999/02/22-rdf-syntax-ns#">
   <cc:Work>
    <dc:type rdf:resource="http://purl.org/dc/dcmitype/StillImage"/>
    <dc:date>2022-02-10T00:57:05.659747</dc:date>
    <dc:format>image/svg+xml</dc:format>
    <dc:creator>
     <cc:Agent>
      <dc:title>Matplotlib v3.5.1, https://matplotlib.org/</dc:title>
     </cc:Agent>
    </dc:creator>
   </cc:Work>
  </rdf:RDF>
 </metadata>
 <defs>
  <style type="text/css">*{stroke-linejoin: round; stroke-linecap: butt}</style>
 </defs>
 <g id="figure_1">
  <g id="patch_1">
   <path d="M 0 351.438563 
L 357.656018 351.438563 
L 357.656018 0 
L 0 0 
z
" style="fill: #ffffff"/>
  </g>
  <g id="patch_2">
   <path d="M 0 345.6 
L 345.6 345.6 
L 345.6 -0 
L 0 -0 
z
" style="fill: #ffffff"/>
  </g>
  <g id="pane3d_1">
   <g id="patch_3">
    <path d="M 43.64011 276.021761 
L 104.335521 97.213163 
L 98.66794 8.134987 
L 32.634775 196.200845 
" style="fill: #f2f2f2; opacity: 0.5; stroke: #f2f2f2; stroke-linejoin: miter"/>
   </g>
  </g>
  <g id="pane3d_2">
   <g id="patch_4">
    <path d="M 104.335521 97.213163 
L 305.984932 143.221817 
L 316.100364 56.368059 
L 98.66794 8.134987 
" style="fill: #e6e6e6; opacity: 0.5; stroke: #e6e6e6; stroke-linejoin: miter"/>
   </g>
  </g>
  <g id="pane3d_3">
   <g id="patch_5">
    <path d="M 43.64011 276.021761 
L 255.924889 327.418502 
L 305.984932 143.221817 
L 104.335521 97.213163 
" style="fill: #ececec; opacity: 0.5; stroke: #ececec; stroke-linejoin: miter"/>
   </g>
  </g>
  <g id="axis3d_1">
   <g id="line2d_1">
    <path d="M 43.64011 276.021761 
L 255.924889 327.418502 
" style="fill: none; stroke: #000000; stroke-width: 0.8; stroke-linecap: square"/>
   </g>
   <g id="text_1">
    <!-- x [m] -->
    <g transform="translate(118.043506 337.34524)rotate(-346.389891)scale(0.17 -0.17)">
     <defs>
      <path id="DejaVuSans-78" d="M 3513 3500 
L 2247 1797 
L 3578 0 
L 2900 0 
L 1881 1375 
L 863 0 
L 184 0 
L 1544 1831 
L 300 3500 
L 978 3500 
L 1906 2253 
L 2834 3500 
L 3513 3500 
z
" transform="scale(0.015625)"/>
      <path id="DejaVuSans-20" transform="scale(0.015625)"/>
      <path id="DejaVuSans-5b" d="M 550 4863 
L 1875 4863 
L 1875 4416 
L 1125 4416 
L 1125 -397 
L 1875 -397 
L 1875 -844 
L 550 -844 
L 550 4863 
z
" transform="scale(0.015625)"/>
      <path id="DejaVuSans-6d" d="M 3328 2828 
Q 3544 3216 3844 3400 
Q 4144 3584 4550 3584 
Q 5097 3584 5394 3201 
Q 5691 2819 5691 2113 
L 5691 0 
L 5113 0 
L 5113 2094 
Q 5113 2597 4934 2840 
Q 4756 3084 4391 3084 
Q 3944 3084 3684 2787 
Q 3425 2491 3425 1978 
L 3425 0 
L 2847 0 
L 2847 2094 
Q 2847 2600 2669 2842 
Q 2491 3084 2119 3084 
Q 1678 3084 1418 2786 
Q 1159 2488 1159 1978 
L 1159 0 
L 581 0 
L 581 3500 
L 1159 3500 
L 1159 2956 
Q 1356 3278 1631 3431 
Q 1906 3584 2284 3584 
Q 2666 3584 2933 3390 
Q 3200 3197 3328 2828 
z
" transform="scale(0.015625)"/>
      <path id="DejaVuSans-5d" d="M 1947 4863 
L 1947 -844 
L 622 -844 
L 622 -397 
L 1369 -397 
L 1369 4416 
L 622 4416 
L 622 4863 
L 1947 4863 
z
" transform="scale(0.015625)"/>
     </defs>
     <use xlink:href="#DejaVuSans-78"/>
     <use xlink:href="#DejaVuSans-20" x="59.179688"/>
     <use xlink:href="#DejaVuSans-5b" x="90.966797"/>
     <use xlink:href="#DejaVuSans-6d" x="129.980469"/>
     <use xlink:href="#DejaVuSans-5d" x="227.392578"/>
    </g>
   </g>
   <g id="Line3DCollection_1">
    <path d="M 72.556194 283.022698 
L 131.822425 103.48462 
L 128.277389 14.703256 
" style="fill: none; stroke: #b0b0b0; stroke-width: 0.8"/>
    <path d="M 106.044126 291.130536 
L 163.647522 110.745885 
L 162.57139 22.3107 
" style="fill: none; stroke: #b0b0b0; stroke-width: 0.8"/>
    <path d="M 139.694523 299.277709 
L 195.618705 118.040481 
L 197.035097 29.95579 
" style="fill: none; stroke: #b0b0b0; stroke-width: 0.8"/>
    <path d="M 173.508569 307.464503 
L 227.736983 125.368639 
L 231.669772 37.638806 
" style="fill: none; stroke: #b0b0b0; stroke-width: 0.8"/>
    <path d="M 207.487462 315.691209 
L 260.003373 132.730591 
L 266.47669 45.360031 
" style="fill: none; stroke: #b0b0b0; stroke-width: 0.8"/>
    <path d="M 241.632411 323.958118 
L 292.418902 140.12657 
L 301.457139 53.11975 
" style="fill: none; stroke: #b0b0b0; stroke-width: 0.8"/>
   </g>
   <g id="xtick_1">
    <g id="line2d_2">
     <path d="M 73.056942 281.505759 
L 71.553337 286.060703 
" style="fill: none; stroke: #000000; stroke-width: 0.8; stroke-linecap: square"/>
    </g>
    <g id="text_2">
     <!-- 1.0 -->
     <g transform="translate(61.118526 307.408105)scale(0.1 -0.1)">
      <defs>
       <path id="DejaVuSans-31" d="M 794 531 
L 1825 531 
L 1825 4091 
L 703 3866 
L 703 4441 
L 1819 4666 
L 2450 4666 
L 2450 531 
L 3481 531 
L 3481 0 
L 794 0 
L 794 531 
z
" transform="scale(0.015625)"/>
       <path id="DejaVuSans-2e" d="M 684 794 
L 1344 794 
L 1344 0 
L 684 0 
L 684 794 
z
" transform="scale(0.015625)"/>
       <path id="DejaVuSans-30" d="M 2034 4250 
Q 1547 4250 1301 3770 
Q 1056 3291 1056 2328 
Q 1056 1369 1301 889 
Q 1547 409 2034 409 
Q 2525 409 2770 889 
Q 3016 1369 3016 2328 
Q 3016 3291 2770 3770 
Q 2525 4250 2034 4250 
z
M 2034 4750 
Q 2819 4750 3233 4129 
Q 3647 3509 3647 2328 
Q 3647 1150 3233 529 
Q 2819 -91 2034 -91 
Q 1250 -91 836 529 
Q 422 1150 422 2328 
Q 422 3509 836 4129 
Q 1250 4750 2034 4750 
z
" transform="scale(0.015625)"/>
      </defs>
      <use xlink:href="#DejaVuSans-31"/>
      <use xlink:href="#DejaVuSans-2e" x="63.623047"/>
      <use xlink:href="#DejaVuSans-30" x="95.410156"/>
     </g>
    </g>
   </g>
   <g id="xtick_2">
    <g id="line2d_3">
     <path d="M 106.530887 289.606249 
L 105.069277 294.183268 
" style="fill: none; stroke: #000000; stroke-width: 0.8; stroke-linecap: square"/>
    </g>
    <g id="text_3">
     <!-- 1.1 -->
     <g transform="translate(94.556208 315.546388)scale(0.1 -0.1)">
      <use xlink:href="#DejaVuSans-31"/>
      <use xlink:href="#DejaVuSans-2e" x="63.623047"/>
      <use xlink:href="#DejaVuSans-31" x="95.410156"/>
     </g>
    </g>
   </g>
   <g id="xtick_3">
    <g id="line2d_4">
     <path d="M 140.167155 297.746019 
L 138.747967 302.345276 
" style="fill: none; stroke: #000000; stroke-width: 0.8; stroke-linecap: square"/>
    </g>
    <g id="text_4">
     <!-- 1.2 -->
     <g transform="translate(128.155909 323.724104)scale(0.1 -0.1)">
      <defs>
       <path id="DejaVuSans-32" d="M 1228 531 
L 3431 531 
L 3431 0 
L 469 0 
L 469 531 
Q 828 903 1448 1529 
Q 2069 2156 2228 2338 
Q 2531 2678 2651 2914 
Q 2772 3150 2772 3378 
Q 2772 3750 2511 3984 
Q 2250 4219 1831 4219 
Q 1534 4219 1204 4116 
Q 875 4013 500 3803 
L 500 4441 
Q 881 4594 1212 4672 
Q 1544 4750 1819 4750 
Q 2544 4750 2975 4387 
Q 3406 4025 3406 3419 
Q 3406 3131 3298 2873 
Q 3191 2616 2906 2266 
Q 2828 2175 2409 1742 
Q 1991 1309 1228 531 
z
" transform="scale(0.015625)"/>
      </defs>
      <use xlink:href="#DejaVuSans-31"/>
      <use xlink:href="#DejaVuSans-2e" x="63.623047"/>
      <use xlink:href="#DejaVuSans-32" x="95.410156"/>
     </g>
    </g>
   </g>
   <g id="xtick_4">
    <g id="line2d_5">
     <path d="M 173.966929 305.925357 
L 172.590593 310.547013 
" style="fill: none; stroke: #000000; stroke-width: 0.8; stroke-linecap: square"/>
    </g>
    <g id="text_5">
     <!-- 1.3 -->
     <g transform="translate(161.918807 331.94154)scale(0.1 -0.1)">
      <defs>
       <path id="DejaVuSans-33" d="M 2597 2516 
Q 3050 2419 3304 2112 
Q 3559 1806 3559 1356 
Q 3559 666 3084 287 
Q 2609 -91 1734 -91 
Q 1441 -91 1130 -33 
Q 819 25 488 141 
L 488 750 
Q 750 597 1062 519 
Q 1375 441 1716 441 
Q 2309 441 2620 675 
Q 2931 909 2931 1356 
Q 2931 1769 2642 2001 
Q 2353 2234 1838 2234 
L 1294 2234 
L 1294 2753 
L 1863 2753 
Q 2328 2753 2575 2939 
Q 2822 3125 2822 3475 
Q 2822 3834 2567 4026 
Q 2313 4219 1838 4219 
Q 1578 4219 1281 4162 
Q 984 4106 628 3988 
L 628 4550 
Q 988 4650 1302 4700 
Q 1616 4750 1894 4750 
Q 2613 4750 3031 4423 
Q 3450 4097 3450 3541 
Q 3450 3153 3228 2886 
Q 3006 2619 2597 2516 
z
" transform="scale(0.015625)"/>
      </defs>
      <use xlink:href="#DejaVuSans-31"/>
      <use xlink:href="#DejaVuSans-2e" x="63.623047"/>
      <use xlink:href="#DejaVuSans-33" x="95.410156"/>
     </g>
    </g>
   </g>
   <g id="xtick_5">
    <g id="line2d_6">
     <path d="M 207.931406 314.144551 
L 206.598357 318.788771 
" style="fill: none; stroke: #000000; stroke-width: 0.8; stroke-linecap: square"/>
    </g>
    <g id="text_6">
     <!-- 1.4 -->
     <g transform="translate(195.846096 340.198987)scale(0.1 -0.1)">
      <defs>
       <path id="DejaVuSans-34" d="M 2419 4116 
L 825 1625 
L 2419 1625 
L 2419 4116 
z
M 2253 4666 
L 3047 4666 
L 3047 1625 
L 3713 1625 
L 3713 1100 
L 3047 1100 
L 3047 0 
L 2419 0 
L 2419 1100 
L 313 1100 
L 313 1709 
L 2253 4666 
z
" transform="scale(0.015625)"/>
      </defs>
      <use xlink:href="#DejaVuSans-31"/>
      <use xlink:href="#DejaVuSans-2e" x="63.623047"/>
      <use xlink:href="#DejaVuSans-34" x="95.410156"/>
     </g>
    </g>
   </g>
   <g id="xtick_6">
    <g id="line2d_7">
     <path d="M 242.061791 322.403895 
L 240.772469 327.070844 
" style="fill: none; stroke: #000000; stroke-width: 0.8; stroke-linecap: square"/>
    </g>
    <g id="text_7">
     <!-- 1.5 -->
     <g transform="translate(229.938979 348.496737)scale(0.1 -0.1)">
      <defs>
       <path id="DejaVuSans-35" d="M 691 4666 
L 3169 4666 
L 3169 4134 
L 1269 4134 
L 1269 2991 
Q 1406 3038 1543 3061 
Q 1681 3084 1819 3084 
Q 2600 3084 3056 2656 
Q 3513 2228 3513 1497 
Q 3513 744 3044 326 
Q 2575 -91 1722 -91 
Q 1428 -91 1123 -41 
Q 819 9 494 109 
L 494 744 
Q 775 591 1075 516 
Q 1375 441 1709 441 
Q 2250 441 2565 725 
Q 2881 1009 2881 1497 
Q 2881 1984 2565 2268 
Q 2250 2553 1709 2553 
Q 1456 2553 1204 2497 
Q 953 2441 691 2322 
L 691 4666 
z
" transform="scale(0.015625)"/>
      </defs>
      <use xlink:href="#DejaVuSans-31"/>
      <use xlink:href="#DejaVuSans-2e" x="63.623047"/>
      <use xlink:href="#DejaVuSans-35" x="95.410156"/>
     </g>
    </g>
   </g>
  </g>
  <g id="axis3d_2">
   <g id="line2d_8">
    <path d="M 305.984932 143.221817 
L 255.924889 327.418502 
" style="fill: none; stroke: #000000; stroke-width: 0.8; stroke-linecap: square"/>
   </g>
   <g id="text_8">
    <!-- y [m] -->
    <g transform="translate(308.079163 273.101756)rotate(-74.795681)scale(0.17 -0.17)">
     <defs>
      <path id="DejaVuSans-79" d="M 2059 -325 
Q 1816 -950 1584 -1140 
Q 1353 -1331 966 -1331 
L 506 -1331 
L 506 -850 
L 844 -850 
Q 1081 -850 1212 -737 
Q 1344 -625 1503 -206 
L 1606 56 
L 191 3500 
L 800 3500 
L 1894 763 
L 2988 3500 
L 3597 3500 
L 2059 -325 
z
" transform="scale(0.015625)"/>
     </defs>
     <use xlink:href="#DejaVuSans-79"/>
     <use xlink:href="#DejaVuSans-20" x="59.179688"/>
     <use xlink:href="#DejaVuSans-5b" x="90.966797"/>
     <use xlink:href="#DejaVuSans-6d" x="129.980469"/>
     <use xlink:href="#DejaVuSans-5d" x="227.392578"/>
    </g>
   </g>
   <g id="Line3DCollection_2">
    <path d="M 39.836601 175.689671 
L 50.233945 256.59633 
L 261.367303 307.393058 
" style="fill: none; stroke: #b0b0b0; stroke-width: 0.8"/>
    <path d="M 47.665761 153.391821 
L 57.409305 235.457731 
L 267.28859 285.605592 
" style="fill: none; stroke: #b0b0b0; stroke-width: 0.8"/>
    <path d="M 55.388001 131.398483 
L 64.493982 214.58628 
L 273.133915 264.097628 
" style="fill: none; stroke: #b0b0b0; stroke-width: 0.8"/>
    <path d="M 63.005497 109.703462 
L 71.489687 193.976945 
L 278.904732 242.863823 
" style="fill: none; stroke: #b0b0b0; stroke-width: 0.8"/>
    <path d="M 70.520366 88.300727 
L 78.398083 173.624818 
L 284.602454 221.898966 
" style="fill: none; stroke: #b0b0b0; stroke-width: 0.8"/>
    <path d="M 77.934668 67.184413 
L 85.220796 153.525115 
L 290.228463 201.197982 
" style="fill: none; stroke: #b0b0b0; stroke-width: 0.8"/>
    <path d="M 85.250408 46.348809 
L 91.95941 133.673169 
L 295.784104 180.755918 
" style="fill: none; stroke: #b0b0b0; stroke-width: 0.8"/>
    <path d="M 92.469539 25.788353 
L 98.61547 114.064425 
L 301.270688 160.567947 
" style="fill: none; stroke: #b0b0b0; stroke-width: 0.8"/>
   </g>
   <g id="xtick_7">
    <g id="line2d_9">
     <path d="M 259.652634 306.980524 
L 264.797897 308.218427 
" style="fill: none; stroke: #000000; stroke-width: 0.8; stroke-linecap: square"/>
    </g>
    <g id="text_9">
     <!-- 0.2 -->
     <g transform="translate(266.647916 322.858226)scale(0.1 -0.1)">
      <use xlink:href="#DejaVuSans-30"/>
      <use xlink:href="#DejaVuSans-2e" x="63.623047"/>
      <use xlink:href="#DejaVuSans-32" x="95.410156"/>
     </g>
    </g>
   </g>
   <g id="xtick_8">
    <g id="line2d_10">
     <path d="M 265.584271 285.198368 
L 270.698471 286.420338 
" style="fill: none; stroke: #000000; stroke-width: 0.8; stroke-linecap: square"/>
    </g>
    <g id="text_10">
     <!-- 0.3 -->
     <g transform="translate(272.461118 301.104781)scale(0.1 -0.1)">
      <use xlink:href="#DejaVuSans-30"/>
      <use xlink:href="#DejaVuSans-2e" x="63.623047"/>
      <use xlink:href="#DejaVuSans-33" x="95.410156"/>
     </g>
    </g>
   </g>
   <g id="xtick_9">
    <g id="line2d_11">
     <path d="M 271.439821 263.695611 
L 276.52333 264.901954 
" style="fill: none; stroke: #000000; stroke-width: 0.8; stroke-linecap: square"/>
    </g>
    <g id="text_11">
     <!-- 0.4 -->
     <g transform="translate(278.200032 279.629326)scale(0.1 -0.1)">
      <use xlink:href="#DejaVuSans-30"/>
      <use xlink:href="#DejaVuSans-2e" x="63.623047"/>
      <use xlink:href="#DejaVuSans-34" x="95.410156"/>
     </g>
    </g>
   </g>
   <g id="xtick_10">
    <g id="line2d_12">
     <path d="M 277.220742 242.466913 
L 282.273924 243.657928 
" style="fill: none; stroke: #000000; stroke-width: 0.8; stroke-linecap: square"/>
    </g>
    <g id="text_12">
     <!-- 0.5 -->
     <g transform="translate(283.866074 258.426564)scale(0.1 -0.1)">
      <use xlink:href="#DejaVuSans-30"/>
      <use xlink:href="#DejaVuSans-2e" x="63.623047"/>
      <use xlink:href="#DejaVuSans-35" x="95.410156"/>
     </g>
    </g>
   </g>
   <g id="xtick_11">
    <g id="line2d_13">
     <path d="M 282.928449 221.507068 
L 287.951662 222.683044 
" style="fill: none; stroke: #000000; stroke-width: 0.8; stroke-linecap: square"/>
    </g>
    <g id="text_13">
     <!-- 0.6 -->
     <g transform="translate(289.460622 237.491335)scale(0.1 -0.1)">
      <defs>
       <path id="DejaVuSans-36" d="M 2113 2584 
Q 1688 2584 1439 2293 
Q 1191 2003 1191 1497 
Q 1191 994 1439 701 
Q 1688 409 2113 409 
Q 2538 409 2786 701 
Q 3034 994 3034 1497 
Q 3034 2003 2786 2293 
Q 2538 2584 2113 2584 
z
M 3366 4563 
L 3366 3988 
Q 3128 4100 2886 4159 
Q 2644 4219 2406 4219 
Q 1781 4219 1451 3797 
Q 1122 3375 1075 2522 
Q 1259 2794 1537 2939 
Q 1816 3084 2150 3084 
Q 2853 3084 3261 2657 
Q 3669 2231 3669 1497 
Q 3669 778 3244 343 
Q 2819 -91 2113 -91 
Q 1303 -91 875 529 
Q 447 1150 447 2328 
Q 447 3434 972 4092 
Q 1497 4750 2381 4750 
Q 2619 4750 2861 4703 
Q 3103 4656 3366 4563 
z
" transform="scale(0.015625)"/>
      </defs>
      <use xlink:href="#DejaVuSans-30"/>
      <use xlink:href="#DejaVuSans-2e" x="63.623047"/>
      <use xlink:href="#DejaVuSans-36" x="95.410156"/>
     </g>
    </g>
   </g>
   <g id="xtick_12">
    <g id="line2d_14">
     <path d="M 288.564325 200.811 
L 293.557921 201.97222 
" style="fill: none; stroke: #000000; stroke-width: 0.8; stroke-linecap: square"/>
    </g>
    <g id="text_14">
     <!-- 0.7 -->
     <g transform="translate(294.985022 216.818607)scale(0.1 -0.1)">
      <defs>
       <path id="DejaVuSans-37" d="M 525 4666 
L 3525 4666 
L 3525 4397 
L 1831 0 
L 1172 0 
L 2766 4134 
L 525 4134 
L 525 4666 
z
" transform="scale(0.015625)"/>
      </defs>
      <use xlink:href="#DejaVuSans-30"/>
      <use xlink:href="#DejaVuSans-2e" x="63.623047"/>
      <use xlink:href="#DejaVuSans-37" x="95.410156"/>
     </g>
    </g>
   </g>
   <g id="xtick_13">
    <g id="line2d_15">
     <path d="M 294.129718 180.373761 
L 299.094043 181.520501 
" style="fill: none; stroke: #000000; stroke-width: 0.8; stroke-linecap: square"/>
    </g>
    <g id="text_15">
     <!-- 0.8 -->
     <g transform="translate(300.440585 196.403474)scale(0.1 -0.1)">
      <defs>
       <path id="DejaVuSans-38" d="M 2034 2216 
Q 1584 2216 1326 1975 
Q 1069 1734 1069 1313 
Q 1069 891 1326 650 
Q 1584 409 2034 409 
Q 2484 409 2743 651 
Q 3003 894 3003 1313 
Q 3003 1734 2745 1975 
Q 2488 2216 2034 2216 
z
M 1403 2484 
Q 997 2584 770 2862 
Q 544 3141 544 3541 
Q 544 4100 942 4425 
Q 1341 4750 2034 4750 
Q 2731 4750 3128 4425 
Q 3525 4100 3525 3541 
Q 3525 3141 3298 2862 
Q 3072 2584 2669 2484 
Q 3125 2378 3379 2068 
Q 3634 1759 3634 1313 
Q 3634 634 3220 271 
Q 2806 -91 2034 -91 
Q 1263 -91 848 271 
Q 434 634 434 1313 
Q 434 1759 690 2068 
Q 947 2378 1403 2484 
z
M 1172 3481 
Q 1172 3119 1398 2916 
Q 1625 2713 2034 2713 
Q 2441 2713 2670 2916 
Q 2900 3119 2900 3481 
Q 2900 3844 2670 4047 
Q 2441 4250 2034 4250 
Q 1625 4250 1398 4047 
Q 1172 3844 1172 3481 
z
" transform="scale(0.015625)"/>
      </defs>
      <use xlink:href="#DejaVuSans-30"/>
      <use xlink:href="#DejaVuSans-2e" x="63.623047"/>
      <use xlink:href="#DejaVuSans-38" x="95.410156"/>
     </g>
    </g>
   </g>
   <g id="xtick_14">
    <g id="line2d_16">
     <path d="M 299.625942 160.190525 
L 304.561335 161.323055 
" style="fill: none; stroke: #000000; stroke-width: 0.8; stroke-linecap: square"/>
    </g>
    <g id="text_16">
     <!-- 0.9 -->
     <g transform="translate(305.828589 176.24115)scale(0.1 -0.1)">
      <defs>
       <path id="DejaVuSans-39" d="M 703 97 
L 703 672 
Q 941 559 1184 500 
Q 1428 441 1663 441 
Q 2288 441 2617 861 
Q 2947 1281 2994 2138 
Q 2813 1869 2534 1725 
Q 2256 1581 1919 1581 
Q 1219 1581 811 2004 
Q 403 2428 403 3163 
Q 403 3881 828 4315 
Q 1253 4750 1959 4750 
Q 2769 4750 3195 4129 
Q 3622 3509 3622 2328 
Q 3622 1225 3098 567 
Q 2575 -91 1691 -91 
Q 1453 -91 1209 -44 
Q 966 3 703 97 
z
M 1959 2075 
Q 2384 2075 2632 2365 
Q 2881 2656 2881 3163 
Q 2881 3666 2632 3958 
Q 2384 4250 1959 4250 
Q 1534 4250 1286 3958 
Q 1038 3666 1038 3163 
Q 1038 2656 1286 2365 
Q 1534 2075 1959 2075 
z
" transform="scale(0.015625)"/>
      </defs>
      <use xlink:href="#DejaVuSans-30"/>
      <use xlink:href="#DejaVuSans-2e" x="63.623047"/>
      <use xlink:href="#DejaVuSans-39" x="95.410156"/>
     </g>
    </g>
   </g>
  </g>
  <g id="axis3d_3">
   <g id="line2d_17">
    <path d="M 305.984932 143.221817 
L 316.100364 56.368059 
" style="fill: none; stroke: #000000; stroke-width: 0.8; stroke-linecap: square"/>
   </g>
   <g id="text_17">
    <!-- z [m] -->
    <g transform="translate(349.036928 105.868505)rotate(-83.356969)scale(0.17 -0.17)">
     <defs>
      <path id="DejaVuSans-7a" d="M 353 3500 
L 3084 3500 
L 3084 2975 
L 922 459 
L 3084 459 
L 3084 0 
L 275 0 
L 275 525 
L 2438 3041 
L 353 3041 
L 353 3500 
z
" transform="scale(0.015625)"/>
     </defs>
     <use xlink:href="#DejaVuSans-7a"/>
     <use xlink:href="#DejaVuSans-20" x="52.490234"/>
     <use xlink:href="#DejaVuSans-5b" x="84.277344"/>
     <use xlink:href="#DejaVuSans-6d" x="123.291016"/>
     <use xlink:href="#DejaVuSans-5d" x="220.703125"/>
    </g>
   </g>
   <g id="Line3DCollection_3">
    <path d="M 307.396295 131.103483 
L 103.54398 84.772406 
L 42.108886 264.915902 
" style="fill: none; stroke: #b0b0b0; stroke-width: 0.8"/>
    <path d="M 310.203761 106.997845 
L 101.970197 60.037042 
L 39.058853 242.79423 
" style="fill: none; stroke: #b0b0b0; stroke-width: 0.8"/>
    <path d="M 313.135234 81.827441 
L 100.32795 34.22561 
L 35.868202 219.652664 
" style="fill: none; stroke: #b0b0b0; stroke-width: 0.8"/>
   </g>
   <g id="xtick_15">
    <g id="line2d_18">
     <path d="M 305.741702 130.727431 
L 310.706648 131.855853 
" style="fill: none; stroke: #000000; stroke-width: 0.8; stroke-linecap: square"/>
    </g>
    <g id="text_18">
     <!-- 1.25 -->
     <g transform="translate(312.490198 130.517077)scale(0.1 -0.1)">
      <use xlink:href="#DejaVuSans-31"/>
      <use xlink:href="#DejaVuSans-2e" x="63.623047"/>
      <use xlink:href="#DejaVuSans-32" x="95.410156"/>
      <use xlink:href="#DejaVuSans-35" x="159.033203"/>
     </g>
    </g>
   </g>
   <g id="xtick_16">
    <g id="line2d_19">
     <path d="M 308.513082 106.616564 
L 313.586337 107.760683 
" style="fill: none; stroke: #000000; stroke-width: 0.8; stroke-linecap: square"/>
    </g>
    <g id="text_19">
     <!-- 1.50 -->
     <g transform="translate(315.640038 106.298054)scale(0.1 -0.1)">
      <use xlink:href="#DejaVuSans-31"/>
      <use xlink:href="#DejaVuSans-2e" x="63.623047"/>
      <use xlink:href="#DejaVuSans-35" x="95.410156"/>
      <use xlink:href="#DejaVuSans-30" x="159.033203"/>
     </g>
    </g>
   </g>
   <g id="xtick_17">
    <g id="line2d_20">
     <path d="M 311.406861 81.44083 
L 316.593254 82.600949 
" style="fill: none; stroke: #000000; stroke-width: 0.8; stroke-linecap: square"/>
    </g>
    <g id="text_20">
     <!-- 1.75 -->
     <g transform="translate(318.928638 81.012114)scale(0.1 -0.1)">
      <use xlink:href="#DejaVuSans-31"/>
      <use xlink:href="#DejaVuSans-2e" x="63.623047"/>
      <use xlink:href="#DejaVuSans-37" x="95.410156"/>
      <use xlink:href="#DejaVuSans-35" x="159.033203"/>
     </g>
    </g>
   </g>
  </g>
  <g id="axes_1">
   <g id="line2d_21">
    <path d="M 227.155298 152.971723 
L 222.849035 153.161969 
L 219.693654 153.399487 
L 203.302981 155.887888 
L 199.926367 156.444658 
L 191.002118 157.679576 
L 186.806944 158.256542 
L 182.713728 158.830203 
L 173.817236 159.723142 
L 163.193916 160.362476 
L 154.731975 160.204123 
L 141.027025 159.519026 
L 136.097261 158.906723 
L 136.193972 158.864226 
L 137.28782 158.808322 
L 138.055529 158.668306 
L 156.068009 157.888821 
L 168.724782 156.861784 
L 171.838552 156.512924 
L 197.860831 153.98408 
L 199.544184 153.827458 
L 201.893036 153.518472 
L 204.320945 153.242324 
L 209.454724 152.573216 
L 212.899252 152.253841 
L 218.336483 151.907554 
L 221.590824 151.897255 
L 230.352942 151.765501 
L 232.143713 151.720843 
L 239.300906 151.09577 
L 244.861132 149.874784 
L 248.078575 148.856161 
L 248.229359 148.613262 
L 250.443994 147.620473 
L 251.441063 147.285952 
L 252.568769 146.462435 
L 252.922426 145.958897 
L 253.056114 145.837656 
L 253.008768 145.697747 
L 253.066313 145.300416 
L 252.717364 145.065017 
L 251.665703 144.971854 
L 250.99886 145.005404 
L 250.011821 145.134155 
L 248.655835 145.208765 
L 247.344104 145.666653 
L 235.452274 148.434285 
L 231.040006 149.116166 
L 227.858939 149.695538 
L 217.10275 151.251686 
L 212.926499 151.617624 
L 209.676479 151.863661 
L 203.078284 152.364472 
L 197.314418 152.940956 
L 193.78917 153.26662 
L 172.672824 155.20317 
L 161.185178 156.822096 
L 156.902864 157.818944 
L 155.592452 158.190844 
L 152.472447 158.991365 
L 149.618385 159.64778 
L 146.028539 160.377233 
L 141.480871 161.29698 
L 140.142355 161.393452 
L 139.936781 161.164867 
L 139.961046 161.01667 
L 140.162282 160.901516 
L 140.192304 160.815325 
L 142.88206 160.141736 
L 144.439122 159.602742 
L 159.729052 155.1063 
L 162.809019 154.524014 
L 166.140946 154.018946 
L 170.474852 153.303589 
L 173.200068 152.912199 
L 184.802872 150.215142 
L 187.481134 149.551861 
L 191.623071 148.676227 
L 202.304741 147.226751 
L 207.325859 146.845535 
L 210.175533 146.890794 
L 210.513027 146.835766 
L 217.164884 147.447656 
L 223.329443 147.60597 
L 228.45613 147.294382 
L 232.686786 146.933041 
L 237.093685 146.216615 
L 238.426655 146.013297 
L 239.04297 145.821521 
L 239.743097 145.757543 
L 242.928757 144.504979 
L 242.930752 144.282077 
L 241.455965 144.001318 
L 237.27575 144.114736 
L 235.794891 144.320322 
L 234.084024 144.437156 
L 215.908921 147.392028 
L 212.525554 148.092335 
L 207.285473 149.078747 
L 203.1781 149.674721 
L 201.209746 150.046479 
L 197.025108 150.661973 
L 187.0838 151.601452 
L 171.379986 152.13892 
L 166.518582 152.099028 
L 160.873346 151.719466 
L 158.27352 151.560297 
L 152.73754 151.398455 
L 150.515094 151.497847 
L 145.914591 152.133876 
L 143.356264 152.624341 
L 139.756697 153.647886 
L 137.072029 154.572116 
L 136.68127 154.826824 
L 135.647487 155.122228 
L 132.408387 156.555282 
L 131.313136 157.023783 
L 130.951691 157.314859 
L 130.598296 157.613453 
L 130.939039 157.6658 
L 131.924503 157.601163 
L 132.821903 157.406288 
L 142.535671 156.161669 
L 146.600576 155.85526 
L 151.127634 155.512038 
L 156.929466 155.094714 
L 160.05488 154.826922 
L 163.135324 154.61318 
L 170.856888 154.136195 
L 193.258968 152.156669 
L 206.42254 150.112106 
L 210.098951 149.169348 
L 210.522731 148.933302 
L 211.188582 148.742968 
L 211.514284 148.500959 
L 212.496174 148.014765 
L 212.702805 147.686945 
L 213.746977 146.854374 
L 213.687841 146.489245 
L 214.295038 145.925773 
L 214.227882 145.631091 
L 214.457119 145.087106 
L 214.610857 144.5486 
L 214.854195 144.335345 
L 214.952567 143.901954 
L 214.719187 143.739419 
L 214.820205 143.366828 
L 214.836942 143.372256 
L 214.894539 143.364431 
L 214.799029 143.409584 
L 215.016378 143.48371 
L 214.733432 143.627083 
L 214.644833 144.026004 
L 214.629808 144.137178 
L 214.328716 144.324142 
L 214.270595 144.517324 
L 214.4881 144.581484 
L 213.696394 144.693867 
L 213.665427 144.534248 
L 213.858378 144.215686 
L 213.629148 143.928716 
L 213.531747 143.028795 
L 213.407487 137.565938 
L 213.674454 136.845181 
L 213.481993 136.084367 
L 213.415016 133.88434 
L 213.550847 133.113346 
L 213.506789 131.552806 
L 213.590701 129.934091 
L 213.518148 128.368709 
L 213.981648 123.709196 
L 214.309698 122.144589 
L 214.3069 121.389482 
L 214.596409 119.96246 
L 214.676227 119.314253 
L 215.421318 116.585663 
L 215.660941 115.258228 
L 216.21751 113.332427 
L 218.368267 107.243428 
L 218.738461 106.53334 
L 218.938418 105.805205 
L 219.301675 105.12643 
L 219.467873 104.381461 
L 221.049403 100.751048 
L 221.820913 98.585808 
L 222.270254 97.07567 
L 223.985064 92.889005 
L 224.108842 92.174033 
L 225.122103 90.344084 
L 225.194621 89.653672 
L 226.04699 87.936682 
L 226.228852 87.368935 
L 227.34398 85.467467 
L 227.729328 85.13344 
L 228.164598 84.369683 
L 228.164598 84.369683 
" clip-path="url(#p37b5eb0619)" style="fill: none; stroke: #008000; stroke-width: 1.5; stroke-linecap: square"/>
   </g>
   <g id="line2d_22">
    <path d="M 230.523228 83.590544 
L 230.768851 84.334269 
L 230.757676 84.908929 
L 230.865432 85.207803 
L 230.716961 85.565012 
L 230.682168 86.449561 
L 230.244986 87.869957 
L 230.249662 88.435919 
L 229.65244 90.158074 
L 229.626902 90.816556 
L 229.365206 91.42206 
L 229.286592 92.154752 
L 228.224318 95.021734 
L 227.652026 97.389398 
L 227.626862 98.211035 
L 227.243939 99.047973 
L 227.071148 99.880651 
L 226.695379 100.66779 
L 226.523663 101.471199 
L 226.163809 102.308165 
L 225.675154 104.037634 
L 224.996435 105.832207 
L 223.562715 110.379477 
L 222.984505 112.174272 
L 222.392832 114.022346 
L 221.807068 115.84198 
L 221.641966 116.753627 
L 221.096233 118.543657 
L 220.931928 119.427144 
L 220.590844 120.303047 
L 219.221729 127.136245 
L 218.959891 127.99086 
L 218.653748 129.686978 
L 218.222831 131.32201 
L 218.12827 132.105949 
L 217.89003 132.899615 
L 217.65243 134.542908 
L 217.208722 136.160534 
L 216.888288 137.002043 
L 216.423638 138.724146 
L 214.306974 144.799899 
L 213.084369 148.287775 
L 212.467316 149.173938 
L 210.886031 152.823964 
L 209.738331 154.714922 
L 209.463087 155.682855 
L 208.76866 156.596707 
L 207.867159 158.486247 
L 207.240456 159.426735 
L 206.757632 160.368446 
L 206.446734 161.340582 
L 205.370632 163.223303 
L 204.673829 164.159329 
L 203.221621 167.000755 
L 201.443042 169.692167 
L 200.546378 171.444771 
L 199.551779 173.172513 
L 198.156962 175.667019 
L 197.640987 176.451615 
L 197.256213 177.289911 
L 196.718386 178.024236 
L 196.42186 178.805354 
L 195.173302 181.141613 
L 193.885903 184.092172 
L 192.803309 186.884692 
L 191.454421 190.283516 
L 191.016119 191.766247 
L 190.015444 194.738174 
L 189.632228 196.274641 
L 188.722766 199.620801 
L 187.680969 203.072965 
L 186.30597 208.020385 
L 185.871247 209.678195 
L 184.696308 213.529452 
L 184.588763 214.262375 
L 183.776927 216.769486 
L 183.327314 218.431565 
L 182.908897 219.867663 
L 182.669777 220.666265 
L 182.364132 221.675407 
L 181.934836 223.394001 
L 181.98294 223.367537 
L 182.118962 223.201326 
L 182.240071 222.961055 
L 185.252269 214.190958 
L 185.582999 213.562713 
L 186.906423 209.362981 
L 187.228019 208.650472 
L 188.035998 205.81246 
L 188.537793 204.222645 
L 189.587554 200.200505 
L 190.321031 197.777041 
L 190.859834 196.07401 
L 191.004631 195.21973 
L 191.501784 193.52316 
L 192.676631 189.248631 
L 198.186557 170.482979 
L 198.627416 169.476557 
L 199.220417 167.472973 
L 199.613277 166.512291 
L 200.060839 164.539922 
L 204.18978 150.91579 
L 204.634037 150.060718 
L 204.826061 149.202808 
L 205.564501 147.495903 
L 205.832806 145.792165 
L 206.864526 143.209289 
L 206.919698 142.304433 
L 207.730383 140.580199 
L 208.112733 138.82666 
L 209.067956 137.189407 
L 209.144097 136.327569 
L 209.498898 135.497924 
L 209.73067 134.576282 
L 210.411213 132.910008 
L 211.695604 129.407353 
L 212.449883 126.869302 
L 213.577132 123.346657 
L 214.176878 121.585523 
L 214.25528 120.590081 
L 215.58031 115.750413 
L 216.278857 112.805093 
L 216.743755 110.924288 
L 217.251336 109.132632 
L 217.811241 107.278673 
L 218.243165 105.525045 
L 218.56682 104.641337 
L 218.735672 103.818676 
L 219.653486 101.404209 
L 219.870502 100.6695 
L 220.234662 99.924829 
L 220.789699 98.368613 
L 221.901205 95.558785 
L 222.261594 94.935872 
L 222.817833 93.682471 
L 224.217 90.283641 
L 224.618409 89.778963 
L 225.271895 88.126349 
L 226.017446 87.09308 
L 226.12887 86.639927 
L 226.630774 85.852944 
L 227.391705 84.447108 
L 227.620466 84.166517 
L 227.701385 83.92649 
L 227.715741 83.956685 
L 227.770609 83.954072 
L 227.734007 84.017104 
L 227.762059 84.75105 
L 227.288988 86.401211 
L 226.990302 87.33309 
L 226.904132 88.111376 
L 226.467407 89.449227 
L 226.474357 89.884576 
L 226.341288 90.299961 
L 225.731795 91.284846 
L 225.662232 91.855069 
L 225.437266 92.336988 
L 225.299978 92.902492 
L 225.05732 93.425626 
L 224.957768 94.078224 
L 224.634985 94.637315 
L 224.570558 95.258075 
L 224.257044 95.89664 
L 224.152269 96.540851 
L 223.360376 98.558835 
L 223.236382 99.275664 
L 222.305738 102.067407 
L 222.249517 102.781629 
L 221.775137 103.465344 
L 221.605088 104.198395 
L 221.150503 104.961444 
L 220.92419 105.65908 
L 220.457166 106.453977 
L 220.266796 107.28026 
L 219.439509 108.865043 
L 218.405568 111.412981 
L 217.546115 113.066037 
L 216.203643 115.955832 
L 215.046597 117.966567 
L 214.592513 118.979325 
L 213.312628 121.032872 
L 211.552464 124.109259 
L 210.284267 126.21034 
L 209.05347 128.340828 
L 208.400117 129.414696 
L 207.34365 131.557844 
L 205.621838 134.680368 
L 205.162354 135.694479 
L 204.901089 136.767316 
L 204.120548 137.783635 
L 203.762699 138.813542 
L 202.668806 140.867524 
L 200.136025 147.804386 
L 199.854339 148.720968 
L 199.023782 150.652919 
L 198.638226 151.57658 
L 198.389853 152.512902 
L 197.907558 153.392737 
L 197.871084 154.34671 
L 197.014587 156.121 
L 196.176596 157.833512 
L 196.014705 158.744997 
L 195.10052 160.465334 
L 194.478978 162.225768 
L 193.228037 164.862648 
L 189.884573 172.859992 
L 189.226432 174.709731 
L 187.757041 178.44463 
L 175.924357 204.608324 
L 175.40067 205.422598 
L 174.692764 207.117693 
L 173.908179 208.791515 
L 170.249153 216.045587 
L 169.526547 217.315938 
L 169.220505 217.948173 
L 166.683228 221.265681 
L 165.245796 222.904288 
L 163.730653 224.559299 
L 162.560924 226.089453 
L 162.20333 226.633263 
L 161.798479 227.485119 
L 162.008868 227.806746 
L 162.661089 227.539502 
L 164.043941 226.315646 
L 165.4268 224.410914 
L 166.875516 221.645286 
L 167.281162 220.460234 
L 167.345035 219.844665 
L 168.019636 217.842551 
L 168.379437 216.332337 
L 168.82782 214.728528 
L 169.496939 209.593361 
L 170.638185 196.936596 
L 171.398011 191.449816 
L 173.092198 183.024205 
L 174.209201 178.60475 
L 176.618677 171.40479 
L 178.857477 165.418289 
L 179.243829 164.286921 
L 181.281176 159.569152 
L 181.693632 158.451373 
L 182.35687 157.328118 
L 182.694306 156.207426 
L 185.280132 150.764896 
L 185.615967 149.657957 
L 186.257134 148.593129 
L 188.06531 144.285688 
L 188.710981 143.232153 
L 188.998202 142.173506 
L 190.562688 139.214802 
L 190.903481 138.244975 
L 191.88283 136.358884 
L 192.142634 135.407078 
L 193.408204 132.762663 
L 193.681326 131.921914 
L 194.169979 131.057499 
L 195.230029 128.573482 
L 195.738173 127.789415 
L 196.533078 125.408559 
L 197.217933 123.897046 
L 197.800793 122.374203 
L 197.963255 121.586783 
L 198.586315 120.203601 
L 199.141179 118.816722 
L 199.614025 117.317895 
L 199.884159 116.666214 
L 200.014409 115.965524 
L 200.446052 115.353726 
L 200.569969 114.664469 
L 200.928269 114.038912 
L 201.512638 111.97977 
L 202.047958 110.724833 
L 203.830888 106.878322 
L 204.303717 106.279195 
L 204.801745 105.033452 
L 206.788324 101.951563 
L 207.807542 100.425621 
L 208.316423 99.875661 
L 209.388963 99.385396 
L 209.675843 99.533561 
L 209.748944 100.102501 
L 209.703578 100.313611 
L 209.760899 100.656268 
L 209.522505 101.33683 
L 209.069462 102.836155 
L 208.14291 105.334488 
L 206.791284 109.212241 
L 206.238775 110.936952 
L 205.824556 111.794598 
L 205.313278 113.609773 
L 204.491285 115.438063 
L 204.408379 116.485824 
L 203.489102 119.408701 
L 200.549716 129.850056 
L 200.239084 132.146958 
L 199.705632 134.492107 
L 199.580965 135.746522 
L 198.804995 136.773442 
L 198.489635 137.941428 
L 198.370926 139.167889 
L 198.00864 140.371307 
L 197.613244 142.786906 
L 197.168443 145.137363 
L 196.416078 148.550717 
L 195.38653 154.750729 
L 195.429392 155.72858 
L 195.085417 157.580031 
L 195.045123 158.491835 
L 194.813434 159.324422 
L 194.592958 160.873212 
L 194.480685 161.534996 
L 194.198265 162.157602 
L 193.901978 163.211409 
L 193.643249 163.627556 
L 193.323475 164.528362 
L 192.071856 166.112609 
L 191.637809 166.386913 
L 191.176059 166.366456 
L 190.650865 166.167137 
L 186.68444 164.054611 
L 182.069412 162.063035 
L 177.61533 160.208166 
L 173.456313 158.352167 
L 170.758249 157.191072 
L 156.061638 151.28195 
L 128.648597 141.341789 
L 117.720241 136.846608 
L 115.244029 135.733785 
L 107.604708 132.470127 
L 104.799278 130.967251 
L 104.977623 131.000117 
L 105.90693 131.374992 
L 107.554531 132.116021 
L 121.080708 137.82619 
L 130.645379 141.23382 
L 138.370451 144.257468 
L 148.705288 148.741625 
L 152.57246 150.37684 
L 156.296175 151.982164 
L 158.898589 153.038227 
L 163.70252 155.177014 
L 169.633752 157.766827 
L 173.042865 159.18965 
L 178.412723 161.506976 
L 180.523068 162.400467 
L 182.556883 163.176054 
L 185.574291 164.478381 
L 187.478714 165.343172 
L 198.125426 170.323408 
L 200.16301 171.266318 
L 206.902734 174.713081 
L 213.422941 178.347245 
L 215.107419 179.447387 
L 219.280976 181.967155 
L 223.293381 184.35499 
L 230.137731 188.334119 
L 235.871527 191.551456 
L 237.654907 192.648302 
L 240.069123 194.002803 
L 244.049813 196.668537 
L 243.387378 196.106368 
L 242.537723 195.540206 
L 241.383671 194.856037 
L 239.703459 193.953034 
L 238.494149 193.262936 
L 236.32948 192.090373 
L 233.938069 190.810085 
L 227.299906 187.305872 
L 224.255418 185.75032 
L 222.114209 184.733187 
L 218.082959 182.69297 
L 203.008354 175.850536 
L 200.258469 174.441889 
L 199.33995 173.963565 
L 198.026511 173.518427 
L 197.291101 173.027863 
L 194.385304 171.631582 
L 188.091161 168.529961 
L 187.009372 168.132505 
L 185.423269 167.272601 
L 176.877076 163.272475 
L 174.295157 162.182605 
L 163.232699 157.057259 
L 161.653977 156.358717 
L 155.038124 153.335083 
L 154.277384 152.895102 
L 151.478356 151.742803 
L 148.813206 150.479147 
L 138.241919 145.658682 
L 136.389373 144.920567 
L 132.925543 143.296091 
L 128.679836 141.364127 
L 124.522748 139.707458 
L 121.392913 138.433315 
L 111.804184 134.515208 
L 109.31643 133.314981 
L 105.87678 131.422813 
L 105.37734 131.10033 
L 104.678553 130.810083 
L 108.511947 132.721221 
L 112.148434 134.342785 
L 116.629991 136.360045 
L 118.638878 137.232305 
L 119.474143 137.719965 
L 120.60123 138.177869 
L 121.608074 138.73421 
L 125.03893 140.264664 
L 136.592859 146.01107 
L 141.453029 148.354724 
L 154.419927 154.16931 
L 156.672222 155.238486 
L 164.453323 158.779146 
L 177.795603 164.56934 
L 181.84962 166.584553 
L 185.832886 168.659379 
L 192.881767 172.387526 
L 196.240572 174.002781 
L 206.331308 178.855224 
L 212.415599 181.757392 
L 218.360741 184.996318 
L 221.419377 186.603561 
L 223.741326 187.889337 
L 231.240946 191.64167 
L 232.686732 192.265353 
L 236.283442 193.887092 
L 239.174535 195.109232 
L 242.615195 196.559584 
L 257.074749 201.958546 
L 257.817832 202.019037 
L 257.859547 201.926261 
L 257.497454 201.631377 
L 254.4575 200.275295 
L 252.857763 199.586664 
L 248.402439 197.639419 
L 247.153145 196.987016 
L 245.649945 196.376621 
L 241.853817 194.594707 
L 240.311613 193.791137 
L 238.149641 192.63485 
L 233.419063 190.330263 
L 231.865115 189.51205 
L 227.11029 186.980127 
L 215.175154 180.737481 
L 211.348407 178.915433 
L 210.333423 178.480679 
L 208.431524 177.502989 
L 204.106617 175.495928 
L 200.938093 173.923986 
L 196.577554 171.742979 
L 189.804499 168.513019 
L 187.382421 167.469692 
L 185.013063 166.370643 
L 172.286047 160.90945 
L 168.618218 159.357618 
L 160.325973 155.840263 
L 150.610299 151.829739 
L 147.517672 150.729663 
L 144.667359 149.624341 
L 138.315731 147.478694 
L 134.095921 146.102082 
L 131.691289 145.285801 
L 127.721321 144.017765 
L 124.577422 142.956072 
L 119.270096 140.939185 
L 119.012541 140.695666 
L 118.255608 140.514333 
L 117.904443 140.255613 
L 116.720271 139.801215 
L 116.231355 139.481588 
L 115.81043 139.177648 
L 115.959968 138.885949 
L 116.670332 138.849723 
L 117.241838 139.004323 
L 118.558325 139.411787 
L 119.042789 139.520469 
L 119.501056 139.742632 
L 120.656506 140.129092 
L 122.715269 140.888995 
L 128.08237 143.042955 
L 129.019363 143.301383 
L 129.857243 143.727414 
L 131.611432 144.361813 
L 134.353962 145.450312 
L 135.29515 145.9484 
L 141.248674 148.35204 
L 145.244249 150.150889 
L 152.427681 153.304039 
L 153.386273 153.795077 
L 155.396188 154.659978 
L 158.592991 156.090653 
L 163.773509 158.66421 
L 173.604656 163.342397 
L 175.685315 164.391709 
L 180.828896 167.020279 
L 183.626039 168.467536 
L 187.499734 170.348019 
L 203.951179 177.671101 
L 212.767945 180.354133 
L 214.230367 180.706087 
L 218.919797 181.494004 
L 220.451087 181.438962 
L 220.370969 181.277389 
L 219.430708 181.001637 
L 218.27249 180.579427 
L 214.905265 179.443645 
L 213.4732 179.004962 
L 211.877058 178.524555 
L 207.199427 177.575247 
L 206.378296 177.247315 
L 205.892302 177.13223 
L 204.89716 176.901677 
L 204.296418 176.995876 
L 203.784 177.002495 
L 202.764375 176.869579 
L 201.550403 176.402553 
L 198.25992 174.961787 
L 197.509025 175.030913 
L 197.252754 174.813001 
L 197.186364 174.721974 
L 196.998656 174.597353 
L 196.998656 174.597353 
" clip-path="url(#p37b5eb0619)" style="fill: none; stroke: #008000; stroke-width: 1.5; stroke-linecap: square"/>
   </g>
   <g id="line2d_23">
    <path d="M 229.364864 236.035685 
L 203.965893 234.748873 
L 183.231377 230.272556 
L 157.531098 223.417313 
L 129.708086 208.918181 
L 110.625811 200.38747 
L 95.078759 196.618675 
L 91.493731 186.750347 
L 105.21517 181.640814 
L 135.133834 172.182677 
L 146.140604 167.982757 
L 171.419537 160.545804 
L 193.932703 155.654017 
L 210.705326 157.428543 
L 192.148365 144.880551 
L 197.725727 136.509299 
L 227.854054 148.78887 
L 234.012585 158.58119 
L 216.674233 169.059572 
L 183.468982 164.758184 
L 143.714385 188.841851 
L 122.861397 178.006935 
L 109.681347 185.236052 
L 88.425704 181.078798 
L 80.431153 184.592494 
L 69.575045 173.999624 
L 85.88885 166.969276 
L 98.113382 190.575795 
L 115.211947 202.787082 
L 126.589304 192.571896 
L 149.290934 198.501494 
L 170.418516 209.663897 
L 166.785332 209.354871 
L 162.516563 200.255527 
L 154.838909 192.822084 
L 168.989907 191.936744 
L 166.481992 175.725074 
L 156.586098 152.405842 
L 169.484535 148.589453 
L 164.391682 142.280326 
L 167.823855 140.168625 
L 182.423879 141.094143 
L 165.536223 142.815173 
L 149.639821 126.64929 
L 148.68125 141.247831 
L 139.928166 148.809384 
L 124.71844 159.579938 
L 138.580515 185.078979 
L 128.854975 204.362481 
L 128.507922 220.426503 
L 124.3945 230.066133 
L 118.404902 233.464477 
L 119.659204 234.325265 
L 120.149625 223.723736 
L 121.817005 214.338551 
L 115.073716 169.857059 
L 127.476536 154.771734 
L 139.300032 141.563512 
L 139.771906 122.21922 
L 142.212986 97.65656 
L 132.493934 85.852293 
L 139.38063 80.902242 
L 139.77893 65.252024 
L 150.368865 70.218762 
L 147.572303 74.734377 
L 149.779253 84.912335 
L 138.636272 90.759892 
L 131.95502 97.046073 
L 130.663018 116.585617 
L 117.941946 108.513731 
L 120.469372 123.719088 
L 111.210649 133.429692 
L 114.534352 151.495784 
L 110.58994 158.253478 
L 110.774014 157.163158 
L 113.048601 152.386138 
L 111.635815 153.572047 
L 113.091954 142.624673 
L 103.405541 133.656527 
L 125.53574 136.973428 
L 133.607589 129.283874 
L 168.668197 159.4152 
L 185.087027 124.554319 
L 180.490332 111.002645 
L 187.580961 100.993482 
L 194.892576 113.539076 
L 215.652248 97.260792 
L 218.7515 114.986442 
L 215.315425 121.940166 
L 213.495343 124.643718 
L 217.961366 126.793021 
L 217.258033 127.477518 
L 217.63078 127.536785 
L 210.635181 121.470582 
L 207.047744 118.525282 
L 205.208318 114.778305 
L 208.770843 117.425198 
L 195.857354 100.598389 
L 204.982877 107.280097 
L 221.356906 133.136872 
L 236.148016 149.123588 
L 245.051844 154.4285 
L 254.283559 170.961777 
L 268.041876 178.932161 
L 267.033145 182.519394 
L 269.435946 189.40683 
L 249.886945 168.795893 
L 243.979156 163.556503 
L 236.512558 157.372082 
L 229.517766 150.769236 
L 225.476838 142.669319 
L 224.11819 136.679832 
L 218.523746 125.367312 
L 209.570284 105.927137 
L 206.946406 101.012827 
L 201.581188 96.767732 
L 203.452091 98.053679 
L 203.232981 96.771576 
L 211.318644 102.4227 
L 219.026093 121.462307 
L 230.972121 133.335171 
L 238.471733 139.531865 
L 246.576274 148.009701 
L 247.221392 153.718272 
L 250.450735 179.155965 
L 260.708177 190.492089 
L 264.183266 198.786045 
L 278.731284 211.691994 
L 280.687879 213.958947 
L 279.354944 213.375291 
L 278.959847 214.195104 
L 276.257993 209.35179 
L 273.930036 204.336405 
L 269.428195 204.521874 
L 261.800546 195.140883 
L 247.689231 180.764502 
L 238.393113 174.208713 
L 230.301935 160.64082 
L 230.571221 163.333429 
L 233.9764 166.929688 
L 244.625736 179.98127 
L 254.401255 164.821669 
L 256.118916 170.058109 
L 258.972988 173.971665 
L 264.465838 180.117708 
L 256.120952 169.062193 
L 254.933953 164.095098 
L 257.226588 166.239035 
L 257.362092 167.27976 
L 254.087077 166.923304 
L 251.014619 168.164724 
L 257.921154 180.312471 
L 256.735718 178.584355 
L 253.40659 175.364285 
L 252.721809 179.651208 
L 239.095429 191.649258 
L 238.084078 190.300225 
L 238.595467 193.358673 
L 238.595467 193.358673 
" clip-path="url(#p37b5eb0619)" style="fill: none; stroke: #ff0000; stroke-width: 1.5; stroke-linecap: square"/>
   </g>
   <g id="legend_1">
    <g id="patch_6">
     <path d="M 171.891875 63.505625 
L 333.7 63.505625 
Q 337.1 63.505625 337.1 60.105625 
L 337.1 11.9 
Q 337.1 8.5 333.7 8.5 
L 171.891875 8.5 
Q 168.491875 8.5 168.491875 11.9 
L 168.491875 60.105625 
Q 168.491875 63.505625 171.891875 63.505625 
z
" style="fill: #ffffff; opacity: 0.8; stroke: #cccccc; stroke-linejoin: miter"/>
    </g>
    <g id="line2d_24">
     <path d="M 175.291875 22.267344 
L 192.291875 22.267344 
L 209.291875 22.267344 
" style="fill: none; stroke: #008000; stroke-width: 1.5; stroke-linecap: square"/>
    </g>
    <g id="text_21">
     <!-- ground truth -->
     <g transform="translate(222.891875 28.217344)scale(0.17 -0.17)">
      <defs>
       <path id="DejaVuSans-67" d="M 2906 1791 
Q 2906 2416 2648 2759 
Q 2391 3103 1925 3103 
Q 1463 3103 1205 2759 
Q 947 2416 947 1791 
Q 947 1169 1205 825 
Q 1463 481 1925 481 
Q 2391 481 2648 825 
Q 2906 1169 2906 1791 
z
M 3481 434 
Q 3481 -459 3084 -895 
Q 2688 -1331 1869 -1331 
Q 1566 -1331 1297 -1286 
Q 1028 -1241 775 -1147 
L 775 -588 
Q 1028 -725 1275 -790 
Q 1522 -856 1778 -856 
Q 2344 -856 2625 -561 
Q 2906 -266 2906 331 
L 2906 616 
Q 2728 306 2450 153 
Q 2172 0 1784 0 
Q 1141 0 747 490 
Q 353 981 353 1791 
Q 353 2603 747 3093 
Q 1141 3584 1784 3584 
Q 2172 3584 2450 3431 
Q 2728 3278 2906 2969 
L 2906 3500 
L 3481 3500 
L 3481 434 
z
" transform="scale(0.015625)"/>
       <path id="DejaVuSans-72" d="M 2631 2963 
Q 2534 3019 2420 3045 
Q 2306 3072 2169 3072 
Q 1681 3072 1420 2755 
Q 1159 2438 1159 1844 
L 1159 0 
L 581 0 
L 581 3500 
L 1159 3500 
L 1159 2956 
Q 1341 3275 1631 3429 
Q 1922 3584 2338 3584 
Q 2397 3584 2469 3576 
Q 2541 3569 2628 3553 
L 2631 2963 
z
" transform="scale(0.015625)"/>
       <path id="DejaVuSans-6f" d="M 1959 3097 
Q 1497 3097 1228 2736 
Q 959 2375 959 1747 
Q 959 1119 1226 758 
Q 1494 397 1959 397 
Q 2419 397 2687 759 
Q 2956 1122 2956 1747 
Q 2956 2369 2687 2733 
Q 2419 3097 1959 3097 
z
M 1959 3584 
Q 2709 3584 3137 3096 
Q 3566 2609 3566 1747 
Q 3566 888 3137 398 
Q 2709 -91 1959 -91 
Q 1206 -91 779 398 
Q 353 888 353 1747 
Q 353 2609 779 3096 
Q 1206 3584 1959 3584 
z
" transform="scale(0.015625)"/>
       <path id="DejaVuSans-75" d="M 544 1381 
L 544 3500 
L 1119 3500 
L 1119 1403 
Q 1119 906 1312 657 
Q 1506 409 1894 409 
Q 2359 409 2629 706 
Q 2900 1003 2900 1516 
L 2900 3500 
L 3475 3500 
L 3475 0 
L 2900 0 
L 2900 538 
Q 2691 219 2414 64 
Q 2138 -91 1772 -91 
Q 1169 -91 856 284 
Q 544 659 544 1381 
z
M 1991 3584 
L 1991 3584 
z
" transform="scale(0.015625)"/>
       <path id="DejaVuSans-6e" d="M 3513 2113 
L 3513 0 
L 2938 0 
L 2938 2094 
Q 2938 2591 2744 2837 
Q 2550 3084 2163 3084 
Q 1697 3084 1428 2787 
Q 1159 2491 1159 1978 
L 1159 0 
L 581 0 
L 581 3500 
L 1159 3500 
L 1159 2956 
Q 1366 3272 1645 3428 
Q 1925 3584 2291 3584 
Q 2894 3584 3203 3211 
Q 3513 2838 3513 2113 
z
" transform="scale(0.015625)"/>
       <path id="DejaVuSans-64" d="M 2906 2969 
L 2906 4863 
L 3481 4863 
L 3481 0 
L 2906 0 
L 2906 525 
Q 2725 213 2448 61 
Q 2172 -91 1784 -91 
Q 1150 -91 751 415 
Q 353 922 353 1747 
Q 353 2572 751 3078 
Q 1150 3584 1784 3584 
Q 2172 3584 2448 3432 
Q 2725 3281 2906 2969 
z
M 947 1747 
Q 947 1113 1208 752 
Q 1469 391 1925 391 
Q 2381 391 2643 752 
Q 2906 1113 2906 1747 
Q 2906 2381 2643 2742 
Q 2381 3103 1925 3103 
Q 1469 3103 1208 2742 
Q 947 2381 947 1747 
z
" transform="scale(0.015625)"/>
       <path id="DejaVuSans-74" d="M 1172 4494 
L 1172 3500 
L 2356 3500 
L 2356 3053 
L 1172 3053 
L 1172 1153 
Q 1172 725 1289 603 
Q 1406 481 1766 481 
L 2356 481 
L 2356 0 
L 1766 0 
Q 1100 0 847 248 
Q 594 497 594 1153 
L 594 3053 
L 172 3053 
L 172 3500 
L 594 3500 
L 594 4494 
L 1172 4494 
z
" transform="scale(0.015625)"/>
       <path id="DejaVuSans-68" d="M 3513 2113 
L 3513 0 
L 2938 0 
L 2938 2094 
Q 2938 2591 2744 2837 
Q 2550 3084 2163 3084 
Q 1697 3084 1428 2787 
Q 1159 2491 1159 1978 
L 1159 0 
L 581 0 
L 581 4863 
L 1159 4863 
L 1159 2956 
Q 1366 3272 1645 3428 
Q 1925 3584 2291 3584 
Q 2894 3584 3203 3211 
Q 3513 2838 3513 2113 
z
" transform="scale(0.015625)"/>
      </defs>
      <use xlink:href="#DejaVuSans-67"/>
      <use xlink:href="#DejaVuSans-72" x="63.476562"/>
      <use xlink:href="#DejaVuSans-6f" x="102.339844"/>
      <use xlink:href="#DejaVuSans-75" x="163.521484"/>
      <use xlink:href="#DejaVuSans-6e" x="226.900391"/>
      <use xlink:href="#DejaVuSans-64" x="290.279297"/>
      <use xlink:href="#DejaVuSans-20" x="353.755859"/>
      <use xlink:href="#DejaVuSans-74" x="385.542969"/>
      <use xlink:href="#DejaVuSans-72" x="424.751953"/>
      <use xlink:href="#DejaVuSans-75" x="465.865234"/>
      <use xlink:href="#DejaVuSans-74" x="529.244141"/>
      <use xlink:href="#DejaVuSans-68" x="568.453125"/>
     </g>
    </g>
    <g id="line2d_25">
     <path d="M 175.291875 47.220156 
L 192.291875 47.220156 
L 209.291875 47.220156 
" style="fill: none; stroke: #ff0000; stroke-width: 1.5; stroke-linecap: square"/>
    </g>
    <g id="text_22">
     <!-- estimated -->
     <g transform="translate(222.891875 53.170156)scale(0.17 -0.17)">
      <defs>
       <path id="DejaVuSans-65" d="M 3597 1894 
L 3597 1613 
L 953 1613 
Q 991 1019 1311 708 
Q 1631 397 2203 397 
Q 2534 397 2845 478 
Q 3156 559 3463 722 
L 3463 178 
Q 3153 47 2828 -22 
Q 2503 -91 2169 -91 
Q 1331 -91 842 396 
Q 353 884 353 1716 
Q 353 2575 817 3079 
Q 1281 3584 2069 3584 
Q 2775 3584 3186 3129 
Q 3597 2675 3597 1894 
z
M 3022 2063 
Q 3016 2534 2758 2815 
Q 2500 3097 2075 3097 
Q 1594 3097 1305 2825 
Q 1016 2553 972 2059 
L 3022 2063 
z
" transform="scale(0.015625)"/>
       <path id="DejaVuSans-73" d="M 2834 3397 
L 2834 2853 
Q 2591 2978 2328 3040 
Q 2066 3103 1784 3103 
Q 1356 3103 1142 2972 
Q 928 2841 928 2578 
Q 928 2378 1081 2264 
Q 1234 2150 1697 2047 
L 1894 2003 
Q 2506 1872 2764 1633 
Q 3022 1394 3022 966 
Q 3022 478 2636 193 
Q 2250 -91 1575 -91 
Q 1294 -91 989 -36 
Q 684 19 347 128 
L 347 722 
Q 666 556 975 473 
Q 1284 391 1588 391 
Q 1994 391 2212 530 
Q 2431 669 2431 922 
Q 2431 1156 2273 1281 
Q 2116 1406 1581 1522 
L 1381 1569 
Q 847 1681 609 1914 
Q 372 2147 372 2553 
Q 372 3047 722 3315 
Q 1072 3584 1716 3584 
Q 2034 3584 2315 3537 
Q 2597 3491 2834 3397 
z
" transform="scale(0.015625)"/>
       <path id="DejaVuSans-69" d="M 603 3500 
L 1178 3500 
L 1178 0 
L 603 0 
L 603 3500 
z
M 603 4863 
L 1178 4863 
L 1178 4134 
L 603 4134 
L 603 4863 
z
" transform="scale(0.015625)"/>
       <path id="DejaVuSans-61" d="M 2194 1759 
Q 1497 1759 1228 1600 
Q 959 1441 959 1056 
Q 959 750 1161 570 
Q 1363 391 1709 391 
Q 2188 391 2477 730 
Q 2766 1069 2766 1631 
L 2766 1759 
L 2194 1759 
z
M 3341 1997 
L 3341 0 
L 2766 0 
L 2766 531 
Q 2569 213 2275 61 
Q 1981 -91 1556 -91 
Q 1019 -91 701 211 
Q 384 513 384 1019 
Q 384 1609 779 1909 
Q 1175 2209 1959 2209 
L 2766 2209 
L 2766 2266 
Q 2766 2663 2505 2880 
Q 2244 3097 1772 3097 
Q 1472 3097 1187 3025 
Q 903 2953 641 2809 
L 641 3341 
Q 956 3463 1253 3523 
Q 1550 3584 1831 3584 
Q 2591 3584 2966 3190 
Q 3341 2797 3341 1997 
z
" transform="scale(0.015625)"/>
      </defs>
      <use xlink:href="#DejaVuSans-65"/>
      <use xlink:href="#DejaVuSans-73" x="61.523438"/>
      <use xlink:href="#DejaVuSans-74" x="113.623047"/>
      <use xlink:href="#DejaVuSans-69" x="152.832031"/>
      <use xlink:href="#DejaVuSans-6d" x="180.615234"/>
      <use xlink:href="#DejaVuSans-61" x="278.027344"/>
      <use xlink:href="#DejaVuSans-74" x="339.306641"/>
      <use xlink:href="#DejaVuSans-65" x="378.515625"/>
      <use xlink:href="#DejaVuSans-64" x="440.039062"/>
     </g>
    </g>
   </g>
  </g>
 </g>
 <defs>
  <clipPath id="p37b5eb0619">
   <rect x="0" y="-0" width="345.6" height="345.6"/>
  </clipPath>
 </defs>
</svg>
