<?xml version="1.0" encoding="utf-8" standalone="no"?>
<!DOCTYPE svg PUBLIC "-//W3C//DTD SVG 1.1//EN"
  "http://www.w3.org/Graphics/SVG/1.1/DTD/svg11.dtd">
<svg xmlns:xlink="http://www.w3.org/1999/xlink" width="412.04pt" height="269.612pt" viewBox="0 0 412.04 269.612" xmlns="http://www.w3.org/2000/svg" version="1.1">
 <metadata>
  <rdf:RDF xmlns:dc="http://purl.org/dc/elements/1.1/" xmlns:cc="http://creativecommons.org/ns#" xmlns:rdf="http://www.w3.org/1999/02/22-rdf-syntax-ns#">
   <cc:Work>
    <dc:type rdf:resource="http://purl.org/dc/dcmitype/StillImage"/>
    <dc:date>2022-02-10T00:54:54.736312</dc:date>
    <dc:format>image/svg+xml</dc:format>
    <dc:creator>
     <cc:Agent>
      <dc:title>Matplotlib v3.5.1, https://matplotlib.org/</dc:title>
     </cc:Agent>
    </dc:creator>
   </cc:Work>
  </rdf:RDF>
 </metadata>
 <defs>
  <style type="text/css">*{stroke-linejoin: round; stroke-linecap: butt}</style>
 </defs>
 <g id="figure_1">
  <g id="patch_1">
   <path d="M 0 269.612 
L 412.04 269.612 
L 412.04 0 
L 0 0 
z
" style="fill: #ffffff"/>
  </g>
  <g id="axes_1">
   <g id="patch_2">
    <path d="M 54.92 78.268235 
L 412.04 78.268235 
L 412.04 0 
L 54.92 0 
z
" style="fill: #ffffff"/>
   </g>
   <g id="matplotlib.axis_1"/>
   <g id="matplotlib.axis_2">
    <g id="ytick_1">
     <g id="line2d_1">
      <defs>
       <path id="m632b34e7e0" d="M 0 0 
L -3.5 0 
" style="stroke: #000000; stroke-width: 0.8"/>
      </defs>
      <g>
       <use xlink:href="#m632b34e7e0" x="54.92" y="43.76213" style="stroke: #000000; stroke-width: 0.8"/>
      </g>
     </g>
     <g id="text_1">
      <!-- −140 -->
      <g transform="translate(20.452813 47.561349)scale(0.1 -0.1)">
       <defs>
        <path id="DejaVuSans-2212" d="M 678 2272 
L 4684 2272 
L 4684 1741 
L 678 1741 
L 678 2272 
z
" transform="scale(0.015625)"/>
        <path id="DejaVuSans-31" d="M 794 531 
L 1825 531 
L 1825 4091 
L 703 3866 
L 703 4441 
L 1819 4666 
L 2450 4666 
L 2450 531 
L 3481 531 
L 3481 0 
L 794 0 
L 794 531 
z
" transform="scale(0.015625)"/>
        <path id="DejaVuSans-34" d="M 2419 4116 
L 825 1625 
L 2419 1625 
L 2419 4116 
z
M 2253 4666 
L 3047 4666 
L 3047 1625 
L 3713 1625 
L 3713 1100 
L 3047 1100 
L 3047 0 
L 2419 0 
L 2419 1100 
L 313 1100 
L 313 1709 
L 2253 4666 
z
" transform="scale(0.015625)"/>
        <path id="DejaVuSans-30" d="M 2034 4250 
Q 1547 4250 1301 3770 
Q 1056 3291 1056 2328 
Q 1056 1369 1301 889 
Q 1547 409 2034 409 
Q 2525 409 2770 889 
Q 3016 1369 3016 2328 
Q 3016 3291 2770 3770 
Q 2525 4250 2034 4250 
z
M 2034 4750 
Q 2819 4750 3233 4129 
Q 3647 3509 3647 2328 
Q 3647 1150 3233 529 
Q 2819 -91 2034 -91 
Q 1250 -91 836 529 
Q 422 1150 422 2328 
Q 422 3509 836 4129 
Q 1250 4750 2034 4750 
z
" transform="scale(0.015625)"/>
       </defs>
       <use xlink:href="#DejaVuSans-2212"/>
       <use xlink:href="#DejaVuSans-31" x="83.789062"/>
       <use xlink:href="#DejaVuSans-34" x="147.412109"/>
       <use xlink:href="#DejaVuSans-30" x="211.035156"/>
      </g>
     </g>
    </g>
    <g id="ytick_2">
     <g id="line2d_2">
      <g>
       <use xlink:href="#m632b34e7e0" x="54.92" y="6.307995" style="stroke: #000000; stroke-width: 0.8"/>
      </g>
     </g>
     <g id="text_2">
      <!-- −120 -->
      <g transform="translate(20.452813 10.107213)scale(0.1 -0.1)">
       <defs>
        <path id="DejaVuSans-32" d="M 1228 531 
L 3431 531 
L 3431 0 
L 469 0 
L 469 531 
Q 828 903 1448 1529 
Q 2069 2156 2228 2338 
Q 2531 2678 2651 2914 
Q 2772 3150 2772 3378 
Q 2772 3750 2511 3984 
Q 2250 4219 1831 4219 
Q 1534 4219 1204 4116 
Q 875 4013 500 3803 
L 500 4441 
Q 881 4594 1212 4672 
Q 1544 4750 1819 4750 
Q 2544 4750 2975 4387 
Q 3406 4025 3406 3419 
Q 3406 3131 3298 2873 
Q 3191 2616 2906 2266 
Q 2828 2175 2409 1742 
Q 1991 1309 1228 531 
z
" transform="scale(0.015625)"/>
       </defs>
       <use xlink:href="#DejaVuSans-2212"/>
       <use xlink:href="#DejaVuSans-31" x="83.789062"/>
       <use xlink:href="#DejaVuSans-32" x="147.412109"/>
       <use xlink:href="#DejaVuSans-30" x="211.035156"/>
      </g>
     </g>
    </g>
    <g id="text_3">
     <!-- yaw [°] -->
     <g transform="translate(12.917344 69.90943)rotate(-90)scale(0.17 -0.17)">
      <defs>
       <path id="DejaVuSans-79" d="M 2059 -325 
Q 1816 -950 1584 -1140 
Q 1353 -1331 966 -1331 
L 506 -1331 
L 506 -850 
L 844 -850 
Q 1081 -850 1212 -737 
Q 1344 -625 1503 -206 
L 1606 56 
L 191 3500 
L 800 3500 
L 1894 763 
L 2988 3500 
L 3597 3500 
L 2059 -325 
z
" transform="scale(0.015625)"/>
       <path id="DejaVuSans-61" d="M 2194 1759 
Q 1497 1759 1228 1600 
Q 959 1441 959 1056 
Q 959 750 1161 570 
Q 1363 391 1709 391 
Q 2188 391 2477 730 
Q 2766 1069 2766 1631 
L 2766 1759 
L 2194 1759 
z
M 3341 1997 
L 3341 0 
L 2766 0 
L 2766 531 
Q 2569 213 2275 61 
Q 1981 -91 1556 -91 
Q 1019 -91 701 211 
Q 384 513 384 1019 
Q 384 1609 779 1909 
Q 1175 2209 1959 2209 
L 2766 2209 
L 2766 2266 
Q 2766 2663 2505 2880 
Q 2244 3097 1772 3097 
Q 1472 3097 1187 3025 
Q 903 2953 641 2809 
L 641 3341 
Q 956 3463 1253 3523 
Q 1550 3584 1831 3584 
Q 2591 3584 2966 3190 
Q 3341 2797 3341 1997 
z
" transform="scale(0.015625)"/>
       <path id="DejaVuSans-77" d="M 269 3500 
L 844 3500 
L 1563 769 
L 2278 3500 
L 2956 3500 
L 3675 769 
L 4391 3500 
L 4966 3500 
L 4050 0 
L 3372 0 
L 2619 2869 
L 1863 0 
L 1184 0 
L 269 3500 
z
" transform="scale(0.015625)"/>
       <path id="DejaVuSans-20" transform="scale(0.015625)"/>
       <path id="DejaVuSans-5b" d="M 550 4863 
L 1875 4863 
L 1875 4416 
L 1125 4416 
L 1125 -397 
L 1875 -397 
L 1875 -844 
L 550 -844 
L 550 4863 
z
" transform="scale(0.015625)"/>
       <path id="DejaVuSans-b0" d="M 1600 4347 
Q 1350 4347 1178 4173 
Q 1006 4000 1006 3750 
Q 1006 3503 1178 3333 
Q 1350 3163 1600 3163 
Q 1850 3163 2022 3333 
Q 2194 3503 2194 3750 
Q 2194 3997 2020 4172 
Q 1847 4347 1600 4347 
z
M 1600 4750 
Q 1800 4750 1984 4673 
Q 2169 4597 2303 4453 
Q 2447 4313 2519 4134 
Q 2591 3956 2591 3750 
Q 2591 3338 2302 3052 
Q 2013 2766 1594 2766 
Q 1172 2766 890 3047 
Q 609 3328 609 3750 
Q 609 4169 896 4459 
Q 1184 4750 1600 4750 
z
" transform="scale(0.015625)"/>
       <path id="DejaVuSans-5d" d="M 1947 4863 
L 1947 -844 
L 622 -844 
L 622 -397 
L 1369 -397 
L 1369 4416 
L 622 4416 
L 622 4863 
L 1947 4863 
z
" transform="scale(0.015625)"/>
      </defs>
      <use xlink:href="#DejaVuSans-79"/>
      <use xlink:href="#DejaVuSans-61" x="59.179688"/>
      <use xlink:href="#DejaVuSans-77" x="120.458984"/>
      <use xlink:href="#DejaVuSans-20" x="202.246094"/>
      <use xlink:href="#DejaVuSans-5b" x="234.033203"/>
      <use xlink:href="#DejaVuSans-b0" x="273.046875"/>
      <use xlink:href="#DejaVuSans-5d" x="323.046875"/>
     </g>
    </g>
   </g>
   <g id="line2d_3">
    <path d="M 71.152727 21.210099 
L 73.220591 25.875347 
L 75.288454 31.204639 
L 77.356317 30.901048 
L 79.424181 30.988259 
L 81.492044 31.516819 
L 83.559907 37.523189 
L 85.627771 37.349748 
L 87.695634 33.873933 
L 89.763497 34.286743 
L 91.831361 32.456506 
L 95.967087 25.281267 
L 98.034951 23.632763 
L 100.102814 15.42704 
L 102.170677 3.557647 
L 104.238541 3.994376 
L 106.306404 12.226717 
L 108.374268 21.861115 
L 110.442131 27.09065 
L 112.509994 28.485478 
L 114.577858 27.417928 
L 118.713584 35.929628 
L 120.781448 40.48616 
L 122.849311 39.306976 
L 124.917174 38.781734 
L 126.985038 36.60426 
L 129.052901 34.081103 
L 131.120764 29.866062 
L 133.188628 21.921304 
L 135.256491 19.829045 
L 137.324354 20.667816 
L 139.392218 22.752779 
L 141.460081 20.049604 
L 143.527944 20.308389 
L 145.595808 23.52527 
L 147.663671 24.179153 
L 149.731534 25.134889 
L 151.799398 22.525412 
L 153.867261 26.060851 
L 155.935124 28.130493 
L 158.002988 28.599425 
L 160.070851 30.382534 
L 162.138715 33.044802 
L 164.206578 36.026517 
L 166.274441 38.067726 
L 168.342305 36.391981 
L 170.410168 38.159661 
L 172.478031 40.336201 
L 174.545895 40.440134 
L 176.613758 40.853558 
L 178.681621 40.248887 
L 180.749485 38.469877 
L 182.817348 36.098911 
L 184.885211 34.625461 
L 186.953075 32.336584 
L 189.020938 29.383536 
L 191.088801 28.452014 
L 193.156665 23.163343 
L 195.224528 20.693134 
L 197.292391 22.743201 
L 199.360255 26.215992 
L 201.428118 28.447089 
L 203.495981 28.738309 
L 205.563845 28.914957 
L 207.631708 29.877197 
L 209.699572 31.781178 
L 211.767435 30.457415 
L 213.835298 27.102113 
L 215.903162 25.089897 
L 217.971025 25.737696 
L 220.038888 26.689257 
L 222.106752 29.215652 
L 224.174615 28.721244 
L 226.242478 31.117005 
L 228.310342 32.297145 
L 230.378205 31.854469 
L 232.446068 34.565114 
L 234.513932 34.398644 
L 236.581795 34.099829 
L 238.649658 35.295397 
L 240.717522 39.713844 
L 242.785385 38.889742 
L 244.853248 38.30771 
L 246.921112 37.512439 
L 248.988975 37.679889 
L 251.056838 37.60279 
L 253.124702 39.183186 
L 255.192565 41.526508 
L 257.260428 38.445256 
L 259.328292 38.098901 
L 261.396155 37.570318 
L 263.464019 38.192129 
L 265.531882 37.057714 
L 267.599745 33.15132 
L 269.667609 32.727544 
L 271.735472 33.841919 
L 273.803335 33.528237 
L 275.871199 34.53695 
L 277.939062 33.213919 
L 282.074789 33.202963 
L 284.142652 37.186196 
L 286.210515 38.251363 
L 288.278379 41.800172 
L 290.346242 40.648282 
L 292.414105 38.574535 
L 294.481969 32.815956 
L 296.549832 30.021362 
L 298.617695 28.658947 
L 300.685559 28.427392 
L 302.753422 26.16954 
L 304.821285 24.520508 
L 306.889149 23.943188 
L 308.957012 25.038284 
L 311.024876 27.280357 
L 313.092739 27.279664 
L 315.160602 27.073538 
L 317.228466 31.439767 
L 319.296329 32.940185 
L 321.364192 32.387114 
L 323.432056 35.532929 
L 325.499919 36.1059 
L 327.567782 39.108164 
L 329.635646 44.27387 
L 331.703509 46.414026 
L 333.771372 49.089339 
L 335.839236 49.676769 
L 337.907099 47.956259 
L 339.974962 43.30407 
L 342.042826 39.753905 
L 344.110689 34.363166 
L 346.178552 30.197346 
L 348.246416 29.045318 
L 350.314279 27.729145 
L 352.382142 28.128656 
L 354.450006 27.063493 
L 356.517869 28.350727 
L 358.585732 24.949722 
L 360.653596 24.969154 
L 362.721459 27.475852 
L 364.789323 31.486272 
L 366.857186 35.126753 
L 368.925049 39.06234 
L 370.992913 42.714831 
L 373.060776 42.784577 
L 375.128639 42.979581 
L 377.196503 41.668772 
L 379.264366 40.141925 
L 381.332229 39.586987 
L 383.400093 39.621407 
L 385.467956 38.993521 
L 387.535819 40.482477 
L 391.671546 39.65853 
L 393.739409 39.667807 
L 395.807273 38.733524 
L 395.807273 38.733524 
" clip-path="url(#pe7731f82df)" style="fill: none; stroke: #008000; stroke-width: 1.5; stroke-linecap: square"/>
   </g>
   <g id="line2d_4">
    <path d="M 71.152727 21.210012 
L 73.220591 25.985018 
L 75.288454 30.188562 
L 77.356317 29.803013 
L 79.424181 33.609983 
L 81.492044 33.348516 
L 83.559907 40.0006 
L 85.627771 42.335226 
L 87.695634 40.093415 
L 89.763497 39.797793 
L 91.831361 42.459238 
L 93.899224 37.752627 
L 95.967087 37.243155 
L 98.034951 35.709182 
L 100.102814 27.335091 
L 102.170677 12.466634 
L 104.238541 11.781242 
L 106.306404 19.936613 
L 108.374268 31.161396 
L 110.442131 36.620927 
L 112.509994 37.671973 
L 114.577858 34.733125 
L 116.645721 38.525128 
L 118.713584 44.843681 
L 120.781448 47.790182 
L 122.849311 48.521256 
L 124.917174 45.441528 
L 126.985038 46.990593 
L 129.052901 43.152832 
L 131.120764 37.633497 
L 133.188628 31.427822 
L 135.256491 26.020943 
L 137.324354 26.603288 
L 139.392218 31.723193 
L 141.460081 31.068476 
L 143.527944 29.985249 
L 145.595808 32.427241 
L 147.663671 33.636106 
L 149.731534 34.602271 
L 151.799398 33.69348 
L 153.867261 38.530813 
L 155.935124 40.334262 
L 158.002988 41.698207 
L 160.070851 41.770404 
L 162.138715 45.387666 
L 164.206578 48.136425 
L 166.274441 50.619207 
L 168.342305 49.294666 
L 170.410168 49.3325 
L 172.478031 50.155526 
L 174.545895 48.34618 
L 176.613758 48.334313 
L 178.681621 47.358117 
L 180.749485 45.846696 
L 182.817348 45.873655 
L 184.885211 42.99651 
L 186.953075 41.173115 
L 189.020938 39.78498 
L 191.088801 39.013239 
L 193.156665 33.239591 
L 195.224528 33.377727 
L 197.292391 34.722477 
L 199.360255 42.622361 
L 201.428118 44.804661 
L 203.495981 41.964309 
L 205.563845 41.748349 
L 207.631708 45.710582 
L 209.699572 45.112484 
L 213.835298 39.242771 
L 215.903162 37.475509 
L 217.971025 37.232145 
L 220.038888 35.556033 
L 222.106752 39.58305 
L 224.174615 39.119051 
L 226.242478 41.134466 
L 228.310342 42.980328 
L 230.378205 46.545997 
L 232.446068 50.460765 
L 234.513932 50.166117 
L 236.581795 48.314081 
L 238.649658 48.210003 
L 240.717522 50.330329 
L 242.785385 49.676176 
L 244.853248 47.829799 
L 246.921112 49.630592 
L 248.988975 55.224881 
L 251.056838 59.078479 
L 253.124702 59.778725 
L 255.192565 74.710588 
L 257.260428 70.963433 
L 259.328292 69.295335 
L 261.396155 70.479595 
L 265.531882 70.140155 
L 267.599745 67.145681 
L 269.667609 67.942148 
L 271.735472 68.315027 
L 273.803335 67.664187 
L 275.871199 69.686989 
L 277.939062 66.755172 
L 280.006925 63.082124 
L 282.074789 64.020213 
L 284.142652 65.121355 
L 286.210515 67.931101 
L 288.278379 69.211597 
L 290.346242 70.83126 
L 292.414105 65.621057 
L 294.481969 57.244204 
L 296.549832 51.208267 
L 298.617695 50.248995 
L 300.685559 47.561219 
L 302.753422 46.726332 
L 304.821285 40.365026 
L 306.889149 38.519164 
L 308.957012 40.075326 
L 311.024876 41.991478 
L 313.092739 41.291426 
L 315.160602 43.415293 
L 317.228466 48.24953 
L 319.296329 50.288734 
L 321.364192 48.594956 
L 323.432056 50.866081 
L 327.567782 53.513365 
L 329.635646 64.108994 
L 331.703509 66.459893 
L 333.771372 67.597363 
L 335.839236 67.460176 
L 339.974962 54.759758 
L 342.042826 52.699111 
L 344.110689 47.274789 
L 346.178552 42.348421 
L 348.246416 35.86494 
L 350.314279 32.879464 
L 352.382142 34.563219 
L 354.450006 33.07637 
L 356.517869 34.669652 
L 358.585732 30.902582 
L 360.653596 30.742787 
L 362.721459 34.319295 
L 364.789323 38.197508 
L 366.857186 47.453622 
L 368.925049 52.224424 
L 370.992913 59.029932 
L 373.060776 59.814426 
L 375.128639 59.238355 
L 377.196503 56.61089 
L 379.264366 55.556904 
L 381.332229 55.23544 
L 383.400093 53.037773 
L 385.467956 52.564131 
L 387.535819 54.654762 
L 389.603683 55.760527 
L 391.671546 54.50758 
L 393.739409 55.161206 
L 395.807273 54.941859 
L 395.807273 54.941859 
" clip-path="url(#pe7731f82df)" style="fill: none; stroke: #ff0000; stroke-width: 1.5; stroke-linecap: square"/>
   </g>
   <g id="patch_3">
    <path d="M 54.92 78.268235 
L 54.92 0 
" style="fill: none; stroke: #000000; stroke-width: 0.8; stroke-linejoin: miter; stroke-linecap: square"/>
   </g>
   <g id="patch_4">
    <path d="M 412.04 78.268235 
L 412.04 0 
" style="fill: none; stroke: #000000; stroke-width: 0.8; stroke-linejoin: miter; stroke-linecap: square"/>
   </g>
   <g id="patch_5">
    <path d="M 54.92 78.268235 
L 412.04 78.268235 
" style="fill: none; stroke: #000000; stroke-width: 0.8; stroke-linejoin: miter; stroke-linecap: square"/>
   </g>
   <g id="patch_6">
    <path d="M 54.92 0 
L 412.04 0 
" style="fill: none; stroke: #000000; stroke-width: 0.8; stroke-linejoin: miter; stroke-linecap: square"/>
   </g>
   <g id="legend_1">
    <g id="patch_7">
     <path d="M 235.234688 63.978437 
L 400.14 63.978437 
Q 403.54 63.978437 403.54 60.578437 
L 403.54 11.9 
Q 403.54 8.5 400.14 8.5 
L 235.234688 8.5 
Q 231.834688 8.5 231.834688 11.9 
L 231.834688 60.578437 
Q 231.834688 63.978437 235.234688 63.978437 
z
" style="fill: #ffffff; opacity: 0.8; stroke: #cccccc; stroke-linejoin: miter"/>
    </g>
    <g id="line2d_5">
     <path d="M 238.634688 22.267344 
L 255.634688 22.267344 
L 272.634688 22.267344 
" style="fill: none; stroke: #008000; stroke-width: 1.5; stroke-linecap: square"/>
    </g>
    <g id="text_4">
     <!-- ground_truth -->
     <g transform="translate(286.234688 28.217344)scale(0.17 -0.17)">
      <defs>
       <path id="DejaVuSans-67" d="M 2906 1791 
Q 2906 2416 2648 2759 
Q 2391 3103 1925 3103 
Q 1463 3103 1205 2759 
Q 947 2416 947 1791 
Q 947 1169 1205 825 
Q 1463 481 1925 481 
Q 2391 481 2648 825 
Q 2906 1169 2906 1791 
z
M 3481 434 
Q 3481 -459 3084 -895 
Q 2688 -1331 1869 -1331 
Q 1566 -1331 1297 -1286 
Q 1028 -1241 775 -1147 
L 775 -588 
Q 1028 -725 1275 -790 
Q 1522 -856 1778 -856 
Q 2344 -856 2625 -561 
Q 2906 -266 2906 331 
L 2906 616 
Q 2728 306 2450 153 
Q 2172 0 1784 0 
Q 1141 0 747 490 
Q 353 981 353 1791 
Q 353 2603 747 3093 
Q 1141 3584 1784 3584 
Q 2172 3584 2450 3431 
Q 2728 3278 2906 2969 
L 2906 3500 
L 3481 3500 
L 3481 434 
z
" transform="scale(0.015625)"/>
       <path id="DejaVuSans-72" d="M 2631 2963 
Q 2534 3019 2420 3045 
Q 2306 3072 2169 3072 
Q 1681 3072 1420 2755 
Q 1159 2438 1159 1844 
L 1159 0 
L 581 0 
L 581 3500 
L 1159 3500 
L 1159 2956 
Q 1341 3275 1631 3429 
Q 1922 3584 2338 3584 
Q 2397 3584 2469 3576 
Q 2541 3569 2628 3553 
L 2631 2963 
z
" transform="scale(0.015625)"/>
       <path id="DejaVuSans-6f" d="M 1959 3097 
Q 1497 3097 1228 2736 
Q 959 2375 959 1747 
Q 959 1119 1226 758 
Q 1494 397 1959 397 
Q 2419 397 2687 759 
Q 2956 1122 2956 1747 
Q 2956 2369 2687 2733 
Q 2419 3097 1959 3097 
z
M 1959 3584 
Q 2709 3584 3137 3096 
Q 3566 2609 3566 1747 
Q 3566 888 3137 398 
Q 2709 -91 1959 -91 
Q 1206 -91 779 398 
Q 353 888 353 1747 
Q 353 2609 779 3096 
Q 1206 3584 1959 3584 
z
" transform="scale(0.015625)"/>
       <path id="DejaVuSans-75" d="M 544 1381 
L 544 3500 
L 1119 3500 
L 1119 1403 
Q 1119 906 1312 657 
Q 1506 409 1894 409 
Q 2359 409 2629 706 
Q 2900 1003 2900 1516 
L 2900 3500 
L 3475 3500 
L 3475 0 
L 2900 0 
L 2900 538 
Q 2691 219 2414 64 
Q 2138 -91 1772 -91 
Q 1169 -91 856 284 
Q 544 659 544 1381 
z
M 1991 3584 
L 1991 3584 
z
" transform="scale(0.015625)"/>
       <path id="DejaVuSans-6e" d="M 3513 2113 
L 3513 0 
L 2938 0 
L 2938 2094 
Q 2938 2591 2744 2837 
Q 2550 3084 2163 3084 
Q 1697 3084 1428 2787 
Q 1159 2491 1159 1978 
L 1159 0 
L 581 0 
L 581 3500 
L 1159 3500 
L 1159 2956 
Q 1366 3272 1645 3428 
Q 1925 3584 2291 3584 
Q 2894 3584 3203 3211 
Q 3513 2838 3513 2113 
z
" transform="scale(0.015625)"/>
       <path id="DejaVuSans-64" d="M 2906 2969 
L 2906 4863 
L 3481 4863 
L 3481 0 
L 2906 0 
L 2906 525 
Q 2725 213 2448 61 
Q 2172 -91 1784 -91 
Q 1150 -91 751 415 
Q 353 922 353 1747 
Q 353 2572 751 3078 
Q 1150 3584 1784 3584 
Q 2172 3584 2448 3432 
Q 2725 3281 2906 2969 
z
M 947 1747 
Q 947 1113 1208 752 
Q 1469 391 1925 391 
Q 2381 391 2643 752 
Q 2906 1113 2906 1747 
Q 2906 2381 2643 2742 
Q 2381 3103 1925 3103 
Q 1469 3103 1208 2742 
Q 947 2381 947 1747 
z
" transform="scale(0.015625)"/>
       <path id="DejaVuSans-5f" d="M 3263 -1063 
L 3263 -1509 
L -63 -1509 
L -63 -1063 
L 3263 -1063 
z
" transform="scale(0.015625)"/>
       <path id="DejaVuSans-74" d="M 1172 4494 
L 1172 3500 
L 2356 3500 
L 2356 3053 
L 1172 3053 
L 1172 1153 
Q 1172 725 1289 603 
Q 1406 481 1766 481 
L 2356 481 
L 2356 0 
L 1766 0 
Q 1100 0 847 248 
Q 594 497 594 1153 
L 594 3053 
L 172 3053 
L 172 3500 
L 594 3500 
L 594 4494 
L 1172 4494 
z
" transform="scale(0.015625)"/>
       <path id="DejaVuSans-68" d="M 3513 2113 
L 3513 0 
L 2938 0 
L 2938 2094 
Q 2938 2591 2744 2837 
Q 2550 3084 2163 3084 
Q 1697 3084 1428 2787 
Q 1159 2491 1159 1978 
L 1159 0 
L 581 0 
L 581 4863 
L 1159 4863 
L 1159 2956 
Q 1366 3272 1645 3428 
Q 1925 3584 2291 3584 
Q 2894 3584 3203 3211 
Q 3513 2838 3513 2113 
z
" transform="scale(0.015625)"/>
      </defs>
      <use xlink:href="#DejaVuSans-67"/>
      <use xlink:href="#DejaVuSans-72" x="63.476562"/>
      <use xlink:href="#DejaVuSans-6f" x="102.339844"/>
      <use xlink:href="#DejaVuSans-75" x="163.521484"/>
      <use xlink:href="#DejaVuSans-6e" x="226.900391"/>
      <use xlink:href="#DejaVuSans-64" x="290.279297"/>
      <use xlink:href="#DejaVuSans-5f" x="353.755859"/>
      <use xlink:href="#DejaVuSans-74" x="403.755859"/>
      <use xlink:href="#DejaVuSans-72" x="442.964844"/>
      <use xlink:href="#DejaVuSans-75" x="484.078125"/>
      <use xlink:href="#DejaVuSans-74" x="547.457031"/>
      <use xlink:href="#DejaVuSans-68" x="586.666016"/>
     </g>
    </g>
    <g id="line2d_6">
     <path d="M 238.634688 47.692969 
L 255.634688 47.692969 
L 272.634688 47.692969 
" style="fill: none; stroke: #ff0000; stroke-width: 1.5; stroke-linecap: square"/>
    </g>
    <g id="text_5">
     <!-- estimated -->
     <g transform="translate(286.234688 53.642969)scale(0.17 -0.17)">
      <defs>
       <path id="DejaVuSans-65" d="M 3597 1894 
L 3597 1613 
L 953 1613 
Q 991 1019 1311 708 
Q 1631 397 2203 397 
Q 2534 397 2845 478 
Q 3156 559 3463 722 
L 3463 178 
Q 3153 47 2828 -22 
Q 2503 -91 2169 -91 
Q 1331 -91 842 396 
Q 353 884 353 1716 
Q 353 2575 817 3079 
Q 1281 3584 2069 3584 
Q 2775 3584 3186 3129 
Q 3597 2675 3597 1894 
z
M 3022 2063 
Q 3016 2534 2758 2815 
Q 2500 3097 2075 3097 
Q 1594 3097 1305 2825 
Q 1016 2553 972 2059 
L 3022 2063 
z
" transform="scale(0.015625)"/>
       <path id="DejaVuSans-73" d="M 2834 3397 
L 2834 2853 
Q 2591 2978 2328 3040 
Q 2066 3103 1784 3103 
Q 1356 3103 1142 2972 
Q 928 2841 928 2578 
Q 928 2378 1081 2264 
Q 1234 2150 1697 2047 
L 1894 2003 
Q 2506 1872 2764 1633 
Q 3022 1394 3022 966 
Q 3022 478 2636 193 
Q 2250 -91 1575 -91 
Q 1294 -91 989 -36 
Q 684 19 347 128 
L 347 722 
Q 666 556 975 473 
Q 1284 391 1588 391 
Q 1994 391 2212 530 
Q 2431 669 2431 922 
Q 2431 1156 2273 1281 
Q 2116 1406 1581 1522 
L 1381 1569 
Q 847 1681 609 1914 
Q 372 2147 372 2553 
Q 372 3047 722 3315 
Q 1072 3584 1716 3584 
Q 2034 3584 2315 3537 
Q 2597 3491 2834 3397 
z
" transform="scale(0.015625)"/>
       <path id="DejaVuSans-69" d="M 603 3500 
L 1178 3500 
L 1178 0 
L 603 0 
L 603 3500 
z
M 603 4863 
L 1178 4863 
L 1178 4134 
L 603 4134 
L 603 4863 
z
" transform="scale(0.015625)"/>
       <path id="DejaVuSans-6d" d="M 3328 2828 
Q 3544 3216 3844 3400 
Q 4144 3584 4550 3584 
Q 5097 3584 5394 3201 
Q 5691 2819 5691 2113 
L 5691 0 
L 5113 0 
L 5113 2094 
Q 5113 2597 4934 2840 
Q 4756 3084 4391 3084 
Q 3944 3084 3684 2787 
Q 3425 2491 3425 1978 
L 3425 0 
L 2847 0 
L 2847 2094 
Q 2847 2600 2669 2842 
Q 2491 3084 2119 3084 
Q 1678 3084 1418 2786 
Q 1159 2488 1159 1978 
L 1159 0 
L 581 0 
L 581 3500 
L 1159 3500 
L 1159 2956 
Q 1356 3278 1631 3431 
Q 1906 3584 2284 3584 
Q 2666 3584 2933 3390 
Q 3200 3197 3328 2828 
z
" transform="scale(0.015625)"/>
      </defs>
      <use xlink:href="#DejaVuSans-65"/>
      <use xlink:href="#DejaVuSans-73" x="61.523438"/>
      <use xlink:href="#DejaVuSans-74" x="113.623047"/>
      <use xlink:href="#DejaVuSans-69" x="152.832031"/>
      <use xlink:href="#DejaVuSans-6d" x="180.615234"/>
      <use xlink:href="#DejaVuSans-61" x="278.027344"/>
      <use xlink:href="#DejaVuSans-74" x="339.306641"/>
      <use xlink:href="#DejaVuSans-65" x="378.515625"/>
      <use xlink:href="#DejaVuSans-64" x="440.039062"/>
     </g>
    </g>
   </g>
  </g>
  <g id="axes_2">
   <g id="patch_8">
    <path d="M 54.92 172.190118 
L 412.04 172.190118 
L 412.04 93.921882 
L 54.92 93.921882 
z
" style="fill: #ffffff"/>
   </g>
   <g id="matplotlib.axis_3"/>
   <g id="matplotlib.axis_4">
    <g id="ytick_3">
     <g id="line2d_7">
      <g>
       <use xlink:href="#m632b34e7e0" x="54.92" y="144.123662" style="stroke: #000000; stroke-width: 0.8"/>
      </g>
     </g>
     <g id="text_6">
      <!-- 0 -->
      <g transform="translate(41.5575 147.922881)scale(0.1 -0.1)">
       <use xlink:href="#DejaVuSans-30"/>
      </g>
     </g>
    </g>
    <g id="ytick_4">
     <g id="line2d_8">
      <g>
       <use xlink:href="#m632b34e7e0" x="54.92" y="113.128099" style="stroke: #000000; stroke-width: 0.8"/>
      </g>
     </g>
     <g id="text_7">
      <!-- 10 -->
      <g transform="translate(35.195 116.927318)scale(0.1 -0.1)">
       <use xlink:href="#DejaVuSans-31"/>
       <use xlink:href="#DejaVuSans-30" x="63.623047"/>
      </g>
     </g>
    </g>
    <g id="text_8">
     <!-- pitch [°] -->
     <g transform="translate(27.659531 167.790453)rotate(-90)scale(0.17 -0.17)">
      <defs>
       <path id="DejaVuSans-70" d="M 1159 525 
L 1159 -1331 
L 581 -1331 
L 581 3500 
L 1159 3500 
L 1159 2969 
Q 1341 3281 1617 3432 
Q 1894 3584 2278 3584 
Q 2916 3584 3314 3078 
Q 3713 2572 3713 1747 
Q 3713 922 3314 415 
Q 2916 -91 2278 -91 
Q 1894 -91 1617 61 
Q 1341 213 1159 525 
z
M 3116 1747 
Q 3116 2381 2855 2742 
Q 2594 3103 2138 3103 
Q 1681 3103 1420 2742 
Q 1159 2381 1159 1747 
Q 1159 1113 1420 752 
Q 1681 391 2138 391 
Q 2594 391 2855 752 
Q 3116 1113 3116 1747 
z
" transform="scale(0.015625)"/>
       <path id="DejaVuSans-63" d="M 3122 3366 
L 3122 2828 
Q 2878 2963 2633 3030 
Q 2388 3097 2138 3097 
Q 1578 3097 1268 2742 
Q 959 2388 959 1747 
Q 959 1106 1268 751 
Q 1578 397 2138 397 
Q 2388 397 2633 464 
Q 2878 531 3122 666 
L 3122 134 
Q 2881 22 2623 -34 
Q 2366 -91 2075 -91 
Q 1284 -91 818 406 
Q 353 903 353 1747 
Q 353 2603 823 3093 
Q 1294 3584 2113 3584 
Q 2378 3584 2631 3529 
Q 2884 3475 3122 3366 
z
" transform="scale(0.015625)"/>
      </defs>
      <use xlink:href="#DejaVuSans-70"/>
      <use xlink:href="#DejaVuSans-69" x="63.476562"/>
      <use xlink:href="#DejaVuSans-74" x="91.259766"/>
      <use xlink:href="#DejaVuSans-63" x="130.46875"/>
      <use xlink:href="#DejaVuSans-68" x="185.449219"/>
      <use xlink:href="#DejaVuSans-20" x="248.828125"/>
      <use xlink:href="#DejaVuSans-5b" x="280.615234"/>
      <use xlink:href="#DejaVuSans-b0" x="319.628906"/>
      <use xlink:href="#DejaVuSans-5d" x="369.628906"/>
     </g>
    </g>
   </g>
   <g id="line2d_9">
    <path d="M 71.152727 145.937136 
L 73.220591 142.147604 
L 75.288454 142.959825 
L 77.356317 142.76785 
L 79.424181 145.21915 
L 81.492044 139.514068 
L 83.559907 133.438694 
L 85.627771 133.233356 
L 87.695634 130.037375 
L 89.763497 132.870739 
L 91.831361 132.622762 
L 93.899224 139.630893 
L 95.967087 144.191987 
L 98.034951 144.0771 
L 100.102814 148.355359 
L 102.170677 151.382048 
L 104.238541 149.674136 
L 106.306404 151.334946 
L 108.374268 146.148711 
L 110.442131 142.31035 
L 112.509994 140.939297 
L 114.577858 144.183828 
L 116.645721 144.255204 
L 118.713584 141.447081 
L 120.781448 140.57519 
L 122.849311 143.597724 
L 124.917174 140.891687 
L 126.985038 137.599432 
L 129.052901 144.728659 
L 131.120764 147.469843 
L 133.188628 152.251777 
L 135.256491 154.702878 
L 137.324354 153.563203 
L 139.392218 154.163946 
L 141.460081 159.522375 
L 143.527944 162.007002 
L 145.595808 160.046869 
L 147.663671 155.420043 
L 149.731534 158.987184 
L 151.799398 150.392767 
L 153.867261 149.336361 
L 155.935124 140.371043 
L 158.002988 142.179076 
L 160.070851 140.861479 
L 162.138715 139.702907 
L 164.206578 144.400062 
L 166.274441 145.306924 
L 170.410168 139.496258 
L 172.478031 139.802203 
L 174.545895 139.010307 
L 176.613758 140.448619 
L 178.681621 143.051062 
L 180.749485 140.379996 
L 182.817348 145.452397 
L 184.885211 144.024231 
L 186.953075 152.966585 
L 189.020938 151.026391 
L 191.088801 167.10873 
L 193.156665 168.632471 
L 195.224528 156.796406 
L 197.292391 153.827699 
L 199.360255 152.426733 
L 201.428118 149.331742 
L 203.495981 147.588941 
L 205.563845 139.014747 
L 207.631708 136.647258 
L 209.699572 142.009135 
L 211.767435 149.034632 
L 213.835298 153.486931 
L 215.903162 153.293577 
L 217.971025 151.289782 
L 220.038888 147.331811 
L 222.106752 142.265676 
L 224.174615 143.445594 
L 226.242478 145.059128 
L 228.310342 147.007156 
L 230.378205 145.680712 
L 232.446068 140.100322 
L 234.513932 134.924868 
L 236.581795 135.316476 
L 238.649658 138.874792 
L 240.717522 143.670238 
L 242.785385 147.405737 
L 244.853248 145.954464 
L 246.921112 149.479831 
L 248.988975 152.180325 
L 251.056838 148.018302 
L 253.124702 141.16385 
L 255.192565 144.00703 
L 257.260428 141.361999 
L 259.328292 137.185074 
L 261.396155 134.804844 
L 263.464019 136.822763 
L 265.531882 141.82015 
L 267.599745 143.23679 
L 269.667609 140.637477 
L 271.735472 144.362782 
L 273.803335 143.236582 
L 275.871199 146.704495 
L 277.939062 142.211376 
L 280.006925 139.472232 
L 282.074789 140.525116 
L 284.142652 142.342675 
L 286.210515 139.326061 
L 288.278379 141.346379 
L 290.346242 138.729557 
L 292.414105 140.813506 
L 294.481969 137.419061 
L 296.549832 132.336328 
L 298.617695 132.405441 
L 300.685559 134.635153 
L 302.753422 134.519797 
L 304.821285 133.318033 
L 306.889149 133.680993 
L 308.957012 137.918484 
L 311.024876 134.102345 
L 313.092739 134.714719 
L 315.160602 141.112099 
L 317.228466 142.458931 
L 319.296329 139.173825 
L 321.364192 136.676179 
L 323.432056 139.774983 
L 325.499919 137.422916 
L 327.567782 138.747127 
L 329.635646 141.091009 
L 331.703509 139.453837 
L 333.771372 140.719171 
L 335.839236 138.76168 
L 337.907099 134.980494 
L 339.974962 134.70169 
L 342.042826 131.457519 
L 344.110689 132.664745 
L 348.246416 133.173591 
L 350.314279 131.721699 
L 352.382142 132.46534 
L 354.450006 136.697156 
L 356.517869 143.880023 
L 358.585732 141.145253 
L 360.653596 142.577552 
L 362.721459 134.355874 
L 364.789323 133.717572 
L 366.857186 138.027931 
L 370.992913 135.64893 
L 373.060776 136.186687 
L 375.128639 135.419044 
L 377.196503 132.790774 
L 379.264366 132.722287 
L 381.332229 132.213991 
L 383.400093 131.30751 
L 385.467956 131.569237 
L 387.535819 130.928898 
L 389.603683 129.467283 
L 391.671546 130.11091 
L 393.739409 131.42299 
L 395.807273 131.341849 
L 395.807273 131.341849 
" clip-path="url(#p851c053529)" style="fill: none; stroke: #008000; stroke-width: 1.5; stroke-linecap: square"/>
   </g>
   <g id="line2d_10">
    <path d="M 71.152727 145.937058 
L 73.220591 139.636767 
L 75.288454 140.5732 
L 77.356317 139.138428 
L 79.424181 148.060929 
L 81.492044 142.256487 
L 83.559907 139.097094 
L 85.627771 147.837547 
L 87.695634 144.887028 
L 89.763497 145.254051 
L 91.831361 144.916713 
L 93.899224 154.830783 
L 95.967087 151.311481 
L 98.034951 153.868016 
L 100.102814 157.317837 
L 102.170677 164.332056 
L 104.238541 160.504604 
L 106.306404 163.119734 
L 108.374268 159.709149 
L 110.442131 154.912277 
L 112.509994 154.373523 
L 114.577858 158.847024 
L 116.645721 159.131317 
L 118.713584 150.623478 
L 120.781448 148.53808 
L 122.849311 151.108128 
L 124.917174 147.902564 
L 126.985038 137.888253 
L 129.052901 140.084708 
L 131.120764 134.220872 
L 133.188628 139.688262 
L 135.256491 147.156257 
L 137.324354 144.232341 
L 139.392218 139.278809 
L 141.460081 143.511255 
L 143.527944 149.03715 
L 145.595808 149.107093 
L 147.663671 146.621112 
L 149.731534 157.184828 
L 151.799398 153.651329 
L 153.867261 151.930475 
L 155.935124 135.92313 
L 158.002988 137.321246 
L 160.070851 132.106577 
L 162.138715 129.450257 
L 164.206578 129.005668 
L 166.274441 131.796851 
L 170.410168 122.214372 
L 174.545895 118.061419 
L 176.613758 119.373357 
L 178.681621 120.541126 
L 180.749485 119.657176 
L 182.817348 129.557843 
L 184.885211 129.860609 
L 186.953075 141.847312 
L 189.020938 139.938212 
L 191.088801 156.896299 
L 193.156665 156.384182 
L 195.224528 148.423776 
L 197.292391 146.985946 
L 199.360255 143.038956 
L 201.428118 141.048528 
L 205.563845 126.252124 
L 207.631708 109.683648 
L 209.699572 111.003946 
L 211.767435 117.538401 
L 213.835298 121.123674 
L 215.903162 123.379748 
L 217.971025 118.099439 
L 220.038888 114.119578 
L 222.106752 108.909337 
L 224.174615 105.317929 
L 226.242478 107.016943 
L 228.310342 110.328449 
L 230.378205 112.171535 
L 232.446068 116.575901 
L 234.513932 122.619924 
L 236.581795 134.07043 
L 238.649658 141.254876 
L 240.717522 152.977237 
L 242.785385 161.635708 
L 244.853248 158.873966 
L 246.921112 160.258728 
L 248.988975 157.108609 
L 251.056838 129.435949 
L 253.124702 115.101056 
L 255.192565 109.5603 
L 257.260428 109.002341 
L 259.328292 105.559425 
L 261.396155 99.830489 
L 263.464019 97.479529 
L 265.531882 103.084396 
L 267.599745 106.912263 
L 269.667609 104.619724 
L 271.735472 106.501129 
L 273.803335 105.146703 
L 275.871199 108.209045 
L 277.939062 104.910895 
L 280.006925 103.359803 
L 282.074789 105.953588 
L 284.142652 111.608389 
L 286.210515 109.596375 
L 288.278379 111.370807 
L 290.346242 109.875684 
L 292.414105 113.173625 
L 294.481969 110.673137 
L 296.549832 104.068294 
L 298.617695 104.057097 
L 300.685559 104.706701 
L 302.753422 102.699999 
L 304.821285 105.161011 
L 306.889149 106.312877 
L 308.957012 113.008332 
L 311.024876 109.599859 
L 313.092739 108.555173 
L 315.160602 113.103817 
L 317.228466 113.098309 
L 319.296329 107.965688 
L 321.364192 111.935776 
L 323.432056 114.96052 
L 325.499919 115.617021 
L 327.567782 112.204447 
L 329.635646 114.112923 
L 331.703509 118.071791 
L 333.771372 118.543736 
L 335.839236 116.399145 
L 337.907099 110.835948 
L 339.974962 109.251779 
L 342.042826 102.487359 
L 344.110689 103.054818 
L 346.178552 103.805947 
L 348.246416 106.696682 
L 350.314279 114.243621 
L 352.382142 114.425462 
L 354.450006 118.347924 
L 356.517869 124.736925 
L 358.585732 132.916034 
L 360.653596 134.79092 
L 362.721459 131.709973 
L 364.789323 131.1169 
L 366.857186 132.081094 
L 368.925049 130.360648 
L 370.992913 129.394935 
L 373.060776 131.431615 
L 375.128639 130.507975 
L 377.196503 132.452763 
L 379.264366 131.81665 
L 381.332229 130.698769 
L 383.400093 130.065148 
L 385.467956 130.549686 
L 387.535819 123.136186 
L 389.603683 122.782323 
L 391.671546 123.471376 
L 393.739409 126.681217 
L 395.807273 125.922409 
L 395.807273 125.922409 
" clip-path="url(#p851c053529)" style="fill: none; stroke: #ff0000; stroke-width: 1.5; stroke-linecap: square"/>
   </g>
   <g id="patch_9">
    <path d="M 54.92 172.190118 
L 54.92 93.921882 
" style="fill: none; stroke: #000000; stroke-width: 0.8; stroke-linejoin: miter; stroke-linecap: square"/>
   </g>
   <g id="patch_10">
    <path d="M 412.04 172.190118 
L 412.04 93.921882 
" style="fill: none; stroke: #000000; stroke-width: 0.8; stroke-linejoin: miter; stroke-linecap: square"/>
   </g>
   <g id="patch_11">
    <path d="M 54.92 172.190118 
L 412.04 172.190118 
" style="fill: none; stroke: #000000; stroke-width: 0.8; stroke-linejoin: miter; stroke-linecap: square"/>
   </g>
   <g id="patch_12">
    <path d="M 54.92 93.921882 
L 412.04 93.921882 
" style="fill: none; stroke: #000000; stroke-width: 0.8; stroke-linejoin: miter; stroke-linecap: square"/>
   </g>
  </g>
  <g id="axes_3">
   <g id="patch_13">
    <path d="M 54.92 266.112 
L 412.04 266.112 
L 412.04 187.843765 
L 54.92 187.843765 
z
" style="fill: #ffffff"/>
   </g>
   <g id="matplotlib.axis_5"/>
   <g id="matplotlib.axis_6">
    <g id="ytick_5">
     <g id="line2d_11">
      <g>
       <use xlink:href="#m632b34e7e0" x="54.92" y="231.359411" style="stroke: #000000; stroke-width: 0.8"/>
      </g>
     </g>
     <g id="text_9">
      <!-- 80 -->
      <g transform="translate(35.195 235.158629)scale(0.1 -0.1)">
       <defs>
        <path id="DejaVuSans-38" d="M 2034 2216 
Q 1584 2216 1326 1975 
Q 1069 1734 1069 1313 
Q 1069 891 1326 650 
Q 1584 409 2034 409 
Q 2484 409 2743 651 
Q 3003 894 3003 1313 
Q 3003 1734 2745 1975 
Q 2488 2216 2034 2216 
z
M 1403 2484 
Q 997 2584 770 2862 
Q 544 3141 544 3541 
Q 544 4100 942 4425 
Q 1341 4750 2034 4750 
Q 2731 4750 3128 4425 
Q 3525 4100 3525 3541 
Q 3525 3141 3298 2862 
Q 3072 2584 2669 2484 
Q 3125 2378 3379 2068 
Q 3634 1759 3634 1313 
Q 3634 634 3220 271 
Q 2806 -91 2034 -91 
Q 1263 -91 848 271 
Q 434 634 434 1313 
Q 434 1759 690 2068 
Q 947 2378 1403 2484 
z
M 1172 3481 
Q 1172 3119 1398 2916 
Q 1625 2713 2034 2713 
Q 2441 2713 2670 2916 
Q 2900 3119 2900 3481 
Q 2900 3844 2670 4047 
Q 2441 4250 2034 4250 
Q 1625 4250 1398 4047 
Q 1172 3844 1172 3481 
z
" transform="scale(0.015625)"/>
       </defs>
       <use xlink:href="#DejaVuSans-38"/>
       <use xlink:href="#DejaVuSans-30" x="63.623047"/>
      </g>
     </g>
    </g>
    <g id="ytick_6">
     <g id="line2d_12">
      <g>
       <use xlink:href="#m632b34e7e0" x="54.92" y="191.590123" style="stroke: #000000; stroke-width: 0.8"/>
      </g>
     </g>
     <g id="text_10">
      <!-- 100 -->
      <g transform="translate(28.8325 195.389342)scale(0.1 -0.1)">
       <use xlink:href="#DejaVuSans-31"/>
       <use xlink:href="#DejaVuSans-30" x="63.623047"/>
       <use xlink:href="#DejaVuSans-30" x="127.246094"/>
      </g>
     </g>
    </g>
    <g id="text_11">
     <!-- roll [°] -->
     <g transform="translate(21.297031 253.788742)rotate(-90)scale(0.17 -0.17)">
      <defs>
       <path id="DejaVuSans-6c" d="M 603 4863 
L 1178 4863 
L 1178 0 
L 603 0 
L 603 4863 
z
" transform="scale(0.015625)"/>
      </defs>
      <use xlink:href="#DejaVuSans-72"/>
      <use xlink:href="#DejaVuSans-6f" x="38.863281"/>
      <use xlink:href="#DejaVuSans-6c" x="100.044922"/>
      <use xlink:href="#DejaVuSans-6c" x="127.828125"/>
      <use xlink:href="#DejaVuSans-20" x="155.611328"/>
      <use xlink:href="#DejaVuSans-5b" x="187.398438"/>
      <use xlink:href="#DejaVuSans-b0" x="226.412109"/>
      <use xlink:href="#DejaVuSans-5d" x="276.412109"/>
     </g>
    </g>
   </g>
   <g id="line2d_13">
    <path d="M 71.152727 220.077341 
L 73.220591 217.989155 
L 75.288454 216.821862 
L 77.356317 218.14096 
L 79.424181 217.152301 
L 81.492044 217.167407 
L 83.559907 216.070841 
L 85.627771 214.470236 
L 87.695634 212.543261 
L 89.763497 210.835112 
L 91.831361 208.356708 
L 93.899224 210.580248 
L 95.967087 213.520683 
L 98.034951 214.545642 
L 100.102814 219.127456 
L 102.170677 226.847972 
L 104.238541 227.634518 
L 106.306404 224.480941 
L 108.374268 217.923413 
L 110.442131 214.733712 
L 112.509994 215.927268 
L 114.577858 219.983994 
L 116.645721 223.564577 
L 118.713584 223.931133 
L 120.781448 223.184641 
L 122.849311 220.816869 
L 124.917174 216.650981 
L 126.985038 212.813329 
L 129.052901 211.758365 
L 131.120764 212.276785 
L 135.256491 219.089574 
L 137.324354 220.430967 
L 139.392218 218.888515 
L 141.460081 223.311418 
L 143.527944 227.428878 
L 145.595808 228.56159 
L 147.663671 233.066904 
L 149.731534 239.454947 
L 151.799398 239.206781 
L 153.867261 234.957583 
L 158.002988 224.830521 
L 160.070851 223.119828 
L 162.138715 220.687135 
L 164.206578 214.554481 
L 168.342305 205.487019 
L 170.410168 197.309958 
L 172.478031 193.183859 
L 174.545895 191.401412 
L 176.613758 193.486077 
L 178.681621 198.248779 
L 180.749485 199.711959 
L 182.817348 202.586701 
L 184.885211 211.291531 
L 186.953075 222.280506 
L 189.020938 227.446808 
L 191.088801 231.854991 
L 193.156665 233.264295 
L 195.224528 235.645909 
L 197.292391 241.564996 
L 199.360255 241.319755 
L 201.428118 237.586679 
L 203.495981 233.308219 
L 205.563845 227.65189 
L 207.631708 220.108557 
L 209.699572 216.643929 
L 211.767435 215.256223 
L 213.835298 213.21471 
L 215.903162 208.579475 
L 217.971025 202.802017 
L 220.038888 197.666454 
L 222.106752 196.081086 
L 224.174615 194.101479 
L 226.242478 194.480469 
L 228.310342 199.190888 
L 232.446068 210.843828 
L 234.513932 220.199184 
L 236.581795 231.50197 
L 238.649658 241.326041 
L 240.717522 249.757248 
L 242.785385 256.324843 
L 244.853248 258.164621 
L 246.921112 247.688864 
L 248.988975 235.993078 
L 251.056838 220.650227 
L 253.124702 211.601676 
L 255.192565 210.620443 
L 257.260428 210.520116 
L 259.328292 209.408267 
L 263.464019 211.27602 
L 265.531882 212.914228 
L 267.599745 212.493909 
L 269.667609 212.872556 
L 271.735472 212.027597 
L 273.803335 210.956834 
L 275.871199 209.578831 
L 277.939062 207.74217 
L 280.006925 207.597124 
L 282.074789 209.192349 
L 284.142652 211.903521 
L 286.210515 214.2813 
L 288.278379 216.279502 
L 290.346242 216.762068 
L 296.549832 213.633341 
L 298.617695 212.269241 
L 300.685559 211.153103 
L 302.753422 210.255019 
L 304.821285 210.161996 
L 306.889149 211.35695 
L 308.957012 212.729855 
L 311.024876 215.231093 
L 313.092739 213.585693 
L 315.160602 210.507579 
L 317.228466 207.067736 
L 319.296329 204.32677 
L 321.364192 204.04859 
L 323.432056 205.898424 
L 325.499919 207.578131 
L 327.567782 210.030136 
L 329.635646 214.678279 
L 331.703509 217.836619 
L 333.771372 220.347574 
L 335.839236 220.930615 
L 337.907099 219.555613 
L 339.974962 217.242803 
L 342.042826 214.096669 
L 346.178552 208.449914 
L 348.246416 207.316249 
L 350.314279 207.866759 
L 352.382142 208.734968 
L 354.450006 208.404583 
L 356.517869 211.192969 
L 358.585732 210.653959 
L 360.653596 209.713887 
L 362.721459 206.869395 
L 364.789323 207.619516 
L 366.857186 209.034277 
L 368.925049 210.070911 
L 370.992913 213.589233 
L 373.060776 216.19276 
L 375.128639 216.753329 
L 377.196503 215.255703 
L 381.332229 212.73998 
L 385.467956 212.040054 
L 387.535819 212.006884 
L 389.603683 212.492838 
L 391.671546 211.807156 
L 393.739409 211.371931 
L 395.807273 210.762002 
L 395.807273 210.762002 
" clip-path="url(#pbc79237716)" style="fill: none; stroke: #008000; stroke-width: 1.5; stroke-linecap: square"/>
   </g>
   <g id="line2d_14">
    <path d="M 71.152727 220.077335 
L 73.220591 217.646926 
L 75.288454 215.960444 
L 77.356317 216.935937 
L 79.424181 219.340855 
L 81.492044 218.468164 
L 83.559907 217.723276 
L 85.627771 220.126798 
L 87.695634 220.013659 
L 89.763497 218.11244 
L 91.831361 216.418426 
L 95.967087 221.397865 
L 98.034951 223.18008 
L 100.102814 226.17348 
L 102.170677 233.150567 
L 104.238541 234.80111 
L 106.306404 231.818784 
L 108.374268 225.979331 
L 110.442131 223.235904 
L 112.509994 223.527464 
L 114.577858 227.898131 
L 116.645721 230.553972 
L 118.713584 230.974758 
L 120.781448 231.705794 
L 122.849311 227.620121 
L 124.917174 224.781738 
L 126.985038 220.040427 
L 129.052901 219.171921 
L 131.120764 219.894784 
L 133.188628 222.800751 
L 135.256491 228.528041 
L 137.324354 230.701255 
L 139.392218 228.003748 
L 141.460081 229.100227 
L 143.527944 235.0824 
L 145.595808 236.474172 
L 147.663671 241.501395 
L 149.731534 247.376268 
L 151.799398 249.256508 
L 153.867261 243.565378 
L 158.002988 230.665658 
L 160.070851 231.40411 
L 162.138715 228.18866 
L 164.206578 221.41585 
L 166.274441 217.543197 
L 168.342305 212.473453 
L 170.410168 203.39363 
L 172.478031 197.610928 
L 174.545895 193.655724 
L 176.613758 193.910113 
L 178.681621 199.304531 
L 180.749485 200.977211 
L 182.817348 202.453195 
L 184.885211 211.71129 
L 186.953075 223.717294 
L 189.020938 225.67402 
L 191.088801 232.320133 
L 193.156665 232.799244 
L 195.224528 235.356801 
L 197.292391 240.772824 
L 199.360255 241.67821 
L 201.428118 239.606631 
L 205.563845 231.395585 
L 209.699572 220.801116 
L 211.767435 218.088195 
L 213.835298 216.815104 
L 215.903162 211.410321 
L 217.971025 204.294503 
L 220.038888 197.624801 
L 222.106752 196.813877 
L 224.174615 194.308417 
L 226.242478 194.381646 
L 228.310342 198.559529 
L 230.378205 208.727487 
L 232.446068 210.607113 
L 234.513932 220.375818 
L 236.581795 227.503217 
L 238.649658 236.622629 
L 240.717522 251.256326 
L 242.785385 260.200932 
L 244.853248 262.554353 
L 246.921112 254.880503 
L 248.988975 250.573423 
L 251.056838 237.03143 
L 253.124702 227.74655 
L 255.192565 229.996642 
L 257.260428 230.20244 
L 259.328292 229.798071 
L 261.396155 232.262062 
L 263.464019 233.150542 
L 265.531882 233.835344 
L 267.599745 234.000101 
L 269.667609 235.738145 
L 271.735472 234.382532 
L 273.803335 232.732719 
L 275.871199 230.70969 
L 277.939062 230.266286 
L 280.006925 230.782992 
L 284.142652 232.250677 
L 286.210515 236.082888 
L 288.278379 236.368455 
L 290.346242 237.655548 
L 292.414105 235.392819 
L 294.481969 235.742221 
L 296.549832 233.756842 
L 298.617695 232.175448 
L 300.685559 231.340417 
L 302.753422 230.063145 
L 304.821285 228.484244 
L 311.024876 233.395294 
L 313.092739 231.873912 
L 315.160602 228.215635 
L 317.228466 225.594968 
L 319.296329 223.431528 
L 321.364192 222.389908 
L 323.432056 222.579019 
L 325.499919 224.601564 
L 327.567782 225.564474 
L 329.635646 230.175687 
L 331.703509 233.870763 
L 333.771372 236.045473 
L 335.839236 237.418516 
L 337.907099 234.611341 
L 339.974962 229.237362 
L 342.042826 226.672457 
L 344.110689 221.893157 
L 346.178552 217.743693 
L 348.246416 215.984304 
L 350.314279 215.780101 
L 352.382142 217.402888 
L 354.450006 216.616453 
L 356.517869 219.680472 
L 358.585732 218.419351 
L 360.653596 216.901037 
L 362.721459 213.559724 
L 364.789323 214.124148 
L 366.857186 215.204004 
L 368.925049 215.819 
L 370.992913 218.080868 
L 373.060776 221.442149 
L 375.128639 221.720747 
L 377.196503 219.67832 
L 379.264366 219.050911 
L 381.332229 217.572806 
L 383.400093 216.925578 
L 385.467956 216.897725 
L 387.535819 217.101793 
L 389.603683 218.288271 
L 391.671546 217.810811 
L 393.739409 217.050753 
L 395.807273 216.552591 
L 395.807273 216.552591 
" clip-path="url(#pbc79237716)" style="fill: none; stroke: #ff0000; stroke-width: 1.5; stroke-linecap: square"/>
   </g>
   <g id="patch_14">
    <path d="M 54.92 266.112 
L 54.92 187.843765 
" style="fill: none; stroke: #000000; stroke-width: 0.8; stroke-linejoin: miter; stroke-linecap: square"/>
   </g>
   <g id="patch_15">
    <path d="M 412.04 266.112 
L 412.04 187.843765 
" style="fill: none; stroke: #000000; stroke-width: 0.8; stroke-linejoin: miter; stroke-linecap: square"/>
   </g>
   <g id="patch_16">
    <path d="M 54.92 266.112 
L 412.04 266.112 
" style="fill: none; stroke: #000000; stroke-width: 0.8; stroke-linejoin: miter; stroke-linecap: square"/>
   </g>
   <g id="patch_17">
    <path d="M 54.92 187.843765 
L 412.04 187.843765 
" style="fill: none; stroke: #000000; stroke-width: 0.8; stroke-linejoin: miter; stroke-linecap: square"/>
   </g>
  </g>
 </g>
 <defs>
  <clipPath id="pe7731f82df">
   <rect x="54.92" y="0" width="357.12" height="78.268235"/>
  </clipPath>
  <clipPath id="p851c053529">
   <rect x="54.92" y="93.921882" width="357.12" height="78.268235"/>
  </clipPath>
  <clipPath id="pbc79237716">
   <rect x="54.92" y="187.843765" width="357.12" height="78.268235"/>
  </clipPath>
 </defs>
</svg>
