<?xml version="1.0" encoding="utf-8" standalone="no"?>
<!DOCTYPE svg PUBLIC "-//W3C//DTD SVG 1.1//EN"
  "http://www.w3.org/Graphics/SVG/1.1/DTD/svg11.dtd">
<svg xmlns:xlink="http://www.w3.org/1999/xlink" width="357.656018pt" height="351.438563pt" viewBox="0 0 357.656018 351.438563" xmlns="http://www.w3.org/2000/svg" version="1.1">
 <metadata>
  <rdf:RDF xmlns:dc="http://purl.org/dc/elements/1.1/" xmlns:cc="http://creativecommons.org/ns#" xmlns:rdf="http://www.w3.org/1999/02/22-rdf-syntax-ns#">
   <cc:Work>
    <dc:type rdf:resource="http://purl.org/dc/dcmitype/StillImage"/>
    <dc:date>2022-02-10T00:54:54.522857</dc:date>
    <dc:format>image/svg+xml</dc:format>
    <dc:creator>
     <cc:Agent>
      <dc:title>Matplotlib v3.5.1, https://matplotlib.org/</dc:title>
     </cc:Agent>
    </dc:creator>
   </cc:Work>
  </rdf:RDF>
 </metadata>
 <defs>
  <style type="text/css">*{stroke-linejoin: round; stroke-linecap: butt}</style>
 </defs>
 <g id="figure_1">
  <g id="patch_1">
   <path d="M 0 351.438563 
L 357.656018 351.438563 
L 357.656018 0 
L 0 0 
z
" style="fill: #ffffff"/>
  </g>
  <g id="patch_2">
   <path d="M 0 345.6 
L 345.6 345.6 
L 345.6 -0 
L 0 -0 
z
" style="fill: #ffffff"/>
  </g>
  <g id="pane3d_1">
   <g id="patch_3">
    <path d="M 43.64011 276.021761 
L 104.335521 97.213163 
L 98.66794 8.134987 
L 32.634775 196.200845 
" style="fill: #f2f2f2; opacity: 0.5; stroke: #f2f2f2; stroke-linejoin: miter"/>
   </g>
  </g>
  <g id="pane3d_2">
   <g id="patch_4">
    <path d="M 104.335521 97.213163 
L 305.984932 143.221817 
L 316.100364 56.368059 
L 98.66794 8.134987 
" style="fill: #e6e6e6; opacity: 0.5; stroke: #e6e6e6; stroke-linejoin: miter"/>
   </g>
  </g>
  <g id="pane3d_3">
   <g id="patch_5">
    <path d="M 43.64011 276.021761 
L 255.924889 327.418502 
L 305.984932 143.221817 
L 104.335521 97.213163 
" style="fill: #ececec; opacity: 0.5; stroke: #ececec; stroke-linejoin: miter"/>
   </g>
  </g>
  <g id="axis3d_1">
   <g id="line2d_1">
    <path d="M 43.64011 276.021761 
L 255.924889 327.418502 
" style="fill: none; stroke: #000000; stroke-width: 0.8; stroke-linecap: square"/>
   </g>
   <g id="text_1">
    <!-- x [m] -->
    <g transform="translate(118.043506 337.34524)rotate(-346.389891)scale(0.17 -0.17)">
     <defs>
      <path id="DejaVuSans-78" d="M 3513 3500 
L 2247 1797 
L 3578 0 
L 2900 0 
L 1881 1375 
L 863 0 
L 184 0 
L 1544 1831 
L 300 3500 
L 978 3500 
L 1906 2253 
L 2834 3500 
L 3513 3500 
z
" transform="scale(0.015625)"/>
      <path id="DejaVuSans-20" transform="scale(0.015625)"/>
      <path id="DejaVuSans-5b" d="M 550 4863 
L 1875 4863 
L 1875 4416 
L 1125 4416 
L 1125 -397 
L 1875 -397 
L 1875 -844 
L 550 -844 
L 550 4863 
z
" transform="scale(0.015625)"/>
      <path id="DejaVuSans-6d" d="M 3328 2828 
Q 3544 3216 3844 3400 
Q 4144 3584 4550 3584 
Q 5097 3584 5394 3201 
Q 5691 2819 5691 2113 
L 5691 0 
L 5113 0 
L 5113 2094 
Q 5113 2597 4934 2840 
Q 4756 3084 4391 3084 
Q 3944 3084 3684 2787 
Q 3425 2491 3425 1978 
L 3425 0 
L 2847 0 
L 2847 2094 
Q 2847 2600 2669 2842 
Q 2491 3084 2119 3084 
Q 1678 3084 1418 2786 
Q 1159 2488 1159 1978 
L 1159 0 
L 581 0 
L 581 3500 
L 1159 3500 
L 1159 2956 
Q 1356 3278 1631 3431 
Q 1906 3584 2284 3584 
Q 2666 3584 2933 3390 
Q 3200 3197 3328 2828 
z
" transform="scale(0.015625)"/>
      <path id="DejaVuSans-5d" d="M 1947 4863 
L 1947 -844 
L 622 -844 
L 622 -397 
L 1369 -397 
L 1369 4416 
L 622 4416 
L 622 4863 
L 1947 4863 
z
" transform="scale(0.015625)"/>
     </defs>
     <use xlink:href="#DejaVuSans-78"/>
     <use xlink:href="#DejaVuSans-20" x="59.179688"/>
     <use xlink:href="#DejaVuSans-5b" x="90.966797"/>
     <use xlink:href="#DejaVuSans-6d" x="129.980469"/>
     <use xlink:href="#DejaVuSans-5d" x="227.392578"/>
    </g>
   </g>
   <g id="Line3DCollection_1">
    <path d="M 47.841161 277.038887 
L 108.329317 98.124394 
L 102.969573 9.089219 
" style="fill: none; stroke: #b0b0b0; stroke-width: 0.8"/>
    <path d="M 77.999724 284.340644 
L 136.996219 104.665081 
L 133.851722 15.939811 
" style="fill: none; stroke: #b0b0b0; stroke-width: 0.8"/>
    <path d="M 108.290257 291.674352 
L 165.781827 111.232851 
L 164.871705 22.82098 
" style="fill: none; stroke: #b0b0b0; stroke-width: 0.8"/>
    <path d="M 138.713629 299.040223 
L 194.686878 117.827874 
L 196.030449 29.732929 
" style="fill: none; stroke: #b0b0b0; stroke-width: 0.8"/>
    <path d="M 169.270716 306.438467 
L 223.712118 124.45032 
L 227.328886 36.675867 
" style="fill: none; stroke: #b0b0b0; stroke-width: 0.8"/>
    <path d="M 199.9624 313.869299 
L 252.858298 131.100359 
L 258.767958 43.650001 
" style="fill: none; stroke: #b0b0b0; stroke-width: 0.8"/>
    <path d="M 230.789574 321.332935 
L 282.126176 137.778165 
L 290.348614 50.655544 
" style="fill: none; stroke: #b0b0b0; stroke-width: 0.8"/>
   </g>
   <g id="xtick_1">
    <g id="line2d_2">
     <path d="M 48.352185 275.52736 
L 46.817727 280.066045 
" style="fill: none; stroke: #000000; stroke-width: 0.8; stroke-linecap: square"/>
    </g>
    <g id="text_2">
     <!-- 0.8 -->
     <g transform="translate(36.440449 301.401792)scale(0.1 -0.1)">
      <defs>
       <path id="DejaVuSans-30" d="M 2034 4250 
Q 1547 4250 1301 3770 
Q 1056 3291 1056 2328 
Q 1056 1369 1301 889 
Q 1547 409 2034 409 
Q 2525 409 2770 889 
Q 3016 1369 3016 2328 
Q 3016 3291 2770 3770 
Q 2525 4250 2034 4250 
z
M 2034 4750 
Q 2819 4750 3233 4129 
Q 3647 3509 3647 2328 
Q 3647 1150 3233 529 
Q 2819 -91 2034 -91 
Q 1250 -91 836 529 
Q 422 1150 422 2328 
Q 422 3509 836 4129 
Q 1250 4750 2034 4750 
z
" transform="scale(0.015625)"/>
       <path id="DejaVuSans-2e" d="M 684 794 
L 1344 794 
L 1344 0 
L 684 0 
L 684 794 
z
" transform="scale(0.015625)"/>
       <path id="DejaVuSans-38" d="M 2034 2216 
Q 1584 2216 1326 1975 
Q 1069 1734 1069 1313 
Q 1069 891 1326 650 
Q 1584 409 2034 409 
Q 2484 409 2743 651 
Q 3003 894 3003 1313 
Q 3003 1734 2745 1975 
Q 2488 2216 2034 2216 
z
M 1403 2484 
Q 997 2584 770 2862 
Q 544 3141 544 3541 
Q 544 4100 942 4425 
Q 1341 4750 2034 4750 
Q 2731 4750 3128 4425 
Q 3525 4100 3525 3541 
Q 3525 3141 3298 2862 
Q 3072 2584 2669 2484 
Q 3125 2378 3379 2068 
Q 3634 1759 3634 1313 
Q 3634 634 3220 271 
Q 2806 -91 2034 -91 
Q 1263 -91 848 271 
Q 434 634 434 1313 
Q 434 1759 690 2068 
Q 947 2378 1403 2484 
z
M 1172 3481 
Q 1172 3119 1398 2916 
Q 1625 2713 2034 2713 
Q 2441 2713 2670 2916 
Q 2900 3119 2900 3481 
Q 2900 3844 2670 4047 
Q 2441 4250 2034 4250 
Q 1625 4250 1398 4047 
Q 1172 3844 1172 3481 
z
" transform="scale(0.015625)"/>
      </defs>
      <use xlink:href="#DejaVuSans-30"/>
      <use xlink:href="#DejaVuSans-2e" x="63.623047"/>
      <use xlink:href="#DejaVuSans-38" x="95.410156"/>
     </g>
    </g>
   </g>
   <g id="xtick_2">
    <g id="line2d_3">
     <path d="M 78.498203 282.822511 
L 77.00141 287.381039 
" style="fill: none; stroke: #000000; stroke-width: 0.8; stroke-linecap: square"/>
    </g>
    <g id="text_3">
     <!-- 0.9 -->
     <g transform="translate(66.553901 308.731002)scale(0.1 -0.1)">
      <defs>
       <path id="DejaVuSans-39" d="M 703 97 
L 703 672 
Q 941 559 1184 500 
Q 1428 441 1663 441 
Q 2288 441 2617 861 
Q 2947 1281 2994 2138 
Q 2813 1869 2534 1725 
Q 2256 1581 1919 1581 
Q 1219 1581 811 2004 
Q 403 2428 403 3163 
Q 403 3881 828 4315 
Q 1253 4750 1959 4750 
Q 2769 4750 3195 4129 
Q 3622 3509 3622 2328 
Q 3622 1225 3098 567 
Q 2575 -91 1691 -91 
Q 1453 -91 1209 -44 
Q 966 3 703 97 
z
M 1959 2075 
Q 2384 2075 2632 2365 
Q 2881 2656 2881 3163 
Q 2881 3666 2632 3958 
Q 2384 4250 1959 4250 
Q 1534 4250 1286 3958 
Q 1038 3666 1038 3163 
Q 1038 2656 1286 2365 
Q 1534 2075 1959 2075 
z
" transform="scale(0.015625)"/>
      </defs>
      <use xlink:href="#DejaVuSans-30"/>
      <use xlink:href="#DejaVuSans-2e" x="63.623047"/>
      <use xlink:href="#DejaVuSans-39" x="95.410156"/>
     </g>
    </g>
   </g>
   <g id="xtick_3">
    <g id="line2d_4">
     <path d="M 108.776077 290.149571 
L 107.317293 294.728073 
" style="fill: none; stroke: #000000; stroke-width: 0.8; stroke-linecap: square"/>
    </g>
    <g id="text_4">
     <!-- 1.0 -->
     <g transform="translate(96.798962 316.092244)scale(0.1 -0.1)">
      <defs>
       <path id="DejaVuSans-31" d="M 794 531 
L 1825 531 
L 1825 4091 
L 703 3866 
L 703 4441 
L 1819 4666 
L 2450 4666 
L 2450 531 
L 3481 531 
L 3481 0 
L 794 0 
L 794 531 
z
" transform="scale(0.015625)"/>
      </defs>
      <use xlink:href="#DejaVuSans-31"/>
      <use xlink:href="#DejaVuSans-2e" x="63.623047"/>
      <use xlink:href="#DejaVuSans-30" x="95.410156"/>
     </g>
    </g>
   </g>
   <g id="xtick_4">
    <g id="line2d_5">
     <path d="M 139.186674 297.508749 
L 137.766247 302.107356 
" style="fill: none; stroke: #000000; stroke-width: 0.8; stroke-linecap: square"/>
    </g>
    <g id="text_5">
     <!-- 1.1 -->
     <g transform="translate(127.176496 323.485728)scale(0.1 -0.1)">
      <use xlink:href="#DejaVuSans-31"/>
      <use xlink:href="#DejaVuSans-2e" x="63.623047"/>
      <use xlink:href="#DejaVuSans-31" x="95.410156"/>
     </g>
    </g>
   </g>
   <g id="xtick_5">
    <g id="line2d_6">
     <path d="M 169.730869 304.900256 
L 168.34915 309.519102 
" style="fill: none; stroke: #000000; stroke-width: 0.8; stroke-linecap: square"/>
    </g>
    <g id="text_6">
     <!-- 1.2 -->
     <g transform="translate(157.687376 330.911666)scale(0.1 -0.1)">
      <defs>
       <path id="DejaVuSans-32" d="M 1228 531 
L 3431 531 
L 3431 0 
L 469 0 
L 469 531 
Q 828 903 1448 1529 
Q 2069 2156 2228 2338 
Q 2531 2678 2651 2914 
Q 2772 3150 2772 3378 
Q 2772 3750 2511 3984 
Q 2250 4219 1831 4219 
Q 1534 4219 1204 4116 
Q 875 4013 500 3803 
L 500 4441 
Q 881 4594 1212 4672 
Q 1544 4750 1819 4750 
Q 2544 4750 2975 4387 
Q 3406 4025 3406 3419 
Q 3406 3131 3298 2873 
Q 3191 2616 2906 2266 
Q 2828 2175 2409 1742 
Q 1991 1309 1228 531 
z
" transform="scale(0.015625)"/>
      </defs>
      <use xlink:href="#DejaVuSans-31"/>
      <use xlink:href="#DejaVuSans-2e" x="63.623047"/>
      <use xlink:href="#DejaVuSans-32" x="95.410156"/>
     </g>
    </g>
   </g>
   <g id="xtick_6">
    <g id="line2d_7">
     <path d="M 200.409543 312.324307 
L 199.066888 316.963525 
" style="fill: none; stroke: #000000; stroke-width: 0.8; stroke-linecap: square"/>
    </g>
    <g id="text_7">
     <!-- 1.3 -->
     <g transform="translate(188.332481 338.370273)scale(0.1 -0.1)">
      <defs>
       <path id="DejaVuSans-33" d="M 2597 2516 
Q 3050 2419 3304 2112 
Q 3559 1806 3559 1356 
Q 3559 666 3084 287 
Q 2609 -91 1734 -91 
Q 1441 -91 1130 -33 
Q 819 25 488 141 
L 488 750 
Q 750 597 1062 519 
Q 1375 441 1716 441 
Q 2309 441 2620 675 
Q 2931 909 2931 1356 
Q 2931 1769 2642 2001 
Q 2353 2234 1838 2234 
L 1294 2234 
L 1294 2753 
L 1863 2753 
Q 2328 2753 2575 2939 
Q 2822 3125 2822 3475 
Q 2822 3834 2567 4026 
Q 2313 4219 1838 4219 
Q 1578 4219 1281 4162 
Q 984 4106 628 3988 
L 628 4550 
Q 988 4650 1302 4700 
Q 1616 4750 1894 4750 
Q 2613 4750 3031 4423 
Q 3450 4097 3450 3541 
Q 3450 3153 3228 2886 
Q 3006 2619 2597 2516 
z
" transform="scale(0.015625)"/>
      </defs>
      <use xlink:href="#DejaVuSans-31"/>
      <use xlink:href="#DejaVuSans-2e" x="63.623047"/>
      <use xlink:href="#DejaVuSans-33" x="95.410156"/>
     </g>
    </g>
   </g>
   <g id="xtick_7">
    <g id="line2d_8">
     <path d="M 231.223587 319.781116 
L 229.920355 324.440842 
" style="fill: none; stroke: #000000; stroke-width: 0.8; stroke-linecap: square"/>
    </g>
    <g id="text_8">
     <!-- 1.4 -->
     <g transform="translate(219.112699 345.861765)scale(0.1 -0.1)">
      <defs>
       <path id="DejaVuSans-34" d="M 2419 4116 
L 825 1625 
L 2419 1625 
L 2419 4116 
z
M 2253 4666 
L 3047 4666 
L 3047 1625 
L 3713 1625 
L 3713 1100 
L 3047 1100 
L 3047 0 
L 2419 0 
L 2419 1100 
L 313 1100 
L 313 1709 
L 2253 4666 
z
" transform="scale(0.015625)"/>
      </defs>
      <use xlink:href="#DejaVuSans-31"/>
      <use xlink:href="#DejaVuSans-2e" x="63.623047"/>
      <use xlink:href="#DejaVuSans-34" x="95.410156"/>
     </g>
    </g>
   </g>
  </g>
  <g id="axis3d_2">
   <g id="line2d_9">
    <path d="M 305.984932 143.221817 
L 255.924889 327.418502 
" style="fill: none; stroke: #000000; stroke-width: 0.8; stroke-linecap: square"/>
   </g>
   <g id="text_9">
    <!-- y [m] -->
    <g transform="translate(308.079163 273.101756)rotate(-74.795681)scale(0.17 -0.17)">
     <defs>
      <path id="DejaVuSans-79" d="M 2059 -325 
Q 1816 -950 1584 -1140 
Q 1353 -1331 966 -1331 
L 506 -1331 
L 506 -850 
L 844 -850 
Q 1081 -850 1212 -737 
Q 1344 -625 1503 -206 
L 1606 56 
L 191 3500 
L 800 3500 
L 1894 763 
L 2988 3500 
L 3597 3500 
L 2059 -325 
z
" transform="scale(0.015625)"/>
     </defs>
     <use xlink:href="#DejaVuSans-79"/>
     <use xlink:href="#DejaVuSans-20" x="59.179688"/>
     <use xlink:href="#DejaVuSans-5b" x="90.966797"/>
     <use xlink:href="#DejaVuSans-6d" x="129.980469"/>
     <use xlink:href="#DejaVuSans-5d" x="227.392578"/>
    </g>
   </g>
   <g id="Line3DCollection_2">
    <path d="M 36.94885 183.914135 
L 47.589227 264.387667 
L 259.184524 315.424624 
" style="fill: none; stroke: #b0b0b0; stroke-width: 0.8"/>
    <path d="M 45.796764 158.71482 
L 55.695707 240.505986 
L 265.874591 290.808423 
" style="fill: none; stroke: #b0b0b0; stroke-width: 0.8"/>
    <path d="M 54.508587 133.903101 
L 63.686808 216.964216 
L 272.468 266.547875 
" style="fill: none; stroke: #b0b0b0; stroke-width: 0.8"/>
    <path d="M 63.087434 109.470102 
L 71.564974 193.75515 
L 278.96683 242.635329 
" style="fill: none; stroke: #b0b0b0; stroke-width: 0.8"/>
    <path d="M 71.536327 85.407219 
L 79.332582 170.871785 
L 285.373104 219.06335 
" style="fill: none; stroke: #b0b0b0; stroke-width: 0.8"/>
    <path d="M 79.858197 61.706105 
L 86.991945 148.307312 
L 291.688783 195.824713 
" style="fill: none; stroke: #b0b0b0; stroke-width: 0.8"/>
    <path d="M 88.055886 38.358662 
L 94.545309 126.055113 
L 297.915776 172.912398 
" style="fill: none; stroke: #b0b0b0; stroke-width: 0.8"/>
    <path d="M 96.132155 15.357033 
L 101.994859 104.108748 
L 304.055938 150.319579 
" style="fill: none; stroke: #b0b0b0; stroke-width: 0.8"/>
   </g>
   <g id="xtick_8">
    <g id="line2d_10">
     <path d="M 257.466043 315.010125 
L 262.62275 316.253927 
" style="fill: none; stroke: #000000; stroke-width: 0.8; stroke-linecap: square"/>
    </g>
    <g id="text_10">
     <!-- 0.3 -->
     <g transform="translate(264.505056 330.876975)scale(0.1 -0.1)">
      <use xlink:href="#DejaVuSans-30"/>
      <use xlink:href="#DejaVuSans-2e" x="63.623047"/>
      <use xlink:href="#DejaVuSans-33" x="95.410156"/>
     </g>
    </g>
   </g>
   <g id="xtick_9">
    <g id="line2d_11">
     <path d="M 264.167799 290.399934 
L 269.28942 291.625699 
" style="fill: none; stroke: #000000; stroke-width: 0.8; stroke-linecap: square"/>
    </g>
    <g id="text_11">
     <!-- 0.4 -->
     <g transform="translate(271.072903 306.299588)scale(0.1 -0.1)">
      <use xlink:href="#DejaVuSans-30"/>
      <use xlink:href="#DejaVuSans-2e" x="63.623047"/>
      <use xlink:href="#DejaVuSans-34" x="95.410156"/>
     </g>
    </g>
   </g>
   <g id="xtick_10">
    <g id="line2d_12">
     <path d="M 270.77274 266.145267 
L 275.859747 267.353385 
" style="fill: none; stroke: #000000; stroke-width: 0.8; stroke-linecap: square"/>
    </g>
    <g id="text_12">
     <!-- 0.5 -->
     <g transform="translate(277.546224 282.075923)scale(0.1 -0.1)">
      <defs>
       <path id="DejaVuSans-35" d="M 691 4666 
L 3169 4666 
L 3169 4134 
L 1269 4134 
L 1269 2991 
Q 1406 3038 1543 3061 
Q 1681 3084 1819 3084 
Q 2600 3084 3056 2656 
Q 3513 2228 3513 1497 
Q 3513 744 3044 326 
Q 2575 -91 1722 -91 
Q 1428 -91 1123 -41 
Q 819 9 494 109 
L 494 744 
Q 775 591 1075 516 
Q 1375 441 1709 441 
Q 2250 441 2565 725 
Q 2881 1009 2881 1497 
Q 2881 1984 2565 2268 
Q 2250 2553 1709 2553 
Q 1456 2553 1204 2497 
Q 953 2441 691 2322 
L 691 4666 
z
" transform="scale(0.015625)"/>
      </defs>
      <use xlink:href="#DejaVuSans-30"/>
      <use xlink:href="#DejaVuSans-2e" x="63.623047"/>
      <use xlink:href="#DejaVuSans-35" x="95.410156"/>
     </g>
    </g>
   </g>
   <g id="xtick_11">
    <g id="line2d_13">
     <path d="M 277.282949 242.238474 
L 282.335805 243.429324 
" style="fill: none; stroke: #000000; stroke-width: 0.8; stroke-linecap: square"/>
    </g>
    <g id="text_13">
     <!-- 0.6 -->
     <g transform="translate(283.927046 258.198399)scale(0.1 -0.1)">
      <defs>
       <path id="DejaVuSans-36" d="M 2113 2584 
Q 1688 2584 1439 2293 
Q 1191 2003 1191 1497 
Q 1191 994 1439 701 
Q 1688 409 2113 409 
Q 2538 409 2786 701 
Q 3034 994 3034 1497 
Q 3034 2003 2786 2293 
Q 2538 2584 2113 2584 
z
M 3366 4563 
L 3366 3988 
Q 3128 4100 2886 4159 
Q 2644 4219 2406 4219 
Q 1781 4219 1451 3797 
Q 1122 3375 1075 2522 
Q 1259 2794 1537 2939 
Q 1816 3084 2150 3084 
Q 2853 3084 3261 2657 
Q 3669 2231 3669 1497 
Q 3669 778 3244 343 
Q 2819 -91 2113 -91 
Q 1303 -91 875 529 
Q 447 1150 447 2328 
Q 447 3434 972 4092 
Q 1497 4750 2381 4750 
Q 2619 4750 2861 4703 
Q 3103 4656 3366 4563 
z
" transform="scale(0.015625)"/>
      </defs>
      <use xlink:href="#DejaVuSans-30"/>
      <use xlink:href="#DejaVuSans-2e" x="63.623047"/>
      <use xlink:href="#DejaVuSans-36" x="95.410156"/>
     </g>
    </g>
   </g>
   <g id="xtick_12">
    <g id="line2d_14">
     <path d="M 283.70045 218.672127 
L 288.719607 219.846076 
" style="fill: none; stroke: #000000; stroke-width: 0.8; stroke-linecap: square"/>
    </g>
    <g id="text_14">
     <!-- 0.7 -->
     <g transform="translate(290.217338 234.659648)scale(0.1 -0.1)">
      <defs>
       <path id="DejaVuSans-37" d="M 525 4666 
L 3525 4666 
L 3525 4397 
L 1831 0 
L 1172 0 
L 2766 4134 
L 525 4134 
L 525 4666 
z
" transform="scale(0.015625)"/>
      </defs>
      <use xlink:href="#DejaVuSans-30"/>
      <use xlink:href="#DejaVuSans-2e" x="63.623047"/>
      <use xlink:href="#DejaVuSans-37" x="95.410156"/>
     </g>
    </g>
   </g>
   <g id="xtick_13">
    <g id="line2d_15">
     <path d="M 290.027208 195.439003 
L 295.013112 196.596408 
" style="fill: none; stroke: #000000; stroke-width: 0.8; stroke-linecap: square"/>
    </g>
    <g id="text_15">
     <!-- 0.8 -->
     <g transform="translate(296.419011 211.452511)scale(0.1 -0.1)">
      <use xlink:href="#DejaVuSans-30"/>
      <use xlink:href="#DejaVuSans-2e" x="63.623047"/>
      <use xlink:href="#DejaVuSans-38" x="95.410156"/>
     </g>
    </g>
   </g>
   <g id="xtick_14">
    <g id="line2d_16">
     <path d="M 296.265135 172.532084 
L 301.218221 173.673293 
" style="fill: none; stroke: #000000; stroke-width: 0.8; stroke-linecap: square"/>
    </g>
    <g id="text_16">
     <!-- 0.9 -->
     <g transform="translate(302.533926 188.57003)scale(0.1 -0.1)">
      <use xlink:href="#DejaVuSans-30"/>
      <use xlink:href="#DejaVuSans-2e" x="63.623047"/>
      <use xlink:href="#DejaVuSans-39" x="95.410156"/>
     </g>
    </g>
   </g>
   <g id="xtick_15">
    <g id="line2d_17">
     <path d="M 302.416088 149.944549 
L 307.336785 151.069899 
" style="fill: none; stroke: #000000; stroke-width: 0.8; stroke-linecap: square"/>
    </g>
    <g id="text_17">
     <!-- 1.0 -->
     <g transform="translate(308.563891 166.005441)scale(0.1 -0.1)">
      <use xlink:href="#DejaVuSans-31"/>
      <use xlink:href="#DejaVuSans-2e" x="63.623047"/>
      <use xlink:href="#DejaVuSans-30" x="95.410156"/>
     </g>
    </g>
   </g>
  </g>
  <g id="axis3d_3">
   <g id="line2d_18">
    <path d="M 305.984932 143.221817 
L 316.100364 56.368059 
" style="fill: none; stroke: #000000; stroke-width: 0.8; stroke-linecap: square"/>
   </g>
   <g id="text_18">
    <!-- z [m] -->
    <g transform="translate(349.036928 105.868505)rotate(-83.356969)scale(0.17 -0.17)">
     <defs>
      <path id="DejaVuSans-7a" d="M 353 3500 
L 3084 3500 
L 3084 2975 
L 922 459 
L 3084 459 
L 3084 0 
L 275 0 
L 275 525 
L 2438 3041 
L 353 3041 
L 353 3500 
z
" transform="scale(0.015625)"/>
     </defs>
     <use xlink:href="#DejaVuSans-7a"/>
     <use xlink:href="#DejaVuSans-20" x="52.490234"/>
     <use xlink:href="#DejaVuSans-5b" x="84.277344"/>
     <use xlink:href="#DejaVuSans-6d" x="123.291016"/>
     <use xlink:href="#DejaVuSans-5d" x="220.703125"/>
    </g>
   </g>
   <g id="Line3DCollection_3">
    <path d="M 309.166588 115.903278 
L 102.551491 69.173313 
L 40.18628 250.97138 
" style="fill: none; stroke: #b0b0b0; stroke-width: 0.8"/>
    <path d="M 312.79836 84.719937 
L 100.516617 37.190913 
L 36.235167 222.314238 
" style="fill: none; stroke: #b0b0b0; stroke-width: 0.8"/>
   </g>
   <g id="xtick_16">
    <g id="line2d_19">
     <path d="M 307.489243 115.523914 
L 312.52248 116.662277 
" style="fill: none; stroke: #000000; stroke-width: 0.8; stroke-linecap: square"/>
    </g>
    <g id="text_19">
     <!-- 1.4 -->
     <g transform="translate(317.657672 115.245063)scale(0.1 -0.1)">
      <use xlink:href="#DejaVuSans-31"/>
      <use xlink:href="#DejaVuSans-2e" x="63.623047"/>
      <use xlink:href="#DejaVuSans-34" x="95.410156"/>
     </g>
    </g>
   </g>
   <g id="xtick_17">
    <g id="line2d_20">
     <path d="M 311.074319 84.333931 
L 316.247708 85.492232 
" style="fill: none; stroke: #000000; stroke-width: 0.8; stroke-linecap: square"/>
    </g>
    <g id="text_20">
     <!-- 1.6 -->
     <g transform="translate(321.731992 83.917739)scale(0.1 -0.1)">
      <use xlink:href="#DejaVuSans-31"/>
      <use xlink:href="#DejaVuSans-2e" x="63.623047"/>
      <use xlink:href="#DejaVuSans-36" x="95.410156"/>
     </g>
    </g>
   </g>
  </g>
  <g id="axes_1">
   <g id="line2d_21">
    <path d="M 247.244199 165.172572 
L 243.947311 165.972469 
L 241.813267 166.517802 
L 237.849674 167.797764 
L 235.51607 168.662724 
L 232.520454 169.613707 
L 231.836787 170.021443 
L 224.779403 172.697794 
L 223.782759 173.135492 
L 220.447684 174.374768 
L 217.378875 175.539911 
L 214.349657 176.589587 
L 201.807253 181.153844 
L 196.415204 182.841493 
L 187.439515 185.383679 
L 181.645765 186.460759 
L 174.111511 187.670009 
L 173.024589 187.838339 
L 170.220268 188.29903 
L 165.678829 188.789418 
L 162.927604 189.057763 
L 162.793055 189.075931 
L 163.875621 188.691124 
L 164.577511 188.347936 
L 177.749411 184.264862 
L 180.1932 183.618718 
L 183.575793 182.53132 
L 187.135721 181.436 
L 198.486697 177.62419 
L 200.505319 177.004513 
L 203.351019 176.004021 
L 206.349052 175.069165 
L 222.868813 169.284905 
L 225.849395 168.159272 
L 228.731883 167.033738 
L 230.088804 166.578209 
L 230.680427 166.296071 
L 233.446396 165.401782 
L 235.847612 164.642151 
L 239.035163 163.825209 
L 240.867594 163.448918 
L 244.458649 162.768799 
L 246.32684 162.438238 
L 249.185004 161.802598 
L 252.560757 161.124289 
L 255.996491 160.285879 
L 256.39043 160.043184 
L 258.805527 159.310344 
L 263.685424 157.131231 
L 265.107221 156.318641 
L 266.052536 155.800341 
L 266.453926 155.577981 
L 266.697177 155.270916 
L 267.229905 155.062367 
L 267.387493 154.71476 
L 268.698205 153.765232 
L 269.273239 153.298524 
L 269.543315 153.077181 
L 270.266333 152.767287 
L 271.624651 151.270883 
L 272.168958 149.836609 
L 272.086342 149.649025 
L 271.625012 149.51866 
L 270.529472 149.662747 
L 269.274788 150.187078 
L 268.542417 150.30029 
L 267.986819 150.500575 
L 267.619144 150.770132 
L 267.089501 151.002368 
L 266.717068 151.335047 
L 261.837223 153.830896 
L 259.085743 155.236867 
L 256.112634 156.649461 
L 245.468793 160.765537 
L 243.713553 161.32098 
L 239.555333 162.857696 
L 236.263337 163.959142 
L 234.761888 164.42873 
L 213.607591 170.79105 
L 212.029213 171.284488 
L 209.769071 171.885844 
L 209.061701 172.12724 
L 208.188375 172.267576 
L 202.762609 173.998364 
L 200.395744 174.788951 
L 192.587108 177.531065 
L 187.667373 179.461337 
L 181.707915 182.360583 
L 180.487092 183.062028 
L 178.677744 184.059988 
L 176.031243 185.508277 
L 173.979511 186.495543 
L 172.610281 187.235532 
L 169.100868 189.022163 
L 168.051094 189.557997 
L 166.347433 190.316421 
L 166.11107 190.119608 
L 166.056134 189.922816 
L 166.308816 189.500159 
L 167.219123 188.940416 
L 170.662662 186.581017 
L 171.056577 186.281438 
L 171.595938 186.026384 
L 172.956192 185.07546 
L 176.628282 182.620823 
L 179.659686 180.622413 
L 182.258282 178.989659 
L 187.245909 176.467059 
L 189.531906 175.509245 
L 200.430009 170.655613 
L 204.471491 168.460067 
L 207.003386 167.154251 
L 211.79677 164.610896 
L 218.269875 161.803569 
L 223.481743 159.894488 
L 228.98204 158.229949 
L 231.650173 157.764475 
L 231.969338 157.606896 
L 233.577432 157.493255 
L 236.831003 157.271381 
L 240.365932 156.989375 
L 244.726058 156.104997 
L 247.16038 155.528521 
L 250.434104 154.658815 
L 251.195723 154.392322 
L 252.827414 153.978513 
L 254.2154 153.470986 
L 259.556854 151.551242 
L 262.682298 149.587188 
L 262.648927 149.49618 
L 261.652775 149.4178 
L 259.857876 149.71589 
L 258.030639 150.236085 
L 257.30983 150.340129 
L 255.899638 150.839793 
L 254.278338 151.253351 
L 250.684878 152.535684 
L 248.658743 153.249396 
L 246.598742 154.116218 
L 242.284003 155.598443 
L 228.824159 161.145325 
L 227.780047 161.47298 
L 226.959729 161.851792 
L 224.055729 162.92982 
L 219.140665 164.718716 
L 215.45674 165.875301 
L 213.537078 166.450285 
L 207.990121 168.001362 
L 200.5766 169.777035 
L 197.86503 170.451994 
L 193.351576 171.300501 
L 190.721447 171.807748 
L 188.089134 172.145757 
L 183.152645 172.811217 
L 179.472055 173.507809 
L 176.047181 174.495132 
L 172.40827 176.102077 
L 168.993392 177.882068 
L 165.648036 180.002372 
L 165.181153 180.381265 
L 164.004539 181.037556 
L 163.285607 181.798753 
L 162.773582 182.042024 
L 160.917384 183.577491 
L 160.694757 183.865074 
L 160.192358 184.141299 
L 159.573629 184.664112 
L 157.740131 186.499571 
L 157.64469 186.646092 
L 157.727791 186.676399 
L 157.832969 186.694039 
L 159.67218 185.923983 
L 167.780377 182.472989 
L 173.048184 180.771428 
L 177.290989 179.408855 
L 180.861806 178.299055 
L 182.689885 177.788339 
L 185.617718 176.776549 
L 189.521311 175.662883 
L 192.572143 174.752117 
L 198.693838 172.729861 
L 203.582998 171.271196 
L 208.277151 169.61916 
L 214.785439 167.552953 
L 227.27586 162.668858 
L 232.497276 159.801465 
L 232.816072 159.439976 
L 233.764379 158.693782 
L 233.976329 158.244351 
L 235.002924 157.090718 
L 234.96758 156.64206 
L 235.569293 155.899502 
L 235.522623 155.553428 
L 235.768472 154.908425 
L 235.943059 154.273377 
L 236.183635 154.00942 
L 236.300423 153.518953 
L 236.09036 153.366867 
L 236.210528 153.031128 
L 236.222385 153.078255 
L 236.277111 153.097204 
L 236.260727 153.125903 
L 236.185498 153.262892 
L 236.385674 153.367465 
L 236.119965 153.496114 
L 235.987782 154.428672 
L 235.695139 154.7394 
L 235.630152 155.023486 
L 235.830913 155.112146 
L 235.082928 155.487759 
L 235.056301 155.435513 
L 235.063195 155.35951 
L 235.262392 155.026161 
L 235.063557 154.736401 
L 235.023033 153.776585 
L 235.214107 147.795794 
L 235.504933 146.984031 
L 235.367264 146.157844 
L 235.428035 143.72256 
L 235.598645 142.860437 
L 235.645016 141.143863 
L 235.814546 139.355309 
L 235.834498 137.64424 
L 236.530147 132.513442 
L 236.925031 130.781169 
L 236.964754 129.963014 
L 237.315742 128.394006 
L 237.661955 126.906146 
L 238.276917 124.735992 
L 238.575354 123.310476 
L 239.203548 121.235379 
L 241.553106 114.558236 
L 241.938489 113.753114 
L 242.165724 112.944723 
L 242.542793 112.180079 
L 242.73936 111.349925 
L 244.705771 106.454909 
L 244.913969 105.597722 
L 245.25784 104.830845 
L 245.760698 103.148229 
L 247.59181 98.478833 
L 247.746577 97.690669 
L 248.79269 95.620871 
L 248.8983 94.849653 
L 249.78806 92.884297 
L 249.98881 92.251428 
L 251.133756 90.051788 
L 251.511659 89.65107 
L 251.959947 88.748249 
L 251.959947 88.748249 
" clip-path="url(#pb7213d843d)" style="fill: none; stroke: #008000; stroke-width: 1.5; stroke-linecap: square"/>
   </g>
   <g id="line2d_22">
    <path d="M 254.207814 87.449058 
L 254.397138 88.219403 
L 254.355678 88.838168 
L 254.440356 89.139262 
L 254.282325 89.541406 
L 254.201858 90.507573 
L 253.71603 92.117775 
L 253.689427 92.749073 
L 253.037422 94.713448 
L 252.977564 95.446555 
L 252.700127 96.130992 
L 252.586474 96.959858 
L 251.436344 100.28462 
L 250.770759 103.048086 
L 250.701859 103.989097 
L 250.297839 104.978107 
L 250.090446 105.93878 
L 249.695984 106.857618 
L 249.491332 107.771712 
L 249.109036 108.737402 
L 248.557206 110.711934 
L 247.823955 112.787607 
L 246.232906 118.021172 
L 245.593282 120.080077 
L 244.937987 122.204858 
L 244.2897 124.293029 
L 244.084842 125.335382 
L 243.47549 127.379758 
L 243.272923 128.377167 
L 242.905463 129.378999 
L 241.245788 137.068277 
L 240.953342 138.043012 
L 240.572605 139.958615 
L 240.078439 141.815584 
L 239.946317 142.702357 
L 239.679201 143.615917 
L 239.365346 145.495259 
L 238.859998 147.364355 
L 238.513226 148.345279 
L 237.982413 150.351813 
L 234.994662 159.51127 
L 234.509678 160.539571 
L 234.323639 161.58547 
L 233.696599 162.649441 
L 232.012867 166.986499 
L 230.833194 169.266712 
L 230.521543 170.407256 
L 229.820547 171.515198 
L 228.871205 173.765083 
L 228.232181 174.904293 
L 227.727742 176.033667 
L 227.382507 177.185094 
L 226.270235 179.448543 
L 225.565911 180.590327 
L 224.048274 184.001582 
L 222.233381 187.253962 
L 221.296275 189.352354 
L 220.269083 191.435511 
L 218.824477 194.436676 
L 218.297632 195.380704 
L 217.890616 196.37948 
L 217.346141 197.267331 
L 217.024868 198.192557 
L 215.725629 200.990161 
L 214.355126 204.490174 
L 212.891808 208.545415 
L 210.740134 215.138731 
L 207.201861 227.601238 
L 205.401995 234.399345 
L 204.085295 238.950613 
L 203.942756 239.797237 
L 202.884909 243.389123 
L 200.93719 250.470599 
L 200.984048 250.441735 
L 201.122053 250.260113 
L 201.339189 249.732531 
L 202.337145 246.725723 
L 202.671933 245.641912 
L 203.118124 244.516714 
L 203.707722 242.697292 
L 204.149193 241.328001 
L 206.748709 233.480456 
L 207.66658 230.180971 
L 208.226152 228.317996 
L 209.437281 223.648563 
L 210.574564 219.876168 
L 211.607693 215.889622 
L 212.949976 210.945862 
L 219.160609 189.041865 
L 219.629444 187.858119 
L 220.29676 185.527876 
L 220.718156 184.402872 
L 221.247974 182.132247 
L 225.874712 166.386179 
L 226.338113 165.39686 
L 226.565938 164.420904 
L 227.352021 162.449498 
L 227.698569 160.51335 
L 228.807356 157.520672 
L 228.909608 156.490265 
L 229.763581 154.488486 
L 230.666984 151.495917 
L 231.202587 150.548049 
L 231.321855 149.561707 
L 231.699566 148.594189 
L 231.967379 147.519713 
L 232.696044 145.587015 
L 234.090692 141.502992 
L 234.936458 138.565602 
L 236.843133 132.463812 
L 236.97169 131.322672 
L 238.477405 125.66344 
L 239.292959 122.212853 
L 241.02999 115.705483 
L 241.530439 113.653904 
L 241.881556 112.610755 
L 242.084779 111.657532 
L 243.075264 108.830131 
L 243.31851 107.97883 
L 243.699612 107.109256 
L 244.303864 105.280433 
L 246.113153 100.518074 
L 246.705724 99.15328 
L 247.460514 97.099113 
L 247.802111 96.474129 
L 247.949019 95.862501 
L 248.351357 95.267834 
L 249.051865 93.385139 
L 249.804131 92.185363 
L 249.932807 91.685634 
L 250.443951 90.794353 
L 251.229792 89.254649 
L 251.545292 88.792071 
L 251.569327 88.997327 
L 251.553487 89.948019 
L 250.823488 92.746249 
L 250.634921 93.525551 
L 250.384086 94.529498 
L 249.921741 96.478456 
L 249.299253 97.639126 
L 249.203106 98.278297 
L 248.553125 100.043024 
L 248.424525 100.768014 
L 248.092952 101.397934 
L 247.998984 102.067452 
L 247.671647 102.782493 
L 247.538681 103.48509 
L 246.689342 105.739536 
L 246.53431 106.530015 
L 245.512512 109.645824 
L 245.420788 110.421629 
L 244.940501 111.191891 
L 244.741457 111.994657 
L 244.275076 112.86734 
L 244.025366 113.641761 
L 243.54553 114.546861 
L 243.322151 115.469923 
L 242.462169 117.265407 
L 241.355606 120.123144 
L 240.461238 121.981018 
L 239.04663 125.265141 
L 237.85379 127.592666 
L 237.373128 128.759005 
L 236.062728 131.141788 
L 234.245727 134.669913 
L 232.942675 137.094455 
L 227.621275 148.079854 
L 227.316413 149.298755 
L 226.5292 150.495973 
L 226.136281 151.671055 
L 224.997439 154.06765 
L 222.236942 162.105017 
L 221.921469 163.157183 
L 220.622643 166.495103 
L 220.337237 167.572688 
L 219.836224 168.605942 
L 219.748046 169.689217 
L 218.846383 171.771656 
L 217.965443 173.783118 
L 217.762512 174.837132 
L 216.80964 176.861603 
L 216.129033 178.934294 
L 214.414776 183.05887 
L 209.68969 195.778478 
L 209.364825 196.926406 
L 206.316934 204.542141 
L 205.488343 206.7092 
L 196.360447 228.995656 
L 195.824598 229.983073 
L 195.066351 232.001385 
L 194.23661 233.987635 
L 190.783372 241.818094 
L 188.07462 246.938927 
L 182.603168 254.492158 
L 182.134642 255.321869 
L 181.892773 255.726621 
L 181.809457 256.424799 
L 181.874049 256.411505 
L 182.177814 256.33397 
L 182.764965 255.929089 
L 184.194814 254.41494 
L 186.135951 251.212219 
L 187.393893 248.251808 
L 187.491833 247.575634 
L 188.246021 245.330616 
L 188.674991 243.644833 
L 189.190753 241.829041 
L 190.123001 236.052292 
L 191.936261 221.773197 
L 192.971779 215.612865 
L 195.05684 206.192738 
L 196.360835 201.216913 
L 199.026452 192.959613 
L 201.457708 186.026507 
L 202.449144 183.339982 
L 203.547941 180.615929 
L 204.498913 177.909422 
L 205.181072 176.585228 
L 205.559159 175.284046 
L 208.278821 168.922531 
L 208.654632 167.641742 
L 209.312386 166.381551 
L 211.241702 161.365334 
L 211.903327 160.130658 
L 212.230988 158.911867 
L 213.857469 155.480914 
L 214.230374 154.373229 
L 215.250124 152.187685 
L 215.546227 151.10047 
L 216.876099 148.067673 
L 217.178741 147.122947 
L 218.054996 145.160384 
L 218.812883 143.326902 
L 219.331122 142.435573 
L 220.208148 139.794694 
L 220.932585 138.11009 
L 221.562556 136.422255 
L 221.759084 135.56594 
L 222.418774 134.051907 
L 223.015058 132.541643 
L 223.540784 130.8963 
L 223.829809 130.197655 
L 223.990982 129.433299 
L 224.427786 128.763633 
L 224.58227 128.008405 
L 224.95132 127.318311 
L 225.611822 125.052946 
L 226.181044 123.673576 
L 228.055316 119.341857 
L 228.528376 118.646907 
L 229.060983 117.229226 
L 230.794579 114.173648 
L 232.109795 111.748944 
L 232.613099 111.077762 
L 233.636663 110.407948 
L 233.894766 110.522374 
L 233.930614 111.100298 
L 233.876494 111.314712 
L 233.910534 111.672777 
L 233.650664 112.404802 
L 232.942625 114.690192 
L 232.69501 115.348284 
L 232.548599 116.119917 
L 232.144071 116.851585 
L 230.669675 121.207368 
L 230.058929 123.144553 
L 229.625454 124.121061 
L 229.04773 126.154913 
L 228.180276 128.244768 
L 228.044246 129.412364 
L 227.024398 132.724567 
L 223.69991 144.579408 
L 223.281477 147.187582 
L 222.652884 149.874373 
L 222.4665 151.310126 
L 221.685934 152.523939 
L 221.326609 153.871212 
L 221.147166 155.271158 
L 220.742054 156.661103 
L 220.238341 159.443655 
L 219.375464 163.503369 
L 219.166789 164.806914 
L 218.800281 166.120574 
L 217.49563 173.351925 
L 217.481146 174.479772 
L 217.05788 176.654575 
L 216.969835 177.719768 
L 216.707915 178.708489 
L 216.275416 181.306633 
L 215.834934 182.698847 
L 215.031649 184.882157 
L 213.776827 186.790143 
L 213.355356 187.090551 
L 212.922183 186.993191 
L 212.54954 186.79636 
L 211.824414 186.160335 
L 210.345677 184.954933 
L 210.109297 184.633455 
L 208.830357 183.829849 
L 207.456578 182.973467 
L 193.462516 175.120392 
L 188.118662 172.360462 
L 181.696906 169.058321 
L 177.871541 167.218448 
L 172.877349 165.149546 
L 163.026956 160.740125 
L 159.168018 158.912816 
L 156.420876 157.589564 
L 152.019655 155.285671 
L 145.414303 151.759535 
L 143.128003 150.419788 
L 135.229114 146.110641 
L 133.526055 145.032758 
L 137.715639 147.591799 
L 138.87357 148.370666 
L 145.836315 152.107056 
L 147.669487 153.096311 
L 149.704848 154.049162 
L 158.672429 158.083514 
L 169.314456 163.499397 
L 174.043283 166.108644 
L 177.586964 167.965695 
L 180.995665 169.786478 
L 183.379731 170.969552 
L 186.708138 172.822997 
L 203.137804 181.606283 
L 204.99991 182.498977 
L 206.838508 183.494227 
L 212.962595 187.065861 
L 213.822047 187.677572 
L 215.597342 188.720666 
L 221.84609 192.550975 
L 223.679906 193.754673 
L 233.008679 200.537951 
L 233.6685 201.204127 
L 240.489982 206.757923 
L 241.864387 207.950248 
L 245.927502 211.275882 
L 247.330374 212.280095 
L 248.624644 213.310186 
L 253.139574 216.726455 
L 253.625601 217.17751 
L 254.306537 217.633629 
L 254.73094 218.055469 
L 255.932483 218.911926 
L 256.326406 219.311807 
L 257.348006 220.085203 
L 258.602096 221.216836 
L 259.134197 221.744068 
L 259.695083 222.245762 
L 260.428118 222.854105 
L 260.429272 222.839863 
L 260.150669 222.537112 
L 259.916172 222.354564 
L 259.847716 222.141455 
L 259.094068 221.421956 
L 258.064779 220.564676 
L 257.52926 220.227175 
L 257.129672 219.837322 
L 256.096941 219.069035 
L 249.780792 214.596468 
L 248.07227 213.439241 
L 246.333506 212.245198 
L 242.680763 209.825053 
L 240.747141 208.657662 
L 238.945523 207.480173 
L 231.519928 203.000543 
L 221.918395 197.374392 
L 220.137909 196.243104 
L 218.938323 195.76281 
L 218.278758 195.174793 
L 215.644049 193.553864 
L 209.934492 189.890159 
L 208.94593 189.43976 
L 207.509036 188.400466 
L 199.727068 183.612602 
L 198.1382 182.762257 
L 192.958208 179.588887 
L 192.3735 179.140537 
L 190.835307 178.280939 
L 189.397843 177.38816 
L 184.333026 174.263775 
L 182.081437 172.880704 
L 180.581457 171.914211 
L 163.387838 161.610906 
L 161.82686 160.664511 
L 156.301563 157.253737 
L 143.881819 150.572227 
L 142.509577 149.882687 
L 140.530448 148.808258 
L 138.120405 147.414674 
L 134.430699 144.909622 
L 133.976685 144.54381 
L 133.337877 144.25985 
L 134.125364 144.700771 
L 134.609629 145.166124 
L 135.095562 145.345589 
L 135.881784 145.979493 
L 139.557461 148.12516 
L 141.754141 149.461413 
L 146.241987 152.050186 
L 147.00958 152.656809 
L 148.051537 153.202095 
L 148.977528 153.891362 
L 151.022844 155.106379 
L 155.328317 157.627103 
L 163.910952 163.397197 
L 173.79651 169.097129 
L 175.832974 170.287802 
L 190.378612 178.592886 
L 194.419459 180.775194 
L 203.306386 185.929379 
L 205.145761 187.164017 
L 206.941175 188.3697 
L 209.399037 190.196472 
L 216.46343 194.981456 
L 219.437715 196.908599 
L 222.93643 199.075487 
L 224.293155 199.968153 
L 226.372354 201.285369 
L 229.818633 203.428967 
L 231.884374 204.755565 
L 243.457877 213.418493 
L 244.254511 213.930336 
L 244.853648 214.465541 
L 246.879973 215.84766 
L 250.892115 218.507161 
L 260.882296 224.318764 
L 272.406545 230.207005 
L 272.807304 230.16943 
L 272.852755 230.022269 
L 272.708301 229.781484 
L 272.100035 229.317202 
L 270.47234 228.432012 
L 269.812071 227.986387 
L 268.843091 227.499919 
L 267.86115 226.901167 
L 264.369174 224.909793 
L 263.252143 224.126095 
L 261.896791 223.424441 
L 258.48648 221.346465 
L 257.906237 220.872499 
L 255.752993 219.454638 
L 254.454226 218.571654 
L 251.531107 216.765471 
L 249.524983 215.271317 
L 246.702137 213.281836 
L 245.258501 212.190587 
L 235.375158 204.975201 
L 231.995068 202.836994 
L 218.677366 194.259024 
L 216.687954 192.943778 
L 213.611084 191.090943 
L 211.530672 189.726788 
L 209.323878 188.496089 
L 207.168445 187.198924 
L 202.508606 184.700468 
L 199.066363 182.758016 
L 196.74587 181.495215 
L 181.507985 173.45496 
L 170.252204 167.776744 
L 164.384814 165.212413 
L 161.224555 163.842243 
L 147.852439 157.988255 
L 146.758613 157.406688 
L 146.524841 157.090295 
L 145.823181 156.907735 
L 145.503947 156.591415 
L 144.41122 156.071233 
L 144.242398 155.846459 
L 143.630385 155.442204 
L 143.576446 155.073606 
L 143.591074 154.994121 
L 143.932865 154.830711 
L 144.708873 154.824648 
L 145.230652 155.05916 
L 146.587953 155.465807 
L 147.007877 155.71817 
L 147.544329 155.873184 
L 150.60065 157.321487 
L 155.793725 159.810442 
L 156.563101 160.327464 
L 158.184135 161.075352 
L 159.955565 161.975767 
L 160.714701 162.381209 
L 161.578132 162.995917 
L 166.164326 165.331344 
L 183.911532 176.236542 
L 187.741946 178.838943 
L 198.607321 185.924688 
L 203.278922 189.137027 
L 204.910351 190.300603 
L 211.060544 194.268729 
L 213.821787 195.792804 
L 222.279572 200.98791 
L 226.183606 202.923044 
L 229.154342 204.117706 
L 230.231872 204.504351 
L 232.314865 205.20971 
L 233.271668 205.480183 
L 234.587313 205.815772 
L 237.73192 206.412026 
L 239.0728 206.412379 
L 239.39441 206.227115 
L 239.068524 205.978815 
L 235.39934 204.356878 
L 231.840149 202.986498 
L 228.931013 202.374098 
L 228.075101 202.178061 
L 224.822198 201.243305 
L 224.450816 201.329875 
L 223.704385 201.346714 
L 222.975188 201.216401 
L 220.734644 200.096166 
L 219.738863 199.422244 
L 219.221093 199.228128 
L 219.239122 199.254497 
L 218.555803 199.346225 
L 218.199416 199.002079 
L 218.141838 198.871035 
L 218.02222 198.736784 
L 217.977189 198.612438 
L 217.970653 198.621997 
" clip-path="url(#pb7213d843d)" style="fill: none; stroke: #008000; stroke-width: 1.5; stroke-linecap: square"/>
   </g>
   <g id="line2d_23">
    <path d="M 276.70722 206.654442 
L 257.090206 208.457259 
L 241.015847 212.973093 
L 227.335821 215.345935 
L 198.385064 231.160474 
L 189.808284 234.407942 
L 178.122066 239.150644 
L 169.910032 250.562746 
L 174.761522 251.016031 
L 184.739608 244.185169 
L 182.969573 242.788422 
L 198.802242 240.498497 
L 206.737928 221.700546 
L 221.872705 225.328355 
L 231.418516 218.184205 
L 255.982511 218.156664 
L 264.588408 212.330438 
L 254.996657 217.602073 
L 233.185607 225.783893 
L 216.109322 229.576049 
L 198.184827 234.485858 
L 188.539238 236.725463 
L 177.798751 233.020354 
L 166.970313 229.478587 
L 164.401618 233.22698 
L 159.197479 232.088484 
L 172.762376 233.83862 
L 178.37657 222.184518 
L 198.327424 214.319218 
L 218.514631 203.827754 
L 228.104732 196.453392 
L 249.425669 202.6799 
L 252.08698 201.350237 
L 248.048559 185.757085 
L 245.242253 170.240105 
L 257.48264 167.978834 
L 264.659863 159.036947 
L 265.360894 149.221734 
L 266.508855 141.895567 
L 267.258681 134.407956 
L 262.181774 141.978488 
L 256.356425 145.32357 
L 267.952238 144.520673 
L 260.175508 161.950597 
L 263.887984 177.815562 
L 258.954933 192.291098 
L 250.713114 206.553079 
L 243.350901 227.929316 
L 231.986369 242.262135 
L 234.292509 255.302672 
L 238.232696 262.376152 
L 239.174513 263.032583 
L 239.498669 253.946473 
L 243.435358 240.501137 
L 244.110755 227.92472 
L 235.94816 210.370469 
L 246.894356 189.779644 
L 249.795964 173.28983 
L 250.897254 143.534767 
L 257.246255 132.463015 
L 262.967112 108.296211 
L 258.289612 93.856842 
L 260.191712 86.846913 
L 251.246711 80.192351 
L 248.167059 92.610441 
L 256.249976 103.962961 
L 252.71708 127.707456 
L 239.828866 141.983169 
L 237.4635 158.317101 
L 236.883028 176.406563 
L 233.509001 196.926404 
L 227.505294 217.685327 
L 222.265525 229.883166 
L 222.008254 242.110234 
L 212.099069 246.251078 
L 211.752112 239.077866 
L 216.395647 232.944485 
L 215.813006 221.549931 
L 218.444667 196.976543 
L 216.868541 174.869276 
L 217.491063 159.680481 
L 221.036446 145.57228 
L 225.344399 133.19351 
L 230.75567 132.256526 
L 227.400615 126.140533 
L 232.391239 126.63018 
L 222.371963 140.376076 
L 199.41207 157.875058 
L 193.099104 154.046715 
L 192.428234 164.775532 
L 160.198664 147.154808 
L 154.750991 147.073108 
L 144.573708 143.632276 
L 127.141923 132.64815 
L 114.477841 122.8987 
L 96.312651 114.418921 
L 78.715574 109.643554 
L 74.224565 105.095949 
L 85.099253 109.719849 
L 101.976329 116.148044 
L 117.001947 124.151164 
L 164.386761 149.890861 
L 178.679659 157.519303 
L 201.411419 171.949116 
L 211.335083 182.926267 
L 229.357862 188.872236 
L 222.570418 187.592274 
L 217.121636 184.431126 
L 205.900411 180.054534 
L 198.866599 171.186694 
L 182.811819 162.500295 
L 181.516401 152.444388 
L 165.57857 140.463402 
L 161.393465 144.23898 
L 153.75172 137.522046 
L 138.543074 133.870136 
L 132.097244 127.439108 
L 134.721003 130.545816 
L 144.167227 122.346055 
L 160.45916 133.040543 
L 176.53703 141.209499 
L 193.026551 155.899114 
L 211.124531 163.6356 
L 221.205266 173.50293 
L 242.189437 175.348478 
L 252.020168 185.613817 
L 266.150927 191.273286 
L 271.1535 193.455777 
L 275.527093 191.872284 
L 265.856437 183.260811 
L 251.201847 171.097285 
L 234.724645 158.039393 
L 219.88684 148.999532 
L 210.798038 147.306405 
L 195.351154 147.977142 
L 176.440685 140.119395 
L 164.925923 134.567905 
L 157.829853 130.609901 
L 160.202697 144.014889 
L 170.197309 146.239227 
L 181.745064 153.869116 
L 198.017616 161.178418 
L 202.968088 160.108021 
L 216.562947 165.045207 
L 218.49806 163.182804 
L 226.423398 165.816097 
L 229.314667 164.409485 
L 229.303104 169.529417 
L 222.968465 168.442285 
L 219.00556 167.101962 
L 221.304496 168.454869 
L 220.939048 169.578455 
L 217.590168 163.568011 
L 209.558369 162.650761 
L 211.582041 164.266877 
L 208.262098 165.491629 
L 207.338665 163.845553 
L 207.338665 163.845553 
" clip-path="url(#pb7213d843d)" style="fill: none; stroke: #ff0000; stroke-width: 1.5; stroke-linecap: square"/>
   </g>
   <g id="legend_1">
    <g id="patch_6">
     <path d="M 171.891875 63.505625 
L 333.7 63.505625 
Q 337.1 63.505625 337.1 60.105625 
L 337.1 11.9 
Q 337.1 8.5 333.7 8.5 
L 171.891875 8.5 
Q 168.491875 8.5 168.491875 11.9 
L 168.491875 60.105625 
Q 168.491875 63.505625 171.891875 63.505625 
z
" style="fill: #ffffff; opacity: 0.8; stroke: #cccccc; stroke-linejoin: miter"/>
    </g>
    <g id="line2d_24">
     <path d="M 175.291875 22.267344 
L 192.291875 22.267344 
L 209.291875 22.267344 
" style="fill: none; stroke: #008000; stroke-width: 1.5; stroke-linecap: square"/>
    </g>
    <g id="text_21">
     <!-- ground truth -->
     <g transform="translate(222.891875 28.217344)scale(0.17 -0.17)">
      <defs>
       <path id="DejaVuSans-67" d="M 2906 1791 
Q 2906 2416 2648 2759 
Q 2391 3103 1925 3103 
Q 1463 3103 1205 2759 
Q 947 2416 947 1791 
Q 947 1169 1205 825 
Q 1463 481 1925 481 
Q 2391 481 2648 825 
Q 2906 1169 2906 1791 
z
M 3481 434 
Q 3481 -459 3084 -895 
Q 2688 -1331 1869 -1331 
Q 1566 -1331 1297 -1286 
Q 1028 -1241 775 -1147 
L 775 -588 
Q 1028 -725 1275 -790 
Q 1522 -856 1778 -856 
Q 2344 -856 2625 -561 
Q 2906 -266 2906 331 
L 2906 616 
Q 2728 306 2450 153 
Q 2172 0 1784 0 
Q 1141 0 747 490 
Q 353 981 353 1791 
Q 353 2603 747 3093 
Q 1141 3584 1784 3584 
Q 2172 3584 2450 3431 
Q 2728 3278 2906 2969 
L 2906 3500 
L 3481 3500 
L 3481 434 
z
" transform="scale(0.015625)"/>
       <path id="DejaVuSans-72" d="M 2631 2963 
Q 2534 3019 2420 3045 
Q 2306 3072 2169 3072 
Q 1681 3072 1420 2755 
Q 1159 2438 1159 1844 
L 1159 0 
L 581 0 
L 581 3500 
L 1159 3500 
L 1159 2956 
Q 1341 3275 1631 3429 
Q 1922 3584 2338 3584 
Q 2397 3584 2469 3576 
Q 2541 3569 2628 3553 
L 2631 2963 
z
" transform="scale(0.015625)"/>
       <path id="DejaVuSans-6f" d="M 1959 3097 
Q 1497 3097 1228 2736 
Q 959 2375 959 1747 
Q 959 1119 1226 758 
Q 1494 397 1959 397 
Q 2419 397 2687 759 
Q 2956 1122 2956 1747 
Q 2956 2369 2687 2733 
Q 2419 3097 1959 3097 
z
M 1959 3584 
Q 2709 3584 3137 3096 
Q 3566 2609 3566 1747 
Q 3566 888 3137 398 
Q 2709 -91 1959 -91 
Q 1206 -91 779 398 
Q 353 888 353 1747 
Q 353 2609 779 3096 
Q 1206 3584 1959 3584 
z
" transform="scale(0.015625)"/>
       <path id="DejaVuSans-75" d="M 544 1381 
L 544 3500 
L 1119 3500 
L 1119 1403 
Q 1119 906 1312 657 
Q 1506 409 1894 409 
Q 2359 409 2629 706 
Q 2900 1003 2900 1516 
L 2900 3500 
L 3475 3500 
L 3475 0 
L 2900 0 
L 2900 538 
Q 2691 219 2414 64 
Q 2138 -91 1772 -91 
Q 1169 -91 856 284 
Q 544 659 544 1381 
z
M 1991 3584 
L 1991 3584 
z
" transform="scale(0.015625)"/>
       <path id="DejaVuSans-6e" d="M 3513 2113 
L 3513 0 
L 2938 0 
L 2938 2094 
Q 2938 2591 2744 2837 
Q 2550 3084 2163 3084 
Q 1697 3084 1428 2787 
Q 1159 2491 1159 1978 
L 1159 0 
L 581 0 
L 581 3500 
L 1159 3500 
L 1159 2956 
Q 1366 3272 1645 3428 
Q 1925 3584 2291 3584 
Q 2894 3584 3203 3211 
Q 3513 2838 3513 2113 
z
" transform="scale(0.015625)"/>
       <path id="DejaVuSans-64" d="M 2906 2969 
L 2906 4863 
L 3481 4863 
L 3481 0 
L 2906 0 
L 2906 525 
Q 2725 213 2448 61 
Q 2172 -91 1784 -91 
Q 1150 -91 751 415 
Q 353 922 353 1747 
Q 353 2572 751 3078 
Q 1150 3584 1784 3584 
Q 2172 3584 2448 3432 
Q 2725 3281 2906 2969 
z
M 947 1747 
Q 947 1113 1208 752 
Q 1469 391 1925 391 
Q 2381 391 2643 752 
Q 2906 1113 2906 1747 
Q 2906 2381 2643 2742 
Q 2381 3103 1925 3103 
Q 1469 3103 1208 2742 
Q 947 2381 947 1747 
z
" transform="scale(0.015625)"/>
       <path id="DejaVuSans-74" d="M 1172 4494 
L 1172 3500 
L 2356 3500 
L 2356 3053 
L 1172 3053 
L 1172 1153 
Q 1172 725 1289 603 
Q 1406 481 1766 481 
L 2356 481 
L 2356 0 
L 1766 0 
Q 1100 0 847 248 
Q 594 497 594 1153 
L 594 3053 
L 172 3053 
L 172 3500 
L 594 3500 
L 594 4494 
L 1172 4494 
z
" transform="scale(0.015625)"/>
       <path id="DejaVuSans-68" d="M 3513 2113 
L 3513 0 
L 2938 0 
L 2938 2094 
Q 2938 2591 2744 2837 
Q 2550 3084 2163 3084 
Q 1697 3084 1428 2787 
Q 1159 2491 1159 1978 
L 1159 0 
L 581 0 
L 581 4863 
L 1159 4863 
L 1159 2956 
Q 1366 3272 1645 3428 
Q 1925 3584 2291 3584 
Q 2894 3584 3203 3211 
Q 3513 2838 3513 2113 
z
" transform="scale(0.015625)"/>
      </defs>
      <use xlink:href="#DejaVuSans-67"/>
      <use xlink:href="#DejaVuSans-72" x="63.476562"/>
      <use xlink:href="#DejaVuSans-6f" x="102.339844"/>
      <use xlink:href="#DejaVuSans-75" x="163.521484"/>
      <use xlink:href="#DejaVuSans-6e" x="226.900391"/>
      <use xlink:href="#DejaVuSans-64" x="290.279297"/>
      <use xlink:href="#DejaVuSans-20" x="353.755859"/>
      <use xlink:href="#DejaVuSans-74" x="385.542969"/>
      <use xlink:href="#DejaVuSans-72" x="424.751953"/>
      <use xlink:href="#DejaVuSans-75" x="465.865234"/>
      <use xlink:href="#DejaVuSans-74" x="529.244141"/>
      <use xlink:href="#DejaVuSans-68" x="568.453125"/>
     </g>
    </g>
    <g id="line2d_25">
     <path d="M 175.291875 47.220156 
L 192.291875 47.220156 
L 209.291875 47.220156 
" style="fill: none; stroke: #ff0000; stroke-width: 1.5; stroke-linecap: square"/>
    </g>
    <g id="text_22">
     <!-- estimated -->
     <g transform="translate(222.891875 53.170156)scale(0.17 -0.17)">
      <defs>
       <path id="DejaVuSans-65" d="M 3597 1894 
L 3597 1613 
L 953 1613 
Q 991 1019 1311 708 
Q 1631 397 2203 397 
Q 2534 397 2845 478 
Q 3156 559 3463 722 
L 3463 178 
Q 3153 47 2828 -22 
Q 2503 -91 2169 -91 
Q 1331 -91 842 396 
Q 353 884 353 1716 
Q 353 2575 817 3079 
Q 1281 3584 2069 3584 
Q 2775 3584 3186 3129 
Q 3597 2675 3597 1894 
z
M 3022 2063 
Q 3016 2534 2758 2815 
Q 2500 3097 2075 3097 
Q 1594 3097 1305 2825 
Q 1016 2553 972 2059 
L 3022 2063 
z
" transform="scale(0.015625)"/>
       <path id="DejaVuSans-73" d="M 2834 3397 
L 2834 2853 
Q 2591 2978 2328 3040 
Q 2066 3103 1784 3103 
Q 1356 3103 1142 2972 
Q 928 2841 928 2578 
Q 928 2378 1081 2264 
Q 1234 2150 1697 2047 
L 1894 2003 
Q 2506 1872 2764 1633 
Q 3022 1394 3022 966 
Q 3022 478 2636 193 
Q 2250 -91 1575 -91 
Q 1294 -91 989 -36 
Q 684 19 347 128 
L 347 722 
Q 666 556 975 473 
Q 1284 391 1588 391 
Q 1994 391 2212 530 
Q 2431 669 2431 922 
Q 2431 1156 2273 1281 
Q 2116 1406 1581 1522 
L 1381 1569 
Q 847 1681 609 1914 
Q 372 2147 372 2553 
Q 372 3047 722 3315 
Q 1072 3584 1716 3584 
Q 2034 3584 2315 3537 
Q 2597 3491 2834 3397 
z
" transform="scale(0.015625)"/>
       <path id="DejaVuSans-69" d="M 603 3500 
L 1178 3500 
L 1178 0 
L 603 0 
L 603 3500 
z
M 603 4863 
L 1178 4863 
L 1178 4134 
L 603 4134 
L 603 4863 
z
" transform="scale(0.015625)"/>
       <path id="DejaVuSans-61" d="M 2194 1759 
Q 1497 1759 1228 1600 
Q 959 1441 959 1056 
Q 959 750 1161 570 
Q 1363 391 1709 391 
Q 2188 391 2477 730 
Q 2766 1069 2766 1631 
L 2766 1759 
L 2194 1759 
z
M 3341 1997 
L 3341 0 
L 2766 0 
L 2766 531 
Q 2569 213 2275 61 
Q 1981 -91 1556 -91 
Q 1019 -91 701 211 
Q 384 513 384 1019 
Q 384 1609 779 1909 
Q 1175 2209 1959 2209 
L 2766 2209 
L 2766 2266 
Q 2766 2663 2505 2880 
Q 2244 3097 1772 3097 
Q 1472 3097 1187 3025 
Q 903 2953 641 2809 
L 641 3341 
Q 956 3463 1253 3523 
Q 1550 3584 1831 3584 
Q 2591 3584 2966 3190 
Q 3341 2797 3341 1997 
z
" transform="scale(0.015625)"/>
      </defs>
      <use xlink:href="#DejaVuSans-65"/>
      <use xlink:href="#DejaVuSans-73" x="61.523438"/>
      <use xlink:href="#DejaVuSans-74" x="113.623047"/>
      <use xlink:href="#DejaVuSans-69" x="152.832031"/>
      <use xlink:href="#DejaVuSans-6d" x="180.615234"/>
      <use xlink:href="#DejaVuSans-61" x="278.027344"/>
      <use xlink:href="#DejaVuSans-74" x="339.306641"/>
      <use xlink:href="#DejaVuSans-65" x="378.515625"/>
      <use xlink:href="#DejaVuSans-64" x="440.039062"/>
     </g>
    </g>
   </g>
  </g>
 </g>
 <defs>
  <clipPath id="pb7213d843d">
   <rect x="0" y="-0" width="345.6" height="345.6"/>
  </clipPath>
 </defs>
</svg>
