<?xml version="1.0" encoding="utf-8" standalone="no"?>
<!DOCTYPE svg PUBLIC "-//W3C//DTD SVG 1.1//EN"
  "http://www.w3.org/Graphics/SVG/1.1/DTD/svg11.dtd">
<svg xmlns:xlink="http://www.w3.org/1999/xlink" width="357.656018pt" height="351.438563pt" viewBox="0 0 357.656018 351.438563" xmlns="http://www.w3.org/2000/svg" version="1.1">
 <metadata>
  <rdf:RDF xmlns:dc="http://purl.org/dc/elements/1.1/" xmlns:cc="http://creativecommons.org/ns#" xmlns:rdf="http://www.w3.org/1999/02/22-rdf-syntax-ns#">
   <cc:Work>
    <dc:type rdf:resource="http://purl.org/dc/dcmitype/StillImage"/>
    <dc:date>2022-02-10T00:49:55.868761</dc:date>
    <dc:format>image/svg+xml</dc:format>
    <dc:creator>
     <cc:Agent>
      <dc:title>Matplotlib v3.5.1, https://matplotlib.org/</dc:title>
     </cc:Agent>
    </dc:creator>
   </cc:Work>
  </rdf:RDF>
 </metadata>
 <defs>
  <style type="text/css">*{stroke-linejoin: round; stroke-linecap: butt}</style>
 </defs>
 <g id="figure_1">
  <g id="patch_1">
   <path d="M 0 351.438563 
L 357.656018 351.438563 
L 357.656018 0 
L 0 0 
z
" style="fill: #ffffff"/>
  </g>
  <g id="patch_2">
   <path d="M 0 345.6 
L 345.6 345.6 
L 345.6 -0 
L 0 -0 
z
" style="fill: #ffffff"/>
  </g>
  <g id="pane3d_1">
   <g id="patch_3">
    <path d="M 43.64011 276.021761 
L 104.335521 97.213163 
L 98.66794 8.134987 
L 32.634775 196.200845 
" style="fill: #f2f2f2; opacity: 0.5; stroke: #f2f2f2; stroke-linejoin: miter"/>
   </g>
  </g>
  <g id="pane3d_2">
   <g id="patch_4">
    <path d="M 104.335521 97.213163 
L 305.984932 143.221817 
L 316.100364 56.368059 
L 98.66794 8.134987 
" style="fill: #e6e6e6; opacity: 0.5; stroke: #e6e6e6; stroke-linejoin: miter"/>
   </g>
  </g>
  <g id="pane3d_3">
   <g id="patch_5">
    <path d="M 43.64011 276.021761 
L 255.924889 327.418502 
L 305.984932 143.221817 
L 104.335521 97.213163 
" style="fill: #ececec; opacity: 0.5; stroke: #ececec; stroke-linejoin: miter"/>
   </g>
  </g>
  <g id="axis3d_1">
   <g id="line2d_1">
    <path d="M 43.64011 276.021761 
L 255.924889 327.418502 
" style="fill: none; stroke: #000000; stroke-width: 0.8; stroke-linecap: square"/>
   </g>
   <g id="text_1">
    <!-- x [m] -->
    <g transform="translate(118.043506 337.34524)rotate(-346.389891)scale(0.17 -0.17)">
     <defs>
      <path id="DejaVuSans-78" d="M 3513 3500 
L 2247 1797 
L 3578 0 
L 2900 0 
L 1881 1375 
L 863 0 
L 184 0 
L 1544 1831 
L 300 3500 
L 978 3500 
L 1906 2253 
L 2834 3500 
L 3513 3500 
z
" transform="scale(0.015625)"/>
      <path id="DejaVuSans-20" transform="scale(0.015625)"/>
      <path id="DejaVuSans-5b" d="M 550 4863 
L 1875 4863 
L 1875 4416 
L 1125 4416 
L 1125 -397 
L 1875 -397 
L 1875 -844 
L 550 -844 
L 550 4863 
z
" transform="scale(0.015625)"/>
      <path id="DejaVuSans-6d" d="M 3328 2828 
Q 3544 3216 3844 3400 
Q 4144 3584 4550 3584 
Q 5097 3584 5394 3201 
Q 5691 2819 5691 2113 
L 5691 0 
L 5113 0 
L 5113 2094 
Q 5113 2597 4934 2840 
Q 4756 3084 4391 3084 
Q 3944 3084 3684 2787 
Q 3425 2491 3425 1978 
L 3425 0 
L 2847 0 
L 2847 2094 
Q 2847 2600 2669 2842 
Q 2491 3084 2119 3084 
Q 1678 3084 1418 2786 
Q 1159 2488 1159 1978 
L 1159 0 
L 581 0 
L 581 3500 
L 1159 3500 
L 1159 2956 
Q 1356 3278 1631 3431 
Q 1906 3584 2284 3584 
Q 2666 3584 2933 3390 
Q 3200 3197 3328 2828 
z
" transform="scale(0.015625)"/>
      <path id="DejaVuSans-5d" d="M 1947 4863 
L 1947 -844 
L 622 -844 
L 622 -397 
L 1369 -397 
L 1369 4416 
L 622 4416 
L 622 4863 
L 1947 4863 
z
" transform="scale(0.015625)"/>
     </defs>
     <use xlink:href="#DejaVuSans-78"/>
     <use xlink:href="#DejaVuSans-20" x="59.179688"/>
     <use xlink:href="#DejaVuSans-5b" x="90.966797"/>
     <use xlink:href="#DejaVuSans-6d" x="129.980469"/>
     <use xlink:href="#DejaVuSans-5d" x="227.392578"/>
    </g>
   </g>
   <g id="Line3DCollection_1">
    <path d="M 62.594756 280.610912 
L 122.354027 101.324295 
L 118.076812 12.44046 
" style="fill: none; stroke: #b0b0b0; stroke-width: 0.8"/>
    <path d="M 100.939134 289.894555 
L 158.79655 109.639079 
L 157.343305 21.150953 
" style="fill: none; stroke: #b0b0b0; stroke-width: 0.8"/>
    <path d="M 139.496744 299.229824 
L 195.43082 117.997613 
L 196.832528 29.910854 
" style="fill: none; stroke: #b0b0b0; stroke-width: 0.8"/>
    <path d="M 178.269369 308.617151 
L 232.258354 126.400243 
L 236.546381 38.720585 
" style="fill: none; stroke: #b0b0b0; stroke-width: 0.8"/>
    <path d="M 217.258814 318.056972 
L 269.280686 134.847317 
L 276.486787 47.580572 
" style="fill: none; stroke: #b0b0b0; stroke-width: 0.8"/>
   </g>
   <g id="xtick_1">
    <g id="line2d_2">
     <path d="M 63.09965 279.096156 
L 61.583596 283.644543 
" style="fill: none; stroke: #000000; stroke-width: 0.8; stroke-linecap: square"/>
    </g>
    <g id="text_2">
     <!-- 1.0 -->
     <g transform="translate(51.171996 304.987253)scale(0.1 -0.1)">
      <defs>
       <path id="DejaVuSans-31" d="M 794 531 
L 1825 531 
L 1825 4091 
L 703 3866 
L 703 4441 
L 1819 4666 
L 2450 4666 
L 2450 531 
L 3481 531 
L 3481 0 
L 794 0 
L 794 531 
z
" transform="scale(0.015625)"/>
       <path id="DejaVuSans-2e" d="M 684 794 
L 1344 794 
L 1344 0 
L 684 0 
L 684 794 
z
" transform="scale(0.015625)"/>
       <path id="DejaVuSans-30" d="M 2034 4250 
Q 1547 4250 1301 3770 
Q 1056 3291 1056 2328 
Q 1056 1369 1301 889 
Q 1547 409 2034 409 
Q 2525 409 2770 889 
Q 3016 1369 3016 2328 
Q 3016 3291 2770 3770 
Q 2525 4250 2034 4250 
z
M 2034 4750 
Q 2819 4750 3233 4129 
Q 3647 3509 3647 2328 
Q 3647 1150 3233 529 
Q 2819 -91 2034 -91 
Q 1250 -91 836 529 
Q 422 1150 422 2328 
Q 422 3509 836 4129 
Q 1250 4750 2034 4750 
z
" transform="scale(0.015625)"/>
      </defs>
      <use xlink:href="#DejaVuSans-31"/>
      <use xlink:href="#DejaVuSans-2e" x="63.623047"/>
      <use xlink:href="#DejaVuSans-30" x="95.410156"/>
     </g>
    </g>
   </g>
   <g id="xtick_2">
    <g id="line2d_3">
     <path d="M 101.428031 288.371389 
L 99.960006 292.94504 
" style="fill: none; stroke: #000000; stroke-width: 0.8; stroke-linecap: square"/>
    </g>
    <g id="text_3">
     <!-- 1.1 -->
     <g transform="translate(89.458889 314.305769)scale(0.1 -0.1)">
      <use xlink:href="#DejaVuSans-31"/>
      <use xlink:href="#DejaVuSans-2e" x="63.623047"/>
      <use xlink:href="#DejaVuSans-31" x="95.410156"/>
     </g>
    </g>
   </g>
   <g id="xtick_3">
    <g id="line2d_4">
     <path d="M 139.969459 297.698178 
L 138.550021 302.297304 
" style="fill: none; stroke: #000000; stroke-width: 0.8; stroke-linecap: square"/>
    </g>
    <g id="text_4">
     <!-- 1.2 -->
     <g transform="translate(127.958428 323.67604)scale(0.1 -0.1)">
      <defs>
       <path id="DejaVuSans-32" d="M 1228 531 
L 3431 531 
L 3431 0 
L 469 0 
L 469 531 
Q 828 903 1448 1529 
Q 2069 2156 2228 2338 
Q 2531 2678 2651 2914 
Q 2772 3150 2772 3378 
Q 2772 3750 2511 3984 
Q 2250 4219 1831 4219 
Q 1534 4219 1204 4116 
Q 875 4013 500 3803 
L 500 4441 
Q 881 4594 1212 4672 
Q 1544 4750 1819 4750 
Q 2544 4750 2975 4387 
Q 3406 4025 3406 3419 
Q 3406 3131 3298 2873 
Q 3191 2616 2906 2266 
Q 2828 2175 2409 1742 
Q 1991 1309 1228 531 
z
" transform="scale(0.015625)"/>
      </defs>
      <use xlink:href="#DejaVuSans-31"/>
      <use xlink:href="#DejaVuSans-2e" x="63.623047"/>
      <use xlink:href="#DejaVuSans-32" x="95.410156"/>
     </g>
    </g>
   </g>
   <g id="xtick_4">
    <g id="line2d_5">
     <path d="M 178.725714 307.076953 
L 177.355429 311.701768 
" style="fill: none; stroke: #000000; stroke-width: 0.8; stroke-linecap: square"/>
    </g>
    <g id="text_5">
     <!-- 1.3 -->
     <g transform="translate(166.672389 333.098498)scale(0.1 -0.1)">
      <defs>
       <path id="DejaVuSans-33" d="M 2597 2516 
Q 3050 2419 3304 2112 
Q 3559 1806 3559 1356 
Q 3559 666 3084 287 
Q 2609 -91 1734 -91 
Q 1441 -91 1130 -33 
Q 819 25 488 141 
L 488 750 
Q 750 597 1062 519 
Q 1375 441 1716 441 
Q 2309 441 2620 675 
Q 2931 909 2931 1356 
Q 2931 1769 2642 2001 
Q 2353 2234 1838 2234 
L 1294 2234 
L 1294 2753 
L 1863 2753 
Q 2328 2753 2575 2939 
Q 2822 3125 2822 3475 
Q 2822 3834 2567 4026 
Q 2313 4219 1838 4219 
Q 1578 4219 1281 4162 
Q 984 4106 628 3988 
L 628 4550 
Q 988 4650 1302 4700 
Q 1616 4750 1894 4750 
Q 2613 4750 3031 4423 
Q 3450 4097 3450 3541 
Q 3450 3153 3228 2886 
Q 3006 2619 2597 2516 
z
" transform="scale(0.015625)"/>
      </defs>
      <use xlink:href="#DejaVuSans-31"/>
      <use xlink:href="#DejaVuSans-2e" x="63.623047"/>
      <use xlink:href="#DejaVuSans-33" x="95.410156"/>
     </g>
    </g>
   </g>
   <g id="xtick_5">
    <g id="line2d_6">
     <path d="M 217.698597 316.508152 
L 216.378038 321.158871 
" style="fill: none; stroke: #000000; stroke-width: 0.8; stroke-linecap: square"/>
    </g>
    <g id="text_6">
     <!-- 1.4 -->
     <g transform="translate(205.602569 342.573581)scale(0.1 -0.1)">
      <defs>
       <path id="DejaVuSans-34" d="M 2419 4116 
L 825 1625 
L 2419 1625 
L 2419 4116 
z
M 2253 4666 
L 3047 4666 
L 3047 1625 
L 3713 1625 
L 3713 1100 
L 3047 1100 
L 3047 0 
L 2419 0 
L 2419 1100 
L 313 1100 
L 313 1709 
L 2253 4666 
z
" transform="scale(0.015625)"/>
      </defs>
      <use xlink:href="#DejaVuSans-31"/>
      <use xlink:href="#DejaVuSans-2e" x="63.623047"/>
      <use xlink:href="#DejaVuSans-34" x="95.410156"/>
     </g>
    </g>
   </g>
  </g>
  <g id="axis3d_2">
   <g id="line2d_7">
    <path d="M 305.984932 143.221817 
L 255.924889 327.418502 
" style="fill: none; stroke: #000000; stroke-width: 0.8; stroke-linecap: square"/>
   </g>
   <g id="text_7">
    <!-- y [m] -->
    <g transform="translate(308.079163 273.101756)rotate(-74.795681)scale(0.17 -0.17)">
     <defs>
      <path id="DejaVuSans-79" d="M 2059 -325 
Q 1816 -950 1584 -1140 
Q 1353 -1331 966 -1331 
L 506 -1331 
L 506 -850 
L 844 -850 
Q 1081 -850 1212 -737 
Q 1344 -625 1503 -206 
L 1606 56 
L 191 3500 
L 800 3500 
L 1894 763 
L 2988 3500 
L 3597 3500 
L 2059 -325 
z
" transform="scale(0.015625)"/>
     </defs>
     <use xlink:href="#DejaVuSans-79"/>
     <use xlink:href="#DejaVuSans-20" x="59.179688"/>
     <use xlink:href="#DejaVuSans-5b" x="90.966797"/>
     <use xlink:href="#DejaVuSans-6d" x="129.980469"/>
     <use xlink:href="#DejaVuSans-5d" x="227.392578"/>
    </g>
   </g>
   <g id="Line3DCollection_2">
    <path d="M 42.354101 168.519703 
L 52.540399 249.80152 
L 263.270772 300.389213 
" style="fill: none; stroke: #b0b0b0; stroke-width: 0.8"/>
    <path d="M 54.676239 133.425617 
L 63.840681 216.510905 
L 272.594946 266.080775 
" style="fill: none; stroke: #b0b0b0; stroke-width: 0.8"/>
    <path d="M 66.733985 99.084537 
L 74.916412 183.881818 
L 281.731067 232.464278 
" style="fill: none; stroke: #b0b0b0; stroke-width: 0.8"/>
    <path d="M 78.535756 65.472485 
L 85.774218 151.894736 
L 290.684769 199.518997 
" style="fill: none; stroke: #b0b0b0; stroke-width: 0.8"/>
    <path d="M 90.089618 32.566489 
L 96.420469 120.530894 
L 299.461461 167.225028 
" style="fill: none; stroke: #b0b0b0; stroke-width: 0.8"/>
   </g>
   <g id="xtick_6">
    <g id="line2d_8">
     <path d="M 261.55943 299.97839 
L 266.69471 301.21116 
" style="fill: none; stroke: #000000; stroke-width: 0.8; stroke-linecap: square"/>
    </g>
    <g id="text_8">
     <!-- 0.4 -->
     <g transform="translate(268.516608 315.865438)scale(0.1 -0.1)">
      <use xlink:href="#DejaVuSans-30"/>
      <use xlink:href="#DejaVuSans-2e" x="63.623047"/>
      <use xlink:href="#DejaVuSans-34" x="95.410156"/>
     </g>
    </g>
   </g>
   <g id="xtick_7">
    <g id="line2d_9">
     <path d="M 270.899909 265.678279 
L 275.986249 266.886059 
" style="fill: none; stroke: #000000; stroke-width: 0.8; stroke-linecap: square"/>
    </g>
    <g id="text_9">
     <!-- 0.6 -->
     <g transform="translate(277.670862 281.60952)scale(0.1 -0.1)">
      <defs>
       <path id="DejaVuSans-36" d="M 2113 2584 
Q 1688 2584 1439 2293 
Q 1191 2003 1191 1497 
Q 1191 994 1439 701 
Q 1688 409 2113 409 
Q 2538 409 2786 701 
Q 3034 994 3034 1497 
Q 3034 2003 2786 2293 
Q 2538 2584 2113 2584 
z
M 3366 4563 
L 3366 3988 
Q 3128 4100 2886 4159 
Q 2644 4219 2406 4219 
Q 1781 4219 1451 3797 
Q 1122 3375 1075 2522 
Q 1259 2794 1537 2939 
Q 1816 3084 2150 3084 
Q 2853 3084 3261 2657 
Q 3669 2231 3669 1497 
Q 3669 778 3244 343 
Q 2819 -91 2113 -91 
Q 1303 -91 875 529 
Q 447 1150 447 2328 
Q 447 3434 972 4092 
Q 1497 4750 2381 4750 
Q 2619 4750 2861 4703 
Q 3103 4656 3366 4563 
z
" transform="scale(0.015625)"/>
      </defs>
      <use xlink:href="#DejaVuSans-30"/>
      <use xlink:href="#DejaVuSans-2e" x="63.623047"/>
      <use xlink:href="#DejaVuSans-36" x="95.410156"/>
     </g>
    </g>
   </g>
   <g id="xtick_8">
    <g id="line2d_10">
     <path d="M 280.052029 232.069858 
L 285.090348 233.2534 
" style="fill: none; stroke: #000000; stroke-width: 0.8; stroke-linecap: square"/>
    </g>
    <g id="text_10">
     <!-- 0.8 -->
     <g transform="translate(286.641196 248.041842)scale(0.1 -0.1)">
      <defs>
       <path id="DejaVuSans-38" d="M 2034 2216 
Q 1584 2216 1326 1975 
Q 1069 1734 1069 1313 
Q 1069 891 1326 650 
Q 1584 409 2034 409 
Q 2484 409 2743 651 
Q 3003 894 3003 1313 
Q 3003 1734 2745 1975 
Q 2488 2216 2034 2216 
z
M 1403 2484 
Q 997 2584 770 2862 
Q 544 3141 544 3541 
Q 544 4100 942 4425 
Q 1341 4750 2034 4750 
Q 2731 4750 3128 4425 
Q 3525 4100 3525 3541 
Q 3525 3141 3298 2862 
Q 3072 2584 2669 2484 
Q 3125 2378 3379 2068 
Q 3634 1759 3634 1313 
Q 3634 634 3220 271 
Q 2806 -91 2034 -91 
Q 1263 -91 848 271 
Q 434 634 434 1313 
Q 434 1759 690 2068 
Q 947 2378 1403 2484 
z
M 1172 3481 
Q 1172 3119 1398 2916 
Q 1625 2713 2034 2713 
Q 2441 2713 2670 2916 
Q 2900 3119 2900 3481 
Q 2900 3844 2670 4047 
Q 2441 4250 2034 4250 
Q 1625 4250 1398 4047 
Q 1172 3844 1172 3481 
z
" transform="scale(0.015625)"/>
      </defs>
      <use xlink:href="#DejaVuSans-30"/>
      <use xlink:href="#DejaVuSans-2e" x="63.623047"/>
      <use xlink:href="#DejaVuSans-38" x="95.410156"/>
     </g>
    </g>
   </g>
   <g id="xtick_9">
    <g id="line2d_11">
     <path d="M 289.021432 199.132413 
L 294.012625 200.29244 
" style="fill: none; stroke: #000000; stroke-width: 0.8; stroke-linecap: square"/>
    </g>
    <g id="text_11">
     <!-- 1.0 -->
     <g transform="translate(295.433099 215.141871)scale(0.1 -0.1)">
      <use xlink:href="#DejaVuSans-31"/>
      <use xlink:href="#DejaVuSans-2e" x="63.623047"/>
      <use xlink:href="#DejaVuSans-30" x="95.410156"/>
     </g>
    </g>
   </g>
   <g id="xtick_10">
    <g id="line2d_12">
     <path d="M 297.813535 166.846048 
L 302.758471 167.983254 
" style="fill: none; stroke: #000000; stroke-width: 0.8; stroke-linecap: square"/>
    </g>
    <g id="text_12">
     <!-- 1.2 -->
     <g transform="translate(304.051841 182.889878)scale(0.1 -0.1)">
      <use xlink:href="#DejaVuSans-31"/>
      <use xlink:href="#DejaVuSans-2e" x="63.623047"/>
      <use xlink:href="#DejaVuSans-32" x="95.410156"/>
     </g>
    </g>
   </g>
  </g>
  <g id="axis3d_3">
   <g id="line2d_13">
    <path d="M 305.984932 143.221817 
L 316.100364 56.368059 
" style="fill: none; stroke: #000000; stroke-width: 0.8; stroke-linecap: square"/>
   </g>
   <g id="text_13">
    <!-- z [m] -->
    <g transform="translate(349.036928 105.868505)rotate(-83.356969)scale(0.17 -0.17)">
     <defs>
      <path id="DejaVuSans-7a" d="M 353 3500 
L 3084 3500 
L 3084 2975 
L 922 459 
L 3084 459 
L 3084 0 
L 275 0 
L 275 525 
L 2438 3041 
L 353 3041 
L 353 3500 
z
" transform="scale(0.015625)"/>
     </defs>
     <use xlink:href="#DejaVuSans-7a"/>
     <use xlink:href="#DejaVuSans-20" x="52.490234"/>
     <use xlink:href="#DejaVuSans-5b" x="84.277344"/>
     <use xlink:href="#DejaVuSans-6d" x="123.291016"/>
     <use xlink:href="#DejaVuSans-5d" x="220.703125"/>
    </g>
   </g>
   <g id="Line3DCollection_3">
    <path d="M 308.285019 123.472662 
L 103.045681 76.940565 
L 41.143972 257.917448 
" style="fill: none; stroke: #b0b0b0; stroke-width: 0.8"/>
    <path d="M 311.332405 97.307008 
L 101.33779 50.097407 
L 37.831137 233.889692 
" style="fill: none; stroke: #b0b0b0; stroke-width: 0.8"/>
    <path d="M 314.525157 69.893197 
L 99.549673 21.993322 
L 34.353283 208.665066 
" style="fill: none; stroke: #b0b0b0; stroke-width: 0.8"/>
   </g>
   <g id="xtick_11">
    <g id="line2d_14">
     <path d="M 306.619005 123.094941 
L 311.618232 124.228372 
" style="fill: none; stroke: #000000; stroke-width: 0.8; stroke-linecap: square"/>
    </g>
    <g id="text_14">
     <!-- 1.4 -->
     <g transform="translate(316.668591 122.850073)scale(0.1 -0.1)">
      <use xlink:href="#DejaVuSans-31"/>
      <use xlink:href="#DejaVuSans-2e" x="63.623047"/>
      <use xlink:href="#DejaVuSans-34" x="95.410156"/>
     </g>
    </g>
   </g>
   <g id="xtick_12">
    <g id="line2d_15">
     <path d="M 309.627215 96.923658 
L 314.744024 98.073986 
" style="fill: none; stroke: #000000; stroke-width: 0.8; stroke-linecap: square"/>
    </g>
    <g id="text_15">
     <!-- 1.6 -->
     <g transform="translate(320.087474 96.562389)scale(0.1 -0.1)">
      <use xlink:href="#DejaVuSans-31"/>
      <use xlink:href="#DejaVuSans-2e" x="63.623047"/>
      <use xlink:href="#DejaVuSans-36" x="95.410156"/>
     </g>
    </g>
   </g>
   <g id="xtick_13">
    <g id="line2d_16">
     <path d="M 312.778906 69.504106 
L 318.018959 70.671671 
" style="fill: none; stroke: #000000; stroke-width: 0.8; stroke-linecap: square"/>
    </g>
    <g id="text_16">
     <!-- 1.8 -->
     <g transform="translate(323.669005 69.024111)scale(0.1 -0.1)">
      <use xlink:href="#DejaVuSans-31"/>
      <use xlink:href="#DejaVuSans-2e" x="63.623047"/>
      <use xlink:href="#DejaVuSans-38" x="95.410156"/>
     </g>
    </g>
   </g>
  </g>
  <g id="axes_1">
   <g id="line2d_17">
    <path d="M 221.285736 200.178574 
L 215.376049 200.643346 
L 207.656343 201.654246 
L 205.657669 201.974964 
L 203.167643 202.285289 
L 202.341881 202.544343 
L 193.71486 203.974831 
L 190.916181 204.441711 
L 187.254646 205.109644 
L 179.557533 206.289425 
L 177.185074 206.672962 
L 174.728483 207.083753 
L 170.025735 207.850293 
L 158.739898 209.396568 
L 146.616263 210.697086 
L 142.910338 210.91424 
L 139.378174 211.036494 
L 132.176932 211.316998 
L 120.801746 211.628717 
L 118.874859 211.601337 
L 116.732717 211.662623 
L 116.226558 211.653314 
L 116.052057 211.658863 
L 117.820398 211.31077 
L 120.459762 210.878399 
L 122.450349 210.621606 
L 124.707057 210.294933 
L 131.336 209.314487 
L 138.12064 208.609363 
L 143.571059 207.889177 
L 152.569905 206.678033 
L 160.933641 205.42616 
L 164.613883 204.907078 
L 180.922384 202.5463 
L 200.168726 199.379815 
L 201.731618 199.109143 
L 207.289478 198.355259 
L 211.997769 197.974041 
L 215.052322 197.791777 
L 221.093715 197.500756 
L 223.169417 197.364947 
L 232.27872 196.772914 
L 232.75058 196.619274 
L 237.016001 196.095074 
L 240.421862 195.311801 
L 244.923368 194.094294 
L 245.201315 193.874358 
L 245.844688 193.765599 
L 246.008923 193.507773 
L 247.557316 192.891027 
L 248.230548 192.58219 
L 248.546022 192.435908 
L 249.413774 192.269649 
L 250.961596 191.234897 
L 251.344653 190.72597 
L 251.492818 190.606186 
L 251.431497 190.456445 
L 251.488827 190.176597 
L 251.35935 190.028485 
L 250.748868 189.899474 
L 249.369604 189.925177 
L 247.825673 190.235372 
L 246.239385 190.359435 
L 245.802171 190.53764 
L 245.161308 190.668366 
L 244.721232 190.898229 
L 238.812973 192.414093 
L 235.49185 193.257944 
L 230.930169 194.253968 
L 225.821839 195.063336 
L 222.14246 195.757719 
L 204.842421 198.276041 
L 201.778481 198.590468 
L 200.057117 198.798809 
L 194.409298 199.416895 
L 174.043732 201.880227 
L 171.957305 202.025614 
L 153.619424 204.683853 
L 146.755798 205.958919 
L 137.968189 208.170665 
L 135.837806 208.815147 
L 122.017009 212.457194 
L 121.106751 212.520231 
L 120.850346 212.321393 
L 120.867317 212.170307 
L 121.092582 212.027399 
L 121.124321 211.916121 
L 122.269789 211.528069 
L 126.53666 209.899504 
L 127.020791 209.690557 
L 128.213435 209.295017 
L 130.00688 208.655709 
L 140.778974 204.801107 
L 146.926404 203.225133 
L 149.762335 202.658534 
L 164.123791 199.483559 
L 168.144694 198.378341 
L 171.229907 197.578325 
L 177.064883 196.005796 
L 186.0042 194.199043 
L 191.440391 193.322251 
L 199.004075 192.483971 
L 200.555383 192.373813 
L 207.244235 192.386103 
L 212.567637 192.50375 
L 217.991513 192.197312 
L 231.40627 190.812982 
L 235.271625 190.159808 
L 236.079205 190.109598 
L 239.697176 188.964115 
L 239.638604 188.896397 
L 238.351262 188.76594 
L 235.441129 188.930978 
L 227.152334 189.809947 
L 224.880028 190.172111 
L 222.411139 190.533583 
L 219.919732 191.007346 
L 214.663078 191.742543 
L 198.34938 194.757596 
L 196.080392 195.128587 
L 192.543052 195.68936 
L 185.320504 196.749806 
L 169.369507 198.440835 
L 165.881674 198.676285 
L 160.195958 199.173966 
L 142.533921 199.816194 
L 138.593077 199.976908 
L 134.196941 200.386865 
L 132.539461 200.645145 
L 127.231378 201.836201 
L 124.298152 202.604359 
L 117.17395 205.142746 
L 116.742224 205.430461 
L 115.572412 205.806879 
L 111.939603 207.551817 
L 110.708554 208.141475 
L 110.314084 208.464851 
L 109.927641 208.807489 
L 110.323569 208.836263 
L 111.006668 208.749051 
L 112.146973 208.531668 
L 112.948076 208.293106 
L 118.769967 206.97903 
L 122.660486 206.272622 
L 132.353218 204.906876 
L 135.669869 204.48019 
L 181.318516 198.44 
L 190.673908 196.827131 
L 194.933414 196.139728 
L 199.224443 195.037762 
L 202.175162 194.177177 
L 202.936227 193.973698 
L 203.299207 193.722773 
L 204.403495 193.240251 
L 204.621238 192.912176 
L 205.76482 192.133469 
L 205.668784 191.784936 
L 206.322045 191.284983 
L 206.219079 191.017891 
L 206.430189 190.564021 
L 206.555582 190.108825 
L 206.81451 189.939113 
L 206.882289 189.59091 
L 206.594607 189.361762 
L 206.66837 189.242769 
L 206.594033 189.474408 
L 206.84307 189.585731 
L 206.51729 189.664646 
L 206.401747 190.415353 
L 205.960496 190.74563 
L 205.997877 190.857341 
L 206.246984 190.95562 
L 205.2573 191.173065 
L 205.246527 191.123768 
L 205.427038 190.911433 
L 205.036547 190.480776 
L 204.918363 189.977176 
L 204.370411 186.728421 
L 204.187526 185.610994 
L 204.4167 185.04724 
L 204.11536 184.422898 
L 203.807956 182.631702 
L 203.882418 182.015149 
L 203.666116 180.75523 
L 203.590252 179.456041 
L 203.339069 178.198478 
L 203.369197 174.499465 
L 203.537769 173.880515 
L 203.576752 173.268394 
L 203.49077 172.671806 
L 203.643765 172.105103 
L 203.684129 171.067025 
L 204.231491 168.993828 
L 204.355123 167.986803 
L 204.636974 167.017747 
L 205.611825 164.008214 
L 205.92114 163.496416 
L 206.562167 161.906808 
L 206.911739 161.353589 
L 207.063105 160.780906 
L 207.406952 160.258031 
L 207.519016 159.663891 
L 209.18184 156.25116 
L 209.302973 155.638453 
L 209.606134 155.10891 
L 209.73213 154.480064 
L 211.178149 151.174783 
L 211.479819 150.660424 
L 211.545608 150.092065 
L 212.514867 148.671305 
L 212.52725 148.10605 
L 213.330238 146.736405 
L 213.478888 146.287826 
L 214.567496 144.768279 
L 214.97669 144.510615 
L 215.403708 143.879239 
L 215.403708 143.879239 
" clip-path="url(#p2db2817d54)" style="fill: none; stroke: #008000; stroke-width: 1.5; stroke-linecap: square"/>
   </g>
   <g id="line2d_18">
    <path d="M 218.090395 143.097939 
L 218.456772 143.68804 
L 218.427666 143.891435 
L 218.666167 144.37201 
L 218.533058 144.654055 
L 218.587444 145.364321 
L 218.229861 146.515362 
L 218.292556 146.985929 
L 217.780463 148.38435 
L 217.81859 148.926258 
L 217.581215 149.405018 
L 217.563979 150.014626 
L 216.623585 152.386001 
L 216.189529 154.399198 
L 216.239392 155.101321 
L 215.878648 155.802178 
L 215.760727 156.502065 
L 215.406179 157.147646 
L 215.289478 157.809172 
L 214.95996 158.488946 
L 214.572585 159.904103 
L 213.970586 161.377308 
L 212.775698 165.117133 
L 212.474331 165.842942 
L 212.114754 167.294883 
L 211.307191 169.584499 
L 211.208034 170.341219 
L 210.763046 171.79609 
L 210.664879 172.51537 
L 210.363095 173.218935 
L 209.936065 176.036752 
L 209.75856 176.727125 
L 209.749863 177.420642 
L 209.286129 179.427591 
L 209.108758 180.806594 
L 208.782027 182.128627 
L 208.752949 182.772926 
L 208.558933 183.423152 
L 208.564085 184.107158 
L 208.294365 185.462233 
L 206.749562 190.454654 
L 205.071569 194.772535 
L 204.619934 195.486174 
L 204.537348 196.249384 
L 203.915369 196.973281 
L 202.448777 200.030288 
L 201.311253 201.605717 
L 201.087392 202.424354 
L 200.378789 203.173528 
L 199.525948 204.748291 
L 198.896503 205.529249 
L 198.432067 206.317935 
L 198.167415 207.141082 
L 197.113038 208.708626 
L 196.402899 209.484176 
L 195.007435 211.865928 
L 193.227362 214.090737 
L 192.36765 215.552287 
L 191.392553 216.993744 
L 190.033045 219.07257 
L 189.518518 219.716123 
L 189.158548 220.414904 
L 188.614335 221.014452 
L 188.350029 221.667686 
L 187.14593 223.605996 
L 186.167737 225.468319 
L 185.456001 227.214841 
L 183.798127 231.102839 
L 183.443673 232.326366 
L 183.089204 233.51382 
L 182.909199 234.122764 
L 182.598211 234.750824 
L 182.312702 236.018555 
L 182.156652 236.69056 
L 181.885286 237.365685 
L 181.602233 238.792267 
L 180.74895 241.660395 
L 179.663683 245.762597 
L 179.325411 247.16032 
L 178.354098 250.386313 
L 178.303953 250.993703 
L 177.625272 253.055795 
L 177.275278 254.432518 
L 176.938309 255.622994 
L 176.745654 256.274254 
L 176.499367 257.091359 
L 176.17823 258.515935 
L 176.28027 258.488118 
L 176.47343 258.218299 
L 178.988009 251.295237 
L 179.303284 250.7842 
L 180.394823 247.349113 
L 180.690702 246.771022 
L 180.969356 245.678714 
L 181.601833 243.79166 
L 182.546535 239.821164 
L 182.782433 239.1804 
L 182.898 238.523611 
L 183.586467 236.450583 
L 183.667179 235.743387 
L 184.068916 234.33768 
L 184.982657 230.841518 
L 185.209401 230.052901 
L 185.316161 229.236255 
L 185.627929 228.449671 
L 186.267407 226.053412 
L 186.815738 224.409658 
L 186.977701 223.552361 
L 187.339263 222.730133 
L 189.444037 215.279886 
L 189.849468 214.452898 
L 190.330383 212.796935 
L 190.684995 212.008632 
L 191.000201 210.384483 
L 192.702838 204.602311 
L 193.06601 203.820468 
L 193.289175 202.244855 
L 193.716384 201.496738 
L 193.870141 200.704273 
L 194.217081 199.975822 
L 194.365268 199.213827 
L 194.785896 198.534342 
L 194.918153 197.837116 
L 195.589887 196.464348 
L 195.724777 195.066097 
L 196.647156 192.965581 
L 196.620797 192.208753 
L 197.375396 190.816986 
L 197.639146 189.366841 
L 198.048216 188.687847 
L 198.570923 188.041171 
L 198.573684 187.317215 
L 198.898156 186.637564 
L 199.075148 185.861905 
L 199.438684 185.204629 
L 201.682209 178.802167 
L 202.077236 177.325666 
L 202.888565 175.155132 
L 202.881873 174.312872 
L 203.94057 170.221583 
L 204.464614 167.709586 
L 204.821321 166.104164 
L 205.236555 164.572444 
L 205.535625 163.776571 
L 206.036473 161.494504 
L 206.324797 160.746013 
L 206.439535 160.050496 
L 206.75116 159.387709 
L 206.944413 158.710788 
L 207.783341 156.808053 
L 207.97198 156.12288 
L 208.524231 154.904226 
L 208.701499 154.291927 
L 209.105004 153.741721 
L 209.276718 153.159467 
L 209.630335 152.646921 
L 209.826453 152.111279 
L 210.359657 151.152697 
L 210.994849 149.691732 
L 211.327464 149.259841 
L 211.418811 148.816565 
L 211.829345 148.415913 
L 212.410949 147.085502 
L 213.16158 146.272799 
L 213.240878 145.91577 
L 213.733286 145.310705 
L 214.448414 144.264648 
L 214.722879 143.987449 
L 214.7477 144.170378 
L 214.826644 144.915694 
L 214.412852 146.442838 
L 214.15606 147.240141 
L 214.131934 147.901285 
L 213.762684 149.004384 
L 213.815159 149.364379 
L 213.706485 149.692154 
L 213.102385 150.496421 
L 213.080605 150.964545 
L 212.873411 151.341429 
L 212.772818 151.804759 
L 212.551308 152.206116 
L 212.505191 152.732515 
L 212.194702 153.162518 
L 212.189331 153.646679 
L 211.898185 154.140062 
L 211.848078 154.64535 
L 211.154732 156.223132 
L 211.088894 156.792661 
L 210.511777 158.41369 
L 210.317728 158.990734 
L 210.330978 159.554104 
L 209.861522 160.06823 
L 209.74656 160.638598 
L 209.304804 161.234661 
L 209.120258 161.779625 
L 208.668401 162.397029 
L 208.53668 163.057842 
L 207.755534 164.29189 
L 206.841431 166.282545 
L 206.034245 167.553137 
L 204.797302 169.829757 
L 203.675878 171.427643 
L 203.258079 172.24233 
L 202.001068 173.866138 
L 200.305257 176.274259 
L 199.628494 177.078961 
L 197.876612 179.619884 
L 197.237256 180.473947 
L 196.245595 182.188373 
L 195.655447 183.006175 
L 195.178932 183.856457 
L 194.593132 184.670797 
L 194.171217 185.479988 
L 193.98207 186.3495 
L 193.191741 187.148717 
L 192.888316 187.974343 
L 191.842796 189.626615 
L 190.431484 192.91719 
L 190.306193 193.739707 
L 189.872789 194.491869 
L 189.40875 196.035005 
L 188.649607 197.616505 
L 188.300211 198.371634 
L 188.110111 199.139132 
L 187.646276 199.849691 
L 187.700168 200.643969 
L 186.89636 202.089846 
L 186.107696 203.484938 
L 186.012035 204.246644 
L 185.137669 205.641849 
L 184.937748 206.349495 
L 183.846298 208.556486 
L 183.089998 209.982654 
L 179.819457 217.387863 
L 178.50831 220.464138 
L 167.564571 242.019486 
L 167.045332 242.693108 
L 166.401893 244.104967 
L 165.672058 245.479577 
L 162.586795 250.86247 
L 160.388935 253.890607 
L 159.578006 254.706193 
L 158.703058 255.47387 
L 157.899985 256.108701 
L 154.515489 259.18839 
L 154.166093 259.608681 
L 153.801305 260.242706 
L 154.078839 260.488175 
L 154.952974 260.240771 
L 156.415094 259.346752 
L 158.185988 257.327223 
L 158.639203 256.629853 
L 159.073367 255.840621 
L 159.203318 255.366009 
L 159.207617 254.892679 
L 159.755026 253.363822 
L 159.999316 252.198198 
L 160.338631 250.939685 
L 160.402787 249.59814 
L 160.466871 248.258102 
L 160.569675 243.661734 
L 160.434211 240.16921 
L 160.459752 237.5135 
L 160.678976 233.883821 
L 160.827587 232.223861 
L 161.721935 226.481846 
L 162.025196 224.71539 
L 162.314912 223.84139 
L 162.657147 222.100495 
L 164.661508 216.313139 
L 165.901797 213.367715 
L 166.193412 212.397356 
L 169.146917 205.760567 
L 169.791475 204.852592 
L 170.065504 203.925537 
L 172.47265 199.4979 
L 172.745728 198.585853 
L 173.372543 197.719734 
L 175.007636 194.198319 
L 175.638631 193.354537 
L 175.860767 192.482785 
L 177.345846 190.117414 
L 177.635416 189.337253 
L 178.562065 187.827325 
L 178.762242 187.051352 
L 179.934554 184.951447 
L 180.157678 184.287203 
L 180.62627 183.606556 
L 181.573595 181.664107 
L 182.06998 181.065514 
L 182.247718 180.436422 
L 182.537494 179.864508 
L 182.720148 179.219318 
L 183.338118 178.061104 
L 183.67168 177.444958 
L 184.175876 175.737899 
L 184.775858 174.722643 
L 185.578909 172.584308 
L 185.651087 172.038943 
L 186.073611 171.600607 
L 186.140579 171.059913 
L 186.479943 170.595431 
L 186.634849 170.039954 
L 186.896176 169.545278 
L 186.92394 168.996716 
L 187.213719 168.544977 
L 187.65254 167.568776 
L 189.02796 165.040098 
L 189.506598 164.575583 
L 189.6746 164.026587 
L 190.333904 163.131264 
L 190.758119 162.695517 
L 190.973252 162.239397 
L 192.471204 160.369609 
L 192.945657 159.782845 
L 193.476678 159.331412 
L 194.805156 158.956215 
L 195.085734 159.141791 
L 195.243783 159.882211 
L 195.04861 160.390003 
L 194.689464 161.572412 
L 193.896922 163.521559 
L 192.75711 166.596654 
L 192.305463 167.969175 
L 191.920693 168.64727 
L 191.525968 170.094449 
L 190.773439 171.554688 
L 190.7868 172.409568 
L 190.036124 174.762242 
L 187.74262 183.218202 
L 187.617878 185.11846 
L 187.36327 186.104213 
L 187.241785 187.054636 
L 187.222244 188.109004 
L 186.438253 188.925537 
L 186.19326 189.892074 
L 186.178668 190.918579 
L 185.88385 191.910967 
L 185.667914 193.937074 
L 185.461593 194.92795 
L 185.388557 195.90837 
L 185.192331 196.878675 
L 185.124469 197.830519 
L 184.859595 198.774161 
L 184.271852 204.056712 
L 184.412994 204.902558 
L 184.243901 205.70725 
L 183.869192 209.90418 
L 183.604866 210.430281 
L 183.3649 211.329834 
L 183.107976 211.680209 
L 182.825434 212.453793 
L 181.755525 213.618501 
L 181.092009 213.897103 
L 180.586023 213.739744 
L 179.992778 213.414399 
L 177.776019 211.996808 
L 174.363732 210.079641 
L 160.03176 203.665775 
L 157.906002 202.762672 
L 153.736 200.919367 
L 149.066629 199.031993 
L 139.760662 195.182255 
L 127.317297 190.604658 
L 118.488592 187.33094 
L 99.180326 179.470842 
L 96.062823 178.123334 
L 81.638294 171.858372 
L 80.333414 171.269281 
L 79.853248 171.055284 
L 81.947959 172.157091 
L 83.659012 172.975896 
L 85.069992 173.634723 
L 86.544236 174.388793 
L 101.535329 180.657095 
L 107.068145 182.632095 
L 115.9541 186.196841 
L 119.0261 187.372704 
L 131.136524 192.515427 
L 138.586701 195.617906 
L 151.493401 201.029268 
L 155.653846 202.743718 
L 158.351303 203.829974 
L 169.682009 208.574099 
L 175.364469 210.980921 
L 179.840404 213.071888 
L 183.237743 214.649357 
L 188.920841 217.331463 
L 191.297172 218.433134 
L 201.367884 223.615756 
L 216.52403 232.509225 
L 218.317433 233.627823 
L 224.60514 237.285319 
L 230.531736 240.616807 
L 232.967479 241.999417 
L 235.04964 243.249569 
L 237.864081 244.793592 
L 242.535479 247.735263 
L 241.860621 247.273442 
L 241.759832 247.092474 
L 240.774416 246.418892 
L 239.437443 245.60163 
L 237.485796 244.547256 
L 236.077233 243.753751 
L 229.698969 240.419338 
L 226.45744 238.741236 
L 224.201189 237.587739 
L 219.461252 235.243893 
L 216.963409 234.093405 
L 212.252623 231.798074 
L 194.677142 223.974342 
L 192.684734 222.953724 
L 190.381374 221.853483 
L 188.856064 221.334769 
L 187.98804 220.793211 
L 184.591972 219.202337 
L 177.238355 215.623111 
L 175.982139 215.149122 
L 174.125814 214.152801 
L 138.732284 197.265784 
L 137.836796 196.757272 
L 134.576758 195.349567 
L 131.458849 193.844978 
L 119.104752 188.020415 
L 115.953853 186.604175 
L 107.926003 182.793751 
L 96.679751 177.926072 
L 83.938152 172.277535 
L 80.159507 170.353744 
L 79.781009 170.291787 
L 80.199181 170.466943 
L 81.001627 170.932909 
L 81.395212 171.163515 
L 82.001798 171.363072 
L 83.018099 171.952859 
L 88.556583 174.511109 
L 111.725373 185.473223 
L 121.518559 190.291546 
L 125.695714 192.243111 
L 132.747927 195.217807 
L 135.46738 196.477512 
L 140.805706 198.849085 
L 149.924625 202.883854 
L 162.964943 208.472015 
L 172.711257 213.120667 
L 185.161229 219.670179 
L 194.408768 224.152533 
L 197.005748 225.463805 
L 202.370693 227.972286 
L 210.228767 232.129876 
L 212.828727 233.572229 
L 216.370183 235.539295 
L 219.053942 237.131714 
L 229.344345 242.701713 
L 235.157206 245.554455 
L 240.012437 247.791733 
L 242.277098 248.847395 
L 248.026964 251.305965 
L 249.352818 251.940967 
L 254.257997 254.10784 
L 255.242922 254.499887 
L 257.904704 255.478855 
L 258.162737 255.336621 
L 257.974269 255.114126 
L 257.181097 254.668629 
L 255.095743 253.757228 
L 254.248069 253.312249 
L 252.400653 252.491837 
L 246.563523 249.826752 
L 245.800593 249.429993 
L 244.062818 248.706655 
L 239.65927 246.641741 
L 238.902125 246.19172 
L 236.114233 244.803092 
L 234.432759 243.941327 
L 230.665799 242.146304 
L 228.065792 240.704944 
L 224.418368 238.767719 
L 221.658159 237.226342 
L 217.926384 235.103589 
L 215.962494 234.009162 
L 209.801614 230.714861 
L 203.095742 227.464682 
L 200.884975 226.296593 
L 195.86116 223.896484 
L 190.935825 221.389249 
L 188.371861 220.135604 
L 185.811614 218.851764 
L 181.87095 217.00901 
L 179.193664 215.678195 
L 176.37554 214.43668 
L 173.611142 213.152276 
L 158.770127 206.763759 
L 154.485756 204.978789 
L 138.330522 198.225814 
L 121.147448 191.414336 
L 111.533378 187.788307 
L 106.939628 186.1054 
L 103.28784 184.771564 
L 97.095473 182.349609 
L 96.785276 182.070935 
L 95.908522 181.846208 
L 95.049453 181.39528 
L 93.523815 180.663258 
L 93.021561 180.320981 
L 93.006268 180.081016 
L 93.414713 179.989772 
L 94.372229 180.070741 
L 95.035944 180.313467 
L 96.739664 180.788131 
L 97.28024 181.033041 
L 98.626791 181.492774 
L 100.127454 182.032214 
L 106.397333 184.504422 
L 107.301579 184.960042 
L 108.386839 185.290504 
L 109.371392 185.789976 
L 111.41229 186.576116 
L 114.608185 187.914576 
L 115.713571 188.504689 
L 122.650863 191.451405 
L 127.312092 193.655834 
L 142.827784 201.157299 
L 148.860662 204.3382 
L 165.228396 212.59501 
L 170.824798 215.566681 
L 178.717252 219.467202 
L 182.237945 221.016633 
L 195.571203 227.297734 
L 205.695135 230.850833 
L 209.984452 231.968599 
L 211.709812 232.368362 
L 214.203094 232.657254 
L 214.472684 232.490136 
L 213.883503 232.260488 
L 208.061999 230.101067 
L 206.410646 229.554145 
L 204.567393 228.96785 
L 198.350699 227.3937 
L 197.80836 227.18682 
L 197.323768 227.078917 
L 196.199452 226.791127 
L 194.986451 226.767502 
L 193.599128 226.481922 
L 190.462454 225.216938 
L 189.041781 224.596316 
L 188.510567 224.630901 
L 188.235998 224.567049 
L 187.952414 224.45186 
L 187.568509 224.07606 
L 187.510524 223.953567 
L 187.544798 223.955687 
L 187.452043 223.879486 
L 187.452043 223.879486 
" clip-path="url(#p2db2817d54)" style="fill: none; stroke: #008000; stroke-width: 1.5; stroke-linecap: square"/>
   </g>
   <g id="line2d_19">
    <path d="M 280.056519 188.228071 
L 258.238819 191.840197 
L 236.476733 198.04842 
L 212.088665 197.701278 
L 187.938326 203.313858 
L 186.091168 213.824523 
L 173.237788 218.381695 
L 163.920529 212.456614 
L 154.223468 209.389832 
L 179.856545 212.071077 
L 161.283052 189.100529 
L 178.808833 174.67121 
L 199.491656 169.083667 
L 221.696622 177.701404 
L 210.172266 142.795125 
L 237.334032 155.803859 
L 268.424551 173.00916 
L 241.441814 164.523916 
L 204.853015 154.734417 
L 181.831717 156.083858 
L 144.180911 143.460372 
L 139.479529 140.575198 
L 136.453278 148.806923 
L 120.029506 157.963882 
L 121.437315 162.096964 
L 100.962176 154.152673 
L 107.535173 143.96593 
L 151.300937 164.718391 
L 181.005659 162.557159 
L 215.281744 173.709584 
L 236.076701 174.794215 
L 269.058366 164.397937 
L 267.374318 164.390303 
L 270.10571 168.905196 
L 272.235231 162.407694 
L 292.033077 144.666743 
L 293.207997 136.972114 
L 272.815794 103.326777 
L 299.131648 113.075726 
L 279.832889 88.836867 
L 273.700296 88.000591 
L 276.668008 91.812686 
L 255.420196 112.155943 
L 260.950892 137.061888 
L 243.478505 131.972865 
L 242.807902 141.988371 
L 237.455354 155.955408 
L 233.333812 171.720387 
L 222.620996 181.248307 
L 221.973433 203.987951 
L 224.554056 217.217509 
L 218.166043 221.602193 
L 215.188415 211.643715 
L 198.662784 201.577267 
L 196.364903 194.629614 
L 196.462117 175.433965 
L 201.186331 156.113285 
L 206.353221 147.871857 
L 201.229732 141.241864 
L 210.908359 127.06598 
L 183.640212 137.091971 
L 191.526812 129.937759 
L 194.529031 115.44663 
L 222.297404 126.429885 
L 209.518427 124.192777 
L 192.541314 130.581679 
L 193.703524 148.904935 
L 169.160049 161.579856 
L 152.611696 171.250043 
L 128.600133 176.028022 
L 121.912135 183.085188 
L 121.98682 205.569272 
L 115.240704 225.875438 
L 118.224307 230.986772 
L 120.061019 231.822597 
L 123.547712 233.674986 
L 136.881404 230.940226 
L 135.940144 233.331862 
L 146.87073 219.778428 
L 139.560481 195.516296 
L 147.821184 201.299671 
L 160.67826 184.343463 
L 175.576295 164.107702 
L 184.445364 166.067353 
L 180.771922 155.43906 
L 189.855493 168.860793 
L 181.051102 178.328072 
L 176.539316 193.812449 
L 163.937507 212.182592 
L 155.586415 222.970023 
L 146.546575 220.462971 
L 142.879156 202.359328 
L 134.085905 204.532928 
L 87.243913 204.728875 
L 82.836507 209.747471 
L 59.663284 200.594618 
L 56.029348 191.448623 
L 59.240644 191.622046 
L 69.088327 193.994362 
L 88.107945 196.633026 
L 106.916614 207.908453 
L 116.594779 227.261705 
L 146.778795 241.535174 
L 166.934395 250.413584 
L 186.610875 258.750367 
L 191.444818 266.688339 
L 178.288704 287.099959 
L 177.093066 286.585089 
L 158.807773 281.345064 
L 145.362818 273.642645 
L 137.573485 258.873229 
L 129.16838 248.382339 
L 114.822508 244.245666 
L 104.468603 231.943139 
L 87.490791 226.940453 
L 88.137801 220.604482 
L 87.467753 225.538627 
L 73.379027 224.306104 
L 81.668689 223.842968 
L 85.021223 229.815848 
L 97.512128 245.615916 
L 117.603767 254.271035 
L 129.15024 259.474217 
L 156.512656 267.690804 
L 163.203969 269.140386 
L 201.564307 281.759279 
L 216.334993 290.22519 
L 245.808644 298.750845 
L 242.87489 290.900733 
L 232.806754 284.42747 
L 221.503437 267.777855 
L 231.436162 278.370444 
L 217.501873 269.85042 
L 202.534172 262.482198 
L 182.586522 259.556509 
L 163.297557 247.352225 
L 141.737421 244.383702 
L 109.668927 239.305496 
L 97.45024 231.85802 
L 95.99001 230.549329 
L 116.745826 239.104516 
L 136.08473 244.975327 
L 150.473831 255.779116 
L 156.965663 257.611502 
L 178.02816 265.635553 
L 203.844116 267.78641 
L 210.307011 268.570113 
L 210.744532 271.621288 
L 206.066546 269.57445 
L 198.377632 255.268411 
L 200.284561 254.983514 
L 200.359835 254.461938 
L 199.254042 258.414191 
L 196.412161 258.292845 
L 191.485537 250.80137 
L 185.539728 251.996469 
L 186.7 252.786649 
L 200.565234 257.009151 
L 200.565234 257.009151 
" clip-path="url(#p2db2817d54)" style="fill: none; stroke: #ff0000; stroke-width: 1.5; stroke-linecap: square"/>
   </g>
   <g id="legend_1">
    <g id="patch_6">
     <path d="M 171.891875 63.505625 
L 333.7 63.505625 
Q 337.1 63.505625 337.1 60.105625 
L 337.1 11.9 
Q 337.1 8.5 333.7 8.5 
L 171.891875 8.5 
Q 168.491875 8.5 168.491875 11.9 
L 168.491875 60.105625 
Q 168.491875 63.505625 171.891875 63.505625 
z
" style="fill: #ffffff; opacity: 0.8; stroke: #cccccc; stroke-linejoin: miter"/>
    </g>
    <g id="line2d_20">
     <path d="M 175.291875 22.267344 
L 192.291875 22.267344 
L 209.291875 22.267344 
" style="fill: none; stroke: #008000; stroke-width: 1.5; stroke-linecap: square"/>
    </g>
    <g id="text_17">
     <!-- ground truth -->
     <g transform="translate(222.891875 28.217344)scale(0.17 -0.17)">
      <defs>
       <path id="DejaVuSans-67" d="M 2906 1791 
Q 2906 2416 2648 2759 
Q 2391 3103 1925 3103 
Q 1463 3103 1205 2759 
Q 947 2416 947 1791 
Q 947 1169 1205 825 
Q 1463 481 1925 481 
Q 2391 481 2648 825 
Q 2906 1169 2906 1791 
z
M 3481 434 
Q 3481 -459 3084 -895 
Q 2688 -1331 1869 -1331 
Q 1566 -1331 1297 -1286 
Q 1028 -1241 775 -1147 
L 775 -588 
Q 1028 -725 1275 -790 
Q 1522 -856 1778 -856 
Q 2344 -856 2625 -561 
Q 2906 -266 2906 331 
L 2906 616 
Q 2728 306 2450 153 
Q 2172 0 1784 0 
Q 1141 0 747 490 
Q 353 981 353 1791 
Q 353 2603 747 3093 
Q 1141 3584 1784 3584 
Q 2172 3584 2450 3431 
Q 2728 3278 2906 2969 
L 2906 3500 
L 3481 3500 
L 3481 434 
z
" transform="scale(0.015625)"/>
       <path id="DejaVuSans-72" d="M 2631 2963 
Q 2534 3019 2420 3045 
Q 2306 3072 2169 3072 
Q 1681 3072 1420 2755 
Q 1159 2438 1159 1844 
L 1159 0 
L 581 0 
L 581 3500 
L 1159 3500 
L 1159 2956 
Q 1341 3275 1631 3429 
Q 1922 3584 2338 3584 
Q 2397 3584 2469 3576 
Q 2541 3569 2628 3553 
L 2631 2963 
z
" transform="scale(0.015625)"/>
       <path id="DejaVuSans-6f" d="M 1959 3097 
Q 1497 3097 1228 2736 
Q 959 2375 959 1747 
Q 959 1119 1226 758 
Q 1494 397 1959 397 
Q 2419 397 2687 759 
Q 2956 1122 2956 1747 
Q 2956 2369 2687 2733 
Q 2419 3097 1959 3097 
z
M 1959 3584 
Q 2709 3584 3137 3096 
Q 3566 2609 3566 1747 
Q 3566 888 3137 398 
Q 2709 -91 1959 -91 
Q 1206 -91 779 398 
Q 353 888 353 1747 
Q 353 2609 779 3096 
Q 1206 3584 1959 3584 
z
" transform="scale(0.015625)"/>
       <path id="DejaVuSans-75" d="M 544 1381 
L 544 3500 
L 1119 3500 
L 1119 1403 
Q 1119 906 1312 657 
Q 1506 409 1894 409 
Q 2359 409 2629 706 
Q 2900 1003 2900 1516 
L 2900 3500 
L 3475 3500 
L 3475 0 
L 2900 0 
L 2900 538 
Q 2691 219 2414 64 
Q 2138 -91 1772 -91 
Q 1169 -91 856 284 
Q 544 659 544 1381 
z
M 1991 3584 
L 1991 3584 
z
" transform="scale(0.015625)"/>
       <path id="DejaVuSans-6e" d="M 3513 2113 
L 3513 0 
L 2938 0 
L 2938 2094 
Q 2938 2591 2744 2837 
Q 2550 3084 2163 3084 
Q 1697 3084 1428 2787 
Q 1159 2491 1159 1978 
L 1159 0 
L 581 0 
L 581 3500 
L 1159 3500 
L 1159 2956 
Q 1366 3272 1645 3428 
Q 1925 3584 2291 3584 
Q 2894 3584 3203 3211 
Q 3513 2838 3513 2113 
z
" transform="scale(0.015625)"/>
       <path id="DejaVuSans-64" d="M 2906 2969 
L 2906 4863 
L 3481 4863 
L 3481 0 
L 2906 0 
L 2906 525 
Q 2725 213 2448 61 
Q 2172 -91 1784 -91 
Q 1150 -91 751 415 
Q 353 922 353 1747 
Q 353 2572 751 3078 
Q 1150 3584 1784 3584 
Q 2172 3584 2448 3432 
Q 2725 3281 2906 2969 
z
M 947 1747 
Q 947 1113 1208 752 
Q 1469 391 1925 391 
Q 2381 391 2643 752 
Q 2906 1113 2906 1747 
Q 2906 2381 2643 2742 
Q 2381 3103 1925 3103 
Q 1469 3103 1208 2742 
Q 947 2381 947 1747 
z
" transform="scale(0.015625)"/>
       <path id="DejaVuSans-74" d="M 1172 4494 
L 1172 3500 
L 2356 3500 
L 2356 3053 
L 1172 3053 
L 1172 1153 
Q 1172 725 1289 603 
Q 1406 481 1766 481 
L 2356 481 
L 2356 0 
L 1766 0 
Q 1100 0 847 248 
Q 594 497 594 1153 
L 594 3053 
L 172 3053 
L 172 3500 
L 594 3500 
L 594 4494 
L 1172 4494 
z
" transform="scale(0.015625)"/>
       <path id="DejaVuSans-68" d="M 3513 2113 
L 3513 0 
L 2938 0 
L 2938 2094 
Q 2938 2591 2744 2837 
Q 2550 3084 2163 3084 
Q 1697 3084 1428 2787 
Q 1159 2491 1159 1978 
L 1159 0 
L 581 0 
L 581 4863 
L 1159 4863 
L 1159 2956 
Q 1366 3272 1645 3428 
Q 1925 3584 2291 3584 
Q 2894 3584 3203 3211 
Q 3513 2838 3513 2113 
z
" transform="scale(0.015625)"/>
      </defs>
      <use xlink:href="#DejaVuSans-67"/>
      <use xlink:href="#DejaVuSans-72" x="63.476562"/>
      <use xlink:href="#DejaVuSans-6f" x="102.339844"/>
      <use xlink:href="#DejaVuSans-75" x="163.521484"/>
      <use xlink:href="#DejaVuSans-6e" x="226.900391"/>
      <use xlink:href="#DejaVuSans-64" x="290.279297"/>
      <use xlink:href="#DejaVuSans-20" x="353.755859"/>
      <use xlink:href="#DejaVuSans-74" x="385.542969"/>
      <use xlink:href="#DejaVuSans-72" x="424.751953"/>
      <use xlink:href="#DejaVuSans-75" x="465.865234"/>
      <use xlink:href="#DejaVuSans-74" x="529.244141"/>
      <use xlink:href="#DejaVuSans-68" x="568.453125"/>
     </g>
    </g>
    <g id="line2d_21">
     <path d="M 175.291875 47.220156 
L 192.291875 47.220156 
L 209.291875 47.220156 
" style="fill: none; stroke: #ff0000; stroke-width: 1.5; stroke-linecap: square"/>
    </g>
    <g id="text_18">
     <!-- estimated -->
     <g transform="translate(222.891875 53.170156)scale(0.17 -0.17)">
      <defs>
       <path id="DejaVuSans-65" d="M 3597 1894 
L 3597 1613 
L 953 1613 
Q 991 1019 1311 708 
Q 1631 397 2203 397 
Q 2534 397 2845 478 
Q 3156 559 3463 722 
L 3463 178 
Q 3153 47 2828 -22 
Q 2503 -91 2169 -91 
Q 1331 -91 842 396 
Q 353 884 353 1716 
Q 353 2575 817 3079 
Q 1281 3584 2069 3584 
Q 2775 3584 3186 3129 
Q 3597 2675 3597 1894 
z
M 3022 2063 
Q 3016 2534 2758 2815 
Q 2500 3097 2075 3097 
Q 1594 3097 1305 2825 
Q 1016 2553 972 2059 
L 3022 2063 
z
" transform="scale(0.015625)"/>
       <path id="DejaVuSans-73" d="M 2834 3397 
L 2834 2853 
Q 2591 2978 2328 3040 
Q 2066 3103 1784 3103 
Q 1356 3103 1142 2972 
Q 928 2841 928 2578 
Q 928 2378 1081 2264 
Q 1234 2150 1697 2047 
L 1894 2003 
Q 2506 1872 2764 1633 
Q 3022 1394 3022 966 
Q 3022 478 2636 193 
Q 2250 -91 1575 -91 
Q 1294 -91 989 -36 
Q 684 19 347 128 
L 347 722 
Q 666 556 975 473 
Q 1284 391 1588 391 
Q 1994 391 2212 530 
Q 2431 669 2431 922 
Q 2431 1156 2273 1281 
Q 2116 1406 1581 1522 
L 1381 1569 
Q 847 1681 609 1914 
Q 372 2147 372 2553 
Q 372 3047 722 3315 
Q 1072 3584 1716 3584 
Q 2034 3584 2315 3537 
Q 2597 3491 2834 3397 
z
" transform="scale(0.015625)"/>
       <path id="DejaVuSans-69" d="M 603 3500 
L 1178 3500 
L 1178 0 
L 603 0 
L 603 3500 
z
M 603 4863 
L 1178 4863 
L 1178 4134 
L 603 4134 
L 603 4863 
z
" transform="scale(0.015625)"/>
       <path id="DejaVuSans-61" d="M 2194 1759 
Q 1497 1759 1228 1600 
Q 959 1441 959 1056 
Q 959 750 1161 570 
Q 1363 391 1709 391 
Q 2188 391 2477 730 
Q 2766 1069 2766 1631 
L 2766 1759 
L 2194 1759 
z
M 3341 1997 
L 3341 0 
L 2766 0 
L 2766 531 
Q 2569 213 2275 61 
Q 1981 -91 1556 -91 
Q 1019 -91 701 211 
Q 384 513 384 1019 
Q 384 1609 779 1909 
Q 1175 2209 1959 2209 
L 2766 2209 
L 2766 2266 
Q 2766 2663 2505 2880 
Q 2244 3097 1772 3097 
Q 1472 3097 1187 3025 
Q 903 2953 641 2809 
L 641 3341 
Q 956 3463 1253 3523 
Q 1550 3584 1831 3584 
Q 2591 3584 2966 3190 
Q 3341 2797 3341 1997 
z
" transform="scale(0.015625)"/>
      </defs>
      <use xlink:href="#DejaVuSans-65"/>
      <use xlink:href="#DejaVuSans-73" x="61.523438"/>
      <use xlink:href="#DejaVuSans-74" x="113.623047"/>
      <use xlink:href="#DejaVuSans-69" x="152.832031"/>
      <use xlink:href="#DejaVuSans-6d" x="180.615234"/>
      <use xlink:href="#DejaVuSans-61" x="278.027344"/>
      <use xlink:href="#DejaVuSans-74" x="339.306641"/>
      <use xlink:href="#DejaVuSans-65" x="378.515625"/>
      <use xlink:href="#DejaVuSans-64" x="440.039062"/>
     </g>
    </g>
   </g>
  </g>
 </g>
 <defs>
  <clipPath id="p2db2817d54">
   <rect x="0" y="-0" width="345.6" height="345.6"/>
  </clipPath>
 </defs>
</svg>
