<?xml version="1.0" encoding="utf-8" standalone="no"?>
<!DOCTYPE svg PUBLIC "-//W3C//DTD SVG 1.1//EN"
  "http://www.w3.org/Graphics/SVG/1.1/DTD/svg11.dtd">
<svg xmlns:xlink="http://www.w3.org/1999/xlink" width="412.04pt" height="269.612pt" viewBox="0 0 412.04 269.612" xmlns="http://www.w3.org/2000/svg" version="1.1">
 <metadata>
  <rdf:RDF xmlns:dc="http://purl.org/dc/elements/1.1/" xmlns:cc="http://creativecommons.org/ns#" xmlns:rdf="http://www.w3.org/1999/02/22-rdf-syntax-ns#">
   <cc:Work>
    <dc:type rdf:resource="http://purl.org/dc/dcmitype/StillImage"/>
    <dc:date>2022-02-10T00:49:56.040986</dc:date>
    <dc:format>image/svg+xml</dc:format>
    <dc:creator>
     <cc:Agent>
      <dc:title>Matplotlib v3.5.1, https://matplotlib.org/</dc:title>
     </cc:Agent>
    </dc:creator>
   </cc:Work>
  </rdf:RDF>
 </metadata>
 <defs>
  <style type="text/css">*{stroke-linejoin: round; stroke-linecap: butt}</style>
 </defs>
 <g id="figure_1">
  <g id="patch_1">
   <path d="M 0 269.612 
L 412.04 269.612 
L 412.04 0 
L 0 0 
z
" style="fill: #ffffff"/>
  </g>
  <g id="axes_1">
   <g id="patch_2">
    <path d="M 54.92 78.268235 
L 412.04 78.268235 
L 412.04 0 
L 54.92 0 
z
" style="fill: #ffffff"/>
   </g>
   <g id="matplotlib.axis_1"/>
   <g id="matplotlib.axis_2">
    <g id="ytick_1">
     <g id="line2d_1">
      <defs>
       <path id="m851b343615" d="M 0 0 
L -3.5 0 
" style="stroke: #000000; stroke-width: 0.8"/>
      </defs>
      <g>
       <use xlink:href="#m851b343615" x="54.92" y="49.795522" style="stroke: #000000; stroke-width: 0.8"/>
      </g>
     </g>
     <g id="text_1">
      <!-- −140 -->
      <g transform="translate(20.452813 53.594741)scale(0.1 -0.1)">
       <defs>
        <path id="DejaVuSans-2212" d="M 678 2272 
L 4684 2272 
L 4684 1741 
L 678 1741 
L 678 2272 
z
" transform="scale(0.015625)"/>
        <path id="DejaVuSans-31" d="M 794 531 
L 1825 531 
L 1825 4091 
L 703 3866 
L 703 4441 
L 1819 4666 
L 2450 4666 
L 2450 531 
L 3481 531 
L 3481 0 
L 794 0 
L 794 531 
z
" transform="scale(0.015625)"/>
        <path id="DejaVuSans-34" d="M 2419 4116 
L 825 1625 
L 2419 1625 
L 2419 4116 
z
M 2253 4666 
L 3047 4666 
L 3047 1625 
L 3713 1625 
L 3713 1100 
L 3047 1100 
L 3047 0 
L 2419 0 
L 2419 1100 
L 313 1100 
L 313 1709 
L 2253 4666 
z
" transform="scale(0.015625)"/>
        <path id="DejaVuSans-30" d="M 2034 4250 
Q 1547 4250 1301 3770 
Q 1056 3291 1056 2328 
Q 1056 1369 1301 889 
Q 1547 409 2034 409 
Q 2525 409 2770 889 
Q 3016 1369 3016 2328 
Q 3016 3291 2770 3770 
Q 2525 4250 2034 4250 
z
M 2034 4750 
Q 2819 4750 3233 4129 
Q 3647 3509 3647 2328 
Q 3647 1150 3233 529 
Q 2819 -91 2034 -91 
Q 1250 -91 836 529 
Q 422 1150 422 2328 
Q 422 3509 836 4129 
Q 1250 4750 2034 4750 
z
" transform="scale(0.015625)"/>
       </defs>
       <use xlink:href="#DejaVuSans-2212"/>
       <use xlink:href="#DejaVuSans-31" x="83.789062"/>
       <use xlink:href="#DejaVuSans-34" x="147.412109"/>
       <use xlink:href="#DejaVuSans-30" x="211.035156"/>
      </g>
     </g>
    </g>
    <g id="ytick_2">
     <g id="line2d_2">
      <g>
       <use xlink:href="#m851b343615" x="54.92" y="6.720733" style="stroke: #000000; stroke-width: 0.8"/>
      </g>
     </g>
     <g id="text_2">
      <!-- −120 -->
      <g transform="translate(20.452813 10.519951)scale(0.1 -0.1)">
       <defs>
        <path id="DejaVuSans-32" d="M 1228 531 
L 3431 531 
L 3431 0 
L 469 0 
L 469 531 
Q 828 903 1448 1529 
Q 2069 2156 2228 2338 
Q 2531 2678 2651 2914 
Q 2772 3150 2772 3378 
Q 2772 3750 2511 3984 
Q 2250 4219 1831 4219 
Q 1534 4219 1204 4116 
Q 875 4013 500 3803 
L 500 4441 
Q 881 4594 1212 4672 
Q 1544 4750 1819 4750 
Q 2544 4750 2975 4387 
Q 3406 4025 3406 3419 
Q 3406 3131 3298 2873 
Q 3191 2616 2906 2266 
Q 2828 2175 2409 1742 
Q 1991 1309 1228 531 
z
" transform="scale(0.015625)"/>
       </defs>
       <use xlink:href="#DejaVuSans-2212"/>
       <use xlink:href="#DejaVuSans-31" x="83.789062"/>
       <use xlink:href="#DejaVuSans-32" x="147.412109"/>
       <use xlink:href="#DejaVuSans-30" x="211.035156"/>
      </g>
     </g>
    </g>
    <g id="text_3">
     <!-- yaw [°] -->
     <g transform="translate(12.917344 69.90943)rotate(-90)scale(0.17 -0.17)">
      <defs>
       <path id="DejaVuSans-79" d="M 2059 -325 
Q 1816 -950 1584 -1140 
Q 1353 -1331 966 -1331 
L 506 -1331 
L 506 -850 
L 844 -850 
Q 1081 -850 1212 -737 
Q 1344 -625 1503 -206 
L 1606 56 
L 191 3500 
L 800 3500 
L 1894 763 
L 2988 3500 
L 3597 3500 
L 2059 -325 
z
" transform="scale(0.015625)"/>
       <path id="DejaVuSans-61" d="M 2194 1759 
Q 1497 1759 1228 1600 
Q 959 1441 959 1056 
Q 959 750 1161 570 
Q 1363 391 1709 391 
Q 2188 391 2477 730 
Q 2766 1069 2766 1631 
L 2766 1759 
L 2194 1759 
z
M 3341 1997 
L 3341 0 
L 2766 0 
L 2766 531 
Q 2569 213 2275 61 
Q 1981 -91 1556 -91 
Q 1019 -91 701 211 
Q 384 513 384 1019 
Q 384 1609 779 1909 
Q 1175 2209 1959 2209 
L 2766 2209 
L 2766 2266 
Q 2766 2663 2505 2880 
Q 2244 3097 1772 3097 
Q 1472 3097 1187 3025 
Q 903 2953 641 2809 
L 641 3341 
Q 956 3463 1253 3523 
Q 1550 3584 1831 3584 
Q 2591 3584 2966 3190 
Q 3341 2797 3341 1997 
z
" transform="scale(0.015625)"/>
       <path id="DejaVuSans-77" d="M 269 3500 
L 844 3500 
L 1563 769 
L 2278 3500 
L 2956 3500 
L 3675 769 
L 4391 3500 
L 4966 3500 
L 4050 0 
L 3372 0 
L 2619 2869 
L 1863 0 
L 1184 0 
L 269 3500 
z
" transform="scale(0.015625)"/>
       <path id="DejaVuSans-20" transform="scale(0.015625)"/>
       <path id="DejaVuSans-5b" d="M 550 4863 
L 1875 4863 
L 1875 4416 
L 1125 4416 
L 1125 -397 
L 1875 -397 
L 1875 -844 
L 550 -844 
L 550 4863 
z
" transform="scale(0.015625)"/>
       <path id="DejaVuSans-b0" d="M 1600 4347 
Q 1350 4347 1178 4173 
Q 1006 4000 1006 3750 
Q 1006 3503 1178 3333 
Q 1350 3163 1600 3163 
Q 1850 3163 2022 3333 
Q 2194 3503 2194 3750 
Q 2194 3997 2020 4172 
Q 1847 4347 1600 4347 
z
M 1600 4750 
Q 1800 4750 1984 4673 
Q 2169 4597 2303 4453 
Q 2447 4313 2519 4134 
Q 2591 3956 2591 3750 
Q 2591 3338 2302 3052 
Q 2013 2766 1594 2766 
Q 1172 2766 890 3047 
Q 609 3328 609 3750 
Q 609 4169 896 4459 
Q 1184 4750 1600 4750 
z
" transform="scale(0.015625)"/>
       <path id="DejaVuSans-5d" d="M 1947 4863 
L 1947 -844 
L 622 -844 
L 622 -397 
L 1369 -397 
L 1369 4416 
L 622 4416 
L 622 4863 
L 1947 4863 
z
" transform="scale(0.015625)"/>
      </defs>
      <use xlink:href="#DejaVuSans-79"/>
      <use xlink:href="#DejaVuSans-61" x="59.179688"/>
      <use xlink:href="#DejaVuSans-77" x="120.458984"/>
      <use xlink:href="#DejaVuSans-20" x="202.246094"/>
      <use xlink:href="#DejaVuSans-5b" x="234.033203"/>
      <use xlink:href="#DejaVuSans-b0" x="273.046875"/>
      <use xlink:href="#DejaVuSans-5d" x="323.046875"/>
     </g>
    </g>
   </g>
   <g id="line2d_3">
    <path d="M 71.152727 23.859161 
L 73.220591 29.224512 
L 75.288454 35.353557 
L 77.356317 35.004407 
L 79.424181 35.104706 
L 81.492044 35.712585 
L 83.559907 42.620317 
L 85.627771 42.420848 
L 87.695634 38.423426 
L 89.763497 38.898186 
L 91.831361 36.79329 
L 95.967087 28.541279 
L 98.034951 26.645389 
L 100.102814 17.208251 
L 102.170677 3.557647 
L 104.238541 4.059915 
L 106.306404 13.527664 
L 108.374268 24.607873 
L 110.442131 30.622191 
L 112.509994 32.226339 
L 114.577858 30.998583 
L 116.645721 35.75122 
L 120.781448 46.027935 
L 122.849311 44.671793 
L 124.917174 44.067729 
L 126.985038 41.563487 
L 129.052901 38.661686 
L 131.120764 33.814104 
L 133.188628 24.677095 
L 135.256491 22.270855 
L 137.324354 23.235498 
L 139.392218 25.633347 
L 141.460081 22.524513 
L 143.527944 22.822134 
L 145.595808 26.521764 
L 147.663671 27.273774 
L 149.731534 28.372935 
L 151.799398 25.371859 
L 153.867261 29.437853 
L 155.935124 31.818082 
L 158.002988 32.357386 
L 160.070851 34.408081 
L 162.138715 37.46987 
L 164.206578 40.899044 
L 166.274441 43.246572 
L 168.342305 41.319351 
L 170.410168 43.352303 
L 172.478031 45.855471 
L 174.545895 45.975001 
L 176.613758 46.450467 
L 178.681621 45.755054 
L 180.749485 43.709072 
L 182.817348 40.982301 
L 184.885211 39.287735 
L 186.953075 36.655371 
L 189.020938 33.259165 
L 191.088801 32.187853 
L 193.156665 26.105524 
L 195.224528 23.264616 
L 197.292391 25.622331 
L 199.360255 29.616276 
L 201.428118 32.182189 
L 203.495981 32.517111 
L 205.563845 32.720269 
L 207.631708 33.826909 
L 209.699572 36.016616 
L 211.767435 34.494199 
L 213.835298 30.635375 
L 215.903162 28.32119 
L 217.971025 29.066204 
L 220.038888 30.160563 
L 222.106752 33.066088 
L 224.174615 32.497485 
L 226.242478 35.252772 
L 228.310342 36.610013 
L 230.378205 36.100906 
L 232.446068 39.218331 
L 234.513932 39.02688 
L 236.581795 38.683222 
L 238.649658 40.058206 
L 240.717522 45.139719 
L 242.785385 44.191946 
L 244.853248 43.52257 
L 246.921112 42.607954 
L 248.988975 42.800533 
L 251.056838 42.711864 
L 253.124702 44.529426 
L 255.192565 47.224405 
L 257.260428 43.680757 
L 259.328292 43.282425 
L 261.396155 42.674519 
L 263.464019 43.389643 
L 265.531882 42.084989 
L 267.599745 37.592373 
L 269.667609 37.105002 
L 271.735472 38.386608 
L 273.803335 38.025852 
L 275.871199 39.185941 
L 277.939062 37.664366 
L 282.074789 37.651765 
L 284.142652 42.232753 
L 286.210515 43.457767 
L 288.278379 47.539137 
L 290.346242 46.214386 
L 292.414105 43.829437 
L 294.481969 37.206681 
L 296.549832 33.992708 
L 298.617695 32.425839 
L 300.685559 32.159536 
L 302.753422 29.562853 
L 304.821285 27.666354 
L 306.889149 27.002397 
L 308.957012 28.261832 
L 311.024876 30.840368 
L 313.092739 30.83957 
L 315.160602 30.602512 
L 317.228466 35.623971 
L 319.296329 37.349552 
L 321.364192 36.713484 
L 323.432056 40.331384 
L 325.499919 40.99034 
L 327.567782 44.443146 
L 329.635646 50.384057 
L 331.703509 52.845381 
L 333.771372 55.922172 
L 335.839236 56.597756 
L 337.907099 54.619053 
L 339.974962 49.268722 
L 342.042826 45.185792 
L 344.110689 38.986077 
L 346.178552 34.195103 
L 348.246416 32.870192 
L 350.314279 31.356505 
L 352.382142 31.81597 
L 354.450006 30.59096 
L 356.517869 32.071365 
L 358.585732 28.15998 
L 360.653596 28.182328 
L 362.721459 31.0652 
L 364.789323 35.677455 
L 366.857186 39.864254 
L 368.925049 44.390445 
L 370.992913 48.591057 
L 373.060776 48.67127 
L 375.128639 48.895538 
L 377.196503 47.388019 
L 379.264366 45.632041 
L 381.332229 44.993824 
L 383.400093 45.03341 
L 385.467956 44.311298 
L 387.535819 46.023699 
L 389.603683 45.487367 
L 391.671546 45.076104 
L 393.739409 45.086774 
L 395.807273 44.012285 
L 395.807273 44.012285 
" clip-path="url(#pd070d4f908)" style="fill: none; stroke: #008000; stroke-width: 1.5; stroke-linecap: square"/>
   </g>
   <g id="line2d_4">
    <path d="M 71.152727 23.85906 
L 73.220591 28.208764 
L 75.288454 32.945186 
L 77.356317 34.177801 
L 79.424181 33.782477 
L 81.492044 27.216178 
L 83.559907 33.535262 
L 85.627771 35.406678 
L 87.695634 37.595675 
L 89.763497 34.889325 
L 91.831361 44.831707 
L 93.899224 40.900435 
L 95.967087 35.973765 
L 98.034951 31.751094 
L 100.102814 29.142242 
L 102.170677 12.496489 
L 104.238541 6.283292 
L 108.374268 34.584391 
L 110.442131 41.247467 
L 112.509994 50.354857 
L 114.577858 49.049891 
L 116.645721 51.078756 
L 118.713584 56.122788 
L 120.781448 59.470418 
L 122.849311 66.024395 
L 124.917174 69.089594 
L 126.985038 54.714728 
L 129.052901 48.634784 
L 133.188628 27.892153 
L 135.256491 18.633636 
L 139.392218 20.038489 
L 141.460081 15.207861 
L 143.527944 13.170887 
L 145.595808 15.532499 
L 147.663671 19.586828 
L 149.731534 14.827288 
L 151.799398 19.879738 
L 155.935124 37.769732 
L 158.002988 34.525125 
L 160.070851 44.445369 
L 162.138715 47.382166 
L 164.206578 51.12991 
L 166.274441 54.391076 
L 168.342305 57.140691 
L 170.410168 63.491418 
L 174.545895 68.43265 
L 176.613758 68.993848 
L 178.681621 74.710588 
L 180.749485 72.953547 
L 182.817348 69.310254 
L 184.885211 62.501967 
L 186.953075 53.938223 
L 189.020938 47.62126 
L 191.088801 41.950533 
L 193.156665 31.95823 
L 195.224528 25.913884 
L 199.360255 27.128312 
L 201.428118 38.086617 
L 203.495981 44.553293 
L 205.563845 45.864034 
L 207.631708 55.04785 
L 209.699572 62.456357 
L 211.767435 69.220682 
L 213.835298 68.088601 
L 215.903162 65.731278 
L 217.971025 68.000915 
L 220.038888 68.525383 
L 222.106752 69.308449 
L 224.174615 69.552058 
L 226.242478 70.535918 
L 228.310342 72.109339 
L 230.378205 66.543358 
L 232.446068 70.861339 
L 234.513932 57.997929 
L 236.581795 50.219775 
L 238.649658 47.527807 
L 240.717522 40.576441 
L 242.785385 29.434135 
L 244.853248 19.8359 
L 246.921112 25.584678 
L 248.988975 33.475984 
L 253.124702 52.967363 
L 255.192565 58.730121 
L 257.260428 57.970177 
L 259.328292 54.722047 
L 261.396155 59.255422 
L 263.464019 53.323093 
L 265.531882 52.015348 
L 267.599745 45.140788 
L 269.667609 42.078166 
L 271.735472 44.272039 
L 275.871199 49.365165 
L 277.939062 50.818591 
L 280.006925 47.193714 
L 282.074789 46.021189 
L 284.142652 47.962334 
L 286.210515 50.351852 
L 288.278379 55.415135 
L 290.346242 53.996519 
L 292.414105 52.77934 
L 294.481969 43.521551 
L 296.549832 39.116974 
L 298.617695 38.199715 
L 300.685559 37.417723 
L 302.753422 35.425837 
L 304.821285 33.005624 
L 306.889149 28.481041 
L 308.957012 22.544817 
L 311.024876 22.971376 
L 313.092739 24.264724 
L 315.160602 30.380352 
L 317.228466 38.428499 
L 319.296329 43.801475 
L 321.364192 45.234732 
L 323.432056 46.256511 
L 325.499919 47.731876 
L 327.567782 40.774743 
L 329.635646 42.156314 
L 331.703509 42.972582 
L 333.771372 42.612986 
L 335.839236 48.224692 
L 337.907099 49.587097 
L 339.974962 50.117922 
L 342.042826 34.154893 
L 344.110689 29.814443 
L 346.178552 25.996771 
L 348.246416 23.151553 
L 350.314279 22.303486 
L 352.382142 21.627763 
L 354.450006 25.49164 
L 356.517869 25.222242 
L 358.585732 23.963805 
L 360.653596 22.412505 
L 362.721459 28.310825 
L 364.789323 33.129963 
L 366.857186 42.117635 
L 368.925049 44.960836 
L 373.060776 42.828361 
L 375.128639 41.125534 
L 377.196503 42.685433 
L 379.264366 47.184114 
L 381.332229 45.262646 
L 383.400093 44.215855 
L 385.467956 42.465255 
L 387.535819 44.00787 
L 389.603683 46.148813 
L 391.671546 46.636798 
L 393.739409 46.380636 
L 395.807273 41.913101 
L 395.807273 41.913101 
" clip-path="url(#pd070d4f908)" style="fill: none; stroke: #ff0000; stroke-width: 1.5; stroke-linecap: square"/>
   </g>
   <g id="patch_3">
    <path d="M 54.92 78.268235 
L 54.92 0 
" style="fill: none; stroke: #000000; stroke-width: 0.8; stroke-linejoin: miter; stroke-linecap: square"/>
   </g>
   <g id="patch_4">
    <path d="M 412.04 78.268235 
L 412.04 0 
" style="fill: none; stroke: #000000; stroke-width: 0.8; stroke-linejoin: miter; stroke-linecap: square"/>
   </g>
   <g id="patch_5">
    <path d="M 54.92 78.268235 
L 412.04 78.268235 
" style="fill: none; stroke: #000000; stroke-width: 0.8; stroke-linejoin: miter; stroke-linecap: square"/>
   </g>
   <g id="patch_6">
    <path d="M 54.92 0 
L 412.04 0 
" style="fill: none; stroke: #000000; stroke-width: 0.8; stroke-linejoin: miter; stroke-linecap: square"/>
   </g>
   <g id="legend_1">
    <g id="patch_7">
     <path d="M 66.82 63.978438 
L 231.725313 63.978438 
Q 235.125313 63.978438 235.125313 60.578438 
L 235.125313 11.9 
Q 235.125313 8.5 231.725313 8.5 
L 66.82 8.5 
Q 63.42 8.5 63.42 11.9 
L 63.42 60.578438 
Q 63.42 63.978438 66.82 63.978438 
z
" style="fill: #ffffff; opacity: 0.8; stroke: #cccccc; stroke-linejoin: miter"/>
    </g>
    <g id="line2d_5">
     <path d="M 70.22 22.267344 
L 87.22 22.267344 
L 104.22 22.267344 
" style="fill: none; stroke: #008000; stroke-width: 1.5; stroke-linecap: square"/>
    </g>
    <g id="text_4">
     <!-- ground_truth -->
     <g transform="translate(117.82 28.217344)scale(0.17 -0.17)">
      <defs>
       <path id="DejaVuSans-67" d="M 2906 1791 
Q 2906 2416 2648 2759 
Q 2391 3103 1925 3103 
Q 1463 3103 1205 2759 
Q 947 2416 947 1791 
Q 947 1169 1205 825 
Q 1463 481 1925 481 
Q 2391 481 2648 825 
Q 2906 1169 2906 1791 
z
M 3481 434 
Q 3481 -459 3084 -895 
Q 2688 -1331 1869 -1331 
Q 1566 -1331 1297 -1286 
Q 1028 -1241 775 -1147 
L 775 -588 
Q 1028 -725 1275 -790 
Q 1522 -856 1778 -856 
Q 2344 -856 2625 -561 
Q 2906 -266 2906 331 
L 2906 616 
Q 2728 306 2450 153 
Q 2172 0 1784 0 
Q 1141 0 747 490 
Q 353 981 353 1791 
Q 353 2603 747 3093 
Q 1141 3584 1784 3584 
Q 2172 3584 2450 3431 
Q 2728 3278 2906 2969 
L 2906 3500 
L 3481 3500 
L 3481 434 
z
" transform="scale(0.015625)"/>
       <path id="DejaVuSans-72" d="M 2631 2963 
Q 2534 3019 2420 3045 
Q 2306 3072 2169 3072 
Q 1681 3072 1420 2755 
Q 1159 2438 1159 1844 
L 1159 0 
L 581 0 
L 581 3500 
L 1159 3500 
L 1159 2956 
Q 1341 3275 1631 3429 
Q 1922 3584 2338 3584 
Q 2397 3584 2469 3576 
Q 2541 3569 2628 3553 
L 2631 2963 
z
" transform="scale(0.015625)"/>
       <path id="DejaVuSans-6f" d="M 1959 3097 
Q 1497 3097 1228 2736 
Q 959 2375 959 1747 
Q 959 1119 1226 758 
Q 1494 397 1959 397 
Q 2419 397 2687 759 
Q 2956 1122 2956 1747 
Q 2956 2369 2687 2733 
Q 2419 3097 1959 3097 
z
M 1959 3584 
Q 2709 3584 3137 3096 
Q 3566 2609 3566 1747 
Q 3566 888 3137 398 
Q 2709 -91 1959 -91 
Q 1206 -91 779 398 
Q 353 888 353 1747 
Q 353 2609 779 3096 
Q 1206 3584 1959 3584 
z
" transform="scale(0.015625)"/>
       <path id="DejaVuSans-75" d="M 544 1381 
L 544 3500 
L 1119 3500 
L 1119 1403 
Q 1119 906 1312 657 
Q 1506 409 1894 409 
Q 2359 409 2629 706 
Q 2900 1003 2900 1516 
L 2900 3500 
L 3475 3500 
L 3475 0 
L 2900 0 
L 2900 538 
Q 2691 219 2414 64 
Q 2138 -91 1772 -91 
Q 1169 -91 856 284 
Q 544 659 544 1381 
z
M 1991 3584 
L 1991 3584 
z
" transform="scale(0.015625)"/>
       <path id="DejaVuSans-6e" d="M 3513 2113 
L 3513 0 
L 2938 0 
L 2938 2094 
Q 2938 2591 2744 2837 
Q 2550 3084 2163 3084 
Q 1697 3084 1428 2787 
Q 1159 2491 1159 1978 
L 1159 0 
L 581 0 
L 581 3500 
L 1159 3500 
L 1159 2956 
Q 1366 3272 1645 3428 
Q 1925 3584 2291 3584 
Q 2894 3584 3203 3211 
Q 3513 2838 3513 2113 
z
" transform="scale(0.015625)"/>
       <path id="DejaVuSans-64" d="M 2906 2969 
L 2906 4863 
L 3481 4863 
L 3481 0 
L 2906 0 
L 2906 525 
Q 2725 213 2448 61 
Q 2172 -91 1784 -91 
Q 1150 -91 751 415 
Q 353 922 353 1747 
Q 353 2572 751 3078 
Q 1150 3584 1784 3584 
Q 2172 3584 2448 3432 
Q 2725 3281 2906 2969 
z
M 947 1747 
Q 947 1113 1208 752 
Q 1469 391 1925 391 
Q 2381 391 2643 752 
Q 2906 1113 2906 1747 
Q 2906 2381 2643 2742 
Q 2381 3103 1925 3103 
Q 1469 3103 1208 2742 
Q 947 2381 947 1747 
z
" transform="scale(0.015625)"/>
       <path id="DejaVuSans-5f" d="M 3263 -1063 
L 3263 -1509 
L -63 -1509 
L -63 -1063 
L 3263 -1063 
z
" transform="scale(0.015625)"/>
       <path id="DejaVuSans-74" d="M 1172 4494 
L 1172 3500 
L 2356 3500 
L 2356 3053 
L 1172 3053 
L 1172 1153 
Q 1172 725 1289 603 
Q 1406 481 1766 481 
L 2356 481 
L 2356 0 
L 1766 0 
Q 1100 0 847 248 
Q 594 497 594 1153 
L 594 3053 
L 172 3053 
L 172 3500 
L 594 3500 
L 594 4494 
L 1172 4494 
z
" transform="scale(0.015625)"/>
       <path id="DejaVuSans-68" d="M 3513 2113 
L 3513 0 
L 2938 0 
L 2938 2094 
Q 2938 2591 2744 2837 
Q 2550 3084 2163 3084 
Q 1697 3084 1428 2787 
Q 1159 2491 1159 1978 
L 1159 0 
L 581 0 
L 581 4863 
L 1159 4863 
L 1159 2956 
Q 1366 3272 1645 3428 
Q 1925 3584 2291 3584 
Q 2894 3584 3203 3211 
Q 3513 2838 3513 2113 
z
" transform="scale(0.015625)"/>
      </defs>
      <use xlink:href="#DejaVuSans-67"/>
      <use xlink:href="#DejaVuSans-72" x="63.476562"/>
      <use xlink:href="#DejaVuSans-6f" x="102.339844"/>
      <use xlink:href="#DejaVuSans-75" x="163.521484"/>
      <use xlink:href="#DejaVuSans-6e" x="226.900391"/>
      <use xlink:href="#DejaVuSans-64" x="290.279297"/>
      <use xlink:href="#DejaVuSans-5f" x="353.755859"/>
      <use xlink:href="#DejaVuSans-74" x="403.755859"/>
      <use xlink:href="#DejaVuSans-72" x="442.964844"/>
      <use xlink:href="#DejaVuSans-75" x="484.078125"/>
      <use xlink:href="#DejaVuSans-74" x="547.457031"/>
      <use xlink:href="#DejaVuSans-68" x="586.666016"/>
     </g>
    </g>
    <g id="line2d_6">
     <path d="M 70.22 47.692969 
L 87.22 47.692969 
L 104.22 47.692969 
" style="fill: none; stroke: #ff0000; stroke-width: 1.5; stroke-linecap: square"/>
    </g>
    <g id="text_5">
     <!-- estimated -->
     <g transform="translate(117.82 53.642969)scale(0.17 -0.17)">
      <defs>
       <path id="DejaVuSans-65" d="M 3597 1894 
L 3597 1613 
L 953 1613 
Q 991 1019 1311 708 
Q 1631 397 2203 397 
Q 2534 397 2845 478 
Q 3156 559 3463 722 
L 3463 178 
Q 3153 47 2828 -22 
Q 2503 -91 2169 -91 
Q 1331 -91 842 396 
Q 353 884 353 1716 
Q 353 2575 817 3079 
Q 1281 3584 2069 3584 
Q 2775 3584 3186 3129 
Q 3597 2675 3597 1894 
z
M 3022 2063 
Q 3016 2534 2758 2815 
Q 2500 3097 2075 3097 
Q 1594 3097 1305 2825 
Q 1016 2553 972 2059 
L 3022 2063 
z
" transform="scale(0.015625)"/>
       <path id="DejaVuSans-73" d="M 2834 3397 
L 2834 2853 
Q 2591 2978 2328 3040 
Q 2066 3103 1784 3103 
Q 1356 3103 1142 2972 
Q 928 2841 928 2578 
Q 928 2378 1081 2264 
Q 1234 2150 1697 2047 
L 1894 2003 
Q 2506 1872 2764 1633 
Q 3022 1394 3022 966 
Q 3022 478 2636 193 
Q 2250 -91 1575 -91 
Q 1294 -91 989 -36 
Q 684 19 347 128 
L 347 722 
Q 666 556 975 473 
Q 1284 391 1588 391 
Q 1994 391 2212 530 
Q 2431 669 2431 922 
Q 2431 1156 2273 1281 
Q 2116 1406 1581 1522 
L 1381 1569 
Q 847 1681 609 1914 
Q 372 2147 372 2553 
Q 372 3047 722 3315 
Q 1072 3584 1716 3584 
Q 2034 3584 2315 3537 
Q 2597 3491 2834 3397 
z
" transform="scale(0.015625)"/>
       <path id="DejaVuSans-69" d="M 603 3500 
L 1178 3500 
L 1178 0 
L 603 0 
L 603 3500 
z
M 603 4863 
L 1178 4863 
L 1178 4134 
L 603 4134 
L 603 4863 
z
" transform="scale(0.015625)"/>
       <path id="DejaVuSans-6d" d="M 3328 2828 
Q 3544 3216 3844 3400 
Q 4144 3584 4550 3584 
Q 5097 3584 5394 3201 
Q 5691 2819 5691 2113 
L 5691 0 
L 5113 0 
L 5113 2094 
Q 5113 2597 4934 2840 
Q 4756 3084 4391 3084 
Q 3944 3084 3684 2787 
Q 3425 2491 3425 1978 
L 3425 0 
L 2847 0 
L 2847 2094 
Q 2847 2600 2669 2842 
Q 2491 3084 2119 3084 
Q 1678 3084 1418 2786 
Q 1159 2488 1159 1978 
L 1159 0 
L 581 0 
L 581 3500 
L 1159 3500 
L 1159 2956 
Q 1356 3278 1631 3431 
Q 1906 3584 2284 3584 
Q 2666 3584 2933 3390 
Q 3200 3197 3328 2828 
z
" transform="scale(0.015625)"/>
      </defs>
      <use xlink:href="#DejaVuSans-65"/>
      <use xlink:href="#DejaVuSans-73" x="61.523438"/>
      <use xlink:href="#DejaVuSans-74" x="113.623047"/>
      <use xlink:href="#DejaVuSans-69" x="152.832031"/>
      <use xlink:href="#DejaVuSans-6d" x="180.615234"/>
      <use xlink:href="#DejaVuSans-61" x="278.027344"/>
      <use xlink:href="#DejaVuSans-74" x="339.306641"/>
      <use xlink:href="#DejaVuSans-65" x="378.515625"/>
      <use xlink:href="#DejaVuSans-64" x="440.039062"/>
     </g>
    </g>
   </g>
  </g>
  <g id="axes_2">
   <g id="patch_8">
    <path d="M 54.92 172.190118 
L 412.04 172.190118 
L 412.04 93.921882 
L 54.92 93.921882 
z
" style="fill: #ffffff"/>
   </g>
   <g id="matplotlib.axis_3"/>
   <g id="matplotlib.axis_4">
    <g id="ytick_3">
     <g id="line2d_7">
      <g>
       <use xlink:href="#m851b343615" x="54.92" y="159.659714" style="stroke: #000000; stroke-width: 0.8"/>
      </g>
     </g>
     <g id="text_6">
      <!-- −40 -->
      <g transform="translate(26.815313 163.458933)scale(0.1 -0.1)">
       <use xlink:href="#DejaVuSans-2212"/>
       <use xlink:href="#DejaVuSans-34" x="83.789062"/>
       <use xlink:href="#DejaVuSans-30" x="147.412109"/>
      </g>
     </g>
    </g>
    <g id="ytick_4">
     <g id="line2d_8">
      <g>
       <use xlink:href="#m851b343615" x="54.92" y="131.856355" style="stroke: #000000; stroke-width: 0.8"/>
      </g>
     </g>
     <g id="text_7">
      <!-- −20 -->
      <g transform="translate(26.815313 135.655574)scale(0.1 -0.1)">
       <use xlink:href="#DejaVuSans-2212"/>
       <use xlink:href="#DejaVuSans-32" x="83.789062"/>
       <use xlink:href="#DejaVuSans-30" x="147.412109"/>
      </g>
     </g>
    </g>
    <g id="ytick_5">
     <g id="line2d_9">
      <g>
       <use xlink:href="#m851b343615" x="54.92" y="104.052996" style="stroke: #000000; stroke-width: 0.8"/>
      </g>
     </g>
     <g id="text_8">
      <!-- 0 -->
      <g transform="translate(41.5575 107.852214)scale(0.1 -0.1)">
       <use xlink:href="#DejaVuSans-30"/>
      </g>
     </g>
    </g>
    <g id="text_9">
     <!-- pitch [°] -->
     <g transform="translate(19.279844 167.790453)rotate(-90)scale(0.17 -0.17)">
      <defs>
       <path id="DejaVuSans-70" d="M 1159 525 
L 1159 -1331 
L 581 -1331 
L 581 3500 
L 1159 3500 
L 1159 2969 
Q 1341 3281 1617 3432 
Q 1894 3584 2278 3584 
Q 2916 3584 3314 3078 
Q 3713 2572 3713 1747 
Q 3713 922 3314 415 
Q 2916 -91 2278 -91 
Q 1894 -91 1617 61 
Q 1341 213 1159 525 
z
M 3116 1747 
Q 3116 2381 2855 2742 
Q 2594 3103 2138 3103 
Q 1681 3103 1420 2742 
Q 1159 2381 1159 1747 
Q 1159 1113 1420 752 
Q 1681 391 2138 391 
Q 2594 391 2855 752 
Q 3116 1113 3116 1747 
z
" transform="scale(0.015625)"/>
       <path id="DejaVuSans-63" d="M 3122 3366 
L 3122 2828 
Q 2878 2963 2633 3030 
Q 2388 3097 2138 3097 
Q 1578 3097 1268 2742 
Q 959 2388 959 1747 
Q 959 1106 1268 751 
Q 1578 397 2138 397 
Q 2388 397 2633 464 
Q 2878 531 3122 666 
L 3122 134 
Q 2881 22 2623 -34 
Q 2366 -91 2075 -91 
Q 1284 -91 818 406 
Q 353 903 353 1747 
Q 353 2603 823 3093 
Q 1294 3584 2113 3584 
Q 2378 3584 2631 3529 
Q 2884 3475 3122 3366 
z
" transform="scale(0.015625)"/>
      </defs>
      <use xlink:href="#DejaVuSans-70"/>
      <use xlink:href="#DejaVuSans-69" x="63.476562"/>
      <use xlink:href="#DejaVuSans-74" x="91.259766"/>
      <use xlink:href="#DejaVuSans-63" x="130.46875"/>
      <use xlink:href="#DejaVuSans-68" x="185.449219"/>
      <use xlink:href="#DejaVuSans-20" x="248.828125"/>
      <use xlink:href="#DejaVuSans-5b" x="280.615234"/>
      <use xlink:href="#DejaVuSans-b0" x="319.628906"/>
      <use xlink:href="#DejaVuSans-5d" x="369.628906"/>
     </g>
    </g>
   </g>
   <g id="line2d_10">
    <path d="M 71.152727 104.866349 
L 73.220591 103.166723 
L 75.288454 103.531008 
L 77.356317 103.444906 
L 79.424181 104.544328 
L 83.559907 99.260729 
L 85.627771 99.168634 
L 87.695634 97.735219 
L 89.763497 99.005998 
L 91.831361 98.894779 
L 93.899224 102.037964 
L 95.967087 104.08364 
L 98.034951 104.032113 
L 100.102814 105.950935 
L 102.170677 107.308422 
L 104.238541 106.542414 
L 106.306404 107.287296 
L 108.374268 104.961241 
L 110.442131 103.239715 
L 112.509994 102.62479 
L 114.577858 104.07998 
L 116.645721 104.111993 
L 118.713584 102.852534 
L 120.781448 102.461486 
L 122.849311 103.81711 
L 124.917174 102.603437 
L 126.985038 101.126843 
L 129.052901 104.32434 
L 131.120764 105.553776 
L 133.188628 107.6985 
L 135.256491 108.797832 
L 137.324354 108.286681 
L 139.392218 108.556118 
L 141.460081 110.959403 
L 143.527944 112.073771 
L 145.595808 111.194641 
L 147.663671 109.119484 
L 149.731534 110.719367 
L 151.799398 106.864724 
L 153.867261 106.39092 
L 155.935124 102.369925 
L 158.002988 103.180838 
L 162.138715 102.070263 
L 164.206578 104.176963 
L 166.274441 104.583695 
L 170.410168 101.977579 
L 172.478031 102.114797 
L 174.545895 101.759628 
L 176.613758 102.404719 
L 178.681621 103.571929 
L 180.749485 102.373941 
L 182.817348 104.64894 
L 184.885211 104.0084 
L 186.953075 108.019095 
L 189.020938 107.148907 
L 191.088801 114.361924 
L 193.156665 115.04533 
L 195.224528 109.736791 
L 197.292391 108.405309 
L 199.360255 107.776968 
L 201.428118 106.388848 
L 203.495981 105.607192 
L 205.563845 101.761619 
L 207.631708 100.699787 
L 209.699572 103.104619 
L 211.767435 106.255593 
L 213.835298 108.252473 
L 215.903162 108.165753 
L 217.971025 107.267039 
L 220.038888 105.491868 
L 222.106752 103.219679 
L 224.174615 103.748878 
L 226.242478 104.472557 
L 228.310342 105.346258 
L 230.378205 104.751341 
L 232.446068 102.248506 
L 234.513932 99.927286 
L 236.581795 100.102925 
L 238.649658 101.698849 
L 240.717522 103.849632 
L 242.785385 105.525024 
L 244.853248 104.87412 
L 246.921112 106.455267 
L 248.988975 107.666453 
L 251.056838 105.799763 
L 253.124702 102.725504 
L 255.192565 104.000685 
L 257.260428 102.814375 
L 259.328292 100.941001 
L 261.396155 99.873455 
L 263.464019 100.778502 
L 265.531882 103.019858 
L 267.599745 103.655229 
L 269.667609 102.489423 
L 271.735472 104.160242 
L 273.803335 103.655135 
L 275.871199 105.210513 
L 277.939062 103.195325 
L 280.006925 101.966804 
L 282.074789 102.439028 
L 284.142652 103.254213 
L 286.210515 101.901245 
L 288.278379 102.807369 
L 290.346242 101.63371 
L 292.414105 102.568373 
L 294.481969 101.045946 
L 296.549832 98.766312 
L 298.617695 98.797309 
L 300.685559 99.797347 
L 302.753422 99.74561 
L 304.821285 99.206612 
L 306.889149 99.369402 
L 308.957012 101.269939 
L 311.024876 99.55838 
L 313.092739 99.833033 
L 315.160602 102.702293 
L 317.228466 103.306355 
L 319.296329 101.832967 
L 321.364192 100.712759 
L 323.432056 102.102589 
L 325.499919 101.047675 
L 327.567782 101.64159 
L 329.635646 102.692834 
L 331.703509 101.958554 
L 333.771372 102.526063 
L 335.839236 101.648117 
L 337.907099 99.952235 
L 339.974962 99.82719 
L 342.042826 98.372161 
L 344.110689 98.913609 
L 348.246416 99.141829 
L 350.314279 98.490647 
L 352.382142 98.824174 
L 354.450006 100.722167 
L 356.517869 103.943722 
L 358.585732 102.717163 
L 360.653596 103.359557 
L 362.721459 99.672089 
L 364.789323 99.385807 
L 366.857186 101.319027 
L 370.992913 100.252032 
L 373.060776 100.493219 
L 375.128639 100.148927 
L 377.196503 98.970133 
L 379.264366 98.939417 
L 381.332229 98.711443 
L 383.400093 98.304881 
L 385.467956 98.422268 
L 387.535819 98.135072 
L 389.603683 97.479529 
L 391.671546 97.7682 
L 393.739409 98.356675 
L 395.807273 98.320283 
L 395.807273 98.320283 
" clip-path="url(#pa7540251d0)" style="fill: none; stroke: #008000; stroke-width: 1.5; stroke-linecap: square"/>
   </g>
   <g id="line2d_11">
    <path d="M 71.152727 104.866314 
L 73.220591 102.922684 
L 75.288454 104.798586 
L 77.356317 104.177051 
L 79.424181 106.083331 
L 81.492044 104.377251 
L 83.559907 102.195135 
L 85.627771 100.523731 
L 87.695634 108.638241 
L 89.763497 110.062004 
L 91.831361 108.647097 
L 93.899224 110.663315 
L 95.967087 109.757445 
L 98.034951 111.509965 
L 100.102814 112.658345 
L 102.170677 116.243688 
L 104.238541 117.104706 
L 106.306404 116.74595 
L 108.374268 112.992906 
L 110.442131 111.104531 
L 112.509994 108.163953 
L 114.577858 108.118818 
L 116.645721 106.989524 
L 118.713584 113.03603 
L 120.781448 112.255932 
L 122.849311 108.800336 
L 124.917174 105.910184 
L 126.985038 114.298772 
L 129.052901 117.403016 
L 131.120764 119.037139 
L 133.188628 123.536741 
L 135.256491 122.153677 
L 137.324354 121.660733 
L 139.392218 122.60545 
L 141.460081 125.251489 
L 143.527944 123.973283 
L 145.595808 123.432342 
L 147.663671 116.80842 
L 149.731534 121.293115 
L 151.799398 122.979938 
L 153.867261 126.457637 
L 155.935124 125.864979 
L 158.002988 126.999209 
L 162.138715 120.626182 
L 164.206578 122.461625 
L 166.274441 123.064936 
L 168.342305 122.163509 
L 170.410168 125.533082 
L 172.478031 126.309981 
L 174.545895 126.902149 
L 176.613758 126.266998 
L 178.681621 130.354237 
L 180.749485 131.890249 
L 182.817348 133.174187 
L 184.885211 132.744154 
L 186.953075 140.627093 
L 189.020938 140.846272 
L 191.088801 147.215181 
L 193.156665 154.717392 
L 195.224528 149.142331 
L 197.292391 145.280146 
L 199.360255 144.135321 
L 201.428118 142.792169 
L 203.495981 142.282823 
L 205.563845 138.353261 
L 207.631708 135.438821 
L 209.699572 135.919662 
L 211.767435 137.720308 
L 213.835298 135.414538 
L 215.903162 136.646575 
L 217.971025 137.628625 
L 220.038888 132.456887 
L 222.106752 128.373573 
L 224.174615 129.104655 
L 226.242478 129.321353 
L 228.310342 137.748791 
L 230.378205 139.072822 
L 232.446068 137.095792 
L 234.513932 142.813908 
L 236.581795 143.03485 
L 238.649658 142.876675 
L 240.717522 149.909275 
L 242.785385 152.009931 
L 244.853248 147.342218 
L 246.921112 149.397079 
L 248.988975 152.107884 
L 251.056838 150.850253 
L 253.124702 147.405111 
L 255.192565 147.37036 
L 257.260428 138.386349 
L 259.328292 139.378283 
L 261.396155 146.191571 
L 263.464019 149.688352 
L 265.531882 151.992365 
L 267.599745 150.087263 
L 269.667609 149.11997 
L 271.735472 150.447701 
L 273.803335 147.993681 
L 275.871199 150.026637 
L 277.939062 153.254593 
L 280.006925 154.180846 
L 282.074789 154.526838 
L 286.210515 157.078973 
L 288.278379 168.632471 
L 290.346242 166.865002 
L 292.414105 167.820445 
L 294.481969 164.15354 
L 296.549832 157.016558 
L 298.617695 154.695239 
L 300.685559 156.345883 
L 302.753422 152.837297 
L 304.821285 152.627969 
L 306.889149 151.809299 
L 308.957012 155.411242 
L 311.024876 155.189684 
L 313.092739 154.611228 
L 315.160602 157.626552 
L 317.228466 161.161182 
L 319.296329 159.515926 
L 321.364192 158.41868 
L 323.432056 159.12378 
L 325.499919 156.795723 
L 327.567782 154.176626 
L 329.635646 156.868959 
L 331.703509 155.937951 
L 333.771372 156.114792 
L 335.839236 152.93582 
L 337.907099 150.895906 
L 339.974962 145.72928 
L 342.042826 147.496216 
L 344.110689 147.685251 
L 346.178552 148.564411 
L 348.246416 151.024637 
L 350.314279 149.332928 
L 352.382142 150.895715 
L 354.450006 155.799645 
L 356.517869 157.666439 
L 358.585732 156.356508 
L 360.653596 157.225862 
L 362.721459 153.522537 
L 366.857186 156.602759 
L 368.925049 156.288546 
L 370.992913 155.472391 
L 373.060776 155.448039 
L 375.128639 156.034891 
L 377.196503 154.488823 
L 379.264366 150.632253 
L 381.332229 149.452309 
L 383.400093 149.137799 
L 385.467956 150.191694 
L 387.535819 150.328373 
L 389.603683 146.594183 
L 393.739409 148.347318 
L 395.807273 146.761356 
L 395.807273 146.761356 
" clip-path="url(#pa7540251d0)" style="fill: none; stroke: #ff0000; stroke-width: 1.5; stroke-linecap: square"/>
   </g>
   <g id="patch_9">
    <path d="M 54.92 172.190118 
L 54.92 93.921882 
" style="fill: none; stroke: #000000; stroke-width: 0.8; stroke-linejoin: miter; stroke-linecap: square"/>
   </g>
   <g id="patch_10">
    <path d="M 412.04 172.190118 
L 412.04 93.921882 
" style="fill: none; stroke: #000000; stroke-width: 0.8; stroke-linejoin: miter; stroke-linecap: square"/>
   </g>
   <g id="patch_11">
    <path d="M 54.92 172.190118 
L 412.04 172.190118 
" style="fill: none; stroke: #000000; stroke-width: 0.8; stroke-linejoin: miter; stroke-linecap: square"/>
   </g>
   <g id="patch_12">
    <path d="M 54.92 93.921882 
L 412.04 93.921882 
" style="fill: none; stroke: #000000; stroke-width: 0.8; stroke-linejoin: miter; stroke-linecap: square"/>
   </g>
  </g>
  <g id="axes_3">
   <g id="patch_13">
    <path d="M 54.92 266.112 
L 412.04 266.112 
L 412.04 187.843765 
L 54.92 187.843765 
z
" style="fill: #ffffff"/>
   </g>
   <g id="matplotlib.axis_5"/>
   <g id="matplotlib.axis_6">
    <g id="ytick_6">
     <g id="line2d_12">
      <g>
       <use xlink:href="#m851b343615" x="54.92" y="236.644456" style="stroke: #000000; stroke-width: 0.8"/>
      </g>
     </g>
     <g id="text_10">
      <!-- 75 -->
      <g transform="translate(35.195 240.443675)scale(0.1 -0.1)">
       <defs>
        <path id="DejaVuSans-37" d="M 525 4666 
L 3525 4666 
L 3525 4397 
L 1831 0 
L 1172 0 
L 2766 4134 
L 525 4134 
L 525 4666 
z
" transform="scale(0.015625)"/>
        <path id="DejaVuSans-35" d="M 691 4666 
L 3169 4666 
L 3169 4134 
L 1269 4134 
L 1269 2991 
Q 1406 3038 1543 3061 
Q 1681 3084 1819 3084 
Q 2600 3084 3056 2656 
Q 3513 2228 3513 1497 
Q 3513 744 3044 326 
Q 2575 -91 1722 -91 
Q 1428 -91 1123 -41 
Q 819 9 494 109 
L 494 744 
Q 775 591 1075 516 
Q 1375 441 1709 441 
Q 2250 441 2565 725 
Q 2881 1009 2881 1497 
Q 2881 1984 2565 2268 
Q 2250 2553 1709 2553 
Q 1456 2553 1204 2497 
Q 953 2441 691 2322 
L 691 4666 
z
" transform="scale(0.015625)"/>
       </defs>
       <use xlink:href="#DejaVuSans-37"/>
       <use xlink:href="#DejaVuSans-35" x="63.623047"/>
      </g>
     </g>
    </g>
    <g id="ytick_7">
     <g id="line2d_13">
      <g>
       <use xlink:href="#m851b343615" x="54.92" y="206.485585" style="stroke: #000000; stroke-width: 0.8"/>
      </g>
     </g>
     <g id="text_11">
      <!-- 100 -->
      <g transform="translate(28.8325 210.284803)scale(0.1 -0.1)">
       <use xlink:href="#DejaVuSans-31"/>
       <use xlink:href="#DejaVuSans-30" x="63.623047"/>
       <use xlink:href="#DejaVuSans-30" x="127.246094"/>
      </g>
     </g>
    </g>
    <g id="text_12">
     <!-- roll [°] -->
     <g transform="translate(21.297031 253.788742)rotate(-90)scale(0.17 -0.17)">
      <defs>
       <path id="DejaVuSans-6c" d="M 603 4863 
L 1178 4863 
L 1178 0 
L 603 0 
L 603 4863 
z
" transform="scale(0.015625)"/>
      </defs>
      <use xlink:href="#DejaVuSans-72"/>
      <use xlink:href="#DejaVuSans-6f" x="38.863281"/>
      <use xlink:href="#DejaVuSans-6c" x="100.044922"/>
      <use xlink:href="#DejaVuSans-6c" x="127.828125"/>
      <use xlink:href="#DejaVuSans-20" x="155.611328"/>
      <use xlink:href="#DejaVuSans-5b" x="187.398438"/>
      <use xlink:href="#DejaVuSans-b0" x="226.412109"/>
      <use xlink:href="#DejaVuSans-5d" x="276.412109"/>
     </g>
    </g>
   </g>
   <g id="line2d_14">
    <path d="M 71.152727 223.768114 
L 73.220591 222.501261 
L 75.288454 221.793091 
L 77.356317 222.593357 
L 79.424181 221.993561 
L 81.492044 222.002725 
L 83.559907 221.337464 
L 85.627771 220.366415 
L 87.695634 219.197364 
L 89.763497 218.16107 
L 91.831361 216.65748 
L 93.899224 218.00645 
L 95.967087 219.790343 
L 98.034951 220.412161 
L 100.102814 223.191841 
L 102.170677 227.875698 
L 104.238541 228.352877 
L 106.306404 226.439675 
L 108.374268 222.461376 
L 110.442131 220.526259 
L 112.509994 221.250362 
L 114.577858 223.711482 
L 116.645721 225.883739 
L 118.713584 226.10612 
L 120.781448 225.65324 
L 122.849311 224.216768 
L 124.917174 221.689421 
L 126.985038 219.361207 
L 129.052901 218.721186 
L 131.120764 219.035699 
L 135.256491 223.168859 
L 137.324354 223.98265 
L 139.392218 223.046881 
L 141.460081 225.730153 
L 143.527944 228.22812 
L 145.595808 228.91531 
L 147.663671 231.648579 
L 149.731534 235.524055 
L 151.799398 235.373498 
L 153.867261 232.795609 
L 158.002988 226.651757 
L 160.070851 225.61392 
L 162.138715 224.138062 
L 164.206578 220.417524 
L 168.342305 214.916506 
L 170.410168 209.955675 
L 172.478031 207.452467 
L 174.545895 206.371098 
L 176.613758 207.635816 
L 178.681621 210.525236 
L 180.749485 211.412913 
L 182.817348 213.156952 
L 184.885211 218.437968 
L 186.953075 225.104723 
L 189.020938 228.238997 
L 191.088801 230.913339 
L 193.156665 231.768331 
L 195.224528 233.213201 
L 197.292391 236.804172 
L 199.360255 236.65539 
L 201.428118 234.390621 
L 203.495981 231.794979 
L 205.563845 228.363416 
L 207.631708 223.787052 
L 209.699572 221.685143 
L 211.767435 220.843255 
L 213.835298 219.604716 
L 215.903162 216.792628 
L 217.971025 213.287579 
L 220.038888 210.171952 
L 222.106752 209.210147 
L 224.174615 208.009165 
L 226.242478 208.23909 
L 228.310342 211.096791 
L 232.446068 218.166358 
L 234.513932 223.842034 
L 236.581795 230.699169 
L 238.649658 236.659204 
L 240.717522 241.77422 
L 242.785385 245.758627 
L 244.853248 246.874777 
L 246.921112 240.51938 
L 248.988975 233.42382 
L 251.056838 224.115671 
L 253.124702 218.626126 
L 255.192565 218.030835 
L 257.260428 217.969969 
L 259.328292 217.295436 
L 263.464019 218.428558 
L 265.531882 219.422421 
L 267.599745 219.167423 
L 269.667609 219.39714 
L 271.735472 218.884523 
L 273.803335 218.234916 
L 275.871199 217.398913 
L 277.939062 216.284654 
L 280.006925 216.196658 
L 282.074789 217.164444 
L 284.142652 218.809249 
L 286.210515 220.251792 
L 288.278379 221.464054 
L 290.346242 221.756815 
L 296.549832 219.85869 
L 298.617695 219.031122 
L 300.685559 218.353988 
L 302.753422 217.809141 
L 304.821285 217.752706 
L 308.957012 219.310566 
L 311.024876 220.828009 
L 313.092739 219.829783 
L 315.160602 217.962363 
L 317.228466 215.875491 
L 319.296329 214.212611 
L 321.364192 214.043845 
L 325.499919 216.185136 
L 327.567782 217.67271 
L 329.635646 220.492629 
L 331.703509 222.408721 
L 333.771372 223.932058 
L 335.839236 224.285775 
L 337.907099 223.451594 
L 339.974962 222.048466 
L 342.042826 220.13978 
L 346.178552 216.714026 
L 348.246416 216.026258 
L 350.314279 216.36024 
L 352.382142 216.886962 
L 354.450006 216.686525 
L 356.517869 218.378173 
L 358.585732 218.051169 
L 360.653596 217.480849 
L 362.721459 215.755162 
L 364.789323 216.210243 
L 366.857186 217.068545 
L 368.925049 217.697447 
L 370.992913 219.83193 
L 373.060776 221.41143 
L 375.128639 221.751513 
L 377.196503 220.842939 
L 381.332229 219.316709 
L 385.467956 218.89208 
L 387.535819 218.871956 
L 389.603683 219.166774 
L 391.671546 218.750786 
L 395.807273 218.116716 
L 395.807273 218.116716 
" clip-path="url(#p2a6305611d)" style="fill: none; stroke: #008000; stroke-width: 1.5; stroke-linecap: square"/>
   </g>
   <g id="line2d_15">
    <path d="M 71.152727 223.76811 
L 73.220591 222.441395 
L 75.288454 221.624334 
L 77.356317 222.213163 
L 79.424181 222.43337 
L 81.492044 221.700266 
L 83.559907 221.707112 
L 85.627771 220.639892 
L 87.695634 220.179027 
L 89.763497 219.853366 
L 91.831361 216.346485 
L 93.899224 215.854891 
L 95.967087 217.774518 
L 98.034951 219.096052 
L 100.102814 218.443242 
L 102.170677 224.537111 
L 104.238541 225.205822 
L 106.306404 223.913972 
L 108.374268 218.671059 
L 110.442131 216.496704 
L 112.509994 216.53635 
L 114.577858 218.636239 
L 116.645721 222.068652 
L 118.713584 220.761612 
L 120.781448 219.688298 
L 122.849311 218.159155 
L 124.917174 216.248028 
L 126.985038 211.861492 
L 129.052901 210.554201 
L 133.188628 214.656484 
L 135.256491 213.521456 
L 137.324354 214.659261 
L 139.392218 213.430379 
L 141.460081 215.066696 
L 143.527944 217.396336 
L 145.595808 218.064321 
L 147.663671 219.049793 
L 149.731534 223.064167 
L 151.799398 220.610196 
L 153.867261 216.984428 
L 155.935124 216.175112 
L 158.002988 214.041902 
L 160.070851 213.37359 
L 162.138715 210.843086 
L 164.206578 205.883049 
L 166.274441 203.620826 
L 168.342305 201.722932 
L 170.410168 196.628767 
L 172.478031 192.707775 
L 174.545895 191.401412 
L 176.613758 191.591535 
L 178.681621 193.876389 
L 180.749485 195.715879 
L 182.817348 196.716009 
L 184.885211 201.953075 
L 186.953075 210.498717 
L 189.020938 217.649612 
L 191.088801 220.66221 
L 193.156665 226.229785 
L 195.224528 228.678933 
L 197.292391 233.070489 
L 199.360255 232.5507 
L 201.428118 228.204582 
L 203.495981 225.891705 
L 205.563845 222.05162 
L 207.631708 219.566004 
L 209.699572 217.665911 
L 211.767435 216.049246 
L 213.835298 215.456742 
L 215.903162 212.53104 
L 217.971025 208.225151 
L 220.038888 205.658326 
L 222.106752 204.693607 
L 224.174615 202.993069 
L 226.242478 203.567203 
L 228.310342 204.841626 
L 230.378205 209.804431 
L 232.446068 213.550326 
L 234.513932 222.908337 
L 236.581795 231.700304 
L 238.649658 237.042247 
L 240.717522 244.404353 
L 242.785385 255.807421 
L 244.853248 262.554353 
L 246.921112 255.234926 
L 251.056838 234.982317 
L 253.124702 228.406029 
L 255.192565 226.917133 
L 257.260428 226.919691 
L 259.328292 226.634452 
L 261.396155 227.257574 
L 263.464019 227.477644 
L 265.531882 228.554863 
L 267.599745 227.794866 
L 269.667609 228.460033 
L 271.735472 227.606822 
L 273.803335 226.546786 
L 277.939062 225.147608 
L 280.006925 224.068511 
L 282.074789 225.303416 
L 286.210515 228.261114 
L 288.278379 231.379508 
L 290.346242 232.240813 
L 292.414105 232.194159 
L 294.481969 233.338366 
L 296.549832 232.366528 
L 298.617695 230.925968 
L 300.685559 230.02888 
L 302.753422 228.95415 
L 304.821285 229.082942 
L 306.889149 229.075844 
L 308.957012 230.335702 
L 311.024876 232.970006 
L 313.092739 231.099695 
L 315.160602 230.555423 
L 317.228466 228.90182 
L 319.296329 226.003202 
L 321.364192 225.897356 
L 323.432056 226.581752 
L 325.499919 228.73496 
L 327.567782 231.819778 
L 329.635646 235.330692 
L 331.703509 238.15667 
L 333.771372 240.115541 
L 335.839236 239.109639 
L 337.907099 237.673082 
L 339.974962 234.254963 
L 344.110689 229.29202 
L 346.178552 226.44779 
L 348.246416 225.793153 
L 350.314279 225.652403 
L 352.382142 227.201417 
L 354.450006 227.019833 
L 356.517869 229.242722 
L 358.585732 229.210253 
L 360.653596 228.15517 
L 362.721459 225.38494 
L 364.789323 226.832857 
L 366.857186 227.61565 
L 368.925049 228.015698 
L 370.992913 228.530199 
L 373.060776 230.522508 
L 375.128639 231.698974 
L 377.196503 230.418777 
L 379.264366 226.617411 
L 381.332229 225.822196 
L 383.400093 225.30229 
L 385.467956 226.185307 
L 387.535819 226.159569 
L 389.603683 227.040746 
L 391.671546 227.104071 
L 393.739409 226.552675 
L 395.807273 226.683303 
L 395.807273 226.683303 
" clip-path="url(#p2a6305611d)" style="fill: none; stroke: #ff0000; stroke-width: 1.5; stroke-linecap: square"/>
   </g>
   <g id="patch_14">
    <path d="M 54.92 266.112 
L 54.92 187.843765 
" style="fill: none; stroke: #000000; stroke-width: 0.8; stroke-linejoin: miter; stroke-linecap: square"/>
   </g>
   <g id="patch_15">
    <path d="M 412.04 266.112 
L 412.04 187.843765 
" style="fill: none; stroke: #000000; stroke-width: 0.8; stroke-linejoin: miter; stroke-linecap: square"/>
   </g>
   <g id="patch_16">
    <path d="M 54.92 266.112 
L 412.04 266.112 
" style="fill: none; stroke: #000000; stroke-width: 0.8; stroke-linejoin: miter; stroke-linecap: square"/>
   </g>
   <g id="patch_17">
    <path d="M 54.92 187.843765 
L 412.04 187.843765 
" style="fill: none; stroke: #000000; stroke-width: 0.8; stroke-linejoin: miter; stroke-linecap: square"/>
   </g>
  </g>
 </g>
 <defs>
  <clipPath id="pd070d4f908">
   <rect x="54.92" y="0" width="357.12" height="78.268235"/>
  </clipPath>
  <clipPath id="pa7540251d0">
   <rect x="54.92" y="93.921882" width="357.12" height="78.268235"/>
  </clipPath>
  <clipPath id="p2a6305611d">
   <rect x="54.92" y="187.843765" width="357.12" height="78.268235"/>
  </clipPath>
 </defs>
</svg>
